solid ascii
 facet normal -0.980296 0.159704 -0.11625
  outer loop
   vertex 0.00391 -0.006024 0.051255
   vertex 0.005725 0.003011 0.048362
   vertex 0.004654 -0.007081 0.043529
  endloop
 endfacet
 facet normal -0.967213 -0.246934 -0.0593576
  outer loop
   vertex 0.004654 -0.007081 0.043529
   vertex 0.005396 -0.009371 0.040965
   vertex 0.00391 -0.006024 0.051255
  endloop
 endfacet
 facet normal -0.712799 -0.688089 -0.135835
  outer loop
   vertex 0.00391 -0.006024 0.051255
   vertex 0.006325 -0.008825 0.052771
   vertex 0.000258 -0.006162 0.071118
  endloop
 endfacet
 facet normal -0.888925 -0.426759 -0.166402
  outer loop
   vertex 0.00391 -0.006024 0.051255
   vertex 0.000258 -0.006162 0.071118
   vertex -0.001087 -0.002997 0.070186
  endloop
 endfacet
 facet normal -0.777858 -0.621966 0.0899732
  outer loop
   vertex 0.006325 -0.008825 0.052771
   vertex 0.00391 -0.006024 0.051255
   vertex 0.005396 -0.009371 0.040965
  endloop
 endfacet
 facet normal -0.947658 0.16078 -0.275851
  outer loop
   vertex -0.001087 -0.002997 0.070186
   vertex -0.003239 0.004046 0.081684
   vertex 0.00391 -0.006024 0.051255
  endloop
 endfacet
 facet normal -0.959064 0.108967 -0.261384
  outer loop
   vertex 0.005725 0.003011 0.048362
   vertex 0.00391 -0.006024 0.051255
   vertex -0.003239 0.004046 0.081684
  endloop
 endfacet
 facet normal -0.606681 0.794922 -0.00615886
  outer loop
   vertex 0.006795 0.003682 0.029567
   vertex 0.005725 0.003011 0.048362
   vertex 0.007859 0.004497 0.029949
  endloop
 endfacet
 facet normal -0.361431 0.932399 0.000348595
  outer loop
   vertex 0.00551 0.002935 0.028725
   vertex 0.003925 0.002321 0.027646
   vertex 0.005725 0.003011 0.048362
  endloop
 endfacet
 facet normal -0.503635 0.863914 0.0021706
  outer loop
   vertex 0.006795 0.003682 0.029567
   vertex 0.00551 0.002935 0.028725
   vertex 0.005725 0.003011 0.048362
  endloop
 endfacet
 facet normal -0.926343 0.370465 0.06815
  outer loop
   vertex 0.003925 0.002321 0.027646
   vertex 0.002732 -0.001007 0.029521
   vertex 0.005725 0.003011 0.048362
  endloop
 endfacet
 facet normal -0.988145 0.0330697 0.14992
  outer loop
   vertex 0.002732 -0.001007 0.029521
   vertex 0.004654 -0.007081 0.043529
   vertex 0.005725 0.003011 0.048362
  endloop
 endfacet
 facet normal -0.274754 0.960429 0.0456673
  outer loop
   vertex 0.007859 0.004497 0.029949
   vertex 0.005725 0.003011 0.048362
   vertex 0.012297 0.005043 0.045167
  endloop
 endfacet
 facet normal -0.346928 0.929895 -0.122211
  outer loop
   vertex 0.005725 0.003011 0.048362
   vertex -0.003239 0.004046 0.081684
   vertex 0.012297 0.005043 0.045167
  endloop
 endfacet
 facet normal -0.987667 0.0378508 0.151928
  outer loop
   vertex 0.002732 -0.001007 0.029521
   vertex 0.001946 -0.0109 0.026876
   vertex 0.004654 -0.007081 0.043529
  endloop
 endfacet
 facet normal -0.79929 -0.544259 0.254789
  outer loop
   vertex 0.004654 -0.007081 0.043529
   vertex 0.001946 -0.0109 0.026876
   vertex 0.005396 -0.009371 0.040965
  endloop
 endfacet
 facet normal -0.0732162 -0.989413 0.125304
  outer loop
   vertex 0.005396 -0.009371 0.040965
   vertex 0.001946 -0.0109 0.026876
   vertex 0.009197 -0.012817 0.015976
  endloop
 endfacet
 facet normal -0.368126 -0.926996 0.0718388
  outer loop
   vertex 0.005396 -0.009371 0.040965
   vertex 0.009197 -0.012817 0.015976
   vertex 0.006325 -0.008825 0.052771
  endloop
 endfacet
 facet normal 0.162202 -0.979564 0.118936
  outer loop
   vertex 0.014575 -0.009405 0.036743
   vertex 0.006325 -0.008825 0.052771
   vertex 0.009197 -0.012817 0.015976
  endloop
 endfacet
 facet normal 0.297512 -0.936222 0.187015
  outer loop
   vertex 0.006325 -0.008825 0.052771
   vertex 0.014575 -0.009405 0.036743
   vertex 0.011434 -0.002519 0.076212
  endloop
 endfacet
 facet normal 0.215341 -0.95377 0.209645
  outer loop
   vertex 0.006325 -0.008825 0.052771
   vertex 0.011434 -0.002519 0.076212
   vertex 0.000258 -0.006162 0.071118
  endloop
 endfacet
 facet normal -0.827302 -0.450423 -0.335695
  outer loop
   vertex 0.000258 -0.006162 0.071118
   vertex -0.007906 -0.003661 0.087882
   vertex -0.001087 -0.002997 0.070186
  endloop
 endfacet
 facet normal -0.220598 -0.974625 0.0379727
  outer loop
   vertex -0.002524 -0.004653 0.093687
   vertex -0.007906 -0.003661 0.087882
   vertex 0.000258 -0.006162 0.071118
  endloop
 endfacet
 facet normal 0.295208 -0.954786 0.0351475
  outer loop
   vertex 0.000258 -0.006162 0.071118
   vertex 0.011434 -0.002519 0.076212
   vertex 0.000978 -0.005318 0.087998
  endloop
 endfacet
 facet normal -0.100957 -0.993425 0.0539775
  outer loop
   vertex -0.002524 -0.004653 0.093687
   vertex 0.000258 -0.006162 0.071118
   vertex 0.000978 -0.005318 0.087998
  endloop
 endfacet
 facet normal -0.900666 0.274577 -0.336761
  outer loop
   vertex -0.007906 -0.003661 0.087882
   vertex -0.003239 0.004046 0.081684
   vertex -0.001087 -0.002997 0.070186
  endloop
 endfacet
 facet normal -0.842667 0.0823641 -0.532099
  outer loop
   vertex -0.003239 0.004046 0.081684
   vertex -0.007906 -0.003661 0.087882
   vertex -0.017025 0.006117 0.103837
  endloop
 endfacet
 facet normal -0.662943 0.584972 -0.467242
  outer loop
   vertex -0.017025 0.006117 0.103837
   vertex -0.013673 0.00978 0.103667
   vertex -0.003239 0.004046 0.081684
  endloop
 endfacet
 facet normal 0.44181 0.896782 -0.024214
  outer loop
   vertex -0.013673 0.00978 0.103667
   vertex -0.006385 0.00635 0.109612
   vertex -0.003239 0.004046 0.081684
  endloop
 endfacet
 facet normal 0.238694 0.969642 -0.0531052
  outer loop
   vertex -0.006385 0.00635 0.109612
   vertex -0.002187 0.004558 0.095761
   vertex -0.003239 0.004046 0.081684
  endloop
 endfacet
 facet normal 0.081865 0.995744 -0.0423345
  outer loop
   vertex -0.003239 0.004046 0.081684
   vertex -0.002187 0.004558 0.095761
   vertex 0.011258 0.00257 0.075001
  endloop
 endfacet
 facet normal 0.140362 0.986302 0.0866448
  outer loop
   vertex 0.011258 0.00257 0.075001
   vertex 0.012297 0.005043 0.045167
   vertex -0.003239 0.004046 0.081684
  endloop
 endfacet
 facet normal -0.572768 0.819671 -0.00868442
  outer loop
   vertex 0.007369 0.00405 0.026443
   vertex 0.006795 0.003682 0.029567
   vertex 0.008374 0.004772 0.028305
  endloop
 endfacet
 facet normal -0.595333 0.80177 -0.0523781
  outer loop
   vertex 0.007859 0.004497 0.029949
   vertex 0.008374 0.004772 0.028305
   vertex 0.006795 0.003682 0.029567
  endloop
 endfacet
 facet normal -0.488276 0.872219 -0.0286372
  outer loop
   vertex 0.006264 0.003276 0.026255
   vertex 0.00551 0.002935 0.028725
   vertex 0.006795 0.003682 0.029567
  endloop
 endfacet
 facet normal -0.5727 0.819719 -0.00866622
  outer loop
   vertex 0.007369 0.00405 0.026443
   vertex 0.006264 0.003276 0.026255
   vertex 0.006795 0.003682 0.029567
  endloop
 endfacet
 facet normal -0.317827 0.946328 0.0587344
  outer loop
   vertex 0.008374 0.004772 0.028305
   vertex 0.007859 0.004497 0.029949
   vertex 0.012297 0.005043 0.045167
  endloop
 endfacet
 facet normal -0.347012 0.937559 -0.0237688
  outer loop
   vertex 0.005042 0.002709 0.026643
   vertex 0.003925 0.002321 0.027646
   vertex 0.00551 0.002935 0.028725
  endloop
 endfacet
 facet normal -0.42183 0.906668 -0.00359773
  outer loop
   vertex 0.005042 0.002709 0.026643
   vertex 0.00551 0.002935 0.028725
   vertex 0.006264 0.003276 0.026255
  endloop
 endfacet
 facet normal -0.312875 0.949606 0.0189092
  outer loop
   vertex 0.005042 0.002709 0.026643
   vertex 0.004815 0.002668 0.024946
   vertex 0.003925 0.002321 0.027646
  endloop
 endfacet
 facet normal -0.874464 0.434731 0.215226
  outer loop
   vertex 0.003925 0.002321 0.027646
   vertex 0.002344 0.002089 0.021691
   vertex 0.002732 -0.001007 0.029521
  endloop
 endfacet
 facet normal -0.146975 0.98914 0.000484768
  outer loop
   vertex 0.002344 0.002089 0.021691
   vertex 0.003925 0.002321 0.027646
   vertex 0.003641 0.002281 0.023159
  endloop
 endfacet
 facet normal -0.330132 0.943852 0.0124812
  outer loop
   vertex 0.003641 0.002281 0.023159
   vertex 0.003925 0.002321 0.027646
   vertex 0.004815 0.002668 0.024946
  endloop
 endfacet
 facet normal -0.855693 -0.06913 0.512846
  outer loop
   vertex -0.004757 -0.00926 0.015913
   vertex 0.001946 -0.0109 0.026876
   vertex 0.002732 -0.001007 0.029521
  endloop
 endfacet
 facet normal -0.82688 0.507767 0.241747
  outer loop
   vertex 0.002344 0.002089 0.021691
   vertex 0.001195 0.002128 0.017679
   vertex 0.002732 -0.001007 0.029521
  endloop
 endfacet
 facet normal -0.712847 0.649539 0.264478
  outer loop
   vertex 0.001195 0.002128 0.017679
   vertex -0.00042 0.00233 0.01283
   vertex 0.002732 -0.001007 0.029521
  endloop
 endfacet
 facet normal -0.799462 0.541867 0.259308
  outer loop
   vertex -0.00042 0.00233 0.01283
   vertex -0.004374 0.002359 0.000579
   vertex 0.002732 -0.001007 0.029521
  endloop
 endfacet
 facet normal -0.889242 0.375012 0.261946
  outer loop
   vertex -0.004374 0.002359 0.000579
   vertex -0.004757 -0.00926 0.015913
   vertex 0.002732 -0.001007 0.029521
  endloop
 endfacet
 facet normal 0.72569 0.68313 0.0818989
  outer loop
   vertex 0.017807 0.001118 0.029083
   vertex 0.012297 0.005043 0.045167
   vertex 0.011258 0.00257 0.075001
  endloop
 endfacet
 facet normal 0.719255 0.690361 0.0779301
  outer loop
   vertex 0.0136 0.00556 0.028561
   vertex 0.012297 0.005043 0.045167
   vertex 0.017807 0.001118 0.029083
  endloop
 endfacet
 facet normal -0.149982 0.988506 0.019007
  outer loop
   vertex 0.0136 0.00556 0.028561
   vertex 0.008374 0.004772 0.028305
   vertex 0.012297 0.005043 0.045167
  endloop
 endfacet
 facet normal -0.849644 -0.193625 0.490525
  outer loop
   vertex 0.001946 -0.0109 0.026876
   vertex -0.004757 -0.00926 0.015913
   vertex -0.003968 -0.011871 0.016249
  endloop
 endfacet
 facet normal -0.675435 -0.598653 0.430584
  outer loop
   vertex -0.002345 -0.013782 0.016138
   vertex 0.001946 -0.0109 0.026876
   vertex -0.003968 -0.011871 0.016249
  endloop
 endfacet
 facet normal 0.084307 -0.970301 0.226732
  outer loop
   vertex 0.001946 -0.0109 0.026876
   vertex -0.002345 -0.013782 0.016138
   vertex 0.009197 -0.012817 0.015976
  endloop
 endfacet
 facet normal 0.740869 -0.660759 0.120461
  outer loop
   vertex 0.012881 -0.01072 0.004821
   vertex 0.015692 -0.005563 0.01582
   vertex 0.009197 -0.012817 0.015976
  endloop
 endfacet
 facet normal 0.0798427 -0.874724 0.478
  outer loop
   vertex 0.009197 -0.012817 0.015976
   vertex -0.002345 -0.013782 0.016138
   vertex 0.001639 -0.015802 0.011776
  endloop
 endfacet
 facet normal 0.741574 -0.665759 -0.0826607
  outer loop
   vertex 0.014575 -0.009405 0.036743
   vertex 0.009197 -0.012817 0.015976
   vertex 0.015692 -0.005563 0.01582
  endloop
 endfacet
 facet normal 0.670038 -0.737716 0.0826024
  outer loop
   vertex 0.012881 -0.01072 0.004821
   vertex 0.009197 -0.012817 0.015976
   vertex 0.007838 -0.015254 0.005235
  endloop
 endfacet
 facet normal 0.273284 -0.944975 0.179826
  outer loop
   vertex 0.007838 -0.015254 0.005235
   vertex 0.009197 -0.012817 0.015976
   vertex 0.001639 -0.015802 0.011776
  endloop
 endfacet
 facet normal 0.969979 -0.214486 0.114613
  outer loop
   vertex 0.017807 0.001118 0.029083
   vertex 0.011434 -0.002519 0.076212
   vertex 0.014575 -0.009405 0.036743
  endloop
 endfacet
 facet normal 0.955242 -0.295807 -0.00332109
  outer loop
   vertex 0.017807 0.001118 0.029083
   vertex 0.014575 -0.009405 0.036743
   vertex 0.015692 -0.005563 0.01582
  endloop
 endfacet
 facet normal 0.448395 -0.873322 0.190394
  outer loop
   vertex 0.000978 -0.005318 0.087998
   vertex 0.011434 -0.002519 0.076212
   vertex 0.002723 -0.004143 0.089278
  endloop
 endfacet
 facet normal 0.610465 -0.725943 0.316763
  outer loop
   vertex 0.00375 0.000605 0.09818
   vertex 0.002723 -0.004143 0.089278
   vertex 0.011434 -0.002519 0.076212
  endloop
 endfacet
 facet normal 0.943119 0.107481 0.314601
  outer loop
   vertex 0.011258 0.00257 0.075001
   vertex 0.00375 0.000605 0.09818
   vertex 0.011434 -0.002519 0.076212
  endloop
 endfacet
 facet normal 0.988039 0.0671984 0.138793
  outer loop
   vertex 0.011434 -0.002519 0.076212
   vertex 0.017807 0.001118 0.029083
   vertex 0.011258 0.00257 0.075001
  endloop
 endfacet
 facet normal -0.892988 -0.325365 -0.310983
  outer loop
   vertex -0.017025 0.006117 0.103837
   vertex -0.007906 -0.003661 0.087882
   vertex -0.011854 -0.002868 0.098389
  endloop
 endfacet
 facet normal -0.185795 -0.982579 0.0043463
  outer loop
   vertex -0.011854 -0.002868 0.098389
   vertex -0.007906 -0.003661 0.087882
   vertex -0.002524 -0.004653 0.093687
  endloop
 endfacet
 facet normal 0.0247486 -0.991063 0.131082
  outer loop
   vertex -0.002524 -0.004653 0.093687
   vertex 0.000978 -0.005318 0.087998
   vertex -0.000101 -0.005 0.090606
  endloop
 endfacet
 facet normal -0.160029 -0.986913 0.0198509
  outer loop
   vertex -0.006924 -0.003701 0.105546
   vertex -0.008621 -0.003389 0.107377
   vertex -0.002524 -0.004653 0.093687
  endloop
 endfacet
 facet normal -0.183511 -0.982976 0.00902975
  outer loop
   vertex -0.011854 -0.002868 0.098389
   vertex -0.002524 -0.004653 0.093687
   vertex -0.008621 -0.003389 0.107377
  endloop
 endfacet
 facet normal 0.39718 -0.899784 0.180655
  outer loop
   vertex -0.002214 -0.002716 0.102653
   vertex -0.005674 -0.003493 0.10639
   vertex -0.002524 -0.004653 0.093687
  endloop
 endfacet
 facet normal 0.0887954 -0.989688 0.112394
  outer loop
   vertex -0.002524 -0.004653 0.093687
   vertex -0.005674 -0.003493 0.10639
   vertex -0.006924 -0.003701 0.105546
  endloop
 endfacet
 facet normal 0.252015 -0.919476 0.30175
  outer loop
   vertex -0.002524 -0.004653 0.093687
   vertex -0.000101 -0.005 0.090606
   vertex 0.000981 -0.004095 0.09246
  endloop
 endfacet
 facet normal 0.221516 -0.95472 0.198597
  outer loop
   vertex 0.000981 -0.004095 0.09246
   vertex -0.002214 -0.002716 0.102653
   vertex -0.002524 -0.004653 0.093687
  endloop
 endfacet
 facet normal 0.393636 -0.87872 0.270003
  outer loop
   vertex -0.000101 -0.005 0.090606
   vertex 0.000978 -0.005318 0.087998
   vertex 0.002723 -0.004143 0.089278
  endloop
 endfacet
 facet normal -0.89624 -0.352692 -0.269002
  outer loop
   vertex -0.011854 -0.002868 0.098389
   vertex -0.018442 0.001135 0.11509
   vertex -0.017025 0.006117 0.103837
  endloop
 endfacet
 facet normal -0.93341 0.357948 -0.024898
  outer loop
   vertex -0.015157 0.011152 0.106193
   vertex -0.017025 0.006117 0.103837
   vertex -0.016174 0.009002 0.11341
  endloop
 endfacet
 facet normal -0.960762 0.277369 0.00181749
  outer loop
   vertex -0.016174 0.009002 0.11341
   vertex -0.017025 0.006117 0.103837
   vertex -0.018442 0.001135 0.11509
  endloop
 endfacet
 facet normal -0.590382 0.511271 -0.624541
  outer loop
   vertex -0.017025 0.006117 0.103837
   vertex -0.015157 0.011152 0.106193
   vertex -0.013673 0.00978 0.103667
  endloop
 endfacet
 facet normal 0.519443 0.840951 -0.151596
  outer loop
   vertex -0.013673 0.00978 0.103667
   vertex -0.015157 0.011152 0.106193
   vertex -0.006385 0.00635 0.109612
  endloop
 endfacet
 facet normal 0.473831 0.880123 0.0294565
  outer loop
   vertex -0.008863 0.007574 0.112901
   vertex -0.006134 0.006107 0.112835
   vertex -0.006385 0.00635 0.109612
  endloop
 endfacet
 facet normal 0.544872 0.832448 0.100722
  outer loop
   vertex -0.006385 0.00635 0.109612
   vertex -0.008941 0.007842 0.111108
   vertex -0.008863 0.007574 0.112901
  endloop
 endfacet
 facet normal 0.489629 0.871327 -0.0324392
  outer loop
   vertex -0.008941 0.007842 0.111108
   vertex -0.006385 0.00635 0.109612
   vertex -0.015157 0.011152 0.106193
  endloop
 endfacet
 facet normal 0.480547 0.86762 0.127714
  outer loop
   vertex -0.006385 0.00635 0.109612
   vertex -0.004465 0.00518 0.110336
   vertex 0.00027 0.00354 0.103661
  endloop
 endfacet
 facet normal 0.428936 0.901726 0.053893
  outer loop
   vertex -0.006385 0.00635 0.109612
   vertex 0.00027 0.00354 0.103661
   vertex -0.000738 0.00438 0.097629
  endloop
 endfacet
 facet normal 0.203458 0.976942 -0.0647292
  outer loop
   vertex -0.002187 0.004558 0.095761
   vertex -0.006385 0.00635 0.109612
   vertex -0.000738 0.00438 0.097629
  endloop
 endfacet
 facet normal 0.513406 0.857791 0.0246908
  outer loop
   vertex -0.004465 0.00518 0.110336
   vertex -0.006385 0.00635 0.109612
   vertex -0.006134 0.006107 0.112835
  endloop
 endfacet
 facet normal 0.107274 0.994163 0.0115212
  outer loop
   vertex 0.002152 0.004105 0.09445
   vertex -0.002187 0.004558 0.095761
   vertex -0.000738 0.00438 0.097629
  endloop
 endfacet
 facet normal 0.111568 0.993417 0.0259921
  outer loop
   vertex -0.002187 0.004558 0.095761
   vertex 0.002152 0.004105 0.09445
   vertex 0.005009 0.003867 0.091283
  endloop
 endfacet
 facet normal 0.232285 0.945705 0.227343
  outer loop
   vertex 0.005009 0.003867 0.091283
   vertex 0.005666 0.004735 0.087001
   vertex -0.002187 0.004558 0.095761
  endloop
 endfacet
 facet normal -0.397416 0.852709 -0.339039
  outer loop
   vertex -0.002187 0.004558 0.095761
   vertex 0.005666 0.004735 0.087001
   vertex 0.011258 0.00257 0.075001
  endloop
 endfacet
 facet normal 0.752236 0.6137 0.23982
  outer loop
   vertex 0.005666 0.004735 0.087001
   vertex 0.005009 0.003867 0.091283
   vertex 0.011258 0.00257 0.075001
  endloop
 endfacet
 facet normal 0.8914 0.324634 0.316258
  outer loop
   vertex 0.011258 0.00257 0.075001
   vertex 0.005009 0.003867 0.091283
   vertex 0.00375 0.000605 0.09818
  endloop
 endfacet
 facet normal -0.495751 0.866073 -0.0644072
  outer loop
   vertex 0.007369 0.00405 0.026443
   vertex 0.007702 0.004113 0.024727
   vertex 0.006221 0.003219 0.024105
  endloop
 endfacet
 facet normal -0.572506 0.819836 -0.010285
  outer loop
   vertex 0.006221 0.003219 0.024105
   vertex 0.006264 0.003276 0.026255
   vertex 0.007369 0.00405 0.026443
  endloop
 endfacet
 facet normal -0.499649 0.863767 -0.0652482
  outer loop
   vertex 0.007369 0.00405 0.026443
   vertex 0.008374 0.004772 0.028305
   vertex 0.007702 0.004113 0.024727
  endloop
 endfacet
 facet normal -0.451345 0.888851 -0.0789406
  outer loop
   vertex 0.008374 0.004772 0.028305
   vertex 0.009546 0.004868 0.022685
   vertex 0.007702 0.004113 0.024727
  endloop
 endfacet
 facet normal -0.148411 0.988826 -0.0140588
  outer loop
   vertex 0.009546 0.004868 0.022685
   vertex 0.008374 0.004772 0.028305
   vertex 0.0136 0.00556 0.028561
  endloop
 endfacet
 facet normal -0.373677 0.927401 -0.0171133
  outer loop
   vertex 0.006264 0.003276 0.026255
   vertex 0.006221 0.003219 0.024105
   vertex 0.004815 0.002668 0.024946
  endloop
 endfacet
 facet normal -0.411993 0.910585 0.0331105
  outer loop
   vertex 0.005042 0.002709 0.026643
   vertex 0.006264 0.003276 0.026255
   vertex 0.004815 0.002668 0.024946
  endloop
 endfacet
 facet normal -0.350442 0.936181 0.0274852
  outer loop
   vertex 0.003641 0.002281 0.023159
   vertex 0.004815 0.002668 0.024946
   vertex 0.006221 0.003219 0.024105
  endloop
 endfacet
 facet normal -0.0697332 0.995207 -0.0685529
  outer loop
   vertex 0.005239 0.001936 0.016525
   vertex 0.002344 0.002089 0.021691
   vertex 0.003641 0.002281 0.023159
  endloop
 endfacet
 facet normal 0.0464048 0.998916 -0.00357964
  outer loop
   vertex 0.005239 0.001936 0.016525
   vertex 0.001195 0.002128 0.017679
   vertex 0.002344 0.002089 0.021691
  endloop
 endfacet
 facet normal -0.299551 0.946329 -0.12137
  outer loop
   vertex 0.003641 0.002281 0.023159
   vertex 0.006221 0.003219 0.024105
   vertex 0.005239 0.001936 0.016525
  endloop
 endfacet
 facet normal -0.742497 0.542689 0.392665
  outer loop
   vertex -0.004374 0.002359 0.000579
   vertex -0.007423 -0.010365 0.012399
   vertex -0.004757 -0.00926 0.015913
  endloop
 endfacet
 facet normal -0.809849 0.199322 0.551738
  outer loop
   vertex -0.007423 -0.010365 0.012399
   vertex -0.007148 -0.012323 0.01351
   vertex -0.004757 -0.00926 0.015913
  endloop
 endfacet
 facet normal -0.641731 -0.0960035 0.760897
  outer loop
   vertex -0.003968 -0.011871 0.016249
   vertex -0.004757 -0.00926 0.015913
   vertex -0.007148 -0.012323 0.01351
  endloop
 endfacet
 facet normal -0.12952 0.968493 0.212712
  outer loop
   vertex 0.001974 0.004273 0.008387
   vertex 0.001195 0.002128 0.017679
   vertex 0.004225 0.004153 0.010304
  endloop
 endfacet
 facet normal -0.429505 0.884961 0.179916
  outer loop
   vertex -7e-06 0.002983 0.010604
   vertex -0.00042 0.00233 0.01283
   vertex 0.001195 0.002128 0.017679
  endloop
 endfacet
 facet normal -0.506452 0.84158 0.187747
  outer loop
   vertex 0.001195 0.002128 0.017679
   vertex 0.000813 0.0037 0.009602
   vertex -7e-06 0.002983 0.010604
  endloop
 endfacet
 facet normal -0.261044 0.945157 0.196299
  outer loop
   vertex 0.001974 0.004273 0.008387
   vertex 0.000813 0.0037 0.009602
   vertex 0.001195 0.002128 0.017679
  endloop
 endfacet
 facet normal 0.539403 0.728826 0.421731
  outer loop
   vertex 0.004225 0.004153 0.010304
   vertex 0.001195 0.002128 0.017679
   vertex 0.005214 0.001997 0.012765
  endloop
 endfacet
 facet normal 0.0519319 0.998525 0.0158542
  outer loop
   vertex 0.005239 0.001936 0.016525
   vertex 0.005214 0.001997 0.012765
   vertex 0.001195 0.002128 0.017679
  endloop
 endfacet
 facet normal -0.490404 0.856625 0.160305
  outer loop
   vertex -0.004374 0.002359 0.000579
   vertex -0.00042 0.00233 0.01283
   vertex -7e-06 0.002983 0.010604
  endloop
 endfacet
 facet normal -0.898243 0.394742 0.193228
  outer loop
   vertex -0.007423 -0.010365 0.012399
   vertex -0.004374 0.002359 0.000579
   vertex -0.005982 -0.002934 0.003917
  endloop
 endfacet
 facet normal -0.622102 0.750118 0.224304
  outer loop
   vertex -0.004374 0.002359 0.000579
   vertex -7e-06 0.002983 0.010604
   vertex 0.000221 0.005927 0.001391
  endloop
 endfacet
 facet normal -0.622774 0.767859 0.150154
  outer loop
   vertex -0.004367 0.002658 -0.000921
   vertex -0.004374 0.002359 0.000579
   vertex 0.000221 0.005927 0.001391
  endloop
 endfacet
 facet normal -0.965274 0.253534 -0.0629736
  outer loop
   vertex -0.005112 -0.000262 0.001339
   vertex -0.005982 -0.002934 0.003917
   vertex -0.004374 0.002359 0.000579
  endloop
 endfacet
 facet normal -0.957196 0.284679 0.0522792
  outer loop
   vertex -0.005112 -0.000262 0.001339
   vertex -0.004374 0.002359 0.000579
   vertex -0.004367 0.002658 -0.000921
  endloop
 endfacet
 facet normal 0.728274 0.682533 -0.0613668
  outer loop
   vertex 0.017807 0.001118 0.029083
   vertex 0.013982 0.003879 0.014398
   vertex 0.0136 0.00556 0.028561
  endloop
 endfacet
 facet normal 0.994133 -0.070331 -0.0821809
  outer loop
   vertex 0.015086 -0.004724 0.001167
   vertex 0.015624 -0.000751 0.004275
   vertex 0.017807 0.001118 0.029083
  endloop
 endfacet
 facet normal 0.831093 0.544295 -0.114139
  outer loop
   vertex 0.013982 0.003879 0.014398
   vertex 0.017807 0.001118 0.029083
   vertex 0.015624 -0.000751 0.004275
  endloop
 endfacet
 facet normal 0.982359 -0.173762 -0.0691234
  outer loop
   vertex 0.015692 -0.005563 0.01582
   vertex 0.014458 -0.006556 0.000779
   vertex 0.017807 0.001118 0.029083
  endloop
 endfacet
 facet normal 0.947301 -0.319327 -0.0255085
  outer loop
   vertex 0.017807 0.001118 0.029083
   vertex 0.014458 -0.006556 0.000779
   vertex 0.015086 -0.004724 0.001167
  endloop
 endfacet
 facet normal 0.00127757 0.993033 -0.117828
  outer loop
   vertex 0.0136 0.00556 0.028561
   vertex 0.013982 0.003879 0.014398
   vertex 0.009546 0.004868 0.022685
  endloop
 endfacet
 facet normal -0.465959 -0.440313 0.767468
  outer loop
   vertex -0.002345 -0.013782 0.016138
   vertex -0.003968 -0.011871 0.016249
   vertex -0.005226 -0.013088 0.014787
  endloop
 endfacet
 facet normal -0.60536 -0.272605 0.747814
  outer loop
   vertex -0.005226 -0.013088 0.014787
   vertex -0.003968 -0.011871 0.016249
   vertex -0.007148 -0.012323 0.01351
  endloop
 endfacet
 facet normal -0.232194 -0.946042 0.226031
  outer loop
   vertex 0.001639 -0.015802 0.011776
   vertex -0.002345 -0.013782 0.016138
   vertex -0.006147 -0.013525 0.013308
  endloop
 endfacet
 facet normal -0.413106 -0.770794 0.484995
  outer loop
   vertex -0.005226 -0.013088 0.014787
   vertex -0.006147 -0.013525 0.013308
   vertex -0.002345 -0.013782 0.016138
  endloop
 endfacet
 facet normal 0.669031 -0.743157 0.0107516
  outer loop
   vertex 0.007838 -0.015254 0.005235
   vertex 0.011074 -0.012376 0.0028
   vertex 0.012881 -0.01072 0.004821
  endloop
 endfacet
 facet normal 0.917306 -0.395135 -0.0491713
  outer loop
   vertex 0.012881 -0.01072 0.004821
   vertex 0.014458 -0.006556 0.000779
   vertex 0.015692 -0.005563 0.01582
  endloop
 endfacet
 facet normal 0.851906 -0.4933 -0.175815
  outer loop
   vertex 0.014458 -0.006556 0.000779
   vertex 0.012881 -0.01072 0.004821
   vertex 0.012669 -0.010312 0.002649
  endloop
 endfacet
 facet normal 0.770161 -0.609027 -0.189575
  outer loop
   vertex 0.012669 -0.010312 0.002649
   vertex 0.012881 -0.01072 0.004821
   vertex 0.011074 -0.012376 0.0028
  endloop
 endfacet
 facet normal 0.0795918 -0.996795 -0.00808033
  outer loop
   vertex 0.00522 -0.015455 0.004243
   vertex 0.007838 -0.015254 0.005235
   vertex 0.001639 -0.015802 0.011776
  endloop
 endfacet
 facet normal 0.0229231 -0.99912 -0.0351263
  outer loop
   vertex 0.00522 -0.015455 0.004243
   vertex 0.001639 -0.015802 0.011776
   vertex 0.001644 -0.015603 0.006119
  endloop
 endfacet
 facet normal -0.0960624 -0.994757 -0.035078
  outer loop
   vertex 0.001639 -0.015802 0.011776
   vertex -0.002501 -0.015329 0.0097
   vertex 0.001644 -0.015603 0.006119
  endloop
 endfacet
 facet normal -0.228498 -0.943307 0.240749
  outer loop
   vertex 0.001639 -0.015802 0.011776
   vertex -0.006147 -0.013525 0.013308
   vertex -0.002501 -0.015329 0.0097
  endloop
 endfacet
 facet normal 0.473718 -0.827431 -0.301578
  outer loop
   vertex 0.007134 -0.014923 0.003221
   vertex 0.00896 -0.013426 0.001982
   vertex 0.007838 -0.015254 0.005235
  endloop
 endfacet
 facet normal 0.511752 -0.81225 -0.279928
  outer loop
   vertex 0.007838 -0.015254 0.005235
   vertex 0.00896 -0.013426 0.001982
   vertex 0.011074 -0.012376 0.0028
  endloop
 endfacet
 facet normal 0.154641 -0.96482 -0.212623
  outer loop
   vertex 0.007134 -0.014923 0.003221
   vertex 0.007838 -0.015254 0.005235
   vertex 0.00522 -0.015455 0.004243
  endloop
 endfacet
 facet normal 0.581556 -0.743747 0.329595
  outer loop
   vertex 0.002723 -0.004143 0.089278
   vertex 0.00375 0.000605 0.09818
   vertex 0.000981 -0.004095 0.09246
  endloop
 endfacet
 facet normal 0.376425 -0.900032 0.219652
  outer loop
   vertex 0.002723 -0.004143 0.089278
   vertex 0.000981 -0.004095 0.09246
   vertex -0.000101 -0.005 0.090606
  endloop
 endfacet
 facet normal 0.746082 -0.644259 0.168202
  outer loop
   vertex 0.000981 -0.004095 0.09246
   vertex 0.00375 0.000605 0.09818
   vertex 0.000431 -0.00233 0.10166
  endloop
 endfacet
 facet normal 0.955797 0.156886 0.248675
  outer loop
   vertex 0.001813 0.00109 0.105319
   vertex 0.00375 0.000605 0.09818
   vertex 0.005009 0.003867 0.091283
  endloop
 endfacet
 facet normal 0.775095 -0.580397 0.249734
  outer loop
   vertex 0.001813 0.00109 0.105319
   vertex 0.000431 -0.00233 0.10166
   vertex 0.00375 0.000605 0.09818
  endloop
 endfacet
 facet normal -0.107414 -0.992948 0.0501564
  outer loop
   vertex -0.010379 -0.002174 0.115287
   vertex -0.016184 -0.001528 0.115644
   vertex -0.011854 -0.002868 0.098389
  endloop
 endfacet
 facet normal -0.74169 -0.656996 -0.1351
  outer loop
   vertex -0.018442 0.001135 0.11509
   vertex -0.011854 -0.002868 0.098389
   vertex -0.016184 -0.001528 0.115644
  endloop
 endfacet
 facet normal -0.252013 -0.965757 0.0616614
  outer loop
   vertex -0.009665 -0.00252 0.112786
   vertex -0.010379 -0.002174 0.115287
   vertex -0.011854 -0.002868 0.098389
  endloop
 endfacet
 facet normal -0.366693 -0.927053 0.0781625
  outer loop
   vertex -0.008621 -0.003389 0.107377
   vertex -0.009665 -0.00252 0.112786
   vertex -0.011854 -0.002868 0.098389
  endloop
 endfacet
 facet normal 0.0309565 -0.980173 0.195711
  outer loop
   vertex -0.006924 -0.003701 0.105546
   vertex -0.005674 -0.003493 0.10639
   vertex -0.008621 -0.003389 0.107377
  endloop
 endfacet
 facet normal -0.120617 -0.983514 0.134729
  outer loop
   vertex -0.008859 -0.002912 0.110646
   vertex -0.009665 -0.00252 0.112786
   vertex -0.008621 -0.003389 0.107377
  endloop
 endfacet
 facet normal 0.0137699 -0.989284 0.145355
  outer loop
   vertex -0.005674 -0.003493 0.10639
   vertex -0.008859 -0.002912 0.110646
   vertex -0.008621 -0.003389 0.107377
  endloop
 endfacet
 facet normal 0.399633 -0.671728 0.623758
  outer loop
   vertex -0.002214 -0.002716 0.102653
   vertex -0.000594 -0.002249 0.102118
   vertex -0.000117 -0.001773 0.102325
  endloop
 endfacet
 facet normal 0.422822 -0.881997 0.208095
  outer loop
   vertex -0.005178 -0.002655 0.108934
   vertex -0.005674 -0.003493 0.10639
   vertex -0.002214 -0.002716 0.102653
  endloop
 endfacet
 facet normal 0.0528568 -0.987252 0.150132
  outer loop
   vertex -0.001202 -0.002778 0.101889
   vertex -0.002214 -0.002716 0.102653
   vertex 0.000981 -0.004095 0.09246
  endloop
 endfacet
 facet normal 0.39692 -0.708692 0.583276
  outer loop
   vertex -0.002214 -0.002716 0.102653
   vertex -0.001202 -0.002778 0.101889
   vertex -0.000594 -0.002249 0.102118
  endloop
 endfacet
 facet normal 0.428141 -0.878837 0.210574
  outer loop
   vertex -0.000117 -0.001773 0.102325
   vertex -0.005178 -0.002655 0.108934
   vertex -0.002214 -0.002716 0.102653
  endloop
 endfacet
 facet normal 0.159624 -0.955042 0.249831
  outer loop
   vertex -0.006558 -0.002377 0.111221
   vertex -0.008859 -0.002912 0.110646
   vertex -0.005674 -0.003493 0.10639
  endloop
 endfacet
 facet normal 0.243249 -0.934368 0.260357
  outer loop
   vertex -0.005178 -0.002655 0.108934
   vertex -0.006558 -0.002377 0.111221
   vertex -0.005674 -0.003493 0.10639
  endloop
 endfacet
 facet normal 0.284978 -0.938071 0.197004
  outer loop
   vertex 0.000431 -0.00233 0.10166
   vertex -0.001202 -0.002778 0.101889
   vertex 0.000981 -0.004095 0.09246
  endloop
 endfacet
 facet normal -0.831575 -0.554725 0.0276317
  outer loop
   vertex -0.017591 0.000503 0.128013
   vertex -0.019416 0.003217 0.127575
   vertex -0.018442 0.001135 0.11509
  endloop
 endfacet
 facet normal -0.763279 -0.646045 0.00553277
  outer loop
   vertex -0.018442 0.001135 0.11509
   vertex -0.016184 -0.001528 0.115644
   vertex -0.017412 -8e-06 0.12372
  endloop
 endfacet
 facet normal -0.903536 0.427624 -0.0275626
  outer loop
   vertex -0.018442 0.001135 0.11509
   vertex -0.016009 0.007166 0.128902
   vertex -0.015375 0.007901 0.119522
  endloop
 endfacet
 facet normal -0.717565 0.675759 -0.16867
  outer loop
   vertex -0.016009 0.007166 0.128902
   vertex -0.018442 0.001135 0.11509
   vertex -0.019416 0.003217 0.127575
  endloop
 endfacet
 facet normal -0.84176 -0.539069 0.029068
  outer loop
   vertex -0.018442 0.001135 0.11509
   vertex -0.017412 -8e-06 0.12372
   vertex -0.017591 0.000503 0.128013
  endloop
 endfacet
 facet normal -0.934321 0.317775 0.161439
  outer loop
   vertex -0.015826 0.008443 0.115845
   vertex -0.018442 0.001135 0.11509
   vertex -0.015375 0.007901 0.119522
  endloop
 endfacet
 facet normal -0.928182 0.311171 0.204087
  outer loop
   vertex -0.018442 0.001135 0.11509
   vertex -0.015826 0.008443 0.115845
   vertex -0.016174 0.009002 0.11341
  endloop
 endfacet
 facet normal 0.390592 0.918197 0.0659652
  outer loop
   vertex -0.012008 0.0094 0.111934
   vertex -0.010778 0.008892 0.111722
   vertex -0.015157 0.011152 0.106193
  endloop
 endfacet
 facet normal 0.284151 0.949388 0.133868
  outer loop
   vertex -0.012008 0.0094 0.111934
   vertex -0.015157 0.011152 0.106193
   vertex -0.012919 0.009473 0.11335
  endloop
 endfacet
 facet normal -0.0914002 0.96276 0.25444
  outer loop
   vertex -0.012919 0.009473 0.11335
   vertex -0.015157 0.011152 0.106193
   vertex -0.014342 0.009298 0.113501
  endloop
 endfacet
 facet normal -0.166589 0.951162 0.259883
  outer loop
   vertex -0.014342 0.009298 0.113501
   vertex -0.015157 0.011152 0.106193
   vertex -0.016174 0.009002 0.11341
  endloop
 endfacet
 facet normal 0.48836 0.872116 -0.0303027
  outer loop
   vertex -0.010778 0.008892 0.111722
   vertex -0.008941 0.007842 0.111108
   vertex -0.015157 0.011152 0.106193
  endloop
 endfacet
 facet normal -0.166475 0.955592 0.243166
  outer loop
   vertex -0.016174 0.009002 0.11341
   vertex -0.015826 0.008443 0.115845
   vertex -0.014342 0.009298 0.113501
  endloop
 endfacet
 facet normal 0.430322 0.900327 0.0650712
  outer loop
   vertex -0.011809 0.008823 0.115102
   vertex -0.005844 0.005921 0.115807
   vertex -0.008863 0.007574 0.112901
  endloop
 endfacet
 facet normal 0.473632 0.880678 0.00890063
  outer loop
   vertex -0.008863 0.007574 0.112901
   vertex -0.005844 0.005921 0.115807
   vertex -0.006134 0.006107 0.112835
  endloop
 endfacet
 facet normal 0.457602 0.882083 0.111938
  outer loop
   vertex -0.008863 0.007574 0.112901
   vertex -0.008941 0.007842 0.111108
   vertex -0.011809 0.008823 0.115102
  endloop
 endfacet
 facet normal 0.53152 0.847045 0.00114715
  outer loop
   vertex -0.004459 0.005055 0.113528
   vertex -0.006134 0.006107 0.112835
   vertex -0.005844 0.005921 0.115807
  endloop
 endfacet
 facet normal 0.521935 0.85237 0.0323981
  outer loop
   vertex -0.004459 0.005055 0.113528
   vertex -0.004465 0.00518 0.110336
   vertex -0.006134 0.006107 0.112835
  endloop
 endfacet
 facet normal 0.532699 0.827078 0.179373
  outer loop
   vertex -0.008941 0.007842 0.111108
   vertex -0.010778 0.008892 0.111722
   vertex -0.011809 0.008823 0.115102
  endloop
 endfacet
 facet normal 0.371555 0.927727 0.0356317
  outer loop
   vertex 0.00027 0.00354 0.103661
   vertex -0.004465 0.00518 0.110336
   vertex -0.004459 0.005055 0.113528
  endloop
 endfacet
 facet normal 0.479628 0.87221 0.0959527
  outer loop
   vertex -0.004459 0.005055 0.113528
   vertex 0.001037 0.000774 0.12497
   vertex 0.00027 0.00354 0.103661
  endloop
 endfacet
 facet normal 0.151578 0.982143 0.111441
  outer loop
   vertex 0.000982 0.004024 0.098427
   vertex -0.000738 0.00438 0.097629
   vertex 0.00027 0.00354 0.103661
  endloop
 endfacet
 facet normal 0.25654 0.958605 0.123542
  outer loop
   vertex 0.000982 0.004024 0.098427
   vertex 0.00027 0.00354 0.103661
   vertex 0.005009 0.003867 0.091283
  endloop
 endfacet
 facet normal 0.832446 0.55253 0.0417576
  outer loop
   vertex 0.00027 0.00354 0.103661
   vertex 0.001037 0.000774 0.12497
   vertex 0.001813 0.00109 0.105319
  endloop
 endfacet
 facet normal 0.709843 0.642457 0.288741
  outer loop
   vertex 0.005009 0.003867 0.091283
   vertex 0.00027 0.00354 0.103661
   vertex 0.001813 0.00109 0.105319
  endloop
 endfacet
 facet normal 0.170814 0.982794 0.0702688
  outer loop
   vertex 0.000982 0.004024 0.098427
   vertex 0.002152 0.004105 0.09445
   vertex -0.000738 0.00438 0.097629
  endloop
 endfacet
 facet normal 0.154881 0.98575 0.0656415
  outer loop
   vertex 0.005009 0.003867 0.091283
   vertex 0.002152 0.004105 0.09445
   vertex 0.000982 0.004024 0.098427
  endloop
 endfacet
 facet normal -0.591381 0.766447 -0.250656
  outer loop
   vertex 0.008658 0.004174 0.022658
   vertex 0.007702 0.004113 0.024727
   vertex 0.009546 0.004868 0.022685
  endloop
 endfacet
 facet normal -0.450788 0.87377 -0.182529
  outer loop
   vertex 0.008658 0.004174 0.022658
   vertex 0.006221 0.003219 0.024105
   vertex 0.007702 0.004113 0.024727
  endloop
 endfacet
 facet normal -0.451333 0.887624 -0.0917696
  outer loop
   vertex 0.006791 0.003099 0.020141
   vertex 0.005239 0.001936 0.016525
   vertex 0.006221 0.003219 0.024105
  endloop
 endfacet
 facet normal -0.249684 0.966133 -0.0651503
  outer loop
   vertex 0.006791 0.003099 0.020141
   vertex 0.006221 0.003219 0.024105
   vertex 0.00798 0.003282 0.018298
  endloop
 endfacet
 facet normal -0.42235 0.898695 -0.118184
  outer loop
   vertex 0.00798 0.003282 0.018298
   vertex 0.006221 0.003219 0.024105
   vertex 0.008658 0.004174 0.022658
  endloop
 endfacet
 facet normal 0.166449 0.985637 -0.02853
  outer loop
   vertex 0.013982 0.003879 0.014398
   vertex 0.009977 0.00473 0.020432
   vertex 0.009546 0.004868 0.022685
  endloop
 endfacet
 facet normal -0.604418 0.779733 -0.163385
  outer loop
   vertex 0.008658 0.004174 0.022658
   vertex 0.009546 0.004868 0.022685
   vertex 0.009977 0.00473 0.020432
  endloop
 endfacet
 facet normal -0.437032 0.899276 0.0174951
  outer loop
   vertex 0.005239 0.001936 0.016525
   vertex 0.006446 0.002519 0.016709
   vertex 0.005214 0.001997 0.012765
  endloop
 endfacet
 facet normal -0.418606 0.90145 -0.110263
  outer loop
   vertex 0.006791 0.003099 0.020141
   vertex 0.006446 0.002519 0.016709
   vertex 0.005239 0.001936 0.016525
  endloop
 endfacet
 facet normal -0.822858 0.489327 0.2889
  outer loop
   vertex -0.006878 -0.005445 0.005618
   vertex -0.007423 -0.010365 0.012399
   vertex -0.005982 -0.002934 0.003917
  endloop
 endfacet
 facet normal -0.982101 -0.0326826 0.185495
  outer loop
   vertex -0.007412 -0.012245 0.012126
   vertex -0.007148 -0.012323 0.01351
   vertex -0.007423 -0.010365 0.012399
  endloop
 endfacet
 facet normal -0.999439 -0.000987346 -0.0334705
  outer loop
   vertex -0.007272 -0.010226 0.007886
   vertex -0.007412 -0.012245 0.012126
   vertex -0.007423 -0.010365 0.012399
  endloop
 endfacet
 facet normal -0.997239 0.0673375 -0.0312925
  outer loop
   vertex -0.007272 -0.010226 0.007886
   vertex -0.007423 -0.010365 0.012399
   vertex -0.006878 -0.005445 0.005618
  endloop
 endfacet
 facet normal -0.596687 -0.588577 0.545474
  outer loop
   vertex -0.007148 -0.012323 0.01351
   vertex -0.006147 -0.013525 0.013308
   vertex -0.005226 -0.013088 0.014787
  endloop
 endfacet
 facet normal -0.755009 -0.646832 0.107565
  outer loop
   vertex -0.006147 -0.013525 0.013308
   vertex -0.007148 -0.012323 0.01351
   vertex -0.007412 -0.012245 0.012126
  endloop
 endfacet
 facet normal -0.178154 0.946675 0.268454
  outer loop
   vertex 0.000221 0.005927 0.001391
   vertex 0.001974 0.004273 0.008387
   vertex 0.004225 0.004153 0.010304
  endloop
 endfacet
 facet normal -0.184298 0.945162 0.269636
  outer loop
   vertex 0.000221 0.005927 0.001391
   vertex 0.000813 0.0037 0.009602
   vertex 0.001974 0.004273 0.008387
  endloop
 endfacet
 facet normal 0.0314764 0.970054 0.240842
  outer loop
   vertex 0.004291 0.006148 0.00226
   vertex 0.004225 0.004153 0.010304
   vertex 0.005546 0.004382 0.009209
  endloop
 endfacet
 facet normal -0.103382 0.965592 0.238629
  outer loop
   vertex 0.004225 0.004153 0.010304
   vertex 0.004291 0.006148 0.00226
   vertex 0.000221 0.005927 0.001391
  endloop
 endfacet
 facet normal 0.320397 0.772612 0.548102
  outer loop
   vertex 0.005546 0.004382 0.009209
   vertex 0.004225 0.004153 0.010304
   vertex 0.005214 0.001997 0.012765
  endloop
 endfacet
 facet normal -0.430535 0.862781 0.265046
  outer loop
   vertex 0.000813 0.0037 0.009602
   vertex 0.000221 0.005927 0.001391
   vertex -7e-06 0.002983 0.010604
  endloop
 endfacet
 facet normal 0.364367 0.757317 0.541949
  outer loop
   vertex 0.005712 0.003233 0.010703
   vertex 0.005546 0.004382 0.009209
   vertex 0.005214 0.001997 0.012765
  endloop
 endfacet
 facet normal -0.5282 0.83379 0.160619
  outer loop
   vertex 0.005214 0.001997 0.012765
   vertex 0.007076 0.002893 0.014237
   vertex 0.006853 0.003493 0.010389
  endloop
 endfacet
 facet normal -0.0581176 0.862391 0.502896
  outer loop
   vertex 0.005712 0.003233 0.010703
   vertex 0.005214 0.001997 0.012765
   vertex 0.006853 0.003493 0.010389
  endloop
 endfacet
 facet normal -0.447154 0.894203 0.0213287
  outer loop
   vertex 0.005214 0.001997 0.012765
   vertex 0.006446 0.002519 0.016709
   vertex 0.007076 0.002893 0.014237
  endloop
 endfacet
 facet normal -0.951654 0.163363 -0.260128
  outer loop
   vertex -0.006878 -0.005445 0.005618
   vertex -0.005982 -0.002934 0.003917
   vertex -0.006324 -0.005982 0.003254
  endloop
 endfacet
 facet normal -0.973347 0.147427 -0.175674
  outer loop
   vertex -0.006324 -0.005982 0.003254
   vertex -0.005982 -0.002934 0.003917
   vertex -0.005112 -0.000262 0.001339
  endloop
 endfacet
 facet normal -0.168785 0.985635 -0.00598818
  outer loop
   vertex -0.000129 0.005848 -0.001747
   vertex 0.000221 0.005927 0.001391
   vertex 0.00177 0.006176 -0.001285
  endloop
 endfacet
 facet normal -0.065767 0.996338 0.0546393
  outer loop
   vertex 0.004291 0.006148 0.00226
   vertex 0.00177 0.006176 -0.001285
   vertex 0.000221 0.005927 0.001391
  endloop
 endfacet
 facet normal -0.402376 0.915214 0.0218385
  outer loop
   vertex -0.000129 0.005848 -0.001747
   vertex -0.001836 0.005102 -0.001935
   vertex 0.000221 0.005927 0.001391
  endloop
 endfacet
 facet normal -0.634979 0.743953 0.208175
  outer loop
   vertex 0.000221 0.005927 0.001391
   vertex -0.001836 0.005102 -0.001935
   vertex -0.004367 0.002658 -0.000921
  endloop
 endfacet
 facet normal -0.679176 0.469166 -0.564449
  outer loop
   vertex -0.00143 0.00408 -0.003273
   vertex -0.004367 0.002658 -0.000921
   vertex -0.001836 0.005102 -0.001935
  endloop
 endfacet
 facet normal -0.672853 0.520942 -0.525251
  outer loop
   vertex -0.00143 0.00408 -0.003273
   vertex -0.003108 0.002561 -0.00263
   vertex -0.004367 0.002658 -0.000921
  endloop
 endfacet
 facet normal -0.979776 0.175301 -0.096484
  outer loop
   vertex -0.005112 -0.000262 0.001339
   vertex -0.004367 0.002658 -0.000921
   vertex -0.006324 -0.005982 0.003254
  endloop
 endfacet
 facet normal -0.852582 -0.0578603 -0.519381
  outer loop
   vertex -0.006324 -0.005982 0.003254
   vertex -0.004367 0.002658 -0.000921
   vertex -0.002076 -0.002223 -0.004138
  endloop
 endfacet
 facet normal -0.804675 0.0135172 -0.593562
  outer loop
   vertex -0.002076 -0.002223 -0.004138
   vertex -0.004367 0.002658 -0.000921
   vertex -0.003108 0.002561 -0.00263
  endloop
 endfacet
 facet normal 0.0717158 0.99313 -0.0924647
  outer loop
   vertex 0.013982 0.003879 0.014398
   vertex 0.009883 0.004526 0.018168
   vertex 0.009977 0.00473 0.020432
  endloop
 endfacet
 facet normal 0.088545 0.995097 -0.0440556
  outer loop
   vertex 0.013982 0.003879 0.014398
   vertex 0.009321 0.00425 0.01341
   vertex 0.00961 0.004332 0.015843
  endloop
 endfacet
 facet normal 0.0341885 0.99759 0.0603707
  outer loop
   vertex 0.013982 0.003879 0.014398
   vertex 0.007985 0.004377 0.009565
   vertex 0.008891 0.004251 0.011134
  endloop
 endfacet
 facet normal 0.753733 0.635266 -0.168295
  outer loop
   vertex 0.015624 -0.000751 0.004275
   vertex 0.01257 0.002881 0.004307
   vertex 0.013982 0.003879 0.014398
  endloop
 endfacet
 facet normal 0.0726942 0.993157 -0.0914056
  outer loop
   vertex 0.013982 0.003879 0.014398
   vertex 0.00961 0.004332 0.015843
   vertex 0.009883 0.004526 0.018168
  endloop
 endfacet
 facet normal 0.0825283 0.996473 -0.0151542
  outer loop
   vertex 0.013982 0.003879 0.014398
   vertex 0.008891 0.004251 0.011134
   vertex 0.009321 0.00425 0.01341
  endloop
 endfacet
 facet normal 0.3332 0.932576 -0.138855
  outer loop
   vertex 0.01257 0.002881 0.004307
   vertex 0.008244 0.004721 0.006284
   vertex 0.013982 0.003879 0.014398
  endloop
 endfacet
 facet normal -0.00135976 0.994559 0.104168
  outer loop
   vertex 0.013982 0.003879 0.014398
   vertex 0.008244 0.004721 0.006284
   vertex 0.007985 0.004377 0.009565
  endloop
 endfacet
 facet normal 0.860619 0.236337 -0.451088
  outer loop
   vertex 0.015086 -0.004724 0.001167
   vertex 0.014953 -0.000806 0.002966
   vertex 0.015624 -0.000751 0.004275
  endloop
 endfacet
 facet normal 0.422389 0.390029 -0.818208
  outer loop
   vertex 0.014953 -0.000806 0.002966
   vertex 0.015086 -0.004724 0.001167
   vertex 0.013875 -0.004495 0.000651
  endloop
 endfacet
 facet normal 0.400384 0.0564552 -0.914607
  outer loop
   vertex 0.013875 -0.004495 0.000651
   vertex 0.015086 -0.004724 0.001167
   vertex 0.014458 -0.006556 0.000779
  endloop
 endfacet
 facet normal 0.679159 0.631167 -0.37466
  outer loop
   vertex 0.014953 -0.000806 0.002966
   vertex 0.013852 0.000612 0.003359
   vertex 0.015624 -0.000751 0.004275
  endloop
 endfacet
 facet normal 0.678536 0.574585 -0.457648
  outer loop
   vertex 0.015624 -0.000751 0.004275
   vertex 0.013852 0.000612 0.003359
   vertex 0.01257 0.002881 0.004307
  endloop
 endfacet
 facet normal 0.822226 -0.513671 -0.245127
  outer loop
   vertex 0.012669 -0.010312 0.002649
   vertex 0.012335 -0.009991 0.000856
   vertex 0.014458 -0.006556 0.000779
  endloop
 endfacet
 facet normal 0.275509 -0.191396 -0.942052
  outer loop
   vertex 0.01189 -0.008269 0.000376
   vertex 0.014458 -0.006556 0.000779
   vertex 0.012335 -0.009991 0.000856
  endloop
 endfacet
 facet normal 0.274426 -0.189612 -0.942729
  outer loop
   vertex 0.013016 -0.006346 0.000317
   vertex 0.014458 -0.006556 0.000779
   vertex 0.01189 -0.008269 0.000376
  endloop
 endfacet
 facet normal 0.308722 0.028283 -0.950732
  outer loop
   vertex 0.013016 -0.006346 0.000317
   vertex 0.013875 -0.004495 0.000651
   vertex 0.014458 -0.006556 0.000779
  endloop
 endfacet
 facet normal -0.656823 -0.746617 -0.105574
  outer loop
   vertex -0.007412 -0.012245 0.012126
   vertex -0.004665 -0.014486 0.010884
   vertex -0.006147 -0.013525 0.013308
  endloop
 endfacet
 facet normal -0.24471 -0.943283 0.224355
  outer loop
   vertex -0.002501 -0.015329 0.0097
   vertex -0.006147 -0.013525 0.013308
   vertex -0.004665 -0.014486 0.010884
  endloop
 endfacet
 facet normal 0.757413 -0.603534 -0.249141
  outer loop
   vertex 0.012669 -0.010312 0.002649
   vertex 0.011074 -0.012376 0.0028
   vertex 0.012335 -0.009991 0.000856
  endloop
 endfacet
 facet normal 0.532566 -0.685845 -0.495974
  outer loop
   vertex 0.00896 -0.013426 0.001982
   vertex 0.012335 -0.009991 0.000856
   vertex 0.011074 -0.012376 0.0028
  endloop
 endfacet
 facet normal -0.255755 -0.794884 -0.550226
  outer loop
   vertex 0.004091 -0.0149 0.003966
   vertex 0.00522 -0.015455 0.004243
   vertex 0.001644 -0.015603 0.006119
  endloop
 endfacet
 facet normal -0.174672 -0.700615 -0.69183
  outer loop
   vertex 0.00522 -0.015455 0.004243
   vertex 0.004091 -0.0149 0.003966
   vertex 0.007134 -0.014923 0.003221
  endloop
 endfacet
 facet normal -0.434101 -0.6607 -0.612399
  outer loop
   vertex 0.002199 -0.01467 0.004719
   vertex 0.001644 -0.015603 0.006119
   vertex -0.004304 -0.014129 0.008745
  endloop
 endfacet
 facet normal -0.373069 -0.852299 -0.366613
  outer loop
   vertex -0.002501 -0.015329 0.0097
   vertex -0.004304 -0.014129 0.008745
   vertex 0.001644 -0.015603 0.006119
  endloop
 endfacet
 facet normal -0.330507 -0.719657 -0.610622
  outer loop
   vertex 0.002199 -0.01467 0.004719
   vertex 0.004091 -0.0149 0.003966
   vertex 0.001644 -0.015603 0.006119
  endloop
 endfacet
 facet normal -0.456587 -0.861819 -0.220896
  outer loop
   vertex -0.002501 -0.015329 0.0097
   vertex -0.004665 -0.014486 0.010884
   vertex -0.004304 -0.014129 0.008745
  endloop
 endfacet
 facet normal -0.143969 -0.520815 -0.841442
  outer loop
   vertex 0.005791 -0.012571 0.001995
   vertex 0.00896 -0.013426 0.001982
   vertex 0.007134 -0.014923 0.003221
  endloop
 endfacet
 facet normal -0.176349 -0.693126 -0.698912
  outer loop
   vertex 0.004091 -0.0149 0.003966
   vertex 0.004624 -0.013875 0.002815
   vertex 0.007134 -0.014923 0.003221
  endloop
 endfacet
 facet normal -0.0638107 -0.489698 -0.869554
  outer loop
   vertex 0.007134 -0.014923 0.003221
   vertex 0.004624 -0.013875 0.002815
   vertex 0.005791 -0.012571 0.001995
  endloop
 endfacet
 facet normal 0.171449 -0.454912 -0.873877
  outer loop
   vertex 0.008919 -0.011532 0.000988
   vertex 0.012335 -0.009991 0.000856
   vertex 0.00896 -0.013426 0.001982
  endloop
 endfacet
 facet normal -0.128524 -0.463032 -0.876974
  outer loop
   vertex 0.005791 -0.012571 0.001995
   vertex 0.008919 -0.011532 0.000988
   vertex 0.00896 -0.013426 0.001982
  endloop
 endfacet
 facet normal 0.274719 -0.630139 0.72626
  outer loop
   vertex -0.001202 -0.002778 0.101889
   vertex 0.000431 -0.00233 0.10166
   vertex -0.000594 -0.002249 0.102118
  endloop
 endfacet
 facet normal 0.283695 -0.607085 0.74227
  outer loop
   vertex -0.000117 -0.001773 0.102325
   vertex -0.000594 -0.002249 0.102118
   vertex 0.000431 -0.00233 0.10166
  endloop
 endfacet
 facet normal 0.762386 -0.590735 0.264196
  outer loop
   vertex 0.000462 -0.001133 0.104247
   vertex 0.000431 -0.00233 0.10166
   vertex 0.001813 0.00109 0.105319
  endloop
 endfacet
 facet normal -0.37628 -0.839132 0.392774
  outer loop
   vertex -0.000117 -0.001773 0.102325
   vertex 0.000431 -0.00233 0.10166
   vertex 0.000462 -0.001133 0.104247
  endloop
 endfacet
 facet normal 0.848891 -0.527974 0.0250318
  outer loop
   vertex 0.000462 -0.001133 0.104247
   vertex 0.001813 0.00109 0.105319
   vertex 0.001037 0.000774 0.12497
  endloop
 endfacet
 facet normal 0.163948 -0.986188 -0.0235569
  outer loop
   vertex -0.008275 -0.001925 0.119506
   vertex -0.010225 -0.002246 0.119373
   vertex -0.010379 -0.002174 0.115287
  endloop
 endfacet
 facet normal -0.117541 -0.984565 -0.129676
  outer loop
   vertex -0.016184 -0.001528 0.115644
   vertex -0.010379 -0.002174 0.115287
   vertex -0.01229 -0.002464 0.119221
  endloop
 endfacet
 facet normal 0.106528 -0.994076 -0.0215318
  outer loop
   vertex -0.01229 -0.002464 0.119221
   vertex -0.010379 -0.002174 0.115287
   vertex -0.010225 -0.002246 0.119373
  endloop
 endfacet
 facet normal 0.100862 -0.994865 0.00841632
  outer loop
   vertex -0.010379 -0.002174 0.115287
   vertex -0.007987 -0.001923 0.116291
   vertex -0.008275 -0.001925 0.119506
  endloop
 endfacet
 facet normal 0.0413501 -0.988048 0.148496
  outer loop
   vertex -0.007987 -0.001923 0.116291
   vertex -0.010379 -0.002174 0.115287
   vertex -0.009665 -0.00252 0.112786
  endloop
 endfacet
 facet normal -0.282289 -0.957242 0.0632542
  outer loop
   vertex -0.011548 -0.002424 0.122774
   vertex -0.014324 -0.001286 0.127607
   vertex -0.016184 -0.001528 0.115644
  endloop
 endfacet
 facet normal -0.295515 -0.952588 0.072439
  outer loop
   vertex -0.01229 -0.002464 0.119221
   vertex -0.011548 -0.002424 0.122774
   vertex -0.016184 -0.001528 0.115644
  endloop
 endfacet
 facet normal -0.477344 -0.873898 0.0918953
  outer loop
   vertex -0.017412 -8e-06 0.12372
   vertex -0.016184 -0.001528 0.115644
   vertex -0.014324 -0.001286 0.127607
  endloop
 endfacet
 facet normal 0.0576408 -0.977926 0.200844
  outer loop
   vertex -0.007467 -0.002213 0.11365
   vertex -0.009665 -0.00252 0.112786
   vertex -0.008859 -0.002912 0.110646
  endloop
 endfacet
 facet normal 0.0885087 -0.988084 0.125925
  outer loop
   vertex -0.007467 -0.002213 0.11365
   vertex -0.007987 -0.001923 0.116291
   vertex -0.009665 -0.00252 0.112786
  endloop
 endfacet
 facet normal 0.191636 -0.971811 0.13733
  outer loop
   vertex -0.008859 -0.002912 0.110646
   vertex -0.006558 -0.002377 0.111221
   vertex -0.007467 -0.002213 0.11365
  endloop
 endfacet
 facet normal 0.3939 -0.901078 0.181385
  outer loop
   vertex -0.005178 -0.002655 0.108934
   vertex -0.000117 -0.001773 0.102325
   vertex 0.000462 -0.001133 0.104247
  endloop
 endfacet
 facet normal 0.123676 -0.973383 0.192949
  outer loop
   vertex -0.00508 -0.001654 0.113921
   vertex -0.006558 -0.002377 0.111221
   vertex -0.005178 -0.002655 0.108934
  endloop
 endfacet
 facet normal 0.388735 -0.904776 0.173969
  outer loop
   vertex -0.005178 -0.002655 0.108934
   vertex 0.000462 -0.001133 0.104247
   vertex -0.00508 -0.001654 0.113921
  endloop
 endfacet
 facet normal 0.210123 -0.967023 0.143925
  outer loop
   vertex -0.007467 -0.002213 0.11365
   vertex -0.006558 -0.002377 0.111221
   vertex -0.00508 -0.001654 0.113921
  endloop
 endfacet
 facet normal -0.816496 -0.503427 0.282659
  outer loop
   vertex -0.019416 0.003217 0.127575
   vertex -0.017591 0.000503 0.128013
   vertex -0.015656 -2e-05 0.132671
  endloop
 endfacet
 facet normal -0.470424 -0.878344 0.0849354
  outer loop
   vertex -0.014324 -0.001286 0.127607
   vertex -0.017591 0.000503 0.128013
   vertex -0.017412 -8e-06 0.12372
  endloop
 endfacet
 facet normal -0.468851 -0.878025 0.0961829
  outer loop
   vertex -0.014324 -0.001286 0.127607
   vertex -0.015656 -2e-05 0.132671
   vertex -0.017591 0.000503 0.128013
  endloop
 endfacet
 facet normal -0.694898 0.67905 -0.23666
  outer loop
   vertex -0.019416 0.003217 0.127575
   vertex -0.017643 0.007517 0.134707
   vertex -0.016009 0.007166 0.128902
  endloop
 endfacet
 facet normal -0.975977 0.163409 0.144104
  outer loop
   vertex -0.019416 0.003217 0.127575
   vertex -0.016593 0.006221 0.143288
   vertex -0.017643 0.007517 0.134707
  endloop
 endfacet
 facet normal -0.802812 -0.542253 0.247901
  outer loop
   vertex -0.015656 -2e-05 0.132671
   vertex -0.016593 0.006221 0.143288
   vertex -0.019416 0.003217 0.127575
  endloop
 endfacet
 facet normal -0.404981 0.898696 -0.168334
  outer loop
   vertex -0.016009 0.007166 0.128902
   vertex -0.017643 0.007517 0.134707
   vertex -0.015904 0.008139 0.133844
  endloop
 endfacet
 facet normal -0.546066 0.83725 0.0286965
  outer loop
   vertex -0.016009 0.007166 0.128902
   vertex -0.014767 0.007984 0.12867
   vertex -0.015375 0.007901 0.119522
  endloop
 endfacet
 facet normal -0.448481 0.878715 -0.163476
  outer loop
   vertex -0.016009 0.007166 0.128902
   vertex -0.015904 0.008139 0.133844
   vertex -0.01464 0.008362 0.131575
  endloop
 endfacet
 facet normal -0.5589 0.825078 -0.0829256
  outer loop
   vertex -0.01464 0.008362 0.131575
   vertex -0.014767 0.007984 0.12867
   vertex -0.016009 0.007166 0.128902
  endloop
 endfacet
 facet normal -0.153958 0.974616 0.162545
  outer loop
   vertex -0.015826 0.008443 0.115845
   vertex -0.015375 0.007901 0.119522
   vertex -0.013264 0.008281 0.119243
  endloop
 endfacet
 facet normal 0.0249933 0.99963 -0.0107308
  outer loop
   vertex -0.015375 0.007901 0.119522
   vertex -0.014767 0.007984 0.12867
   vertex -0.01317 0.00789 0.123633
  endloop
 endfacet
 facet normal -0.164765 0.982126 0.0910022
  outer loop
   vertex -0.013264 0.008281 0.119243
   vertex -0.015375 0.007901 0.119522
   vertex -0.01317 0.00789 0.123633
  endloop
 endfacet
 facet normal -0.217895 0.953171 0.209729
  outer loop
   vertex -0.013264 0.008281 0.119243
   vertex -0.014342 0.009298 0.113501
   vertex -0.015826 0.008443 0.115845
  endloop
 endfacet
 facet normal 0.398496 0.906413 0.140057
  outer loop
   vertex -0.010778 0.008892 0.111722
   vertex -0.012008 0.0094 0.111934
   vertex -0.011809 0.008823 0.115102
  endloop
 endfacet
 facet normal 0.310541 0.938423 0.151412
  outer loop
   vertex -0.011809 0.008823 0.115102
   vertex -0.012008 0.0094 0.111934
   vertex -0.012919 0.009473 0.11335
  endloop
 endfacet
 facet normal -0.0720276 0.919377 0.386726
  outer loop
   vertex -0.011809 0.008823 0.115102
   vertex -0.012919 0.009473 0.11335
   vertex -0.014342 0.009298 0.113501
  endloop
 endfacet
 facet normal 0.110899 0.98688 0.117339
  outer loop
   vertex -0.011158 0.00834 0.118549
   vertex -0.011809 0.008823 0.115102
   vertex -0.014342 0.009298 0.113501
  endloop
 endfacet
 facet normal 0.0281591 0.985179 0.169204
  outer loop
   vertex -0.013264 0.008281 0.119243
   vertex -0.011158 0.00834 0.118549
   vertex -0.014342 0.009298 0.113501
  endloop
 endfacet
 facet normal 0.432796 0.900396 0.0444273
  outer loop
   vertex -0.005844 0.005921 0.115807
   vertex -0.011809 0.008823 0.115102
   vertex -0.011158 0.00834 0.118549
  endloop
 endfacet
 facet normal 0.39603 0.917289 -0.0417273
  outer loop
   vertex -0.008002 0.007011 0.119287
   vertex -0.005844 0.005921 0.115807
   vertex -0.011158 0.00834 0.118549
  endloop
 endfacet
 facet normal 0.539357 0.842041 0.00781129
  outer loop
   vertex -0.005844 0.005921 0.115807
   vertex -0.004054 0.004766 0.116717
   vertex -0.004459 0.005055 0.113528
  endloop
 endfacet
 facet normal 0.43712 0.89934 -0.0106253
  outer loop
   vertex -0.008002 0.007011 0.119287
   vertex -0.004848 0.005483 0.119709
   vertex -0.005844 0.005921 0.115807
  endloop
 endfacet
 facet normal 0.559285 0.827474 -0.0498753
  outer loop
   vertex -0.004054 0.004766 0.116717
   vertex -0.005844 0.005921 0.115807
   vertex -0.004848 0.005483 0.119709
  endloop
 endfacet
 facet normal 0.62582 0.779918 -0.0087993
  outer loop
   vertex -0.004054 0.004766 0.116717
   vertex 0.001037 0.000774 0.12497
   vertex -0.004459 0.005055 0.113528
  endloop
 endfacet
 facet normal 0.689562 0.711653 -0.134366
  outer loop
   vertex 0.001037 0.000774 0.12497
   vertex -0.004848 0.005483 0.119709
   vertex -0.003365 0.004826 0.12384
  endloop
 endfacet
 facet normal 0.237029 -0.968077 0.0815085
  outer loop
   vertex 0.001037 0.000774 0.12497
   vertex -0.005708 -0.001587 0.116543
   vertex -0.00508 -0.001654 0.113921
  endloop
 endfacet
 facet normal 0.266867 -0.960816 0.0749282
  outer loop
   vertex 0.001037 0.000774 0.12497
   vertex -0.009734 -0.002379 0.122901
   vertex -0.006054 -0.001609 0.119668
  endloop
 endfacet
 facet normal 0.300538 -0.9534 0.0265636
  outer loop
   vertex -0.005708 -0.001587 0.116543
   vertex 0.001037 0.000774 0.12497
   vertex -0.006054 -0.001609 0.119668
  endloop
 endfacet
 facet normal 0.235212 -0.968429 0.0825916
  outer loop
   vertex 0.001037 0.000774 0.12497
   vertex -0.00508 -0.001654 0.113921
   vertex 0.000462 -0.001133 0.104247
  endloop
 endfacet
 facet normal 0.355121 -0.894067 -0.273007
  outer loop
   vertex 0.006426 -0.000405 0.135841
   vertex -0.000603 -0.002672 0.134122
   vertex 0.001037 0.000774 0.12497
  endloop
 endfacet
 facet normal 0.289057 -0.91184 -0.291537
  outer loop
   vertex 0.001037 0.000774 0.12497
   vertex -0.000603 -0.002672 0.134122
   vertex -0.002399 -0.002059 0.130424
  endloop
 endfacet
 facet normal 0.318055 -0.908375 -0.271469
  outer loop
   vertex -0.009734 -0.002379 0.122901
   vertex 0.001037 0.000774 0.12497
   vertex -0.002399 -0.002059 0.130424
  endloop
 endfacet
 facet normal 0.690874 0.69749 -0.190265
  outer loop
   vertex 0.001037 0.000774 0.12497
   vertex -0.003365 0.004826 0.12384
   vertex -0.001425 0.004429 0.129429
  endloop
 endfacet
 facet normal 0.643629 0.72665 -0.240254
  outer loop
   vertex 0.006426 -0.000405 0.135841
   vertex 0.001037 0.000774 0.12497
   vertex -0.001425 0.004429 0.129429
  endloop
 endfacet
 facet normal 0.633937 0.773196 -0.0170574
  outer loop
   vertex 0.001037 0.000774 0.12497
   vertex -0.004054 0.004766 0.116717
   vertex -0.004848 0.005483 0.119709
  endloop
 endfacet
 facet normal -0.516853 0.850929 -0.0937162
  outer loop
   vertex 0.008658 0.004174 0.022658
   vertex 0.009977 0.00473 0.020432
   vertex 0.00798 0.003282 0.018298
  endloop
 endfacet
 facet normal -0.33594 0.933683 -0.12402
  outer loop
   vertex 0.00798 0.003282 0.018298
   vertex 0.006446 0.002519 0.016709
   vertex 0.006791 0.003099 0.020141
  endloop
 endfacet
 facet normal -0.459533 0.887993 0.0172344
  outer loop
   vertex 0.006446 0.002519 0.016709
   vertex 0.00798 0.003282 0.018298
   vertex 0.007076 0.002893 0.014237
  endloop
 endfacet
 facet normal -0.521979 0.852258 0.0345581
  outer loop
   vertex 0.007076 0.002893 0.014237
   vertex 0.00798 0.003282 0.018298
   vertex 0.008348 0.003594 0.016162
  endloop
 endfacet
 facet normal -0.54892 0.834232 -0.0523785
  outer loop
   vertex 0.00798 0.003282 0.018298
   vertex 0.009977 0.00473 0.020432
   vertex 0.009883 0.004526 0.018168
  endloop
 endfacet
 facet normal -0.545589 0.837573 0.0283454
  outer loop
   vertex 0.009883 0.004526 0.018168
   vertex 0.008348 0.003594 0.016162
   vertex 0.00798 0.003282 0.018298
  endloop
 endfacet
 facet normal -0.974572 -0.0253024 -0.222642
  outer loop
   vertex -0.006324 -0.005982 0.003254
   vertex -0.007272 -0.010226 0.007886
   vertex -0.006878 -0.005445 0.005618
  endloop
 endfacet
 facet normal -0.787914 -0.545467 -0.285756
  outer loop
   vertex -0.006079 -0.012163 0.008294
   vertex -0.007412 -0.012245 0.012126
   vertex -0.007272 -0.010226 0.007886
  endloop
 endfacet
 facet normal -0.645115 -0.762363 -0.0512695
  outer loop
   vertex -0.007412 -0.012245 0.012126
   vertex -0.006153 -0.01316 0.00989
   vertex -0.004665 -0.014486 0.010884
  endloop
 endfacet
 facet normal -0.851777 -0.425677 -0.305408
  outer loop
   vertex -0.006079 -0.012163 0.008294
   vertex -0.006153 -0.01316 0.00989
   vertex -0.007412 -0.012245 0.012126
  endloop
 endfacet
 facet normal -0.690809 -0.457113 -0.560206
  outer loop
   vertex -0.005865 -0.011041 0.006816
   vertex -0.007272 -0.010226 0.007886
   vertex -0.006324 -0.005982 0.003254
  endloop
 endfacet
 facet normal -0.686268 -0.528036 -0.500215
  outer loop
   vertex -0.007272 -0.010226 0.007886
   vertex -0.005865 -0.011041 0.006816
   vertex -0.006079 -0.012163 0.008294
  endloop
 endfacet
 facet normal 0.0208706 0.969874 0.242712
  outer loop
   vertex 0.004291 0.006148 0.00226
   vertex 0.005546 0.004382 0.009209
   vertex 0.006853 0.004479 0.008709
  endloop
 endfacet
 facet normal 0.158747 0.969296 0.187788
  outer loop
   vertex 0.006853 0.004479 0.008709
   vertex 0.008244 0.004721 0.006284
   vertex 0.004291 0.006148 0.00226
  endloop
 endfacet
 facet normal 0.327114 0.944885 0.013735
  outer loop
   vertex 0.008244 0.004721 0.006284
   vertex 0.006256 0.005491 0.000659
   vertex 0.004291 0.006148 0.00226
  endloop
 endfacet
 facet normal 0.208812 0.96776 -0.140851
  outer loop
   vertex 0.004291 0.006148 0.00226
   vertex 0.006256 0.005491 0.000659
   vertex 0.00177 0.006176 -0.001285
  endloop
 endfacet
 facet normal 0.166806 0.790447 0.58938
  outer loop
   vertex 0.006853 0.004479 0.008709
   vertex 0.005546 0.004382 0.009209
   vertex 0.005712 0.003233 0.010703
  endloop
 endfacet
 facet normal -0.0571341 0.861026 0.505341
  outer loop
   vertex 0.005712 0.003233 0.010703
   vertex 0.006853 0.003493 0.010389
   vertex 0.006853 0.004479 0.008709
  endloop
 endfacet
 facet normal -0.489768 0.866888 0.0929116
  outer loop
   vertex 0.009321 0.00425 0.01341
   vertex 0.008891 0.004251 0.011134
   vertex 0.007076 0.002893 0.014237
  endloop
 endfacet
 facet normal -0.510552 0.859501 0.0243699
  outer loop
   vertex 0.008348 0.003594 0.016162
   vertex 0.009321 0.00425 0.01341
   vertex 0.007076 0.002893 0.014237
  endloop
 endfacet
 facet normal -0.285314 0.928084 0.239282
  outer loop
   vertex 0.008891 0.004251 0.011134
   vertex 0.007985 0.004377 0.009565
   vertex 0.007076 0.002893 0.014237
  endloop
 endfacet
 facet normal -0.532307 0.831206 0.160454
  outer loop
   vertex 0.007076 0.002893 0.014237
   vertex 0.007985 0.004377 0.009565
   vertex 0.006853 0.003493 0.010389
  endloop
 endfacet
 facet normal -0.291772 0.824909 0.484143
  outer loop
   vertex 0.007985 0.004377 0.009565
   vertex 0.006853 0.004479 0.008709
   vertex 0.006853 0.003493 0.010389
  endloop
 endfacet
 facet normal -0.700704 -0.45215 -0.551882
  outer loop
   vertex -0.004569 -0.006462 0.001419
   vertex -0.005865 -0.011041 0.006816
   vertex -0.006324 -0.005982 0.003254
  endloop
 endfacet
 facet normal -0.864476 -0.0113136 -0.502546
  outer loop
   vertex -0.002076 -0.002223 -0.004138
   vertex -0.003796 -0.004989 -0.001117
   vertex -0.006324 -0.005982 0.003254
  endloop
 endfacet
 facet normal -0.679329 -0.525448 -0.512266
  outer loop
   vertex -0.006324 -0.005982 0.003254
   vertex -0.003796 -0.004989 -0.001117
   vertex -0.004569 -0.006462 0.001419
  endloop
 endfacet
 facet normal 0.0359606 0.739152 -0.672578
  outer loop
   vertex -0.000129 0.005848 -0.001747
   vertex 0.00177 0.006176 -0.001285
   vertex 0.001982 0.004637 -0.002965
  endloop
 endfacet
 facet normal -0.249782 0.731453 -0.634497
  outer loop
   vertex -0.001836 0.005102 -0.001935
   vertex -0.000129 0.005848 -0.001747
   vertex -0.00143 0.00408 -0.003273
  endloop
 endfacet
 facet normal -0.0426184 0.670591 -0.740602
  outer loop
   vertex -0.00143 0.00408 -0.003273
   vertex -0.000129 0.005848 -0.001747
   vertex 0.001982 0.004637 -0.002965
  endloop
 endfacet
 facet normal 0.369021 0.708056 -0.602063
  outer loop
   vertex 0.00177 0.006176 -0.001285
   vertex 0.006256 0.005491 0.000659
   vertex 0.001982 0.004637 -0.002965
  endloop
 endfacet
 facet normal -0.379944 0.163878 -0.910377
  outer loop
   vertex 0.000288 0.000758 -0.004588
   vertex -0.002076 -0.002223 -0.004138
   vertex -0.00143 0.00408 -0.003273
  endloop
 endfacet
 facet normal -0.0270488 0.605507 -0.79538
  outer loop
   vertex -0.00143 0.00408 -0.003273
   vertex 0.001982 0.004637 -0.002965
   vertex 0.002195 0.002952 -0.004255
  endloop
 endfacet
 facet normal -0.481262 0.167409 -0.860442
  outer loop
   vertex -0.002076 -0.002223 -0.004138
   vertex -0.003108 0.002561 -0.00263
   vertex -0.00143 0.00408 -0.003273
  endloop
 endfacet
 facet normal -0.166064 0.287509 -0.943272
  outer loop
   vertex -0.00143 0.00408 -0.003273
   vertex 0.002195 0.002952 -0.004255
   vertex 0.000288 0.000758 -0.004588
  endloop
 endfacet
 facet normal -0.631344 -0.35848 -0.687675
  outer loop
   vertex -0.002076 -0.002223 -0.004138
   vertex -0.00212 -0.004083 -0.003128
   vertex -0.003796 -0.004989 -0.001117
  endloop
 endfacet
 facet normal -0.0284891 -0.476482 -0.878723
  outer loop
   vertex -0.002076 -0.002223 -0.004138
   vertex -0.000482 -0.001955 -0.004335
   vertex -0.00212 -0.004083 -0.003128
  endloop
 endfacet
 facet normal -0.11239 -0.0605931 -0.991815
  outer loop
   vertex 0.000288 0.000758 -0.004588
   vertex -0.000482 -0.001955 -0.004335
   vertex -0.002076 -0.002223 -0.004138
  endloop
 endfacet
 facet normal -0.507095 0.861801 -0.0123668
  outer loop
   vertex 0.00961 0.004332 0.015843
   vertex 0.008348 0.003594 0.016162
   vertex 0.009883 0.004526 0.018168
  endloop
 endfacet
 facet normal -0.498903 0.866136 0.0300699
  outer loop
   vertex 0.00961 0.004332 0.015843
   vertex 0.009321 0.00425 0.01341
   vertex 0.008348 0.003594 0.016162
  endloop
 endfacet
 facet normal 0.0101563 0.994414 0.105062
  outer loop
   vertex 0.008244 0.004721 0.006284
   vertex 0.006853 0.004479 0.008709
   vertex 0.007985 0.004377 0.009565
  endloop
 endfacet
 facet normal 0.387249 0.921913 -0.0106628
  outer loop
   vertex 0.01257 0.002881 0.004307
   vertex 0.006256 0.005491 0.000659
   vertex 0.008244 0.004721 0.006284
  endloop
 endfacet
 facet normal 0.481032 0.646098 -0.592593
  outer loop
   vertex 0.010952 0.0018 0.001815
   vertex 0.009372 0.001352 4.4e-05
   vertex 0.01257 0.002881 0.004307
  endloop
 endfacet
 facet normal 0.577854 0.527557 -0.62271
  outer loop
   vertex 0.009372 0.001352 4.4e-05
   vertex 0.006256 0.005491 0.000659
   vertex 0.01257 0.002881 0.004307
  endloop
 endfacet
 facet normal 0.361303 0.525858 -0.770022
  outer loop
   vertex 0.013852 0.000612 0.003359
   vertex 0.01236 -0.000533 0.001877
   vertex 0.01257 0.002881 0.004307
  endloop
 endfacet
 facet normal 0.682445 0.395531 -0.614673
  outer loop
   vertex 0.01236 -0.000533 0.001877
   vertex 0.010952 0.0018 0.001815
   vertex 0.01257 0.002881 0.004307
  endloop
 endfacet
 facet normal 0.378415 0.508231 -0.77363
  outer loop
   vertex 0.014953 -0.000806 0.002966
   vertex 0.01236 -0.000533 0.001877
   vertex 0.013852 0.000612 0.003359
  endloop
 endfacet
 facet normal 0.389955 0.405013 -0.826982
  outer loop
   vertex 0.01236 -0.000533 0.001877
   vertex 0.014953 -0.000806 0.002966
   vertex 0.013875 -0.004495 0.000651
  endloop
 endfacet
 facet normal 0.00740425 0.174242 -0.984675
  outer loop
   vertex 0.013875 -0.004495 0.000651
   vertex 0.013016 -0.006346 0.000317
   vertex 0.011071 -0.006269 0.000316
  endloop
 endfacet
 facet normal 0.535884 0.429787 -0.726713
  outer loop
   vertex 0.013875 -0.004495 0.000651
   vertex 0.010575 -0.000984 0.000294
   vertex 0.01236 -0.000533 0.001877
  endloop
 endfacet
 facet normal 0.114501 0.00661076 -0.993401
  outer loop
   vertex 0.010575 -0.000984 0.000294
   vertex 0.013875 -0.004495 0.000651
   vertex 0.011071 -0.006269 0.000316
  endloop
 endfacet
 facet normal 0.129505 -0.235053 -0.963316
  outer loop
   vertex 0.010324 -0.010099 0.000612
   vertex 0.01189 -0.008269 0.000376
   vertex 0.012335 -0.009991 0.000856
  endloop
 endfacet
 facet normal 0.131459 -0.370184 -0.91961
  outer loop
   vertex 0.012335 -0.009991 0.000856
   vertex 0.008919 -0.011532 0.000988
   vertex 0.010324 -0.010099 0.000612
  endloop
 endfacet
 facet normal -0.0483378 -0.0869574 -0.995039
  outer loop
   vertex 0.009638 -0.00815 0.000475
   vertex 0.01189 -0.008269 0.000376
   vertex 0.010324 -0.010099 0.000612
  endloop
 endfacet
 facet normal -0.0464474 -0.0489518 -0.997721
  outer loop
   vertex 0.011071 -0.006269 0.000316
   vertex 0.01189 -0.008269 0.000376
   vertex 0.009638 -0.00815 0.000475
  endloop
 endfacet
 facet normal -0.000684301 -0.0302665 -0.999542
  outer loop
   vertex 0.011071 -0.006269 0.000316
   vertex 0.013016 -0.006346 0.000317
   vertex 0.01189 -0.008269 0.000376
  endloop
 endfacet
 facet normal -0.558783 -0.797524 -0.227413
  outer loop
   vertex -0.006153 -0.01316 0.00989
   vertex -0.004304 -0.014129 0.008745
   vertex -0.004665 -0.014486 0.010884
  endloop
 endfacet
 facet normal -0.355928 -0.609955 -0.708004
  outer loop
   vertex 0.004624 -0.013875 0.002815
   vertex 0.004091 -0.0149 0.003966
   vertex 0.002199 -0.01467 0.004719
  endloop
 endfacet
 facet normal -0.410048 -0.714997 -0.566251
  outer loop
   vertex -0.004304 -0.014129 0.008745
   vertex -0.001981 -0.01373 0.006559
   vertex 0.002199 -0.01467 0.004719
  endloop
 endfacet
 facet normal -0.44184 -0.474465 -0.761355
  outer loop
   vertex 0.002199 -0.01467 0.004719
   vertex -0.001981 -0.01373 0.006559
   vertex 0.002972 -0.013376 0.003464
  endloop
 endfacet
 facet normal -0.442296 -0.474134 -0.761295
  outer loop
   vertex 0.002199 -0.01467 0.004719
   vertex 0.002972 -0.013376 0.003464
   vertex 0.004624 -0.013875 0.002815
  endloop
 endfacet
 facet normal -0.580554 -0.639706 -0.503719
  outer loop
   vertex -0.006079 -0.012163 0.008294
   vertex -0.004216 -0.012923 0.007112
   vertex -0.004304 -0.014129 0.008745
  endloop
 endfacet
 facet normal -0.614926 -0.655687 -0.43811
  outer loop
   vertex -0.004304 -0.014129 0.008745
   vertex -0.006153 -0.01316 0.00989
   vertex -0.006079 -0.012163 0.008294
  endloop
 endfacet
 facet normal -0.400488 -0.726638 -0.558217
  outer loop
   vertex -0.004304 -0.014129 0.008745
   vertex -0.004216 -0.012923 0.007112
   vertex -0.001981 -0.01373 0.006559
  endloop
 endfacet
 facet normal -0.367201 -0.144361 -0.91887
  outer loop
   vertex 0.007086 -0.011053 0.001239
   vertex 0.005791 -0.012571 0.001995
   vertex 0.004171 -0.011862 0.002531
  endloop
 endfacet
 facet normal -0.409022 -0.19458 -0.891538
  outer loop
   vertex 0.005791 -0.012571 0.001995
   vertex 0.004624 -0.013875 0.002815
   vertex 0.002972 -0.013376 0.003464
  endloop
 endfacet
 facet normal -0.396048 -0.233595 -0.88802
  outer loop
   vertex 0.004171 -0.011862 0.002531
   vertex 0.005791 -0.012571 0.001995
   vertex 0.002972 -0.013376 0.003464
  endloop
 endfacet
 facet normal -0.204108 -0.291327 -0.934595
  outer loop
   vertex 0.007086 -0.011053 0.001239
   vertex 0.008919 -0.011532 0.000988
   vertex 0.005791 -0.012571 0.001995
  endloop
 endfacet
 facet normal -0.16063 -0.100151 -0.98192
  outer loop
   vertex 0.010324 -0.010099 0.000612
   vertex 0.008919 -0.011532 0.000988
   vertex 0.007086 -0.011053 0.001239
  endloop
 endfacet
 facet normal 0.145483 -0.98692 -0.0694556
  outer loop
   vertex -0.008275 -0.001925 0.119506
   vertex -0.006054 -0.001609 0.119668
   vertex -0.009734 -0.002379 0.122901
  endloop
 endfacet
 facet normal 0.166133 -0.984263 -0.0602262
  outer loop
   vertex -0.008275 -0.001925 0.119506
   vertex -0.009734 -0.002379 0.122901
   vertex -0.010225 -0.002246 0.119373
  endloop
 endfacet
 facet normal 0.139997 -0.99008 0.011925
  outer loop
   vertex -0.008275 -0.001925 0.119506
   vertex -0.007987 -0.001923 0.116291
   vertex -0.006054 -0.001609 0.119668
  endloop
 endfacet
 facet normal 0.108665 -0.992689 -0.0525459
  outer loop
   vertex -0.01229 -0.002464 0.119221
   vertex -0.010225 -0.002246 0.119373
   vertex -0.009734 -0.002379 0.122901
  endloop
 endfacet
 facet normal 0.0243676 -0.999684 0.00616563
  outer loop
   vertex -0.009734 -0.002379 0.122901
   vertex -0.011548 -0.002424 0.122774
   vertex -0.01229 -0.002464 0.119221
  endloop
 endfacet
 facet normal 0.144868 -0.989409 0.00907436
  outer loop
   vertex -0.007987 -0.001923 0.116291
   vertex -0.005708 -0.001587 0.116543
   vertex -0.006054 -0.001609 0.119668
  endloop
 endfacet
 facet normal 0.130088 -0.982474 0.133496
  outer loop
   vertex -0.005708 -0.001587 0.116543
   vertex -0.007987 -0.001923 0.116291
   vertex -0.007467 -0.002213 0.11365
  endloop
 endfacet
 facet normal -0.28183 -0.957358 0.0635448
  outer loop
   vertex -0.014324 -0.001286 0.127607
   vertex -0.011548 -0.002424 0.122774
   vertex -0.003099 -0.00392 0.137708
  endloop
 endfacet
 facet normal 0.0328833 -0.992466 -0.118023
  outer loop
   vertex -0.011548 -0.002424 0.122774
   vertex -0.009734 -0.002379 0.122901
   vertex -0.003099 -0.00392 0.137708
  endloop
 endfacet
 facet normal -0.179183 -0.982163 -0.056993
  outer loop
   vertex -0.003099 -0.00392 0.137708
   vertex -0.00398 -0.003968 0.141305
   vertex -0.014324 -0.001286 0.127607
  endloop
 endfacet
 facet normal -0.346895 -0.934573 0.0789719
  outer loop
   vertex -0.012651 -0.001528 0.132092
   vertex -0.014324 -0.001286 0.127607
   vertex -0.00398 -0.003968 0.141305
  endloop
 endfacet
 facet normal -0.438286 -0.891398 0.115392
  outer loop
   vertex -0.012651 -0.001528 0.132092
   vertex -0.013961 -0.000767 0.132995
   vertex -0.014324 -0.001286 0.127607
  endloop
 endfacet
 facet normal -0.418929 -0.900709 0.114985
  outer loop
   vertex -0.013961 -0.000767 0.132995
   vertex -0.015656 -2e-05 0.132671
   vertex -0.014324 -0.001286 0.127607
  endloop
 endfacet
 facet normal 0.219005 -0.972656 0.0773085
  outer loop
   vertex -0.007467 -0.002213 0.11365
   vertex -0.00508 -0.001654 0.113921
   vertex -0.005708 -0.001587 0.116543
  endloop
 endfacet
 facet normal -0.369336 -0.926187 0.075953
  outer loop
   vertex -0.015656 -2e-05 0.132671
   vertex -0.00398 -0.003968 0.141305
   vertex -0.002652 -0.00427 0.14408
  endloop
 endfacet
 facet normal -0.641236 -0.684902 0.346014
  outer loop
   vertex -0.016593 0.006221 0.143288
   vertex -0.015656 -2e-05 0.132671
   vertex -0.0039 4.2e-05 0.15458
  endloop
 endfacet
 facet normal -0.507959 -0.816348 0.274872
  outer loop
   vertex -0.015656 -2e-05 0.132671
   vertex -0.002652 -0.00427 0.14408
   vertex -0.0039 4.2e-05 0.15458
  endloop
 endfacet
 facet normal -0.424131 -0.890158 0.16653
  outer loop
   vertex -0.015656 -2e-05 0.132671
   vertex -0.013961 -0.000767 0.132995
   vertex -0.00398 -0.003968 0.141305
  endloop
 endfacet
 facet normal -0.376771 0.92141 -0.0951193
  outer loop
   vertex -0.011968 0.010743 0.143478
   vertex -0.015904 0.008139 0.133844
   vertex -0.017643 0.007517 0.134707
  endloop
 endfacet
 facet normal -0.833167 0.522605 0.180879
  outer loop
   vertex -0.016593 0.006221 0.143288
   vertex -0.013653 0.010589 0.14421
   vertex -0.017643 0.007517 0.134707
  endloop
 endfacet
 facet normal -0.187239 0.954985 -0.230099
  outer loop
   vertex -0.017643 0.007517 0.134707
   vertex -0.013653 0.010589 0.14421
   vertex -0.011968 0.010743 0.143478
  endloop
 endfacet
 facet normal -0.582965 0.227755 0.779922
  outer loop
   vertex -0.016593 0.006221 0.143288
   vertex -0.0039 4.2e-05 0.15458
   vertex -0.013653 0.010589 0.14421
  endloop
 endfacet
 facet normal -0.0996121 0.970059 -0.221503
  outer loop
   vertex -0.011968 0.010743 0.143478
   vertex -0.012147 0.009474 0.138001
   vertex -0.015904 0.008139 0.133844
  endloop
 endfacet
 facet normal -0.275479 0.959485 -0.0591627
  outer loop
   vertex -0.012147 0.009474 0.138001
   vertex -0.01464 0.008362 0.131575
   vertex -0.015904 0.008139 0.133844
  endloop
 endfacet
 facet normal -0.116493 0.991643 -0.0554404
  outer loop
   vertex -0.012339 0.008277 0.128809
   vertex -0.01317 0.00789 0.123633
   vertex -0.014767 0.007984 0.12867
  endloop
 endfacet
 facet normal -0.111924 0.986024 -0.123409
  outer loop
   vertex -0.012339 0.008277 0.128809
   vertex -0.014767 0.007984 0.12867
   vertex -0.01464 0.008362 0.131575
  endloop
 endfacet
 facet normal -0.0176575 0.998814 -0.0453829
  outer loop
   vertex -0.01464 0.008362 0.131575
   vertex -0.010734 0.008564 0.134501
   vertex -0.012339 0.008277 0.128809
  endloop
 endfacet
 facet normal 0.106753 0.971941 -0.209607
  outer loop
   vertex -0.010734 0.008564 0.134501
   vertex -0.01464 0.008362 0.131575
   vertex -0.012147 0.009474 0.138001
  endloop
 endfacet
 facet normal -0.00120207 0.996706 0.0810861
  outer loop
   vertex -0.010524 0.007968 0.123131
   vertex -0.011158 0.00834 0.118549
   vertex -0.013264 0.008281 0.119243
  endloop
 endfacet
 facet normal -0.0124793 0.995956 0.0889732
  outer loop
   vertex -0.013264 0.008281 0.119243
   vertex -0.01317 0.00789 0.123633
   vertex -0.010524 0.007968 0.123131
  endloop
 endfacet
 facet normal -0.0422376 0.996808 -0.0677482
  outer loop
   vertex -0.010524 0.007968 0.123131
   vertex -0.01317 0.00789 0.123633
   vertex -0.012339 0.008277 0.128809
  endloop
 endfacet
 facet normal 0.383656 0.923217 0.021868
  outer loop
   vertex -0.008002 0.007011 0.119287
   vertex -0.011158 0.00834 0.118549
   vertex -0.010524 0.007968 0.123131
  endloop
 endfacet
 facet normal 0.350957 0.936387 -0.00286415
  outer loop
   vertex -0.010524 0.007968 0.123131
   vertex -0.006829 0.006585 0.123746
   vertex -0.008002 0.007011 0.119287
  endloop
 endfacet
 facet normal 0.439017 0.897988 -0.029698
  outer loop
   vertex -0.008002 0.007011 0.119287
   vertex -0.006829 0.006585 0.123746
   vertex -0.004848 0.005483 0.119709
  endloop
 endfacet
 facet normal 0.453117 0.891205 -0.0209273
  outer loop
   vertex -0.006829 0.006585 0.123746
   vertex -0.003365 0.004826 0.12384
   vertex -0.004848 0.005483 0.119709
  endloop
 endfacet
 facet normal 0.458247 0.883593 -0.0962985
  outer loop
   vertex -0.005137 0.006354 0.129428
   vertex -0.001425 0.004429 0.129429
   vertex -0.003365 0.004826 0.12384
  endloop
 endfacet
 facet normal 0.45268 0.886185 -0.0987727
  outer loop
   vertex -0.003365 0.004826 0.12384
   vertex -0.006829 0.006585 0.123746
   vertex -0.005137 0.006354 0.129428
  endloop
 endfacet
 facet normal 0.195312 -0.969326 -0.1492
  outer loop
   vertex -0.002399 -0.002059 0.130424
   vertex -0.004486 -0.002522 0.1307
   vertex -0.009734 -0.002379 0.122901
  endloop
 endfacet
 facet normal 0.345135 -0.904965 -0.248837
  outer loop
   vertex -0.009734 -0.002379 0.122901
   vertex -0.004486 -0.002522 0.1307
   vertex -0.003099 -0.00392 0.137708
  endloop
 endfacet
 facet normal 0.659025 0.697679 -0.280946
  outer loop
   vertex 0.006426 -0.000405 0.135841
   vertex -0.001425 0.004429 0.129429
   vertex 0.009563 0.000589 0.145668
  endloop
 endfacet
 facet normal 0.374011 -0.688463 -0.621397
  outer loop
   vertex 0.006426 -0.000405 0.135841
   vertex 0.007071 -0.004415 0.140672
   vertex -0.000603 -0.002672 0.134122
  endloop
 endfacet
 facet normal 0.705608 -0.496083 -0.505984
  outer loop
   vertex 0.007071 -0.004415 0.140672
   vertex 0.006426 -0.000405 0.135841
   vertex 0.01032 -0.002412 0.143239
  endloop
 endfacet
 facet normal 0.83037 0.461818 -0.311786
  outer loop
   vertex 0.01032 -0.002412 0.143239
   vertex 0.006426 -0.000405 0.135841
   vertex 0.009563 0.000589 0.145668
  endloop
 endfacet
 facet normal 0.0314684 -0.950569 -0.308914
  outer loop
   vertex -0.003099 -0.00392 0.137708
   vertex -0.000603 -0.002672 0.134122
   vertex 0.00281 -0.005788 0.144058
  endloop
 endfacet
 facet normal 0.171555 -0.961389 -0.215174
  outer loop
   vertex -0.002678 -0.003066 0.134228
   vertex -0.000603 -0.002672 0.134122
   vertex -0.003099 -0.00392 0.137708
  endloop
 endfacet
 facet normal 0.0543364 -0.947288 -0.315741
  outer loop
   vertex -0.000603 -0.002672 0.134122
   vertex 0.007071 -0.004415 0.140672
   vertex 0.00281 -0.005788 0.144058
  endloop
 endfacet
 facet normal 0.179008 -0.952882 -0.244893
  outer loop
   vertex -0.004486 -0.002522 0.1307
   vertex -0.002399 -0.002059 0.130424
   vertex -0.000603 -0.002672 0.134122
  endloop
 endfacet
 facet normal 0.16976 -0.957158 -0.234586
  outer loop
   vertex -0.002678 -0.003066 0.134228
   vertex -0.004486 -0.002522 0.1307
   vertex -0.000603 -0.002672 0.134122
  endloop
 endfacet
 facet normal 0.469046 0.876276 -0.110166
  outer loop
   vertex -0.003029 0.00595 0.134698
   vertex 0.009563 0.000589 0.145668
   vertex -0.001425 0.004429 0.129429
  endloop
 endfacet
 facet normal 0.457319 0.881793 -0.115329
  outer loop
   vertex -0.005137 0.006354 0.129428
   vertex -0.003029 0.00595 0.134698
   vertex -0.001425 0.004429 0.129429
  endloop
 endfacet
 facet normal -0.58843 -0.600701 -0.541211
  outer loop
   vertex -0.006079 -0.012163 0.008294
   vertex -0.005865 -0.011041 0.006816
   vertex -0.004216 -0.012923 0.007112
  endloop
 endfacet
 facet normal -0.640436 -0.502895 -0.580464
  outer loop
   vertex -0.004569 -0.006462 0.001419
   vertex -0.001898 -0.006133 -0.001813
   vertex -0.005865 -0.011041 0.006816
  endloop
 endfacet
 facet normal -0.363653 -0.447159 -0.817193
  outer loop
   vertex -0.001981 -0.01373 0.006559
   vertex -0.004216 -0.012923 0.007112
   vertex -0.005865 -0.011041 0.006816
  endloop
 endfacet
 facet normal -0.485584 -0.644982 -0.59009
  outer loop
   vertex -0.001898 -0.006133 -0.001813
   vertex -0.001981 -0.01373 0.006559
   vertex -0.005865 -0.011041 0.006816
  endloop
 endfacet
 facet normal 0.506253 0.48689 -0.711791
  outer loop
   vertex 0.001982 0.004637 -0.002965
   vertex 0.006256 0.005491 0.000659
   vertex 0.009372 0.001352 4.4e-05
  endloop
 endfacet
 facet normal -0.57128 -0.622048 -0.53544
  outer loop
   vertex -0.004569 -0.006462 0.001419
   vertex -0.003796 -0.004989 -0.001117
   vertex -0.001898 -0.006133 -0.001813
  endloop
 endfacet
 facet normal -0.545777 -0.493497 -0.677191
  outer loop
   vertex -0.00212 -0.004083 -0.003128
   vertex -0.001898 -0.006133 -0.001813
   vertex -0.003796 -0.004989 -0.001117
  endloop
 endfacet
 facet normal 0.51373 0.561538 -0.648657
  outer loop
   vertex 0.009372 0.001352 4.4e-05
   vertex 0.002195 0.002952 -0.004255
   vertex 0.001982 0.004637 -0.002965
  endloop
 endfacet
 facet normal 0.0773281 -0.114309 -0.990431
  outer loop
   vertex 0.001425 -0.0018 -0.004204
   vertex -0.000482 -0.001955 -0.004335
   vertex 0.000288 0.000758 -0.004588
  endloop
 endfacet
 facet normal 0.249532 -0.034363 -0.967757
  outer loop
   vertex 0.000288 0.000758 -0.004588
   vertex 0.003548 0.00038 -0.003734
   vertex 0.001425 -0.0018 -0.004204
  endloop
 endfacet
 facet normal 0.245604 -0.0666963 -0.967073
  outer loop
   vertex 0.000288 0.000758 -0.004588
   vertex 0.002195 0.002952 -0.004255
   vertex 0.003548 0.00038 -0.003734
  endloop
 endfacet
 facet normal 0.528399 0.107367 -0.84218
  outer loop
   vertex 0.002195 0.002952 -0.004255
   vertex 0.009372 0.001352 4.4e-05
   vertex 0.003548 0.00038 -0.003734
  endloop
 endfacet
 facet normal 0.0713066 -0.533071 -0.843061
  outer loop
   vertex -0.00212 -0.004083 -0.003128
   vertex -0.000482 -0.001955 -0.004335
   vertex -0.001898 -0.006133 -0.001813
  endloop
 endfacet
 facet normal 0.101254 -0.539056 -0.836162
  outer loop
   vertex -0.000482 -0.001955 -0.004335
   vertex 0.001425 -0.0018 -0.004204
   vertex -0.001898 -0.006133 -0.001813
  endloop
 endfacet
 facet normal 0.680761 0.278055 -0.67768
  outer loop
   vertex 0.010575 -0.000984 0.000294
   vertex 0.009372 0.001352 4.4e-05
   vertex 0.010952 0.0018 0.001815
  endloop
 endfacet
 facet normal 0.57855 0.329333 -0.746204
  outer loop
   vertex 0.01236 -0.000533 0.001877
   vertex 0.010575 -0.000984 0.000294
   vertex 0.010952 0.0018 0.001815
  endloop
 endfacet
 facet normal 0.556306 -0.233361 -0.797538
  outer loop
   vertex 0.006047 -0.006571 4.3e-05
   vertex 0.003548 0.00038 -0.003734
   vertex 0.009372 0.001352 4.4e-05
  endloop
 endfacet
 facet normal 0.113764 -0.0476172 -0.992366
  outer loop
   vertex 0.009372 0.001352 4.4e-05
   vertex 0.010575 -0.000984 0.000294
   vertex 0.006047 -0.006571 4.3e-05
  endloop
 endfacet
 facet normal 0.0616195 -0.130587 -0.98952
  outer loop
   vertex 0.011071 -0.006269 0.000316
   vertex 0.009638 -0.00815 0.000475
   vertex 0.006047 -0.006571 4.3e-05
  endloop
 endfacet
 facet normal 0.0542033 0.00093041 -0.998529
  outer loop
   vertex 0.010575 -0.000984 0.000294
   vertex 0.011071 -0.006269 0.000316
   vertex 0.006047 -0.006571 4.3e-05
  endloop
 endfacet
 facet normal -0.153617 -0.122987 -0.980447
  outer loop
   vertex 0.010324 -0.010099 0.000612
   vertex 0.007086 -0.011053 0.001239
   vertex 0.009638 -0.00815 0.000475
  endloop
 endfacet
 facet normal 0.00319174 -0.257132 -0.966371
  outer loop
   vertex 0.009638 -0.00815 0.000475
   vertex 0.007086 -0.011053 0.001239
   vertex 0.006047 -0.006571 4.3e-05
  endloop
 endfacet
 facet normal -0.52116 -0.108915 -0.846481
  outer loop
   vertex 0.004171 -0.011862 0.002531
   vertex 0.002972 -0.013376 0.003464
   vertex -0.001981 -0.01373 0.006559
  endloop
 endfacet
 facet normal -0.211337 -0.722782 -0.657969
  outer loop
   vertex -0.001981 -0.01373 0.006559
   vertex -0.001898 -0.006133 -0.001813
   vertex 0.004171 -0.011862 0.002531
  endloop
 endfacet
 facet normal -0.311371 -0.311729 -0.897705
  outer loop
   vertex 0.006047 -0.006571 4.3e-05
   vertex 0.007086 -0.011053 0.001239
   vertex 0.004171 -0.011862 0.002531
  endloop
 endfacet
 facet normal 0.17625 -0.469356 -0.86524
  outer loop
   vertex -0.001898 -0.006133 -0.001813
   vertex 0.006047 -0.006571 4.3e-05
   vertex 0.004171 -0.011862 0.002531
  endloop
 endfacet
 facet normal -0.2828 -0.955666 -0.0820179
  outer loop
   vertex -0.00398 -0.003968 0.141305
   vertex -0.003099 -0.00392 0.137708
   vertex -0.000453 -0.005151 0.142928
  endloop
 endfacet
 facet normal -0.134633 -0.977517 -0.162277
  outer loop
   vertex -0.003099 -0.00392 0.137708
   vertex 0.00281 -0.005788 0.144058
   vertex -0.000453 -0.005151 0.142928
  endloop
 endfacet
 facet normal 0.139021 -0.965515 -0.220122
  outer loop
   vertex -0.003099 -0.00392 0.137708
   vertex -0.004486 -0.002522 0.1307
   vertex -0.002678 -0.003066 0.134228
  endloop
 endfacet
 facet normal -0.415229 -0.896705 0.153315
  outer loop
   vertex -0.013961 -0.000767 0.132995
   vertex -0.012651 -0.001528 0.132092
   vertex -0.00398 -0.003968 0.141305
  endloop
 endfacet
 facet normal -0.342967 -0.937291 0.0621257
  outer loop
   vertex -0.000453 -0.005151 0.142928
   vertex -0.002652 -0.00427 0.14408
   vertex -0.00398 -0.003968 0.141305
  endloop
 endfacet
 facet normal -0.634888 -0.73828 0.227726
  outer loop
   vertex -0.002652 -0.00427 0.14408
   vertex -0.002537 -0.001082 0.154736
   vertex -0.0039 4.2e-05 0.15458
  endloop
 endfacet
 facet normal -0.256046 -0.925345 0.279603
  outer loop
   vertex -0.002537 -0.001082 0.154736
   vertex -0.002652 -0.00427 0.14408
   vertex 0.00281 -0.005788 0.144058
  endloop
 endfacet
 facet normal -0.26027 -0.939708 0.221831
  outer loop
   vertex -0.002652 -0.00427 0.14408
   vertex -0.000453 -0.005151 0.142928
   vertex 0.00281 -0.005788 0.144058
  endloop
 endfacet
 facet normal -0.374719 -0.33438 0.86474
  outer loop
   vertex -0.002965 0.001301 0.155472
   vertex -0.0039 4.2e-05 0.15458
   vertex -0.002537 -0.001082 0.154736
  endloop
 endfacet
 facet normal -0.774522 -0.102503 0.624186
  outer loop
   vertex -0.0039 4.2e-05 0.15458
   vertex -0.007643 0.009843 0.151545
   vertex -0.013653 0.010589 0.14421
  endloop
 endfacet
 facet normal -0.670929 -0.0267565 0.741039
  outer loop
   vertex -0.002965 0.001301 0.155472
   vertex -0.007643 0.009843 0.151545
   vertex -0.0039 4.2e-05 0.15458
  endloop
 endfacet
 facet normal 0.338645 0.926991 -0.161266
  outer loop
   vertex -0.003029 0.00595 0.134698
   vertex -0.011968 0.010743 0.143478
   vertex -0.002626 0.007206 0.142764
  endloop
 endfacet
 facet normal 0.291966 0.863578 -0.411082
  outer loop
   vertex -0.004011 0.009022 0.145514
   vertex -0.011968 0.010743 0.143478
   vertex -0.004485 0.010309 0.147881
  endloop
 endfacet
 facet normal -0.0833209 0.996363 0.01782
  outer loop
   vertex -0.011968 0.010743 0.143478
   vertex -0.013653 0.010589 0.14421
   vertex -0.006493 0.01107 0.150794
  endloop
 endfacet
 facet normal 0.216646 0.955112 -0.202055
  outer loop
   vertex -0.007071 0.007804 0.134836
   vertex -0.010734 0.008564 0.134501
   vertex -0.011968 0.010743 0.143478
  endloop
 endfacet
 facet normal 0.0630303 0.971801 -0.227222
  outer loop
   vertex -0.011968 0.010743 0.143478
   vertex -0.010734 0.008564 0.134501
   vertex -0.012147 0.009474 0.138001
  endloop
 endfacet
 facet normal 0.413676 0.907397 -0.0741808
  outer loop
   vertex -0.003029 0.00595 0.134698
   vertex -0.007071 0.007804 0.134836
   vertex -0.011968 0.010743 0.143478
  endloop
 endfacet
 facet normal 0.293173 0.859046 -0.419631
  outer loop
   vertex -0.004011 0.009022 0.145514
   vertex -0.002626 0.007206 0.142764
   vertex -0.011968 0.010743 0.143478
  endloop
 endfacet
 facet normal 0.147169 0.977079 -0.153808
  outer loop
   vertex -0.006493 0.01107 0.150794
   vertex -0.004485 0.010309 0.147881
   vertex -0.011968 0.010743 0.143478
  endloop
 endfacet
 facet normal -0.481944 0.739424 0.470087
  outer loop
   vertex -0.007643 0.009843 0.151545
   vertex -0.006493 0.01107 0.150794
   vertex -0.013653 0.010589 0.14421
  endloop
 endfacet
 facet normal 0.137731 0.986501 -0.0885777
  outer loop
   vertex -0.012339 0.008277 0.128809
   vertex -0.010734 0.008564 0.134501
   vertex -0.008896 0.007828 0.129162
  endloop
 endfacet
 facet normal 0.130537 0.991368 -0.012224
  outer loop
   vertex -0.012339 0.008277 0.128809
   vertex -0.008896 0.007828 0.129162
   vertex -0.010524 0.007968 0.123131
  endloop
 endfacet
 facet normal 0.20826 0.976052 -0.0628567
  outer loop
   vertex -0.010734 0.008564 0.134501
   vertex -0.007071 0.007804 0.134836
   vertex -0.008896 0.007828 0.129162
  endloop
 endfacet
 facet normal 0.360567 0.929652 -0.0757506
  outer loop
   vertex -0.006829 0.006585 0.123746
   vertex -0.010524 0.007968 0.123131
   vertex -0.008896 0.007828 0.129162
  endloop
 endfacet
 facet normal 0.368529 0.926819 -0.0720619
  outer loop
   vertex -0.005137 0.006354 0.129428
   vertex -0.006829 0.006585 0.123746
   vertex -0.008896 0.007828 0.129162
  endloop
 endfacet
 facet normal 0.369683 0.922013 -0.115006
  outer loop
   vertex -0.005137 0.006354 0.129428
   vertex -0.008896 0.007828 0.129162
   vertex -0.007071 0.007804 0.134836
  endloop
 endfacet
 facet normal 0.412319 0.906023 -0.0954713
  outer loop
   vertex -0.007071 0.007804 0.134836
   vertex -0.003029 0.00595 0.134698
   vertex -0.005137 0.006354 0.129428
  endloop
 endfacet
 facet normal 0.513321 0.833359 -0.204975
  outer loop
   vertex 5.9e-05 0.006239 0.144838
   vertex -0.000973 0.007784 0.148535
   vertex 0.009563 0.000589 0.145668
  endloop
 endfacet
 facet normal 0.574668 0.815847 0.0644174
  outer loop
   vertex 0.000824 0.006402 0.150007
   vertex 0.009563 0.000589 0.145668
   vertex -0.000973 0.007784 0.148535
  endloop
 endfacet
 facet normal 0.628072 0.715002 0.307079
  outer loop
   vertex 0.002441 0.004297 0.151601
   vertex 0.009563 0.000589 0.145668
   vertex 0.000824 0.006402 0.150007
  endloop
 endfacet
 facet normal 0.697671 0.456302 0.552308
  outer loop
   vertex 0.010328 -0.004391 0.148816
   vertex 0.009563 0.000589 0.145668
   vertex 0.002441 0.004297 0.151601
  endloop
 endfacet
 facet normal 0.978964 0.192726 0.0669846
  outer loop
   vertex 0.009563 0.000589 0.145668
   vertex 0.010328 -0.004391 0.148816
   vertex 0.01032 -0.002412 0.143239
  endloop
 endfacet
 facet normal 0.514213 0.838455 -0.180493
  outer loop
   vertex -0.003029 0.00595 0.134698
   vertex 5.9e-05 0.006239 0.144838
   vertex 0.009563 0.000589 0.145668
  endloop
 endfacet
 facet normal 0.238125 -0.966831 -0.0923831
  outer loop
   vertex 0.00281 -0.005788 0.144058
   vertex 0.007071 -0.004415 0.140672
   vertex 0.010328 -0.004391 0.148816
  endloop
 endfacet
 facet normal 0.645802 -0.719253 -0.256154
  outer loop
   vertex 0.007071 -0.004415 0.140672
   vertex 0.01032 -0.002412 0.143239
   vertex 0.010328 -0.004391 0.148816
  endloop
 endfacet
 facet normal -0.644885 -0.764154 0.013852
  outer loop
   vertex 0.00281 -0.005788 0.144058
   vertex 0.001061 -0.004132 0.153987
   vertex -0.002537 -0.001082 0.154736
  endloop
 endfacet
 facet normal 0.120975 -0.987721 0.098856
  outer loop
   vertex 0.00281 -0.005788 0.144058
   vertex 0.010328 -0.004391 0.148816
   vertex 0.003886 -0.004698 0.153632
  endloop
 endfacet
 facet normal -0.178887 -0.975093 0.131119
  outer loop
   vertex 0.001061 -0.004132 0.153987
   vertex 0.00281 -0.005788 0.144058
   vertex 0.003886 -0.004698 0.153632
  endloop
 endfacet
 facet normal 0.441283 0.883069 -0.159555
  outer loop
   vertex -0.002626 0.007206 0.142764
   vertex 5.9e-05 0.006239 0.144838
   vertex -0.003029 0.00595 0.134698
  endloop
 endfacet
 facet normal 0.242098 -0.604466 -0.758953
  outer loop
   vertex 0.001425 -0.0018 -0.004204
   vertex 0.003048 -0.002059 -0.00348
   vertex -0.001898 -0.006133 -0.001813
  endloop
 endfacet
 facet normal 0.163666 -0.537249 -0.827392
  outer loop
   vertex 0.003048 -0.002059 -0.00348
   vertex 0.006047 -0.006571 4.3e-05
   vertex -0.001898 -0.006133 -0.001813
  endloop
 endfacet
 facet normal 0.378244 -0.172261 -0.909537
  outer loop
   vertex 0.003048 -0.002059 -0.00348
   vertex 0.001425 -0.0018 -0.004204
   vertex 0.003548 0.00038 -0.003734
  endloop
 endfacet
 facet normal 0.601206 -0.203717 -0.772691
  outer loop
   vertex 0.006047 -0.006571 4.3e-05
   vertex 0.003048 -0.002059 -0.00348
   vertex 0.003548 0.00038 -0.003734
  endloop
 endfacet
 facet normal -0.548398 -0.335117 0.76613
  outer loop
   vertex -0.002537 -0.001082 0.154736
   vertex -0.000667 -0.000514 0.156323
   vertex -0.002965 0.001301 0.155472
  endloop
 endfacet
 facet normal -0.387109 -0.623474 0.679284
  outer loop
   vertex -0.000667 -0.000514 0.156323
   vertex -0.002537 -0.001082 0.154736
   vertex 0.001061 -0.004132 0.153987
  endloop
 endfacet
 facet normal -0.456141 0.153203 0.876621
  outer loop
   vertex -0.00267 0.004285 0.155104
   vertex -0.007643 0.009843 0.151545
   vertex -0.002965 0.001301 0.155472
  endloop
 endfacet
 facet normal -0.242913 0.14235 0.959547
  outer loop
   vertex -0.002965 0.001301 0.155472
   vertex -0.000667 -0.000514 0.156323
   vertex -0.00267 0.004285 0.155104
  endloop
 endfacet
 facet normal 0.0400831 0.494025 0.868523
  outer loop
   vertex -0.007643 0.009843 0.151545
   vertex -0.000712 0.00821 0.152154
   vertex -0.006493 0.01107 0.150794
  endloop
 endfacet
 facet normal 0.0649028 0.578656 0.812985
  outer loop
   vertex -0.00267 0.004285 0.155104
   vertex -0.000712 0.00821 0.152154
   vertex -0.007643 0.009843 0.151545
  endloop
 endfacet
 facet normal 0.559651 0.792722 -0.241625
  outer loop
   vertex -0.004011 0.009022 0.145514
   vertex -0.001837 0.007653 0.146058
   vertex -0.002626 0.007206 0.142764
  endloop
 endfacet
 facet normal 0.48224 0.84525 -0.230211
  outer loop
   vertex -0.002626 0.007206 0.142764
   vertex -0.001837 0.007653 0.146058
   vertex 5.9e-05 0.006239 0.144838
  endloop
 endfacet
 facet normal 0.623384 0.732536 -0.273464
  outer loop
   vertex -0.004485 0.010309 0.147881
   vertex -0.00258 0.009567 0.150236
   vertex -0.004011 0.009022 0.145514
  endloop
 endfacet
 facet normal 0.560304 0.786241 -0.260546
  outer loop
   vertex -0.004011 0.009022 0.145514
   vertex -0.00258 0.009567 0.150236
   vertex -0.001837 0.007653 0.146058
  endloop
 endfacet
 facet normal 0.359015 0.933325 0.00365312
  outer loop
   vertex -0.004485 0.010309 0.147881
   vertex -0.006493 0.01107 0.150794
   vertex -0.00258 0.009567 0.150236
  endloop
 endfacet
 facet normal 0.378321 0.888387 0.260081
  outer loop
   vertex -0.00258 0.009567 0.150236
   vertex -0.006493 0.01107 0.150794
   vertex -0.000712 0.00821 0.152154
  endloop
 endfacet
 facet normal 0.490707 0.844176 -0.215808
  outer loop
   vertex 5.9e-05 0.006239 0.144838
   vertex -0.001837 0.007653 0.146058
   vertex -0.000973 0.007784 0.148535
  endloop
 endfacet
 facet normal 0.590964 0.768033 -0.246752
  outer loop
   vertex -0.00258 0.009567 0.150236
   vertex -0.000973 0.007784 0.148535
   vertex -0.001837 0.007653 0.146058
  endloop
 endfacet
 facet normal 0.625534 0.754227 -0.19962
  outer loop
   vertex -0.000683 0.008049 0.150445
   vertex -0.000973 0.007784 0.148535
   vertex -0.00258 0.009567 0.150236
  endloop
 endfacet
 facet normal 0.695417 0.689837 -0.201297
  outer loop
   vertex -0.000973 0.007784 0.148535
   vertex -0.000683 0.008049 0.150445
   vertex 0.000824 0.006402 0.150007
  endloop
 endfacet
 facet normal 0.747554 0.655481 0.107273
  outer loop
   vertex 0.000824 0.006402 0.150007
   vertex -0.000683 0.008049 0.150445
   vertex 0.002441 0.004297 0.151601
  endloop
 endfacet
 facet normal 0.595696 0.379991 0.707639
  outer loop
   vertex -0.000712 0.00821 0.152154
   vertex 0.002821 -0.003338 0.155381
   vertex 0.002441 0.004297 0.151601
  endloop
 endfacet
 facet normal 0.641209 0.365866 0.674532
  outer loop
   vertex 0.010328 -0.004391 0.148816
   vertex 0.002441 0.004297 0.151601
   vertex 0.002821 -0.003338 0.155381
  endloop
 endfacet
 facet normal 0.774631 0.630718 -0.0462733
  outer loop
   vertex -0.000683 0.008049 0.150445
   vertex -0.000712 0.00821 0.152154
   vertex 0.002441 0.004297 0.151601
  endloop
 endfacet
 facet normal 0.542744 -0.470086 0.696023
  outer loop
   vertex 0.010328 -0.004391 0.148816
   vertex 0.002821 -0.003338 0.155381
   vertex 0.003886 -0.004698 0.153632
  endloop
 endfacet
 facet normal -0.30052 -0.6145 0.729437
  outer loop
   vertex 0.001061 -0.004132 0.153987
   vertex 0.002821 -0.003338 0.155381
   vertex -0.000667 -0.000514 0.156323
  endloop
 endfacet
 facet normal -0.0902575 -0.812088 0.576512
  outer loop
   vertex 0.002821 -0.003338 0.155381
   vertex 0.001061 -0.004132 0.153987
   vertex 0.003886 -0.004698 0.153632
  endloop
 endfacet
 facet normal 0.439625 0.389117 0.809517
  outer loop
   vertex -0.00267 0.004285 0.155104
   vertex -0.000667 -0.000514 0.156323
   vertex -0.000712 0.00821 0.152154
  endloop
 endfacet
 facet normal 0.510994 0.372775 0.774548
  outer loop
   vertex -0.000712 0.00821 0.152154
   vertex -0.000667 -0.000514 0.156323
   vertex 0.002821 -0.003338 0.155381
  endloop
 endfacet
 facet normal 0.627761 0.775897 -0.0624425
  outer loop
   vertex -0.000712 0.00821 0.152154
   vertex -0.000683 0.008049 0.150445
   vertex -0.00258 0.009567 0.150236
  endloop
 endfacet
endsolid
