solid ascii
 facet normal -0.167237 0.536556 -0.827127
  outer loop
   vertex 0.070655 0.019415 -0.018655
   vertex 0.074154 0.021671 -0.017899
   vertex 0.07443 0.019363 -0.019452
  endloop
 endfacet
 facet normal -0.153237 0.53899 -0.828256
  outer loop
   vertex 0.07443 0.019363 -0.019452
   vertex 0.074154 0.021671 -0.017899
   vertex 0.077859 0.01917 -0.020212
  endloop
 endfacet
 facet normal -0.212455 0.064797 -0.97502
  outer loop
   vertex 0.07443 0.019363 -0.019452
   vertex 0.077859 0.01917 -0.020212
   vertex 0.077438 0.015683 -0.020352
  endloop
 endfacet
 facet normal -0.205113 0.0710762 -0.976154
  outer loop
   vertex 0.070655 0.019415 -0.018655
   vertex 0.07443 0.019363 -0.019452
   vertex 0.077438 0.015683 -0.020352
  endloop
 endfacet
 facet normal -0.248876 0.775163 -0.580674
  outer loop
   vertex 0.071254 0.026078 -0.010773
   vertex 0.07846 0.025545 -0.014573
   vertex 0.074154 0.021671 -0.017899
  endloop
 endfacet
 facet normal -0.123033 0.481598 -0.867713
  outer loop
   vertex 0.070655 0.019415 -0.018655
   vertex 0.070148 0.020244 -0.018123
   vertex 0.074154 0.021671 -0.017899
  endloop
 endfacet
 facet normal -0.257904 0.421823 -0.869224
  outer loop
   vertex 0.077859 0.01917 -0.020212
   vertex 0.074154 0.021671 -0.017899
   vertex 0.079464 0.020073 -0.02025
  endloop
 endfacet
 facet normal -0.248155 0.785611 -0.566776
  outer loop
   vertex 0.070766 0.020792 -0.017634
   vertex 0.074154 0.021671 -0.017899
   vertex 0.070148 0.020244 -0.018123
  endloop
 endfacet
 facet normal -0.096651 0.708021 -0.699547
  outer loop
   vertex 0.07846 0.025545 -0.014573
   vertex 0.079464 0.020073 -0.02025
   vertex 0.074154 0.021671 -0.017899
  endloop
 endfacet
 facet normal -0.42756 0.680628 -0.594927
  outer loop
   vertex 0.071623 0.024684 -0.012633
   vertex 0.071254 0.026078 -0.010773
   vertex 0.074154 0.021671 -0.017899
  endloop
 endfacet
 facet normal -0.254055 0.8175 -0.516865
  outer loop
   vertex 0.074154 0.021671 -0.017899
   vertex 0.071137 0.021341 -0.016938
   vertex 0.070593 0.022071 -0.015516
  endloop
 endfacet
 facet normal -0.302139 0.757543 -0.578654
  outer loop
   vertex 0.071623 0.024684 -0.012633
   vertex 0.074154 0.021671 -0.017899
   vertex 0.070593 0.022071 -0.015516
  endloop
 endfacet
 facet normal -0.252986 0.820612 -0.512439
  outer loop
   vertex 0.071137 0.021341 -0.016938
   vertex 0.074154 0.021671 -0.017899
   vertex 0.070766 0.020792 -0.017634
  endloop
 endfacet
 facet normal -0.576032 0.161889 -0.801236
  outer loop
   vertex 0.070655 0.019415 -0.018655
   vertex 0.069415 0.017819 -0.018086
   vertex 0.070148 0.020244 -0.018123
  endloop
 endfacet
 facet normal -0.296692 -0.107776 -0.948872
  outer loop
   vertex 0.069415 0.017819 -0.018086
   vertex 0.070655 0.019415 -0.018655
   vertex 0.077438 0.015683 -0.020352
  endloop
 endfacet
 facet normal -0.371173 0.631062 -0.68117
  outer loop
   vertex 0.078919 0.018822 -0.021112
   vertex 0.077859 0.01917 -0.020212
   vertex 0.079464 0.020073 -0.02025
  endloop
 endfacet
 facet normal -0.623044 0.106336 -0.774925
  outer loop
   vertex 0.078919 0.018822 -0.021112
   vertex 0.077438 0.015683 -0.020352
   vertex 0.077859 0.01917 -0.020212
  endloop
 endfacet
 facet normal -0.704489 0.165275 -0.690202
  outer loop
   vertex 0.079821 0.018545 -0.022099
   vertex 0.077438 0.015683 -0.020352
   vertex 0.078919 0.018822 -0.021112
  endloop
 endfacet
 facet normal -0.273693 -0.0076897 -0.961786
  outer loop
   vertex 0.069415 0.017819 -0.018086
   vertex 0.077438 0.015683 -0.020352
   vertex 0.06974 0.015007 -0.018156
  endloop
 endfacet
 facet normal -0.0843441 -0.830101 -0.551197
  outer loop
   vertex 0.06974 0.015007 -0.018156
   vertex 0.077438 0.015683 -0.020352
   vertex 0.080613 0.014543 -0.019121
  endloop
 endfacet
 facet normal -0.247167 -0.940437 -0.233422
  outer loop
   vertex 0.080613 0.014543 -0.019121
   vertex 0.077438 0.015683 -0.020352
   vertex 0.081651 0.01485 -0.021457
  endloop
 endfacet
 facet normal -0.29754 -0.304573 -0.904823
  outer loop
   vertex 0.077438 0.015683 -0.020352
   vertex 0.079821 0.018545 -0.022099
   vertex 0.081651 0.01485 -0.021457
  endloop
 endfacet
 facet normal 0.032108 0.82102 -0.569996
  outer loop
   vertex 0.07846 0.025545 -0.014573
   vertex 0.086717 0.025849 -0.01367
   vertex 0.09066 0.024559 -0.015306
  endloop
 endfacet
 facet normal -0.110363 0.705765 -0.699797
  outer loop
   vertex 0.087671 0.022689 -0.018906
   vertex 0.079464 0.020073 -0.02025
   vertex 0.07846 0.025545 -0.014573
  endloop
 endfacet
 facet normal -0.296636 0.690789 -0.659407
  outer loop
   vertex 0.071103 0.026857 -0.009889
   vertex 0.07846 0.025545 -0.014573
   vertex 0.071254 0.026078 -0.010773
  endloop
 endfacet
 facet normal 0.0412168 0.872256 -0.48731
  outer loop
   vertex 0.09066 0.024559 -0.015306
   vertex 0.087671 0.022689 -0.018906
   vertex 0.07846 0.025545 -0.014573
  endloop
 endfacet
 facet normal 0.0409723 0.771841 -0.634494
  outer loop
   vertex 0.07846 0.025545 -0.014573
   vertex 0.077838 0.028142 -0.011454
   vertex 0.086717 0.025849 -0.01367
  endloop
 endfacet
 facet normal -0.285216 0.707828 -0.646244
  outer loop
   vertex 0.07846 0.025545 -0.014573
   vertex 0.071103 0.026857 -0.009889
   vertex 0.077838 0.028142 -0.011454
  endloop
 endfacet
 facet normal -0.4073 0.649577 -0.641994
  outer loop
   vertex 0.068967 0.025406 -0.010002
   vertex 0.071103 0.026857 -0.009889
   vertex 0.071254 0.026078 -0.010773
  endloop
 endfacet
 facet normal -0.404885 0.691325 -0.598446
  outer loop
   vertex 0.071254 0.026078 -0.010773
   vertex 0.071623 0.024684 -0.012633
   vertex 0.068967 0.025406 -0.010002
  endloop
 endfacet
 facet normal -0.790393 0.230247 -0.567684
  outer loop
   vertex 0.070148 0.020244 -0.018123
   vertex 0.069415 0.017819 -0.018086
   vertex 0.069381 0.018294 -0.017846
  endloop
 endfacet
 facet normal -0.91572 0.379102 0.133183
  outer loop
   vertex 0.070148 0.020244 -0.018123
   vertex 0.069381 0.018294 -0.017846
   vertex 0.070007 0.0197 -0.017544
  endloop
 endfacet
 facet normal -0.759772 0.555883 0.337255
  outer loop
   vertex 0.070007 0.0197 -0.017544
   vertex 0.070766 0.020792 -0.017634
   vertex 0.070148 0.020244 -0.018123
  endloop
 endfacet
 facet normal -0.222042 0.895163 -0.386497
  outer loop
   vertex 0.087671 0.022689 -0.018906
   vertex 0.082906 0.019565 -0.023404
   vertex 0.079464 0.020073 -0.02025
  endloop
 endfacet
 facet normal -0.477029 0.630046 -0.612768
  outer loop
   vertex 0.079821 0.018545 -0.022099
   vertex 0.078919 0.018822 -0.021112
   vertex 0.079464 0.020073 -0.02025
  endloop
 endfacet
 facet normal -0.38852 0.74386 -0.543806
  outer loop
   vertex 0.079464 0.020073 -0.02025
   vertex 0.082906 0.019565 -0.023404
   vertex 0.081247 0.018795 -0.023272
  endloop
 endfacet
 facet normal -0.579302 0.569879 -0.582793
  outer loop
   vertex 0.079821 0.018545 -0.022099
   vertex 0.079464 0.020073 -0.02025
   vertex 0.081247 0.018795 -0.023272
  endloop
 endfacet
 facet normal -0.821529 0.570045 -0.0117327
  outer loop
   vertex 0.070007 0.0197 -0.017544
   vertex 0.071137 0.021341 -0.016938
   vertex 0.070766 0.020792 -0.017634
  endloop
 endfacet
 facet normal -0.362262 0.751358 -0.551568
  outer loop
   vertex 0.071623 0.024684 -0.012633
   vertex 0.070593 0.022071 -0.015516
   vertex 0.070032 0.023036 -0.013833
  endloop
 endfacet
 facet normal -0.352393 0.748879 -0.561248
  outer loop
   vertex 0.071623 0.024684 -0.012633
   vertex 0.070032 0.023036 -0.013833
   vertex 0.068967 0.025406 -0.010002
  endloop
 endfacet
 facet normal -0.581222 0.607111 -0.541846
  outer loop
   vertex 0.070032 0.023036 -0.013833
   vertex 0.070593 0.022071 -0.015516
   vertex 0.070007 0.0197 -0.017544
  endloop
 endfacet
 facet normal -0.589919 0.604085 -0.535795
  outer loop
   vertex 0.070593 0.022071 -0.015516
   vertex 0.071137 0.021341 -0.016938
   vertex 0.070007 0.0197 -0.017544
  endloop
 endfacet
 facet normal -0.617735 -0.051861 -0.784674
  outer loop
   vertex 0.069415 0.017819 -0.018086
   vertex 0.06974 0.015007 -0.018156
   vertex 0.068871 0.016189 -0.01755
  endloop
 endfacet
 facet normal -0.888614 0.154572 -0.431826
  outer loop
   vertex 0.069415 0.017819 -0.018086
   vertex 0.068871 0.016189 -0.01755
   vertex 0.069381 0.018294 -0.017846
  endloop
 endfacet
 facet normal -0.607576 0.473467 -0.637714
  outer loop
   vertex 0.079821 0.018545 -0.022099
   vertex 0.081247 0.018795 -0.023272
   vertex 0.080326 0.018428 -0.022667
  endloop
 endfacet
 facet normal -0.811021 -0.463655 -0.356748
  outer loop
   vertex 0.079821 0.018545 -0.022099
   vertex 0.082006 0.015574 -0.023205
   vertex 0.081651 0.01485 -0.021457
  endloop
 endfacet
 facet normal -0.73921 -0.323817 -0.590518
  outer loop
   vertex 0.080326 0.018428 -0.022667
   vertex 0.082006 0.015574 -0.023205
   vertex 0.079821 0.018545 -0.022099
  endloop
 endfacet
 facet normal -0.773773 -0.509389 -0.37656
  outer loop
   vertex 0.070433 0.013289 -0.017256
   vertex 0.06988 0.014027 -0.017118
   vertex 0.06974 0.015007 -0.018156
  endloop
 endfacet
 facet normal -0.0344444 -0.413066 -0.910049
  outer loop
   vertex 0.072415 0.011054 -0.016463
   vertex 0.06974 0.015007 -0.018156
   vertex 0.079034 0.011716 -0.017014
  endloop
 endfacet
 facet normal -0.0969336 -0.559405 -0.823207
  outer loop
   vertex 0.079034 0.011716 -0.017014
   vertex 0.06974 0.015007 -0.018156
   vertex 0.080613 0.014543 -0.019121
  endloop
 endfacet
 facet normal -0.834562 -0.452329 -0.31449
  outer loop
   vertex 0.068871 0.016189 -0.01755
   vertex 0.06974 0.015007 -0.018156
   vertex 0.06988 0.014027 -0.017118
  endloop
 endfacet
 facet normal -0.279591 -0.531615 -0.799509
  outer loop
   vertex 0.06974 0.015007 -0.018156
   vertex 0.072415 0.011054 -0.016463
   vertex 0.070433 0.013289 -0.017256
  endloop
 endfacet
 facet normal 0.458566 -0.681343 -0.570517
  outer loop
   vertex 0.080613 0.014543 -0.019121
   vertex 0.084694 0.013257 -0.014305
   vertex 0.079034 0.011716 -0.017014
  endloop
 endfacet
 facet normal -0.102806 -0.979297 -0.174382
  outer loop
   vertex 0.080613 0.014543 -0.019121
   vertex 0.081651 0.01485 -0.021457
   vertex 0.084694 0.013257 -0.014305
  endloop
 endfacet
 facet normal -0.288505 -0.953279 -0.0895771
  outer loop
   vertex 0.084694 0.013257 -0.014305
   vertex 0.081651 0.01485 -0.021457
   vertex 0.083179 0.01451 -0.02276
  endloop
 endfacet
 facet normal -0.519928 -0.746701 -0.414865
  outer loop
   vertex 0.083179 0.01451 -0.02276
   vertex 0.081651 0.01485 -0.021457
   vertex 0.082006 0.015574 -0.023205
  endloop
 endfacet
 facet normal 0.522176 0.660878 -0.539047
  outer loop
   vertex 0.090679 0.025566 -0.014053
   vertex 0.091123 0.024893 -0.014448
   vertex 0.09066 0.024559 -0.015306
  endloop
 endfacet
 facet normal 0.3248 0.701677 -0.634157
  outer loop
   vertex 0.087671 0.022689 -0.018906
   vertex 0.09066 0.024559 -0.015306
   vertex 0.090334 0.023751 -0.016367
  endloop
 endfacet
 facet normal -0.00487347 0.779498 -0.626386
  outer loop
   vertex 0.09066 0.024559 -0.015306
   vertex 0.086717 0.025849 -0.01367
   vertex 0.090679 0.025566 -0.014053
  endloop
 endfacet
 facet normal 0.677207 0.470073 -0.566059
  outer loop
   vertex 0.09066 0.024559 -0.015306
   vertex 0.091026 0.024169 -0.015192
   vertex 0.090334 0.023751 -0.016367
  endloop
 endfacet
 facet normal 0.681755 0.477888 -0.553926
  outer loop
   vertex 0.091123 0.024893 -0.014448
   vertex 0.091026 0.024169 -0.015192
   vertex 0.09066 0.024559 -0.015306
  endloop
 endfacet
 facet normal 0.229049 0.969645 -0.0855912
  outer loop
   vertex 0.086717 0.025849 -0.01367
   vertex 0.077838 0.028142 -0.011454
   vertex 0.080801 0.027533 -0.010424
  endloop
 endfacet
 facet normal 0.237965 0.968826 -0.0689166
  outer loop
   vertex 0.086797 0.025914 -0.01248
   vertex 0.086717 0.025849 -0.01367
   vertex 0.080801 0.027533 -0.010424
  endloop
 endfacet
 facet normal 0.0654661 0.99612 -0.0588114
  outer loop
   vertex 0.086797 0.025914 -0.01248
   vertex 0.090679 0.025566 -0.014053
   vertex 0.086717 0.025849 -0.01367
  endloop
 endfacet
 facet normal -0.00530547 0.82395 -0.566638
  outer loop
   vertex 0.082906 0.019565 -0.023404
   vertex 0.087671 0.022689 -0.018906
   vertex 0.085703 0.020781 -0.021662
  endloop
 endfacet
 facet normal 0.0300137 0.910538 -0.412335
  outer loop
   vertex 0.089248 0.023151 -0.017771
   vertex 0.087671 0.022689 -0.018906
   vertex 0.090334 0.023751 -0.016367
  endloop
 endfacet
 facet normal 0.292029 0.672895 -0.679655
  outer loop
   vertex 0.088495 0.022292 -0.018945
   vertex 0.087671 0.022689 -0.018906
   vertex 0.089248 0.023151 -0.017771
  endloop
 endfacet
 facet normal 0.293264 0.675184 -0.676848
  outer loop
   vertex 0.085703 0.020781 -0.021662
   vertex 0.087671 0.022689 -0.018906
   vertex 0.088495 0.022292 -0.018945
  endloop
 endfacet
 facet normal -0.246459 0.919765 -0.305435
  outer loop
   vertex 0.071681 0.027245 -0.009187
   vertex 0.077838 0.028142 -0.011454
   vertex 0.071103 0.026857 -0.009889
  endloop
 endfacet
 facet normal -0.562116 0.827039 0.00571588
  outer loop
   vertex 0.071103 0.026857 -0.009889
   vertex 0.068967 0.025406 -0.010002
   vertex 0.071681 0.027245 -0.009187
  endloop
 endfacet
 facet normal -0.152667 0.985592 -0.0728038
  outer loop
   vertex 0.077838 0.028142 -0.011454
   vertex 0.072178 0.027495 -0.008344
   vertex 0.07238 0.027617 -0.007116
  endloop
 endfacet
 facet normal -0.202094 0.965016 -0.167039
  outer loop
   vertex 0.071681 0.027245 -0.009187
   vertex 0.072178 0.027495 -0.008344
   vertex 0.077838 0.028142 -0.011454
  endloop
 endfacet
 facet normal 0.135184 0.948967 0.284933
  outer loop
   vertex 0.073919 0.027087 -0.006081
   vertex 0.077838 0.028142 -0.011454
   vertex 0.07238 0.027617 -0.007116
  endloop
 endfacet
 facet normal 0.017628 0.978602 0.205008
  outer loop
   vertex 0.077838 0.028142 -0.011454
   vertex 0.073919 0.027087 -0.006081
   vertex 0.077347 0.027523 -0.008457
  endloop
 endfacet
 facet normal 0.122456 0.967795 0.21995
  outer loop
   vertex 0.080801 0.027533 -0.010424
   vertex 0.077838 0.028142 -0.011454
   vertex 0.077347 0.027523 -0.008457
  endloop
 endfacet
 facet normal -0.54335 0.835974 -0.0769386
  outer loop
   vertex 0.071681 0.027245 -0.009187
   vertex 0.068967 0.025406 -0.010002
   vertex 0.068859 0.02553 -0.007892
  endloop
 endfacet
 facet normal -0.592002 0.60134 -0.536585
  outer loop
   vertex 0.070007 0.0197 -0.017544
   vertex 0.068967 0.025406 -0.010002
   vertex 0.070032 0.023036 -0.013833
  endloop
 endfacet
 facet normal -0.993983 -0.0716292 -0.0828723
  outer loop
   vertex 0.069256 0.017116 -0.006303
   vertex 0.068967 0.025406 -0.010002
   vertex 0.070007 0.0197 -0.017544
  endloop
 endfacet
 facet normal -0.997284 -0.0560722 -0.0477488
  outer loop
   vertex 0.068967 0.025406 -0.010002
   vertex 0.069256 0.017116 -0.006303
   vertex 0.068859 0.02553 -0.007892
  endloop
 endfacet
 facet normal -0.836201 0.26974 0.477502
  outer loop
   vertex 0.069381 0.018294 -0.017846
   vertex 0.068871 0.016189 -0.01755
   vertex 0.070007 0.0197 -0.017544
  endloop
 endfacet
 facet normal -0.763986 0.246171 0.596427
  outer loop
   vertex 0.069605 0.01586 -0.016474
   vertex 0.070007 0.0197 -0.017544
   vertex 0.068871 0.016189 -0.01755
  endloop
 endfacet
 facet normal -0.99477 0.09148 -0.0454305
  outer loop
   vertex 0.069605 0.01586 -0.016474
   vertex 0.069256 0.017116 -0.006303
   vertex 0.070007 0.0197 -0.017544
  endloop
 endfacet
 facet normal -0.345471 0.494674 -0.797463
  outer loop
   vertex 0.081187 0.0183 -0.023444
   vertex 0.082906 0.019565 -0.023404
   vertex 0.081771 0.018221 -0.023746
  endloop
 endfacet
 facet normal -0.23216 0.344247 -0.909723
  outer loop
   vertex 0.081187 0.0183 -0.023444
   vertex 0.081247 0.018795 -0.023272
   vertex 0.082906 0.019565 -0.023404
  endloop
 endfacet
 facet normal 0.221674 0.595876 -0.771876
  outer loop
   vertex 0.085703 0.020781 -0.021662
   vertex 0.084128 0.019306 -0.023253
   vertex 0.082906 0.019565 -0.023404
  endloop
 endfacet
 facet normal 0.18574 0.338558 -0.922431
  outer loop
   vertex 0.082906 0.019565 -0.023404
   vertex 0.084128 0.019306 -0.023253
   vertex 0.08327 0.018567 -0.023697
  endloop
 endfacet
 facet normal -0.0311255 0.271093 -0.96205
  outer loop
   vertex 0.082906 0.019565 -0.023404
   vertex 0.08327 0.018567 -0.023697
   vertex 0.081771 0.018221 -0.023746
  endloop
 endfacet
 facet normal -0.541216 0.333783 -0.771799
  outer loop
   vertex 0.080685 0.01833 -0.023079
   vertex 0.081247 0.018795 -0.023272
   vertex 0.081187 0.0183 -0.023444
  endloop
 endfacet
 facet normal -0.607835 0.46855 -0.641091
  outer loop
   vertex 0.080326 0.018428 -0.022667
   vertex 0.081247 0.018795 -0.023272
   vertex 0.080685 0.01833 -0.023079
  endloop
 endfacet
 facet normal -0.829326 -0.291834 0.476499
  outer loop
   vertex 0.06988 0.014027 -0.017118
   vertex 0.069605 0.01586 -0.016474
   vertex 0.068871 0.016189 -0.01755
  endloop
 endfacet
 facet normal -0.748761 -0.332685 -0.573304
  outer loop
   vertex 0.080326 0.018428 -0.022667
   vertex 0.080685 0.01833 -0.023079
   vertex 0.082006 0.015574 -0.023205
  endloop
 endfacet
 facet normal -0.320975 -0.216918 -0.921912
  outer loop
   vertex 0.081771 0.018221 -0.023746
   vertex 0.082214 0.017965 -0.02384
   vertex 0.082006 0.015574 -0.023205
  endloop
 endfacet
 facet normal -0.471395 -0.21658 -0.854915
  outer loop
   vertex 0.081187 0.0183 -0.023444
   vertex 0.081771 0.018221 -0.023746
   vertex 0.082006 0.015574 -0.023205
  endloop
 endfacet
 facet normal -0.579965 -0.242431 -0.777732
  outer loop
   vertex 0.080685 0.01833 -0.023079
   vertex 0.081187 0.0183 -0.023444
   vertex 0.082006 0.015574 -0.023205
  endloop
 endfacet
 facet normal -0.254403 -0.598258 -0.759847
  outer loop
   vertex 0.083179 0.01451 -0.02276
   vertex 0.082006 0.015574 -0.023205
   vertex 0.082901 0.015215 -0.023222
  endloop
 endfacet
 facet normal -0.116724 -0.245429 -0.962362
  outer loop
   vertex 0.082006 0.015574 -0.023205
   vertex 0.082214 0.017965 -0.02384
   vertex 0.082901 0.015215 -0.023222
  endloop
 endfacet
 facet normal -0.90858 -0.396792 0.130534
  outer loop
   vertex 0.070289 0.013478 -0.01594
   vertex 0.06988 0.014027 -0.017118
   vertex 0.070677 0.012657 -0.015735
  endloop
 endfacet
 facet normal -0.787014 -0.608611 0.101003
  outer loop
   vertex 0.072367 0.011002 -0.015967
   vertex 0.06988 0.014027 -0.017118
   vertex 0.070433 0.013289 -0.017256
  endloop
 endfacet
 facet normal -0.692997 -0.670525 -0.264861
  outer loop
   vertex 0.06988 0.014027 -0.017118
   vertex 0.072367 0.011002 -0.015967
   vertex 0.070677 0.012657 -0.015735
  endloop
 endfacet
 facet normal -0.948558 -0.221715 0.226009
  outer loop
   vertex 0.069605 0.01586 -0.016474
   vertex 0.06988 0.014027 -0.017118
   vertex 0.070289 0.013478 -0.01594
  endloop
 endfacet
 facet normal -0.71535 -0.684396 -0.140984
  outer loop
   vertex 0.072415 0.011054 -0.016463
   vertex 0.072367 0.011002 -0.015967
   vertex 0.070433 0.013289 -0.017256
  endloop
 endfacet
 facet normal 0.0294064 -0.49091 -0.870714
  outer loop
   vertex 0.075277 0.010315 -0.016351
   vertex 0.079034 0.011716 -0.017014
   vertex 0.07935 0.009399 -0.015697
  endloop
 endfacet
 facet normal 0.481555 -0.382529 -0.788528
  outer loop
   vertex 0.079034 0.011716 -0.017014
   vertex 0.084694 0.013257 -0.014305
   vertex 0.07935 0.009399 -0.015697
  endloop
 endfacet
 facet normal -0.0463923 -0.322933 -0.945284
  outer loop
   vertex 0.075277 0.010315 -0.016351
   vertex 0.072415 0.011054 -0.016463
   vertex 0.079034 0.011716 -0.017014
  endloop
 endfacet
 facet normal -0.143858 -0.667814 -0.730294
  outer loop
   vertex 0.075277 0.010315 -0.016351
   vertex 0.075178 0.009526 -0.01561
   vertex 0.072415 0.011054 -0.016463
  endloop
 endfacet
 facet normal -0.446984 -0.884151 -0.135952
  outer loop
   vertex 0.075178 0.009526 -0.01561
   vertex 0.072367 0.011002 -0.015967
   vertex 0.072415 0.011054 -0.016463
  endloop
 endfacet
 facet normal 0.551819 -0.550235 -0.626688
  outer loop
   vertex 0.084694 0.013257 -0.014305
   vertex 0.085785 0.008776 -0.00941
   vertex 0.083829 0.008336 -0.010746
  endloop
 endfacet
 facet normal 0.451058 -0.605967 -0.655249
  outer loop
   vertex 0.085785 0.008776 -0.00941
   vertex 0.084694 0.013257 -0.014305
   vertex 0.088408 0.012145 -0.01072
  endloop
 endfacet
 facet normal 0.184239 -0.868462 -0.46025
  outer loop
   vertex 0.088408 0.012145 -0.01072
   vertex 0.084694 0.013257 -0.014305
   vertex 0.090028 0.012804 -0.011315
  endloop
 endfacet
 facet normal 0.00938544 -0.986058 -0.166136
  outer loop
   vertex 0.090028 0.012804 -0.011315
   vertex 0.084694 0.013257 -0.014305
   vertex 0.085975 0.0139 -0.018049
  endloop
 endfacet
 facet normal 0.558125 -0.548435 -0.622668
  outer loop
   vertex 0.084694 0.013257 -0.014305
   vertex 0.083829 0.008336 -0.010746
   vertex 0.07935 0.009399 -0.015697
  endloop
 endfacet
 facet normal 0.0445773 -0.987024 -0.154261
  outer loop
   vertex 0.084694 0.013257 -0.014305
   vertex 0.083179 0.01451 -0.02276
   vertex 0.085975 0.0139 -0.018049
  endloop
 endfacet
 facet normal 0.672144 -0.558627 -0.48596
  outer loop
   vertex 0.083179 0.01451 -0.02276
   vertex 0.083636 0.014952 -0.022636
   vertex 0.08652 0.015306 -0.019054
  endloop
 endfacet
 facet normal 0.658865 -0.589463 -0.467366
  outer loop
   vertex 0.083179 0.01451 -0.02276
   vertex 0.08652 0.015306 -0.019054
   vertex 0.085975 0.0139 -0.018049
  endloop
 endfacet
 facet normal 0.520148 -0.315102 -0.793824
  outer loop
   vertex 0.083636 0.014952 -0.022636
   vertex 0.083179 0.01451 -0.02276
   vertex 0.082901 0.015215 -0.023222
  endloop
 endfacet
 facet normal 0.692439 0.645718 -0.321832
  outer loop
   vertex 0.091123 0.024893 -0.014448
   vertex 0.090679 0.025566 -0.014053
   vertex 0.09124 0.025247 -0.013486
  endloop
 endfacet
 facet normal 0.939343 0.268718 -0.213132
  outer loop
   vertex 0.091123 0.024893 -0.014448
   vertex 0.09124 0.025247 -0.013486
   vertex 0.091335 0.02419 -0.0144
  endloop
 endfacet
 facet normal 0.900478 0.247115 -0.357873
  outer loop
   vertex 0.091123 0.024893 -0.014448
   vertex 0.091335 0.02419 -0.0144
   vertex 0.091026 0.024169 -0.015192
  endloop
 endfacet
 facet normal 0.209976 0.926148 0.313304
  outer loop
   vertex 0.086797 0.025914 -0.01248
   vertex 0.09124 0.025247 -0.013486
   vertex 0.090679 0.025566 -0.014053
  endloop
 endfacet
 facet normal 0.850144 0.0623135 -0.52285
  outer loop
   vertex 0.091026 0.024169 -0.015192
   vertex 0.089499 0.022708 -0.017849
   vertex 0.090334 0.023751 -0.016367
  endloop
 endfacet
 facet normal 0.599358 0.455487 -0.658257
  outer loop
   vertex 0.090334 0.023751 -0.016367
   vertex 0.089499 0.022708 -0.017849
   vertex 0.089248 0.023151 -0.017771
  endloop
 endfacet
 facet normal 0.88733 -0.11554 -0.446425
  outer loop
   vertex 0.091026 0.024169 -0.015192
   vertex 0.089316 0.013718 -0.015886
   vertex 0.089499 0.022708 -0.017849
  endloop
 endfacet
 facet normal 0.811659 -0.094526 -0.576432
  outer loop
   vertex 0.089316 0.013718 -0.015886
   vertex 0.091026 0.024169 -0.015192
   vertex 0.091071 0.013469 -0.013374
  endloop
 endfacet
 facet normal 0.917151 -0.185159 -0.352916
  outer loop
   vertex 0.091488 0.023444 -0.013611
   vertex 0.091026 0.024169 -0.015192
   vertex 0.091335 0.02419 -0.0144
  endloop
 endfacet
 facet normal 0.929282 -0.146887 -0.33891
  outer loop
   vertex 0.091488 0.023444 -0.013611
   vertex 0.091563 0.022075 -0.012812
   vertex 0.091026 0.024169 -0.015192
  endloop
 endfacet
 facet normal 0.957494 -0.0719443 -0.279339
  outer loop
   vertex 0.091026 0.024169 -0.015192
   vertex 0.091563 0.022075 -0.012812
   vertex 0.091544 0.01759 -0.011722
  endloop
 endfacet
 facet normal 0.978499 -0.0305416 -0.203976
  outer loop
   vertex 0.091026 0.024169 -0.015192
   vertex 0.091544 0.01759 -0.011722
   vertex 0.091071 0.013469 -0.013374
  endloop
 endfacet
 facet normal 0.36442 0.840521 0.400903
  outer loop
   vertex 0.086797 0.025914 -0.01248
   vertex 0.080801 0.027533 -0.010424
   vertex 0.083413 0.026629 -0.010903
  endloop
 endfacet
 facet normal 0.380962 0.634849 0.672187
  outer loop
   vertex 0.080801 0.027533 -0.010424
   vertex 0.077347 0.027523 -0.008457
   vertex 0.077144 0.027162 -0.008001
  endloop
 endfacet
 facet normal 0.338367 0.542419 0.768954
  outer loop
   vertex 0.083598 0.02611 -0.010651
   vertex 0.080801 0.027533 -0.010424
   vertex 0.080967 0.026654 -0.009877
  endloop
 endfacet
 facet normal 0.321415 0.503865 0.801756
  outer loop
   vertex 0.083598 0.02611 -0.010651
   vertex 0.083413 0.026629 -0.010903
   vertex 0.080801 0.027533 -0.010424
  endloop
 endfacet
 facet normal 0.428533 0.534331 0.728594
  outer loop
   vertex 0.080801 0.027533 -0.010424
   vertex 0.077144 0.027162 -0.008001
   vertex 0.080967 0.026654 -0.009877
  endloop
 endfacet
 facet normal 0.23151 0.862012 0.45093
  outer loop
   vertex 0.09124 0.025247 -0.013486
   vertex 0.086797 0.025914 -0.01248
   vertex 0.088817 0.025383 -0.012502
  endloop
 endfacet
 facet normal 0.322161 0.859871 0.396023
  outer loop
   vertex 0.087281 0.025501 -0.011977
   vertex 0.086797 0.025914 -0.01248
   vertex 0.085721 0.02591 -0.011596
  endloop
 endfacet
 facet normal 0.388757 0.788396 0.47676
  outer loop
   vertex 0.085721 0.02591 -0.011596
   vertex 0.086797 0.025914 -0.01248
   vertex 0.083413 0.026629 -0.010903
  endloop
 endfacet
 facet normal 0.228284 0.848656 0.477147
  outer loop
   vertex 0.088817 0.025383 -0.012502
   vertex 0.086797 0.025914 -0.01248
   vertex 0.087281 0.025501 -0.011977
  endloop
 endfacet
 facet normal 0.571814 0.309543 -0.759744
  outer loop
   vertex 0.088495 0.022292 -0.018945
   vertex 0.087237 0.020949 -0.020439
   vertex 0.085703 0.020781 -0.021662
  endloop
 endfacet
 facet normal 0.569389 0.240073 -0.786232
  outer loop
   vertex 0.085703 0.020781 -0.021662
   vertex 0.085662 0.020125 -0.021892
   vertex 0.084128 0.019306 -0.023253
  endloop
 endfacet
 facet normal 0.590292 0.233965 -0.772538
  outer loop
   vertex 0.085703 0.020781 -0.021662
   vertex 0.087237 0.020949 -0.020439
   vertex 0.085662 0.020125 -0.021892
  endloop
 endfacet
 facet normal 0.570022 0.444619 -0.690933
  outer loop
   vertex 0.089248 0.023151 -0.017771
   vertex 0.089499 0.022708 -0.017849
   vertex 0.088495 0.022292 -0.018945
  endloop
 endfacet
 facet normal 0.703525 0.138512 -0.697042
  outer loop
   vertex 0.089499 0.022708 -0.017849
   vertex 0.088411 0.021687 -0.01915
   vertex 0.088495 0.022292 -0.018945
  endloop
 endfacet
 facet normal 0.688735 0.145075 -0.71035
  outer loop
   vertex 0.088495 0.022292 -0.018945
   vertex 0.088411 0.021687 -0.01915
   vertex 0.087237 0.020949 -0.020439
  endloop
 endfacet
 facet normal -0.500289 0.865006 0.0384232
  outer loop
   vertex 0.070423 0.02643 -0.007219
   vertex 0.072178 0.027495 -0.008344
   vertex 0.071681 0.027245 -0.009187
  endloop
 endfacet
 facet normal -0.508583 0.860446 0.0312329
  outer loop
   vertex 0.068859 0.02553 -0.007892
   vertex 0.070423 0.02643 -0.007219
   vertex 0.071681 0.027245 -0.009187
  endloop
 endfacet
 facet normal -0.0743083 0.921804 0.380468
  outer loop
   vertex 0.072921 0.027006 -0.00553
   vertex 0.07238 0.027617 -0.007116
   vertex 0.071148 0.027055 -0.005995
  endloop
 endfacet
 facet normal 0.103989 0.939474 0.326457
  outer loop
   vertex 0.072921 0.027006 -0.00553
   vertex 0.073919 0.027087 -0.006081
   vertex 0.07238 0.027617 -0.007116
  endloop
 endfacet
 facet normal -0.42928 0.90297 -0.0190938
  outer loop
   vertex 0.07238 0.027617 -0.007116
   vertex 0.072178 0.027495 -0.008344
   vertex 0.071148 0.027055 -0.005995
  endloop
 endfacet
 facet normal -0.558361 0.824662 -0.0903617
  outer loop
   vertex 0.071148 0.027055 -0.005995
   vertex 0.072178 0.027495 -0.008344
   vertex 0.070423 0.02643 -0.007219
  endloop
 endfacet
 facet normal 0.433702 0.338053 0.835238
  outer loop
   vertex 0.073919 0.027087 -0.006081
   vertex 0.072921 0.027006 -0.00553
   vertex 0.074439 0.02662 -0.006162
  endloop
 endfacet
 facet normal 0.385434 0.632231 0.672105
  outer loop
   vertex 0.077347 0.027523 -0.008457
   vertex 0.073919 0.027087 -0.006081
   vertex 0.077144 0.027162 -0.008001
  endloop
 endfacet
 facet normal 0.466435 0.3809 0.798344
  outer loop
   vertex 0.077144 0.027162 -0.008001
   vertex 0.073919 0.027087 -0.006081
   vertex 0.074439 0.02662 -0.006162
  endloop
 endfacet
 facet normal -0.563649 0.783188 0.262518
  outer loop
   vertex 0.070461 0.025974 -0.005777
   vertex 0.070423 0.02643 -0.007219
   vertex 0.068859 0.02553 -0.007892
  endloop
 endfacet
 facet normal -0.800152 0.209071 0.56218
  outer loop
   vertex 0.070392 0.022822 -0.004703
   vertex 0.070461 0.025974 -0.005777
   vertex 0.068859 0.02553 -0.007892
  endloop
 endfacet
 facet normal -0.884533 0.0459323 0.464211
  outer loop
   vertex 0.070392 0.022822 -0.004703
   vertex 0.068859 0.02553 -0.007892
   vertex 0.069256 0.017116 -0.006303
  endloop
 endfacet
 facet normal -0.917724 0.292233 -0.26904
  outer loop
   vertex 0.068823 0.015608 -0.006464
   vertex 0.068605 0.016633 -0.004607
   vertex 0.069256 0.017116 -0.006303
  endloop
 endfacet
 facet normal -0.927271 0.291353 -0.235121
  outer loop
   vertex 0.069256 0.017116 -0.006303
   vertex 0.069047 0.015572 -0.007392
   vertex 0.068823 0.015608 -0.006464
  endloop
 endfacet
 facet normal -0.936021 0.278486 -0.215198
  outer loop
   vertex 0.069243 0.015567 -0.008251
   vertex 0.069047 0.015572 -0.007392
   vertex 0.069256 0.017116 -0.006303
  endloop
 endfacet
 facet normal -0.994269 -0.104793 -0.0211759
  outer loop
   vertex 0.069605 0.01586 -0.016474
   vertex 0.069578 0.014871 -0.010312
   vertex 0.069256 0.017116 -0.006303
  endloop
 endfacet
 facet normal -0.905561 0.334961 -0.260309
  outer loop
   vertex 0.069243 0.015567 -0.008251
   vertex 0.069256 0.017116 -0.006303
   vertex 0.069578 0.014871 -0.010312
  endloop
 endfacet
 facet normal -0.92353 0.262318 -0.279788
  outer loop
   vertex 0.070392 0.022822 -0.004703
   vertex 0.069256 0.017116 -0.006303
   vertex 0.068605 0.016633 -0.004607
  endloop
 endfacet
 facet normal -0.962878 -0.265156 0.0505749
  outer loop
   vertex 0.070395 0.01356 -0.013492
   vertex 0.069605 0.01586 -0.016474
   vertex 0.070289 0.013478 -0.01594
  endloop
 endfacet
 facet normal -0.873914 -0.473288 -0.110786
  outer loop
   vertex 0.069605 0.01586 -0.016474
   vertex 0.070167 0.013779 -0.012017
   vertex 0.069868 0.013987 -0.010547
  endloop
 endfacet
 facet normal -0.907007 -0.41368 -0.0787823
  outer loop
   vertex 0.069605 0.01586 -0.016474
   vertex 0.070395 0.01356 -0.013492
   vertex 0.070167 0.013779 -0.012017
  endloop
 endfacet
 facet normal -0.952908 -0.298748 -0.0521245
  outer loop
   vertex 0.069605 0.01586 -0.016474
   vertex 0.069868 0.013987 -0.010547
   vertex 0.069578 0.014871 -0.010312
  endloop
 endfacet
 facet normal -0.0355858 0.289628 -0.956478
  outer loop
   vertex 0.08327 0.018567 -0.023697
   vertex 0.082214 0.017965 -0.02384
   vertex 0.081771 0.018221 -0.023746
  endloop
 endfacet
 facet normal 0.717903 -0.30368 -0.626414
  outer loop
   vertex 0.087143 0.020204 -0.020233
   vertex 0.084128 0.019306 -0.023253
   vertex 0.085662 0.020125 -0.021892
  endloop
 endfacet
 facet normal 0.348898 0.150654 -0.924972
  outer loop
   vertex 0.084157 0.018367 -0.023395
   vertex 0.08327 0.018567 -0.023697
   vertex 0.084128 0.019306 -0.023253
  endloop
 endfacet
 facet normal 0.736067 0.123382 -0.665569
  outer loop
   vertex 0.085553 0.018864 -0.021759
   vertex 0.084157 0.018367 -0.023395
   vertex 0.084128 0.019306 -0.023253
  endloop
 endfacet
 facet normal 0.714604 -0.0536425 -0.697469
  outer loop
   vertex 0.087143 0.020204 -0.020233
   vertex 0.085553 0.018864 -0.021759
   vertex 0.084128 0.019306 -0.023253
  endloop
 endfacet
 facet normal 0.221853 -0.160708 -0.961745
  outer loop
   vertex 0.082214 0.017965 -0.02384
   vertex 0.08327 0.018567 -0.023697
   vertex 0.082901 0.015215 -0.023222
  endloop
 endfacet
 facet normal 0.574225 -0.176499 -0.799446
  outer loop
   vertex 0.082901 0.015215 -0.023222
   vertex 0.08327 0.018567 -0.023697
   vertex 0.083636 0.014952 -0.022636
  endloop
 endfacet
 facet normal 0.261865 -0.247289 -0.932885
  outer loop
   vertex 0.08327 0.018567 -0.023697
   vertex 0.084157 0.018367 -0.023395
   vertex 0.083636 0.014952 -0.022636
  endloop
 endfacet
 facet normal -0.696113 -0.666221 0.267538
  outer loop
   vertex 0.071536 0.011796 -0.015644
   vertex 0.073771 0.010757 -0.012416
   vertex 0.070677 0.012657 -0.015735
  endloop
 endfacet
 facet normal -0.672747 -0.705354 0.223353
  outer loop
   vertex 0.070496 0.013158 -0.014698
   vertex 0.070677 0.012657 -0.015735
   vertex 0.073771 0.010757 -0.012416
  endloop
 endfacet
 facet normal -0.907419 -0.417964 0.0435484
  outer loop
   vertex 0.070289 0.013478 -0.01594
   vertex 0.070677 0.012657 -0.015735
   vertex 0.070496 0.013158 -0.014698
  endloop
 endfacet
 facet normal -0.702779 -0.708238 -0.0670875
  outer loop
   vertex 0.072367 0.011002 -0.015967
   vertex 0.071536 0.011796 -0.015644
   vertex 0.070677 0.012657 -0.015735
  endloop
 endfacet
 facet normal -0.919465 -0.389601 0.0528636
  outer loop
   vertex 0.070289 0.013478 -0.01594
   vertex 0.070496 0.013158 -0.014698
   vertex 0.070395 0.01356 -0.013492
  endloop
 endfacet
 facet normal -0.470395 -0.880027 0.0654348
  outer loop
   vertex 0.075178 0.009526 -0.01561
   vertex 0.072462 0.010991 -0.015432
   vertex 0.072367 0.011002 -0.015967
  endloop
 endfacet
 facet normal -0.665917 -0.738873 0.103057
  outer loop
   vertex 0.072367 0.011002 -0.015967
   vertex 0.072462 0.010991 -0.015432
   vertex 0.071536 0.011796 -0.015644
  endloop
 endfacet
 facet normal 0.322076 -0.822917 -0.468054
  outer loop
   vertex 0.083829 0.008336 -0.010746
   vertex 0.079131 0.008058 -0.01349
   vertex 0.07935 0.009399 -0.015697
  endloop
 endfacet
 facet normal -0.0179489 -0.632611 -0.774262
  outer loop
   vertex 0.07935 0.009399 -0.015697
   vertex 0.077594 0.008291 -0.014751
   vertex 0.075277 0.010315 -0.016351
  endloop
 endfacet
 facet normal 0.267845 -0.83495 -0.480747
  outer loop
   vertex 0.07935 0.009399 -0.015697
   vertex 0.079131 0.008058 -0.01349
   vertex 0.077594 0.008291 -0.014751
  endloop
 endfacet
 facet normal -0.0856148 -0.676343 -0.731594
  outer loop
   vertex 0.075277 0.010315 -0.016351
   vertex 0.077594 0.008291 -0.014751
   vertex 0.075178 0.009526 -0.01561
  endloop
 endfacet
 facet normal -0.463719 -0.875896 0.133305
  outer loop
   vertex 0.072462 0.010991 -0.015432
   vertex 0.075178 0.009526 -0.01561
   vertex 0.073771 0.010757 -0.012416
  endloop
 endfacet
 facet normal -0.485358 -0.866045 0.119976
  outer loop
   vertex 0.073771 0.010757 -0.012416
   vertex 0.075178 0.009526 -0.01561
   vertex 0.077594 0.008291 -0.014751
  endloop
 endfacet
 facet normal 0.206827 -0.978186 0.019347
  outer loop
   vertex 0.084134 0.008453 -0.008091
   vertex 0.083829 0.008336 -0.010746
   vertex 0.085785 0.008776 -0.00941
  endloop
 endfacet
 facet normal 0.0900837 -0.994497 -0.0534779
  outer loop
   vertex 0.079131 0.008058 -0.01349
   vertex 0.083829 0.008336 -0.010746
   vertex 0.081722 0.008126 -0.01039
  endloop
 endfacet
 facet normal 0.0961115 -0.995204 -0.0182186
  outer loop
   vertex 0.081722 0.008126 -0.01039
   vertex 0.083829 0.008336 -0.010746
   vertex 0.082849 0.008221 -0.009634
  endloop
 endfacet
 facet normal 0.0472747 -0.998138 0.038555
  outer loop
   vertex 0.083829 0.008336 -0.010746
   vertex 0.084134 0.008453 -0.008091
   vertex 0.083428 0.008405 -0.008468
  endloop
 endfacet
 facet normal 0.185903 -0.980583 0.0624262
  outer loop
   vertex 0.082849 0.008221 -0.009634
   vertex 0.083829 0.008336 -0.010746
   vertex 0.083428 0.008405 -0.008468
  endloop
 endfacet
 facet normal 0.465423 -0.79564 0.387736
  outer loop
   vertex 0.084134 0.008453 -0.008091
   vertex 0.085785 0.008776 -0.00941
   vertex 0.084512 0.008871 -0.007687
  endloop
 endfacet
 facet normal 0.586256 -0.672795 0.451276
  outer loop
   vertex 0.085785 0.008776 -0.00941
   vertex 0.085051 0.01026 -0.006244
   vertex 0.084785 0.009281 -0.007358
  endloop
 endfacet
 facet normal 0.542896 -0.714982 0.440528
  outer loop
   vertex 0.084512 0.008871 -0.007687
   vertex 0.085785 0.008776 -0.00941
   vertex 0.084785 0.009281 -0.007358
  endloop
 endfacet
 facet normal -0.307756 -0.886951 0.344391
  outer loop
   vertex 0.08641 0.009399 -0.007247
   vertex 0.085051 0.01026 -0.006244
   vertex 0.085785 0.008776 -0.00941
  endloop
 endfacet
 facet normal 0.772958 -0.63023 -0.0731112
  outer loop
   vertex 0.087622 0.010802 -0.007453
   vertex 0.085785 0.008776 -0.00941
   vertex 0.088408 0.012145 -0.01072
  endloop
 endfacet
 facet normal 0.754305 -0.655881 -0.0290458
  outer loop
   vertex 0.087622 0.010802 -0.007453
   vertex 0.08641 0.009399 -0.007247
   vertex 0.085785 0.008776 -0.00941
  endloop
 endfacet
 facet normal 0.426813 -0.886111 0.180657
  outer loop
   vertex 0.088408 0.012145 -0.01072
   vertex 0.090028 0.012804 -0.011315
   vertex 0.088845 0.012698 -0.00904
  endloop
 endfacet
 facet normal 0.827911 -0.560001 -0.0310208
  outer loop
   vertex 0.087622 0.010802 -0.007453
   vertex 0.088408 0.012145 -0.01072
   vertex 0.088845 0.012698 -0.00904
  endloop
 endfacet
 facet normal 0.238578 -0.971073 0.00989313
  outer loop
   vertex 0.090028 0.012804 -0.011315
   vertex 0.090871 0.012991 -0.013289
   vertex 0.091219 0.013101 -0.010884
  endloop
 endfacet
 facet normal -0.0654774 -0.990395 -0.121784
  outer loop
   vertex 0.090871 0.012991 -0.013289
   vertex 0.090028 0.012804 -0.011315
   vertex 0.085975 0.0139 -0.018049
  endloop
 endfacet
 facet normal -0.22427 -0.394081 0.891293
  outer loop
   vertex 0.090733 0.013217 -0.010955
   vertex 0.090028 0.012804 -0.011315
   vertex 0.091219 0.013101 -0.010884
  endloop
 endfacet
 facet normal 0.705725 -0.622681 0.337965
  outer loop
   vertex 0.088845 0.012698 -0.00904
   vertex 0.090028 0.012804 -0.011315
   vertex 0.090122 0.01364 -0.009971
  endloop
 endfacet
 facet normal 0.231732 -0.833205 0.502066
  outer loop
   vertex 0.090122 0.01364 -0.009971
   vertex 0.090028 0.012804 -0.011315
   vertex 0.090733 0.013217 -0.010955
  endloop
 endfacet
 facet normal 0.397297 -0.630577 -0.666729
  outer loop
   vertex 0.08652 0.015306 -0.019054
   vertex 0.089316 0.013718 -0.015886
   vertex 0.085975 0.0139 -0.018049
  endloop
 endfacet
 facet normal 0.188501 -0.910607 -0.367781
  outer loop
   vertex 0.085975 0.0139 -0.018049
   vertex 0.089316 0.013718 -0.015886
   vertex 0.090871 0.012991 -0.013289
  endloop
 endfacet
 facet normal 0.773409 -0.236835 -0.588003
  outer loop
   vertex 0.08652 0.015306 -0.019054
   vertex 0.084157 0.018367 -0.023395
   vertex 0.085553 0.018864 -0.021759
  endloop
 endfacet
 facet normal 0.590259 -0.380722 -0.71179
  outer loop
   vertex 0.08652 0.015306 -0.019054
   vertex 0.085553 0.018864 -0.021759
   vertex 0.089316 0.013718 -0.015886
  endloop
 endfacet
 facet normal 0.766317 -0.248579 -0.592424
  outer loop
   vertex 0.084157 0.018367 -0.023395
   vertex 0.08652 0.015306 -0.019054
   vertex 0.083636 0.014952 -0.022636
  endloop
 endfacet
 facet normal 0.313575 0.662122 0.680636
  outer loop
   vertex 0.09124 0.025247 -0.013486
   vertex 0.088817 0.025383 -0.012502
   vertex 0.090022 0.025021 -0.012705
  endloop
 endfacet
 facet normal 0.232685 0.775259 0.587223
  outer loop
   vertex 0.091095 0.024958 -0.013047
   vertex 0.09124 0.025247 -0.013486
   vertex 0.090022 0.025021 -0.012705
  endloop
 endfacet
 facet normal 0.85356 0.382547 -0.353686
  outer loop
   vertex 0.091522 0.024554 -0.013555
   vertex 0.091335 0.02419 -0.0144
   vertex 0.09124 0.025247 -0.013486
  endloop
 endfacet
 facet normal 0.833803 0.292686 0.468089
  outer loop
   vertex 0.091522 0.024554 -0.013555
   vertex 0.09124 0.025247 -0.013486
   vertex 0.091095 0.024958 -0.013047
  endloop
 endfacet
 facet normal 0.977928 -0.0194629 -0.208036
  outer loop
   vertex 0.091335 0.02419 -0.0144
   vertex 0.091522 0.024554 -0.013555
   vertex 0.091488 0.023444 -0.013611
  endloop
 endfacet
 facet normal 0.813947 -0.139696 -0.563893
  outer loop
   vertex 0.089499 0.022708 -0.017849
   vertex 0.089316 0.013718 -0.015886
   vertex 0.088443 0.020838 -0.01891
  endloop
 endfacet
 facet normal 0.808815 -0.131539 -0.573162
  outer loop
   vertex 0.089499 0.022708 -0.017849
   vertex 0.088443 0.020838 -0.01891
   vertex 0.088411 0.021687 -0.01915
  endloop
 endfacet
 facet normal 0.753825 -0.172398 -0.634055
  outer loop
   vertex 0.089316 0.013718 -0.015886
   vertex 0.085553 0.018864 -0.021759
   vertex 0.087143 0.020204 -0.020233
  endloop
 endfacet
 facet normal 0.74357 -0.182088 -0.643388
  outer loop
   vertex 0.088443 0.020838 -0.01891
   vertex 0.089316 0.013718 -0.015886
   vertex 0.087143 0.020204 -0.020233
  endloop
 endfacet
 facet normal 0.730736 -0.403651 -0.550537
  outer loop
   vertex 0.089316 0.013718 -0.015886
   vertex 0.091071 0.013469 -0.013374
   vertex 0.090871 0.012991 -0.013289
  endloop
 endfacet
 facet normal 0.910091 -0.400037 -0.108193
  outer loop
   vertex 0.090871 0.012991 -0.013289
   vertex 0.091071 0.013469 -0.013374
   vertex 0.091465 0.013713 -0.010962
  endloop
 endfacet
 facet normal 0.986455 -0.050684 -0.156008
  outer loop
   vertex 0.091465 0.013713 -0.010962
   vertex 0.091071 0.013469 -0.013374
   vertex 0.091544 0.01759 -0.011722
  endloop
 endfacet
 facet normal 0.990771 -0.0236181 -0.133474
  outer loop
   vertex 0.091522 0.024554 -0.013555
   vertex 0.091563 0.022075 -0.012812
   vertex 0.091488 0.023444 -0.013611
  endloop
 endfacet
 facet normal 0.686126 0.169055 0.707568
  outer loop
   vertex 0.091095 0.024958 -0.013047
   vertex 0.091544 0.01759 -0.011722
   vertex 0.091563 0.022075 -0.012812
  endloop
 endfacet
 facet normal 0.818295 0.177401 0.546738
  outer loop
   vertex 0.091522 0.024554 -0.013555
   vertex 0.091095 0.024958 -0.013047
   vertex 0.091563 0.022075 -0.012812
  endloop
 endfacet
 facet normal 0.469363 0.211106 0.857399
  outer loop
   vertex 0.090122 0.01364 -0.009971
   vertex 0.091544 0.01759 -0.011722
   vertex 0.088845 0.012698 -0.00904
  endloop
 endfacet
 facet normal 0.409037 0.254722 0.876245
  outer loop
   vertex 0.091544 0.01759 -0.011722
   vertex 0.083451 0.024559 -0.00997
   vertex 0.088845 0.012698 -0.00904
  endloop
 endfacet
 facet normal 0.582369 0.144935 0.7999
  outer loop
   vertex 0.091465 0.013713 -0.010962
   vertex 0.091544 0.01759 -0.011722
   vertex 0.090122 0.01364 -0.009971
  endloop
 endfacet
 facet normal 0.308275 0.186538 0.932829
  outer loop
   vertex 0.091544 0.01759 -0.011722
   vertex 0.091095 0.024958 -0.013047
   vertex 0.090022 0.025021 -0.012705
  endloop
 endfacet
 facet normal 0.320306 0.136291 0.937459
  outer loop
   vertex 0.091544 0.01759 -0.011722
   vertex 0.087534 0.023857 -0.011263
   vertex 0.083451 0.024559 -0.00997
  endloop
 endfacet
 facet normal 0.389882 0.198798 0.89915
  outer loop
   vertex 0.090022 0.025021 -0.012705
   vertex 0.08756 0.025123 -0.01166
   vertex 0.091544 0.01759 -0.011722
  endloop
 endfacet
 facet normal 0.48914 0.25182 0.835062
  outer loop
   vertex 0.087534 0.023857 -0.011263
   vertex 0.091544 0.01759 -0.011722
   vertex 0.08756 0.025123 -0.01166
  endloop
 endfacet
 facet normal 0.326107 0.50444 0.799496
  outer loop
   vertex 0.08601 0.025508 -0.011255
   vertex 0.083413 0.026629 -0.010903
   vertex 0.083598 0.02611 -0.010651
  endloop
 endfacet
 facet normal 0.39396 0.742621 0.54158
  outer loop
   vertex 0.085721 0.02591 -0.011596
   vertex 0.083413 0.026629 -0.010903
   vertex 0.08601 0.025508 -0.011255
  endloop
 endfacet
 facet normal 0.43273 0.463652 0.773157
  outer loop
   vertex 0.083451 0.024559 -0.00997
   vertex 0.077144 0.027162 -0.008001
   vertex 0.074439 0.02662 -0.006162
  endloop
 endfacet
 facet normal 0.436504 0.483884 0.758499
  outer loop
   vertex 0.083451 0.024559 -0.00997
   vertex 0.080967 0.026654 -0.009877
   vertex 0.077144 0.027162 -0.008001
  endloop
 endfacet
 facet normal 0.330491 0.353 0.87531
  outer loop
   vertex 0.083451 0.024559 -0.00997
   vertex 0.083598 0.02611 -0.010651
   vertex 0.080967 0.026654 -0.009877
  endloop
 endfacet
 facet normal 0.309842 0.357469 0.88103
  outer loop
   vertex 0.083451 0.024559 -0.00997
   vertex 0.08601 0.025508 -0.011255
   vertex 0.083598 0.02611 -0.010651
  endloop
 endfacet
 facet normal 0.271124 0.728093 0.629581
  outer loop
   vertex 0.088817 0.025383 -0.012502
   vertex 0.087281 0.025501 -0.011977
   vertex 0.08756 0.025123 -0.01166
  endloop
 endfacet
 facet normal 0.314233 0.667368 0.675187
  outer loop
   vertex 0.090022 0.025021 -0.012705
   vertex 0.088817 0.025383 -0.012502
   vertex 0.08756 0.025123 -0.01166
  endloop
 endfacet
 facet normal 0.336189 0.737999 0.585093
  outer loop
   vertex 0.08756 0.025123 -0.01166
   vertex 0.085721 0.02591 -0.011596
   vertex 0.08601 0.025508 -0.011255
  endloop
 endfacet
 facet normal 0.336345 0.738412 0.584483
  outer loop
   vertex 0.08756 0.025123 -0.01166
   vertex 0.087281 0.025501 -0.011977
   vertex 0.085721 0.02591 -0.011596
  endloop
 endfacet
 facet normal 0.725194 -0.266998 -0.63467
  outer loop
   vertex 0.087143 0.020204 -0.020233
   vertex 0.085662 0.020125 -0.021892
   vertex 0.087237 0.020949 -0.020439
  endloop
 endfacet
 facet normal 0.771571 -0.14595 -0.619174
  outer loop
   vertex 0.088443 0.020838 -0.01891
   vertex 0.087237 0.020949 -0.020439
   vertex 0.088411 0.021687 -0.01915
  endloop
 endfacet
 facet normal 0.748177 -0.262858 -0.609209
  outer loop
   vertex 0.088443 0.020838 -0.01891
   vertex 0.087143 0.020204 -0.020233
   vertex 0.087237 0.020949 -0.020439
  endloop
 endfacet
 facet normal -0.890449 0.426634 0.158378
  outer loop
   vertex 0.070704 0.026597 -0.006089
   vertex 0.070423 0.02643 -0.007219
   vertex 0.070461 0.025974 -0.005777
  endloop
 endfacet
 facet normal -0.723789 0.685521 0.0786735
  outer loop
   vertex 0.070704 0.026597 -0.006089
   vertex 0.071148 0.027055 -0.005995
   vertex 0.070423 0.02643 -0.007219
  endloop
 endfacet
 facet normal -0.252224 0.0461363 0.966568
  outer loop
   vertex 0.072921 0.027006 -0.00553
   vertex 0.071148 0.027055 -0.005995
   vertex 0.070704 0.026597 -0.006089
  endloop
 endfacet
 facet normal 0.494244 0.21207 0.843059
  outer loop
   vertex 0.072921 0.027006 -0.00553
   vertex 0.072745 0.02486 -0.004887
   vertex 0.073764 0.024934 -0.005503
  endloop
 endfacet
 facet normal 0.407851 0.122505 0.904793
  outer loop
   vertex 0.074439 0.02662 -0.006162
   vertex 0.072921 0.027006 -0.00553
   vertex 0.074705 0.025018 -0.006065
  endloop
 endfacet
 facet normal -0.0108186 0.278917 0.960254
  outer loop
   vertex 0.071747 0.024671 -0.004865
   vertex 0.072921 0.027006 -0.00553
   vertex 0.070938 0.025941 -0.005243
  endloop
 endfacet
 facet normal -0.0337171 0.289393 0.956616
  outer loop
   vertex 0.071747 0.024671 -0.004865
   vertex 0.072745 0.02486 -0.004887
   vertex 0.072921 0.027006 -0.00553
  endloop
 endfacet
 facet normal 0.487537 0.2094 0.84762
  outer loop
   vertex 0.074705 0.025018 -0.006065
   vertex 0.072921 0.027006 -0.00553
   vertex 0.073764 0.024934 -0.005503
  endloop
 endfacet
 facet normal -0.292066 0.714994 0.635202
  outer loop
   vertex 0.072921 0.027006 -0.00553
   vertex 0.070704 0.026597 -0.006089
   vertex 0.070938 0.025941 -0.005243
  endloop
 endfacet
 facet normal 0.409978 0.122798 0.903791
  outer loop
   vertex 0.083451 0.024559 -0.00997
   vertex 0.074439 0.02662 -0.006162
   vertex 0.074705 0.025018 -0.006065
  endloop
 endfacet
 facet normal -0.716813 0.238895 0.655064
  outer loop
   vertex 0.070461 0.025974 -0.005777
   vertex 0.070392 0.022822 -0.004703
   vertex 0.070938 0.025941 -0.005243
  endloop
 endfacet
 facet normal -0.615119 0.531548 0.58231
  outer loop
   vertex 0.070704 0.026597 -0.006089
   vertex 0.070461 0.025974 -0.005777
   vertex 0.070938 0.025941 -0.005243
  endloop
 endfacet
 facet normal -0.148672 0.193911 0.969688
  outer loop
   vertex 0.070938 0.025941 -0.005243
   vertex 0.070392 0.022822 -0.004703
   vertex 0.071747 0.024671 -0.004865
  endloop
 endfacet
 facet normal -0.182145 0.294984 0.93798
  outer loop
   vertex 0.07046 0.019185 -0.003546
   vertex 0.072745 0.02486 -0.004887
   vertex 0.070392 0.022822 -0.004703
  endloop
 endfacet
 facet normal 0.00630849 0.08269 0.996555
  outer loop
   vertex 0.071747 0.024671 -0.004865
   vertex 0.070392 0.022822 -0.004703
   vertex 0.072745 0.02486 -0.004887
  endloop
 endfacet
 facet normal -0.686014 0.208889 0.696958
  outer loop
   vertex 0.070392 0.022822 -0.004703
   vertex 0.068605 0.016633 -0.004607
   vertex 0.07046 0.019185 -0.003546
  endloop
 endfacet
 facet normal -0.874455 0.124616 0.468828
  outer loop
   vertex 0.068605 0.016633 -0.004607
   vertex 0.068407 0.013054 -0.004025
   vertex 0.069054 0.01323 -0.002865
  endloop
 endfacet
 facet normal -0.990545 0.073624 0.115762
  outer loop
   vertex 0.068407 0.013054 -0.004025
   vertex 0.068605 0.016633 -0.004607
   vertex 0.068233 0.013485 -0.005788
  endloop
 endfacet
 facet normal -0.945363 0.225503 -0.235451
  outer loop
   vertex 0.068823 0.015608 -0.006464
   vertex 0.06831 0.014064 -0.005883
   vertex 0.068605 0.016633 -0.004607
  endloop
 endfacet
 facet normal -0.991479 0.127386 -0.0272503
  outer loop
   vertex 0.06831 0.014064 -0.005883
   vertex 0.068233 0.013485 -0.005788
   vertex 0.068605 0.016633 -0.004607
  endloop
 endfacet
 facet normal -0.711411 0.242944 0.659449
  outer loop
   vertex 0.07046 0.019185 -0.003546
   vertex 0.068605 0.016633 -0.004607
   vertex 0.069902 0.014082 -0.002268
  endloop
 endfacet
 facet normal -0.710228 0.244266 0.660235
  outer loop
   vertex 0.069902 0.014082 -0.002268
   vertex 0.068605 0.016633 -0.004607
   vertex 0.069054 0.01323 -0.002865
  endloop
 endfacet
 facet normal -0.952545 0.252536 -0.169951
  outer loop
   vertex 0.068867 0.0145 -0.008357
   vertex 0.06831 0.014064 -0.005883
   vertex 0.068823 0.015608 -0.006464
  endloop
 endfacet
 facet normal -0.903406 0.360574 -0.232045
  outer loop
   vertex 0.069047 0.015572 -0.007392
   vertex 0.068867 0.0145 -0.008357
   vertex 0.068823 0.015608 -0.006464
  endloop
 endfacet
 facet normal -0.915201 0.343452 -0.210825
  outer loop
   vertex 0.069243 0.015567 -0.008251
   vertex 0.068867 0.0145 -0.008357
   vertex 0.069047 0.015572 -0.007392
  endloop
 endfacet
 facet normal -0.901567 0.343796 -0.262643
  outer loop
   vertex 0.068867 0.0145 -0.008357
   vertex 0.069243 0.015567 -0.008251
   vertex 0.069578 0.014871 -0.010312
  endloop
 endfacet
 facet normal -0.913638 -0.177162 -0.365895
  outer loop
   vertex 0.069331 0.014222 -0.009381
   vertex 0.068867 0.0145 -0.008357
   vertex 0.069578 0.014871 -0.010312
  endloop
 endfacet
 facet normal -0.905026 -0.196628 -0.37718
  outer loop
   vertex 0.069868 0.013987 -0.010547
   vertex 0.069331 0.014222 -0.009381
   vertex 0.069578 0.014871 -0.010312
  endloop
 endfacet
 facet normal -0.705825 -0.708376 -0.003929
  outer loop
   vertex 0.070395 0.01356 -0.013492
   vertex 0.070867 0.013075 -0.010842
   vertex 0.070167 0.013779 -0.012017
  endloop
 endfacet
 facet normal -0.662091 -0.725846 0.1865
  outer loop
   vertex 0.070496 0.013158 -0.014698
   vertex 0.073771 0.010757 -0.012416
   vertex 0.070395 0.01356 -0.013492
  endloop
 endfacet
 facet normal -0.633076 -0.773553 -0.0288153
  outer loop
   vertex 0.070395 0.01356 -0.013492
   vertex 0.073771 0.010757 -0.012416
   vertex 0.070867 0.013075 -0.010842
  endloop
 endfacet
 facet normal -0.898824 -0.242578 -0.365063
  outer loop
   vertex 0.069331 0.014222 -0.009381
   vertex 0.069868 0.013987 -0.010547
   vertex 0.068453 0.013278 -0.006592
  endloop
 endfacet
 facet normal -0.679347 -0.733008 -0.0344617
  outer loop
   vertex 0.070167 0.013779 -0.012017
   vertex 0.070867 0.013075 -0.010842
   vertex 0.069868 0.013987 -0.010547
  endloop
 endfacet
 facet normal -0.684904 -0.634205 -0.358733
  outer loop
   vertex 0.068453 0.013278 -0.006592
   vertex 0.069868 0.013987 -0.010547
   vertex 0.070867 0.013075 -0.010842
  endloop
 endfacet
 facet normal -0.667789 -0.706269 0.235036
  outer loop
   vertex 0.072462 0.010991 -0.015432
   vertex 0.073771 0.010757 -0.012416
   vertex 0.071536 0.011796 -0.015644
  endloop
 endfacet
 facet normal -0.561585 -0.811892 0.159544
  outer loop
   vertex 0.073771 0.010757 -0.012416
   vertex 0.072198 0.012489 -0.009139
   vertex 0.070867 0.013075 -0.010842
  endloop
 endfacet
 facet normal -0.304247 -0.894758 0.326867
  outer loop
   vertex 0.072198 0.012489 -0.009139
   vertex 0.073771 0.010757 -0.012416
   vertex 0.078426 0.010132 -0.009794
  endloop
 endfacet
 facet normal -0.328521 -0.866082 0.376798
  outer loop
   vertex 0.073771 0.010757 -0.012416
   vertex 0.077594 0.008291 -0.014751
   vertex 0.078426 0.010132 -0.009794
  endloop
 endfacet
 facet normal 0.0881261 -0.99476 -0.051836
  outer loop
   vertex 0.080525 0.008063 -0.011216
   vertex 0.079131 0.008058 -0.01349
   vertex 0.081722 0.008126 -0.01039
  endloop
 endfacet
 facet normal -0.299291 -0.934623 0.192105
  outer loop
   vertex 0.077594 0.008291 -0.014751
   vertex 0.079131 0.008058 -0.01349
   vertex 0.080234 0.008343 -0.010385
  endloop
 endfacet
 facet normal -0.321692 -0.925645 0.199238
  outer loop
   vertex 0.080234 0.008343 -0.010385
   vertex 0.079131 0.008058 -0.01349
   vertex 0.080525 0.008063 -0.011216
  endloop
 endfacet
 facet normal -0.591319 -0.718543 0.366112
  outer loop
   vertex 0.077594 0.008291 -0.014751
   vertex 0.080234 0.008343 -0.010385
   vertex 0.078426 0.010132 -0.009794
  endloop
 endfacet
 facet normal 0.0323814 -0.709584 0.703876
  outer loop
   vertex 0.084134 0.008453 -0.008091
   vertex 0.084512 0.008871 -0.007687
   vertex 0.083871 0.009304 -0.007221
  endloop
 endfacet
 facet normal -0.347643 0.755887 0.554778
  outer loop
   vertex 0.080234 0.008343 -0.010385
   vertex 0.083428 0.008405 -0.008468
   vertex 0.084134 0.008453 -0.008091
  endloop
 endfacet
 facet normal -0.306089 -0.771771 0.557386
  outer loop
   vertex 0.080234 0.008343 -0.010385
   vertex 0.084134 0.008453 -0.008091
   vertex 0.081377 0.009558 -0.008075
  endloop
 endfacet
 facet normal -0.258704 -0.728469 0.634354
  outer loop
   vertex 0.083871 0.009304 -0.007221
   vertex 0.082659 0.009407 -0.007597
   vertex 0.084134 0.008453 -0.008091
  endloop
 endfacet
 facet normal -0.302668 -0.763425 0.570591
  outer loop
   vertex 0.082659 0.009407 -0.007597
   vertex 0.081377 0.009558 -0.008075
   vertex 0.084134 0.008453 -0.008091
  endloop
 endfacet
 facet normal -0.137948 -0.952206 0.272533
  outer loop
   vertex 0.080525 0.008063 -0.011216
   vertex 0.081722 0.008126 -0.01039
   vertex 0.080234 0.008343 -0.010385
  endloop
 endfacet
 facet normal -0.135663 -0.937633 0.320063
  outer loop
   vertex 0.080234 0.008343 -0.010385
   vertex 0.081722 0.008126 -0.01039
   vertex 0.082849 0.008221 -0.009634
  endloop
 endfacet
 facet normal -0.104385 -0.973097 0.205393
  outer loop
   vertex 0.082849 0.008221 -0.009634
   vertex 0.083428 0.008405 -0.008468
   vertex 0.080234 0.008343 -0.010385
  endloop
 endfacet
 facet normal 0.0949806 -0.66073 0.74459
  outer loop
   vertex 0.083871 0.009304 -0.007221
   vertex 0.084512 0.008871 -0.007687
   vertex 0.084785 0.009281 -0.007358
  endloop
 endfacet
 facet normal 0.0400616 -0.755276 0.654182
  outer loop
   vertex 0.083075 0.01114 -0.005107
   vertex 0.084785 0.009281 -0.007358
   vertex 0.085051 0.01026 -0.006244
  endloop
 endfacet
 facet normal 0.0820222 -0.736965 0.670936
  outer loop
   vertex 0.083075 0.01114 -0.005107
   vertex 0.083871 0.009304 -0.007221
   vertex 0.084785 0.009281 -0.007358
  endloop
 endfacet
 facet normal 0.424081 -0.318304 0.847843
  outer loop
   vertex 0.08641 0.009399 -0.007247
   vertex 0.086589 0.01094 -0.006758
   vertex 0.085051 0.01026 -0.006244
  endloop
 endfacet
 facet normal 0.401557 -0.240199 0.883774
  outer loop
   vertex 0.083075 0.01114 -0.005107
   vertex 0.085051 0.01026 -0.006244
   vertex 0.086589 0.01094 -0.006758
  endloop
 endfacet
 facet normal 0.500718 -0.314119 0.806604
  outer loop
   vertex 0.086589 0.01094 -0.006758
   vertex 0.08641 0.009399 -0.007247
   vertex 0.087622 0.010802 -0.007453
  endloop
 endfacet
 facet normal 0.56075 0.288047 0.776266
  outer loop
   vertex 0.087622 0.010802 -0.007453
   vertex 0.088845 0.012698 -0.00904
   vertex 0.086589 0.01094 -0.006758
  endloop
 endfacet
 facet normal 0.485483 0.28557 0.826291
  outer loop
   vertex 0.088845 0.012698 -0.00904
   vertex 0.083451 0.024559 -0.00997
   vertex 0.080853 0.011855 -0.004053
  endloop
 endfacet
 facet normal 0.438799 0.448011 0.778936
  outer loop
   vertex 0.088845 0.012698 -0.00904
   vertex 0.080853 0.011855 -0.004053
   vertex 0.086589 0.01094 -0.006758
  endloop
 endfacet
 facet normal 0.916521 -0.383069 -0.115099
  outer loop
   vertex 0.090871 0.012991 -0.013289
   vertex 0.091465 0.013713 -0.010962
   vertex 0.091219 0.013101 -0.010884
  endloop
 endfacet
 facet normal -0.103495 0.166577 0.980582
  outer loop
   vertex 0.091465 0.013713 -0.010962
   vertex 0.090733 0.013217 -0.010955
   vertex 0.091219 0.013101 -0.010884
  endloop
 endfacet
 facet normal 0.462089 -0.673814 0.576584
  outer loop
   vertex 0.090122 0.01364 -0.009971
   vertex 0.090733 0.013217 -0.010955
   vertex 0.091465 0.013713 -0.010962
  endloop
 endfacet
 facet normal 0.334763 0.304692 0.891682
  outer loop
   vertex 0.087534 0.023857 -0.011263
   vertex 0.08601 0.025508 -0.011255
   vertex 0.083451 0.024559 -0.00997
  endloop
 endfacet
 facet normal 0.400367 0.318342 0.859282
  outer loop
   vertex 0.083451 0.024559 -0.00997
   vertex 0.074705 0.025018 -0.006065
   vertex 0.080853 0.011855 -0.004053
  endloop
 endfacet
 facet normal 0.307047 0.279019 0.909874
  outer loop
   vertex 0.087534 0.023857 -0.011263
   vertex 0.08756 0.025123 -0.01166
   vertex 0.08601 0.025508 -0.011255
  endloop
 endfacet
 facet normal 0.467426 0.343651 0.814504
  outer loop
   vertex 0.073764 0.024934 -0.005503
   vertex 0.072745 0.02486 -0.004887
   vertex 0.080853 0.011855 -0.004053
  endloop
 endfacet
 facet normal 0.459627 0.34008 0.82042
  outer loop
   vertex 0.074705 0.025018 -0.006065
   vertex 0.073764 0.024934 -0.005503
   vertex 0.080853 0.011855 -0.004053
  endloop
 endfacet
 facet normal 0.388698 0.29824 0.871761
  outer loop
   vertex 0.075697 0.014658 -0.002713
   vertex 0.080853 0.011855 -0.004053
   vertex 0.072745 0.02486 -0.004887
  endloop
 endfacet
 facet normal 0.0327119 0.21735 0.975546
  outer loop
   vertex 0.07046 0.019185 -0.003546
   vertex 0.075697 0.014658 -0.002713
   vertex 0.072745 0.02486 -0.004887
  endloop
 endfacet
 facet normal 0.175512 0.370846 0.911959
  outer loop
   vertex 0.075697 0.014658 -0.002713
   vertex 0.07046 0.019185 -0.003546
   vertex 0.072204 0.013552 -0.001591
  endloop
 endfacet
 facet normal -0.299214 0.262467 0.917378
  outer loop
   vertex 0.07046 0.019185 -0.003546
   vertex 0.069902 0.014082 -0.002268
   vertex 0.070922 0.013644 -0.00181
  endloop
 endfacet
 facet normal -0.141472 0.285204 0.947969
  outer loop
   vertex 0.072204 0.013552 -0.001591
   vertex 0.07046 0.019185 -0.003546
   vertex 0.070922 0.013644 -0.00181
  endloop
 endfacet
 facet normal -0.798939 -0.0384477 0.600181
  outer loop
   vertex 0.069054 0.01323 -0.002865
   vertex 0.069748 0.011859 -0.002029
   vertex 0.069714 0.012784 -0.002015
  endloop
 endfacet
 facet normal -0.768507 0.00114077 0.639841
  outer loop
   vertex 0.069054 0.01323 -0.002865
   vertex 0.069069 0.012677 -0.002846
   vertex 0.069748 0.011859 -0.002029
  endloop
 endfacet
 facet normal -0.872872 -0.00691008 0.487901
  outer loop
   vertex 0.069054 0.01323 -0.002865
   vertex 0.068407 0.013054 -0.004025
   vertex 0.069069 0.012677 -0.002846
  endloop
 endfacet
 facet normal -0.705246 0.23268 0.669693
  outer loop
   vertex 0.069902 0.014082 -0.002268
   vertex 0.069054 0.01323 -0.002865
   vertex 0.069714 0.012784 -0.002015
  endloop
 endfacet
 facet normal -0.8563 -0.366926 0.363476
  outer loop
   vertex 0.069069 0.012677 -0.002846
   vertex 0.068407 0.013054 -0.004025
   vertex 0.068384 0.012652 -0.004485
  endloop
 endfacet
 facet normal -0.998683 -0.00153721 0.0512775
  outer loop
   vertex 0.068384 0.012652 -0.004485
   vertex 0.068407 0.013054 -0.004025
   vertex 0.06833 0.012977 -0.005527
  endloop
 endfacet
 facet normal -0.985683 -0.158084 0.0586363
  outer loop
   vertex 0.06833 0.012977 -0.005527
   vertex 0.068407 0.013054 -0.004025
   vertex 0.068233 0.013485 -0.005788
  endloop
 endfacet
 facet normal -0.955898 0.0807961 -0.282367
  outer loop
   vertex 0.06831 0.014064 -0.005883
   vertex 0.068453 0.013278 -0.006592
   vertex 0.068233 0.013485 -0.005788
  endloop
 endfacet
 facet normal -0.942795 -0.27605 -0.186907
  outer loop
   vertex 0.06833 0.012977 -0.005527
   vertex 0.068233 0.013485 -0.005788
   vertex 0.068453 0.013278 -0.006592
  endloop
 endfacet
 facet normal -0.976094 0.0178147 -0.216619
  outer loop
   vertex 0.068867 0.0145 -0.008357
   vertex 0.068453 0.013278 -0.006592
   vertex 0.06831 0.014064 -0.005883
  endloop
 endfacet
 facet normal -0.316858 0.225466 0.921285
  outer loop
   vertex 0.070922 0.013644 -0.00181
   vertex 0.069902 0.014082 -0.002268
   vertex 0.069714 0.012784 -0.002015
  endloop
 endfacet
 facet normal -0.911072 -0.206599 -0.356741
  outer loop
   vertex 0.068453 0.013278 -0.006592
   vertex 0.068867 0.0145 -0.008357
   vertex 0.069331 0.014222 -0.009381
  endloop
 endfacet
 facet normal -0.277097 -0.954314 -0.111809
  outer loop
   vertex 0.072198 0.012489 -0.009139
   vertex 0.068453 0.013278 -0.006592
   vertex 0.070867 0.013075 -0.010842
  endloop
 endfacet
 facet normal -0.219072 -0.893928 -0.391024
  outer loop
   vertex 0.069544 0.013043 -0.006666
   vertex 0.068453 0.013278 -0.006592
   vertex 0.071034 0.012897 -0.007167
  endloop
 endfacet
 facet normal -0.115032 -0.98405 0.135697
  outer loop
   vertex 0.072198 0.012489 -0.009139
   vertex 0.071034 0.012897 -0.007167
   vertex 0.068453 0.013278 -0.006592
  endloop
 endfacet
 facet normal -0.243249 -0.925685 -0.289719
  outer loop
   vertex 0.068453 0.013278 -0.006592
   vertex 0.069632 0.012561 -0.005291
   vertex 0.06833 0.012977 -0.005527
  endloop
 endfacet
 facet normal -0.220242 -0.92484 -0.310103
  outer loop
   vertex 0.069632 0.012561 -0.005291
   vertex 0.068453 0.013278 -0.006592
   vertex 0.069544 0.013043 -0.006666
  endloop
 endfacet
 facet normal -0.275498 -0.957158 -0.0891532
  outer loop
   vertex 0.074683 0.011648 -0.007789
   vertex 0.072452 0.012265 -0.007519
   vertex 0.072198 0.012489 -0.009139
  endloop
 endfacet
 facet normal -0.418686 -0.90617 -0.0596528
  outer loop
   vertex 0.072452 0.012265 -0.007519
   vertex 0.071034 0.012897 -0.007167
   vertex 0.072198 0.012489 -0.009139
  endloop
 endfacet
 facet normal -0.348043 -0.935698 0.0577519
  outer loop
   vertex 0.074683 0.011648 -0.007789
   vertex 0.072198 0.012489 -0.009139
   vertex 0.078426 0.010132 -0.009794
  endloop
 endfacet
 facet normal -0.468176 -0.665271 0.581571
  outer loop
   vertex 0.078426 0.010132 -0.009794
   vertex 0.080234 0.008343 -0.010385
   vertex 0.081377 0.009558 -0.008075
  endloop
 endfacet
 facet normal -0.270276 -0.931722 0.24258
  outer loop
   vertex 0.076846 0.011066 -0.007967
   vertex 0.078426 0.010132 -0.009794
   vertex 0.078706 0.010534 -0.007938
  endloop
 endfacet
 facet normal -0.309538 -0.918606 0.245662
  outer loop
   vertex 0.079991 0.010078 -0.008024
   vertex 0.078706 0.010534 -0.007938
   vertex 0.078426 0.010132 -0.009794
  endloop
 endfacet
 facet normal -0.330234 -0.906128 0.264341
  outer loop
   vertex 0.081377 0.009558 -0.008075
   vertex 0.079991 0.010078 -0.008024
   vertex 0.078426 0.010132 -0.009794
  endloop
 endfacet
 facet normal -0.227933 -0.932647 0.279671
  outer loop
   vertex 0.076846 0.011066 -0.007967
   vertex 0.074683 0.011648 -0.007789
   vertex 0.078426 0.010132 -0.009794
  endloop
 endfacet
 facet normal -0.246182 -0.77575 0.581039
  outer loop
   vertex 0.082659 0.009407 -0.007597
   vertex 0.083871 0.009304 -0.007221
   vertex 0.083075 0.01114 -0.005107
  endloop
 endfacet
 facet normal -0.285677 -0.811443 0.509852
  outer loop
   vertex 0.082659 0.009407 -0.007597
   vertex 0.079991 0.010078 -0.008024
   vertex 0.081377 0.009558 -0.008075
  endloop
 endfacet
 facet normal -0.284798 -0.763825 0.579191
  outer loop
   vertex 0.082659 0.009407 -0.007597
   vertex 0.083075 0.01114 -0.005107
   vertex 0.079991 0.010078 -0.008024
  endloop
 endfacet
 facet normal -0.205693 -0.84255 0.497796
  outer loop
   vertex 0.083075 0.01114 -0.005107
   vertex 0.078487 0.010952 -0.007321
   vertex 0.078706 0.010534 -0.007938
  endloop
 endfacet
 facet normal 0.12105 -0.978366 -0.16777
  outer loop
   vertex 0.078133 0.010622 -0.005652
   vertex 0.078487 0.010952 -0.007321
   vertex 0.083075 0.01114 -0.005107
  endloop
 endfacet
 facet normal 0.0888601 -0.98719 0.13251
  outer loop
   vertex 0.079023 0.010875 -0.004364
   vertex 0.078133 0.010622 -0.005652
   vertex 0.083075 0.01114 -0.005107
  endloop
 endfacet
 facet normal -0.246185 -0.797598 0.550663
  outer loop
   vertex 0.079991 0.010078 -0.008024
   vertex 0.083075 0.01114 -0.005107
   vertex 0.078706 0.010534 -0.007938
  endloop
 endfacet
 facet normal 0.424469 -0.0154226 0.905311
  outer loop
   vertex 0.080853 0.011855 -0.004053
   vertex 0.083075 0.01114 -0.005107
   vertex 0.086589 0.01094 -0.006758
  endloop
 endfacet
 facet normal 0.266697 -0.437275 0.858873
  outer loop
   vertex 0.083075 0.01114 -0.005107
   vertex 0.080853 0.011855 -0.004053
   vertex 0.07881 0.011045 -0.003831
  endloop
 endfacet
 facet normal 0.124305 -0.929868 0.346257
  outer loop
   vertex 0.079023 0.010875 -0.004364
   vertex 0.083075 0.01114 -0.005107
   vertex 0.07881 0.011045 -0.003831
  endloop
 endfacet
 facet normal 0.357276 -0.747734 0.559685
  outer loop
   vertex 0.080853 0.011855 -0.004053
   vertex 0.078823 0.011534 -0.003186
   vertex 0.07881 0.011045 -0.003831
  endloop
 endfacet
 facet normal 0.354249 0.216741 0.909687
  outer loop
   vertex 0.078823 0.011534 -0.003186
   vertex 0.080853 0.011855 -0.004053
   vertex 0.075697 0.014658 -0.002713
  endloop
 endfacet
 facet normal 0.239131 0.201448 0.949861
  outer loop
   vertex 0.075751 0.012821 -0.002337
   vertex 0.075697 0.014658 -0.002713
   vertex 0.074549 0.012772 -0.002024
  endloop
 endfacet
 facet normal 0.364855 0.228426 0.902609
  outer loop
   vertex 0.077016 0.011267 -0.002388
   vertex 0.078823 0.011534 -0.003186
   vertex 0.075697 0.014658 -0.002713
  endloop
 endfacet
 facet normal 0.245989 0.196977 0.949047
  outer loop
   vertex 0.074549 0.012772 -0.002024
   vertex 0.075697 0.014658 -0.002713
   vertex 0.073171 0.013192 -0.001754
  endloop
 endfacet
 facet normal 0.283838 0.200278 0.937723
  outer loop
   vertex 0.075697 0.014658 -0.002713
   vertex 0.075751 0.012821 -0.002337
   vertex 0.077016 0.011267 -0.002388
  endloop
 endfacet
 facet normal 0.238063 0.210113 0.94825
  outer loop
   vertex 0.073171 0.013192 -0.001754
   vertex 0.075697 0.014658 -0.002713
   vertex 0.072204 0.013552 -0.001591
  endloop
 endfacet
 facet normal 0.165967 -0.000693417 0.986131
  outer loop
   vertex 0.073171 0.013192 -0.001754
   vertex 0.072204 0.013552 -0.001591
   vertex 0.07176 0.011097 -0.001518
  endloop
 endfacet
 facet normal -0.163984 0.0589378 0.984701
  outer loop
   vertex 0.072204 0.013552 -0.001591
   vertex 0.070922 0.013644 -0.00181
   vertex 0.07176 0.011097 -0.001518
  endloop
 endfacet
 facet normal -0.199313 0.0466405 0.978825
  outer loop
   vertex 0.070922 0.013644 -0.00181
   vertex 0.069714 0.012784 -0.002015
   vertex 0.07176 0.011097 -0.001518
  endloop
 endfacet
 facet normal -0.254616 -0.02399 0.966745
  outer loop
   vertex 0.069748 0.011859 -0.002029
   vertex 0.07176 0.011097 -0.001518
   vertex 0.069714 0.012784 -0.002015
  endloop
 endfacet
 facet normal -0.393498 -0.893273 0.217309
  outer loop
   vertex 0.071291 0.011036 -0.002618
   vertex 0.07176 0.011097 -0.001518
   vertex 0.069748 0.011859 -0.002029
  endloop
 endfacet
 facet normal -0.476266 -0.879089 -0.0193367
  outer loop
   vertex 0.068384 0.012652 -0.004485
   vertex 0.071291 0.011036 -0.002618
   vertex 0.069748 0.011859 -0.002029
  endloop
 endfacet
 facet normal -0.86223 -0.350459 0.365703
  outer loop
   vertex 0.069069 0.012677 -0.002846
   vertex 0.068384 0.012652 -0.004485
   vertex 0.069748 0.011859 -0.002029
  endloop
 endfacet
 facet normal -0.321966 -0.904033 -0.281179
  outer loop
   vertex 0.071291 0.011036 -0.002618
   vertex 0.068384 0.012652 -0.004485
   vertex 0.068967 0.012575 -0.004905
  endloop
 endfacet
 facet normal -0.313344 -0.911062 -0.267921
  outer loop
   vertex 0.06833 0.012977 -0.005527
   vertex 0.068967 0.012575 -0.004905
   vertex 0.068384 0.012652 -0.004485
  endloop
 endfacet
 facet normal -0.225406 -0.907117 -0.35543
  outer loop
   vertex 0.06833 0.012977 -0.005527
   vertex 0.069632 0.012561 -0.005291
   vertex 0.068967 0.012575 -0.004905
  endloop
 endfacet
 facet normal -0.279123 -0.737237 -0.615282
  outer loop
   vertex 0.071034 0.012897 -0.007167
   vertex 0.071607 0.011747 -0.006049
   vertex 0.069544 0.013043 -0.006666
  endloop
 endfacet
 facet normal -0.442219 -0.645185 -0.62304
  outer loop
   vertex 0.072452 0.012265 -0.007519
   vertex 0.071993 0.012259 -0.007187
   vertex 0.071034 0.012897 -0.007167
  endloop
 endfacet
 facet normal -0.489776 -0.720827 -0.490437
  outer loop
   vertex 0.071034 0.012897 -0.007167
   vertex 0.071993 0.012259 -0.007187
   vertex 0.071607 0.011747 -0.006049
  endloop
 endfacet
 facet normal -0.453426 -0.849774 -0.268866
  outer loop
   vertex 0.071607 0.011747 -0.006049
   vertex 0.069632 0.012561 -0.005291
   vertex 0.069544 0.013043 -0.006666
  endloop
 endfacet
 facet normal -0.232996 -0.899845 -0.36877
  outer loop
   vertex 0.071291 0.011036 -0.002618
   vertex 0.068967 0.012575 -0.004905
   vertex 0.069632 0.012561 -0.005291
  endloop
 endfacet
 facet normal -0.502491 -0.847386 -0.171579
  outer loop
   vertex 0.071291 0.011036 -0.002618
   vertex 0.069632 0.012561 -0.005291
   vertex 0.07078 0.011909 -0.005433
  endloop
 endfacet
 facet normal -0.48245 -0.751442 -0.450085
  outer loop
   vertex 0.071607 0.011747 -0.006049
   vertex 0.07078 0.011909 -0.005433
   vertex 0.069632 0.012561 -0.005291
  endloop
 endfacet
 facet normal -0.288808 -0.861971 -0.416648
  outer loop
   vertex 0.074683 0.011648 -0.007789
   vertex 0.073148 0.011997 -0.007447
   vertex 0.072452 0.012265 -0.007519
  endloop
 endfacet
 facet normal -0.289144 -0.862492 -0.415336
  outer loop
   vertex 0.073148 0.011997 -0.007447
   vertex 0.071993 0.012259 -0.007187
   vertex 0.072452 0.012265 -0.007519
  endloop
 endfacet
 facet normal -0.211419 -0.901344 0.377995
  outer loop
   vertex 0.074683 0.011648 -0.007789
   vertex 0.076846 0.011066 -0.007967
   vertex 0.078487 0.010952 -0.007321
  endloop
 endfacet
 facet normal 0.159415 0.975071 0.154351
  outer loop
   vertex 0.074683 0.011648 -0.007789
   vertex 0.078487 0.010952 -0.007321
   vertex 0.07798 0.011099 -0.007726
  endloop
 endfacet
 facet normal -0.142144 -0.900741 -0.41044
  outer loop
   vertex 0.074683 0.011648 -0.007789
   vertex 0.07798 0.011099 -0.007726
   vertex 0.075041 0.01135 -0.007259
  endloop
 endfacet
 facet normal -0.133907 -0.899716 -0.415428
  outer loop
   vertex 0.074683 0.011648 -0.007789
   vertex 0.075041 0.01135 -0.007259
   vertex 0.074167 0.011288 -0.006843
  endloop
 endfacet
 facet normal -0.248271 -0.852574 -0.459869
  outer loop
   vertex 0.074683 0.011648 -0.007789
   vertex 0.074167 0.011288 -0.006843
   vertex 0.073214 0.01149 -0.006703
  endloop
 endfacet
 facet normal -0.355023 -0.728251 -0.586182
  outer loop
   vertex 0.074683 0.011648 -0.007789
   vertex 0.073214 0.01149 -0.006703
   vertex 0.071607 0.011747 -0.006049
  endloop
 endfacet
 facet normal -0.294189 -0.830601 -0.472815
  outer loop
   vertex 0.074683 0.011648 -0.007789
   vertex 0.071607 0.011747 -0.006049
   vertex 0.073148 0.011997 -0.007447
  endloop
 endfacet
 facet normal -0.247949 -0.84064 0.481503
  outer loop
   vertex 0.076846 0.011066 -0.007967
   vertex 0.078706 0.010534 -0.007938
   vertex 0.078487 0.010952 -0.007321
  endloop
 endfacet
 facet normal -0.0594771 -0.976795 -0.20575
  outer loop
   vertex 0.078487 0.010952 -0.007321
   vertex 0.078133 0.010622 -0.005652
   vertex 0.077591 0.010849 -0.006573
  endloop
 endfacet
 facet normal -0.0889013 -0.966788 -0.239618
  outer loop
   vertex 0.07798 0.011099 -0.007726
   vertex 0.078487 0.010952 -0.007321
   vertex 0.077591 0.010849 -0.006573
  endloop
 endfacet
 facet normal 0.113505 -0.986812 0.115406
  outer loop
   vertex 0.074461 0.010592 -0.002297
   vertex 0.078133 0.010622 -0.005652
   vertex 0.079023 0.010875 -0.004364
  endloop
 endfacet
 facet normal -0.137957 -0.977473 -0.159732
  outer loop
   vertex 0.077591 0.010849 -0.006573
   vertex 0.078133 0.010622 -0.005652
   vertex 0.074461 0.010592 -0.002297
  endloop
 endfacet
 facet normal 0.226515 -0.8981 0.376971
  outer loop
   vertex 0.079023 0.010875 -0.004364
   vertex 0.07881 0.011045 -0.003831
   vertex 0.074461 0.010592 -0.002297
  endloop
 endfacet
 facet normal 0.244272 -0.865719 0.436877
  outer loop
   vertex 0.07881 0.011045 -0.003831
   vertex 0.077016 0.011267 -0.002388
   vertex 0.074461 0.010592 -0.002297
  endloop
 endfacet
 facet normal 0.357602 -0.747638 0.559606
  outer loop
   vertex 0.07881 0.011045 -0.003831
   vertex 0.078823 0.011534 -0.003186
   vertex 0.077016 0.011267 -0.002388
  endloop
 endfacet
 facet normal 0.252195 -0.130259 0.958869
  outer loop
   vertex 0.074461 0.010592 -0.002297
   vertex 0.074549 0.012772 -0.002024
   vertex 0.07176 0.011097 -0.001518
  endloop
 endfacet
 facet normal 0.0687159 -0.126696 0.989559
  outer loop
   vertex 0.077016 0.011267 -0.002388
   vertex 0.074549 0.012772 -0.002024
   vertex 0.074461 0.010592 -0.002297
  endloop
 endfacet
 facet normal 0.242175 0.165765 0.955967
  outer loop
   vertex 0.077016 0.011267 -0.002388
   vertex 0.075751 0.012821 -0.002337
   vertex 0.074549 0.012772 -0.002024
  endloop
 endfacet
 facet normal 0.187634 -0.015739 0.982113
  outer loop
   vertex 0.07176 0.011097 -0.001518
   vertex 0.074549 0.012772 -0.002024
   vertex 0.073171 0.013192 -0.001754
  endloop
 endfacet
 facet normal 0.0211489 -0.998701 0.0463652
  outer loop
   vertex 0.07176 0.011097 -0.001518
   vertex 0.071291 0.011036 -0.002618
   vertex 0.073711 0.010932 -0.005962
  endloop
 endfacet
 facet normal -0.197573 -0.978992 -0.0503898
  outer loop
   vertex 0.07176 0.011097 -0.001518
   vertex 0.073711 0.010932 -0.005962
   vertex 0.074461 0.010592 -0.002297
  endloop
 endfacet
 facet normal -0.241581 -0.959488 -0.144988
  outer loop
   vertex 0.071978 0.011336 -0.005748
   vertex 0.073711 0.010932 -0.005962
   vertex 0.071291 0.011036 -0.002618
  endloop
 endfacet
 facet normal -0.463165 -0.866804 -0.18474
  outer loop
   vertex 0.071978 0.011336 -0.005748
   vertex 0.071291 0.011036 -0.002618
   vertex 0.07078 0.011909 -0.005433
  endloop
 endfacet
 facet normal -0.478951 -0.75738 -0.443826
  outer loop
   vertex 0.071607 0.011747 -0.006049
   vertex 0.071978 0.011336 -0.005748
   vertex 0.07078 0.011909 -0.005433
  endloop
 endfacet
 facet normal -0.35205 -0.738722 -0.574762
  outer loop
   vertex 0.073214 0.01149 -0.006703
   vertex 0.071978 0.011336 -0.005748
   vertex 0.071607 0.011747 -0.006049
  endloop
 endfacet
 facet normal -0.294855 -0.830007 -0.473443
  outer loop
   vertex 0.073148 0.011997 -0.007447
   vertex 0.071607 0.011747 -0.006049
   vertex 0.071993 0.012259 -0.007187
  endloop
 endfacet
 facet normal -0.0268397 -0.975025 -0.220466
  outer loop
   vertex 0.076789 0.010957 -0.006953
   vertex 0.07798 0.011099 -0.007726
   vertex 0.077591 0.010849 -0.006573
  endloop
 endfacet
 facet normal -0.120746 -0.926557 -0.356248
  outer loop
   vertex 0.075202 0.01106 -0.006683
   vertex 0.07798 0.011099 -0.007726
   vertex 0.076789 0.010957 -0.006953
  endloop
 endfacet
 facet normal -0.142453 -0.899496 -0.413054
  outer loop
   vertex 0.075041 0.01135 -0.007259
   vertex 0.07798 0.011099 -0.007726
   vertex 0.075202 0.01106 -0.006683
  endloop
 endfacet
 facet normal -0.124931 -0.899774 -0.418091
  outer loop
   vertex 0.075041 0.01135 -0.007259
   vertex 0.075202 0.01106 -0.006683
   vertex 0.073711 0.010932 -0.005962
  endloop
 endfacet
 facet normal -0.143297 -0.889614 -0.43365
  outer loop
   vertex 0.074167 0.011288 -0.006843
   vertex 0.075041 0.01135 -0.007259
   vertex 0.073711 0.010932 -0.005962
  endloop
 endfacet
 facet normal -0.255013 -0.843451 -0.47282
  outer loop
   vertex 0.074167 0.011288 -0.006843
   vertex 0.073711 0.010932 -0.005962
   vertex 0.071978 0.011336 -0.005748
  endloop
 endfacet
 facet normal -0.24824 -0.853129 -0.458855
  outer loop
   vertex 0.073214 0.01149 -0.006703
   vertex 0.074167 0.011288 -0.006843
   vertex 0.071978 0.011336 -0.005748
  endloop
 endfacet
 facet normal -0.0780604 -0.990101 -0.116648
  outer loop
   vertex 0.076789 0.010957 -0.006953
   vertex 0.077591 0.010849 -0.006573
   vertex 0.074461 0.010592 -0.002297
  endloop
 endfacet
 facet normal -0.0410583 -0.995623 -0.0839615
  outer loop
   vertex 0.074461 0.010592 -0.002297
   vertex 0.073711 0.010932 -0.005962
   vertex 0.075501 0.010878 -0.006197
  endloop
 endfacet
 facet normal 0.0216313 -0.997493 -0.0673813
  outer loop
   vertex 0.075501 0.010878 -0.006197
   vertex 0.076789 0.010957 -0.006953
   vertex 0.074461 0.010592 -0.002297
  endloop
 endfacet
 facet normal -0.0695507 -0.947519 -0.312043
  outer loop
   vertex 0.073711 0.010932 -0.005962
   vertex 0.075202 0.01106 -0.006683
   vertex 0.075501 0.010878 -0.006197
  endloop
 endfacet
 facet normal -0.110745 -0.951184 -0.288072
  outer loop
   vertex 0.075501 0.010878 -0.006197
   vertex 0.075202 0.01106 -0.006683
   vertex 0.076789 0.010957 -0.006953
  endloop
 endfacet
endsolid
