solid ascii
 facet normal 0.272318 0.131925 0.95312
  outer loop
   vertex -0.005426 -0.067276 0.04784
   vertex -0.010469 -0.07081 0.04977
   vertex -0.006658 -0.072066 0.048855
  endloop
 endfacet
 facet normal -0.251066 0.0296156 0.967517
  outer loop
   vertex 0.00233 -0.069117 0.049909
   vertex -0.005426 -0.067276 0.04784
   vertex -0.002367 -0.071399 0.04876
  endloop
 endfacet
 facet normal -0.363163 0.281605 0.88815
  outer loop
   vertex -0.005575 -0.073921 0.049886
   vertex -0.005426 -0.067276 0.04784
   vertex -0.006658 -0.072066 0.048855
  endloop
 endfacet
 facet normal 0.220744 0.205673 0.953399
  outer loop
   vertex -0.010469 -0.07081 0.04977
   vertex -0.005426 -0.067276 0.04784
   vertex -0.007896 -0.065617 0.048054
  endloop
 endfacet
 facet normal 0.236101 0.229725 0.944184
  outer loop
   vertex -0.005426 -0.067276 0.04784
   vertex -0.005353 -0.060553 0.046186
   vertex -0.007896 -0.065617 0.048054
  endloop
 endfacet
 facet normal 0.105465 0.290466 0.951056
  outer loop
   vertex -0.005426 -0.067276 0.04784
   vertex -0.005575 -0.073921 0.049886
   vertex -0.002367 -0.071399 0.04876
  endloop
 endfacet
 facet normal -0.153855 0.237628 0.959094
  outer loop
   vertex -0.005353 -0.060553 0.046186
   vertex -0.005426 -0.067276 0.04784
   vertex -0.001342 -0.064769 0.047874
  endloop
 endfacet
 facet normal -0.183148 0.285597 0.940686
  outer loop
   vertex -0.005426 -0.067276 0.04784
   vertex 0.00233 -0.069117 0.049909
   vertex -0.001342 -0.064769 0.047874
  endloop
 endfacet
 facet normal -0.758147 -0.64128 -0.118207
  outer loop
   vertex -0.010469 -0.07081 0.04977
   vertex -0.007585 -0.072316 0.039443
   vertex -0.007086 -0.074011 0.045438
  endloop
 endfacet
 facet normal 0.18367 -0.150383 0.971417
  outer loop
   vertex -0.010469 -0.07081 0.04977
   vertex -0.005161 -0.076258 0.047923
   vertex -0.006658 -0.072066 0.048855
  endloop
 endfacet
 facet normal 0.272426 0.177509 0.945661
  outer loop
   vertex -0.010335 -0.063829 0.048421
   vertex -0.010469 -0.07081 0.04977
   vertex -0.007896 -0.065617 0.048054
  endloop
 endfacet
 facet normal -0.724927 -0.686294 -0.0590029
  outer loop
   vertex -0.005161 -0.076258 0.047923
   vertex -0.010469 -0.07081 0.04977
   vertex -0.007086 -0.074011 0.045438
  endloop
 endfacet
 facet normal -0.948176 -0.215669 -0.233344
  outer loop
   vertex -0.007585 -0.072316 0.039443
   vertex -0.010469 -0.07081 0.04977
   vertex -0.009441 -0.068365 0.043333
  endloop
 endfacet
 facet normal -0.986665 -0.0124219 -0.16229
  outer loop
   vertex -0.010469 -0.07081 0.04977
   vertex -0.010335 -0.063829 0.048421
   vertex -0.009441 -0.068365 0.043333
  endloop
 endfacet
 facet normal -0.889853 -0.375418 0.259273
  outer loop
   vertex -0.005161 -0.076258 0.047923
   vertex -0.005575 -0.073921 0.049886
   vertex -0.006658 -0.072066 0.048855
  endloop
 endfacet
 facet normal 0.484056 -0.545938 0.683844
  outer loop
   vertex 0.00343 -0.071297 0.04739
   vertex 0.00233 -0.069117 0.049909
   vertex 0.00094 -0.07302 0.047777
  endloop
 endfacet
 facet normal 0.570951 -0.540768 0.617726
  outer loop
   vertex 0.00233 -0.069117 0.049909
   vertex -0.000799 -0.075281 0.047405
   vertex 0.00094 -0.07302 0.047777
  endloop
 endfacet
 facet normal 0.944314 0.00876429 0.328928
  outer loop
   vertex 0.003083 -0.062128 0.047561
   vertex 0.00233 -0.069117 0.049909
   vertex 0.003245 -0.066935 0.047224
  endloop
 endfacet
 facet normal 0.931207 0.0532165 0.360586
  outer loop
   vertex 0.00233 -0.069117 0.049909
   vertex 0.00343 -0.071297 0.04739
   vertex 0.003245 -0.066935 0.047224
  endloop
 endfacet
 facet normal -0.0586483 -0.350015 0.934906
  outer loop
   vertex -0.000799 -0.075281 0.047405
   vertex 0.00233 -0.069117 0.049909
   vertex -0.002367 -0.071399 0.04876
  endloop
 endfacet
 facet normal -0.129765 0.328307 0.935615
  outer loop
   vertex 0.00233 -0.069117 0.049909
   vertex 0.003083 -0.062128 0.047561
   vertex -0.001342 -0.064769 0.047874
  endloop
 endfacet
 facet normal 0.424551 -0.140706 0.894404
  outer loop
   vertex -0.005575 -0.073921 0.049886
   vertex -0.000799 -0.075281 0.047405
   vertex -0.002367 -0.071399 0.04876
  endloop
 endfacet
 facet normal 0.699362 -0.383014 0.603484
  outer loop
   vertex -0.005575 -0.073921 0.049886
   vertex -0.005161 -0.076258 0.047923
   vertex -0.002666 -0.076166 0.04509
  endloop
 endfacet
 facet normal -0.0556767 -0.916823 0.395392
  outer loop
   vertex -0.000799 -0.075281 0.047405
   vertex -0.005575 -0.073921 0.049886
   vertex -0.002666 -0.076166 0.04509
  endloop
 endfacet
 facet normal 0.288054 0.200742 0.936337
  outer loop
   vertex -0.005353 -0.060553 0.046186
   vertex -0.010335 -0.063829 0.048421
   vertex -0.007896 -0.065617 0.048054
  endloop
 endfacet
 facet normal -0.102284 0.284351 0.953248
  outer loop
   vertex 0.003083 -0.062128 0.047561
   vertex -0.005353 -0.060553 0.046186
   vertex -0.001342 -0.064769 0.047874
  endloop
 endfacet
 facet normal 0.0571298 0.501909 0.863031
  outer loop
   vertex -0.010335 -0.063829 0.048421
   vertex -0.005353 -0.060553 0.046186
   vertex -0.008274 -0.059108 0.045539
  endloop
 endfacet
 facet normal 0.00364759 0.414788 0.909911
  outer loop
   vertex -0.005353 -0.060553 0.046186
   vertex -0.00629 -0.054284 0.043332
   vertex -0.008274 -0.059108 0.045539
  endloop
 endfacet
 facet normal 0.0315065 0.41803 0.907887
  outer loop
   vertex -0.00629 -0.054284 0.043332
   vertex -0.005353 -0.060553 0.046186
   vertex -0.002037 -0.058377 0.045069
  endloop
 endfacet
 facet normal -0.0449225 0.509544 0.859271
  outer loop
   vertex -0.005353 -0.060553 0.046186
   vertex 0.003083 -0.062128 0.047561
   vertex -0.002037 -0.058377 0.045069
  endloop
 endfacet
 facet normal -0.384521 -0.729881 -0.56517
  outer loop
   vertex -0.007585 -0.072316 0.039443
   vertex -0.00355 -0.072612 0.03708
   vertex -0.005276 -0.07468 0.040925
  endloop
 endfacet
 facet normal -0.814528 -0.57245 -0.0940539
  outer loop
   vertex -0.007585 -0.072316 0.039443
   vertex -0.005131 -0.076658 0.044618
   vertex -0.007086 -0.074011 0.045438
  endloop
 endfacet
 facet normal -0.933224 -0.347137 -0.0926803
  outer loop
   vertex -0.009375 -0.066504 0.035698
   vertex -0.007585 -0.072316 0.039443
   vertex -0.009441 -0.068365 0.043333
  endloop
 endfacet
 facet normal -0.528117 -0.757017 -0.384729
  outer loop
   vertex -0.005131 -0.076658 0.044618
   vertex -0.007585 -0.072316 0.039443
   vertex -0.005276 -0.07468 0.040925
  endloop
 endfacet
 facet normal -0.467607 -0.487397 -0.73742
  outer loop
   vertex -0.00355 -0.072612 0.03708
   vertex -0.007585 -0.072316 0.039443
   vertex -0.005887 -0.06945 0.036472
  endloop
 endfacet
 facet normal -0.325085 -0.580944 -0.746206
  outer loop
   vertex -0.007585 -0.072316 0.039443
   vertex -0.009375 -0.066504 0.035698
   vertex -0.005887 -0.06945 0.036472
  endloop
 endfacet
 facet normal -0.792728 -0.605976 0.0661448
  outer loop
   vertex -0.005131 -0.076658 0.044618
   vertex -0.005161 -0.076258 0.047923
   vertex -0.007086 -0.074011 0.045438
  endloop
 endfacet
 facet normal 0.172196 -0.977739 0.119897
  outer loop
   vertex -0.005161 -0.076258 0.047923
   vertex -0.005131 -0.076658 0.044618
   vertex -0.002666 -0.076166 0.04509
  endloop
 endfacet
 facet normal -0.988387 -0.14545 -0.0439968
  outer loop
   vertex -0.010335 -0.063829 0.048421
   vertex -0.009375 -0.066504 0.035698
   vertex -0.009441 -0.068365 0.043333
  endloop
 endfacet
 facet normal -0.120712 0.555098 0.822979
  outer loop
   vertex -0.011118 -0.057765 0.044216
   vertex -0.010335 -0.063829 0.048421
   vertex -0.008274 -0.059108 0.045539
  endloop
 endfacet
 facet normal -0.990841 -0.126122 -0.0482457
  outer loop
   vertex -0.009375 -0.066504 0.035698
   vertex -0.010335 -0.063829 0.048421
   vertex -0.010191 -0.061936 0.040515
  endloop
 endfacet
 facet normal -0.984201 -0.16729 -0.0579818
  outer loop
   vertex -0.010335 -0.063829 0.048421
   vertex -0.011118 -0.057765 0.044216
   vertex -0.010191 -0.061936 0.040515
  endloop
 endfacet
 facet normal 0.707215 -0.677082 0.203488
  outer loop
   vertex 0.004871 -0.072106 0.03969
   vertex 0.00343 -0.071297 0.04739
   vertex -0.000242 -0.076969 0.041279
  endloop
 endfacet
 facet normal 0.702712 -0.680089 0.208985
  outer loop
   vertex -0.0012 -0.076384 0.046404
   vertex -0.000242 -0.076969 0.041279
   vertex 0.00343 -0.071297 0.04739
  endloop
 endfacet
 facet normal 0.974649 0.010165 0.22351
  outer loop
   vertex 0.004136 -0.065198 0.044034
   vertex 0.00343 -0.071297 0.04739
   vertex 0.004581 -0.068595 0.042248
  endloop
 endfacet
 facet normal 0.980234 -0.0570536 0.189438
  outer loop
   vertex 0.00343 -0.071297 0.04739
   vertex 0.004871 -0.072106 0.03969
   vertex 0.004581 -0.068595 0.042248
  endloop
 endfacet
 facet normal 0.501531 -0.580763 0.641233
  outer loop
   vertex -0.0012 -0.076384 0.046404
   vertex 0.00343 -0.071297 0.04739
   vertex 0.00094 -0.07302 0.047777
  endloop
 endfacet
 facet normal 0.954203 0.051683 0.294661
  outer loop
   vertex 0.00343 -0.071297 0.04739
   vertex 0.004136 -0.065198 0.044034
   vertex 0.003245 -0.066935 0.047224
  endloop
 endfacet
 facet normal 0.700873 -0.602005 0.382578
  outer loop
   vertex -0.000799 -0.075281 0.047405
   vertex -0.0012 -0.076384 0.046404
   vertex 0.00094 -0.07302 0.047777
  endloop
 endfacet
 facet normal -0.650556 -0.366932 0.664934
  outer loop
   vertex -0.0012 -0.076384 0.046404
   vertex -0.000799 -0.075281 0.047405
   vertex -0.002666 -0.076166 0.04509
  endloop
 endfacet
 facet normal 0.961187 0.0130724 0.275588
  outer loop
   vertex 0.004136 -0.065198 0.044034
   vertex 0.003083 -0.062128 0.047561
   vertex 0.003245 -0.066935 0.047224
  endloop
 endfacet
 facet normal 0.910175 0.413256 -0.0283096
  outer loop
   vertex 0.000411 -0.056542 0.043197
   vertex 0.003083 -0.062128 0.047561
   vertex 0.002268 -0.060574 0.044043
  endloop
 endfacet
 facet normal 0.926041 0.374197 -0.0492383
  outer loop
   vertex 0.003083 -0.062128 0.047561
   vertex 0.004136 -0.065198 0.044034
   vertex 0.002268 -0.060574 0.044043
  endloop
 endfacet
 facet normal 0.100221 0.641868 0.760238
  outer loop
   vertex 0.003083 -0.062128 0.047561
   vertex 0.000411 -0.056542 0.043197
   vertex -0.002037 -0.058377 0.045069
  endloop
 endfacet
 facet normal -0.209645 -0.975114 0.0721168
  outer loop
   vertex -0.000242 -0.076969 0.041279
   vertex -0.0012 -0.076384 0.046404
   vertex -0.002666 -0.076166 0.04509
  endloop
 endfacet
 facet normal -0.688908 -0.660281 -0.299057
  outer loop
   vertex 0.000157 -0.076503 0.039331
   vertex -0.000242 -0.076969 0.041279
   vertex -0.002666 -0.076166 0.04509
  endloop
 endfacet
 facet normal 0.230215 -0.958365 0.168931
  outer loop
   vertex -0.004837 -0.077134 0.042557
   vertex 0.000157 -0.076503 0.039331
   vertex -0.002666 -0.076166 0.04509
  endloop
 endfacet
 facet normal 0.145087 -0.959304 0.242251
  outer loop
   vertex -0.005131 -0.076658 0.044618
   vertex -0.004837 -0.077134 0.042557
   vertex -0.002666 -0.076166 0.04509
  endloop
 endfacet
 facet normal -0.180314 0.469573 0.864285
  outer loop
   vertex -0.00629 -0.054284 0.043332
   vertex -0.011118 -0.057765 0.044216
   vertex -0.008274 -0.059108 0.045539
  endloop
 endfacet
 facet normal 0.202791 0.553522 0.807768
  outer loop
   vertex 0.000411 -0.056542 0.043197
   vertex -0.00629 -0.054284 0.043332
   vertex -0.002037 -0.058377 0.045069
  endloop
 endfacet
 facet normal -0.158473 0.443783 0.882011
  outer loop
   vertex -0.011118 -0.057765 0.044216
   vertex -0.00629 -0.054284 0.043332
   vertex -0.009031 -0.05285 0.042118
  endloop
 endfacet
 facet normal -0.184651 0.405105 0.895429
  outer loop
   vertex -0.00629 -0.054284 0.043332
   vertex -0.007275 -0.04804 0.040304
   vertex -0.009031 -0.05285 0.042118
  endloop
 endfacet
 facet normal 0.23261 0.453839 0.860188
  outer loop
   vertex -0.007275 -0.04804 0.040304
   vertex -0.00629 -0.054284 0.043332
   vertex -0.003898 -0.052322 0.04165
  endloop
 endfacet
 facet normal 0.185362 0.499496 0.846253
  outer loop
   vertex -0.00629 -0.054284 0.043332
   vertex 0.000411 -0.056542 0.043197
   vertex -0.003898 -0.052322 0.04165
  endloop
 endfacet
 facet normal -0.168142 -0.692676 -0.701376
  outer loop
   vertex -0.00355 -0.072612 0.03708
   vertex 0.004544 -0.072581 0.035109
   vertex -0.000922 -0.074707 0.038519
  endloop
 endfacet
 facet normal -0.663328 -0.493042 -0.562943
  outer loop
   vertex -0.00355 -0.072612 0.03708
   vertex -0.004837 -0.077134 0.042557
   vertex -0.005276 -0.07468 0.040925
  endloop
 endfacet
 facet normal -0.358984 -0.425093 -0.830919
  outer loop
   vertex -0.003037 -0.06637 0.033665
   vertex -0.00355 -0.072612 0.03708
   vertex -0.005887 -0.06945 0.036472
  endloop
 endfacet
 facet normal -0.221879 -0.725675 -0.65128
  outer loop
   vertex -0.004837 -0.077134 0.042557
   vertex -0.00355 -0.072612 0.03708
   vertex -0.000922 -0.074707 0.038519
  endloop
 endfacet
 facet normal -0.219376 -0.36062 -0.906547
  outer loop
   vertex 0.004544 -0.072581 0.035109
   vertex -0.00355 -0.072612 0.03708
   vertex 0.000544 -0.069298 0.034771
  endloop
 endfacet
 facet normal -0.113609 -0.469655 -0.87551
  outer loop
   vertex -0.00355 -0.072612 0.03708
   vertex -0.003037 -0.06637 0.033665
   vertex 0.000544 -0.069298 0.034771
  endloop
 endfacet
 facet normal -0.969444 -0.230059 -0.0851577
  outer loop
   vertex -0.004837 -0.077134 0.042557
   vertex -0.005131 -0.076658 0.044618
   vertex -0.005276 -0.07468 0.040925
  endloop
 endfacet
 facet normal -0.252138 -0.513946 -0.819931
  outer loop
   vertex -0.009375 -0.066504 0.035698
   vertex -0.003037 -0.06637 0.033665
   vertex -0.005887 -0.06945 0.036472
  endloop
 endfacet
 facet normal -0.992222 -0.102002 -0.0713527
  outer loop
   vertex -0.009938 -0.059648 0.033726
   vertex -0.009375 -0.066504 0.035698
   vertex -0.010191 -0.061936 0.040515
  endloop
 endfacet
 facet normal -0.28493 -0.305844 -0.908446
  outer loop
   vertex -0.003037 -0.06637 0.033665
   vertex -0.009375 -0.066504 0.035698
   vertex -0.006787 -0.063019 0.033713
  endloop
 endfacet
 facet normal -0.309956 -0.286231 -0.906642
  outer loop
   vertex -0.009375 -0.066504 0.035698
   vertex -0.009938 -0.059648 0.033726
   vertex -0.006787 -0.063019 0.033713
  endloop
 endfacet
 facet normal -0.985969 -0.143589 -0.085135
  outer loop
   vertex -0.011118 -0.057765 0.044216
   vertex -0.009938 -0.059648 0.033726
   vertex -0.010191 -0.061936 0.040515
  endloop
 endfacet
 facet normal -0.234296 0.464118 0.854225
  outer loop
   vertex -0.011442 -0.05131 0.04062
   vertex -0.011118 -0.057765 0.044216
   vertex -0.009031 -0.05285 0.042118
  endloop
 endfacet
 facet normal -0.991609 -0.086576 -0.0960035
  outer loop
   vertex -0.009938 -0.059648 0.033726
   vertex -0.011118 -0.057765 0.044216
   vertex -0.010703 -0.055316 0.037721
  endloop
 endfacet
 facet normal -0.988798 -0.107385 -0.10367
  outer loop
   vertex -0.011118 -0.057765 0.044216
   vertex -0.011442 -0.05131 0.04062
   vertex -0.010703 -0.055316 0.037721
  endloop
 endfacet
 facet normal 0.687263 -0.725936 0.0262143
  outer loop
   vertex 0.004544 -0.072581 0.035109
   vertex 0.004871 -0.072106 0.03969
   vertex 0.002332 -0.07454 0.038852
  endloop
 endfacet
 facet normal 0.690533 -0.723251 0.00850978
  outer loop
   vertex 0.004871 -0.072106 0.03969
   vertex -0.000242 -0.076969 0.041279
   vertex 0.002332 -0.07454 0.038852
  endloop
 endfacet
 facet normal 0.956956 -0.210754 -0.199543
  outer loop
   vertex 0.005887 -0.065779 0.03788
   vertex 0.004871 -0.072106 0.03969
   vertex 0.00488 -0.069024 0.036478
  endloop
 endfacet
 facet normal 0.995538 -0.0694616 -0.0638608
  outer loop
   vertex 0.004871 -0.072106 0.03969
   vertex 0.004544 -0.072581 0.035109
   vertex 0.00488 -0.069024 0.036478
  endloop
 endfacet
 facet normal 0.96859 -0.0891278 0.232142
  outer loop
   vertex 0.004871 -0.072106 0.03969
   vertex 0.005887 -0.065779 0.03788
   vertex 0.004581 -0.068595 0.042248
  endloop
 endfacet
 facet normal 0.664225 -0.746325 -0.0424842
  outer loop
   vertex -0.000242 -0.076969 0.041279
   vertex 0.000157 -0.076503 0.039331
   vertex 0.002332 -0.07454 0.038852
  endloop
 endfacet
 facet normal 0.961185 -0.0188079 0.275262
  outer loop
   vertex 0.005887 -0.065779 0.03788
   vertex 0.004136 -0.065198 0.044034
   vertex 0.004581 -0.068595 0.042248
  endloop
 endfacet
 facet normal 0.904776 0.408031 0.122032
  outer loop
   vertex 0.001441 -0.058428 0.041379
   vertex 0.004136 -0.065198 0.044034
   vertex 0.003324 -0.062217 0.040087
  endloop
 endfacet
 facet normal 0.849457 0.490135 0.195422
  outer loop
   vertex 0.004136 -0.065198 0.044034
   vertex 0.005887 -0.065779 0.03788
   vertex 0.003324 -0.062217 0.040087
  endloop
 endfacet
 facet normal 0.927119 0.37451 0.0138777
  outer loop
   vertex 0.004136 -0.065198 0.044034
   vertex 0.001441 -0.058428 0.041379
   vertex 0.002268 -0.060574 0.044043
  endloop
 endfacet
 facet normal 0.901026 0.428763 0.065682
  outer loop
   vertex 0.001441 -0.058428 0.041379
   vertex 0.000411 -0.056542 0.043197
   vertex 0.002268 -0.060574 0.044043
  endloop
 endfacet
 facet normal 0.832142 0.509829 0.218206
  outer loop
   vertex -0.00244 -0.050421 0.039768
   vertex 0.000411 -0.056542 0.043197
   vertex -0.000296 -0.054351 0.040774
  endloop
 endfacet
 facet normal 0.91019 0.402366 0.0982587
  outer loop
   vertex 0.000411 -0.056542 0.043197
   vertex 0.001441 -0.058428 0.041379
   vertex -0.000296 -0.054351 0.040774
  endloop
 endfacet
 facet normal 0.271948 0.563617 0.779987
  outer loop
   vertex 0.000411 -0.056542 0.043197
   vertex -0.00244 -0.050421 0.039768
   vertex -0.003898 -0.052322 0.04165
  endloop
 endfacet
 facet normal -0.288799 -0.533057 -0.795265
  outer loop
   vertex 0.004544 -0.072581 0.035109
   vertex 0.000157 -0.076503 0.039331
   vertex -0.000922 -0.074707 0.038519
  endloop
 endfacet
 facet normal -0.396079 -0.565149 -0.723691
  outer loop
   vertex 0.000157 -0.076503 0.039331
   vertex -0.004837 -0.077134 0.042557
   vertex -0.000922 -0.074707 0.038519
  endloop
 endfacet
 facet normal 0.671011 -0.741399 0.00851693
  outer loop
   vertex 0.000157 -0.076503 0.039331
   vertex 0.004544 -0.072581 0.035109
   vertex 0.002332 -0.07454 0.038852
  endloop
 endfacet
 facet normal -0.266995 0.42387 0.865476
  outer loop
   vertex -0.007275 -0.04804 0.040304
   vertex -0.011442 -0.05131 0.04062
   vertex -0.009031 -0.05285 0.042118
  endloop
 endfacet
 facet normal 0.341235 0.516072 0.785639
  outer loop
   vertex -0.00244 -0.050421 0.039768
   vertex -0.007275 -0.04804 0.040304
   vertex -0.003898 -0.052322 0.04165
  endloop
 endfacet
 facet normal -0.242634 0.394823 0.88614
  outer loop
   vertex -0.011442 -0.05131 0.04062
   vertex -0.007275 -0.04804 0.040304
   vertex -0.009573 -0.046429 0.038957
  endloop
 endfacet
 facet normal -0.293108 0.331662 0.896709
  outer loop
   vertex -0.007275 -0.04804 0.040304
   vertex -0.007559 -0.041548 0.03781
   vertex -0.009573 -0.046429 0.038957
  endloop
 endfacet
 facet normal 0.271463 0.355472 0.894398
  outer loop
   vertex -0.007559 -0.041548 0.03781
   vertex -0.007275 -0.04804 0.040304
   vertex -0.005258 -0.045854 0.038823
  endloop
 endfacet
 facet normal 0.273376 0.35377 0.89449
  outer loop
   vertex -0.007275 -0.04804 0.040304
   vertex -0.00244 -0.050421 0.039768
   vertex -0.005258 -0.045854 0.038823
  endloop
 endfacet
 facet normal -0.136113 -0.264143 -0.954831
  outer loop
   vertex 0.004218 -0.065628 0.033232
   vertex 0.004544 -0.072581 0.035109
   vertex 0.000544 -0.069298 0.034771
  endloop
 endfacet
 facet normal 0.977427 -0.0111276 -0.210981
  outer loop
   vertex 0.004544 -0.072581 0.035109
   vertex 0.004218 -0.065628 0.033232
   vertex 0.00488 -0.069024 0.036478
  endloop
 endfacet
 facet normal -0.0173659 -0.371827 -0.92814
  outer loop
   vertex -0.003037 -0.06637 0.033665
   vertex 0.004218 -0.065628 0.033232
   vertex 0.000544 -0.069298 0.034771
  endloop
 endfacet
 facet normal -0.304548 -0.328 -0.894241
  outer loop
   vertex -0.004796 -0.059554 0.031764
   vertex -0.003037 -0.06637 0.033665
   vertex -0.006787 -0.063019 0.033713
  endloop
 endfacet
 facet normal -0.0509494 -0.0826386 -0.995276
  outer loop
   vertex 0.004218 -0.065628 0.033232
   vertex -0.003037 -0.06637 0.033665
   vertex -0.001185 -0.063164 0.033304
  endloop
 endfacet
 facet normal 0.190474 -0.217816 -0.957223
  outer loop
   vertex -0.003037 -0.06637 0.033665
   vertex -0.004796 -0.059554 0.031764
   vertex -0.001185 -0.063164 0.033304
  endloop
 endfacet
 facet normal -0.334126 -0.308887 -0.890476
  outer loop
   vertex -0.009938 -0.059648 0.033726
   vertex -0.004796 -0.059554 0.031764
   vertex -0.006787 -0.063019 0.033713
  endloop
 endfacet
 facet normal -0.99123 -0.0742118 -0.109338
  outer loop
   vertex -0.010315 -0.052541 0.03232
   vertex -0.009938 -0.059648 0.033726
   vertex -0.010703 -0.055316 0.037721
  endloop
 endfacet
 facet normal -0.335782 -0.296066 -0.894201
  outer loop
   vertex -0.004796 -0.059554 0.031764
   vertex -0.009938 -0.059648 0.033726
   vertex -0.008072 -0.056204 0.031885
  endloop
 endfacet
 facet normal -0.483198 -0.194508 -0.853631
  outer loop
   vertex -0.009938 -0.059648 0.033726
   vertex -0.010315 -0.052541 0.03232
   vertex -0.008072 -0.056204 0.031885
  endloop
 endfacet
 facet normal -0.988173 -0.0954352 -0.120023
  outer loop
   vertex -0.011442 -0.05131 0.04062
   vertex -0.010315 -0.052541 0.03232
   vertex -0.010703 -0.055316 0.037721
  endloop
 endfacet
 facet normal -0.358478 0.421129 0.833153
  outer loop
   vertex -0.012015 -0.04482 0.037093
   vertex -0.011442 -0.05131 0.04062
   vertex -0.009573 -0.046429 0.038957
  endloop
 endfacet
 facet normal -0.983535 -0.141368 -0.112581
  outer loop
   vertex -0.010315 -0.052541 0.03232
   vertex -0.011442 -0.05131 0.04062
   vertex -0.011213 -0.048567 0.035175
  endloop
 endfacet
 facet normal -0.981704 -0.150245 -0.116976
  outer loop
   vertex -0.011442 -0.05131 0.04062
   vertex -0.012015 -0.04482 0.037093
   vertex -0.011213 -0.048567 0.035175
  endloop
 endfacet
 facet normal 0.930101 -0.142339 -0.338604
  outer loop
   vertex 0.004218 -0.065628 0.033232
   vertex 0.005887 -0.065779 0.03788
   vertex 0.00488 -0.069024 0.036478
  endloop
 endfacet
 facet normal 0.730727 0.396334 -0.555839
  outer loop
   vertex 0.001833 -0.059463 0.037054
   vertex 0.005887 -0.065779 0.03788
   vertex 0.002703 -0.062994 0.03568
  endloop
 endfacet
 facet normal 0.727864 0.642163 -0.240499
  outer loop
   vertex 0.005887 -0.065779 0.03788
   vertex 0.004218 -0.065628 0.033232
   vertex 0.002703 -0.062994 0.03568
  endloop
 endfacet
 facet normal 0.833257 0.546116 0.0862574
  outer loop
   vertex 0.005887 -0.065779 0.03788
   vertex 0.001833 -0.059463 0.037054
   vertex 0.003324 -0.062217 0.040087
  endloop
 endfacet
 facet normal 0.891411 0.452363 -0.0274598
  outer loop
   vertex 0.001833 -0.059463 0.037054
   vertex 0.001441 -0.058428 0.041379
   vertex 0.003324 -0.062217 0.040087
  endloop
 endfacet
 facet normal 0.95889 0.248803 -0.136479
  outer loop
   vertex -0.000597 -0.052014 0.038753
   vertex 0.001441 -0.058428 0.041379
   vertex 0.000294 -0.055946 0.037845
  endloop
 endfacet
 facet normal 0.914914 0.403419 -0.0136167
  outer loop
   vertex 0.001441 -0.058428 0.041379
   vertex 0.001833 -0.059463 0.037054
   vertex 0.000294 -0.055946 0.037845
  endloop
 endfacet
 facet normal 0.84217 0.41066 0.34944
  outer loop
   vertex 0.001441 -0.058428 0.041379
   vertex -0.000597 -0.052014 0.038753
   vertex -0.000296 -0.054351 0.040774
  endloop
 endfacet
 facet normal 0.709219 0.511187 0.485486
  outer loop
   vertex -0.000597 -0.052014 0.038753
   vertex -0.00244 -0.050421 0.039768
   vertex -0.000296 -0.054351 0.040774
  endloop
 endfacet
 facet normal 0.759168 0.33116 0.560354
  outer loop
   vertex -0.003759 -0.043409 0.037411
   vertex -0.00244 -0.050421 0.039768
   vertex -0.002079 -0.047883 0.037779
  endloop
 endfacet
 facet normal 0.679483 0.390253 0.621294
  outer loop
   vertex -0.00244 -0.050421 0.039768
   vertex -0.000597 -0.052014 0.038753
   vertex -0.002079 -0.047883 0.037779
  endloop
 endfacet
 facet normal 0.26999 0.352034 0.896202
  outer loop
   vertex -0.00244 -0.050421 0.039768
   vertex -0.003759 -0.043409 0.037411
   vertex -0.005258 -0.045854 0.038823
  endloop
 endfacet
 facet normal -0.402062 0.36339 0.840413
  outer loop
   vertex -0.007559 -0.041548 0.03781
   vertex -0.012015 -0.04482 0.037093
   vertex -0.009573 -0.046429 0.038957
  endloop
 endfacet
 facet normal 0.267348 0.353727 0.896327
  outer loop
   vertex -0.003759 -0.043409 0.037411
   vertex -0.007559 -0.041548 0.03781
   vertex -0.005258 -0.045854 0.038823
  endloop
 endfacet
 facet normal -0.396697 0.354717 0.846645
  outer loop
   vertex -0.012015 -0.04482 0.037093
   vertex -0.007559 -0.041548 0.03781
   vertex -0.009664 -0.039866 0.036119
  endloop
 endfacet
 facet normal -0.408545 0.340209 0.846964
  outer loop
   vertex -0.007559 -0.041548 0.03781
   vertex -0.007147 -0.035041 0.035395
   vertex -0.009664 -0.039866 0.036119
  endloop
 endfacet
 facet normal 0.313122 0.312962 0.896666
  outer loop
   vertex -0.007147 -0.035041 0.035395
   vertex -0.007559 -0.041548 0.03781
   vertex -0.005463 -0.039144 0.036239
  endloop
 endfacet
 facet normal 0.267076 0.353102 0.896655
  outer loop
   vertex -0.007559 -0.041548 0.03781
   vertex -0.003759 -0.043409 0.037411
   vertex -0.005463 -0.039144 0.036239
  endloop
 endfacet
 facet normal 0.21791 0.50228 -0.836797
  outer loop
   vertex -0.001127 -0.061105 0.034555
   vertex 0.004218 -0.065628 0.033232
   vertex -0.001185 -0.063164 0.033304
  endloop
 endfacet
 facet normal 0.497543 0.726572 -0.473861
  outer loop
   vertex 0.004218 -0.065628 0.033232
   vertex -0.001127 -0.061105 0.034555
   vertex 0.002703 -0.062994 0.03568
  endloop
 endfacet
 facet normal 0.65642 0.378128 -0.652788
  outer loop
   vertex -0.004796 -0.059554 0.031764
   vertex -0.001127 -0.061105 0.034555
   vertex -0.001185 -0.063164 0.033304
  endloop
 endfacet
 facet normal -0.456769 -0.418322 -0.785092
  outer loop
   vertex -0.007239 -0.053071 0.029731
   vertex -0.004796 -0.059554 0.031764
   vertex -0.008072 -0.056204 0.031885
  endloop
 endfacet
 facet normal 0.588271 -0.0596198 -0.806463
  outer loop
   vertex -0.001127 -0.061105 0.034555
   vertex -0.004796 -0.059554 0.031764
   vertex -0.004037 -0.056921 0.032123
  endloop
 endfacet
 facet normal 0.559664 -0.0485327 -0.827297
  outer loop
   vertex -0.004796 -0.059554 0.031764
   vertex -0.007239 -0.053071 0.029731
   vertex -0.004037 -0.056921 0.032123
  endloop
 endfacet
 facet normal -0.642864 -0.310496 -0.700227
  outer loop
   vertex -0.010315 -0.052541 0.03232
   vertex -0.007239 -0.053071 0.029731
   vertex -0.008072 -0.056204 0.031885
  endloop
 endfacet
 facet normal -0.983439 -0.136903 -0.118766
  outer loop
   vertex -0.011082 -0.045599 0.030669
   vertex -0.010315 -0.052541 0.03232
   vertex -0.011213 -0.048567 0.035175
  endloop
 endfacet
 facet normal -0.646258 -0.276752 -0.711167
  outer loop
   vertex -0.007239 -0.053071 0.029731
   vertex -0.010315 -0.052541 0.03232
   vertex -0.009489 -0.049369 0.030335
  endloop
 endfacet
 facet normal -0.702195 -0.237237 -0.671298
  outer loop
   vertex -0.010315 -0.052541 0.03232
   vertex -0.011082 -0.045599 0.030669
   vertex -0.009489 -0.049369 0.030335
  endloop
 endfacet
 facet normal -0.981356 -0.146163 -0.124805
  outer loop
   vertex -0.012015 -0.04482 0.037093
   vertex -0.011082 -0.045599 0.030669
   vertex -0.011213 -0.048567 0.035175
  endloop
 endfacet
 facet normal -0.420767 0.363127 0.831321
  outer loop
   vertex -0.011934 -0.038055 0.034179
   vertex -0.012015 -0.04482 0.037093
   vertex -0.009664 -0.039866 0.036119
  endloop
 endfacet
 facet normal -0.988071 -0.0752131 -0.134383
  outer loop
   vertex -0.011082 -0.045599 0.030669
   vertex -0.012015 -0.04482 0.037093
   vertex -0.011643 -0.041799 0.032667
  endloop
 endfacet
 facet normal -0.993696 -0.0341047 -0.106797
  outer loop
   vertex -0.012015 -0.04482 0.037093
   vertex -0.011934 -0.038055 0.034179
   vertex -0.011643 -0.041799 0.032667
  endloop
 endfacet
 facet normal 0.439589 0.417723 -0.795153
  outer loop
   vertex -0.001127 -0.061105 0.034555
   vertex 0.001833 -0.059463 0.037054
   vertex 0.002703 -0.062994 0.03568
  endloop
 endfacet
 facet normal 0.683499 0.0349229 -0.729116
  outer loop
   vertex -0.001501 -0.05388 0.034196
   vertex 0.001833 -0.059463 0.037054
   vertex -0.000946 -0.057101 0.034562
  endloop
 endfacet
 facet normal 0.65394 -0.0282395 -0.756019
  outer loop
   vertex 0.001833 -0.059463 0.037054
   vertex -0.001127 -0.061105 0.034555
   vertex -0.000946 -0.057101 0.034562
  endloop
 endfacet
 facet normal 0.882714 0.429263 -0.191179
  outer loop
   vertex 0.001833 -0.059463 0.037054
   vertex -0.001501 -0.05388 0.034196
   vertex 0.000294 -0.055946 0.037845
  endloop
 endfacet
 facet normal 0.91519 0.275345 -0.2943
  outer loop
   vertex -0.001501 -0.05388 0.034196
   vertex -0.000597 -0.052014 0.038753
   vertex 0.000294 -0.055946 0.037845
  endloop
 endfacet
 facet normal 0.973545 0.013231 -0.228114
  outer loop
   vertex -0.001519 -0.045688 0.035185
   vertex -0.000597 -0.052014 0.038753
   vertex -0.001537 -0.04976 0.034872
  endloop
 endfacet
 facet normal 0.976444 0.043218 -0.2114
  outer loop
   vertex -0.000597 -0.052014 0.038753
   vertex -0.001501 -0.05388 0.034196
   vertex -0.001537 -0.04976 0.034872
  endloop
 endfacet
 facet normal 0.770832 0.394475 0.500208
  outer loop
   vertex -0.000597 -0.052014 0.038753
   vertex -0.001519 -0.045688 0.035185
   vertex -0.002079 -0.047883 0.037779
  endloop
 endfacet
 facet normal 0.814432 0.344243 0.467115
  outer loop
   vertex -0.001519 -0.045688 0.035185
   vertex -0.003759 -0.043409 0.037411
   vertex -0.002079 -0.047883 0.037779
  endloop
 endfacet
 facet normal 0.834423 0.187476 0.518258
  outer loop
   vertex -0.003387 -0.036578 0.034341
   vertex -0.003759 -0.043409 0.037411
   vertex -0.002632 -0.041163 0.034784
  endloop
 endfacet
 facet normal 0.797358 0.245001 0.551539
  outer loop
   vertex -0.003759 -0.043409 0.037411
   vertex -0.001519 -0.045688 0.035185
   vertex -0.002632 -0.041163 0.034784
  endloop
 endfacet
 facet normal 0.33334 0.371319 0.866606
  outer loop
   vertex -0.003759 -0.043409 0.037411
   vertex -0.003387 -0.036578 0.034341
   vertex -0.005463 -0.039144 0.036239
  endloop
 endfacet
 facet normal -0.431503 0.349866 0.831504
  outer loop
   vertex -0.007147 -0.035041 0.035395
   vertex -0.011934 -0.038055 0.034179
   vertex -0.009664 -0.039866 0.036119
  endloop
 endfacet
 facet normal 0.378222 0.332916 0.863779
  outer loop
   vertex -0.003387 -0.036578 0.034341
   vertex -0.007147 -0.035041 0.035395
   vertex -0.005463 -0.039144 0.036239
  endloop
 endfacet
 facet normal -0.429209 0.34491 0.834756
  outer loop
   vertex -0.011934 -0.038055 0.034179
   vertex -0.007147 -0.035041 0.035395
   vertex -0.009139 -0.033178 0.033601
  endloop
 endfacet
 facet normal -0.414224 0.361473 0.835318
  outer loop
   vertex -0.007147 -0.035041 0.035395
   vertex -0.006362 -0.028563 0.032981
   vertex -0.009139 -0.033178 0.033601
  endloop
 endfacet
 facet normal 0.347965 0.290051 0.89151
  outer loop
   vertex -0.006362 -0.028563 0.032981
   vertex -0.007147 -0.035041 0.035395
   vertex -0.004845 -0.032433 0.033648
  endloop
 endfacet
 facet normal 0.362461 0.27631 0.890098
  outer loop
   vertex -0.007147 -0.035041 0.035395
   vertex -0.003387 -0.036578 0.034341
   vertex -0.004845 -0.032433 0.033648
  endloop
 endfacet
 facet normal 0.545664 -0.103833 -0.831546
  outer loop
   vertex -0.002988 -0.053955 0.032441
   vertex -0.001127 -0.061105 0.034555
   vertex -0.004037 -0.056921 0.032123
  endloop
 endfacet
 facet normal 0.697257 -0.0302673 -0.716182
  outer loop
   vertex -0.001127 -0.061105 0.034555
   vertex -0.002988 -0.053955 0.032441
   vertex -0.000946 -0.057101 0.034562
  endloop
 endfacet
 facet normal 0.521317 -0.0934327 -0.848233
  outer loop
   vertex -0.007239 -0.053071 0.029731
   vertex -0.002988 -0.053955 0.032441
   vertex -0.004037 -0.056921 0.032123
  endloop
 endfacet
 facet normal -0.695898 -0.317889 -0.643951
  outer loop
   vertex -0.009319 -0.046263 0.028618
   vertex -0.007239 -0.053071 0.029731
   vertex -0.009489 -0.049369 0.030335
  endloop
 endfacet
 facet normal 0.513496 -0.130613 -0.848093
  outer loop
   vertex -0.002988 -0.053955 0.032441
   vertex -0.007239 -0.053071 0.029731
   vertex -0.005891 -0.05007 0.030085
  endloop
 endfacet
 facet normal 0.349038 -0.0463756 -0.93596
  outer loop
   vertex -0.007239 -0.053071 0.029731
   vertex -0.009319 -0.046263 0.028618
   vertex -0.005891 -0.05007 0.030085
  endloop
 endfacet
 facet normal -0.77131 -0.275065 -0.573952
  outer loop
   vertex -0.011082 -0.045599 0.030669
   vertex -0.009319 -0.046263 0.028618
   vertex -0.009489 -0.049369 0.030335
  endloop
 endfacet
 facet normal -0.99063 -0.0943051 -0.0987907
  outer loop
   vertex -0.011543 -0.038721 0.028726
   vertex -0.011082 -0.045599 0.030669
   vertex -0.011643 -0.041799 0.032667
  endloop
 endfacet
 facet normal -0.774059 -0.205401 -0.598868
  outer loop
   vertex -0.009319 -0.046263 0.028618
   vertex -0.011082 -0.045599 0.030669
   vertex -0.010516 -0.042446 0.028856
  endloop
 endfacet
 facet normal -0.744643 -0.227204 -0.627603
  outer loop
   vertex -0.011082 -0.045599 0.030669
   vertex -0.011543 -0.038721 0.028726
   vertex -0.010516 -0.042446 0.028856
  endloop
 endfacet
 facet normal -0.996561 -0.0511209 -0.0652134
  outer loop
   vertex -0.011934 -0.038055 0.034179
   vertex -0.011543 -0.038721 0.028726
   vertex -0.011643 -0.041799 0.032667
  endloop
 endfacet
 facet normal -0.4011 0.331094 0.854105
  outer loop
   vertex -0.011113 -0.031055 0.031851
   vertex -0.011934 -0.038055 0.034179
   vertex -0.009139 -0.033178 0.033601
  endloop
 endfacet
 facet normal -0.996121 0.0431413 -0.0766946
  outer loop
   vertex -0.011543 -0.038721 0.028726
   vertex -0.011934 -0.038055 0.034179
   vertex -0.011503 -0.034921 0.030344
  endloop
 endfacet
 facet normal -0.99378 0.10905 -0.0225703
  outer loop
   vertex -0.011934 -0.038055 0.034179
   vertex -0.011113 -0.031055 0.031851
   vertex -0.011503 -0.034921 0.030344
  endloop
 endfacet
 facet normal 0.760479 0.0575396 -0.646808
  outer loop
   vertex -0.002988 -0.053955 0.032441
   vertex -0.001501 -0.05388 0.034196
   vertex -0.000946 -0.057101 0.034562
  endloop
 endfacet
 facet normal 0.74785 -0.164814 -0.643084
  outer loop
   vertex -0.00253 -0.04746 0.031354
   vertex -0.001501 -0.05388 0.034196
   vertex -0.002759 -0.050571 0.031885
  endloop
 endfacet
 facet normal 0.756943 -0.155507 -0.634708
  outer loop
   vertex -0.001501 -0.05388 0.034196
   vertex -0.002988 -0.053955 0.032441
   vertex -0.002759 -0.050571 0.031885
  endloop
 endfacet
 facet normal 0.969071 0.0481798 -0.242034
  outer loop
   vertex -0.001501 -0.05388 0.034196
   vertex -0.00253 -0.04746 0.031354
   vertex -0.001537 -0.04976 0.034872
  endloop
 endfacet
 facet normal 0.96494 0.0158729 -0.261989
  outer loop
   vertex -0.00253 -0.04746 0.031354
   vertex -0.001519 -0.045688 0.035185
   vertex -0.001537 -0.04976 0.034872
  endloop
 endfacet
 facet normal 0.976272 -0.0443299 -0.21196
  outer loop
   vertex -0.001863 -0.038977 0.032197
   vertex -0.001519 -0.045688 0.035185
   vertex -0.00212 -0.043169 0.03189
  endloop
 endfacet
 facet normal 0.971844 -0.0645518 -0.226611
  outer loop
   vertex -0.001519 -0.045688 0.035185
   vertex -0.00253 -0.04746 0.031354
   vertex -0.00212 -0.043169 0.03189
  endloop
 endfacet
 facet normal 0.849799 0.250139 0.463974
  outer loop
   vertex -0.001519 -0.045688 0.035185
   vertex -0.001863 -0.038977 0.032197
   vertex -0.002632 -0.041163 0.034784
  endloop
 endfacet
 facet normal 0.887303 0.186849 0.421641
  outer loop
   vertex -0.001863 -0.038977 0.032197
   vertex -0.003387 -0.036578 0.034341
   vertex -0.002632 -0.041163 0.034784
  endloop
 endfacet
 facet normal 0.881993 0.0508683 0.468509
  outer loop
   vertex -0.002483 -0.029549 0.031876
   vertex -0.003387 -0.036578 0.034341
   vertex -0.002376 -0.034241 0.032184
  endloop
 endfacet
 facet normal 0.858248 0.0943492 0.504489
  outer loop
   vertex -0.003387 -0.036578 0.034341
   vertex -0.001863 -0.038977 0.032197
   vertex -0.002376 -0.034241 0.032184
  endloop
 endfacet
 facet normal 0.343486 0.271152 0.899163
  outer loop
   vertex -0.003387 -0.036578 0.034341
   vertex -0.002483 -0.029549 0.031876
   vertex -0.004845 -0.032433 0.033648
  endloop
 endfacet
 facet normal -0.385264 0.346717 0.855195
  outer loop
   vertex -0.006362 -0.028563 0.032981
   vertex -0.011113 -0.031055 0.031851
   vertex -0.009139 -0.033178 0.033601
  endloop
 endfacet
 facet normal 0.328785 0.284109 0.900657
  outer loop
   vertex -0.002483 -0.029549 0.031876
   vertex -0.006362 -0.028563 0.032981
   vertex -0.004845 -0.032433 0.033648
  endloop
 endfacet
 facet normal -0.37179 0.312429 0.874163
  outer loop
   vertex -0.011113 -0.031055 0.031851
   vertex -0.006362 -0.028563 0.032981
   vertex -0.008352 -0.026404 0.031363
  endloop
 endfacet
 facet normal -0.383324 0.301056 0.873172
  outer loop
   vertex -0.006362 -0.028563 0.032981
   vertex -0.005799 -0.021941 0.030945
   vertex -0.008352 -0.026404 0.031363
  endloop
 endfacet
 facet normal 0.201524 0.27216 0.940913
  outer loop
   vertex -0.005799 -0.021941 0.030945
   vertex -0.006362 -0.028563 0.032981
   vertex -0.004204 -0.025549 0.031647
  endloop
 endfacet
 facet normal 0.312981 0.187959 0.930975
  outer loop
   vertex -0.006362 -0.028563 0.032981
   vertex -0.002483 -0.029549 0.031876
   vertex -0.004204 -0.025549 0.031647
  endloop
 endfacet
 facet normal 0.286602 -0.331049 -0.899036
  outer loop
   vertex -0.004019 -0.046991 0.029548
   vertex -0.002988 -0.053955 0.032441
   vertex -0.005891 -0.05007 0.030085
  endloop
 endfacet
 facet normal 0.74921 -0.156444 -0.643591
  outer loop
   vertex -0.002988 -0.053955 0.032441
   vertex -0.004019 -0.046991 0.029548
   vertex -0.002759 -0.050571 0.031885
  endloop
 endfacet
 facet normal 0.134133 -0.248845 -0.95921
  outer loop
   vertex -0.009319 -0.046263 0.028618
   vertex -0.004019 -0.046991 0.029548
   vertex -0.005891 -0.05007 0.030085
  endloop
 endfacet
 facet normal -0.744789 -0.193748 -0.638554
  outer loop
   vertex -0.010121 -0.039202 0.027411
   vertex -0.009319 -0.046263 0.028618
   vertex -0.010516 -0.042446 0.028856
  endloop
 endfacet
 facet normal 0.132355 -0.258753 -0.956833
  outer loop
   vertex -0.004019 -0.046991 0.029548
   vertex -0.009319 -0.046263 0.028618
   vertex -0.007061 -0.043211 0.028105
  endloop
 endfacet
 facet normal 0.00329477 -0.16813 -0.985759
  outer loop
   vertex -0.009319 -0.046263 0.028618
   vertex -0.010121 -0.039202 0.027411
   vertex -0.007061 -0.043211 0.028105
  endloop
 endfacet
 facet normal -0.701323 -0.217054 -0.678995
  outer loop
   vertex -0.011543 -0.038721 0.028726
   vertex -0.010121 -0.039202 0.027411
   vertex -0.010516 -0.042446 0.028856
  endloop
 endfacet
 facet normal -0.999849 0.0145601 -0.00947721
  outer loop
   vertex -0.011423 -0.031852 0.026619
   vertex -0.011543 -0.038721 0.028726
   vertex -0.011503 -0.034921 0.030344
  endloop
 endfacet
 facet normal -0.700046 -0.181233 -0.690717
  outer loop
   vertex -0.010121 -0.039202 0.027411
   vertex -0.011543 -0.038721 0.028726
   vertex -0.010746 -0.035492 0.027071
  endloop
 endfacet
 facet normal -0.652716 -0.211725 -0.727416
  outer loop
   vertex -0.011543 -0.038721 0.028726
   vertex -0.011423 -0.031852 0.026619
   vertex -0.010746 -0.035492 0.027071
  endloop
 endfacet
 facet normal -0.995523 0.082323 0.0464451
  outer loop
   vertex -0.011113 -0.031055 0.031851
   vertex -0.011423 -0.031852 0.026619
   vertex -0.011503 -0.034921 0.030344
  endloop
 endfacet
 facet normal -0.391504 0.322823 0.86169
  outer loop
   vertex -0.010135 -0.024058 0.029674
   vertex -0.011113 -0.031055 0.031851
   vertex -0.008352 -0.026404 0.031363
  endloop
 endfacet
 facet normal -0.991723 0.121942 0.0401848
  outer loop
   vertex -0.011423 -0.031852 0.026619
   vertex -0.011113 -0.031055 0.031851
   vertex -0.010885 -0.02799 0.028177
  endloop
 endfacet
 facet normal -0.984423 0.160161 0.0725217
  outer loop
   vertex -0.011113 -0.031055 0.031851
   vertex -0.010135 -0.024058 0.029674
   vertex -0.010885 -0.02799 0.028177
  endloop
 endfacet
 facet normal 0.739324 -0.165814 -0.652614
  outer loop
   vertex -0.004019 -0.046991 0.029548
   vertex -0.00253 -0.04746 0.031354
   vertex -0.002759 -0.050571 0.031885
  endloop
 endfacet
 facet normal 0.670219 -0.252125 -0.698026
  outer loop
   vertex -0.002568 -0.040551 0.028822
   vertex -0.00253 -0.04746 0.031354
   vertex -0.003475 -0.043848 0.029142
  endloop
 endfacet
 facet normal 0.726822 -0.210262 -0.65385
  outer loop
   vertex -0.00253 -0.04746 0.031354
   vertex -0.004019 -0.046991 0.029548
   vertex -0.003475 -0.043848 0.029142
  endloop
 endfacet
 facet normal 0.977219 -0.0682703 -0.200953
  outer loop
   vertex -0.00253 -0.04746 0.031354
   vertex -0.002568 -0.040551 0.028822
   vertex -0.00212 -0.043169 0.03189
  endloop
 endfacet
 facet normal 0.981943 -0.0467763 -0.183302
  outer loop
   vertex -0.002568 -0.040551 0.028822
   vertex -0.001863 -0.038977 0.032197
   vertex -0.00212 -0.043169 0.03189
  endloop
 endfacet
 facet normal 0.978157 -0.06468 -0.19755
  outer loop
   vertex -0.001771 -0.031862 0.030323
   vertex -0.001863 -0.038977 0.032197
   vertex -0.002221 -0.036227 0.029524
  endloop
 endfacet
 facet normal 0.982033 -0.0492317 -0.182176
  outer loop
   vertex -0.001863 -0.038977 0.032197
   vertex -0.002568 -0.040551 0.028822
   vertex -0.002221 -0.036227 0.029524
  endloop
 endfacet
 facet normal 0.90225 0.0988829 0.419722
  outer loop
   vertex -0.001863 -0.038977 0.032197
   vertex -0.001771 -0.031862 0.030323
   vertex -0.002376 -0.034241 0.032184
  endloop
 endfacet
 facet normal 0.931753 0.0449002 0.360305
  outer loop
   vertex -0.001771 -0.031862 0.030323
   vertex -0.002483 -0.029549 0.031876
   vertex -0.002376 -0.034241 0.032184
  endloop
 endfacet
 facet normal 0.89454 0.0279166 0.446115
  outer loop
   vertex -0.002171 -0.022144 0.030787
   vertex -0.002483 -0.029549 0.031876
   vertex -0.001832 -0.027078 0.030416
  endloop
 endfacet
 facet normal 0.911034 0.00360111 0.412316
  outer loop
   vertex -0.002483 -0.029549 0.031876
   vertex -0.001771 -0.031862 0.030323
   vertex -0.001832 -0.027078 0.030416
  endloop
 endfacet
 facet normal 0.185062 0.135348 0.973362
  outer loop
   vertex -0.002483 -0.029549 0.031876
   vertex -0.002171 -0.022144 0.030787
   vertex -0.004204 -0.025549 0.031647
  endloop
 endfacet
 facet normal -0.404276 0.311793 0.859852
  outer loop
   vertex -0.005799 -0.021941 0.030945
   vertex -0.010135 -0.024058 0.029674
   vertex -0.008352 -0.026404 0.031363
  endloop
 endfacet
 facet normal 0.0544414 0.213839 0.975351
  outer loop
   vertex -0.002171 -0.022144 0.030787
   vertex -0.005799 -0.021941 0.030945
   vertex -0.004204 -0.025549 0.031647
  endloop
 endfacet
 facet normal -0.388127 0.265014 0.882681
  outer loop
   vertex -0.010135 -0.024058 0.029674
   vertex -0.005799 -0.021941 0.030945
   vertex -0.007658 -0.019541 0.029407
  endloop
 endfacet
 facet normal -0.434383 0.222811 0.872735
  outer loop
   vertex -0.005799 -0.021941 0.030945
   vertex -0.005441 -0.015164 0.029393
   vertex -0.007658 -0.019541 0.029407
  endloop
 endfacet
 facet normal -0.0566863 0.225716 0.972542
  outer loop
   vertex -0.005441 -0.015164 0.029393
   vertex -0.005799 -0.021941 0.030945
   vertex -0.004028 -0.018506 0.030251
  endloop
 endfacet
 facet normal 0.05245 0.171713 0.98375
  outer loop
   vertex -0.005799 -0.021941 0.030945
   vertex -0.002171 -0.022144 0.030787
   vertex -0.004028 -0.018506 0.030251
  endloop
 endfacet
 facet normal -0.0374852 -0.38258 -0.923162
  outer loop
   vertex -0.004783 -0.040389 0.026843
   vertex -0.004019 -0.046991 0.029548
   vertex -0.007061 -0.043211 0.028105
  endloop
 endfacet
 facet normal 0.681455 -0.208567 -0.701512
  outer loop
   vertex -0.004019 -0.046991 0.029548
   vertex -0.004783 -0.040389 0.026843
   vertex -0.003475 -0.043848 0.029142
  endloop
 endfacet
 facet normal -0.164594 -0.288893 -0.943106
  outer loop
   vertex -0.010121 -0.039202 0.027411
   vertex -0.004783 -0.040389 0.026843
   vertex -0.007061 -0.043211 0.028105
  endloop
 endfacet
 facet normal -0.651548 -0.177358 -0.737583
  outer loop
   vertex -0.009897 -0.032194 0.025528
   vertex -0.010121 -0.039202 0.027411
   vertex -0.010746 -0.035492 0.027071
  endloop
 endfacet
 facet normal -0.164571 -0.288774 -0.943147
  outer loop
   vertex -0.004783 -0.040389 0.026843
   vertex -0.010121 -0.039202 0.027411
   vertex -0.007402 -0.036313 0.026052
  endloop
 endfacet
 facet normal -0.209856 -0.247449 -0.945901
  outer loop
   vertex -0.010121 -0.039202 0.027411
   vertex -0.009897 -0.032194 0.025528
   vertex -0.007402 -0.036313 0.026052
  endloop
 endfacet
 facet normal -0.599281 -0.207471 -0.773187
  outer loop
   vertex -0.011423 -0.031852 0.026619
   vertex -0.009897 -0.032194 0.025528
   vertex -0.010746 -0.035492 0.027071
  endloop
 endfacet
 facet normal -0.99106 0.104707 0.0826767
  outer loop
   vertex -0.01087 -0.024996 0.024565
   vertex -0.011423 -0.031852 0.026619
   vertex -0.010885 -0.02799 0.028177
  endloop
 endfacet
 facet normal -0.598831 -0.190351 -0.777925
  outer loop
   vertex -0.009897 -0.032194 0.025528
   vertex -0.011423 -0.031852 0.026619
   vertex -0.010348 -0.028601 0.024996
  endloop
 endfacet
 facet normal -0.613717 -0.180751 -0.768557
  outer loop
   vertex -0.011423 -0.031852 0.026619
   vertex -0.01087 -0.024996 0.024565
   vertex -0.010348 -0.028601 0.024996
  endloop
 endfacet
 facet normal -0.982915 0.143692 0.115025
  outer loop
   vertex -0.010135 -0.024058 0.029674
   vertex -0.01087 -0.024996 0.024565
   vertex -0.010885 -0.02799 0.028177
  endloop
 endfacet
 facet normal -0.459036 0.301128 0.835827
  outer loop
   vertex -0.009256 -0.017003 0.027615
   vertex -0.010135 -0.024058 0.029674
   vertex -0.007658 -0.019541 0.029407
  endloop
 endfacet
 facet normal -0.98387 0.135624 0.116643
  outer loop
   vertex -0.01087 -0.024996 0.024565
   vertex -0.010135 -0.024058 0.029674
   vertex -0.010139 -0.021039 0.02613
  endloop
 endfacet
 facet normal -0.976821 0.162402 0.139447
  outer loop
   vertex -0.010135 -0.024058 0.029674
   vertex -0.009256 -0.017003 0.027615
   vertex -0.010139 -0.021039 0.02613
  endloop
 endfacet
 facet normal 0.635741 -0.245907 -0.731685
  outer loop
   vertex -0.004783 -0.040389 0.026843
   vertex -0.002568 -0.040551 0.028822
   vertex -0.003475 -0.043848 0.029142
  endloop
 endfacet
 facet normal 0.68594 -0.195263 -0.70097
  outer loop
   vertex -0.00268 -0.033517 0.026753
   vertex -0.002568 -0.040551 0.028822
   vertex -0.003709 -0.036981 0.026711
  endloop
 endfacet
 facet normal 0.639029 -0.229816 -0.734048
  outer loop
   vertex -0.002568 -0.040551 0.028822
   vertex -0.004783 -0.040389 0.026843
   vertex -0.003709 -0.036981 0.026711
  endloop
 endfacet
 facet normal 0.977528 -0.0450117 -0.205943
  outer loop
   vertex -0.002568 -0.040551 0.028822
   vertex -0.00268 -0.033517 0.026753
   vertex -0.002221 -0.036227 0.029524
  endloop
 endfacet
 facet normal 0.973636 -0.0600954 -0.22005
  outer loop
   vertex -0.00268 -0.033517 0.026753
   vertex -0.001771 -0.031862 0.030323
   vertex -0.002221 -0.036227 0.029524
  endloop
 endfacet
 facet normal 0.960567 -0.168366 -0.221278
  outer loop
   vertex -0.000905 -0.024758 0.028677
   vertex -0.001771 -0.031862 0.030323
   vertex -0.001922 -0.029196 0.027639
  endloop
 endfacet
 facet normal 0.973487 -0.132546 -0.186425
  outer loop
   vertex -0.001771 -0.031862 0.030323
   vertex -0.00268 -0.033517 0.026753
   vertex -0.001922 -0.029196 0.027639
  endloop
 endfacet
 facet normal 0.881311 0.00205151 0.472533
  outer loop
   vertex -0.001771 -0.031862 0.030323
   vertex -0.000905 -0.024758 0.028677
   vertex -0.001832 -0.027078 0.030416
  endloop
 endfacet
 facet normal 0.869388 0.0226169 0.493613
  outer loop
   vertex -0.000905 -0.024758 0.028677
   vertex -0.002171 -0.022144 0.030787
   vertex -0.001832 -0.027078 0.030416
  endloop
 endfacet
 facet normal 0.849754 0.124217 0.512336
  outer loop
   vertex -0.0027 -0.014776 0.029878
   vertex -0.002171 -0.022144 0.030787
   vertex -0.001387 -0.019881 0.028938
  endloop
 endfacet
 facet normal 0.888508 0.063492 0.454447
  outer loop
   vertex -0.002171 -0.022144 0.030787
   vertex -0.000905 -0.024758 0.028677
   vertex -0.001387 -0.019881 0.028938
  endloop
 endfacet
 facet normal -0.0541626 0.118432 0.991484
  outer loop
   vertex -0.002171 -0.022144 0.030787
   vertex -0.0027 -0.014776 0.029878
   vertex -0.004028 -0.018506 0.030251
  endloop
 endfacet
 facet normal -0.508022 0.259946 0.821183
  outer loop
   vertex -0.005441 -0.015164 0.029393
   vertex -0.009256 -0.017003 0.027615
   vertex -0.007658 -0.019541 0.029407
  endloop
 endfacet
 facet normal -0.19455 0.165941 0.966754
  outer loop
   vertex -0.0027 -0.014776 0.029878
   vertex -0.005441 -0.015164 0.029393
   vertex -0.004028 -0.018506 0.030251
  endloop
 endfacet
 facet normal -0.498565 0.224862 0.83718
  outer loop
   vertex -0.009256 -0.017003 0.027615
   vertex -0.005441 -0.015164 0.029393
   vertex -0.007182 -0.012613 0.027671
  endloop
 endfacet
 facet normal -0.552737 0.173047 0.815191
  outer loop
   vertex -0.005441 -0.015164 0.029393
   vertex -0.004963 -0.008314 0.028263
   vertex -0.007182 -0.012613 0.027671
  endloop
 endfacet
 facet normal -0.16346 0.171668 0.971499
  outer loop
   vertex -0.004963 -0.008314 0.028263
   vertex -0.005441 -0.015164 0.029393
   vertex -0.003831 -0.011356 0.028991
  endloop
 endfacet
 facet normal -0.196536 0.184748 0.962934
  outer loop
   vertex -0.005441 -0.015164 0.029393
   vertex -0.0027 -0.014776 0.029878
   vertex -0.003831 -0.011356 0.028991
  endloop
 endfacet
 facet normal -0.223258 -0.321998 -0.92004
  outer loop
   vertex -0.004806 -0.033467 0.024426
   vertex -0.004783 -0.040389 0.026843
   vertex -0.007402 -0.036313 0.026052
  endloop
 endfacet
 facet normal 0.677555 -0.240446 -0.695058
  outer loop
   vertex -0.004783 -0.040389 0.026843
   vertex -0.004806 -0.033467 0.024426
   vertex -0.003709 -0.036981 0.026711
  endloop
 endfacet
 facet normal -0.269543 -0.280466 -0.921241
  outer loop
   vertex -0.009897 -0.032194 0.025528
   vertex -0.004806 -0.033467 0.024426
   vertex -0.007402 -0.036313 0.026052
  endloop
 endfacet
 facet normal -0.614733 -0.19049 -0.765387
  outer loop
   vertex -0.009203 -0.025361 0.02327
   vertex -0.009897 -0.032194 0.025528
   vertex -0.010348 -0.028601 0.024996
  endloop
 endfacet
 facet normal -0.267831 -0.270651 -0.92467
  outer loop
   vertex -0.004806 -0.033467 0.024426
   vertex -0.009897 -0.032194 0.025528
   vertex -0.006978 -0.02936 0.023853
  endloop
 endfacet
 facet normal -0.259486 -0.279158 -0.92452
  outer loop
   vertex -0.009897 -0.032194 0.025528
   vertex -0.009203 -0.025361 0.02327
   vertex -0.006978 -0.02936 0.023853
  endloop
 endfacet
 facet normal -0.627767 -0.1814 -0.75697
  outer loop
   vertex -0.01087 -0.024996 0.024565
   vertex -0.009203 -0.025361 0.02327
   vertex -0.010348 -0.028601 0.024996
  endloop
 endfacet
 facet normal -0.98132 0.122673 0.148196
  outer loop
   vertex -0.010295 -0.018101 0.022665
   vertex -0.01087 -0.024996 0.024565
   vertex -0.010139 -0.021039 0.02613
  endloop
 endfacet
 facet normal -0.627611 -0.174409 -0.75874
  outer loop
   vertex -0.009203 -0.025361 0.02327
   vertex -0.01087 -0.024996 0.024565
   vertex -0.009707 -0.021755 0.022858
  endloop
 endfacet
 facet normal -0.666526 -0.145871 -0.731071
  outer loop
   vertex -0.01087 -0.024996 0.024565
   vertex -0.010295 -0.018101 0.022665
   vertex -0.009707 -0.021755 0.022858
  endloop
 endfacet
 facet normal -0.973755 0.150085 0.171099
  outer loop
   vertex -0.009256 -0.017003 0.027615
   vertex -0.010295 -0.018101 0.022665
   vertex -0.010139 -0.021039 0.02613
  endloop
 endfacet
 facet normal -0.570514 0.259593 0.779182
  outer loop
   vertex -0.009066 -0.00997 0.025411
   vertex -0.009256 -0.017003 0.027615
   vertex -0.007182 -0.012613 0.027671
  endloop
 endfacet
 facet normal -0.978891 0.0816774 0.187351
  outer loop
   vertex -0.010295 -0.018101 0.022665
   vertex -0.009256 -0.017003 0.027615
   vertex -0.009673 -0.014055 0.024151
  endloop
 endfacet
 facet normal -0.977754 0.0863224 0.191167
  outer loop
   vertex -0.009256 -0.017003 0.027615
   vertex -0.009066 -0.00997 0.025411
   vertex -0.009673 -0.014055 0.024151
  endloop
 endfacet
 facet normal 0.720243 -0.20592 -0.662455
  outer loop
   vertex -0.004806 -0.033467 0.024426
   vertex -0.00268 -0.033517 0.026753
   vertex -0.003709 -0.036981 0.026711
  endloop
 endfacet
 facet normal 0.769158 -0.210228 -0.60349
  outer loop
   vertex -0.002332 -0.026646 0.024803
   vertex -0.00268 -0.033517 0.026753
   vertex -0.003456 -0.030012 0.024543
  endloop
 endfacet
 facet normal 0.711001 -0.255632 -0.65508
  outer loop
   vertex -0.00268 -0.033517 0.026753
   vertex -0.004806 -0.033467 0.024426
   vertex -0.003456 -0.030012 0.024543
  endloop
 endfacet
 facet normal 0.962117 -0.118423 -0.245574
  outer loop
   vertex -0.00268 -0.033517 0.026753
   vertex -0.002332 -0.026646 0.024803
   vertex -0.001922 -0.029196 0.027639
  endloop
 endfacet
 facet normal 0.94917 -0.153197 -0.274969
  outer loop
   vertex -0.002332 -0.026646 0.024803
   vertex -0.000905 -0.024758 0.028677
   vertex -0.001922 -0.029196 0.027639
  endloop
 endfacet
 facet normal 0.963659 -0.211514 -0.163167
  outer loop
   vertex 0.000228 -0.017848 0.026411
   vertex -0.000905 -0.024758 0.028677
   vertex -0.0009 -0.022333 0.025563
  endloop
 endfacet
 facet normal 0.938053 -0.274104 -0.21195
  outer loop
   vertex -0.000905 -0.024758 0.028677
   vertex -0.002332 -0.026646 0.024803
   vertex -0.0009 -0.022333 0.025563
  endloop
 endfacet
 facet normal 0.822415 0.0509579 0.5666
  outer loop
   vertex -0.000905 -0.024758 0.028677
   vertex 0.000228 -0.017848 0.026411
   vertex -0.001387 -0.019881 0.028938
  endloop
 endfacet
 facet normal 0.801224 0.0973632 0.59039
  outer loop
   vertex 0.000228 -0.017848 0.026411
   vertex -0.0027 -0.014776 0.029878
   vertex -0.001387 -0.019881 0.028938
  endloop
 endfacet
 facet normal 0.776813 0.0701066 0.625816
  outer loop
   vertex -0.002219 -0.007171 0.028429
   vertex -0.0027 -0.014776 0.029878
   vertex -0.000765 -0.012695 0.027243
  endloop
 endfacet
 facet normal 0.785057 0.0516193 0.617269
  outer loop
   vertex -0.0027 -0.014776 0.029878
   vertex 0.000228 -0.017848 0.026411
   vertex -0.000765 -0.012695 0.027243
  endloop
 endfacet
 facet normal -0.1688 0.194772 0.966215
  outer loop
   vertex -0.0027 -0.014776 0.029878
   vertex -0.002219 -0.007171 0.028429
   vertex -0.003831 -0.011356 0.028991
  endloop
 endfacet
 facet normal -0.614071 0.212283 0.760166
  outer loop
   vertex -0.004963 -0.008314 0.028263
   vertex -0.009066 -0.00997 0.025411
   vertex -0.007182 -0.012613 0.027671
  endloop
 endfacet
 facet normal -0.135055 0.182796 0.97383
  outer loop
   vertex -0.002219 -0.007171 0.028429
   vertex -0.004963 -0.008314 0.028263
   vertex -0.003831 -0.011356 0.028991
  endloop
 endfacet
 facet normal -0.61631 0.229748 0.753245
  outer loop
   vertex -0.009066 -0.00997 0.025411
   vertex -0.004963 -0.008314 0.028263
   vertex -0.00708 -0.005708 0.025736
  endloop
 endfacet
 facet normal -0.67859 0.146652 0.719728
  outer loop
   vertex -0.004963 -0.008314 0.028263
   vertex -0.004998 -0.001507 0.026843
   vertex -0.00708 -0.005708 0.025736
  endloop
 endfacet
 facet normal -0.194038 0.199375 0.96052
  outer loop
   vertex -0.004998 -0.001507 0.026843
   vertex -0.004963 -0.008314 0.028263
   vertex -0.002643 -0.0045 0.02794
  endloop
 endfacet
 facet normal -0.125606 0.159331 0.979202
  outer loop
   vertex -0.004963 -0.008314 0.028263
   vertex -0.002219 -0.007171 0.028429
   vertex -0.002643 -0.0045 0.02794
  endloop
 endfacet
 facet normal -0.257513 -0.265798 -0.928999
  outer loop
   vertex -0.004007 -0.026419 0.022188
   vertex -0.004806 -0.033467 0.024426
   vertex -0.006978 -0.02936 0.023853
  endloop
 endfacet
 facet normal 0.754733 -0.274729 -0.595736
  outer loop
   vertex -0.004806 -0.033467 0.024426
   vertex -0.004007 -0.026419 0.022188
   vertex -0.003456 -0.030012 0.024543
  endloop
 endfacet
 facet normal -0.249229 -0.274082 -0.928851
  outer loop
   vertex -0.009203 -0.025361 0.02327
   vertex -0.004007 -0.026419 0.022188
   vertex -0.006978 -0.02936 0.023853
  endloop
 endfacet
 facet normal -0.666831 -0.175937 -0.724142
  outer loop
   vertex -0.008459 -0.018562 0.020933
   vertex -0.009203 -0.025361 0.02327
   vertex -0.009707 -0.021755 0.022858
  endloop
 endfacet
 facet normal -0.24966 -0.277294 -0.927781
  outer loop
   vertex -0.004007 -0.026419 0.022188
   vertex -0.009203 -0.025361 0.02327
   vertex -0.006066 -0.022464 0.02156
  endloop
 endfacet
 facet normal -0.234751 -0.292904 -0.926876
  outer loop
   vertex -0.009203 -0.025361 0.02327
   vertex -0.008459 -0.018562 0.020933
   vertex -0.006066 -0.022464 0.02156
  endloop
 endfacet
 facet normal -0.698092 -0.149324 -0.700265
  outer loop
   vertex -0.010295 -0.018101 0.022665
   vertex -0.008459 -0.018562 0.020933
   vertex -0.009707 -0.021755 0.022858
  endloop
 endfacet
 facet normal -0.977979 0.0794697 0.19298
  outer loop
   vertex -0.010075 -0.011144 0.020915
   vertex -0.010295 -0.018101 0.022665
   vertex -0.009673 -0.014055 0.024151
  endloop
 endfacet
 facet normal -0.69854 -0.184615 -0.691346
  outer loop
   vertex -0.008459 -0.018562 0.020933
   vertex -0.010295 -0.018101 0.022665
   vertex -0.009191 -0.014916 0.020699
  endloop
 endfacet
 facet normal -0.750355 -0.138843 -0.64629
  outer loop
   vertex -0.010295 -0.018101 0.022665
   vertex -0.010075 -0.011144 0.020915
   vertex -0.009191 -0.014916 0.020699
  endloop
 endfacet
 facet normal -0.976734 0.0843148 0.197184
  outer loop
   vertex -0.009066 -0.00997 0.025411
   vertex -0.010075 -0.011144 0.020915
   vertex -0.009673 -0.014055 0.024151
  endloop
 endfacet
 facet normal -0.686661 0.268451 0.675597
  outer loop
   vertex -0.009294 -0.003041 0.022426
   vertex -0.009066 -0.00997 0.025411
   vertex -0.00708 -0.005708 0.025736
  endloop
 endfacet
 facet normal -0.977218 0.049448 0.206397
  outer loop
   vertex -0.010075 -0.011144 0.020915
   vertex -0.009066 -0.00997 0.025411
   vertex -0.009683 -0.007137 0.021811
  endloop
 endfacet
 facet normal -0.97484 0.0603628 0.214579
  outer loop
   vertex -0.009066 -0.00997 0.025411
   vertex -0.009294 -0.003041 0.022426
   vertex -0.009683 -0.007137 0.021811
  endloop
 endfacet
 facet normal 0.810535 -0.229022 -0.539057
  outer loop
   vertex -0.004007 -0.026419 0.022188
   vertex -0.002332 -0.026646 0.024803
   vertex -0.003456 -0.030012 0.024543
  endloop
 endfacet
 facet normal 0.713496 -0.402361 -0.573611
  outer loop
   vertex -0.000592 -0.020082 0.022363
   vertex -0.002332 -0.026646 0.024803
   vertex -0.002381 -0.023166 0.022301
  endloop
 endfacet
 facet normal 0.76885 -0.366096 -0.524255
  outer loop
   vertex -0.002332 -0.026646 0.024803
   vertex -0.004007 -0.026419 0.022188
   vertex -0.002381 -0.023166 0.022301
  endloop
 endfacet
 facet normal 0.94859 -0.294531 -0.115882
  outer loop
   vertex -0.002332 -0.026646 0.024803
   vertex -0.000592 -0.020082 0.022363
   vertex -0.0009 -0.022333 0.025563
  endloop
 endfacet
 facet normal 0.970493 -0.231019 -0.0690976
  outer loop
   vertex -0.000592 -0.020082 0.022363
   vertex 0.000228 -0.017848 0.026411
   vertex -0.0009 -0.022333 0.025563
  endloop
 endfacet
 facet normal 0.974749 -0.216387 -0.0551486
  outer loop
   vertex 0.00163 -0.010983 0.024255
   vertex 0.000228 -0.017848 0.026411
   vertex 0.000537 -0.015627 0.023158
  endloop
 endfacet
 facet normal 0.969949 -0.233767 -0.0674708
  outer loop
   vertex 0.000228 -0.017848 0.026411
   vertex -0.000592 -0.020082 0.022363
   vertex 0.000537 -0.015627 0.023158
  endloop
 endfacet
 facet normal 0.766936 0.0444274 0.640184
  outer loop
   vertex 0.000228 -0.017848 0.026411
   vertex 0.00163 -0.010983 0.024255
   vertex -0.000765 -0.012695 0.027243
  endloop
 endfacet
 facet normal 0.761223 0.0617681 0.645541
  outer loop
   vertex 0.00163 -0.010983 0.024255
   vertex -0.002219 -0.007171 0.028429
   vertex -0.000765 -0.012695 0.027243
  endloop
 endfacet
 facet normal 0.572984 -0.330959 0.74977
  outer loop
   vertex 0.001607 -0.001007 0.028226
   vertex -0.002219 -0.007171 0.028429
   vertex 0.001385 -0.005852 0.026257
  endloop
 endfacet
 facet normal 0.568148 -0.275439 0.775462
  outer loop
   vertex -0.002219 -0.007171 0.028429
   vertex 0.00163 -0.010983 0.024255
   vertex 0.001385 -0.005852 0.026257
  endloop
 endfacet
 facet normal -0.187067 0.148095 0.97112
  outer loop
   vertex -0.002219 -0.007171 0.028429
   vertex 0.001607 -0.001007 0.028226
   vertex -0.002643 -0.0045 0.02794
  endloop
 endfacet
 facet normal -0.736057 0.193887 0.648558
  outer loop
   vertex -0.004998 -0.001507 0.026843
   vertex -0.009294 -0.003041 0.022426
   vertex -0.00708 -0.005708 0.025736
  endloop
 endfacet
 facet normal -0.214723 0.182701 0.959434
  outer loop
   vertex 0.001607 -0.001007 0.028226
   vertex -0.004998 -0.001507 0.026843
   vertex -0.002643 -0.0045 0.02794
  endloop
 endfacet
 facet normal -0.734695 0.157582 0.659842
  outer loop
   vertex -0.009294 -0.003041 0.022426
   vertex -0.004998 -0.001507 0.026843
   vertex -0.006148 0.001552 0.024832
  endloop
 endfacet
 facet normal -0.750994 0.141655 0.644935
  outer loop
   vertex -0.004998 -0.001507 0.026843
   vertex -0.003916 0.004935 0.026688
   vertex -0.006148 0.001552 0.024832
  endloop
 endfacet
 facet normal -0.0885899 0.0388276 0.995311
  outer loop
   vertex -0.003916 0.004935 0.026688
   vertex -0.004998 -0.001507 0.026843
   vertex -0.000771 0.00137 0.027107
  endloop
 endfacet
 facet normal -0.216108 0.230451 0.948783
  outer loop
   vertex -0.004998 -0.001507 0.026843
   vertex 0.001607 -0.001007 0.028226
   vertex -0.000771 0.00137 0.027107
  endloop
 endfacet
 facet normal -0.231738 -0.269081 -0.934822
  outer loop
   vertex -0.002595 -0.019516 0.019851
   vertex -0.004007 -0.026419 0.022188
   vertex -0.006066 -0.022464 0.02156
  endloop
 endfacet
 facet normal 0.735427 -0.347391 -0.581779
  outer loop
   vertex -0.004007 -0.026419 0.022188
   vertex -0.002595 -0.019516 0.019851
   vertex -0.002381 -0.023166 0.022301
  endloop
 endfacet
 facet normal -0.218468 -0.283999 -0.933604
  outer loop
   vertex -0.008459 -0.018562 0.020933
   vertex -0.002595 -0.019516 0.019851
   vertex -0.006066 -0.022464 0.02156
  endloop
 endfacet
 facet normal -0.750874 -0.191321 -0.632126
  outer loop
   vertex -0.007936 -0.011859 0.018283
   vertex -0.008459 -0.018562 0.020933
   vertex -0.009191 -0.014916 0.020699
  endloop
 endfacet
 facet normal -0.227391 -0.381568 -0.895935
  outer loop
   vertex -0.002595 -0.019516 0.019851
   vertex -0.008459 -0.018562 0.020933
   vertex -0.005217 -0.015751 0.018913
  endloop
 endfacet
 facet normal -0.271208 -0.335502 -0.902155
  outer loop
   vertex -0.008459 -0.018562 0.020933
   vertex -0.007936 -0.011859 0.018283
   vertex -0.005217 -0.015751 0.018913
  endloop
 endfacet
 facet normal -0.786814 -0.150115 -0.598656
  outer loop
   vertex -0.010075 -0.011144 0.020915
   vertex -0.007936 -0.011859 0.018283
   vertex -0.009191 -0.014916 0.020699
  endloop
 endfacet
 facet normal -0.974784 0.046562 0.218239
  outer loop
   vertex -0.010295 -0.004393 0.018492
   vertex -0.010075 -0.011144 0.020915
   vertex -0.009683 -0.007137 0.021811
  endloop
 endfacet
 facet normal -0.781818 -0.269937 -0.562045
  outer loop
   vertex -0.007936 -0.011859 0.018283
   vertex -0.010075 -0.011144 0.020915
   vertex -0.009085 -0.008223 0.018135
  endloop
 endfacet
 facet normal -0.827875 -0.213188 -0.51882
  outer loop
   vertex -0.010075 -0.011144 0.020915
   vertex -0.010295 -0.004393 0.018492
   vertex -0.009085 -0.008223 0.018135
  endloop
 endfacet
 facet normal -0.972074 0.0581831 0.227347
  outer loop
   vertex -0.009294 -0.003041 0.022426
   vertex -0.010295 -0.004393 0.018492
   vertex -0.009683 -0.007137 0.021811
  endloop
 endfacet
 facet normal -0.748258 0.177704 0.639164
  outer loop
   vertex -0.006383 0.005821 0.02337
   vertex -0.009294 -0.003041 0.022426
   vertex -0.006148 0.001552 0.024832
  endloop
 endfacet
 facet normal -0.95455 0.254275 0.155497
  outer loop
   vertex -0.010295 -0.004393 0.018492
   vertex -0.009294 -0.003041 0.022426
   vertex -0.008813 0.000129 0.020195
  endloop
 endfacet
 facet normal -0.936277 0.285795 0.204223
  outer loop
   vertex -0.009294 -0.003041 0.022426
   vertex -0.006383 0.005821 0.02337
   vertex -0.008813 0.000129 0.020195
  endloop
 endfacet
 facet normal 0.67902 -0.381281 -0.627341
  outer loop
   vertex -0.002595 -0.019516 0.019851
   vertex -0.000592 -0.020082 0.022363
   vertex -0.002381 -0.023166 0.022301
  endloop
 endfacet
 facet normal 0.645607 -0.41838 -0.638866
  outer loop
   vertex 0.000881 -0.013596 0.019604
   vertex -0.000592 -0.020082 0.022363
   vertex -0.001046 -0.016565 0.019601
  endloop
 endfacet
 facet normal 0.668728 -0.403903 -0.624232
  outer loop
   vertex -0.000592 -0.020082 0.022363
   vertex -0.002595 -0.019516 0.019851
   vertex -0.001046 -0.016565 0.019601
  endloop
 endfacet
 facet normal 0.970261 -0.23834 -0.0422899
  outer loop
   vertex -0.000592 -0.020082 0.022363
   vertex 0.000881 -0.013596 0.019604
   vertex 0.000537 -0.015627 0.023158
  endloop
 endfacet
 facet normal 0.974572 -0.221724 -0.0323775
  outer loop
   vertex 0.000881 -0.013596 0.019604
   vertex 0.00163 -0.010983 0.024255
   vertex 0.000537 -0.015627 0.023158
  endloop
 endfacet
 facet normal 0.918864 -0.394575 0.000151416
  outer loop
   vertex 0.004523 -0.004246 0.024117
   vertex 0.00163 -0.010983 0.024255
   vertex 0.002455 -0.009063 0.021094
  endloop
 endfacet
 facet normal 0.939877 -0.339252 0.0392387
  outer loop
   vertex 0.00163 -0.010983 0.024255
   vertex 0.000881 -0.013596 0.019604
   vertex 0.002455 -0.009063 0.021094
  endloop
 endfacet
 facet normal 0.63061 -0.255787 0.732738
  outer loop
   vertex 0.00163 -0.010983 0.024255
   vertex 0.004523 -0.004246 0.024117
   vertex 0.001385 -0.005852 0.026257
  endloop
 endfacet
 facet normal 0.639411 -0.314438 0.701628
  outer loop
   vertex 0.004523 -0.004246 0.024117
   vertex 0.001607 -0.001007 0.028226
   vertex 0.001385 -0.005852 0.026257
  endloop
 endfacet
 facet normal 0.78518 -0.297204 0.543288
  outer loop
   vertex 0.004222 0.003059 0.026671
   vertex 0.001607 -0.001007 0.028226
   vertex 0.003886 0.000113 0.025545
  endloop
 endfacet
 facet normal 0.777126 -0.0904657 0.622808
  outer loop
   vertex 0.001607 -0.001007 0.028226
   vertex 0.004523 -0.004246 0.024117
   vertex 0.003886 0.000113 0.025545
  endloop
 endfacet
 facet normal -0.0495375 0.384405 0.921834
  outer loop
   vertex 0.001607 -0.001007 0.028226
   vertex 0.004222 0.003059 0.026671
   vertex -0.000771 0.00137 0.027107
  endloop
 endfacet
 facet normal -0.768833 0.168892 0.616742
  outer loop
   vertex -0.003916 0.004935 0.026688
   vertex -0.006383 0.005821 0.02337
   vertex -0.006148 0.001552 0.024832
  endloop
 endfacet
 facet normal 0.0362044 0.148097 0.98831
  outer loop
   vertex 0.004222 0.003059 0.026671
   vertex -0.003916 0.004935 0.026688
   vertex -0.000771 0.00137 0.027107
  endloop
 endfacet
 facet normal 0.43654 0.895621 -0.0854202
  outer loop
   vertex -0.003102 0.003873 0.019713
   vertex -0.006383 0.005821 0.02337
   vertex -0.003916 0.004935 0.026688
  endloop
 endfacet
 facet normal 0.222733 0.967305 -0.121287
  outer loop
   vertex -0.003102 0.003873 0.019713
   vertex -0.003916 0.004935 0.026688
   vertex 0.004222 0.003059 0.026671
  endloop
 endfacet
 facet normal -0.276878 -0.409403 -0.869326
  outer loop
   vertex -0.001878 -0.013068 0.016586
   vertex -0.002595 -0.019516 0.019851
   vertex -0.005217 -0.015751 0.018913
  endloop
 endfacet
 facet normal 0.654781 -0.398126 -0.642462
  outer loop
   vertex -0.002595 -0.019516 0.019851
   vertex -0.001878 -0.013068 0.016586
   vertex -0.001046 -0.016565 0.019601
  endloop
 endfacet
 facet normal -0.317871 -0.363796 -0.875563
  outer loop
   vertex -0.007936 -0.011859 0.018283
   vertex -0.001878 -0.013068 0.016586
   vertex -0.005217 -0.015751 0.018913
  endloop
 endfacet
 facet normal -0.822107 -0.27997 -0.495739
  outer loop
   vertex -0.008034 -0.005496 0.014852
   vertex -0.007936 -0.011859 0.018283
   vertex -0.009085 -0.008223 0.018135
  endloop
 endfacet
 facet normal -0.322443 -0.437282 -0.839533
  outer loop
   vertex -0.001878 -0.013068 0.016586
   vertex -0.007936 -0.011859 0.018283
   vertex -0.005052 -0.009207 0.015794
  endloop
 endfacet
 facet normal -0.303006 -0.45591 -0.836859
  outer loop
   vertex -0.007936 -0.011859 0.018283
   vertex -0.008034 -0.005496 0.014852
   vertex -0.005052 -0.009207 0.015794
  endloop
 endfacet
 facet normal -0.856595 -0.22745 -0.463155
  outer loop
   vertex -0.010295 -0.004393 0.018492
   vertex -0.008034 -0.005496 0.014852
   vertex -0.009085 -0.008223 0.018135
  endloop
 endfacet
 facet normal -0.945886 0.220249 0.238306
  outer loop
   vertex -0.00928 0.00213 0.016492
   vertex -0.010295 -0.004393 0.018492
   vertex -0.008813 0.000129 0.020195
  endloop
 endfacet
 facet normal -0.856 -0.0602384 -0.513454
  outer loop
   vertex -0.008034 -0.005496 0.014852
   vertex -0.010295 -0.004393 0.018492
   vertex -0.008998 -0.001557 0.015997
  endloop
 endfacet
 facet normal -0.884861 -0.00513872 -0.465827
  outer loop
   vertex -0.010295 -0.004393 0.018492
   vertex -0.00928 0.00213 0.016492
   vertex -0.008998 -0.001557 0.015997
  endloop
 endfacet
 facet normal -0.932409 0.255466 0.255636
  outer loop
   vertex -0.006383 0.005821 0.02337
   vertex -0.00928 0.00213 0.016492
   vertex -0.008813 0.000129 0.020195
  endloop
 endfacet
 facet normal -0.00264909 0.881602 -0.471986
  outer loop
   vertex -0.003102 0.003873 0.019713
   vertex -0.00928 0.00213 0.016492
   vertex -0.006383 0.005821 0.02337
  endloop
 endfacet
 facet normal 0.635543 -0.411833 -0.653053
  outer loop
   vertex -0.001878 -0.013068 0.016586
   vertex 0.000881 -0.013596 0.019604
   vertex -0.001046 -0.016565 0.019601
  endloop
 endfacet
 facet normal 0.448429 -0.51725 -0.728947
  outer loop
   vertex 0.002788 -0.007426 0.016399
   vertex 0.000881 -0.013596 0.019604
   vertex -0.000142 -0.010124 0.016511
  endloop
 endfacet
 facet normal 0.642377 -0.395516 -0.656445
  outer loop
   vertex 0.000881 -0.013596 0.019604
   vertex -0.001878 -0.013068 0.016586
   vertex -0.000142 -0.010124 0.016511
  endloop
 endfacet
 facet normal 0.948073 -0.315181 -0.0426504
  outer loop
   vertex 0.000881 -0.013596 0.019604
   vertex 0.002788 -0.007426 0.016399
   vertex 0.002455 -0.009063 0.021094
  endloop
 endfacet
 facet normal 0.93036 -0.361685 -0.0601212
  outer loop
   vertex 0.002788 -0.007426 0.016399
   vertex 0.004523 -0.004246 0.024117
   vertex 0.002455 -0.009063 0.021094
  endloop
 endfacet
 facet normal 0.977344 -0.118745 -0.175207
  outer loop
   vertex 0.00519 0.002647 0.023166
   vertex 0.004523 -0.004246 0.024117
   vertex 0.003933 -0.002393 0.01957
  endloop
 endfacet
 facet normal 0.978333 -0.113458 -0.173181
  outer loop
   vertex 0.004523 -0.004246 0.024117
   vertex 0.002788 -0.007426 0.016399
   vertex 0.003933 -0.002393 0.01957
  endloop
 endfacet
 facet normal 0.886374 -0.0219675 0.462449
  outer loop
   vertex 0.004523 -0.004246 0.024117
   vertex 0.00519 0.002647 0.023166
   vertex 0.003886 0.000113 0.025545
  endloop
 endfacet
 facet normal 0.934617 -0.214908 0.283381
  outer loop
   vertex 0.00519 0.002647 0.023166
   vertex 0.004222 0.003059 0.026671
   vertex 0.003886 0.000113 0.025545
  endloop
 endfacet
 facet normal 0.173419 0.982525 -0.067598
  outer loop
   vertex -0.003102 0.003873 0.019713
   vertex 0.004222 0.003059 0.026671
   vertex 0.00519 0.002647 0.023166
  endloop
 endfacet
 facet normal 0.156007 0.987463 -0.0240322
  outer loop
   vertex -0.003102 0.003873 0.019713
   vertex 0.00519 0.002647 0.023166
   vertex 0.003671 0.002633 0.01273
  endloop
 endfacet
 facet normal 0.0893018 0.991972 -0.0895323
  outer loop
   vertex -0.003102 0.003873 0.019713
   vertex 0.003671 0.002633 0.01273
   vertex -0.003661 0.003251 0.012264
  endloop
 endfacet
 facet normal -0.359869 0.93162 -0.0507854
  outer loop
   vertex -0.003102 0.003873 0.019713
   vertex -0.003661 0.003251 0.012264
   vertex -0.008383 0.00153 0.014154
  endloop
 endfacet
 facet normal -0.117443 0.950131 -0.28889
  outer loop
   vertex -0.003102 0.003873 0.019713
   vertex -0.008383 0.00153 0.014154
   vertex -0.00928 0.00213 0.016492
  endloop
 endfacet
 facet normal -0.301827 -0.423345 -0.854213
  outer loop
   vertex -0.002361 -0.006406 0.013455
   vertex -0.001878 -0.013068 0.016586
   vertex -0.005052 -0.009207 0.015794
  endloop
 endfacet
 facet normal 0.52609 -0.330187 -0.783713
  outer loop
   vertex -0.001878 -0.013068 0.016586
   vertex -0.002361 -0.006406 0.013455
   vertex -0.000142 -0.010124 0.016511
  endloop
 endfacet
 facet normal -0.280696 -0.441839 -0.852049
  outer loop
   vertex -0.008034 -0.005496 0.014852
   vertex -0.002361 -0.006406 0.013455
   vertex -0.005052 -0.009207 0.015794
  endloop
 endfacet
 facet normal -0.890875 -0.0885146 -0.445541
  outer loop
   vertex -0.008383 0.00153 0.014154
   vertex -0.008034 -0.005496 0.014852
   vertex -0.008998 -0.001557 0.015997
  endloop
 endfacet
 facet normal -0.258685 -0.147023 -0.954708
  outer loop
   vertex -0.002361 -0.006406 0.013455
   vertex -0.008034 -0.005496 0.014852
   vertex -0.00561 -0.002144 0.013679
  endloop
 endfacet
 facet normal -0.306605 -0.109166 -0.945556
  outer loop
   vertex -0.008034 -0.005496 0.014852
   vertex -0.008383 0.00153 0.014154
   vertex -0.00561 -0.002144 0.013679
  endloop
 endfacet
 facet normal -0.935431 -0.0241973 -0.352679
  outer loop
   vertex -0.00928 0.00213 0.016492
   vertex -0.008383 0.00153 0.014154
   vertex -0.008998 -0.001557 0.015997
  endloop
 endfacet
 facet normal 0.377124 -0.44331 -0.813175
  outer loop
   vertex -0.002361 -0.006406 0.013455
   vertex 0.002788 -0.007426 0.016399
   vertex -0.000142 -0.010124 0.016511
  endloop
 endfacet
 facet normal 0.392714 -0.345366 -0.852349
  outer loop
   vertex 0.003671 0.002633 0.01273
   vertex 0.002788 -0.007426 0.016399
   vertex -0.000907 -0.003276 0.013015
  endloop
 endfacet
 facet normal 0.423009 -0.315891 -0.84928
  outer loop
   vertex 0.002788 -0.007426 0.016399
   vertex -0.002361 -0.006406 0.013455
   vertex -0.000907 -0.003276 0.013015
  endloop
 endfacet
 facet normal 0.981029 -0.136373 -0.137784
  outer loop
   vertex 0.002788 -0.007426 0.016399
   vertex 0.003671 0.002633 0.01273
   vertex 0.003933 -0.002393 0.01957
  endloop
 endfacet
 facet normal 0.979472 -0.142702 -0.142374
  outer loop
   vertex 0.003671 0.002633 0.01273
   vertex 0.00519 0.002647 0.023166
   vertex 0.003933 -0.002393 0.01957
  endloop
 endfacet
 facet normal 0.0555267 -0.0909762 -0.994304
  outer loop
   vertex -0.003661 0.003251 0.012264
   vertex 0.003671 0.002633 0.01273
   vertex -0.000907 -0.003276 0.013015
  endloop
 endfacet
 facet normal -0.328398 -0.126852 -0.935983
  outer loop
   vertex -0.008383 0.00153 0.014154
   vertex -0.003661 0.003251 0.012264
   vertex -0.00561 -0.002144 0.013679
  endloop
 endfacet
 facet normal -0.26663 -0.153246 -0.951538
  outer loop
   vertex -0.003661 0.003251 0.012264
   vertex -0.002361 -0.006406 0.013455
   vertex -0.00561 -0.002144 0.013679
  endloop
 endfacet
 facet normal -0.0285402 -0.126136 -0.991602
  outer loop
   vertex -0.002361 -0.006406 0.013455
   vertex -0.003661 0.003251 0.012264
   vertex -0.000907 -0.003276 0.013015
  endloop
 endfacet
endsolid
