solid ascii
 facet normal 0.955234 0.281893 -0.0897952
  outer loop
   vertex -0.009136 0.026513 0.138215
   vertex -0.008183 0.025616 0.145537
   vertex -0.007962 0.022565 0.13831
  endloop
 endfacet
 facet normal 0.835681 0.236577 -0.49565
  outer loop
   vertex -0.011485 0.024333 0.133214
   vertex -0.009136 0.026513 0.138215
   vertex -0.007962 0.022565 0.13831
  endloop
 endfacet
 facet normal 0.710276 0.703896 -0.00621402
  outer loop
   vertex -0.009136 0.026513 0.138215
   vertex -0.011904 0.029318 0.139564
   vertex -0.008183 0.025616 0.145537
  endloop
 endfacet
 facet normal -0.955234 -0.281893 0.0897952
  outer loop
   vertex -0.009136 0.026513 0.138215
   vertex -0.007962 0.022565 0.13831
   vertex -0.008183 0.025616 0.145537
  endloop
 endfacet
 facet normal 0.46371 0.7115 -0.527959
  outer loop
   vertex -0.011485 0.024333 0.133214
   vertex -0.011904 0.029318 0.139564
   vertex -0.009136 0.026513 0.138215
  endloop
 endfacet
 facet normal 0.353381 0.622771 0.698053
  outer loop
   vertex -0.017636 0.030693 0.145793
   vertex -0.013881 0.02677 0.147392
   vertex -0.008183 0.025616 0.145537
  endloop
 endfacet
 facet normal 0.0696505 -0.736918 0.672384
  outer loop
   vertex -0.012029 0.022059 0.142037
   vertex -0.008183 0.025616 0.145537
   vertex -0.013881 0.02677 0.147392
  endloop
 endfacet
 facet normal 0.434044 -0.82513 0.361615
  outer loop
   vertex -0.007962 0.022565 0.13831
   vertex -0.008183 0.025616 0.145537
   vertex -0.012029 0.022059 0.142037
  endloop
 endfacet
 facet normal 0.464443 0.852699 0.239159
  outer loop
   vertex -0.017636 0.030693 0.145793
   vertex -0.008183 0.025616 0.145537
   vertex -0.011904 0.029318 0.139564
  endloop
 endfacet
 facet normal 0.128822 -0.99165 0.0059409
  outer loop
   vertex -0.011747 0.022037 0.13225
   vertex -0.007962 0.022565 0.13831
   vertex -0.012029 0.022059 0.142037
  endloop
 endfacet
 facet normal 0.836048 0.128545 -0.533385
  outer loop
   vertex -0.011485 0.024333 0.133214
   vertex -0.007962 0.022565 0.13831
   vertex -0.011747 0.022037 0.13225
  endloop
 endfacet
 facet normal 0.641103 0.623641 -0.44728
  outer loop
   vertex -0.011485 0.024333 0.133214
   vertex -0.015649 0.02966 0.134673
   vertex -0.011904 0.029318 0.139564
  endloop
 endfacet
 facet normal 0.628108 0.619822 -0.470427
  outer loop
   vertex -0.015649 0.02966 0.134673
   vertex -0.011485 0.024333 0.133214
   vertex -0.01315 0.023354 0.129701
  endloop
 endfacet
 facet normal 0.672829 0.565839 -0.476579
  outer loop
   vertex -0.013422 0.021496 0.127111
   vertex -0.01315 0.023354 0.129701
   vertex -0.011485 0.024333 0.133214
  endloop
 endfacet
 facet normal 0.949825 0.0225957 -0.311964
  outer loop
   vertex -0.013422 0.021496 0.127111
   vertex -0.011485 0.024333 0.133214
   vertex -0.011747 0.022037 0.13225
  endloop
 endfacet
 facet normal 0.262193 0.955676 -0.133935
  outer loop
   vertex -0.011904 0.029318 0.139564
   vertex -0.015649 0.02966 0.134673
   vertex -0.020089 0.032015 0.142785
  endloop
 endfacet
 facet normal 0.352964 0.927913 0.119973
  outer loop
   vertex -0.011904 0.029318 0.139564
   vertex -0.020089 0.032015 0.142785
   vertex -0.017636 0.030693 0.145793
  endloop
 endfacet
 facet normal -0.376349 0.695184 0.612438
  outer loop
   vertex -0.018614 0.027851 0.148418
   vertex -0.017636 0.030693 0.145793
   vertex -0.020089 0.032015 0.142785
  endloop
 endfacet
 facet normal 0.297494 0.590526 0.750184
  outer loop
   vertex -0.017636 0.030693 0.145793
   vertex -0.018614 0.027851 0.148418
   vertex -0.013881 0.02677 0.147392
  endloop
 endfacet
 facet normal 0.0764222 -0.489721 0.868523
  outer loop
   vertex -0.016567 0.023288 0.145665
   vertex -0.013881 0.02677 0.147392
   vertex -0.018614 0.027851 0.148418
  endloop
 endfacet
 facet normal 0.375247 -0.62773 0.682015
  outer loop
   vertex -0.012029 0.022059 0.142037
   vertex -0.013881 0.02677 0.147392
   vertex -0.016567 0.023288 0.145665
  endloop
 endfacet
 facet normal 0.0980981 -0.898827 0.427185
  outer loop
   vertex -0.012029 0.022059 0.142037
   vertex -0.016567 0.023288 0.145665
   vertex -0.019917 0.021988 0.143699
  endloop
 endfacet
 facet normal 0.229049 -0.973375 0.00878775
  outer loop
   vertex -0.011747 0.022037 0.13225
   vertex -0.012029 0.022059 0.142037
   vertex -0.0161 0.021021 0.133172
  endloop
 endfacet
 facet normal 0.0305253 -0.994275 0.102401
  outer loop
   vertex -0.012029 0.022059 0.142037
   vertex -0.019917 0.021988 0.143699
   vertex -0.0161 0.021021 0.133172
  endloop
 endfacet
 facet normal 0.212313 -0.974579 -0.0715516
  outer loop
   vertex -0.011747 0.022037 0.13225
   vertex -0.0161 0.021021 0.133172
   vertex -0.017997 0.020976 0.128156
  endloop
 endfacet
 facet normal 0.126874 -0.989925 0.0628595
  outer loop
   vertex -0.011747 0.022037 0.13225
   vertex -0.017997 0.020976 0.128156
   vertex -0.013422 0.021496 0.127111
  endloop
 endfacet
 facet normal 0.362525 0.929239 -0.0713448
  outer loop
   vertex -0.020089 0.032015 0.142785
   vertex -0.015649 0.02966 0.134673
   vertex -0.023378 0.032843 0.136857
  endloop
 endfacet
 facet normal 0.317527 0.922272 -0.220434
  outer loop
   vertex -0.01783 0.029098 0.12918
   vertex -0.023378 0.032843 0.136857
   vertex -0.015649 0.02966 0.134673
  endloop
 endfacet
 facet normal 0.740859 0.571638 -0.352644
  outer loop
   vertex -0.015649 0.02966 0.134673
   vertex -0.01315 0.023354 0.129701
   vertex -0.01783 0.029098 0.12918
  endloop
 endfacet
 facet normal 0.774892 0.620356 -0.121243
  outer loop
   vertex -0.01783 0.029098 0.12918
   vertex -0.01315 0.023354 0.129701
   vertex -0.013345 0.022602 0.124607
  endloop
 endfacet
 facet normal 0.532286 -0.840194 0.103657
  outer loop
   vertex -0.014912 0.02125 0.121695
   vertex -0.013345 0.022602 0.124607
   vertex -0.01315 0.023354 0.129701
  endloop
 endfacet
 facet normal 0.934042 0.236433 -0.267704
  outer loop
   vertex -0.014912 0.02125 0.121695
   vertex -0.01315 0.023354 0.129701
   vertex -0.013422 0.021496 0.127111
  endloop
 endfacet
 facet normal 0.128262 -0.989321 0.0692363
  outer loop
   vertex -0.013422 0.021496 0.127111
   vertex -0.017997 0.020976 0.128156
   vertex -0.01894 0.020395 0.121601
  endloop
 endfacet
 facet normal 0.207906 -0.978065 -0.0127727
  outer loop
   vertex -0.013422 0.021496 0.127111
   vertex -0.01894 0.020395 0.121601
   vertex -0.014912 0.02125 0.121695
  endloop
 endfacet
 facet normal -0.264583 0.924063 0.275867
  outer loop
   vertex -0.02272 0.030155 0.146492
   vertex -0.020089 0.032015 0.142785
   vertex -0.023378 0.032843 0.136857
  endloop
 endfacet
 facet normal 0.198525 0.812269 0.548458
  outer loop
   vertex -0.018614 0.027851 0.148418
   vertex -0.020089 0.032015 0.142785
   vertex -0.02272 0.030155 0.146492
  endloop
 endfacet
 facet normal -0.378432 0.095247 0.920716
  outer loop
   vertex -0.02272 0.030155 0.146492
   vertex -0.022405 0.024872 0.147168
   vertex -0.018614 0.027851 0.148418
  endloop
 endfacet
 facet normal 0.0929116 -0.483467 0.870418
  outer loop
   vertex -0.022405 0.024872 0.147168
   vertex -0.016567 0.023288 0.145665
   vertex -0.018614 0.027851 0.148418
  endloop
 endfacet
 facet normal -0.0552934 -0.786926 0.614566
  outer loop
   vertex -0.022405 0.024872 0.147168
   vertex -0.019917 0.021988 0.143699
   vertex -0.016567 0.023288 0.145665
  endloop
 endfacet
 facet normal -0.136668 -0.989753 0.0413634
  outer loop
   vertex -0.019917 0.021988 0.143699
   vertex -0.022987 0.022009 0.134058
   vertex -0.0161 0.021021 0.133172
  endloop
 endfacet
 facet normal 0.0639759 -0.997697 -0.0225451
  outer loop
   vertex -0.019917 0.021988 0.143699
   vertex -0.028553 0.021486 0.141408
   vertex -0.022987 0.022009 0.134058
  endloop
 endfacet
 facet normal -0.211782 -0.408534 0.887834
  outer loop
   vertex -0.029947 0.023267 0.141895
   vertex -0.028553 0.021486 0.141408
   vertex -0.019917 0.021988 0.143699
  endloop
 endfacet
 facet normal -0.201052 -0.819308 0.536947
  outer loop
   vertex -0.029947 0.023267 0.141895
   vertex -0.019917 0.021988 0.143699
   vertex -0.022405 0.024872 0.147168
  endloop
 endfacet
 facet normal -0.155979 -0.985429 0.0678302
  outer loop
   vertex -0.024018 0.021966 0.128693
   vertex -0.017997 0.020976 0.128156
   vertex -0.0161 0.021021 0.133172
  endloop
 endfacet
 facet normal -0.137587 -0.989893 0.0343744
  outer loop
   vertex -0.024018 0.021966 0.128693
   vertex -0.0161 0.021021 0.133172
   vertex -0.022987 0.022009 0.134058
  endloop
 endfacet
 facet normal -0.0589159 -0.993584 0.0965415
  outer loop
   vertex -0.025505 0.020811 0.121876
   vertex -0.01894 0.020395 0.121601
   vertex -0.017997 0.020976 0.128156
  endloop
 endfacet
 facet normal -0.142124 -0.970369 0.195411
  outer loop
   vertex -0.025505 0.020811 0.121876
   vertex -0.017997 0.020976 0.128156
   vertex -0.024018 0.021966 0.128693
  endloop
 endfacet
 facet normal -0.0560959 0.960966 0.270919
  outer loop
   vertex -0.031454 0.032329 0.137008
   vertex -0.028445 0.031278 0.141359
   vertex -0.023378 0.032843 0.136857
  endloop
 endfacet
 facet normal 0.454374 0.884806 -0.103261
  outer loop
   vertex -0.01783 0.029098 0.12918
   vertex -0.025202 0.033012 0.130279
   vertex -0.023378 0.032843 0.136857
  endloop
 endfacet
 facet normal -0.0552421 0.960764 0.27181
  outer loop
   vertex -0.02272 0.030155 0.146492
   vertex -0.023378 0.032843 0.136857
   vertex -0.028445 0.031278 0.141359
  endloop
 endfacet
 facet normal -0.0626576 0.997109 0.0429913
  outer loop
   vertex -0.025202 0.033012 0.130279
   vertex -0.031454 0.032329 0.137008
   vertex -0.023378 0.032843 0.136857
  endloop
 endfacet
 facet normal 0.443109 0.881061 -0.165486
  outer loop
   vertex -0.019638 0.028975 0.123684
   vertex -0.025202 0.033012 0.130279
   vertex -0.01783 0.029098 0.12918
  endloop
 endfacet
 facet normal 0.70711 0.662397 -0.24744
  outer loop
   vertex -0.01783 0.029098 0.12918
   vertex -0.013345 0.022602 0.124607
   vertex -0.019638 0.028975 0.123684
  endloop
 endfacet
 facet normal 0.715194 0.691448 -0.101967
  outer loop
   vertex -0.019638 0.028975 0.123684
   vertex -0.013345 0.022602 0.124607
   vertex -0.013449 0.02207 0.12027
  endloop
 endfacet
 facet normal 0.372499 -0.901985 0.21833
  outer loop
   vertex -0.013345 0.022602 0.124607
   vertex -0.014912 0.02125 0.121695
   vertex -0.014278 0.020684 0.118275
  endloop
 endfacet
 facet normal 0.824203 -0.564133 0.0494354
  outer loop
   vertex -0.013345 0.022602 0.124607
   vertex -0.014278 0.020684 0.118275
   vertex -0.013449 0.02207 0.12027
  endloop
 endfacet
 facet normal 0.197292 -0.954192 0.224929
  outer loop
   vertex -0.014912 0.02125 0.121695
   vertex -0.01894 0.020395 0.121601
   vertex -0.018812 0.019368 0.117132
  endloop
 endfacet
 facet normal 0.226357 -0.953345 0.199738
  outer loop
   vertex -0.014912 0.02125 0.121695
   vertex -0.018812 0.019368 0.117132
   vertex -0.014278 0.020684 0.118275
  endloop
 endfacet
 facet normal -0.0288975 -0.97437 0.223088
  outer loop
   vertex -0.026906 0.018983 0.114402
   vertex -0.018812 0.019368 0.117132
   vertex -0.01894 0.020395 0.121601
  endloop
 endfacet
 facet normal -0.0510131 -0.967855 0.246282
  outer loop
   vertex -0.026906 0.018983 0.114402
   vertex -0.01894 0.020395 0.121601
   vertex -0.025505 0.020811 0.121876
  endloop
 endfacet
 facet normal -0.660337 0.0564464 0.748845
  outer loop
   vertex -0.028445 0.031278 0.141359
   vertex -0.022405 0.024872 0.147168
   vertex -0.02272 0.030155 0.146492
  endloop
 endfacet
 facet normal -0.58841 0.163306 0.791899
  outer loop
   vertex -0.028445 0.031278 0.141359
   vertex -0.029947 0.023267 0.141895
   vertex -0.022405 0.024872 0.147168
  endloop
 endfacet
 facet normal -0.190078 -0.958573 -0.212151
  outer loop
   vertex -0.032688 0.023762 0.134829
   vertex -0.022987 0.022009 0.134058
   vertex -0.028553 0.021486 0.141408
  endloop
 endfacet
 facet normal -0.520212 -0.847338 0.106761
  outer loop
   vertex -0.032835 0.027227 0.127486
   vertex -0.024018 0.021966 0.128693
   vertex -0.022987 0.022009 0.134058
  endloop
 endfacet
 facet normal -0.193622 -0.888745 -0.415503
  outer loop
   vertex -0.032835 0.027227 0.127486
   vertex -0.022987 0.022009 0.134058
   vertex -0.032688 0.023762 0.134829
  endloop
 endfacet
 facet normal -0.778702 -0.551821 0.298524
  outer loop
   vertex -0.033987 0.026353 0.13623
   vertex -0.032688 0.023762 0.134829
   vertex -0.028553 0.021486 0.141408
  endloop
 endfacet
 facet normal -0.748183 -0.63667 0.186743
  outer loop
   vertex -0.033987 0.026353 0.13623
   vertex -0.028553 0.021486 0.141408
   vertex -0.029947 0.023267 0.141895
  endloop
 endfacet
 facet normal -0.730756 0.225876 0.644186
  outer loop
   vertex -0.031454 0.032329 0.137008
   vertex -0.033987 0.026353 0.13623
   vertex -0.029947 0.023267 0.141895
  endloop
 endfacet
 facet normal -0.786307 0.186829 0.588911
  outer loop
   vertex -0.031454 0.032329 0.137008
   vertex -0.029947 0.023267 0.141895
   vertex -0.028445 0.031278 0.141359
  endloop
 endfacet
 facet normal -0.738622 -0.619395 0.26606
  outer loop
   vertex -0.029955 0.026368 0.122459
   vertex -0.025505 0.020811 0.121876
   vertex -0.024018 0.021966 0.128693
  endloop
 endfacet
 facet normal -0.49382 -0.858838 -0.136156
  outer loop
   vertex -0.029955 0.026368 0.122459
   vertex -0.024018 0.021966 0.128693
   vertex -0.032835 0.027227 0.127486
  endloop
 endfacet
 facet normal -0.76249 -0.58085 0.284994
  outer loop
   vertex -0.028715 0.021263 0.114209
   vertex -0.026906 0.018983 0.114402
   vertex -0.025505 0.020811 0.121876
  endloop
 endfacet
 facet normal -0.73699 -0.618721 0.272085
  outer loop
   vertex -0.028715 0.021263 0.114209
   vertex -0.025505 0.020811 0.121876
   vertex -0.029955 0.026368 0.122459
  endloop
 endfacet
 facet normal -0.0493961 0.997246 0.0553267
  outer loop
   vertex -0.025202 0.033012 0.130279
   vertex -0.031947 0.032687 0.130115
   vertex -0.031454 0.032329 0.137008
  endloop
 endfacet
 facet normal -0.921284 0.379354 0.0855946
  outer loop
   vertex -0.031947 0.032687 0.130115
   vertex -0.033987 0.026353 0.13623
   vertex -0.031454 0.032329 0.137008
  endloop
 endfacet
 facet normal 0.561237 0.827007 -0.0327376
  outer loop
   vertex -0.019638 0.028975 0.123684
   vertex -0.023891 0.031842 0.123198
   vertex -0.025202 0.033012 0.130279
  endloop
 endfacet
 facet normal -0.0432812 0.984378 -0.170663
  outer loop
   vertex -0.023891 0.031842 0.123198
   vertex -0.031947 0.032687 0.130115
   vertex -0.025202 0.033012 0.130279
  endloop
 endfacet
 facet normal 0.56437 0.81175 -0.150163
  outer loop
   vertex -0.019065 0.027399 0.117318
   vertex -0.023891 0.031842 0.123198
   vertex -0.019638 0.028975 0.123684
  endloop
 endfacet
 facet normal 0.713437 0.692468 -0.107215
  outer loop
   vertex -0.019638 0.028975 0.123684
   vertex -0.013449 0.02207 0.12027
   vertex -0.019065 0.027399 0.117318
  endloop
 endfacet
 facet normal 0.712837 0.693561 -0.104101
  outer loop
   vertex -0.019065 0.027399 0.117318
   vertex -0.013449 0.02207 0.12027
   vertex -0.012358 0.020209 0.115342
  endloop
 endfacet
 facet normal 0.176104 -0.907377 0.381647
  outer loop
   vertex -0.014009 0.019685 0.114858
   vertex -0.012358 0.020209 0.115342
   vertex -0.013449 0.02207 0.12027
  endloop
 endfacet
 facet normal 0.608514 -0.747476 0.266438
  outer loop
   vertex -0.014009 0.019685 0.114858
   vertex -0.013449 0.02207 0.12027
   vertex -0.014278 0.020684 0.118275
  endloop
 endfacet
 facet normal 0.219682 -0.949915 0.222266
  outer loop
   vertex -0.014278 0.020684 0.118275
   vertex -0.018812 0.019368 0.117132
   vertex -0.018603 0.018256 0.112173
  endloop
 endfacet
 facet normal 0.127221 -0.949279 0.287548
  outer loop
   vertex -0.014278 0.020684 0.118275
   vertex -0.018603 0.018256 0.112173
   vertex -0.014009 0.019685 0.114858
  endloop
 endfacet
 facet normal -0.0269996 -0.975655 0.217642
  outer loop
   vertex -0.018603 0.018256 0.112173
   vertex -0.018812 0.019368 0.117132
   vertex -0.026906 0.018983 0.114402
  endloop
 endfacet
 facet normal -0.742241 -0.557421 0.371968
  outer loop
   vertex -0.028715 0.021263 0.114209
   vertex -0.028108 0.016864 0.108828
   vertex -0.026906 0.018983 0.114402
  endloop
 endfacet
 facet normal -0.0140295 -0.933634 0.357954
  outer loop
   vertex -0.023009 0.017415 0.110465
   vertex -0.026906 0.018983 0.114402
   vertex -0.028108 0.016864 0.108828
  endloop
 endfacet
 facet normal 0.0242646 -0.920268 0.390535
  outer loop
   vertex -0.018603 0.018256 0.112173
   vertex -0.026906 0.018983 0.114402
   vertex -0.023009 0.017415 0.110465
  endloop
 endfacet
 facet normal -0.999823 -0.0123791 0.0141741
  outer loop
   vertex -0.032856 0.030644 0.128989
   vertex -0.032835 0.027227 0.127486
   vertex -0.032688 0.023762 0.134829
  endloop
 endfacet
 facet normal -0.906274 -0.286135 -0.311117
  outer loop
   vertex -0.032856 0.030644 0.128989
   vertex -0.032688 0.023762 0.134829
   vertex -0.033987 0.026353 0.13623
  endloop
 endfacet
 facet normal -0.849225 -0.298582 -0.435505
  outer loop
   vertex -0.03085 0.029039 0.122373
   vertex -0.029955 0.026368 0.122459
   vertex -0.032835 0.027227 0.127486
  endloop
 endfacet
 facet normal -0.938911 0.133718 -0.317121
  outer loop
   vertex -0.03085 0.029039 0.122373
   vertex -0.032835 0.027227 0.127486
   vertex -0.032856 0.030644 0.128989
  endloop
 endfacet
 facet normal -0.925772 0.37057 0.0749986
  outer loop
   vertex -0.031947 0.032687 0.130115
   vertex -0.032856 0.030644 0.128989
   vertex -0.033987 0.026353 0.13623
  endloop
 endfacet
 facet normal -0.991899 -0.0599432 -0.111993
  outer loop
   vertex -0.028981 0.026354 0.11384
   vertex -0.028715 0.021263 0.114209
   vertex -0.029955 0.026368 0.122459
  endloop
 endfacet
 facet normal -0.941819 -0.318996 -0.105913
  outer loop
   vertex -0.028981 0.026354 0.11384
   vertex -0.029955 0.026368 0.122459
   vertex -0.03085 0.029039 0.122373
  endloop
 endfacet
 facet normal -0.995981 -0.0385313 -0.0808513
  outer loop
   vertex -0.028302 0.023807 0.107909
   vertex -0.028108 0.016864 0.108828
   vertex -0.028715 0.021263 0.114209
  endloop
 endfacet
 facet normal -0.99434 -0.0583869 -0.0887616
  outer loop
   vertex -0.028302 0.023807 0.107909
   vertex -0.028715 0.021263 0.114209
   vertex -0.028981 0.026354 0.11384
  endloop
 endfacet
 facet normal -0.0158182 0.990113 -0.139378
  outer loop
   vertex -0.023891 0.031842 0.123198
   vertex -0.030222 0.03176 0.123334
   vertex -0.031947 0.032687 0.130115
  endloop
 endfacet
 facet normal -0.811997 0.513847 -0.276807
  outer loop
   vertex -0.030222 0.03176 0.123334
   vertex -0.032856 0.030644 0.128989
   vertex -0.031947 0.032687 0.130115
  endloop
 endfacet
 facet normal 0.737659 0.667576 0.101004
  outer loop
   vertex -0.019065 0.027399 0.117318
   vertex -0.022763 0.031576 0.116718
   vertex -0.023891 0.031842 0.123198
  endloop
 endfacet
 facet normal -0.0138716 0.998961 -0.0434215
  outer loop
   vertex -0.022763 0.031576 0.116718
   vertex -0.030222 0.03176 0.123334
   vertex -0.023891 0.031842 0.123198
  endloop
 endfacet
 facet normal 0.707275 0.661852 0.248424
  outer loop
   vertex -0.016457 0.026622 0.111963
   vertex -0.022763 0.031576 0.116718
   vertex -0.019065 0.027399 0.117318
  endloop
 endfacet
 facet normal 0.739899 0.615715 0.271007
  outer loop
   vertex -0.019065 0.027399 0.117318
   vertex -0.012358 0.020209 0.115342
   vertex -0.016457 0.026622 0.111963
  endloop
 endfacet
 facet normal 0.797034 0.586133 0.145554
  outer loop
   vertex -0.016457 0.026622 0.111963
   vertex -0.012358 0.020209 0.115342
   vertex -0.010258 0.018673 0.110028
  endloop
 endfacet
 facet normal 0.871295 -0.256426 0.418439
  outer loop
   vertex -0.010248 0.017036 0.109004
   vertex -0.010258 0.018673 0.110028
   vertex -0.012358 0.020209 0.115342
  endloop
 endfacet
 facet normal 0.134828 -0.867341 0.479104
  outer loop
   vertex -0.010248 0.017036 0.109004
   vertex -0.012358 0.020209 0.115342
   vertex -0.014009 0.019685 0.114858
  endloop
 endfacet
 facet normal 0.111464 -0.943678 0.311526
  outer loop
   vertex -0.014009 0.019685 0.114858
   vertex -0.018603 0.018256 0.112173
   vertex -0.014757 0.016719 0.106141
  endloop
 endfacet
 facet normal 0.195315 -0.840294 0.505725
  outer loop
   vertex -0.012166 0.016007 0.108035
   vertex -0.010248 0.017036 0.109004
   vertex -0.014009 0.019685 0.114858
  endloop
 endfacet
 facet normal -0.461842 -0.82685 0.32097
  outer loop
   vertex -0.014009 0.019685 0.114858
   vertex -0.014757 0.016719 0.106141
   vertex -0.012166 0.016007 0.108035
  endloop
 endfacet
 facet normal 0.187688 -0.962896 0.193917
  outer loop
   vertex -0.020465 0.015768 0.101621
   vertex -0.017156 0.016965 0.104362
   vertex -0.018603 0.018256 0.112173
  endloop
 endfacet
 facet normal -0.192625 -0.973256 0.125175
  outer loop
   vertex -0.014757 0.016719 0.106141
   vertex -0.018603 0.018256 0.112173
   vertex -0.017156 0.016965 0.104362
  endloop
 endfacet
 facet normal 0.103786 -0.97199 0.210866
  outer loop
   vertex -0.020465 0.015768 0.101621
   vertex -0.018603 0.018256 0.112173
   vertex -0.023009 0.017415 0.110465
  endloop
 endfacet
 facet normal 0.0433022 -0.97986 0.194933
  outer loop
   vertex -0.023009 0.017415 0.110465
   vertex -0.028108 0.016864 0.108828
   vertex -0.020465 0.015768 0.101621
  endloop
 endfacet
 facet normal -0.678457 -0.288477 -0.675631
  outer loop
   vertex -0.021701 0.021387 0.100463
   vertex -0.020465 0.015768 0.101621
   vertex -0.028108 0.016864 0.108828
  endloop
 endfacet
 facet normal -0.760925 -0.105991 -0.640125
  outer loop
   vertex -0.021701 0.021387 0.100463
   vertex -0.028108 0.016864 0.108828
   vertex -0.028302 0.023807 0.107909
  endloop
 endfacet
 facet normal -0.880145 0.325253 -0.345768
  outer loop
   vertex -0.030222 0.03176 0.123334
   vertex -0.03085 0.029039 0.122373
   vertex -0.032856 0.030644 0.128989
  endloop
 endfacet
 facet normal -0.828251 0.456452 -0.325041
  outer loop
   vertex -0.02695 0.030384 0.114324
   vertex -0.028981 0.026354 0.11384
   vertex -0.03085 0.029039 0.122373
  endloop
 endfacet
 facet normal -0.869935 0.330163 -0.366341
  outer loop
   vertex -0.02695 0.030384 0.114324
   vertex -0.03085 0.029039 0.122373
   vertex -0.030222 0.03176 0.123334
  endloop
 endfacet
 facet normal -0.732819 0.590767 -0.337594
  outer loop
   vertex -0.024937 0.028484 0.108789
   vertex -0.028302 0.023807 0.107909
   vertex -0.028981 0.026354 0.11384
  endloop
 endfacet
 facet normal -0.780965 0.446085 -0.437153
  outer loop
   vertex -0.024937 0.028484 0.108789
   vertex -0.028981 0.026354 0.11384
   vertex -0.02695 0.030384 0.114324
  endloop
 endfacet
 facet normal -0.630775 0.373019 -0.680426
  outer loop
   vertex -0.01912 0.02614 0.100676
   vertex -0.021701 0.021387 0.100463
   vertex -0.028302 0.023807 0.107909
  endloop
 endfacet
 facet normal -0.600531 0.54258 -0.587341
  outer loop
   vertex -0.01912 0.02614 0.100676
   vertex -0.028302 0.023807 0.107909
   vertex -0.024937 0.028484 0.108789
  endloop
 endfacet
 facet normal -0.157874 0.965976 -0.204856
  outer loop
   vertex -0.022763 0.031576 0.116718
   vertex -0.02695 0.030384 0.114324
   vertex -0.030222 0.03176 0.123334
  endloop
 endfacet
 facet normal 0.63242 0.77395 0.0323641
  outer loop
   vertex -0.016457 0.026622 0.111963
   vertex -0.019606 0.029281 0.10991
   vertex -0.022763 0.031576 0.116718
  endloop
 endfacet
 facet normal -0.0679846 0.935447 -0.346868
  outer loop
   vertex -0.019606 0.029281 0.10991
   vertex -0.02695 0.030384 0.114324
   vertex -0.022763 0.031576 0.116718
  endloop
 endfacet
 facet normal 0.790284 0.459132 0.405769
  outer loop
   vertex -0.011255 0.021569 0.107549
   vertex -0.011869 0.024001 0.105993
   vertex -0.016457 0.026622 0.111963
  endloop
 endfacet
 facet normal 0.597931 0.793824 0.111005
  outer loop
   vertex -0.011869 0.024001 0.105993
   vertex -0.019606 0.029281 0.10991
   vertex -0.016457 0.026622 0.111963
  endloop
 endfacet
 facet normal 0.784705 0.536271 0.310888
  outer loop
   vertex -0.016457 0.026622 0.111963
   vertex -0.010258 0.018673 0.110028
   vertex -0.011255 0.021569 0.107549
  endloop
 endfacet
 facet normal 0.580118 0.635676 0.509293
  outer loop
   vertex -0.008946 0.019461 0.10755
   vertex -0.011255 0.021569 0.107549
   vertex -0.010258 0.018673 0.110028
  endloop
 endfacet
 facet normal 0.860605 0.121985 0.494447
  outer loop
   vertex -0.008946 0.019461 0.10755
   vertex -0.010258 0.018673 0.110028
   vertex -0.006546 0.016813 0.104026
  endloop
 endfacet
 facet normal 0.799008 -0.216135 0.561134
  outer loop
   vertex -0.007081 0.014303 0.103821
   vertex -0.006546 0.016813 0.104026
   vertex -0.010258 0.018673 0.110028
  endloop
 endfacet
 facet normal 0.683971 -0.383869 0.620346
  outer loop
   vertex -0.007081 0.014303 0.103821
   vertex -0.010258 0.018673 0.110028
   vertex -0.010248 0.017036 0.109004
  endloop
 endfacet
 facet normal 0.258368 -0.780414 0.569386
  outer loop
   vertex -0.009602 0.012749 0.102835
   vertex -0.007081 0.014303 0.103821
   vertex -0.010248 0.017036 0.109004
  endloop
 endfacet
 facet normal 0.141905 -0.805849 0.574866
  outer loop
   vertex -0.009602 0.012749 0.102835
   vertex -0.010248 0.017036 0.109004
   vertex -0.012166 0.016007 0.108035
  endloop
 endfacet
 facet normal -0.338532 -0.925347 0.170674
  outer loop
   vertex -0.014502 0.015107 0.097907
   vertex -0.01146 0.014453 0.100395
   vertex -0.014757 0.016719 0.106141
  endloop
 endfacet
 facet normal -0.231512 -0.956035 0.179997
  outer loop
   vertex -0.014502 0.015107 0.097907
   vertex -0.014757 0.016719 0.106141
   vertex -0.017156 0.016965 0.104362
  endloop
 endfacet
 facet normal -0.364384 -0.918567 0.153167
  outer loop
   vertex -0.01146 0.014453 0.100395
   vertex -0.012166 0.016007 0.108035
   vertex -0.014757 0.016719 0.106141
  endloop
 endfacet
 facet normal -0.724207 -0.685754 0.0725618
  outer loop
   vertex -0.01146 0.014453 0.100395
   vertex -0.009602 0.012749 0.102835
   vertex -0.012166 0.016007 0.108035
  endloop
 endfacet
 facet normal -0.743737 -0.287927 -0.603286
  outer loop
   vertex -0.020465 0.015768 0.101621
   vertex -0.021701 0.021387 0.100463
   vertex -0.017164 0.019859 0.095599
  endloop
 endfacet
 facet normal 0.169204 -0.961687 0.215703
  outer loop
   vertex -0.016531 0.015192 0.095967
   vertex -0.017156 0.016965 0.104362
   vertex -0.020465 0.015768 0.101621
  endloop
 endfacet
 facet normal -0.818294 -0.15464 -0.553607
  outer loop
   vertex -0.020465 0.015768 0.101621
   vertex -0.017164 0.019859 0.095599
   vertex -0.016531 0.015192 0.095967
  endloop
 endfacet
 facet normal -0.218068 -0.958026 0.186097
  outer loop
   vertex -0.016531 0.015192 0.095967
   vertex -0.014502 0.015107 0.097907
   vertex -0.017156 0.016965 0.104362
  endloop
 endfacet
 facet normal -0.580294 0.446039 -0.681402
  outer loop
   vertex -0.014489 0.024821 0.096569
   vertex -0.017164 0.019859 0.095599
   vertex -0.021701 0.021387 0.100463
  endloop
 endfacet
 facet normal -0.567257 0.341616 -0.749345
  outer loop
   vertex -0.014489 0.024821 0.096569
   vertex -0.021701 0.021387 0.100463
   vertex -0.01912 0.02614 0.100676
  endloop
 endfacet
 facet normal -0.067225 0.935925 -0.345724
  outer loop
   vertex -0.019606 0.029281 0.10991
   vertex -0.024937 0.028484 0.108789
   vertex -0.02695 0.030384 0.114324
  endloop
 endfacet
 facet normal 0.0493796 0.968419 -0.24439
  outer loop
   vertex -0.01425 0.026434 0.102825
   vertex -0.01912 0.02614 0.100676
   vertex -0.024937 0.028484 0.108789
  endloop
 endfacet
 facet normal -0.0511916 0.912684 -0.405447
  outer loop
   vertex -0.01425 0.026434 0.102825
   vertex -0.024937 0.028484 0.108789
   vertex -0.019606 0.029281 0.10991
  endloop
 endfacet
 facet normal 0.142524 0.977842 -0.153335
  outer loop
   vertex -0.011267 0.024612 0.098231
   vertex -0.014489 0.024821 0.096569
   vertex -0.01912 0.02614 0.100676
  endloop
 endfacet
 facet normal 0.0840992 0.943779 -0.319699
  outer loop
   vertex -0.011267 0.024612 0.098231
   vertex -0.01912 0.02614 0.100676
   vertex -0.01425 0.026434 0.102825
  endloop
 endfacet
 facet normal 0.606627 0.781753 0.144452
  outer loop
   vertex -0.011869 0.024001 0.105993
   vertex -0.01425 0.026434 0.102825
   vertex -0.019606 0.029281 0.10991
  endloop
 endfacet
 facet normal 0.766645 0.50308 0.398956
  outer loop
   vertex -0.006791 0.018189 0.103233
   vertex -0.007122 0.019059 0.102772
   vertex -0.011255 0.021569 0.107549
  endloop
 endfacet
 facet normal 0.669484 0.733376 0.11811
  outer loop
   vertex -0.006791 0.018189 0.103233
   vertex -0.011255 0.021569 0.107549
   vertex -0.008946 0.019461 0.10755
  endloop
 endfacet
 facet normal 0.775115 0.467569 0.424942
  outer loop
   vertex -0.007122 0.019059 0.102772
   vertex -0.011869 0.024001 0.105993
   vertex -0.011255 0.021569 0.107549
  endloop
 endfacet
 facet normal 0.779033 0.519562 0.350946
  outer loop
   vertex -0.007122 0.019059 0.102772
   vertex -0.008207 0.022028 0.100785
   vertex -0.011869 0.024001 0.105993
  endloop
 endfacet
 facet normal 0.613304 0.777959 0.136521
  outer loop
   vertex -0.008207 0.022028 0.100785
   vertex -0.01425 0.026434 0.102825
   vertex -0.011869 0.024001 0.105993
  endloop
 endfacet
 facet normal 0.875597 0.348603 0.334373
  outer loop
   vertex -0.008946 0.019461 0.10755
   vertex -0.006546 0.016813 0.104026
   vertex -0.006791 0.018189 0.103233
  endloop
 endfacet
 facet normal 0.817347 0.389954 0.424123
  outer loop
   vertex -0.006791 0.018189 0.103233
   vertex -0.006546 0.016813 0.104026
   vertex -0.002517 0.014808 0.098105
  endloop
 endfacet
 facet normal 0.776177 -0.203066 0.59692
  outer loop
   vertex -0.002327 0.013309 0.097348
   vertex -0.002517 0.014808 0.098105
   vertex -0.006546 0.016813 0.104026
  endloop
 endfacet
 facet normal 0.771495 -0.213394 0.599382
  outer loop
   vertex -0.002327 0.013309 0.097348
   vertex -0.006546 0.016813 0.104026
   vertex -0.007081 0.014303 0.103821
  endloop
 endfacet
 facet normal 0.604375 -0.59072 0.534585
  outer loop
   vertex -0.005829 0.00846 0.095949
   vertex -0.002327 0.013309 0.097348
   vertex -0.007081 0.014303 0.103821
  endloop
 endfacet
 facet normal 0.234094 -0.762478 0.603181
  outer loop
   vertex -0.005829 0.00846 0.095949
   vertex -0.007081 0.014303 0.103821
   vertex -0.009602 0.012749 0.102835
  endloop
 endfacet
 facet normal -0.859362 -0.482071 -0.170603
  outer loop
   vertex -0.007371 0.011682 0.094612
   vertex -0.005829 0.00846 0.095949
   vertex -0.009602 0.012749 0.102835
  endloop
 endfacet
 facet normal -0.624103 -0.778349 -0.0683296
  outer loop
   vertex -0.007371 0.011682 0.094612
   vertex -0.009602 0.012749 0.102835
   vertex -0.01146 0.014453 0.100395
  endloop
 endfacet
 facet normal -0.397001 -0.917813 -0.00292816
  outer loop
   vertex -0.01186 0.013986 0.091074
   vertex -0.009687 0.013041 0.092662
   vertex -0.014502 0.015107 0.097907
  endloop
 endfacet
 facet normal -0.142791 -0.984036 0.106227
  outer loop
   vertex -0.01186 0.013986 0.091074
   vertex -0.014502 0.015107 0.097907
   vertex -0.016531 0.015192 0.095967
  endloop
 endfacet
 facet normal -0.291631 -0.950561 0.106702
  outer loop
   vertex -0.009687 0.013041 0.092662
   vertex -0.01146 0.014453 0.100395
   vertex -0.014502 0.015107 0.097907
  endloop
 endfacet
 facet normal -0.527062 -0.849138 0.0342042
  outer loop
   vertex -0.009687 0.013041 0.092662
   vertex -0.007371 0.011682 0.094612
   vertex -0.01146 0.014453 0.100395
  endloop
 endfacet
 facet normal -0.530552 0.553359 -0.642112
  outer loop
   vertex -0.010175 0.022451 0.092058
   vertex -0.012491 0.01865 0.090696
   vertex -0.017164 0.019859 0.095599
  endloop
 endfacet
 facet normal -0.733918 -0.151749 -0.66207
  outer loop
   vertex -0.012491 0.01865 0.090696
   vertex -0.016531 0.015192 0.095967
   vertex -0.017164 0.019859 0.095599
  endloop
 endfacet
 facet normal -0.529768 0.428661 -0.731844
  outer loop
   vertex -0.010175 0.022451 0.092058
   vertex -0.017164 0.019859 0.095599
   vertex -0.014489 0.024821 0.096569
  endloop
 endfacet
 facet normal -0.733371 -0.152904 -0.66241
  outer loop
   vertex -0.012491 0.01865 0.090696
   vertex -0.01186 0.013986 0.091074
   vertex -0.016531 0.015192 0.095967
  endloop
 endfacet
 facet normal 0.174854 0.930562 -0.321683
  outer loop
   vertex -0.007598 0.022486 0.09356
   vertex -0.010175 0.022451 0.092058
   vertex -0.014489 0.024821 0.096569
  endloop
 endfacet
 facet normal 0.200762 0.941465 -0.270811
  outer loop
   vertex -0.007598 0.022486 0.09356
   vertex -0.014489 0.024821 0.096569
   vertex -0.011267 0.024612 0.098231
  endloop
 endfacet
 facet normal 0.604406 0.792848 0.0780094
  outer loop
   vertex -0.008207 0.022028 0.100785
   vertex -0.011267 0.024612 0.098231
   vertex -0.01425 0.026434 0.102825
  endloop
 endfacet
 facet normal 0.607443 0.785291 0.119713
  outer loop
   vertex -0.004813 0.019993 0.095782
   vertex -0.007598 0.022486 0.09356
   vertex -0.011267 0.024612 0.098231
  endloop
 endfacet
 facet normal 0.600874 0.794886 0.0843039
  outer loop
   vertex -0.004813 0.019993 0.095782
   vertex -0.011267 0.024612 0.098231
   vertex -0.008207 0.022028 0.100785
  endloop
 endfacet
 facet normal 0.801254 0.488165 0.345958
  outer loop
   vertex -0.006791 0.018189 0.103233
   vertex -0.002517 0.014808 0.098105
   vertex -0.007122 0.019059 0.102772
  endloop
 endfacet
 facet normal 0.79779 0.508434 0.324077
  outer loop
   vertex -0.002517 0.014808 0.098105
   vertex -0.008207 0.022028 0.100785
   vertex -0.007122 0.019059 0.102772
  endloop
 endfacet
 facet normal 0.796413 0.503049 0.335662
  outer loop
   vertex -0.002517 0.014808 0.098105
   vertex -0.004813 0.019993 0.095782
   vertex -0.008207 0.022028 0.100785
  endloop
 endfacet
 facet normal 0.783474 0.507566 0.358532
  outer loop
   vertex -0.004813 0.019993 0.095782
   vertex -0.002517 0.014808 0.098105
   vertex 0.002065 0.012338 0.091589
  endloop
 endfacet
 facet normal 0.758911 -0.214339 0.614909
  outer loop
   vertex 0.002065 0.012338 0.091589
   vertex -0.002517 0.014808 0.098105
   vertex -0.002327 0.013309 0.097348
  endloop
 endfacet
 facet normal 0.446189 -0.617178 0.648079
  outer loop
   vertex -0.001158 0.006811 0.090355
   vertex 0.00204 0.010004 0.091194
   vertex -0.002327 0.013309 0.097348
  endloop
 endfacet
 facet normal 0.540756 -0.569224 0.619328
  outer loop
   vertex -0.001158 0.006811 0.090355
   vertex -0.002327 0.013309 0.097348
   vertex -0.005829 0.00846 0.095949
  endloop
 endfacet
 facet normal 0.780892 -0.112357 0.614478
  outer loop
   vertex 0.002065 0.012338 0.091589
   vertex -0.002327 0.013309 0.097348
   vertex 0.00204 0.010004 0.091194
  endloop
 endfacet
 facet normal -0.601148 -0.747921 -0.281487
  outer loop
   vertex -0.003952 0.010039 0.087745
   vertex -0.001158 0.006811 0.090355
   vertex -0.005829 0.00846 0.095949
  endloop
 endfacet
 facet normal -0.813751 -0.507215 -0.283801
  outer loop
   vertex -0.003952 0.010039 0.087745
   vertex -0.005829 0.00846 0.095949
   vertex -0.007371 0.011682 0.094612
  endloop
 endfacet
 facet normal -0.485286 -0.873749 -0.032565
  outer loop
   vertex -0.003952 0.010039 0.087745
   vertex -0.007371 0.011682 0.094612
   vertex -0.009687 0.013041 0.092662
  endloop
 endfacet
 facet normal -0.785682 -0.195089 -0.587064
  outer loop
   vertex -0.007449 0.015643 0.08462
   vertex -0.007278 0.012559 0.085416
   vertex -0.01186 0.013986 0.091074
  endloop
 endfacet
 facet normal -0.361906 -0.930381 -0.0584307
  outer loop
   vertex -0.007278 0.012559 0.085416
   vertex -0.009687 0.013041 0.092662
   vertex -0.01186 0.013986 0.091074
  endloop
 endfacet
 facet normal -0.7966 -0.155125 -0.584265
  outer loop
   vertex -0.007449 0.015643 0.08462
   vertex -0.01186 0.013986 0.091074
   vertex -0.012491 0.01865 0.090696
  endloop
 endfacet
 facet normal -0.542103 -0.83097 -0.124951
  outer loop
   vertex -0.007278 0.012559 0.085416
   vertex -0.003952 0.010039 0.087745
   vertex -0.009687 0.013041 0.092662
  endloop
 endfacet
 facet normal 0.345746 0.922847 -0.169747
  outer loop
   vertex -0.003466 0.019077 0.08738
   vertex -0.005132 0.019442 0.085971
   vertex -0.010175 0.022451 0.092058
  endloop
 endfacet
 facet normal -0.493507 0.543896 -0.678696
  outer loop
   vertex -0.007449 0.015643 0.08462
   vertex -0.012491 0.01865 0.090696
   vertex -0.010175 0.022451 0.092058
  endloop
 endfacet
 facet normal 0.201279 0.908384 -0.366504
  outer loop
   vertex -0.003466 0.019077 0.08738
   vertex -0.010175 0.022451 0.092058
   vertex -0.007598 0.022486 0.09356
  endloop
 endfacet
 facet normal -0.494831 0.543051 -0.678408
  outer loop
   vertex -0.007449 0.015643 0.08462
   vertex -0.010175 0.022451 0.092058
   vertex -0.005132 0.019442 0.085971
  endloop
 endfacet
 facet normal 0.614912 0.78824 -0.0236724
  outer loop
   vertex -0.000179 0.01659 0.089951
   vertex -0.003466 0.019077 0.08738
   vertex -0.007598 0.022486 0.09356
  endloop
 endfacet
 facet normal 0.638771 0.767055 0.0599861
  outer loop
   vertex -0.000179 0.01659 0.089951
   vertex -0.007598 0.022486 0.09356
   vertex -0.004813 0.019993 0.095782
  endloop
 endfacet
 facet normal 0.785324 0.534675 0.312072
  outer loop
   vertex -0.004813 0.019993 0.095782
   vertex 0.002065 0.012338 0.091589
   vertex -0.000179 0.01659 0.089951
  endloop
 endfacet
 facet normal 0.833885 -0.10077 0.542661
  outer loop
   vertex 0.002065 0.012338 0.091589
   vertex 0.00204 0.010004 0.091194
   vertex 0.006389 0.006988 0.083951
  endloop
 endfacet
 facet normal 0.784987 0.534765 0.312766
  outer loop
   vertex 0.006278 0.010184 0.084698
   vertex -0.000179 0.01659 0.089951
   vertex 0.002065 0.012338 0.091589
  endloop
 endfacet
 facet normal 0.83527 -0.0974694 0.541132
  outer loop
   vertex 0.002065 0.012338 0.091589
   vertex 0.006389 0.006988 0.083951
   vertex 0.006278 0.010184 0.084698
  endloop
 endfacet
 facet normal -0.664707 -0.743753 -0.0706773
  outer loop
   vertex -0.000603 0.007148 0.081589
   vertex 0.002408 0.00431 0.083136
   vertex -0.001158 0.006811 0.090355
  endloop
 endfacet
 facet normal -0.724496 -0.685484 -0.0722226
  outer loop
   vertex -0.000603 0.007148 0.081589
   vertex -0.001158 0.006811 0.090355
   vertex -0.003952 0.010039 0.087745
  endloop
 endfacet
 facet normal 0.541914 -0.674504 0.501371
  outer loop
   vertex 0.002408 0.00431 0.083136
   vertex 0.00204 0.010004 0.091194
   vertex -0.001158 0.006811 0.090355
  endloop
 endfacet
 facet normal 0.389135 -0.743842 0.54339
  outer loop
   vertex 0.002408 0.00431 0.083136
   vertex 0.006389 0.006988 0.083951
   vertex 0.00204 0.010004 0.091194
  endloop
 endfacet
 facet normal -0.631524 -0.775087 0.0204359
  outer loop
   vertex -0.003614 0.009542 0.07934
   vertex -0.000603 0.007148 0.081589
   vertex -0.003952 0.010039 0.087745
  endloop
 endfacet
 facet normal -0.613502 -0.789387 0.0220062
  outer loop
   vertex -0.003614 0.009542 0.07934
   vertex -0.003952 0.010039 0.087745
   vertex -0.007278 0.012559 0.085416
  endloop
 endfacet
 facet normal -0.857287 -0.172716 -0.485003
  outer loop
   vertex -0.003418 0.013792 0.078154
   vertex -0.007278 0.012559 0.085416
   vertex -0.007449 0.015643 0.08462
  endloop
 endfacet
 facet normal -0.614696 0.569116 -0.546129
  outer loop
   vertex -0.005132 0.019442 0.085971
   vertex -0.003418 0.013792 0.078154
   vertex -0.007449 0.015643 0.08462
  endloop
 endfacet
 facet normal -0.87246 -0.0936116 -0.479636
  outer loop
   vertex -0.003418 0.013792 0.078154
   vertex -0.003614 0.009542 0.07934
   vertex -0.007278 0.012559 0.085416
  endloop
 endfacet
 facet normal 0.555652 0.824655 0.105801
  outer loop
   vertex 0.004307 0.014353 0.083378
   vertex 0.001302 0.016596 0.081677
   vertex -0.003466 0.019077 0.08738
  endloop
 endfacet
 facet normal 0.552287 0.828216 0.095062
  outer loop
   vertex 0.004307 0.014353 0.083378
   vertex -0.003466 0.019077 0.08738
   vertex -0.000179 0.01659 0.089951
  endloop
 endfacet
 facet normal 0.322061 0.93658 -0.138184
  outer loop
   vertex 0.001302 0.016596 0.081677
   vertex -0.005132 0.019442 0.085971
   vertex -0.003466 0.019077 0.08738
  endloop
 endfacet
 facet normal -0.652366 0.539114 -0.532704
  outer loop
   vertex -0.005132 0.019442 0.085971
   vertex -0.001281 0.017452 0.079241
   vertex -0.003418 0.013792 0.078154
  endloop
 endfacet
 facet normal 0.367721 0.927738 -0.0639085
  outer loop
   vertex 0.001302 0.016596 0.081677
   vertex -0.001281 0.017452 0.079241
   vertex -0.005132 0.019442 0.085971
  endloop
 endfacet
 facet normal 0.7885 0.490335 0.371267
  outer loop
   vertex 0.006278 0.010184 0.084698
   vertex 0.004307 0.014353 0.083378
   vertex -0.000179 0.01659 0.089951
  endloop
 endfacet
 facet normal 0.414219 -0.811875 0.411437
  outer loop
   vertex 0.00552 0.001896 0.074778
   vertex 0.010136 0.004469 0.075208
   vertex 0.006389 0.006988 0.083951
  endloop
 endfacet
 facet normal 0.910472 -0.0638826 0.408608
  outer loop
   vertex 0.006278 0.010184 0.084698
   vertex 0.006389 0.006988 0.083951
   vertex 0.010136 0.004469 0.075208
  endloop
 endfacet
 facet normal 0.454112 -0.796535 0.399142
  outer loop
   vertex 0.00552 0.001896 0.074778
   vertex 0.006389 0.006988 0.083951
   vertex 0.002408 0.00431 0.083136
  endloop
 endfacet
 facet normal 0.816347 0.485165 0.313358
  outer loop
   vertex 0.006875 0.012726 0.079207
   vertex 0.004307 0.014353 0.083378
   vertex 0.006278 0.010184 0.084698
  endloop
 endfacet
 facet normal 0.955092 0.215346 0.203533
  outer loop
   vertex 0.006278 0.010184 0.084698
   vertex 0.008112 0.010905 0.075329
   vertex 0.006875 0.012726 0.079207
  endloop
 endfacet
 facet normal 0.906006 0.369855 0.205815
  outer loop
   vertex 0.009529 0.006765 0.076531
   vertex 0.008112 0.010905 0.075329
   vertex 0.006278 0.010184 0.084698
  endloop
 endfacet
 facet normal 0.934301 0.0430961 0.353871
  outer loop
   vertex 0.006278 0.010184 0.084698
   vertex 0.010136 0.004469 0.075208
   vertex 0.009529 0.006765 0.076531
  endloop
 endfacet
 facet normal -0.625314 -0.780346 0.00652409
  outer loop
   vertex -0.000603 0.007148 0.081589
   vertex -0.003614 0.009542 0.07934
   vertex -0.000411 0.006906 0.071046
  endloop
 endfacet
 facet normal -0.6892 -0.724466 0.012376
  outer loop
   vertex 0.002971 0.00361 0.073512
   vertex 0.002408 0.00431 0.083136
   vertex -0.000603 0.007148 0.081589
  endloop
 endfacet
 facet normal -0.69931 -0.714809 0.00367223
  outer loop
   vertex -0.000603 0.007148 0.081589
   vertex -0.000411 0.006906 0.071046
   vertex 0.002971 0.00361 0.073512
  endloop
 endfacet
 facet normal -0.566908 -0.823348 0.0267222
  outer loop
   vertex 0.002971 0.00361 0.073512
   vertex 0.00552 0.001896 0.074778
   vertex 0.002408 0.00431 0.083136
  endloop
 endfacet
 facet normal -0.926355 0.0493021 -0.373411
  outer loop
   vertex -3.3e-05 0.011153 0.070669
   vertex -0.000411 0.006906 0.071046
   vertex -0.003614 0.009542 0.07934
  endloop
 endfacet
 facet normal -0.917761 -0.0669144 -0.391455
  outer loop
   vertex -3.3e-05 0.011153 0.070669
   vertex -0.003614 0.009542 0.07934
   vertex -0.003418 0.013792 0.078154
  endloop
 endfacet
 facet normal -0.68331 0.534445 -0.497449
  outer loop
   vertex 0.003657 0.014954 0.069684
   vertex -3.3e-05 0.011153 0.070669
   vertex -0.003418 0.013792 0.078154
  endloop
 endfacet
 facet normal -0.679539 0.543216 -0.493096
  outer loop
   vertex 0.003657 0.014954 0.069684
   vertex -0.003418 0.013792 0.078154
   vertex -0.001281 0.017452 0.079241
  endloop
 endfacet
 facet normal 0.572828 0.817059 0.0654416
  outer loop
   vertex 0.006556 0.013815 0.070409
   vertex 0.001302 0.016596 0.081677
   vertex 0.004307 0.014353 0.083378
  endloop
 endfacet
 facet normal 0.617301 0.783186 0.074559
  outer loop
   vertex 0.006556 0.013815 0.070409
   vertex 0.004307 0.014353 0.083378
   vertex 0.006875 0.012726 0.079207
  endloop
 endfacet
 facet normal 0.364189 0.929418 -0.0595726
  outer loop
   vertex -0.001281 0.017452 0.079241
   vertex 0.001302 0.016596 0.081677
   vertex 0.006556 0.013815 0.070409
  endloop
 endfacet
 facet normal 0.375606 0.925543 -0.047846
  outer loop
   vertex -0.001281 0.017452 0.079241
   vertex 0.006556 0.013815 0.070409
   vertex 0.003657 0.014954 0.069684
  endloop
 endfacet
 facet normal -0.398322 -0.905435 0.146723
  outer loop
   vertex 0.004019 0.001188 0.066334
   vertex 0.008123 -0.00037 0.067861
   vertex 0.00552 0.001896 0.074778
  endloop
 endfacet
 facet normal -0.607308 -0.775408 0.17297
  outer loop
   vertex 0.004019 0.001188 0.066334
   vertex 0.00552 0.001896 0.074778
   vertex 0.002971 0.00361 0.073512
  endloop
 endfacet
 facet normal 0.41172 -0.808807 0.419902
  outer loop
   vertex 0.008123 -0.00037 0.067861
   vertex 0.010136 0.004469 0.075208
   vertex 0.00552 0.001896 0.074778
  endloop
 endfacet
 facet normal 0.558239 -0.754892 0.344248
  outer loop
   vertex 0.008123 -0.00037 0.067861
   vertex 0.012545 0.002802 0.067646
   vertex 0.010136 0.004469 0.075208
  endloop
 endfacet
 facet normal 0.954562 0.0883608 0.284613
  outer loop
   vertex 0.009529 0.006765 0.076531
   vertex 0.010136 0.004469 0.075208
   vertex 0.012545 0.002802 0.067646
  endloop
 endfacet
 facet normal 0.857534 0.513403 0.0324554
  outer loop
   vertex 0.006875 0.012726 0.079207
   vertex 0.008112 0.010905 0.075329
   vertex 0.006556 0.013815 0.070409
  endloop
 endfacet
 facet normal 0.879658 0.355617 0.315814
  outer loop
   vertex 0.012994 0.005524 0.06779
   vertex 0.011438 0.009793 0.067317
   vertex 0.008112 0.010905 0.075329
  endloop
 endfacet
 facet normal 0.663647 0.716765 0.214055
  outer loop
   vertex 0.008747 0.013098 0.066017
   vertex 0.006556 0.013815 0.070409
   vertex 0.008112 0.010905 0.075329
  endloop
 endfacet
 facet normal 0.875533 0.384584 0.292467
  outer loop
   vertex 0.012994 0.005524 0.06779
   vertex 0.008112 0.010905 0.075329
   vertex 0.009529 0.006765 0.076531
  endloop
 endfacet
 facet normal 0.717731 0.66527 0.205616
  outer loop
   vertex 0.008747 0.013098 0.066017
   vertex 0.008112 0.010905 0.075329
   vertex 0.011438 0.009793 0.067317
  endloop
 endfacet
 facet normal 0.907583 -0.170018 0.383911
  outer loop
   vertex 0.009529 0.006765 0.076531
   vertex 0.012545 0.002802 0.067646
   vertex 0.012994 0.005524 0.06779
  endloop
 endfacet
 facet normal -0.953662 0.0215139 -0.300111
  outer loop
   vertex 0.002154 0.009386 0.063073
   vertex 0.002008 0.004044 0.063154
   vertex -0.000411 0.006906 0.071046
  endloop
 endfacet
 facet normal -0.955508 0.0593969 -0.288922
  outer loop
   vertex -3.3e-05 0.011153 0.070669
   vertex 0.002154 0.009386 0.063073
   vertex -0.000411 0.006906 0.071046
  endloop
 endfacet
 facet normal -0.711065 -0.702169 0.036688
  outer loop
   vertex 0.002971 0.00361 0.073512
   vertex -0.000411 0.006906 0.071046
   vertex 0.002008 0.004044 0.063154
  endloop
 endfacet
 facet normal -0.844751 -0.532197 0.0562388
  outer loop
   vertex 0.002971 0.00361 0.073512
   vertex 0.002008 0.004044 0.063154
   vertex 0.004019 0.001188 0.066334
  endloop
 endfacet
 facet normal -0.702742 0.57291 -0.421814
  outer loop
   vertex -3.3e-05 0.011153 0.070669
   vertex 0.003657 0.014954 0.069684
   vertex 0.005938 0.014156 0.0648
  endloop
 endfacet
 facet normal -0.670145 0.656793 -0.345729
  outer loop
   vertex -3.3e-05 0.011153 0.070669
   vertex 0.005938 0.014156 0.0648
   vertex 0.002154 0.009386 0.063073
  endloop
 endfacet
 facet normal 0.359657 0.932689 0.0271561
  outer loop
   vertex 0.003657 0.014954 0.069684
   vertex 0.006556 0.013815 0.070409
   vertex 0.008747 0.013098 0.066017
  endloop
 endfacet
 facet normal 0.348753 0.937164 0.00975599
  outer loop
   vertex 0.003657 0.014954 0.069684
   vertex 0.008747 0.013098 0.066017
   vertex 0.005938 0.014156 0.0648
  endloop
 endfacet
 facet normal -0.792044 -0.60874 -0.0458368
  outer loop
   vertex 0.004788 0.0005 0.062183
   vertex 0.004019 0.001188 0.066334
   vertex 0.002008 0.004044 0.063154
  endloop
 endfacet
 facet normal -0.408656 -0.893366 0.186811
  outer loop
   vertex 0.009628 -0.002288 0.061981
   vertex 0.008123 -0.00037 0.067861
   vertex 0.004019 0.001188 0.066334
  endloop
 endfacet
 facet normal -0.496865 -0.866297 0.0515353
  outer loop
   vertex 0.004788 0.0005 0.062183
   vertex 0.009628 -0.002288 0.061981
   vertex 0.004019 0.001188 0.066334
  endloop
 endfacet
 facet normal 0.550672 -0.741725 0.38289
  outer loop
   vertex 0.009628 -0.002288 0.061981
   vertex 0.012545 0.002802 0.067646
   vertex 0.008123 -0.00037 0.067861
  endloop
 endfacet
 facet normal 0.632452 -0.709186 0.311543
  outer loop
   vertex 0.009628 -0.002288 0.061981
   vertex 0.013088 0.000216 0.060657
   vertex 0.012545 0.002802 0.067646
  endloop
 endfacet
 facet normal 0.976013 -0.168302 0.138103
  outer loop
   vertex 0.012994 0.005524 0.06779
   vertex 0.012545 0.002802 0.067646
   vertex 0.013088 0.000216 0.060657
  endloop
 endfacet
 facet normal 0.924727 0.352864 0.142713
  outer loop
   vertex 0.014755 0.004253 0.059522
   vertex 0.011438 0.009793 0.067317
   vertex 0.012994 0.005524 0.06779
  endloop
 endfacet
 facet normal 0.918723 -0.310916 0.243474
  outer loop
   vertex 0.012994 0.005524 0.06779
   vertex 0.013088 0.000216 0.060657
   vertex 0.014755 0.004253 0.059522
  endloop
 endfacet
 facet normal 0.936488 0.295939 0.188175
  outer loop
   vertex 0.014755 0.004253 0.059522
   vertex 0.013925 0.008768 0.056552
   vertex 0.011438 0.009793 0.067317
  endloop
 endfacet
 facet normal 0.748899 0.653354 0.110806
  outer loop
   vertex 0.013925 0.008768 0.056552
   vertex 0.008747 0.013098 0.066017
   vertex 0.011438 0.009793 0.067317
  endloop
 endfacet
 facet normal 0.363465 0.931142 -0.0294377
  outer loop
   vertex 0.005938 0.014156 0.0648
   vertex 0.008747 0.013098 0.066017
   vertex 0.009908 0.012336 0.056249
  endloop
 endfacet
 facet normal 0.663085 0.748265 0.0204407
  outer loop
   vertex 0.013925 0.008768 0.056552
   vertex 0.009908 0.012336 0.056249
   vertex 0.008747 0.013098 0.066017
  endloop
 endfacet
 facet normal -0.991342 0.02514 -0.128875
  outer loop
   vertex 0.002154 0.009386 0.063073
   vertex 0.003132 0.008489 0.055375
   vertex 0.002008 0.004044 0.063154
  endloop
 endfacet
 facet normal -0.741906 0.649223 -0.167587
  outer loop
   vertex 0.002154 0.009386 0.063073
   vertex 0.005938 0.014156 0.0648
   vertex 0.007283 0.013384 0.055855
  endloop
 endfacet
 facet normal -0.743332 0.647005 -0.169829
  outer loop
   vertex 0.002154 0.009386 0.063073
   vertex 0.007283 0.013384 0.055855
   vertex 0.003132 0.008489 0.055375
  endloop
 endfacet
 facet normal -0.991938 0.0825093 -0.0961801
  outer loop
   vertex 0.003132 0.008489 0.055375
   vertex 0.00259 0.00217 0.055544
   vertex 0.002008 0.004044 0.063154
  endloop
 endfacet
 facet normal -0.770156 -0.630533 0.0963718
  outer loop
   vertex 0.00259 0.00217 0.055544
   vertex 0.004788 0.0005 0.062183
   vertex 0.002008 0.004044 0.063154
  endloop
 endfacet
 facet normal 0.373758 0.92722 -0.0238244
  outer loop
   vertex 0.005938 0.014156 0.0648
   vertex 0.009908 0.012336 0.056249
   vertex 0.007283 0.013384 0.055855
  endloop
 endfacet
 facet normal -0.83156 -0.537472 0.14011
  outer loop
   vertex 0.00259 0.00217 0.055544
   vertex 0.004856 -0.00154 0.054761
   vertex 0.004788 0.0005 0.062183
  endloop
 endfacet
 facet normal -0.478745 -0.84767 0.228603
  outer loop
   vertex 0.004856 -0.00154 0.054761
   vertex 0.009628 -0.002288 0.061981
   vertex 0.004788 0.0005 0.062183
  endloop
 endfacet
 facet normal -0.440534 -0.875057 0.20051
  outer loop
   vertex 0.004856 -0.00154 0.054761
   vertex 0.01002 -0.004005 0.055349
   vertex 0.009628 -0.002288 0.061981
  endloop
 endfacet
 facet normal 0.626767 -0.744548 0.229807
  outer loop
   vertex 0.01002 -0.004005 0.055349
   vertex 0.013088 0.000216 0.060657
   vertex 0.009628 -0.002288 0.061981
  endloop
 endfacet
 facet normal 0.618041 -0.749103 0.238473
  outer loop
   vertex 0.01002 -0.004005 0.055349
   vertex 0.014175 -0.000753 0.054796
   vertex 0.013088 0.000216 0.060657
  endloop
 endfacet
 facet normal 0.921493 -0.317696 0.223428
  outer loop
   vertex 0.014755 0.004253 0.059522
   vertex 0.013088 0.000216 0.060657
   vertex 0.014175 -0.000753 0.054796
  endloop
 endfacet
 facet normal 0.958064 0.258064 0.124567
  outer loop
   vertex 0.015186 0.005329 0.053978
   vertex 0.013925 0.008768 0.056552
   vertex 0.014755 0.004253 0.059522
  endloop
 endfacet
 facet normal 0.986401 -0.157772 0.0460633
  outer loop
   vertex 0.014755 0.004253 0.059522
   vertex 0.014175 -0.000753 0.054796
   vertex 0.015186 0.005329 0.053978
  endloop
 endfacet
 facet normal 0.658224 0.74816 0.0836605
  outer loop
   vertex 0.010173 0.012388 0.053699
   vertex 0.009908 0.012336 0.056249
   vertex 0.013925 0.008768 0.056552
  endloop
 endfacet
 facet normal 0.334419 0.941348 -0.0450332
  outer loop
   vertex 0.013565 0.008412 0.046437
   vertex 0.009396 0.010066 0.050052
   vertex 0.013925 0.008768 0.056552
  endloop
 endfacet
 facet normal 0.826459 0.560847 -0.0491534
  outer loop
   vertex 0.015748 0.005231 0.046846
   vertex 0.013565 0.008412 0.046437
   vertex 0.013925 0.008768 0.056552
  endloop
 endfacet
 facet normal 0.773275 0.447221 -0.449488
  outer loop
   vertex 0.009396 0.010066 0.050052
   vertex 0.010173 0.012388 0.053699
   vertex 0.013925 0.008768 0.056552
  endloop
 endfacet
 facet normal 0.952506 0.296129 0.0709882
  outer loop
   vertex 0.015748 0.005231 0.046846
   vertex 0.013925 0.008768 0.056552
   vertex 0.015186 0.005329 0.053978
  endloop
 endfacet
 facet normal 0.362836 0.930128 0.056674
  outer loop
   vertex 0.007283 0.013384 0.055855
   vertex 0.009908 0.012336 0.056249
   vertex 0.010173 0.012388 0.053699
  endloop
 endfacet
 facet normal -0.763772 0.64483 0.0291107
  outer loop
   vertex 0.003132 0.008489 0.055375
   vertex 0.007283 0.013384 0.055855
   vertex 0.006808 0.01301 0.051677
  endloop
 endfacet
 facet normal -0.990315 0.0878185 0.107541
  outer loop
   vertex 0.002387 0.007314 0.049474
   vertex 0.00259 0.00217 0.055544
   vertex 0.003132 0.008489 0.055375
  endloop
 endfacet
 facet normal -0.785211 0.61876 -0.0240739
  outer loop
   vertex 0.003132 0.008489 0.055375
   vertex 0.006808 0.01301 0.051677
   vertex 0.002387 0.007314 0.049474
  endloop
 endfacet
 facet normal 0.246499 0.962394 -0.114175
  outer loop
   vertex 0.007283 0.013384 0.055855
   vertex 0.010173 0.012388 0.053699
   vertex 0.006808 0.01301 0.051677
  endloop
 endfacet
 facet normal -0.997666 0.0318841 0.0603851
  outer loop
   vertex 0.002387 0.007314 0.049474
   vertex 0.002099 0.001486 0.047793
   vertex 0.00259 0.00217 0.055544
  endloop
 endfacet
 facet normal -0.839547 -0.533949 0.100302
  outer loop
   vertex 0.004856 -0.00154 0.054761
   vertex 0.00259 0.00217 0.055544
   vertex 0.002099 0.001486 0.047793
  endloop
 endfacet
 facet normal -0.858235 -0.498252 0.123198
  outer loop
   vertex 0.002099 0.001486 0.047793
   vertex 0.004706 -0.003392 0.046226
   vertex 0.004856 -0.00154 0.054761
  endloop
 endfacet
 facet normal -0.440522 -0.87569 0.197757
  outer loop
   vertex 0.01002 -0.004005 0.055349
   vertex 0.004856 -0.00154 0.054761
   vertex 0.004706 -0.003392 0.046226
  endloop
 endfacet
 facet normal -0.36803 -0.917182 0.152744
  outer loop
   vertex 0.004706 -0.003392 0.046226
   vertex 0.010373 -0.005392 0.047871
   vertex 0.01002 -0.004005 0.055349
  endloop
 endfacet
 facet normal 0.62127 -0.764676 0.171157
  outer loop
   vertex 0.010373 -0.005392 0.047871
   vertex 0.014175 -0.000753 0.054796
   vertex 0.01002 -0.004005 0.055349
  endloop
 endfacet
 facet normal 0.606815 -0.77308 0.184723
  outer loop
   vertex 0.010373 -0.005392 0.047871
   vertex 0.014892 -0.001848 0.047858
   vertex 0.014175 -0.000753 0.054796
  endloop
 endfacet
 facet normal 0.98136 -0.146382 0.124521
  outer loop
   vertex 0.015186 0.005329 0.053978
   vertex 0.014175 -0.000753 0.054796
   vertex 0.014892 -0.001848 0.047858
  endloop
 endfacet
 facet normal 0.990912 -0.108446 0.0795738
  outer loop
   vertex 0.015186 0.005329 0.053978
   vertex 0.014892 -0.001848 0.047858
   vertex 0.015748 0.005231 0.046846
  endloop
 endfacet
 facet normal 0.457335 0.702801 -0.5449
  outer loop
   vertex 0.006808 0.01301 0.051677
   vertex 0.010173 0.012388 0.053699
   vertex 0.009396 0.010066 0.050052
  endloop
 endfacet
 facet normal 0.88184 0.471388 -0.0123125
  outer loop
   vertex 0.016201 0.003326 0.040512
   vertex 0.013587 0.008196 0.039743
   vertex 0.013565 0.008412 0.046437
  endloop
 endfacet
 facet normal 0.346707 0.937522 -0.0291122
  outer loop
   vertex 0.009396 0.010066 0.050052
   vertex 0.013565 0.008412 0.046437
   vertex 0.013587 0.008196 0.039743
  endloop
 endfacet
 facet normal 0.826141 0.553156 -0.107281
  outer loop
   vertex 0.016201 0.003326 0.040512
   vertex 0.013565 0.008412 0.046437
   vertex 0.015748 0.005231 0.046846
  endloop
 endfacet
 facet normal 0.534188 0.814509 0.226316
  outer loop
   vertex 0.006233 0.013014 0.046908
   vertex 0.009396 0.010066 0.050052
   vertex 0.010014 0.012549 0.039657
  endloop
 endfacet
 facet normal 0.724005 0.684322 -0.0867195
  outer loop
   vertex 0.006808 0.01301 0.051677
   vertex 0.009396 0.010066 0.050052
   vertex 0.006233 0.013014 0.046908
  endloop
 endfacet
 facet normal 0.756362 0.624668 0.194178
  outer loop
   vertex 0.009396 0.010066 0.050052
   vertex 0.013587 0.008196 0.039743
   vertex 0.010014 0.012549 0.039657
  endloop
 endfacet
 facet normal 0.991701 -0.110531 0.0656607
  outer loop
   vertex 0.015748 0.005231 0.046846
   vertex 0.014892 -0.001848 0.047858
   vertex 0.015235 -0.002797 0.04108
  endloop
 endfacet
 facet normal 0.98294 -0.144521 0.113765
  outer loop
   vertex 0.015748 0.005231 0.046846
   vertex 0.015235 -0.002797 0.04108
   vertex 0.016201 0.003326 0.040512
  endloop
 endfacet
 facet normal -0.804115 0.586433 0.0974443
  outer loop
   vertex 0.002387 0.007314 0.049474
   vertex 0.006808 0.01301 0.051677
   vertex 0.006233 0.013014 0.046908
  endloop
 endfacet
 facet normal -0.957243 -0.0355054 0.287098
  outer loop
   vertex 0.000991 0.007278 0.044815
   vertex 0.002099 0.001486 0.047793
   vertex 0.002387 0.007314 0.049474
  endloop
 endfacet
 facet normal -0.758744 0.612169 0.222616
  outer loop
   vertex 0.002387 0.007314 0.049474
   vertex 0.006233 0.013014 0.046908
   vertex 0.000991 0.007278 0.044815
  endloop
 endfacet
 facet normal -0.83644 -0.510818 0.198578
  outer loop
   vertex 0.000372 0.00232 0.042664
   vertex 0.004706 -0.003392 0.046226
   vertex 0.002099 0.001486 0.047793
  endloop
 endfacet
 facet normal -0.948471 -0.0188111 0.316304
  outer loop
   vertex 0.000991 0.007278 0.044815
   vertex 0.000372 0.00232 0.042664
   vertex 0.002099 0.001486 0.047793
  endloop
 endfacet
 facet normal -0.779028 -0.624672 -0.0538521
  outer loop
   vertex 0.003132 -0.00065 0.037189
   vertex 0.004706 -0.003392 0.046226
   vertex 0.000372 0.00232 0.042664
  endloop
 endfacet
 facet normal -0.919997 -0.389668 0.0420056
  outer loop
   vertex 0.004804 -0.004742 0.035849
   vertex 0.004706 -0.003392 0.046226
   vertex 0.003132 -0.00065 0.037189
  endloop
 endfacet
 facet normal -0.358482 -0.927324 0.107519
  outer loop
   vertex 0.011265 -0.006655 0.039952
   vertex 0.010373 -0.005392 0.047871
   vertex 0.004706 -0.003392 0.046226
  endloop
 endfacet
 facet normal -0.349862 -0.92939 0.117605
  outer loop
   vertex 0.011265 -0.006655 0.039952
   vertex 0.004706 -0.003392 0.046226
   vertex 0.004804 -0.004742 0.035849
  endloop
 endfacet
 facet normal 0.606038 -0.772065 0.191401
  outer loop
   vertex 0.011265 -0.006655 0.039952
   vertex 0.014892 -0.001848 0.047858
   vertex 0.010373 -0.005392 0.047871
  endloop
 endfacet
 facet normal 0.670284 -0.729525 0.136062
  outer loop
   vertex 0.011265 -0.006655 0.039952
   vertex 0.015235 -0.002797 0.04108
   vertex 0.014892 -0.001848 0.047858
  endloop
 endfacet
 facet normal 0.888163 -0.452842 0.0781087
  outer loop
   vertex 0.014143 -0.00188 0.033731
   vertex 0.016269 0.002327 0.033947
   vertex 0.016201 0.003326 0.040512
  endloop
 endfacet
 facet normal 0.883445 0.464478 -0.0615293
  outer loop
   vertex 0.016269 0.002327 0.033947
   vertex 0.013587 0.008196 0.039743
   vertex 0.016201 0.003326 0.040512
  endloop
 endfacet
 facet normal 0.971695 -0.168646 -0.165429
  outer loop
   vertex 0.014143 -0.00188 0.033731
   vertex 0.016201 0.003326 0.040512
   vertex 0.015235 -0.002797 0.04108
  endloop
 endfacet
 facet normal 0.940047 0.32378 0.107133
  outer loop
   vertex 0.016269 0.002327 0.033947
   vertex 0.014344 0.008089 0.033424
   vertex 0.013587 0.008196 0.039743
  endloop
 endfacet
 facet normal 0.7696 0.633307 0.0814724
  outer loop
   vertex 0.010014 0.012549 0.039657
   vertex 0.013587 0.008196 0.039743
   vertex 0.014344 0.008089 0.033424
  endloop
 endfacet
 facet normal -0.758718 0.609096 0.230973
  outer loop
   vertex 0.000991 0.007278 0.044815
   vertex 0.006233 0.013014 0.046908
   vertex 0.005456 0.01466 0.040015
  endloop
 endfacet
 facet normal 0.425141 0.890033 0.164611
  outer loop
   vertex 0.006233 0.013014 0.046908
   vertex 0.010014 0.012549 0.039657
   vertex 0.005456 0.01466 0.040015
  endloop
 endfacet
 facet normal 0.416841 0.907818 -0.0459343
  outer loop
   vertex 0.005456 0.01466 0.040015
   vertex 0.010014 0.012549 0.039657
   vertex 0.010686 0.011937 0.03366
  endloop
 endfacet
 facet normal 0.725066 0.688592 0.0109764
  outer loop
   vertex 0.010014 0.012549 0.039657
   vertex 0.014344 0.008089 0.033424
   vertex 0.010686 0.011937 0.03366
  endloop
 endfacet
 facet normal 0.779572 -0.596703 -0.190294
  outer loop
   vertex 0.011513 -0.005633 0.034725
   vertex 0.014143 -0.00188 0.033731
   vertex 0.015235 -0.002797 0.04108
  endloop
 endfacet
 facet normal 0.708108 -0.698553 -0.102987
  outer loop
   vertex 0.011513 -0.005633 0.034725
   vertex 0.015235 -0.002797 0.04108
   vertex 0.011265 -0.006655 0.039952
  endloop
 endfacet
 facet normal -0.946181 -0.0219558 0.322893
  outer loop
   vertex -0.001339 0.008023 0.038038
   vertex 0.000372 0.00232 0.042664
   vertex 0.000991 0.007278 0.044815
  endloop
 endfacet
 facet normal -0.708659 0.63225 0.313148
  outer loop
   vertex 0.000991 0.007278 0.044815
   vertex 0.005456 0.01466 0.040015
   vertex -0.001339 0.008023 0.038038
  endloop
 endfacet
 facet normal -0.178569 -0.899798 0.398091
  outer loop
   vertex -0.001104 -0.000615 0.035368
   vertex 0.003132 -0.00065 0.037189
   vertex 0.000372 0.00232 0.042664
  endloop
 endfacet
 facet normal -0.912295 0.0554332 0.405766
  outer loop
   vertex -0.001339 0.008023 0.038038
   vertex -0.002645 0.002765 0.03582
   vertex 0.000372 0.00232 0.042664
  endloop
 endfacet
 facet normal -0.837207 -0.427335 0.341276
  outer loop
   vertex -0.001104 -0.000615 0.035368
   vertex 0.000372 0.00232 0.042664
   vertex -0.002645 0.002765 0.03582
  endloop
 endfacet
 facet normal -0.313715 -0.62155 0.717815
  outer loop
   vertex 0.001578 -0.003783 0.033797
   vertex 0.003132 -0.00065 0.037189
   vertex -0.001104 -0.000615 0.035368
  endloop
 endfacet
 facet normal -0.570154 -0.456612 0.682956
  outer loop
   vertex 0.004804 -0.004742 0.035849
   vertex 0.003132 -0.00065 0.037189
   vertex 0.001578 -0.003783 0.033797
  endloop
 endfacet
 facet normal -0.161396 -0.96708 -0.196744
  outer loop
   vertex 0.011513 -0.005633 0.034725
   vertex 0.011265 -0.006655 0.039952
   vertex 0.004804 -0.004742 0.035849
  endloop
 endfacet
 facet normal -0.437407 -0.851285 0.28981
  outer loop
   vertex 0.001578 -0.003783 0.033797
   vertex 0.004956 -0.006045 0.032251
   vertex 0.004804 -0.004742 0.035849
  endloop
 endfacet
 facet normal -0.0682147 -0.938972 0.337163
  outer loop
   vertex 0.011513 -0.005633 0.034725
   vertex 0.004804 -0.004742 0.035849
   vertex 0.004956 -0.006045 0.032251
  endloop
 endfacet
 facet normal 0.92617 -0.369602 -0.0748575
  outer loop
   vertex 0.012837 -0.003615 0.026139
   vertex 0.01392 -0.000569 0.024499
   vertex 0.014143 -0.00188 0.033731
  endloop
 endfacet
 facet normal 0.96589 -0.120946 -0.228972
  outer loop
   vertex 0.012813 0.004785 0.0246
   vertex 0.014649 0.005864 0.031775
   vertex 0.014143 -0.00188 0.033731
  endloop
 endfacet
 facet normal 0.55201 -0.237926 -0.799172
  outer loop
   vertex 0.014143 -0.00188 0.033731
   vertex 0.014649 0.005864 0.031775
   vertex 0.016269 0.002327 0.033947
  endloop
 endfacet
 facet normal 0.817759 -0.575488 -0.00915711
  outer loop
   vertex 0.012837 -0.003615 0.026139
   vertex 0.014143 -0.00188 0.033731
   vertex 0.011513 -0.005633 0.034725
  endloop
 endfacet
 facet normal 0.979293 0.202384 0.00508476
  outer loop
   vertex 0.012813 0.004785 0.0246
   vertex 0.014143 -0.00188 0.033731
   vertex 0.01392 -0.000569 0.024499
  endloop
 endfacet
 facet normal 0.93097 0.291012 -0.220471
  outer loop
   vertex 0.014649 0.005864 0.031775
   vertex 0.014344 0.008089 0.033424
   vertex 0.016269 0.002327 0.033947
  endloop
 endfacet
 facet normal 0.929219 0.293639 -0.224339
  outer loop
   vertex 0.014344 0.008089 0.033424
   vertex 0.014649 0.005864 0.031775
   vertex 0.012499 0.011349 0.030049
  endloop
 endfacet
 facet normal 0.709542 0.659243 0.248896
  outer loop
   vertex 0.014344 0.008089 0.033424
   vertex 0.012499 0.011349 0.030049
   vertex 0.010686 0.011937 0.03366
  endloop
 endfacet
 facet normal -0.666316 0.524213 0.530305
  outer loop
   vertex -0.001339 0.008023 0.038038
   vertex 0.005456 0.01466 0.040015
   vertex 0.0024 0.016035 0.034816
  endloop
 endfacet
 facet normal 0.440769 0.897357 -0.0217591
  outer loop
   vertex 0.005456 0.01466 0.040015
   vertex 0.010686 0.011937 0.03366
   vertex 0.0024 0.016035 0.034816
  endloop
 endfacet
 facet normal 0.726867 0.635029 0.261538
  outer loop
   vertex 0.010686 0.011937 0.03366
   vertex 0.012499 0.011349 0.030049
   vertex 0.009166 0.015073 0.03027
  endloop
 endfacet
 facet normal 0.303352 0.763433 0.570217
  outer loop
   vertex 0.010686 0.011937 0.03366
   vertex 0.009166 0.015073 0.03027
   vertex 0.00276 0.017664 0.030209
  endloop
 endfacet
 facet normal 0.455151 0.827706 0.328237
  outer loop
   vertex 0.010686 0.011937 0.03366
   vertex 0.00276 0.017664 0.030209
   vertex 0.0024 0.016035 0.034816
  endloop
 endfacet
 facet normal 0.11345 -0.98408 -0.136803
  outer loop
   vertex 0.011513 -0.005633 0.034725
   vertex 0.004956 -0.006045 0.032251
   vertex 0.008085 -0.005172 0.028566
  endloop
 endfacet
 facet normal 0.215768 -0.957431 -0.191756
  outer loop
   vertex 0.011513 -0.005633 0.034725
   vertex 0.008085 -0.005172 0.028566
   vertex 0.012837 -0.003615 0.026139
  endloop
 endfacet
 facet normal -0.70297 0.522223 0.48282
  outer loop
   vertex -0.001339 0.008023 0.038038
   vertex 0.0024 0.016035 0.034816
   vertex -0.0039 0.009558 0.032649
  endloop
 endfacet
 facet normal -0.898244 0.038424 0.437815
  outer loop
   vertex -0.0039 0.009558 0.032649
   vertex -0.002645 0.002765 0.03582
   vertex -0.001339 0.008023 0.038038
  endloop
 endfacet
 facet normal -0.506777 -0.69718 0.507067
  outer loop
   vertex -0.001104 -0.000615 0.035368
   vertex -0.005948 -0.002164 0.028397
   vertex -0.00034 -0.004996 0.030108
  endloop
 endfacet
 facet normal -0.708295 -0.400647 0.581206
  outer loop
   vertex -0.002645 0.002765 0.03582
   vertex -0.005948 -0.002164 0.028397
   vertex -0.001104 -0.000615 0.035368
  endloop
 endfacet
 facet normal -0.523345 -0.690601 0.49918
  outer loop
   vertex -0.001104 -0.000615 0.035368
   vertex -0.00034 -0.004996 0.030108
   vertex 0.001578 -0.003783 0.033797
  endloop
 endfacet
 facet normal -0.828723 0.103628 0.549982
  outer loop
   vertex -0.0039 0.009558 0.032649
   vertex -0.006449 0.004193 0.029819
   vertex -0.002645 0.002765 0.03582
  endloop
 endfacet
 facet normal -0.849722 -0.177981 0.496282
  outer loop
   vertex -0.002645 0.002765 0.03582
   vertex -0.006449 0.004193 0.029819
   vertex -0.005948 -0.002164 0.028397
  endloop
 endfacet
 facet normal -0.345302 -0.823415 0.450282
  outer loop
   vertex 0.001578 -0.003783 0.033797
   vertex -0.00034 -0.004996 0.030108
   vertex 0.004956 -0.006045 0.032251
  endloop
 endfacet
 facet normal -0.0726421 -0.9549 -0.287904
  outer loop
   vertex -0.00034 -0.004996 0.030108
   vertex 0.008085 -0.005172 0.028566
   vertex 0.004956 -0.006045 0.032251
  endloop
 endfacet
 facet normal -0.697854 -0.131006 -0.704157
  outer loop
   vertex 0.012813 0.004785 0.0246
   vertex 0.01392 -0.000569 0.024499
   vertex 0.012837 -0.003615 0.026139
  endloop
 endfacet
 facet normal -0.404887 -0.165901 -0.89919
  outer loop
   vertex 0.012813 0.004785 0.0246
   vertex 0.012837 -0.003615 0.026139
   vertex 0.008085 -0.005172 0.028566
  endloop
 endfacet
 facet normal -0.094442 0.112855 -0.989113
  outer loop
   vertex 0.006307 0.006913 0.025464
   vertex 0.012799 0.009585 0.025149
   vertex 0.012813 0.004785 0.0246
  endloop
 endfacet
 facet normal -0.165288 -0.107285 -0.980393
  outer loop
   vertex 0.006307 0.006913 0.025464
   vertex 0.012813 0.004785 0.0246
   vertex 0.007131 0.002171 0.025844
  endloop
 endfacet
 facet normal 0.967145 0.0316713 -0.252244
  outer loop
   vertex 0.012799 0.009585 0.025149
   vertex 0.014649 0.005864 0.031775
   vertex 0.012813 0.004785 0.0246
  endloop
 endfacet
 facet normal -0.0427007 -0.352136 -0.934974
  outer loop
   vertex 0.012813 0.004785 0.0246
   vertex 0.008085 -0.005172 0.028566
   vertex 0.007131 0.002171 0.025844
  endloop
 endfacet
 facet normal 0.935928 0.345729 -0.0671608
  outer loop
   vertex 0.012799 0.009585 0.025149
   vertex 0.012499 0.011349 0.030049
   vertex 0.014649 0.005864 0.031775
  endloop
 endfacet
 facet normal 0.707153 0.64949 -0.279458
  outer loop
   vertex 0.009002 0.013484 0.026162
   vertex 0.009166 0.015073 0.03027
   vertex 0.012499 0.011349 0.030049
  endloop
 endfacet
 facet normal 0.671357 0.709473 -0.214307
  outer loop
   vertex 0.009002 0.013484 0.026162
   vertex 0.012499 0.011349 0.030049
   vertex 0.012799 0.009585 0.025149
  endloop
 endfacet
 facet normal -0.729339 0.598532 0.331398
  outer loop
   vertex -0.003956 0.011885 0.028323
   vertex -0.0039 0.009558 0.032649
   vertex 0.0024 0.016035 0.034816
  endloop
 endfacet
 facet normal -0.670741 0.714185 0.200117
  outer loop
   vertex -0.003956 0.011885 0.028323
   vertex 0.0024 0.016035 0.034816
   vertex 0.00276 0.017664 0.030209
  endloop
 endfacet
 facet normal 0.354149 0.867369 -0.349642
  outer loop
   vertex 0.009166 0.015073 0.03027
   vertex 0.009002 0.013484 0.026162
   vertex 0.00276 0.017664 0.030209
  endloop
 endfacet
 facet normal -0.205866 0.511507 -0.834254
  outer loop
   vertex -0.003956 0.011885 0.028323
   vertex 0.00276 0.017664 0.030209
   vertex 0.004379 0.011733 0.026173
  endloop
 endfacet
 facet normal -0.196784 0.514307 -0.834724
  outer loop
   vertex 0.00276 0.017664 0.030209
   vertex 0.009002 0.013484 0.026162
   vertex 0.004379 0.011733 0.026173
  endloop
 endfacet
 facet normal 0.161905 -0.324433 -0.93195
  outer loop
   vertex 0.007131 0.002171 0.025844
   vertex 0.008085 -0.005172 0.028566
   vertex 0.000377 -0.004592 0.027025
  endloop
 endfacet
 facet normal -0.0463542 -0.989012 -0.140382
  outer loop
   vertex -0.00034 -0.004996 0.030108
   vertex 0.000377 -0.004592 0.027025
   vertex 0.008085 -0.005172 0.028566
  endloop
 endfacet
 facet normal -0.910062 0.263723 0.319745
  outer loop
   vertex -0.007874 0.004917 0.025166
   vertex -0.006449 0.004193 0.029819
   vertex -0.0039 0.009558 0.032649
  endloop
 endfacet
 facet normal -0.889296 0.397859 0.225524
  outer loop
   vertex -0.007874 0.004917 0.025166
   vertex -0.0039 0.009558 0.032649
   vertex -0.003956 0.011885 0.028323
  endloop
 endfacet
 facet normal -0.336812 -0.93587 0.103465
  outer loop
   vertex -0.005948 -0.002164 0.028397
   vertex -0.007315 -0.002053 0.024951
   vertex 0.000377 -0.004592 0.027025
  endloop
 endfacet
 facet normal -0.953038 -0.135676 0.270761
  outer loop
   vertex -0.005948 -0.002164 0.028397
   vertex -0.006449 0.004193 0.029819
   vertex -0.007874 0.004917 0.025166
  endloop
 endfacet
 facet normal -0.389554 -0.897171 -0.208163
  outer loop
   vertex -0.005948 -0.002164 0.028397
   vertex 0.000377 -0.004592 0.027025
   vertex -0.00034 -0.004996 0.030108
  endloop
 endfacet
 facet normal -0.927063 -0.0856102 0.365001
  outer loop
   vertex -0.005948 -0.002164 0.028397
   vertex -0.007874 0.004917 0.025166
   vertex -0.007315 -0.002053 0.024951
  endloop
 endfacet
 facet normal 0.167243 0.208636 -0.963587
  outer loop
   vertex 0.004379 0.011733 0.026173
   vertex 0.006307 0.006913 0.025464
   vertex -0.000998 0.007305 0.024281
  endloop
 endfacet
 facet normal 0.15694 -0.0517624 -0.986251
  outer loop
   vertex 0.007131 0.002171 0.025844
   vertex -0.000998 0.007305 0.024281
   vertex 0.006307 0.006913 0.025464
  endloop
 endfacet
 facet normal -0.0926874 0.108515 -0.989764
  outer loop
   vertex 0.004379 0.011733 0.026173
   vertex 0.012799 0.009585 0.025149
   vertex 0.006307 0.006913 0.025464
  endloop
 endfacet
 facet normal -0.0721693 0.184385 -0.980201
  outer loop
   vertex 0.004379 0.011733 0.026173
   vertex 0.009002 0.013484 0.026162
   vertex 0.012799 0.009585 0.025149
  endloop
 endfacet
 facet normal 0.172352 -0.0268776 -0.984669
  outer loop
   vertex 0.007131 0.002171 0.025844
   vertex -0.000138 3.4e-05 0.02463
   vertex -0.000998 0.007305 0.024281
  endloop
 endfacet
 facet normal 0.26811 -0.419223 -0.867392
  outer loop
   vertex 0.007131 0.002171 0.025844
   vertex 0.000377 -0.004592 0.027025
   vertex -0.000138 3.4e-05 0.02463
  endloop
 endfacet
 facet normal -0.285275 0.524004 -0.80252
  outer loop
   vertex -0.000998 0.007305 0.024281
   vertex -0.007874 0.004917 0.025166
   vertex -0.003956 0.011885 0.028323
  endloop
 endfacet
 facet normal -0.19441 0.575492 -0.794364
  outer loop
   vertex 0.004379 0.011733 0.026173
   vertex -0.000998 0.007305 0.024281
   vertex -0.003956 0.011885 0.028323
  endloop
 endfacet
 facet normal 0.0910711 -0.449837 -0.888455
  outer loop
   vertex -0.000138 3.4e-05 0.02463
   vertex 0.000377 -0.004592 0.027025
   vertex -0.007315 -0.002053 0.024951
  endloop
 endfacet
 facet normal -0.134386 0.0197827 -0.990732
  outer loop
   vertex -0.007315 -0.002053 0.024951
   vertex -0.007874 0.004917 0.025166
   vertex -0.000998 0.007305 0.024281
  endloop
 endfacet
 facet normal -0.0296929 -0.0514262 -0.998235
  outer loop
   vertex -0.007315 -0.002053 0.024951
   vertex -0.000998 0.007305 0.024281
   vertex -0.000138 3.4e-05 0.02463
  endloop
 endfacet
 facet normal 0.554486 -0.697559 0.453824
  outer loop
   vertex 0.001918 0.004125 0.063644
   vertex -0.000597 0.007218 0.071471
   vertex -0.000599 0.006761 0.070771
  endloop
 endfacet
endsolid
