solid ascii
 facet normal -0.46479 -0.748903 -0.47235
  outer loop
   vertex 0.047332 -0.137461 0.047591
   vertex 0.046574 -0.13741 0.048256
   vertex 0.045478 -0.135995 0.047091
  endloop
 endfacet
 facet normal -0.0628648 -0.392468 -0.917615
  outer loop
   vertex 0.047332 -0.137461 0.047591
   vertex 0.045478 -0.135995 0.047091
   vertex 0.047736 -0.136511 0.047157
  endloop
 endfacet
 facet normal -0.404391 -0.823553 -0.397779
  outer loop
   vertex 0.046574 -0.13741 0.048256
   vertex 0.047332 -0.137461 0.047591
   vertex 0.047778 -0.138007 0.048268
  endloop
 endfacet
 facet normal 0.155139 -0.464324 -0.871972
  outer loop
   vertex 0.047332 -0.137461 0.047591
   vertex 0.047736 -0.136511 0.047157
   vertex 0.048838 -0.137386 0.047819
  endloop
 endfacet
 facet normal 0.138326 -0.724406 -0.675353
  outer loop
   vertex 0.048838 -0.137386 0.047819
   vertex 0.047778 -0.138007 0.048268
   vertex 0.047332 -0.137461 0.047591
  endloop
 endfacet
 facet normal -0.408889 -0.7476 -0.523358
  outer loop
   vertex 0.04499 -0.135838 0.047248
   vertex 0.045478 -0.135995 0.047091
   vertex 0.046574 -0.13741 0.048256
  endloop
 endfacet
 facet normal -0.167387 -0.646142 -0.744635
  outer loop
   vertex 0.04499 -0.135838 0.047248
   vertex 0.046574 -0.13741 0.048256
   vertex 0.04189 -0.136109 0.04818
  endloop
 endfacet
 facet normal -0.136626 -0.931361 -0.337492
  outer loop
   vertex 0.0443 -0.137533 0.049516
   vertex 0.046574 -0.13741 0.048256
   vertex 0.047843 -0.138106 0.049663
  endloop
 endfacet
 facet normal -0.443484 -0.895257 -0.0428716
  outer loop
   vertex 0.047843 -0.138106 0.049663
   vertex 0.046574 -0.13741 0.048256
   vertex 0.047778 -0.138007 0.048268
  endloop
 endfacet
 facet normal -0.225917 -0.841988 -0.489917
  outer loop
   vertex 0.0443 -0.137533 0.049516
   vertex 0.04189 -0.136109 0.04818
   vertex 0.046574 -0.13741 0.048256
  endloop
 endfacet
 facet normal -0.0310487 -0.259338 -0.965287
  outer loop
   vertex 0.047736 -0.136511 0.047157
   vertex 0.045478 -0.135995 0.047091
   vertex 0.046315 -0.135589 0.046955
  endloop
 endfacet
 facet normal -0.358518 -0.203263 -0.911125
  outer loop
   vertex 0.045478 -0.135995 0.047091
   vertex 0.04499 -0.135838 0.047248
   vertex 0.045107 -0.135242 0.047069
  endloop
 endfacet
 facet normal -0.118402 -0.0872372 -0.989126
  outer loop
   vertex 0.046315 -0.135589 0.046955
   vertex 0.045478 -0.135995 0.047091
   vertex 0.045107 -0.135242 0.047069
  endloop
 endfacet
 facet normal 0.617717 0.203212 -0.759691
  outer loop
   vertex 0.048838 -0.137386 0.047819
   vertex 0.047736 -0.136511 0.047157
   vertex 0.048195 -0.136295 0.047588
  endloop
 endfacet
 facet normal 0.441519 0.520333 -0.730968
  outer loop
   vertex 0.048195 -0.136295 0.047588
   vertex 0.047736 -0.136511 0.047157
   vertex 0.046315 -0.135589 0.046955
  endloop
 endfacet
 facet normal 0.169961 -0.751235 -0.637776
  outer loop
   vertex 0.049128 -0.137643 0.048199
   vertex 0.047778 -0.138007 0.048268
   vertex 0.048838 -0.137386 0.047819
  endloop
 endfacet
 facet normal 0.242985 -0.943709 -0.224435
  outer loop
   vertex 0.049182 -0.137836 0.049069
   vertex 0.047778 -0.138007 0.048268
   vertex 0.049128 -0.137643 0.048199
  endloop
 endfacet
 facet normal 0.163956 -0.983424 -0.0774336
  outer loop
   vertex 0.049182 -0.137836 0.049069
   vertex 0.047843 -0.138106 0.049663
   vertex 0.047778 -0.138007 0.048268
  endloop
 endfacet
 facet normal 0.809354 0.382675 -0.445541
  outer loop
   vertex 0.048822 -0.136855 0.048246
   vertex 0.048838 -0.137386 0.047819
   vertex 0.048195 -0.136295 0.047588
  endloop
 endfacet
 facet normal 0.843536 0.351775 -0.405835
  outer loop
   vertex 0.048822 -0.136855 0.048246
   vertex 0.049128 -0.137643 0.048199
   vertex 0.048838 -0.137386 0.047819
  endloop
 endfacet
 facet normal -0.152659 -0.689311 -0.708198
  outer loop
   vertex 0.04189 -0.136109 0.04818
   vertex 0.042775 -0.135368 0.047268
   vertex 0.04499 -0.135838 0.047248
  endloop
 endfacet
 facet normal -0.131208 -0.261441 -0.95626
  outer loop
   vertex 0.045107 -0.135242 0.047069
   vertex 0.04499 -0.135838 0.047248
   vertex 0.044082 -0.135108 0.047173
  endloop
 endfacet
 facet normal -0.0413545 -0.152876 -0.98738
  outer loop
   vertex 0.04499 -0.135838 0.047248
   vertex 0.042775 -0.135368 0.047268
   vertex 0.044082 -0.135108 0.047173
  endloop
 endfacet
 facet normal -0.125047 -0.746041 -0.654053
  outer loop
   vertex 0.04189 -0.136109 0.04818
   vertex 0.039359 -0.134254 0.046548
   vertex 0.04207 -0.135472 0.047419
  endloop
 endfacet
 facet normal -0.0255565 -0.763583 -0.645203
  outer loop
   vertex 0.04189 -0.136109 0.04818
   vertex 0.04207 -0.135472 0.047419
   vertex 0.042775 -0.135368 0.047268
  endloop
 endfacet
 facet normal -0.0886743 -0.723393 -0.684719
  outer loop
   vertex 0.039359 -0.134254 0.046548
   vertex 0.04189 -0.136109 0.04818
   vertex 0.038552 -0.134723 0.047148
  endloop
 endfacet
 facet normal -0.320577 -0.877407 -0.356913
  outer loop
   vertex 0.04189 -0.136109 0.04818
   vertex 0.0443 -0.137533 0.049516
   vertex 0.038719 -0.135358 0.049182
  endloop
 endfacet
 facet normal -0.224861 -0.869299 -0.440178
  outer loop
   vertex 0.037789 -0.134715 0.047522
   vertex 0.038552 -0.134723 0.047148
   vertex 0.04189 -0.136109 0.04818
  endloop
 endfacet
 facet normal -0.28585 -0.936602 -0.202647
  outer loop
   vertex 0.04189 -0.136109 0.04818
   vertex 0.038719 -0.135358 0.049182
   vertex 0.037789 -0.134715 0.047522
  endloop
 endfacet
 facet normal -0.142365 -0.950828 -0.275059
  outer loop
   vertex 0.0443 -0.137533 0.049516
   vertex 0.047843 -0.138106 0.049663
   vertex 0.04782 -0.138323 0.050425
  endloop
 endfacet
 facet normal -0.364568 -0.897207 0.249218
  outer loop
   vertex 0.042746 -0.136686 0.050292
   vertex 0.038719 -0.135358 0.049182
   vertex 0.0443 -0.137533 0.049516
  endloop
 endfacet
 facet normal -0.370327 -0.833195 0.410664
  outer loop
   vertex 0.045061 -0.136642 0.05201
   vertex 0.0443 -0.137533 0.049516
   vertex 0.047278 -0.138138 0.050974
  endloop
 endfacet
 facet normal -0.239918 -0.966715 0.0888959
  outer loop
   vertex 0.047278 -0.138138 0.050974
   vertex 0.0443 -0.137533 0.049516
   vertex 0.04782 -0.138323 0.050425
  endloop
 endfacet
 facet normal -0.278232 -0.874488 0.397314
  outer loop
   vertex 0.0443 -0.137533 0.049516
   vertex 0.045061 -0.136642 0.05201
   vertex 0.042746 -0.136686 0.050292
  endloop
 endfacet
 facet normal 0.358636 -0.900581 -0.245629
  outer loop
   vertex 0.047843 -0.138106 0.049663
   vertex 0.048863 -0.137831 0.050144
   vertex 0.04782 -0.138323 0.050425
  endloop
 endfacet
 facet normal 0.227797 -0.971035 0.0721063
  outer loop
   vertex 0.049182 -0.137836 0.049069
   vertex 0.048863 -0.137831 0.050144
   vertex 0.047843 -0.138106 0.049663
  endloop
 endfacet
 facet normal 0.00213573 0.318812 -0.947816
  outer loop
   vertex 0.046315 -0.135589 0.046955
   vertex 0.045107 -0.135242 0.047069
   vertex 0.046023 -0.134823 0.047212
  endloop
 endfacet
 facet normal 0.428966 0.430042 -0.794388
  outer loop
   vertex 0.046023 -0.134823 0.047212
   vertex 0.048195 -0.136295 0.047588
   vertex 0.046315 -0.135589 0.046955
  endloop
 endfacet
 facet normal -0.112661 0.532582 -0.838846
  outer loop
   vertex 0.045107 -0.135242 0.047069
   vertex 0.04522 -0.134492 0.04753
   vertex 0.046023 -0.134823 0.047212
  endloop
 endfacet
 facet normal -0.0176065 0.525495 -0.850615
  outer loop
   vertex 0.04522 -0.134492 0.04753
   vertex 0.045107 -0.135242 0.047069
   vertex 0.044082 -0.135108 0.047173
  endloop
 endfacet
 facet normal 0.437647 0.896901 0.0635087
  outer loop
   vertex 0.048195 -0.136295 0.047588
   vertex 0.047413 -0.136191 0.051508
   vertex 0.048571 -0.13655 0.048598
  endloop
 endfacet
 facet normal 0.714829 0.693344 -0.0910708
  outer loop
   vertex 0.048822 -0.136855 0.048246
   vertex 0.048195 -0.136295 0.047588
   vertex 0.048571 -0.13655 0.048598
  endloop
 endfacet
 facet normal 0.548469 0.831596 0.0873493
  outer loop
   vertex 0.047413 -0.136191 0.051508
   vertex 0.048195 -0.136295 0.047588
   vertex 0.046023 -0.134823 0.047212
  endloop
 endfacet
 facet normal 0.897556 0.438927 0.041659
  outer loop
   vertex 0.048898 -0.137325 0.049804
   vertex 0.049182 -0.137836 0.049069
   vertex 0.049128 -0.137643 0.048199
  endloop
 endfacet
 facet normal 0.896194 0.441774 0.0408997
  outer loop
   vertex 0.049128 -0.137643 0.048199
   vertex 0.048571 -0.13655 0.048598
   vertex 0.048898 -0.137325 0.049804
  endloop
 endfacet
 facet normal 0.880228 0.320971 0.349536
  outer loop
   vertex 0.048822 -0.136855 0.048246
   vertex 0.048571 -0.13655 0.048598
   vertex 0.049128 -0.137643 0.048199
  endloop
 endfacet
 facet normal 0.951495 0.123525 0.281777
  outer loop
   vertex 0.048898 -0.137325 0.049804
   vertex 0.048863 -0.137831 0.050144
   vertex 0.049182 -0.137836 0.049069
  endloop
 endfacet
 facet normal -0.123255 -0.449254 -0.884861
  outer loop
   vertex 0.041833 -0.135017 0.047221
   vertex 0.042775 -0.135368 0.047268
   vertex 0.04207 -0.135472 0.047419
  endloop
 endfacet
 facet normal -0.0995894 0.140713 -0.985029
  outer loop
   vertex 0.044082 -0.135108 0.047173
   vertex 0.042775 -0.135368 0.047268
   vertex 0.043083 -0.134947 0.047297
  endloop
 endfacet
 facet normal 0.0592512 0.0253959 -0.99792
  outer loop
   vertex 0.041833 -0.135017 0.047221
   vertex 0.043083 -0.134947 0.047297
   vertex 0.042775 -0.135368 0.047268
  endloop
 endfacet
 facet normal 0.0660013 0.832842 -0.549562
  outer loop
   vertex 0.043083 -0.134947 0.047297
   vertex 0.04415 -0.134666 0.047851
   vertex 0.044082 -0.135108 0.047173
  endloop
 endfacet
 facet normal -0.283764 0.816046 -0.503534
  outer loop
   vertex 0.04415 -0.134666 0.047851
   vertex 0.04522 -0.134492 0.04753
   vertex 0.044082 -0.135108 0.047173
  endloop
 endfacet
 facet normal 0.153172 -0.326143 -0.932829
  outer loop
   vertex 0.041833 -0.135017 0.047221
   vertex 0.04207 -0.135472 0.047419
   vertex 0.039359 -0.134254 0.046548
  endloop
 endfacet
 facet normal 0.0463888 -0.412963 -0.909566
  outer loop
   vertex 0.039359 -0.134254 0.046548
   vertex 0.037385 -0.134359 0.046495
   vertex 0.039413 -0.133281 0.046109
  endloop
 endfacet
 facet normal 0.0589551 -0.823427 -0.564351
  outer loop
   vertex 0.039359 -0.134254 0.046548
   vertex 0.038552 -0.134723 0.047148
   vertex 0.037385 -0.134359 0.046495
  endloop
 endfacet
 facet normal 0.123523 -0.400369 -0.907991
  outer loop
   vertex 0.040528 -0.133916 0.046558
   vertex 0.041833 -0.135017 0.047221
   vertex 0.039359 -0.134254 0.046548
  endloop
 endfacet
 facet normal 0.127345 -0.413783 -0.901425
  outer loop
   vertex 0.040528 -0.133916 0.046558
   vertex 0.039359 -0.134254 0.046548
   vertex 0.039413 -0.133281 0.046109
  endloop
 endfacet
 facet normal -0.143838 -0.951162 -0.273133
  outer loop
   vertex 0.037789 -0.134715 0.047522
   vertex 0.037385 -0.134359 0.046495
   vertex 0.038552 -0.134723 0.047148
  endloop
 endfacet
 facet normal -0.439087 -0.892877 -0.0998607
  outer loop
   vertex 0.036832 -0.134491 0.049727
   vertex 0.037789 -0.134715 0.047522
   vertex 0.038719 -0.135358 0.049182
  endloop
 endfacet
 facet normal -0.381361 -0.847123 0.370063
  outer loop
   vertex 0.039575 -0.135068 0.050728
   vertex 0.038719 -0.135358 0.049182
   vertex 0.042746 -0.136686 0.050292
  endloop
 endfacet
 facet normal -0.310384 -0.888306 0.338489
  outer loop
   vertex 0.039575 -0.135068 0.050728
   vertex 0.036832 -0.134491 0.049727
   vertex 0.038719 -0.135358 0.049182
  endloop
 endfacet
 facet normal 0.0298729 -0.940726 -0.337849
  outer loop
   vertex 0.037789 -0.134715 0.047522
   vertex 0.03558 -0.134152 0.045759
   vertex 0.037385 -0.134359 0.046495
  endloop
 endfacet
 facet normal -0.242093 -0.970231 -0.0065043
  outer loop
   vertex 0.037789 -0.134715 0.047522
   vertex 0.036832 -0.134491 0.049727
   vertex 0.03558 -0.134152 0.045759
  endloop
 endfacet
 facet normal 0.102696 -0.907545 0.407205
  outer loop
   vertex 0.04782 -0.138323 0.050425
   vertex 0.048632 -0.137808 0.051368
   vertex 0.047278 -0.138138 0.050974
  endloop
 endfacet
 facet normal 0.446571 -0.88903 0.100991
  outer loop
   vertex 0.048632 -0.137808 0.051368
   vertex 0.04782 -0.138323 0.050425
   vertex 0.048863 -0.137831 0.050144
  endloop
 endfacet
 facet normal -0.46934 -0.600059 0.647803
  outer loop
   vertex 0.042796 -0.135489 0.051437
   vertex 0.042746 -0.136686 0.050292
   vertex 0.045061 -0.136642 0.05201
  endloop
 endfacet
 facet normal -0.304916 -0.754271 0.581465
  outer loop
   vertex 0.039575 -0.135068 0.050728
   vertex 0.042746 -0.136686 0.050292
   vertex 0.041087 -0.135468 0.051002
  endloop
 endfacet
 facet normal -0.18988 -0.674509 0.71343
  outer loop
   vertex 0.042746 -0.136686 0.050292
   vertex 0.042796 -0.135489 0.051437
   vertex 0.041087 -0.135468 0.051002
  endloop
 endfacet
 facet normal -0.122955 -0.681683 0.721242
  outer loop
   vertex 0.047278 -0.138138 0.050974
   vertex 0.048257 -0.137593 0.051656
   vertex 0.045061 -0.136642 0.05201
  endloop
 endfacet
 facet normal -0.104922 -0.636908 0.763767
  outer loop
   vertex 0.045061 -0.136642 0.05201
   vertex 0.048257 -0.137593 0.051656
   vertex 0.046615 -0.136603 0.052256
  endloop
 endfacet
 facet normal -0.127551 -0.460054 0.878682
  outer loop
   vertex 0.046615 -0.136603 0.052256
   vertex 0.045403 -0.135948 0.052423
   vertex 0.045061 -0.136642 0.05201
  endloop
 endfacet
 facet normal -0.269686 -0.390834 0.880067
  outer loop
   vertex 0.045403 -0.135948 0.052423
   vertex 0.043234 -0.135298 0.052047
   vertex 0.045061 -0.136642 0.05201
  endloop
 endfacet
 facet normal -0.484153 -0.673524 0.558535
  outer loop
   vertex 0.045061 -0.136642 0.05201
   vertex 0.043234 -0.135298 0.052047
   vertex 0.042796 -0.135489 0.051437
  endloop
 endfacet
 facet normal 0.0152115 -0.791652 0.610783
  outer loop
   vertex 0.048632 -0.137808 0.051368
   vertex 0.048257 -0.137593 0.051656
   vertex 0.047278 -0.138138 0.050974
  endloop
 endfacet
 facet normal 0.916116 0.364915 0.166036
  outer loop
   vertex 0.048863 -0.137831 0.050144
   vertex 0.048324 -0.136997 0.051285
   vertex 0.048632 -0.137808 0.051368
  endloop
 endfacet
 facet normal 0.910597 0.0240308 0.412596
  outer loop
   vertex 0.048761 -0.137228 0.050334
   vertex 0.048324 -0.136997 0.051285
   vertex 0.048863 -0.137831 0.050144
  endloop
 endfacet
 facet normal 0.968111 0.0901091 0.233757
  outer loop
   vertex 0.048898 -0.137325 0.049804
   vertex 0.048761 -0.137228 0.050334
   vertex 0.048863 -0.137831 0.050144
  endloop
 endfacet
 facet normal 0.426008 0.892786 0.146458
  outer loop
   vertex 0.046023 -0.134823 0.047212
   vertex 0.04522 -0.134492 0.04753
   vertex 0.047413 -0.136191 0.051508
  endloop
 endfacet
 facet normal 0.411901 0.897717 0.156341
  outer loop
   vertex 0.047413 -0.136191 0.051508
   vertex 0.04522 -0.134492 0.04753
   vertex 0.045489 -0.134974 0.049589
  endloop
 endfacet
 facet normal -0.103696 0.977411 0.184159
  outer loop
   vertex 0.04415 -0.134666 0.047851
   vertex 0.044719 -0.134925 0.049546
   vertex 0.04522 -0.134492 0.04753
  endloop
 endfacet
 facet normal 0.0496178 0.973896 0.221505
  outer loop
   vertex 0.04522 -0.134492 0.04753
   vertex 0.044719 -0.134925 0.049546
   vertex 0.045489 -0.134974 0.049589
  endloop
 endfacet
 facet normal 0.676165 0.71418 0.180966
  outer loop
   vertex 0.048571 -0.13655 0.048598
   vertex 0.047413 -0.136191 0.051508
   vertex 0.048324 -0.136997 0.051285
  endloop
 endfacet
 facet normal 0.465247 0.823653 0.324254
  outer loop
   vertex 0.046341 -0.135826 0.052119
   vertex 0.047413 -0.136191 0.051508
   vertex 0.044845 -0.134992 0.052147
  endloop
 endfacet
 facet normal 0.350583 0.909094 0.225034
  outer loop
   vertex 0.047413 -0.136191 0.051508
   vertex 0.045489 -0.134974 0.049589
   vertex 0.044713 -0.134851 0.050301
  endloop
 endfacet
 facet normal 0.444563 0.887489 0.121353
  outer loop
   vertex 0.044845 -0.134992 0.052147
   vertex 0.047413 -0.136191 0.051508
   vertex 0.044168 -0.134567 0.051519
  endloop
 endfacet
 facet normal 0.447504 0.894244 -0.00826125
  outer loop
   vertex 0.044168 -0.134567 0.051519
   vertex 0.047413 -0.136191 0.051508
   vertex 0.044713 -0.134851 0.050301
  endloop
 endfacet
 facet normal 0.514333 0.390241 0.763658
  outer loop
   vertex 0.048257 -0.137593 0.051656
   vertex 0.047413 -0.136191 0.051508
   vertex 0.046615 -0.136603 0.052256
  endloop
 endfacet
 facet normal 0.536873 0.401523 0.741988
  outer loop
   vertex 0.048324 -0.136997 0.051285
   vertex 0.047413 -0.136191 0.051508
   vertex 0.048257 -0.137593 0.051656
  endloop
 endfacet
 facet normal 0.549688 0.329216 0.767763
  outer loop
   vertex 0.046341 -0.135826 0.052119
   vertex 0.046615 -0.136603 0.052256
   vertex 0.047413 -0.136191 0.051508
  endloop
 endfacet
 facet normal 0.835836 0.536164 0.117923
  outer loop
   vertex 0.048761 -0.137228 0.050334
   vertex 0.048898 -0.137325 0.049804
   vertex 0.048571 -0.13655 0.048598
  endloop
 endfacet
 facet normal 0.732254 0.657701 0.176726
  outer loop
   vertex 0.048324 -0.136997 0.051285
   vertex 0.048761 -0.137228 0.050334
   vertex 0.048571 -0.13655 0.048598
  endloop
 endfacet
 facet normal 0.0230513 0.517272 -0.855511
  outer loop
   vertex 0.042222 -0.134214 0.047717
   vertex 0.043083 -0.134947 0.047297
   vertex 0.041833 -0.135017 0.047221
  endloop
 endfacet
 facet normal 0.621346 0.300799 -0.723498
  outer loop
   vertex 0.041464 -0.133716 0.047445
   vertex 0.041833 -0.135017 0.047221
   vertex 0.040528 -0.133916 0.046558
  endloop
 endfacet
 facet normal 0.481732 0.279625 -0.830508
  outer loop
   vertex 0.041833 -0.135017 0.047221
   vertex 0.041464 -0.133716 0.047445
   vertex 0.042222 -0.134214 0.047717
  endloop
 endfacet
 facet normal -0.172537 0.971817 -0.160631
  outer loop
   vertex 0.04415 -0.134666 0.047851
   vertex 0.043083 -0.134947 0.047297
   vertex 0.043482 -0.134536 0.049355
  endloop
 endfacet
 facet normal 0.547017 0.794184 -0.26466
  outer loop
   vertex 0.042222 -0.134214 0.047717
   vertex 0.043482 -0.134536 0.049355
   vertex 0.043083 -0.134947 0.047297
  endloop
 endfacet
 facet normal 0.292951 0.954943 0.047574
  outer loop
   vertex 0.043482 -0.134536 0.049355
   vertex 0.044719 -0.134925 0.049546
   vertex 0.04415 -0.134666 0.047851
  endloop
 endfacet
 facet normal 0.18053 -0.614595 -0.767908
  outer loop
   vertex 0.038138 -0.132566 0.045237
   vertex 0.039413 -0.133281 0.046109
   vertex 0.037385 -0.134359 0.046495
  endloop
 endfacet
 facet normal 0.0916653 -0.877093 -0.471494
  outer loop
   vertex 0.037385 -0.134359 0.046495
   vertex 0.03558 -0.134152 0.045759
   vertex 0.03596 -0.133357 0.044354
  endloop
 endfacet
 facet normal 0.335246 -0.747778 -0.573095
  outer loop
   vertex 0.03596 -0.133357 0.044354
   vertex 0.036585 -0.133004 0.044259
   vertex 0.037385 -0.134359 0.046495
  endloop
 endfacet
 facet normal 0.534738 -0.624203 -0.569584
  outer loop
   vertex 0.038138 -0.132566 0.045237
   vertex 0.037385 -0.134359 0.046495
   vertex 0.036585 -0.133004 0.044259
  endloop
 endfacet
 facet normal 0.467292 0.213962 -0.857822
  outer loop
   vertex 0.039748 -0.132429 0.046504
   vertex 0.040528 -0.133916 0.046558
   vertex 0.039413 -0.133281 0.046109
  endloop
 endfacet
 facet normal 0.685884 0.0662901 -0.724686
  outer loop
   vertex 0.039748 -0.132429 0.046504
   vertex 0.039413 -0.133281 0.046109
   vertex 0.038235 -0.131478 0.045159
  endloop
 endfacet
 facet normal 0.519655 -0.107098 -0.847637
  outer loop
   vertex 0.038235 -0.131478 0.045159
   vertex 0.039413 -0.133281 0.046109
   vertex 0.038138 -0.132566 0.045237
  endloop
 endfacet
 facet normal 0.621675 0.299817 -0.723623
  outer loop
   vertex 0.040528 -0.133916 0.046558
   vertex 0.039748 -0.132429 0.046504
   vertex 0.041464 -0.133716 0.047445
  endloop
 endfacet
 facet normal -0.121374 -0.9547 0.27169
  outer loop
   vertex 0.036832 -0.134491 0.049727
   vertex 0.036853 -0.134159 0.050903
   vertex 0.036309 -0.13405 0.051043
  endloop
 endfacet
 facet normal -0.290084 -0.919636 0.264803
  outer loop
   vertex 0.039575 -0.135068 0.050728
   vertex 0.036853 -0.134159 0.050903
   vertex 0.036832 -0.134491 0.049727
  endloop
 endfacet
 facet normal -0.192029 -0.95099 0.242367
  outer loop
   vertex 0.036309 -0.13405 0.051043
   vertex 0.033491 -0.133732 0.050058
   vertex 0.036832 -0.134491 0.049727
  endloop
 endfacet
 facet normal -0.222736 -0.974792 -0.0130016
  outer loop
   vertex 0.036832 -0.134491 0.049727
   vertex 0.033491 -0.133732 0.050058
   vertex 0.03558 -0.134152 0.045759
  endloop
 endfacet
 facet normal -0.273755 -0.45396 0.847926
  outer loop
   vertex 0.039991 -0.13437 0.051236
   vertex 0.039575 -0.135068 0.050728
   vertex 0.041087 -0.135468 0.051002
  endloop
 endfacet
 facet normal -0.0804343 -0.554758 0.828115
  outer loop
   vertex 0.039575 -0.135068 0.050728
   vertex 0.039991 -0.13437 0.051236
   vertex 0.037181 -0.133361 0.051639
  endloop
 endfacet
 facet normal -0.16237 -0.632088 0.757695
  outer loop
   vertex 0.037181 -0.133361 0.051639
   vertex 0.036853 -0.134159 0.050903
   vertex 0.039575 -0.135068 0.050728
  endloop
 endfacet
 facet normal -0.221236 -0.821911 -0.524898
  outer loop
   vertex 0.03526 -0.133493 0.044862
   vertex 0.03596 -0.133357 0.044354
   vertex 0.03558 -0.134152 0.045759
  endloop
 endfacet
 facet normal -0.478866 -0.693694 -0.53803
  outer loop
   vertex 0.034514 -0.133458 0.045813
   vertex 0.03558 -0.134152 0.045759
   vertex 0.034179 -0.13381 0.046565
  endloop
 endfacet
 facet normal -0.518403 -0.766844 -0.378429
  outer loop
   vertex 0.034514 -0.133458 0.045813
   vertex 0.03526 -0.133493 0.044862
   vertex 0.03558 -0.134152 0.045759
  endloop
 endfacet
 facet normal -0.21465 -0.976651 -0.00889074
  outer loop
   vertex 0.03558 -0.134152 0.045759
   vertex 0.033491 -0.133732 0.050058
   vertex 0.033486 -0.133715 0.048311
  endloop
 endfacet
 facet normal -0.265481 -0.962658 -0.0529955
  outer loop
   vertex 0.034179 -0.13381 0.046565
   vertex 0.03558 -0.134152 0.045759
   vertex 0.033486 -0.133715 0.048311
  endloop
 endfacet
 facet normal 0.686379 0.327148 0.649506
  outer loop
   vertex 0.048324 -0.136997 0.051285
   vertex 0.048257 -0.137593 0.051656
   vertex 0.048632 -0.137808 0.051368
  endloop
 endfacet
 facet normal -0.229452 -0.412611 0.881535
  outer loop
   vertex 0.042139 -0.134957 0.051515
   vertex 0.041087 -0.135468 0.051002
   vertex 0.042796 -0.135489 0.051437
  endloop
 endfacet
 facet normal -0.600544 -0.53128 0.597568
  outer loop
   vertex 0.042796 -0.135489 0.051437
   vertex 0.043234 -0.135298 0.052047
   vertex 0.042729 -0.134933 0.051864
  endloop
 endfacet
 facet normal -0.393421 -0.589317 0.705639
  outer loop
   vertex 0.042139 -0.134957 0.051515
   vertex 0.042796 -0.135489 0.051437
   vertex 0.042729 -0.134933 0.051864
  endloop
 endfacet
 facet normal -0.240234 -0.395423 0.886526
  outer loop
   vertex 0.041306 -0.13485 0.051337
   vertex 0.041087 -0.135468 0.051002
   vertex 0.042139 -0.134957 0.051515
  endloop
 endfacet
 facet normal -0.21607 -0.405009 0.888415
  outer loop
   vertex 0.039991 -0.13437 0.051236
   vertex 0.041087 -0.135468 0.051002
   vertex 0.041306 -0.13485 0.051337
  endloop
 endfacet
 facet normal 0.267344 0.257976 0.928426
  outer loop
   vertex 0.046341 -0.135826 0.052119
   vertex 0.045403 -0.135948 0.052423
   vertex 0.046615 -0.136603 0.052256
  endloop
 endfacet
 facet normal 0.236494 0.394401 0.887986
  outer loop
   vertex 0.044845 -0.134992 0.052147
   vertex 0.045403 -0.135948 0.052423
   vertex 0.046341 -0.135826 0.052119
  endloop
 endfacet
 facet normal -0.10209 0.220464 0.970038
  outer loop
   vertex 0.045403 -0.135948 0.052423
   vertex 0.044845 -0.134992 0.052147
   vertex 0.043234 -0.135298 0.052047
  endloop
 endfacet
 facet normal -0.0521805 -0.0512146 0.997324
  outer loop
   vertex 0.044845 -0.134992 0.052147
   vertex 0.043136 -0.134575 0.052079
   vertex 0.043234 -0.135298 0.052047
  endloop
 endfacet
 facet normal -0.398799 -0.0944286 0.912164
  outer loop
   vertex 0.042729 -0.134933 0.051864
   vertex 0.043234 -0.135298 0.052047
   vertex 0.043136 -0.134575 0.052079
  endloop
 endfacet
 facet normal 0.0686044 0.992939 -0.096775
  outer loop
   vertex 0.044713 -0.134851 0.050301
   vertex 0.045489 -0.134974 0.049589
   vertex 0.044719 -0.134925 0.049546
  endloop
 endfacet
 facet normal -0.120363 0.987903 -0.0977825
  outer loop
   vertex 0.044206 -0.134909 0.050339
   vertex 0.044713 -0.134851 0.050301
   vertex 0.044719 -0.134925 0.049546
  endloop
 endfacet
 facet normal 0.273918 0.948674 0.158073
  outer loop
   vertex 0.043482 -0.134536 0.049355
   vertex 0.044206 -0.134909 0.050339
   vertex 0.044719 -0.134925 0.049546
  endloop
 endfacet
 facet normal 0.149597 0.723056 0.674397
  outer loop
   vertex 0.044845 -0.134992 0.052147
   vertex 0.043651 -0.134509 0.051894
   vertex 0.043136 -0.134575 0.052079
  endloop
 endfacet
 facet normal 0.307441 0.908407 0.28333
  outer loop
   vertex 0.044168 -0.134567 0.051519
   vertex 0.043651 -0.134509 0.051894
   vertex 0.044845 -0.134992 0.052147
  endloop
 endfacet
 facet normal -0.130231 0.948018 -0.290348
  outer loop
   vertex 0.044206 -0.134909 0.050339
   vertex 0.043651 -0.134509 0.051894
   vertex 0.044713 -0.134851 0.050301
  endloop
 endfacet
 facet normal -0.0810644 0.962043 -0.260581
  outer loop
   vertex 0.043651 -0.134509 0.051894
   vertex 0.044168 -0.134567 0.051519
   vertex 0.044713 -0.134851 0.050301
  endloop
 endfacet
 facet normal 0.575767 0.807963 -0.12525
  outer loop
   vertex 0.042222 -0.134214 0.047717
   vertex 0.041464 -0.133716 0.047445
   vertex 0.040692 -0.132971 0.048702
  endloop
 endfacet
 facet normal 0.516821 0.822987 -0.23577
  outer loop
   vertex 0.043482 -0.134536 0.049355
   vertex 0.042222 -0.134214 0.047717
   vertex 0.040692 -0.132971 0.048702
  endloop
 endfacet
 facet normal 0.624827 0.776981 -0.0767572
  outer loop
   vertex 0.041464 -0.133716 0.047445
   vertex 0.039748 -0.132429 0.046504
   vertex 0.040692 -0.132971 0.048702
  endloop
 endfacet
 facet normal 0.245043 0.95251 0.180773
  outer loop
   vertex 0.044206 -0.134909 0.050339
   vertex 0.043482 -0.134536 0.049355
   vertex 0.042597 -0.13453 0.050523
  endloop
 endfacet
 facet normal 0.438518 0.796354 0.416561
  outer loop
   vertex 0.043482 -0.134536 0.049355
   vertex 0.041904 -0.133881 0.049764
   vertex 0.041794 -0.134128 0.050352
  endloop
 endfacet
 facet normal 0.38029 0.880306 0.283621
  outer loop
   vertex 0.042597 -0.13453 0.050523
   vertex 0.043482 -0.134536 0.049355
   vertex 0.041794 -0.134128 0.050352
  endloop
 endfacet
 facet normal 0.426501 0.867361 0.256479
  outer loop
   vertex 0.040692 -0.132971 0.048702
   vertex 0.041904 -0.133881 0.049764
   vertex 0.043482 -0.134536 0.049355
  endloop
 endfacet
 facet normal 0.567928 -0.331771 -0.75325
  outer loop
   vertex 0.038138 -0.132566 0.045237
   vertex 0.036585 -0.133004 0.044259
   vertex 0.037451 -0.132071 0.044501
  endloop
 endfacet
 facet normal 0.687417 -0.112723 -0.717462
  outer loop
   vertex 0.038235 -0.131478 0.045159
   vertex 0.038138 -0.132566 0.045237
   vertex 0.037451 -0.132071 0.044501
  endloop
 endfacet
 facet normal 0.209384 -0.582144 -0.785663
  outer loop
   vertex 0.036056 -0.132757 0.043935
   vertex 0.036585 -0.133004 0.044259
   vertex 0.03596 -0.133357 0.044354
  endloop
 endfacet
 facet normal -0.546322 -0.21339 -0.809937
  outer loop
   vertex 0.035769 -0.132367 0.044222
   vertex 0.03596 -0.133357 0.044354
   vertex 0.03526 -0.133493 0.044862
  endloop
 endfacet
 facet normal -0.82577 -0.22809 -0.515828
  outer loop
   vertex 0.035769 -0.132367 0.044222
   vertex 0.036056 -0.132757 0.043935
   vertex 0.03596 -0.133357 0.044354
  endloop
 endfacet
 facet normal 0.379655 -0.323708 -0.866646
  outer loop
   vertex 0.036585 -0.133004 0.044259
   vertex 0.036056 -0.132757 0.043935
   vertex 0.036721 -0.132301 0.044056
  endloop
 endfacet
 facet normal 0.564901 -0.327939 -0.757194
  outer loop
   vertex 0.036585 -0.133004 0.044259
   vertex 0.036721 -0.132301 0.044056
   vertex 0.037451 -0.132071 0.044501
  endloop
 endfacet
 facet normal 0.712681 0.583813 -0.388905
  outer loop
   vertex 0.038235 -0.131478 0.045159
   vertex 0.037255 -0.130289 0.045148
   vertex 0.039748 -0.132429 0.046504
  endloop
 endfacet
 facet normal 0.673777 0.730827 -0.109161
  outer loop
   vertex 0.040692 -0.132971 0.048702
   vertex 0.039748 -0.132429 0.046504
   vertex 0.037414 -0.129771 0.049893
  endloop
 endfacet
 facet normal 0.746998 0.66479 -0.00694071
  outer loop
   vertex 0.037414 -0.129771 0.049893
   vertex 0.039748 -0.132429 0.046504
   vertex 0.037804 -0.130251 0.045891
  endloop
 endfacet
 facet normal 0.697812 0.470945 -0.539694
  outer loop
   vertex 0.039748 -0.132429 0.046504
   vertex 0.037255 -0.130289 0.045148
   vertex 0.037804 -0.130251 0.045891
  endloop
 endfacet
 facet normal 0.642024 0.523995 -0.559673
  outer loop
   vertex 0.037255 -0.130289 0.045148
   vertex 0.038235 -0.131478 0.045159
   vertex 0.037164 -0.130703 0.044656
  endloop
 endfacet
 facet normal 0.53364 0.204923 -0.820509
  outer loop
   vertex 0.037451 -0.132071 0.044501
   vertex 0.037164 -0.130703 0.044656
   vertex 0.038235 -0.131478 0.045159
  endloop
 endfacet
 facet normal 0.0485422 -0.687883 0.724197
  outer loop
   vertex 0.036309 -0.13405 0.051043
   vertex 0.036853 -0.134159 0.050903
   vertex 0.037181 -0.133361 0.051639
  endloop
 endfacet
 facet normal 0.125006 -0.734846 0.666614
  outer loop
   vertex 0.03615 -0.133589 0.051581
   vertex 0.036309 -0.13405 0.051043
   vertex 0.037181 -0.133361 0.051639
  endloop
 endfacet
 facet normal -0.0978811 -0.76982 0.630711
  outer loop
   vertex 0.03615 -0.133589 0.051581
   vertex 0.03466 -0.132858 0.052242
   vertex 0.036309 -0.13405 0.051043
  endloop
 endfacet
 facet normal -0.241782 -0.880658 0.407411
  outer loop
   vertex 0.033491 -0.133732 0.050058
   vertex 0.036309 -0.13405 0.051043
   vertex 0.034383 -0.133165 0.051813
  endloop
 endfacet
 facet normal -0.106761 -0.774656 0.623306
  outer loop
   vertex 0.036309 -0.13405 0.051043
   vertex 0.03466 -0.132858 0.052242
   vertex 0.034383 -0.133165 0.051813
  endloop
 endfacet
 facet normal -0.422227 0.903196 -0.0772023
  outer loop
   vertex 0.033491 -0.133732 0.050058
   vertex 0.034383 -0.133165 0.051813
   vertex 0.034215 -0.133315 0.050977
  endloop
 endfacet
 facet normal -0.50843 0.861047 0.00983487
  outer loop
   vertex 0.033486 -0.133715 0.048311
   vertex 0.033491 -0.133732 0.050058
   vertex 0.034215 -0.133315 0.050977
  endloop
 endfacet
 facet normal 0.0358525 -0.282968 0.958459
  outer loop
   vertex 0.039991 -0.13437 0.051236
   vertex 0.03826 -0.132032 0.051991
   vertex 0.037181 -0.133361 0.051639
  endloop
 endfacet
 facet normal 0.332821 -0.0575361 0.941233
  outer loop
   vertex 0.038655 -0.131563 0.05188
   vertex 0.03826 -0.132032 0.051991
   vertex 0.039991 -0.13437 0.051236
  endloop
 endfacet
 facet normal 0.169095 -0.104843 0.980008
  outer loop
   vertex 0.039921 -0.133006 0.051394
   vertex 0.039991 -0.13437 0.051236
   vertex 0.040698 -0.134314 0.05112
  endloop
 endfacet
 facet normal 0.257165 -0.0981647 0.961369
  outer loop
   vertex 0.039991 -0.13437 0.051236
   vertex 0.039921 -0.133006 0.051394
   vertex 0.038655 -0.131563 0.05188
  endloop
 endfacet
 facet normal 0.105877 0.473997 0.874138
  outer loop
   vertex 0.040698 -0.134314 0.05112
   vertex 0.039991 -0.13437 0.051236
   vertex 0.041306 -0.13485 0.051337
  endloop
 endfacet
 facet normal 0.00272568 -0.2581 0.966114
  outer loop
   vertex 0.03826 -0.132032 0.051991
   vertex 0.03615 -0.133589 0.051581
   vertex 0.037181 -0.133361 0.051639
  endloop
 endfacet
 facet normal -0.198438 0.961314 -0.191044
  outer loop
   vertex 0.035236 -0.13277 0.048525
   vertex 0.03526 -0.133493 0.044862
   vertex 0.034514 -0.133458 0.045813
  endloop
 endfacet
 facet normal -0.923531 0.376781 -0.0715945
  outer loop
   vertex 0.035957 -0.131811 0.044723
   vertex 0.035769 -0.132367 0.044222
   vertex 0.03526 -0.133493 0.044862
  endloop
 endfacet
 facet normal -0.833733 0.540653 -0.112176
  outer loop
   vertex 0.035829 -0.132079 0.047448
   vertex 0.03526 -0.133493 0.044862
   vertex 0.035236 -0.13277 0.048525
  endloop
 endfacet
 facet normal -0.912516 0.362469 -0.189557
  outer loop
   vertex 0.035957 -0.131811 0.044723
   vertex 0.03526 -0.133493 0.044862
   vertex 0.035853 -0.131519 0.045782
  endloop
 endfacet
 facet normal -0.963991 0.255961 0.0721511
  outer loop
   vertex 0.035829 -0.132079 0.047448
   vertex 0.035853 -0.131519 0.045782
   vertex 0.03526 -0.133493 0.044862
  endloop
 endfacet
 facet normal -0.712006 0.70208 0.0114447
  outer loop
   vertex 0.035236 -0.13277 0.048525
   vertex 0.034514 -0.133458 0.045813
   vertex 0.034179 -0.13381 0.046565
  endloop
 endfacet
 facet normal -0.441991 0.868934 -0.222705
  outer loop
   vertex 0.035236 -0.13277 0.048525
   vertex 0.034179 -0.13381 0.046565
   vertex 0.033486 -0.133715 0.048311
  endloop
 endfacet
 facet normal -0.474943 0.880014 -0.0021675
  outer loop
   vertex 0.033486 -0.133715 0.048311
   vertex 0.034215 -0.133315 0.050977
   vertex 0.035236 -0.13277 0.048525
  endloop
 endfacet
 facet normal -0.213947 0.941709 -0.259636
  outer loop
   vertex 0.043651 -0.134509 0.051894
   vertex 0.042139 -0.134957 0.051515
   vertex 0.043136 -0.134575 0.052079
  endloop
 endfacet
 facet normal -0.510001 0.0646778 0.857739
  outer loop
   vertex 0.042139 -0.134957 0.051515
   vertex 0.042729 -0.134933 0.051864
   vertex 0.043136 -0.134575 0.052079
  endloop
 endfacet
 facet normal -0.361804 0.715416 0.597727
  outer loop
   vertex 0.043651 -0.134509 0.051894
   vertex 0.0424 -0.134439 0.051053
   vertex 0.042139 -0.134957 0.051515
  endloop
 endfacet
 facet normal -0.171513 0.250017 0.95293
  outer loop
   vertex 0.042139 -0.134957 0.051515
   vertex 0.041718 -0.134514 0.051323
   vertex 0.041306 -0.13485 0.051337
  endloop
 endfacet
 facet normal 0.24644 0.572979 0.78164
  outer loop
   vertex 0.041718 -0.134514 0.051323
   vertex 0.042139 -0.134957 0.051515
   vertex 0.0424 -0.134439 0.051053
  endloop
 endfacet
 facet normal -0.148273 0.221969 0.963714
  outer loop
   vertex 0.040698 -0.134314 0.05112
   vertex 0.041306 -0.13485 0.051337
   vertex 0.041718 -0.134514 0.051323
  endloop
 endfacet
 facet normal 0.219182 0.97194 -0.085386
  outer loop
   vertex 0.0424 -0.134439 0.051053
   vertex 0.044206 -0.134909 0.050339
   vertex 0.042597 -0.13453 0.050523
  endloop
 endfacet
 facet normal 0.178392 0.966425 -0.184931
  outer loop
   vertex 0.043651 -0.134509 0.051894
   vertex 0.044206 -0.134909 0.050339
   vertex 0.0424 -0.134439 0.051053
  endloop
 endfacet
 facet normal 0.817067 0.523837 0.240823
  outer loop
   vertex 0.040692 -0.132971 0.048702
   vertex 0.037986 -0.130026 0.051477
   vertex 0.039921 -0.133006 0.051394
  endloop
 endfacet
 facet normal 0.669725 0.732188 -0.123972
  outer loop
   vertex 0.037414 -0.129771 0.049893
   vertex 0.037986 -0.130026 0.051477
   vertex 0.040692 -0.132971 0.048702
  endloop
 endfacet
 facet normal 0.502694 0.850449 0.155032
  outer loop
   vertex 0.041904 -0.133881 0.049764
   vertex 0.040692 -0.132971 0.048702
   vertex 0.039921 -0.133006 0.051394
  endloop
 endfacet
 facet normal -0.198416 0.951028 -0.237018
  outer loop
   vertex 0.0424 -0.134439 0.051053
   vertex 0.042597 -0.13453 0.050523
   vertex 0.041718 -0.134514 0.051323
  endloop
 endfacet
 facet normal 0.272051 0.920487 0.28052
  outer loop
   vertex 0.041288 -0.134251 0.050877
   vertex 0.041718 -0.134514 0.051323
   vertex 0.042597 -0.13453 0.050523
  endloop
 endfacet
 facet normal 0.306002 0.818266 0.486624
  outer loop
   vertex 0.042597 -0.13453 0.050523
   vertex 0.041794 -0.134128 0.050352
   vertex 0.041288 -0.134251 0.050877
  endloop
 endfacet
 facet normal 0.624285 0.671656 0.398932
  outer loop
   vertex 0.041904 -0.133881 0.049764
   vertex 0.039921 -0.133006 0.051394
   vertex 0.041794 -0.134128 0.050352
  endloop
 endfacet
 facet normal 0.615149 0.391174 0.684525
  outer loop
   vertex 0.041794 -0.134128 0.050352
   vertex 0.039921 -0.133006 0.051394
   vertex 0.041288 -0.134251 0.050877
  endloop
 endfacet
 facet normal 0.539752 -0.0947194 -0.836478
  outer loop
   vertex 0.036807 -0.131599 0.044032
   vertex 0.037451 -0.132071 0.044501
   vertex 0.036721 -0.132301 0.044056
  endloop
 endfacet
 facet normal 0.674887 0.221348 -0.703941
  outer loop
   vertex 0.037164 -0.130703 0.044656
   vertex 0.037451 -0.132071 0.044501
   vertex 0.036807 -0.131599 0.044032
  endloop
 endfacet
 facet normal -0.182539 0.492075 -0.8512
  outer loop
   vertex 0.036056 -0.132757 0.043935
   vertex 0.035769 -0.132367 0.044222
   vertex 0.036721 -0.132301 0.044056
  endloop
 endfacet
 facet normal -0.176539 0.0786698 -0.981145
  outer loop
   vertex 0.036721 -0.132301 0.044056
   vertex 0.035769 -0.132367 0.044222
   vertex 0.036045 -0.13181 0.044217
  endloop
 endfacet
 facet normal -0.885998 0.437642 -0.153221
  outer loop
   vertex 0.035957 -0.131811 0.044723
   vertex 0.036045 -0.13181 0.044217
   vertex 0.035769 -0.132367 0.044222
  endloop
 endfacet
 facet normal -0.40049 0.0177454 -0.916129
  outer loop
   vertex 0.036052 -0.131292 0.044368
   vertex 0.036807 -0.131599 0.044032
   vertex 0.036721 -0.132301 0.044056
  endloop
 endfacet
 facet normal -0.0251254 0.28008 -0.959648
  outer loop
   vertex 0.036721 -0.132301 0.044056
   vertex 0.036045 -0.13181 0.044217
   vertex 0.036052 -0.131292 0.044368
  endloop
 endfacet
 facet normal -0.0622467 0.769312 -0.635834
  outer loop
   vertex 0.03606 -0.130308 0.045242
   vertex 0.037255 -0.130289 0.045148
   vertex 0.037164 -0.130703 0.044656
  endloop
 endfacet
 facet normal 0.335482 0.895106 -0.293662
  outer loop
   vertex 0.037804 -0.130251 0.045891
   vertex 0.037255 -0.130289 0.045148
   vertex 0.036759 -0.129839 0.045953
  endloop
 endfacet
 facet normal -0.0539282 0.857086 -0.512343
  outer loop
   vertex 0.037255 -0.130289 0.045148
   vertex 0.03606 -0.130308 0.045242
   vertex 0.036759 -0.129839 0.045953
  endloop
 endfacet
 facet normal 0.328173 0.93836 0.10855
  outer loop
   vertex 0.036914 -0.12977 0.051396
   vertex 0.037414 -0.129771 0.049893
   vertex 0.036552 -0.129552 0.050606
  endloop
 endfacet
 facet normal 0.158702 0.981235 -0.109505
  outer loop
   vertex 0.036552 -0.129552 0.050606
   vertex 0.037414 -0.129771 0.049893
   vertex 0.036033 -0.129555 0.049827
  endloop
 endfacet
 facet normal 0.0372747 0.999236 0.0117364
  outer loop
   vertex 0.037414 -0.129771 0.049893
   vertex 0.036914 -0.12977 0.051396
   vertex 0.037487 -0.129792 0.05145
  endloop
 endfacet
 facet normal 0.424893 0.905211 -0.00770613
  outer loop
   vertex 0.037414 -0.129771 0.049893
   vertex 0.037487 -0.129792 0.05145
   vertex 0.037986 -0.130026 0.051477
  endloop
 endfacet
 facet normal 0.154012 0.98801 0.0107942
  outer loop
   vertex 0.036033 -0.129555 0.049827
   vertex 0.037414 -0.129771 0.049893
   vertex 0.036416 -0.12958 0.046651
  endloop
 endfacet
 facet normal 0.40274 0.912617 -0.0702143
  outer loop
   vertex 0.037414 -0.129771 0.049893
   vertex 0.037804 -0.130251 0.045891
   vertex 0.036416 -0.12958 0.046651
  endloop
 endfacet
 facet normal 0.352915 0.920429 -0.168108
  outer loop
   vertex 0.036416 -0.12958 0.046651
   vertex 0.037804 -0.130251 0.045891
   vertex 0.036759 -0.129839 0.045953
  endloop
 endfacet
 facet normal -0.156696 0.656591 -0.737791
  outer loop
   vertex 0.037164 -0.130703 0.044656
   vertex 0.036052 -0.131292 0.044368
   vertex 0.03606 -0.130308 0.045242
  endloop
 endfacet
 facet normal -0.110641 0.597298 -0.794351
  outer loop
   vertex 0.036052 -0.131292 0.044368
   vertex 0.037164 -0.130703 0.044656
   vertex 0.036807 -0.131599 0.044032
  endloop
 endfacet
 facet normal -0.0920008 -0.764475 0.638055
  outer loop
   vertex 0.03466 -0.132858 0.052242
   vertex 0.03615 -0.133589 0.051581
   vertex 0.036307 -0.132497 0.052912
  endloop
 endfacet
 facet normal 0.391868 -0.691002 0.607418
  outer loop
   vertex 0.03615 -0.133589 0.051581
   vertex 0.03826 -0.132032 0.051991
   vertex 0.037456 -0.132117 0.052413
  endloop
 endfacet
 facet normal 0.464492 -0.710725 0.528315
  outer loop
   vertex 0.037456 -0.132117 0.052413
   vertex 0.036307 -0.132497 0.052912
   vertex 0.03615 -0.133589 0.051581
  endloop
 endfacet
 facet normal -0.2556 -0.435666 0.863055
  outer loop
   vertex 0.036307 -0.132497 0.052912
   vertex 0.035155 -0.131835 0.052905
   vertex 0.03466 -0.132858 0.052242
  endloop
 endfacet
 facet normal -0.825139 0.546959 0.14136
  outer loop
   vertex 0.034383 -0.133165 0.051813
   vertex 0.03466 -0.132858 0.052242
   vertex 0.034646 -0.132631 0.051282
  endloop
 endfacet
 facet normal -0.919205 0.380001 0.103255
  outer loop
   vertex 0.034838 -0.132247 0.051578
   vertex 0.034646 -0.132631 0.051282
   vertex 0.03466 -0.132858 0.052242
  endloop
 endfacet
 facet normal -0.924569 0.350414 0.149605
  outer loop
   vertex 0.03466 -0.132858 0.052242
   vertex 0.035155 -0.131835 0.052905
   vertex 0.035336 -0.131357 0.052904
  endloop
 endfacet
 facet normal -0.922759 0.373215 0.0960577
  outer loop
   vertex 0.034838 -0.132247 0.051578
   vertex 0.03466 -0.132858 0.052242
   vertex 0.035336 -0.131357 0.052904
  endloop
 endfacet
 facet normal -0.859292 0.504853 0.0820996
  outer loop
   vertex 0.034646 -0.132631 0.051282
   vertex 0.034215 -0.133315 0.050977
   vertex 0.034383 -0.133165 0.051813
  endloop
 endfacet
 facet normal -0.598569 0.797837 -0.0719099
  outer loop
   vertex 0.035545 -0.132485 0.049115
   vertex 0.035236 -0.13277 0.048525
   vertex 0.034215 -0.133315 0.050977
  endloop
 endfacet
 facet normal -0.754436 0.597016 -0.27276
  outer loop
   vertex 0.035545 -0.132485 0.049115
   vertex 0.034215 -0.133315 0.050977
   vertex 0.034646 -0.132631 0.051282
  endloop
 endfacet
 facet normal 0.471903 -0.195484 0.859705
  outer loop
   vertex 0.037456 -0.132117 0.052413
   vertex 0.03826 -0.132032 0.051991
   vertex 0.037867 -0.131635 0.052297
  endloop
 endfacet
 facet normal 0.472623 -0.194618 0.859506
  outer loop
   vertex 0.037867 -0.131635 0.052297
   vertex 0.03826 -0.132032 0.051991
   vertex 0.038655 -0.131563 0.05188
  endloop
 endfacet
 facet normal 0.466908 0.0111497 0.884236
  outer loop
   vertex 0.037867 -0.131635 0.052297
   vertex 0.038655 -0.131563 0.05188
   vertex 0.03775 -0.13078 0.052348
  endloop
 endfacet
 facet normal 0.685004 0.448661 0.573997
  outer loop
   vertex 0.038655 -0.131563 0.05188
   vertex 0.037986 -0.130026 0.051477
   vertex 0.03775 -0.13078 0.052348
  endloop
 endfacet
 facet normal 0.717955 0.45143 0.529859
  outer loop
   vertex 0.039921 -0.133006 0.051394
   vertex 0.037986 -0.130026 0.051477
   vertex 0.038655 -0.131563 0.05188
  endloop
 endfacet
 facet normal 0.377854 0.0306155 0.925359
  outer loop
   vertex 0.040698 -0.134314 0.05112
   vertex 0.041288 -0.134251 0.050877
   vertex 0.039921 -0.133006 0.051394
  endloop
 endfacet
 facet normal 0.0869444 0.892541 0.442506
  outer loop
   vertex 0.041718 -0.134514 0.051323
   vertex 0.041288 -0.134251 0.050877
   vertex 0.040698 -0.134314 0.05112
  endloop
 endfacet
 facet normal -0.78439 0.619305 -0.0345455
  outer loop
   vertex 0.035629 -0.132282 0.04835
   vertex 0.035829 -0.132079 0.047448
   vertex 0.035236 -0.13277 0.048525
  endloop
 endfacet
 facet normal -0.760339 0.643632 0.0873029
  outer loop
   vertex 0.035629 -0.132282 0.04835
   vertex 0.035236 -0.13277 0.048525
   vertex 0.035545 -0.132485 0.049115
  endloop
 endfacet
 facet normal -0.987658 0.0962795 -0.123543
  outer loop
   vertex 0.035853 -0.131519 0.045782
   vertex 0.036052 -0.131292 0.044368
   vertex 0.035957 -0.131811 0.044723
  endloop
 endfacet
 facet normal -0.98327 0.0630985 -0.170877
  outer loop
   vertex 0.035957 -0.131811 0.044723
   vertex 0.036052 -0.131292 0.044368
   vertex 0.036045 -0.13181 0.044217
  endloop
 endfacet
 facet normal -0.971383 0.229014 0.0629869
  outer loop
   vertex 0.035853 -0.131519 0.045782
   vertex 0.035829 -0.132079 0.047448
   vertex 0.036073 -0.130777 0.046477
  endloop
 endfacet
 facet normal -0.922028 0.324 -0.211868
  outer loop
   vertex 0.03611 -0.131246 0.047499
   vertex 0.035829 -0.132079 0.047448
   vertex 0.035938 -0.131264 0.04822
  endloop
 endfacet
 facet normal -0.936272 0.305184 0.173946
  outer loop
   vertex 0.03611 -0.131246 0.047499
   vertex 0.036073 -0.130777 0.046477
   vertex 0.035829 -0.132079 0.047448
  endloop
 endfacet
 facet normal -0.957677 0.240455 -0.15823
  outer loop
   vertex 0.035629 -0.132282 0.04835
   vertex 0.035756 -0.131638 0.04856
   vertex 0.035829 -0.132079 0.047448
  endloop
 endfacet
 facet normal -0.938807 0.294605 -0.178466
  outer loop
   vertex 0.035756 -0.131638 0.04856
   vertex 0.035938 -0.131264 0.04822
   vertex 0.035829 -0.132079 0.047448
  endloop
 endfacet
 facet normal -0.989616 -0.0195144 -0.142408
  outer loop
   vertex 0.036052 -0.131292 0.044368
   vertex 0.035853 -0.131519 0.045782
   vertex 0.035882 -0.130961 0.045504
  endloop
 endfacet
 facet normal -0.976935 0.133718 0.166485
  outer loop
   vertex 0.036073 -0.130777 0.046477
   vertex 0.035882 -0.130961 0.045504
   vertex 0.035853 -0.131519 0.045782
  endloop
 endfacet
 facet normal 0.549082 0.552522 0.627079
  outer loop
   vertex 0.03775 -0.13078 0.052348
   vertex 0.037986 -0.130026 0.051477
   vertex 0.037263 -0.130464 0.052496
  endloop
 endfacet
 facet normal 0.326923 0.761723 0.559375
  outer loop
   vertex 0.037487 -0.129792 0.05145
   vertex 0.037263 -0.130464 0.052496
   vertex 0.037986 -0.130026 0.051477
  endloop
 endfacet
 facet normal -0.783691 0.416045 -0.461231
  outer loop
   vertex 0.035779 -0.130191 0.045825
   vertex 0.03606 -0.130308 0.045242
   vertex 0.036052 -0.131292 0.044368
  endloop
 endfacet
 facet normal -0.98895 -0.0803525 -0.124582
  outer loop
   vertex 0.036052 -0.131292 0.044368
   vertex 0.035882 -0.130961 0.045504
   vertex 0.035779 -0.130191 0.045825
  endloop
 endfacet
 facet normal -0.28339 0.904691 -0.318157
  outer loop
   vertex 0.035779 -0.130191 0.045825
   vertex 0.036759 -0.129839 0.045953
   vertex 0.03606 -0.130308 0.045242
  endloop
 endfacet
 facet normal 0.353873 -0.869326 0.345032
  outer loop
   vertex 0.035779 -0.130191 0.045825
   vertex 0.03606 -0.130308 0.045242
   vertex 0.035734 -0.129968 0.046433
  endloop
 endfacet
 facet normal -0.353873 0.869326 -0.345032
  outer loop
   vertex 0.03606 -0.130308 0.045242
   vertex 0.035779 -0.130191 0.045825
   vertex 0.035734 -0.129968 0.046433
  endloop
 endfacet
 facet normal -0.745236 0.416469 -0.520746
  outer loop
   vertex 0.036416 -0.12958 0.046651
   vertex 0.036759 -0.129839 0.045953
   vertex 0.035589 -0.129882 0.047593
  endloop
 endfacet
 facet normal -0.276097 0.895566 -0.3489
  outer loop
   vertex 0.035734 -0.129968 0.046433
   vertex 0.036759 -0.129839 0.045953
   vertex 0.035779 -0.130191 0.045825
  endloop
 endfacet
 facet normal -0.167392 0.981428 -0.0936936
  outer loop
   vertex 0.036759 -0.129839 0.045953
   vertex 0.035734 -0.129968 0.046433
   vertex 0.035589 -0.129882 0.047593
  endloop
 endfacet
 facet normal 0.0484457 0.968314 0.244993
  outer loop
   vertex 0.036552 -0.129552 0.050606
   vertex 0.036041 -0.1297 0.051292
   vertex 0.036914 -0.12977 0.051396
  endloop
 endfacet
 facet normal 0.00237276 0.93458 0.355746
  outer loop
   vertex 0.036914 -0.12977 0.051396
   vertex 0.037152 -0.129991 0.051975
   vertex 0.037487 -0.129792 0.05145
  endloop
 endfacet
 facet normal 0.253331 0.933892 0.252325
  outer loop
   vertex 0.037152 -0.129991 0.051975
   vertex 0.036914 -0.12977 0.051396
   vertex 0.036651 -0.129827 0.051871
  endloop
 endfacet
 facet normal 0.0609655 0.986479 0.152126
  outer loop
   vertex 0.036914 -0.12977 0.051396
   vertex 0.036041 -0.1297 0.051292
   vertex 0.036651 -0.129827 0.051871
  endloop
 endfacet
 facet normal -0.356822 0.904326 0.234251
  outer loop
   vertex 0.035519 -0.129971 0.05065
   vertex 0.036552 -0.129552 0.050606
   vertex 0.036033 -0.129555 0.049827
  endloop
 endfacet
 facet normal -0.377598 0.922306 -0.0822938
  outer loop
   vertex 0.035519 -0.129971 0.05065
   vertex 0.036041 -0.1297 0.051292
   vertex 0.036552 -0.129552 0.050606
  endloop
 endfacet
 facet normal -0.511002 0.859476 0.0133453
  outer loop
   vertex 0.036033 -0.129555 0.049827
   vertex 0.035446 -0.129884 0.048539
   vertex 0.03533 -0.129978 0.050151
  endloop
 endfacet
 facet normal -0.453911 0.876634 0.159618
  outer loop
   vertex 0.035519 -0.129971 0.05065
   vertex 0.036033 -0.129555 0.049827
   vertex 0.03533 -0.129978 0.050151
  endloop
 endfacet
 facet normal -0.394084 0.917442 -0.0547463
  outer loop
   vertex 0.035446 -0.129884 0.048539
   vertex 0.036033 -0.129555 0.049827
   vertex 0.036416 -0.12958 0.046651
  endloop
 endfacet
 facet normal 0.44074 0.70933 0.55009
  outer loop
   vertex 0.037487 -0.129792 0.05145
   vertex 0.037152 -0.129991 0.051975
   vertex 0.037263 -0.130464 0.052496
  endloop
 endfacet
 facet normal -0.400654 0.914352 -0.0586191
  outer loop
   vertex 0.035589 -0.129882 0.047593
   vertex 0.035446 -0.129884 0.048539
   vertex 0.036416 -0.12958 0.046651
  endloop
 endfacet
 facet normal 0.47913 -0.527097 0.701857
  outer loop
   vertex 0.036307 -0.132497 0.052912
   vertex 0.037456 -0.132117 0.052413
   vertex 0.037159 -0.131869 0.052802
  endloop
 endfacet
 facet normal 0.506869 -0.575208 0.642043
  outer loop
   vertex 0.036562 -0.132087 0.053078
   vertex 0.036307 -0.132497 0.052912
   vertex 0.037159 -0.131869 0.052802
  endloop
 endfacet
 facet normal -0.261697 -0.446353 0.855736
  outer loop
   vertex 0.036164 -0.131792 0.053236
   vertex 0.035155 -0.131835 0.052905
   vertex 0.036307 -0.132497 0.052912
  endloop
 endfacet
 facet normal 0.0604401 -0.406673 0.911572
  outer loop
   vertex 0.036562 -0.132087 0.053078
   vertex 0.036164 -0.131792 0.053236
   vertex 0.036307 -0.132497 0.052912
  endloop
 endfacet
 facet normal 0.617735 -0.358258 0.70004
  outer loop
   vertex 0.037867 -0.131635 0.052297
   vertex 0.037159 -0.131869 0.052802
   vertex 0.037456 -0.132117 0.052413
  endloop
 endfacet
 facet normal -0.314065 0.120899 0.941672
  outer loop
   vertex 0.035155 -0.131835 0.052905
   vertex 0.036164 -0.131792 0.053236
   vertex 0.035336 -0.131357 0.052904
  endloop
 endfacet
 facet normal -0.758401 0.591023 -0.274809
  outer loop
   vertex 0.034646 -0.132631 0.051282
   vertex 0.034838 -0.132247 0.051578
   vertex 0.035545 -0.132485 0.049115
  endloop
 endfacet
 facet normal -0.784744 0.525858 -0.328101
  outer loop
   vertex 0.035919 -0.131254 0.050584
   vertex 0.034838 -0.132247 0.051578
   vertex 0.0355 -0.131309 0.051498
  endloop
 endfacet
 facet normal -0.87378 0.486318 0.00174905
  outer loop
   vertex 0.035308 -0.131404 0.051984
   vertex 0.034838 -0.132247 0.051578
   vertex 0.035336 -0.131357 0.052904
  endloop
 endfacet
 facet normal -0.775751 0.566775 -0.277446
  outer loop
   vertex 0.034838 -0.132247 0.051578
   vertex 0.035919 -0.131254 0.050584
   vertex 0.035545 -0.132485 0.049115
  endloop
 endfacet
 facet normal -0.807007 0.551557 -0.21101
  outer loop
   vertex 0.0355 -0.131309 0.051498
   vertex 0.034838 -0.132247 0.051578
   vertex 0.035308 -0.131404 0.051984
  endloop
 endfacet
 facet normal -0.950443 0.310624 0.0130576
  outer loop
   vertex 0.035464 -0.130926 0.051968
   vertex 0.035308 -0.131404 0.051984
   vertex 0.035336 -0.131357 0.052904
  endloop
 endfacet
 facet normal -0.887597 0.452347 0.0869111
  outer loop
   vertex 0.035464 -0.130926 0.051968
   vertex 0.035336 -0.131357 0.052904
   vertex 0.035702 -0.130576 0.052577
  endloop
 endfacet
 facet normal -0.129497 0.433979 0.891568
  outer loop
   vertex 0.035336 -0.131357 0.052904
   vertex 0.036164 -0.131792 0.053236
   vertex 0.035702 -0.130576 0.052577
  endloop
 endfacet
 facet normal -0.892735 0.43515 -0.116913
  outer loop
   vertex 0.035545 -0.132485 0.049115
   vertex 0.035865 -0.131645 0.049798
   vertex 0.035786 -0.132065 0.048838
  endloop
 endfacet
 facet normal -0.853734 0.518853 0.0439365
  outer loop
   vertex 0.035545 -0.132485 0.049115
   vertex 0.035786 -0.132065 0.048838
   vertex 0.035629 -0.132282 0.04835
  endloop
 endfacet
 facet normal -0.864146 0.471725 -0.175291
  outer loop
   vertex 0.035865 -0.131645 0.049798
   vertex 0.035545 -0.132485 0.049115
   vertex 0.035919 -0.131254 0.050584
  endloop
 endfacet
 facet normal 0.59742 0.0339618 0.801209
  outer loop
   vertex 0.03775 -0.13078 0.052348
   vertex 0.036815 -0.131625 0.053081
   vertex 0.037867 -0.131635 0.052297
  endloop
 endfacet
 facet normal 0.595406 -0.0752027 0.799898
  outer loop
   vertex 0.037867 -0.131635 0.052297
   vertex 0.036815 -0.131625 0.053081
   vertex 0.037159 -0.131869 0.052802
  endloop
 endfacet
 facet normal 0.434204 0.266095 0.860616
  outer loop
   vertex 0.036815 -0.131625 0.053081
   vertex 0.03775 -0.13078 0.052348
   vertex 0.037263 -0.130464 0.052496
  endloop
 endfacet
 facet normal -0.959336 0.103558 0.262584
  outer loop
   vertex 0.035756 -0.131638 0.04856
   vertex 0.035629 -0.132282 0.04835
   vertex 0.035786 -0.132065 0.048838
  endloop
 endfacet
 facet normal -0.898838 -0.36331 0.245145
  outer loop
   vertex 0.036073 -0.130777 0.046477
   vertex 0.035734 -0.129968 0.046433
   vertex 0.035882 -0.130961 0.045504
  endloop
 endfacet
 facet normal -0.909621 -0.389082 -0.14562
  outer loop
   vertex 0.03611 -0.131246 0.047499
   vertex 0.035734 -0.129968 0.046433
   vertex 0.036073 -0.130777 0.046477
  endloop
 endfacet
 facet normal -0.914975 -0.33387 -0.22661
  outer loop
   vertex 0.03611 -0.131246 0.047499
   vertex 0.035938 -0.131264 0.04822
   vertex 0.035589 -0.129882 0.047593
  endloop
 endfacet
 facet normal -0.932396 -0.349897 -0.0906086
  outer loop
   vertex 0.035589 -0.129882 0.047593
   vertex 0.035734 -0.129968 0.046433
   vertex 0.03611 -0.131246 0.047499
  endloop
 endfacet
 facet normal -0.942236 -0.302855 -0.143074
  outer loop
   vertex 0.035589 -0.129882 0.047593
   vertex 0.035938 -0.131264 0.04822
   vertex 0.035446 -0.129884 0.048539
  endloop
 endfacet
 facet normal -0.941989 -0.335643 -0.000852401
  outer loop
   vertex 0.035446 -0.129884 0.048539
   vertex 0.035938 -0.131264 0.04822
   vertex 0.035942 -0.131277 0.048915
  endloop
 endfacet
 facet normal -0.894216 0.447431 0.0135131
  outer loop
   vertex 0.035756 -0.131638 0.04856
   vertex 0.035942 -0.131277 0.048915
   vertex 0.035938 -0.131264 0.04822
  endloop
 endfacet
 facet normal -0.996069 -0.0129307 0.0876278
  outer loop
   vertex 0.035865 -0.131645 0.049798
   vertex 0.035756 -0.131638 0.04856
   vertex 0.035786 -0.132065 0.048838
  endloop
 endfacet
 facet normal -0.91674 0.390782 0.0829221
  outer loop
   vertex 0.035756 -0.131638 0.04856
   vertex 0.035865 -0.131645 0.049798
   vertex 0.035942 -0.131277 0.048915
  endloop
 endfacet
 facet normal -0.992277 -0.120551 -0.0292236
  outer loop
   vertex 0.035734 -0.129968 0.046433
   vertex 0.035779 -0.130191 0.045825
   vertex 0.035882 -0.130961 0.045504
  endloop
 endfacet
 facet normal -0.0124595 0.694167 0.719706
  outer loop
   vertex 0.037263 -0.130464 0.052496
   vertex 0.036651 -0.129827 0.051871
   vertex 0.035702 -0.130576 0.052577
  endloop
 endfacet
 facet normal 0.108611 0.747412 0.655423
  outer loop
   vertex 0.037263 -0.130464 0.052496
   vertex 0.037152 -0.129991 0.051975
   vertex 0.036651 -0.129827 0.051871
  endloop
 endfacet
 facet normal 0.109202 0.413363 0.903995
  outer loop
   vertex 0.036815 -0.131625 0.053081
   vertex 0.037263 -0.130464 0.052496
   vertex 0.036164 -0.131792 0.053236
  endloop
 endfacet
 facet normal 0.0111085 0.479701 0.877362
  outer loop
   vertex 0.035702 -0.130576 0.052577
   vertex 0.036164 -0.131792 0.053236
   vertex 0.037263 -0.130464 0.052496
  endloop
 endfacet
 facet normal -0.289473 0.824716 0.485848
  outer loop
   vertex 0.036041 -0.1297 0.051292
   vertex 0.035702 -0.130576 0.052577
   vertex 0.036651 -0.129827 0.051871
  endloop
 endfacet
 facet normal -0.568887 0.741617 0.355487
  outer loop
   vertex 0.036041 -0.1297 0.051292
   vertex 0.035526 -0.130305 0.05173
   vertex 0.035702 -0.130576 0.052577
  endloop
 endfacet
 facet normal -0.654127 0.721409 0.227348
  outer loop
   vertex 0.036041 -0.1297 0.051292
   vertex 0.035519 -0.129971 0.05065
   vertex 0.035526 -0.130305 0.05173
  endloop
 endfacet
 facet normal -0.952503 -0.292622 -0.0843251
  outer loop
   vertex 0.035919 -0.131254 0.050584
   vertex 0.035526 -0.130305 0.05173
   vertex 0.035519 -0.129971 0.05065
  endloop
 endfacet
 facet normal -0.854302 -0.242699 -0.459637
  outer loop
   vertex 0.035519 -0.129971 0.05065
   vertex 0.035881 -0.130643 0.050332
   vertex 0.035919 -0.131254 0.050584
  endloop
 endfacet
 facet normal 0.158316 -0.986311 -0.04612
  outer loop
   vertex 0.035519 -0.129971 0.05065
   vertex 0.03533 -0.129978 0.050151
   vertex 0.035446 -0.129884 0.048539
  endloop
 endfacet
 facet normal -0.879232 -0.476272 0.010778
  outer loop
   vertex 0.035888 -0.130678 0.04951
   vertex 0.035519 -0.129971 0.05065
   vertex 0.035446 -0.129884 0.048539
  endloop
 endfacet
 facet normal -0.877746 -0.478951 0.0129204
  outer loop
   vertex 0.035519 -0.129971 0.05065
   vertex 0.035888 -0.130678 0.04951
   vertex 0.035881 -0.130643 0.050332
  endloop
 endfacet
 facet normal -0.939117 -0.28103 0.19769
  outer loop
   vertex 0.035888 -0.130678 0.04951
   vertex 0.035446 -0.129884 0.048539
   vertex 0.035942 -0.131277 0.048915
  endloop
 endfacet
 facet normal 0.48357 -0.270209 0.832555
  outer loop
   vertex 0.036562 -0.132087 0.053078
   vertex 0.037159 -0.131869 0.052802
   vertex 0.036815 -0.131625 0.053081
  endloop
 endfacet
 facet normal 0.265585 -0.151616 0.952091
  outer loop
   vertex 0.036815 -0.131625 0.053081
   vertex 0.036164 -0.131792 0.053236
   vertex 0.036562 -0.132087 0.053078
  endloop
 endfacet
 facet normal -0.852136 0.371815 -0.368264
  outer loop
   vertex 0.035464 -0.130926 0.051968
   vertex 0.035919 -0.131254 0.050584
   vertex 0.0355 -0.131309 0.051498
  endloop
 endfacet
 facet normal -0.951324 -0.0228135 -0.307347
  outer loop
   vertex 0.035464 -0.130926 0.051968
   vertex 0.035526 -0.130305 0.05173
   vertex 0.035919 -0.131254 0.050584
  endloop
 endfacet
 facet normal -0.945759 -0.172384 -0.275361
  outer loop
   vertex 0.035919 -0.131254 0.050584
   vertex 0.035881 -0.130643 0.050332
   vertex 0.036066 -0.131027 0.049937
  endloop
 endfacet
 facet normal -0.939616 0.327754 -0.0984881
  outer loop
   vertex 0.035865 -0.131645 0.049798
   vertex 0.035919 -0.131254 0.050584
   vertex 0.036066 -0.131027 0.049937
  endloop
 endfacet
 facet normal -0.908887 0.28648 -0.303072
  outer loop
   vertex 0.0355 -0.131309 0.051498
   vertex 0.035308 -0.131404 0.051984
   vertex 0.035464 -0.130926 0.051968
  endloop
 endfacet
 facet normal -0.946388 0.193596 0.258593
  outer loop
   vertex 0.035702 -0.130576 0.052577
   vertex 0.035526 -0.130305 0.05173
   vertex 0.035464 -0.130926 0.051968
  endloop
 endfacet
 facet normal -0.854112 0.167011 0.492545
  outer loop
   vertex 0.035865 -0.131645 0.049798
   vertex 0.036066 -0.131027 0.049937
   vertex 0.035888 -0.130678 0.04951
  endloop
 endfacet
 facet normal -0.996126 -0.00248622 -0.0878987
  outer loop
   vertex 0.035888 -0.130678 0.04951
   vertex 0.035942 -0.131277 0.048915
   vertex 0.035865 -0.131645 0.049798
  endloop
 endfacet
 facet normal -0.896273 -0.443359 0.0112471
  outer loop
   vertex 0.035881 -0.130643 0.050332
   vertex 0.035888 -0.130678 0.04951
   vertex 0.036066 -0.131027 0.049937
  endloop
 endfacet
endsolid
