solid ascii
 facet normal -0.408803 -0.302632 -0.860985
  outer loop
   vertex 0.015775 -0.116212 0.040419
   vertex 0.017964 -0.115112 0.038993
   vertex 0.017104 -0.118801 0.040698
  endloop
 endfacet
 facet normal -0.0629528 -0.138819 -0.988315
  outer loop
   vertex 0.017104 -0.118801 0.040698
   vertex 0.012575 -0.116619 0.04068
   vertex 0.015775 -0.116212 0.040419
  endloop
 endfacet
 facet normal -0.291928 -0.486541 -0.823441
  outer loop
   vertex 0.017964 -0.115112 0.038993
   vertex 0.015775 -0.116212 0.040419
   vertex 0.01622 -0.11348 0.038647
  endloop
 endfacet
 facet normal -0.18998 -0.512289 -0.837536
  outer loop
   vertex 0.015775 -0.116212 0.040419
   vertex 0.012883 -0.113091 0.039166
   vertex 0.01622 -0.11348 0.038647
  endloop
 endfacet
 facet normal -0.0250868 -0.392385 -0.919459
  outer loop
   vertex 0.015775 -0.116212 0.040419
   vertex 0.012575 -0.116619 0.04068
   vertex 0.012883 -0.113091 0.039166
  endloop
 endfacet
 facet normal -0.13799 -0.388841 -0.910913
  outer loop
   vertex 0.017104 -0.118801 0.040698
   vertex 0.017964 -0.115112 0.038993
   vertex 0.018001 -0.117695 0.04009
  endloop
 endfacet
 facet normal 0.349867 0.178923 -0.919554
  outer loop
   vertex 0.018411 -0.11355 0.039467
   vertex 0.017964 -0.115112 0.038993
   vertex 0.01622 -0.11348 0.038647
  endloop
 endfacet
 facet normal 0.661401 0.0380354 -0.749068
  outer loop
   vertex 0.018411 -0.11355 0.039467
   vertex 0.019205 -0.115383 0.040075
   vertex 0.017964 -0.115112 0.038993
  endloop
 endfacet
 facet normal 0.585514 -0.309773 -0.749142
  outer loop
   vertex 0.018001 -0.117695 0.04009
   vertex 0.017964 -0.115112 0.038993
   vertex 0.019205 -0.115383 0.040075
  endloop
 endfacet
 facet normal -0.131357 -0.280491 -0.950826
  outer loop
   vertex 0.017104 -0.118801 0.040698
   vertex 0.013766 -0.11837 0.041032
   vertex 0.012575 -0.116619 0.04068
  endloop
 endfacet
 facet normal -0.127723 -0.244259 -0.961262
  outer loop
   vertex 0.017104 -0.118801 0.040698
   vertex 0.015253 -0.11912 0.041025
   vertex 0.013766 -0.11837 0.041032
  endloop
 endfacet
 facet normal 0.150946 -0.983 -0.104527
  outer loop
   vertex 0.015253 -0.11912 0.041025
   vertex 0.017104 -0.118801 0.040698
   vertex 0.017521 -0.118845 0.041714
  endloop
 endfacet
 facet normal 0.654275 -0.6948 -0.298627
  outer loop
   vertex 0.017521 -0.118845 0.041714
   vertex 0.017104 -0.118801 0.040698
   vertex 0.018001 -0.117695 0.04009
  endloop
 endfacet
 facet normal -0.768999 -0.577966 -0.273122
  outer loop
   vertex 0.012575 -0.116619 0.04068
   vertex 0.013766 -0.11837 0.041032
   vertex 0.013068 -0.117739 0.041662
  endloop
 endfacet
 facet normal -0.886718 -0.456168 -0.0751082
  outer loop
   vertex 0.008726 -0.109109 0.040509
   vertex 0.012575 -0.116619 0.04068
   vertex 0.013068 -0.117739 0.041662
  endloop
 endfacet
 facet normal -0.53629 -0.292882 -0.791589
  outer loop
   vertex 0.012883 -0.113091 0.039166
   vertex 0.012575 -0.116619 0.04068
   vertex 0.008726 -0.109109 0.040509
  endloop
 endfacet
 facet normal -0.0645285 0.0899728 -0.993852
  outer loop
   vertex 0.014445 -0.112588 0.038843
   vertex 0.01622 -0.11348 0.038647
   vertex 0.013759 -0.112848 0.038864
  endloop
 endfacet
 facet normal 0.19937 0.571618 -0.79593
  outer loop
   vertex 0.01622 -0.11348 0.038647
   vertex 0.014445 -0.112588 0.038843
   vertex 0.016335 -0.112182 0.039608
  endloop
 endfacet
 facet normal -0.187292 -0.425278 -0.885472
  outer loop
   vertex 0.013759 -0.112848 0.038864
   vertex 0.01622 -0.11348 0.038647
   vertex 0.012883 -0.113091 0.039166
  endloop
 endfacet
 facet normal 0.308454 0.548218 -0.777376
  outer loop
   vertex 0.01622 -0.11348 0.038647
   vertex 0.016335 -0.112182 0.039608
   vertex 0.018411 -0.11355 0.039467
  endloop
 endfacet
 facet normal -0.371774 0.834309 -0.407078
  outer loop
   vertex 0.012883 -0.113091 0.039166
   vertex 0.014551 -0.112054 0.039768
   vertex 0.013759 -0.112848 0.038864
  endloop
 endfacet
 facet normal -0.627122 -0.437281 -0.644596
  outer loop
   vertex 0.008726 -0.109109 0.040509
   vertex 0.009335 -0.106533 0.038169
   vertex 0.012883 -0.113091 0.039166
  endloop
 endfacet
 facet normal 0.00494342 -0.147685 -0.989022
  outer loop
   vertex 0.010289 -0.106414 0.038156
   vertex 0.012883 -0.113091 0.039166
   vertex 0.009335 -0.106533 0.038169
  endloop
 endfacet
 facet normal 0.34406 -0.00835849 -0.938911
  outer loop
   vertex 0.010289 -0.106414 0.038156
   vertex 0.014551 -0.112054 0.039768
   vertex 0.012883 -0.113091 0.039166
  endloop
 endfacet
 facet normal 0.691156 -0.363978 -0.624358
  outer loop
   vertex 0.018001 -0.117695 0.04009
   vertex 0.019205 -0.115383 0.040075
   vertex 0.018898 -0.117153 0.040767
  endloop
 endfacet
 facet normal 0.649574 -0.697712 -0.302079
  outer loop
   vertex 0.017521 -0.118845 0.041714
   vertex 0.018001 -0.117695 0.04009
   vertex 0.018898 -0.117153 0.040767
  endloop
 endfacet
 facet normal 0.924427 0.370605 -0.0899294
  outer loop
   vertex 0.018591 -0.113437 0.041783
   vertex 0.019205 -0.115383 0.040075
   vertex 0.018411 -0.11355 0.039467
  endloop
 endfacet
 facet normal 0.544398 0.834707 -0.083038
  outer loop
   vertex 0.018591 -0.113437 0.041783
   vertex 0.018411 -0.11355 0.039467
   vertex 0.016335 -0.112182 0.039608
  endloop
 endfacet
 facet normal 0.925143 0.369249 -0.0881273
  outer loop
   vertex 0.019205 -0.115383 0.040075
   vertex 0.018591 -0.113437 0.041783
   vertex 0.019333 -0.115213 0.042131
  endloop
 endfacet
 facet normal 0.981117 -0.187976 -0.0455381
  outer loop
   vertex 0.019333 -0.115213 0.042131
   vertex 0.018898 -0.117153 0.040767
   vertex 0.019205 -0.115383 0.040075
  endloop
 endfacet
 facet normal -0.74083 -0.649846 -0.169919
  outer loop
   vertex 0.013068 -0.117739 0.041662
   vertex 0.013766 -0.11837 0.041032
   vertex 0.013584 -0.118333 0.041684
  endloop
 endfacet
 facet normal -0.449351 -0.890208 -0.074915
  outer loop
   vertex 0.013584 -0.118333 0.041684
   vertex 0.013766 -0.11837 0.041032
   vertex 0.015253 -0.11912 0.041025
  endloop
 endfacet
 facet normal -0.460155 -0.880507 -0.113863
  outer loop
   vertex 0.013584 -0.118333 0.041684
   vertex 0.015253 -0.11912 0.041025
   vertex 0.014899 -0.119126 0.042502
  endloop
 endfacet
 facet normal 0.113406 -0.993279 0.0231471
  outer loop
   vertex 0.014899 -0.119126 0.042502
   vertex 0.015253 -0.11912 0.041025
   vertex 0.017521 -0.118845 0.041714
  endloop
 endfacet
 facet normal 0.803185 -0.581686 0.128585
  outer loop
   vertex 0.018888 -0.11673 0.042743
   vertex 0.017521 -0.118845 0.041714
   vertex 0.018898 -0.117153 0.040767
  endloop
 endfacet
 facet normal 0.717951 -0.618975 0.31846
  outer loop
   vertex 0.018888 -0.11673 0.042743
   vertex 0.017059 -0.117859 0.044672
   vertex 0.017521 -0.118845 0.041714
  endloop
 endfacet
 facet normal 0.253139 -0.905233 0.341282
  outer loop
   vertex 0.014928 -0.118401 0.044815
   vertex 0.017521 -0.118845 0.041714
   vertex 0.017059 -0.117859 0.044672
  endloop
 endfacet
 facet normal 0.188147 -0.937852 0.291607
  outer loop
   vertex 0.014899 -0.119126 0.042502
   vertex 0.017521 -0.118845 0.041714
   vertex 0.014928 -0.118401 0.044815
  endloop
 endfacet
 facet normal -0.717995 -0.611393 0.332687
  outer loop
   vertex 0.013067 -0.117364 0.042349
   vertex 0.013068 -0.117739 0.041662
   vertex 0.013584 -0.118333 0.041684
  endloop
 endfacet
 facet normal -0.882199 -0.41385 0.224618
  outer loop
   vertex 0.013067 -0.117364 0.042349
   vertex 0.008726 -0.109109 0.040509
   vertex 0.013068 -0.117739 0.041662
  endloop
 endfacet
 facet normal -0.783834 -0.499054 -0.369526
  outer loop
   vertex 0.008726 -0.109109 0.040509
   vertex 0.004112 -0.102624 0.041538
   vertex 0.002863 -0.09795 0.037875
  endloop
 endfacet
 facet normal -0.638146 -0.429548 -0.638951
  outer loop
   vertex 0.008726 -0.109109 0.040509
   vertex 0.007264 -0.101823 0.037071
   vertex 0.009335 -0.106533 0.038169
  endloop
 endfacet
 facet normal -0.525614 -0.447012 -0.723816
  outer loop
   vertex 0.007264 -0.101823 0.037071
   vertex 0.008726 -0.109109 0.040509
   vertex 0.002863 -0.09795 0.037875
  endloop
 endfacet
 facet normal -0.882096 -0.470209 -0.0284745
  outer loop
   vertex 0.012696 -0.116797 0.044479
   vertex 0.008726 -0.109109 0.040509
   vertex 0.013067 -0.117364 0.042349
  endloop
 endfacet
 facet normal -0.809355 -0.538731 -0.23391
  outer loop
   vertex 0.008726 -0.109109 0.040509
   vertex 0.012696 -0.116797 0.044479
   vertex 0.004112 -0.102624 0.041538
  endloop
 endfacet
 facet normal -0.329491 0.833541 -0.443448
  outer loop
   vertex 0.013759 -0.112848 0.038864
   vertex 0.014551 -0.112054 0.039768
   vertex 0.014445 -0.112588 0.038843
  endloop
 endfacet
 facet normal 0.0171032 0.865067 -0.501365
  outer loop
   vertex 0.016335 -0.112182 0.039608
   vertex 0.014445 -0.112588 0.038843
   vertex 0.014551 -0.112054 0.039768
  endloop
 endfacet
 facet normal 0.61573 0.762494 -0.198694
  outer loop
   vertex 0.01682 -0.112096 0.041441
   vertex 0.018591 -0.113437 0.041783
   vertex 0.016335 -0.112182 0.039608
  endloop
 endfacet
 facet normal 0.03969 0.947979 -0.31585
  outer loop
   vertex 0.01511 -0.111486 0.041543
   vertex 0.016335 -0.112182 0.039608
   vertex 0.014551 -0.112054 0.039768
  endloop
 endfacet
 facet normal 0.326221 0.936278 -0.130245
  outer loop
   vertex 0.016335 -0.112182 0.039608
   vertex 0.01511 -0.111486 0.041543
   vertex 0.01682 -0.112096 0.041441
  endloop
 endfacet
 facet normal 0.837637 0.385366 -0.387113
  outer loop
   vertex 0.01511 -0.111486 0.041543
   vertex 0.014551 -0.112054 0.039768
   vertex 0.012172 -0.107777 0.038878
  endloop
 endfacet
 facet normal 0.363105 0.00809086 -0.931713
  outer loop
   vertex 0.010289 -0.106414 0.038156
   vertex 0.012172 -0.107777 0.038878
   vertex 0.014551 -0.112054 0.039768
  endloop
 endfacet
 facet normal 0.0217435 -0.279195 -0.959988
  outer loop
   vertex 0.009335 -0.106533 0.038169
   vertex 0.010169 -0.103958 0.037439
   vertex 0.010289 -0.106414 0.038156
  endloop
 endfacet
 facet normal -0.0636856 -0.253047 -0.965355
  outer loop
   vertex 0.010169 -0.103958 0.037439
   vertex 0.009335 -0.106533 0.038169
   vertex 0.007264 -0.101823 0.037071
  endloop
 endfacet
 facet normal 0.169196 -0.268573 -0.948283
  outer loop
   vertex 0.010289 -0.106414 0.038156
   vertex 0.010169 -0.103958 0.037439
   vertex 0.012172 -0.107777 0.038878
  endloop
 endfacet
 facet normal 0.964126 -0.258524 0.0602203
  outer loop
   vertex 0.018898 -0.117153 0.040767
   vertex 0.019333 -0.115213 0.042131
   vertex 0.018888 -0.11673 0.042743
  endloop
 endfacet
 facet normal 0.59176 0.802072 0.0806242
  outer loop
   vertex 0.01682 -0.112096 0.041441
   vertex 0.018068 -0.113276 0.04402
   vertex 0.018591 -0.113437 0.041783
  endloop
 endfacet
 facet normal 0.89466 0.408999 0.179731
  outer loop
   vertex 0.019333 -0.115213 0.042131
   vertex 0.018591 -0.113437 0.041783
   vertex 0.018068 -0.113276 0.04402
  endloop
 endfacet
 facet normal 0.944729 -0.162179 0.28493
  outer loop
   vertex 0.018569 -0.115656 0.044412
   vertex 0.018888 -0.11673 0.042743
   vertex 0.019333 -0.115213 0.042131
  endloop
 endfacet
 facet normal 0.903119 0.24786 0.350629
  outer loop
   vertex 0.018569 -0.115656 0.044412
   vertex 0.019333 -0.115213 0.042131
   vertex 0.018068 -0.113276 0.04402
  endloop
 endfacet
 facet normal -0.914402 -0.357348 -0.190189
  outer loop
   vertex 0.013584 -0.118333 0.041684
   vertex 0.013379 -0.118239 0.042493
   vertex 0.013067 -0.117364 0.042349
  endloop
 endfacet
 facet normal -0.503703 -0.863445 -0.0273157
  outer loop
   vertex 0.013584 -0.118333 0.041684
   vertex 0.014899 -0.119126 0.042502
   vertex 0.013379 -0.118239 0.042493
  endloop
 endfacet
 facet normal -0.496609 -0.849188 0.17961
  outer loop
   vertex 0.013915 -0.118081 0.044722
   vertex 0.013379 -0.118239 0.042493
   vertex 0.014899 -0.119126 0.042502
  endloop
 endfacet
 facet normal -0.312399 -0.90534 0.287692
  outer loop
   vertex 0.014899 -0.119126 0.042502
   vertex 0.014928 -0.118401 0.044815
   vertex 0.013915 -0.118081 0.044722
  endloop
 endfacet
 facet normal 0.761429 -0.469103 0.447401
  outer loop
   vertex 0.018569 -0.115656 0.044412
   vertex 0.017059 -0.117859 0.044672
   vertex 0.018888 -0.11673 0.042743
  endloop
 endfacet
 facet normal 0.783315 -0.566985 -0.254843
  outer loop
   vertex 0.018569 -0.115656 0.044412
   vertex 0.018764 -0.116366 0.046591
   vertex 0.017059 -0.117859 0.044672
  endloop
 endfacet
 facet normal 0.680979 -0.731418 -0.0359886
  outer loop
   vertex 0.017117 -0.117938 0.047375
   vertex 0.017059 -0.117859 0.044672
   vertex 0.018764 -0.116366 0.046591
  endloop
 endfacet
 facet normal 0.238634 -0.970018 -0.0460301
  outer loop
   vertex 0.016106 -0.118234 0.047634
   vertex 0.014877 -0.118458 0.045983
   vertex 0.017059 -0.117859 0.044672
  endloop
 endfacet
 facet normal 0.272804 -0.96147 -0.0339538
  outer loop
   vertex 0.017117 -0.117938 0.047375
   vertex 0.016106 -0.118234 0.047634
   vertex 0.017059 -0.117859 0.044672
  endloop
 endfacet
 facet normal 0.244017 -0.969078 -0.0366411
  outer loop
   vertex 0.017059 -0.117859 0.044672
   vertex 0.014877 -0.118458 0.045983
   vertex 0.014928 -0.118401 0.044815
  endloop
 endfacet
 facet normal -0.295718 -0.953424 -0.0594443
  outer loop
   vertex 0.014877 -0.118458 0.045983
   vertex 0.013915 -0.118081 0.044722
   vertex 0.014928 -0.118401 0.044815
  endloop
 endfacet
 facet normal -0.935775 -0.345364 -0.0710573
  outer loop
   vertex 0.013067 -0.117364 0.042349
   vertex 0.013379 -0.118239 0.042493
   vertex 0.012696 -0.116797 0.044479
  endloop
 endfacet
 facet normal -0.722137 -0.535834 -0.437494
  outer loop
   vertex 0.002863 -0.09795 0.037875
   vertex 0.004112 -0.102624 0.041538
   vertex 0.002244 -0.098009 0.038969
  endloop
 endfacet
 facet normal -0.837038 -0.331947 0.434946
  outer loop
   vertex 0.006262 -0.104716 0.044079
   vertex 0.002044 -0.097902 0.041162
   vertex 0.004112 -0.102624 0.041538
  endloop
 endfacet
 facet normal -0.912293 -0.404592 -0.0634602
  outer loop
   vertex 0.002044 -0.097902 0.041162
   vertex 0.002244 -0.098009 0.038969
   vertex 0.004112 -0.102624 0.041538
  endloop
 endfacet
 facet normal -0.831984 -0.431547 0.348669
  outer loop
   vertex 0.006262 -0.104716 0.044079
   vertex 0.004112 -0.102624 0.041538
   vertex 0.012696 -0.116797 0.044479
  endloop
 endfacet
 facet normal -0.533051 -0.458046 -0.711372
  outer loop
   vertex 0.007264 -0.101823 0.037071
   vertex 0.002863 -0.09795 0.037875
   vertex 0.005466 -0.09705 0.035345
  endloop
 endfacet
 facet normal -0.396775 -0.656343 -0.641703
  outer loop
   vertex 0.005466 -0.09705 0.035345
   vertex 0.002863 -0.09795 0.037875
   vertex 0.000493 -0.094776 0.036094
  endloop
 endfacet
 facet normal -0.658696 -0.632934 -0.406835
  outer loop
   vertex 0.002863 -0.09795 0.037875
   vertex 0.002244 -0.098009 0.038969
   vertex 4.2e-05 -0.094687 0.037366
  endloop
 endfacet
 facet normal -0.723087 -0.657952 -0.210343
  outer loop
   vertex 0.000493 -0.094776 0.036094
   vertex 0.002863 -0.09795 0.037875
   vertex 4.2e-05 -0.094687 0.037366
  endloop
 endfacet
 facet normal 0.029593 -0.33004 -0.943503
  outer loop
   vertex 0.007264 -0.101823 0.037071
   vertex 0.005466 -0.09705 0.035345
   vertex 0.009257 -0.10161 0.037059
  endloop
 endfacet
 facet normal 0.010694 -0.155702 -0.987746
  outer loop
   vertex 0.009257 -0.10161 0.037059
   vertex 0.010169 -0.103958 0.037439
   vertex 0.007264 -0.101823 0.037071
  endloop
 endfacet
 facet normal -0.901848 -0.307187 0.30382
  outer loop
   vertex 0.013968 -0.117317 0.047729
   vertex 0.012585 -0.114317 0.046657
   vertex 0.012696 -0.116797 0.044479
  endloop
 endfacet
 facet normal -0.754746 -0.626307 0.195187
  outer loop
   vertex 0.013379 -0.118239 0.042493
   vertex 0.013968 -0.117317 0.047729
   vertex 0.012696 -0.116797 0.044479
  endloop
 endfacet
 facet normal -0.771035 -0.394069 0.500215
  outer loop
   vertex 0.012198 -0.112799 0.046861
   vertex 0.006262 -0.104716 0.044079
   vertex 0.012696 -0.116797 0.044479
  endloop
 endfacet
 facet normal -0.926227 -0.271306 0.261721
  outer loop
   vertex 0.012696 -0.116797 0.044479
   vertex 0.012585 -0.114317 0.046657
   vertex 0.012198 -0.112799 0.046861
  endloop
 endfacet
 facet normal 0.3401 0.928888 0.146622
  outer loop
   vertex 0.017203 -0.112625 0.043904
   vertex 0.01682 -0.112096 0.041441
   vertex 0.01511 -0.111486 0.041543
  endloop
 endfacet
 facet normal 0.592524 0.801568 0.0800239
  outer loop
   vertex 0.01682 -0.112096 0.041441
   vertex 0.017203 -0.112625 0.043904
   vertex 0.018068 -0.113276 0.04402
  endloop
 endfacet
 facet normal 0.859426 0.510059 -0.0350178
  outer loop
   vertex 0.01511 -0.111486 0.041543
   vertex 0.009681 -0.102042 0.04586
   vertex 0.014819 -0.110719 0.045573
  endloop
 endfacet
 facet normal 0.8251 0.544021 -0.152483
  outer loop
   vertex 0.009681 -0.102042 0.04586
   vertex 0.01511 -0.111486 0.041543
   vertex 0.012172 -0.107777 0.038878
  endloop
 endfacet
 facet normal 0.570695 0.81327 -0.113575
  outer loop
   vertex 0.017203 -0.112625 0.043904
   vertex 0.01511 -0.111486 0.041543
   vertex 0.014819 -0.110719 0.045573
  endloop
 endfacet
 facet normal 0.906452 0.421683 -0.0229711
  outer loop
   vertex 0.009681 -0.102042 0.04586
   vertex 0.012172 -0.107777 0.038878
   vertex 0.009257 -0.10161 0.037059
  endloop
 endfacet
 facet normal 0.821315 0.234874 -0.519881
  outer loop
   vertex 0.012172 -0.107777 0.038878
   vertex 0.010169 -0.103958 0.037439
   vertex 0.009257 -0.10161 0.037059
  endloop
 endfacet
 facet normal 0.926784 0.137525 -0.349513
  outer loop
   vertex 0.018068 -0.113276 0.04402
   vertex 0.019136 -0.114417 0.046403
   vertex 0.018569 -0.115656 0.044412
  endloop
 endfacet
 facet normal 0.606853 0.788421 -0.100611
  outer loop
   vertex 0.017203 -0.112625 0.043904
   vertex 0.017463 -0.112269 0.048262
   vertex 0.018068 -0.113276 0.04402
  endloop
 endfacet
 facet normal 0.77076 0.635805 -0.0410053
  outer loop
   vertex 0.019136 -0.114417 0.046403
   vertex 0.018068 -0.113276 0.04402
   vertex 0.017463 -0.112269 0.048262
  endloop
 endfacet
 facet normal 0.968117 -0.199406 -0.151611
  outer loop
   vertex 0.018569 -0.115656 0.044412
   vertex 0.019136 -0.114417 0.046403
   vertex 0.018764 -0.116366 0.046591
  endloop
 endfacet
 facet normal -0.621799 -0.756374 0.203136
  outer loop
   vertex 0.013968 -0.117317 0.047729
   vertex 0.013379 -0.118239 0.042493
   vertex 0.013915 -0.118081 0.044722
  endloop
 endfacet
 facet normal -0.582665 -0.785176 0.209764
  outer loop
   vertex 0.014877 -0.118458 0.045983
   vertex 0.013968 -0.117317 0.047729
   vertex 0.013915 -0.118081 0.044722
  endloop
 endfacet
 facet normal 0.957069 -0.159315 0.242152
  outer loop
   vertex 0.019136 -0.114417 0.046403
   vertex 0.018247 -0.116248 0.048712
   vertex 0.018764 -0.116366 0.046591
  endloop
 endfacet
 facet normal 0.725777 -0.654028 0.213297
  outer loop
   vertex 0.017117 -0.117938 0.047375
   vertex 0.018764 -0.116366 0.046591
   vertex 0.018247 -0.116248 0.048712
  endloop
 endfacet
 facet normal 0.35787 -0.797955 0.484972
  outer loop
   vertex 0.017633 -0.117004 0.048531
   vertex 0.016106 -0.118234 0.047634
   vertex 0.017117 -0.117938 0.047375
  endloop
 endfacet
 facet normal 0.738748 -0.646 0.192186
  outer loop
   vertex 0.017633 -0.117004 0.048531
   vertex 0.017117 -0.117938 0.047375
   vertex 0.018247 -0.116248 0.048712
  endloop
 endfacet
 facet normal -0.0543795 -0.983263 0.173886
  outer loop
   vertex 0.014877 -0.118458 0.045983
   vertex 0.016106 -0.118234 0.047634
   vertex 0.015166 -0.118092 0.048143
  endloop
 endfacet
 facet normal 0.401426 -0.810049 0.427409
  outer loop
   vertex 0.016106 -0.118234 0.047634
   vertex 0.017633 -0.117004 0.048531
   vertex 0.016036 -0.11795 0.048238
  endloop
 endfacet
 facet normal 0.0989912 -0.896042 0.432792
  outer loop
   vertex 0.015166 -0.118092 0.048143
   vertex 0.016106 -0.118234 0.047634
   vertex 0.016036 -0.11795 0.048238
  endloop
 endfacet
 facet normal -0.581291 -0.785879 0.210939
  outer loop
   vertex 0.013968 -0.117317 0.047729
   vertex 0.014877 -0.118458 0.045983
   vertex 0.015166 -0.118092 0.048143
  endloop
 endfacet
 facet normal -0.821929 -0.567626 -0.0472645
  outer loop
   vertex 0.002244 -0.098009 0.038969
   vertex 0.002044 -0.097902 0.041162
   vertex 4.2e-05 -0.094687 0.037366
  endloop
 endfacet
 facet normal -0.865565 -0.417229 0.27698
  outer loop
   vertex 0.002044 -0.097902 0.041162
   vertex 0.006262 -0.104716 0.044079
   vertex -0.000972 -0.090814 0.042414
  endloop
 endfacet
 facet normal -0.525956 0.110844 0.843258
  outer loop
   vertex 0.009651 -0.107251 0.046526
   vertex 0.009681 -0.102042 0.04586
   vertex 0.006262 -0.104716 0.044079
  endloop
 endfacet
 facet normal -0.515476 -0.167585 0.840357
  outer loop
   vertex 0.002327 -0.092522 0.044097
   vertex -0.000972 -0.090814 0.042414
   vertex 0.006262 -0.104716 0.044079
  endloop
 endfacet
 facet normal -0.380353 -0.124093 0.916479
  outer loop
   vertex 0.006262 -0.104716 0.044079
   vertex 0.009681 -0.102042 0.04586
   vertex 0.002327 -0.092522 0.044097
  endloop
 endfacet
 facet normal -0.689836 -0.276287 0.669173
  outer loop
   vertex 0.009651 -0.107251 0.046526
   vertex 0.006262 -0.104716 0.044079
   vertex 0.012198 -0.112799 0.046861
  endloop
 endfacet
 facet normal -0.879028 -0.472538 0.0633834
  outer loop
   vertex 4.2e-05 -0.094687 0.037366
   vertex 0.002044 -0.097902 0.041162
   vertex -0.002322 -0.09014 0.03848
  endloop
 endfacet
 facet normal -0.879716 -0.47007 0.0716483
  outer loop
   vertex 0.002044 -0.097902 0.041162
   vertex -0.001579 -0.091279 0.04013
   vertex -0.002322 -0.09014 0.03848
  endloop
 endfacet
 facet normal -0.853178 -0.418121 0.311868
  outer loop
   vertex -0.001579 -0.091279 0.04013
   vertex 0.002044 -0.097902 0.041162
   vertex -0.000972 -0.090814 0.042414
  endloop
 endfacet
 facet normal -0.396171 -0.561146 -0.726748
  outer loop
   vertex 0.003417 -0.091494 0.032172
   vertex 0.005466 -0.09705 0.035345
   vertex 0.000515 -0.093337 0.035177
  endloop
 endfacet
 facet normal -0.348075 -0.50001 -0.79299
  outer loop
   vertex 0.005466 -0.09705 0.035345
   vertex 0.000493 -0.094776 0.036094
   vertex 0.000515 -0.093337 0.035177
  endloop
 endfacet
 facet normal 0.346249 -0.365694 -0.863933
  outer loop
   vertex 0.005466 -0.09705 0.035345
   vertex 0.003417 -0.091494 0.032172
   vertex 0.006105 -0.093147 0.033949
  endloop
 endfacet
 facet normal 0.159152 -0.355485 -0.921033
  outer loop
   vertex 0.005466 -0.09705 0.035345
   vertex 0.006105 -0.093147 0.033949
   vertex 0.007212 -0.096587 0.035468
  endloop
 endfacet
 facet normal 0.133696 -0.249369 -0.959135
  outer loop
   vertex 0.009257 -0.10161 0.037059
   vertex 0.005466 -0.09705 0.035345
   vertex 0.007212 -0.096587 0.035468
  endloop
 endfacet
 facet normal -0.781514 -0.32674 -0.531485
  outer loop
   vertex -0.000558 -0.093474 0.036839
   vertex 0.000515 -0.093337 0.035177
   vertex 0.000493 -0.094776 0.036094
  endloop
 endfacet
 facet normal -0.818478 -0.51527 -0.254148
  outer loop
   vertex 0.000493 -0.094776 0.036094
   vertex 4.2e-05 -0.094687 0.037366
   vertex -0.000558 -0.093474 0.036839
  endloop
 endfacet
 facet normal -0.890061 -0.454638 -0.0330917
  outer loop
   vertex -0.000558 -0.093474 0.036839
   vertex 4.2e-05 -0.094687 0.037366
   vertex -0.002322 -0.09014 0.03848
  endloop
 endfacet
 facet normal 0.983666 0.169148 0.0615589
  outer loop
   vertex 0.00764 -0.094211 0.042567
   vertex 0.009257 -0.10161 0.037059
   vertex 0.007693 -0.091829 0.035175
  endloop
 endfacet
 facet normal 0.970579 0.238217 -0.035066
  outer loop
   vertex 0.009257 -0.10161 0.037059
   vertex 0.00764 -0.094211 0.042567
   vertex 0.009681 -0.102042 0.04586
  endloop
 endfacet
 facet normal 0.446449 -0.0998915 -0.889216
  outer loop
   vertex 0.007693 -0.091829 0.035175
   vertex 0.009257 -0.10161 0.037059
   vertex 0.007212 -0.096587 0.035468
  endloop
 endfacet
 facet normal -0.912133 -0.408522 0.0335037
  outer loop
   vertex 0.012643 -0.1144 0.047224
   vertex 0.012585 -0.114317 0.046657
   vertex 0.013968 -0.117317 0.047729
  endloop
 endfacet
 facet normal -0.631794 -0.155517 0.759375
  outer loop
   vertex 0.012643 -0.1144 0.047224
   vertex 0.013968 -0.117317 0.047729
   vertex 0.015041 -0.117052 0.048676
  endloop
 endfacet
 facet normal -0.532655 -0.435831 0.725486
  outer loop
   vertex 0.013968 -0.117317 0.047729
   vertex 0.015166 -0.118092 0.048143
   vertex 0.015041 -0.117052 0.048676
  endloop
 endfacet
 facet normal -0.979751 -0.186466 0.0729258
  outer loop
   vertex 0.012401 -0.113087 0.04733
   vertex 0.012585 -0.114317 0.046657
   vertex 0.012643 -0.1144 0.047224
  endloop
 endfacet
 facet normal -0.932992 -0.269859 0.238122
  outer loop
   vertex 0.012585 -0.114317 0.046657
   vertex 0.012401 -0.113087 0.04733
   vertex 0.012198 -0.112799 0.046861
  endloop
 endfacet
 facet normal -0.730029 -0.298009 0.615019
  outer loop
   vertex 0.012135 -0.111749 0.047295
   vertex 0.009651 -0.107251 0.046526
   vertex 0.012198 -0.112799 0.046861
  endloop
 endfacet
 facet normal -0.92575 -0.0402381 0.375989
  outer loop
   vertex 0.012198 -0.112799 0.046861
   vertex 0.012401 -0.113087 0.04733
   vertex 0.012501 -0.111893 0.047704
  endloop
 endfacet
 facet normal -0.761916 -0.285922 0.581148
  outer loop
   vertex 0.012135 -0.111749 0.047295
   vertex 0.012198 -0.112799 0.046861
   vertex 0.012501 -0.111893 0.047704
  endloop
 endfacet
 facet normal 0.577354 0.810269 -0.100636
  outer loop
   vertex 0.017463 -0.112269 0.048262
   vertex 0.017203 -0.112625 0.043904
   vertex 0.014819 -0.110719 0.045573
  endloop
 endfacet
 facet normal 0.76873 0.439838 0.464323
  outer loop
   vertex 0.013683 -0.110335 0.04709
   vertex 0.014819 -0.110719 0.045573
   vertex 0.009681 -0.102042 0.04586
  endloop
 endfacet
 facet normal -0.0277399 0.161265 0.986521
  outer loop
   vertex 0.006777 -0.095011 0.044629
   vertex 0.002327 -0.092522 0.044097
   vertex 0.009681 -0.102042 0.04586
  endloop
 endfacet
 facet normal -0.0415272 0.126949 0.99104
  outer loop
   vertex 0.009651 -0.107251 0.046526
   vertex 0.013683 -0.110335 0.04709
   vertex 0.009681 -0.102042 0.04586
  endloop
 endfacet
 facet normal 0.776666 0.405222 0.482271
  outer loop
   vertex 0.006777 -0.095011 0.044629
   vertex 0.009681 -0.102042 0.04586
   vertex 0.00764 -0.094211 0.042567
  endloop
 endfacet
 facet normal 0.590816 0.79766 -0.121141
  outer loop
   vertex 0.015307 -0.110743 0.047795
   vertex 0.017463 -0.112269 0.048262
   vertex 0.014819 -0.110719 0.045573
  endloop
 endfacet
 facet normal 0.262643 0.963734 -0.0472735
  outer loop
   vertex 0.014819 -0.110719 0.045573
   vertex 0.013683 -0.110335 0.04709
   vertex 0.015307 -0.110743 0.047795
  endloop
 endfacet
 facet normal 0.956385 -0.215042 0.197698
  outer loop
   vertex 0.01869 -0.114321 0.048665
   vertex 0.018247 -0.116248 0.048712
   vertex 0.019136 -0.114417 0.046403
  endloop
 endfacet
 facet normal 0.836913 0.528437 0.142588
  outer loop
   vertex 0.019136 -0.114417 0.046403
   vertex 0.017463 -0.112269 0.048262
   vertex 0.01869 -0.114321 0.048665
  endloop
 endfacet
 facet normal 0.491305 0.441256 0.750941
  outer loop
   vertex 0.017463 -0.112269 0.048262
   vertex 0.0168 -0.112654 0.048922
   vertex 0.01869 -0.114321 0.048665
  endloop
 endfacet
 facet normal 0.310973 0.651208 0.692261
  outer loop
   vertex 0.0168 -0.112654 0.048922
   vertex 0.017463 -0.112269 0.048262
   vertex 0.015307 -0.110743 0.047795
  endloop
 endfacet
 facet normal 0.659976 -0.13369 0.739296
  outer loop
   vertex 0.01869 -0.114321 0.048665
   vertex 0.017713 -0.115804 0.049269
   vertex 0.018247 -0.116248 0.048712
  endloop
 endfacet
 facet normal 0.389329 -0.50122 0.772788
  outer loop
   vertex 0.017713 -0.115804 0.049269
   vertex 0.017633 -0.117004 0.048531
   vertex 0.018247 -0.116248 0.048712
  endloop
 endfacet
 facet normal 0.157479 -0.524919 0.836457
  outer loop
   vertex 0.017713 -0.115804 0.049269
   vertex 0.016036 -0.11795 0.048238
   vertex 0.017633 -0.117004 0.048531
  endloop
 endfacet
 facet normal -0.0222664 -0.458094 0.888625
  outer loop
   vertex 0.015166 -0.118092 0.048143
   vertex 0.016036 -0.11795 0.048238
   vertex 0.015041 -0.117052 0.048676
  endloop
 endfacet
 facet normal 0.00348697 -0.435254 0.900301
  outer loop
   vertex 0.016036 -0.11795 0.048238
   vertex 0.017713 -0.115804 0.049269
   vertex 0.015041 -0.117052 0.048676
  endloop
 endfacet
 facet normal -0.895869 -0.323994 0.30405
  outer loop
   vertex -0.001579 -0.091279 0.04013
   vertex -0.000972 -0.090814 0.042414
   vertex -0.001706 -0.089035 0.042147
  endloop
 endfacet
 facet normal -0.658215 -0.161206 0.735368
  outer loop
   vertex -0.001706 -0.089035 0.042147
   vertex -0.000972 -0.090814 0.042414
   vertex 0.001034 -0.090155 0.044354
  endloop
 endfacet
 facet normal -0.570638 -0.390173 0.72259
  outer loop
   vertex 0.001034 -0.090155 0.044354
   vertex -0.000972 -0.090814 0.042414
   vertex 0.002327 -0.092522 0.044097
  endloop
 endfacet
 facet normal -0.581653 -0.185824 0.791927
  outer loop
   vertex 0.012135 -0.111749 0.047295
   vertex 0.012451 -0.110961 0.047712
   vertex 0.009651 -0.107251 0.046526
  endloop
 endfacet
 facet normal 0.215616 0.441206 0.871118
  outer loop
   vertex 0.012451 -0.110961 0.047712
   vertex 0.013683 -0.110335 0.04709
   vertex 0.009651 -0.107251 0.046526
  endloop
 endfacet
 facet normal -0.140224 -0.0392381 0.989342
  outer loop
   vertex 0.006777 -0.095011 0.044629
   vertex 0.004729 -0.091802 0.044466
   vertex 0.002327 -0.092522 0.044097
  endloop
 endfacet
 facet normal -0.10211 -0.162339 0.981438
  outer loop
   vertex 0.002327 -0.092522 0.044097
   vertex 0.004729 -0.091802 0.044466
   vertex 0.001034 -0.090155 0.044354
  endloop
 endfacet
 facet normal -0.90096 -0.351427 -0.2545
  outer loop
   vertex -0.000558 -0.093474 0.036839
   vertex -0.002322 -0.09014 0.03848
   vertex -0.000546 -0.091485 0.03405
  endloop
 endfacet
 facet normal -0.882051 -0.464944 0.076238
  outer loop
   vertex -0.001579 -0.091279 0.04013
   vertex -0.002245 -0.090037 0.039999
   vertex -0.002322 -0.09014 0.03848
  endloop
 endfacet
 facet normal -0.997469 0.0626797 0.0335681
  outer loop
   vertex -0.002037 -0.087042 0.041164
   vertex -0.002147 -0.087768 0.039251
   vertex -0.002322 -0.09014 0.03848
  endloop
 endfacet
 facet normal -0.997364 0.0554563 0.0467972
  outer loop
   vertex -0.002129 -0.08849 0.040638
   vertex -0.002322 -0.09014 0.03848
   vertex -0.002245 -0.090037 0.039999
  endloop
 endfacet
 facet normal -0.997486 0.0428793 0.0564245
  outer loop
   vertex -0.002129 -0.08849 0.040638
   vertex -0.002037 -0.087042 0.041164
   vertex -0.002322 -0.09014 0.03848
  endloop
 endfacet
 facet normal -0.986347 0.112009 -0.12072
  outer loop
   vertex -0.001705 -0.08751 0.035879
   vertex -0.002322 -0.09014 0.03848
   vertex -0.002147 -0.087768 0.039251
  endloop
 endfacet
 facet normal -0.933583 -0.11623 -0.338988
  outer loop
   vertex -0.001705 -0.08751 0.035879
   vertex -0.000546 -0.091485 0.03405
   vertex -0.002322 -0.09014 0.03848
  endloop
 endfacet
 facet normal -0.986671 -0.136065 0.0892529
  outer loop
   vertex -0.001706 -0.089035 0.042147
   vertex -0.001739 -0.089451 0.041148
   vertex -0.001579 -0.091279 0.04013
  endloop
 endfacet
 facet normal -0.772684 -0.359129 0.523437
  outer loop
   vertex -0.001739 -0.089451 0.041148
   vertex -0.002245 -0.090037 0.039999
   vertex -0.001579 -0.091279 0.04013
  endloop
 endfacet
 facet normal -0.186365 -0.747027 -0.638136
  outer loop
   vertex 0.003417 -0.091494 0.032172
   vertex 0.000515 -0.093337 0.035177
   vertex 0.001125 -0.090478 0.031652
  endloop
 endfacet
 facet normal -0.148388 -0.694883 -0.703646
  outer loop
   vertex 0.001125 -0.090478 0.031652
   vertex 0.003112 -0.090636 0.031389
   vertex 0.003417 -0.091494 0.032172
  endloop
 endfacet
 facet normal 0.484437 -0.489481 -0.725072
  outer loop
   vertex 0.003417 -0.091494 0.032172
   vertex 0.003112 -0.090636 0.031389
   vertex 0.004974 -0.088174 0.030971
  endloop
 endfacet
 facet normal 0.392504 -0.470058 -0.790561
  outer loop
   vertex 0.006875 -0.090026 0.033016
   vertex 0.003417 -0.091494 0.032172
   vertex 0.004974 -0.088174 0.030971
  endloop
 endfacet
 facet normal 0.358956 -0.347517 -0.866246
  outer loop
   vertex 0.006875 -0.090026 0.033016
   vertex 0.006105 -0.093147 0.033949
   vertex 0.003417 -0.091494 0.032172
  endloop
 endfacet
 facet normal -0.624284 -0.634754 -0.455366
  outer loop
   vertex 0.000515 -0.093337 0.035177
   vertex -0.000558 -0.093474 0.036839
   vertex -0.000546 -0.091485 0.03405
  endloop
 endfacet
 facet normal -0.477881 -0.639953 -0.601739
  outer loop
   vertex -0.000546 -0.091485 0.03405
   vertex 0.001125 -0.090478 0.031652
   vertex 0.000515 -0.093337 0.035177
  endloop
 endfacet
 facet normal 0.664111 -0.112651 -0.739098
  outer loop
   vertex 0.007212 -0.096587 0.035468
   vertex 0.006105 -0.093147 0.033949
   vertex 0.007693 -0.091829 0.035175
  endloop
 endfacet
 facet normal 0.737649 -0.353885 -0.575013
  outer loop
   vertex 0.007693 -0.091829 0.035175
   vertex 0.006105 -0.093147 0.033949
   vertex 0.006875 -0.090026 0.033016
  endloop
 endfacet
 facet normal 0.999967 -0.00621707 0.00516632
  outer loop
   vertex 0.00764 -0.094211 0.042567
   vertex 0.007693 -0.091829 0.035175
   vertex 0.007731 -0.086612 0.034098
  endloop
 endfacet
 facet normal 0.83098 0.304156 0.465792
  outer loop
   vertex 0.006777 -0.095011 0.044629
   vertex 0.00764 -0.094211 0.042567
   vertex 0.005655 -0.091526 0.044355
  endloop
 endfacet
 facet normal 0.691355 0.0304005 0.721875
  outer loop
   vertex 0.006116 -0.085388 0.043655
   vertex 0.005655 -0.091526 0.044355
   vertex 0.00764 -0.094211 0.042567
  endloop
 endfacet
 facet normal 0.977725 0.150892 0.145897
  outer loop
   vertex 0.007731 -0.086612 0.034098
   vertex 0.006116 -0.085388 0.043655
   vertex 0.00764 -0.094211 0.042567
  endloop
 endfacet
 facet normal 0.902756 -0.0932643 -0.419921
  outer loop
   vertex 0.007731 -0.086612 0.034098
   vertex 0.007693 -0.091829 0.035175
   vertex 0.006875 -0.090026 0.033016
  endloop
 endfacet
 facet normal -0.64466 -0.178822 0.74326
  outer loop
   vertex 0.012501 -0.111893 0.047704
   vertex 0.012401 -0.113087 0.04733
   vertex 0.012643 -0.1144 0.047224
  endloop
 endfacet
 facet normal -0.657091 -0.19557 0.728
  outer loop
   vertex 0.012643 -0.1144 0.047224
   vertex 0.015041 -0.117052 0.048676
   vertex 0.013267 -0.113701 0.047975
  endloop
 endfacet
 facet normal -0.670399 -0.175985 0.720829
  outer loop
   vertex 0.012501 -0.111893 0.047704
   vertex 0.012643 -0.1144 0.047224
   vertex 0.013267 -0.113701 0.047975
  endloop
 endfacet
 facet normal -0.247621 0.0710414 0.966249
  outer loop
   vertex 0.013267 -0.113701 0.047975
   vertex 0.015041 -0.117052 0.048676
   vertex 0.017713 -0.115804 0.049269
  endloop
 endfacet
 facet normal -0.752398 -0.0460044 0.6571
  outer loop
   vertex 0.012135 -0.111749 0.047295
   vertex 0.012501 -0.111893 0.047704
   vertex 0.012451 -0.110961 0.047712
  endloop
 endfacet
 facet normal -0.526074 -0.0355152 0.849697
  outer loop
   vertex 0.013594 -0.11191 0.04838
   vertex 0.012451 -0.110961 0.047712
   vertex 0.012501 -0.111893 0.047704
  endloop
 endfacet
 facet normal -0.524676 -0.0954949 0.845929
  outer loop
   vertex 0.013594 -0.11191 0.04838
   vertex 0.012501 -0.111893 0.047704
   vertex 0.013267 -0.113701 0.047975
  endloop
 endfacet
 facet normal -0.0773927 0.775228 0.626922
  outer loop
   vertex 0.012451 -0.110961 0.047712
   vertex 0.015307 -0.110743 0.047795
   vertex 0.013683 -0.110335 0.04709
  endloop
 endfacet
 facet normal 0.0871597 0.10594 0.990545
  outer loop
   vertex 0.004729 -0.091802 0.044466
   vertex 0.006777 -0.095011 0.044629
   vertex 0.005655 -0.091526 0.044355
  endloop
 endfacet
 facet normal -0.0645192 0.521272 0.850948
  outer loop
   vertex 0.012451 -0.110961 0.047712
   vertex 0.013594 -0.11191 0.04838
   vertex 0.015307 -0.110743 0.047795
  endloop
 endfacet
 facet normal -0.0343101 0.487661 0.872358
  outer loop
   vertex 0.015307 -0.110743 0.047795
   vertex 0.013594 -0.11191 0.04838
   vertex 0.0168 -0.112654 0.048922
  endloop
 endfacet
 facet normal 0.542143 0.511939 0.666333
  outer loop
   vertex 0.01869 -0.114321 0.048665
   vertex 0.0168 -0.112654 0.048922
   vertex 0.017896 -0.114252 0.049258
  endloop
 endfacet
 facet normal 0.593555 -0.0643036 0.80222
  outer loop
   vertex 0.017713 -0.115804 0.049269
   vertex 0.01869 -0.114321 0.048665
   vertex 0.017896 -0.114252 0.049258
  endloop
 endfacet
 facet normal -0.264695 0.0211724 0.9641
  outer loop
   vertex 0.0168 -0.112654 0.048922
   vertex 0.013267 -0.113701 0.047975
   vertex 0.017896 -0.114252 0.049258
  endloop
 endfacet
 facet normal -0.204482 -0.180233 0.962135
  outer loop
   vertex 0.0168 -0.112654 0.048922
   vertex 0.013594 -0.11191 0.04838
   vertex 0.013267 -0.113701 0.047975
  endloop
 endfacet
 facet normal -0.262723 0.0378101 0.96413
  outer loop
   vertex 0.013267 -0.113701 0.047975
   vertex 0.017713 -0.115804 0.049269
   vertex 0.017896 -0.114252 0.049258
  endloop
 endfacet
 facet normal -0.965375 -0.032679 0.25881
  outer loop
   vertex -0.002129 -0.08849 0.040638
   vertex -0.001706 -0.089035 0.042147
   vertex -0.002037 -0.087042 0.041164
  endloop
 endfacet
 facet normal -0.932412 0.0230315 0.360662
  outer loop
   vertex -0.001706 -0.089035 0.042147
   vertex -0.001534 -0.085783 0.042384
   vertex -0.002037 -0.087042 0.041164
  endloop
 endfacet
 facet normal -0.94134 -0.299363 0.155756
  outer loop
   vertex -0.002129 -0.08849 0.040638
   vertex -0.001739 -0.089451 0.041148
   vertex -0.001706 -0.089035 0.042147
  endloop
 endfacet
 facet normal -0.670134 -0.315958 0.671633
  outer loop
   vertex 0.001034 -0.090155 0.044354
   vertex -0.001111 -0.087389 0.043515
   vertex -0.001706 -0.089035 0.042147
  endloop
 endfacet
 facet normal -0.926013 0.0215111 0.376879
  outer loop
   vertex -0.001706 -0.089035 0.042147
   vertex -0.001111 -0.087389 0.043515
   vertex -0.001534 -0.085783 0.042384
  endloop
 endfacet
 facet normal -0.167847 -0.31299 0.934807
  outer loop
   vertex 0.004729 -0.091802 0.044466
   vertex 0.002087 -0.088629 0.045054
   vertex 0.001034 -0.090155 0.044354
  endloop
 endfacet
 facet normal -0.459535 -0.0882973 0.88376
  outer loop
   vertex 0.002087 -0.088629 0.045054
   vertex -0.001111 -0.087389 0.043515
   vertex 0.001034 -0.090155 0.044354
  endloop
 endfacet
 facet normal 0.138608 -0.0676837 0.988032
  outer loop
   vertex 0.005655 -0.091526 0.044355
   vertex 0.002087 -0.088629 0.045054
   vertex 0.004729 -0.091802 0.044466
  endloop
 endfacet
 facet normal -0.676308 -0.380185 -0.630925
  outer loop
   vertex 0.001125 -0.090478 0.031652
   vertex -0.000546 -0.091485 0.03405
   vertex 0.000695 -0.089577 0.03157
  endloop
 endfacet
 facet normal -0.880949 -0.0398988 -0.471526
  outer loop
   vertex 0.000695 -0.089577 0.03157
   vertex -0.000546 -0.091485 0.03405
   vertex -0.001705 -0.08751 0.035879
  endloop
 endfacet
 facet normal -0.884608 -0.119824 0.450679
  outer loop
   vertex -0.002245 -0.090037 0.039999
   vertex -0.001739 -0.089451 0.041148
   vertex -0.002129 -0.08849 0.040638
  endloop
 endfacet
 facet normal -0.871094 0.473686 -0.129681
  outer loop
   vertex -0.002147 -0.087768 0.039251
   vertex -0.002037 -0.087042 0.041164
   vertex -0.001534 -0.085783 0.042384
  endloop
 endfacet
 facet normal -0.688443 0.665982 -0.287253
  outer loop
   vertex -0.001534 -0.085783 0.042384
   vertex -0.000306 -0.084109 0.043322
   vertex -0.002147 -0.087768 0.039251
  endloop
 endfacet
 facet normal -0.460834 0.887455 0.00749701
  outer loop
   vertex 0.005782 -0.083612 0.034675
   vertex -0.001705 -0.08751 0.035879
   vertex -0.002147 -0.087768 0.039251
  endloop
 endfacet
 facet normal -0.590825 0.714398 -0.374914
  outer loop
   vertex -0.000306 -0.084109 0.043322
   vertex 0.005782 -0.083612 0.034675
   vertex -0.002147 -0.087768 0.039251
  endloop
 endfacet
 facet normal -0.887616 -0.0882291 -0.452055
  outer loop
   vertex 7.6e-05 -0.087259 0.032333
   vertex 0.000695 -0.089577 0.03157
   vertex -0.001705 -0.08751 0.035879
  endloop
 endfacet
 facet normal -0.443416 0.888399 0.118869
  outer loop
   vertex 0.005782 -0.083612 0.034675
   vertex 0.001109 -0.085663 0.032572
   vertex -0.001705 -0.08751 0.035879
  endloop
 endfacet
 facet normal -0.763594 0.545876 -0.344881
  outer loop
   vertex 7.6e-05 -0.087259 0.032333
   vertex -0.001705 -0.08751 0.035879
   vertex 0.001109 -0.085663 0.032572
  endloop
 endfacet
 facet normal -0.460975 -0.296132 -0.836545
  outer loop
   vertex 0.001125 -0.090478 0.031652
   vertex 0.000695 -0.089577 0.03157
   vertex 0.001712 -0.089581 0.031011
  endloop
 endfacet
 facet normal -0.152599 -0.506549 -0.8486
  outer loop
   vertex 0.001712 -0.089581 0.031011
   vertex 0.003112 -0.090636 0.031389
   vertex 0.001125 -0.090478 0.031652
  endloop
 endfacet
 facet normal -0.0662127 -0.413268 -0.908199
  outer loop
   vertex 0.002581 -0.088828 0.030605
   vertex 0.003112 -0.090636 0.031389
   vertex 0.001712 -0.089581 0.031011
  endloop
 endfacet
 facet normal 0.2301 -0.329491 -0.915691
  outer loop
   vertex 0.004974 -0.088174 0.030971
   vertex 0.003112 -0.090636 0.031389
   vertex 0.002581 -0.088828 0.030605
  endloop
 endfacet
 facet normal 0.367566 0.0949932 -0.925133
  outer loop
   vertex 0.005942 -0.085599 0.03162
   vertex 0.004974 -0.088174 0.030971
   vertex 0.004394 -0.086368 0.030926
  endloop
 endfacet
 facet normal 0.511686 -0.344082 -0.787264
  outer loop
   vertex 0.0065 -0.08779 0.031795
   vertex 0.006875 -0.090026 0.033016
   vertex 0.004974 -0.088174 0.030971
  endloop
 endfacet
 facet normal 0.145272 0.022008 -0.989147
  outer loop
   vertex 0.004394 -0.086368 0.030926
   vertex 0.004974 -0.088174 0.030971
   vertex 0.002581 -0.088828 0.030605
  endloop
 endfacet
 facet normal 0.465229 0.0478855 -0.883894
  outer loop
   vertex 0.004974 -0.088174 0.030971
   vertex 0.005942 -0.085599 0.03162
   vertex 0.0065 -0.08779 0.031795
  endloop
 endfacet
 facet normal 0.896393 -0.0870054 -0.434636
  outer loop
   vertex 0.0065 -0.08779 0.031795
   vertex 0.007731 -0.086612 0.034098
   vertex 0.006875 -0.090026 0.033016
  endloop
 endfacet
 facet normal 0.936588 0.330707 0.115915
  outer loop
   vertex 0.007129 -0.084844 0.033918
   vertex 0.006116 -0.085388 0.043655
   vertex 0.007731 -0.086612 0.034098
  endloop
 endfacet
 facet normal 0.809064 0.219999 -0.544992
  outer loop
   vertex 0.0065 -0.08779 0.031795
   vertex 0.007129 -0.084844 0.033918
   vertex 0.007731 -0.086612 0.034098
  endloop
 endfacet
 facet normal 0.357864 0.0792294 0.930407
  outer loop
   vertex 0.005655 -0.091526 0.044355
   vertex 0.006116 -0.085388 0.043655
   vertex 0.003513 -0.083542 0.044499
  endloop
 endfacet
 facet normal 0.225554 0.0429592 0.973283
  outer loop
   vertex 0.002087 -0.088629 0.045054
   vertex 0.005655 -0.091526 0.044355
   vertex 0.003513 -0.083542 0.044499
  endloop
 endfacet
 facet normal 0.511177 0.365048 0.778099
  outer loop
   vertex 0.006116 -0.085388 0.043655
   vertex 0.005149 -0.083614 0.043458
   vertex 0.003513 -0.083542 0.044499
  endloop
 endfacet
 facet normal 0.863852 0.485715 0.133567
  outer loop
   vertex 0.006116 -0.085388 0.043655
   vertex 0.00663 -0.084295 0.036356
   vertex 0.005149 -0.083614 0.043458
  endloop
 endfacet
 facet normal 0.935108 0.334842 0.115992
  outer loop
   vertex 0.00663 -0.084295 0.036356
   vertex 0.006116 -0.085388 0.043655
   vertex 0.007129 -0.084844 0.033918
  endloop
 endfacet
 facet normal -0.765459 0.223373 0.603471
  outer loop
   vertex -0.001534 -0.085783 0.042384
   vertex -0.001111 -0.087389 0.043515
   vertex -0.000306 -0.084109 0.043322
  endloop
 endfacet
 facet normal -0.761849 0.222768 0.608244
  outer loop
   vertex -0.000306 -0.084109 0.043322
   vertex -0.001111 -0.087389 0.043515
   vertex 0.00023 -0.085293 0.044427
  endloop
 endfacet
 facet normal -0.460009 -0.0900434 0.883337
  outer loop
   vertex 0.002087 -0.088629 0.045054
   vertex 0.00023 -0.085293 0.044427
   vertex -0.001111 -0.087389 0.043515
  endloop
 endfacet
 facet normal -0.155592 0.0981311 0.982935
  outer loop
   vertex 0.00023 -0.085293 0.044427
   vertex 0.002087 -0.088629 0.045054
   vertex 0.002564 -0.083816 0.044649
  endloop
 endfacet
 facet normal 0.13609 0.0696702 0.988244
  outer loop
   vertex 0.002087 -0.088629 0.045054
   vertex 0.003513 -0.083542 0.044499
   vertex 0.002564 -0.083816 0.044649
  endloop
 endfacet
 facet normal -0.650332 0.0751582 -0.755923
  outer loop
   vertex 0.000695 -0.089577 0.03157
   vertex 7.6e-05 -0.087259 0.032333
   vertex 0.001426 -0.088693 0.031029
  endloop
 endfacet
 facet normal -0.477607 -0.13623 -0.867948
  outer loop
   vertex 0.001712 -0.089581 0.031011
   vertex 0.000695 -0.089577 0.03157
   vertex 0.001426 -0.088693 0.031029
  endloop
 endfacet
 facet normal -0.510875 0.800381 -0.313683
  outer loop
   vertex 0.005782 -0.083612 0.034675
   vertex -0.000306 -0.084109 0.043322
   vertex 0.002827 -0.082567 0.042154
  endloop
 endfacet
 facet normal -0.488388 0.466917 0.737201
  outer loop
   vertex 0.00023 -0.085293 0.044427
   vertex 0.001076 -0.083175 0.043646
   vertex -0.000306 -0.084109 0.043322
  endloop
 endfacet
 facet normal -0.501088 0.828343 -0.250515
  outer loop
   vertex -0.000306 -0.084109 0.043322
   vertex 0.001076 -0.083175 0.043646
   vertex 0.002827 -0.082567 0.042154
  endloop
 endfacet
 facet normal -0.429517 0.89978 0.0768833
  outer loop
   vertex 0.005782 -0.083612 0.034675
   vertex 0.003969 -0.084338 0.033043
   vertex 0.001109 -0.085663 0.032572
  endloop
 endfacet
 facet normal 0.686889 0.725584 0.0413753
  outer loop
   vertex 0.005016 -0.083089 0.03822
   vertex 0.007129 -0.084844 0.033918
   vertex 0.005782 -0.083612 0.034675
  endloop
 endfacet
 facet normal 0.477454 0.775658 -0.412787
  outer loop
   vertex 0.007129 -0.084844 0.033918
   vertex 0.005062 -0.084123 0.032882
   vertex 0.005782 -0.083612 0.034675
  endloop
 endfacet
 facet normal -0.0430402 0.98699 -0.154913
  outer loop
   vertex 0.002827 -0.082567 0.042154
   vertex 0.005016 -0.083089 0.03822
   vertex 0.005782 -0.083612 0.034675
  endloop
 endfacet
 facet normal -0.215991 0.958435 -0.186417
  outer loop
   vertex 0.003969 -0.084338 0.033043
   vertex 0.005782 -0.083612 0.034675
   vertex 0.005062 -0.084123 0.032882
  endloop
 endfacet
 facet normal -0.543175 0.457038 -0.704328
  outer loop
   vertex 0.001089 -0.086915 0.031775
   vertex 7.6e-05 -0.087259 0.032333
   vertex 0.001109 -0.085663 0.032572
  endloop
 endfacet
 facet normal -0.529747 0.240811 -0.813252
  outer loop
   vertex 0.001426 -0.088693 0.031029
   vertex 7.6e-05 -0.087259 0.032333
   vertex 0.001089 -0.086915 0.031775
  endloop
 endfacet
 facet normal -0.345824 0.507797 -0.789017
  outer loop
   vertex 0.001089 -0.086915 0.031775
   vertex 0.001109 -0.085663 0.032572
   vertex 0.003836 -0.084749 0.031965
  endloop
 endfacet
 facet normal -0.361821 0.885073 -0.2928
  outer loop
   vertex 0.003969 -0.084338 0.033043
   vertex 0.003836 -0.084749 0.031965
   vertex 0.001109 -0.085663 0.032572
  endloop
 endfacet
 facet normal -0.352805 -0.0947588 -0.930887
  outer loop
   vertex 0.001712 -0.089581 0.031011
   vertex 0.001426 -0.088693 0.031029
   vertex 0.002581 -0.088828 0.030605
  endloop
 endfacet
 facet normal -0.292818 0.322216 -0.900241
  outer loop
   vertex 0.001089 -0.086915 0.031775
   vertex 0.002581 -0.088828 0.030605
   vertex 0.001426 -0.088693 0.031029
  endloop
 endfacet
 facet normal -0.285602 0.327988 -0.900475
  outer loop
   vertex 0.002581 -0.088828 0.030605
   vertex 0.001089 -0.086915 0.031775
   vertex 0.004394 -0.086368 0.030926
  endloop
 endfacet
 facet normal 0.0910688 0.559897 -0.823542
  outer loop
   vertex 0.003836 -0.084749 0.031965
   vertex 0.005942 -0.085599 0.03162
   vertex 0.004394 -0.086368 0.030926
  endloop
 endfacet
 facet normal 0.16666 0.696289 -0.698145
  outer loop
   vertex 0.005942 -0.085599 0.03162
   vertex 0.003836 -0.084749 0.031965
   vertex 0.005062 -0.084123 0.032882
  endloop
 endfacet
 facet normal 0.849623 0.176691 -0.496912
  outer loop
   vertex 0.0065 -0.08779 0.031795
   vertex 0.005942 -0.085599 0.03162
   vertex 0.007129 -0.084844 0.033918
  endloop
 endfacet
 facet normal 0.49601 0.715886 -0.491408
  outer loop
   vertex 0.005062 -0.084123 0.032882
   vertex 0.007129 -0.084844 0.033918
   vertex 0.005942 -0.085599 0.03162
  endloop
 endfacet
 facet normal -0.291157 0.443606 -0.847609
  outer loop
   vertex 0.003836 -0.084749 0.031965
   vertex 0.004394 -0.086368 0.030926
   vertex 0.001089 -0.086915 0.031775
  endloop
 endfacet
 facet normal 0.536117 0.84039 -0.079514
  outer loop
   vertex 0.007129 -0.084844 0.033918
   vertex 0.005016 -0.083089 0.03822
   vertex 0.00663 -0.084295 0.036356
  endloop
 endfacet
 facet normal -0.114268 0.751485 0.649779
  outer loop
   vertex 0.003513 -0.083542 0.044499
   vertex 0.001076 -0.083175 0.043646
   vertex 0.002564 -0.083816 0.044649
  endloop
 endfacet
 facet normal -0.152872 0.671062 0.72547
  outer loop
   vertex 0.001076 -0.083175 0.043646
   vertex 0.003513 -0.083542 0.044499
   vertex 0.002746 -0.082627 0.043491
  endloop
 endfacet
 facet normal 0.397673 0.809397 0.432125
  outer loop
   vertex 0.003513 -0.083542 0.044499
   vertex 0.003949 -0.082713 0.042545
   vertex 0.002746 -0.082627 0.043491
  endloop
 endfacet
 facet normal 0.310389 0.848238 0.429128
  outer loop
   vertex 0.003949 -0.082713 0.042545
   vertex 0.003513 -0.083542 0.044499
   vertex 0.005149 -0.083614 0.043458
  endloop
 endfacet
 facet normal 0.578928 0.814263 0.0426472
  outer loop
   vertex 0.00663 -0.084295 0.036356
   vertex 0.003949 -0.082713 0.042545
   vertex 0.005149 -0.083614 0.043458
  endloop
 endfacet
 facet normal 0.667418 0.737869 0.100508
  outer loop
   vertex 0.003949 -0.082713 0.042545
   vertex 0.00663 -0.084295 0.036356
   vertex 0.005016 -0.083089 0.03822
  endloop
 endfacet
 facet normal -0.360174 0.446001 0.819364
  outer loop
   vertex 0.00023 -0.085293 0.044427
   vertex 0.002564 -0.083816 0.044649
   vertex 0.001076 -0.083175 0.043646
  endloop
 endfacet
 facet normal -0.309697 0.950535 0.0238939
  outer loop
   vertex 0.002746 -0.082627 0.043491
   vertex 0.002827 -0.082567 0.042154
   vertex 0.001076 -0.083175 0.043646
  endloop
 endfacet
 facet normal 0.111276 0.992466 0.0512796
  outer loop
   vertex 0.002746 -0.082627 0.043491
   vertex 0.003949 -0.082713 0.042545
   vertex 0.002827 -0.082567 0.042154
  endloop
 endfacet
 facet normal 0.145954 0.988033 -0.0498886
  outer loop
   vertex 0.002827 -0.082567 0.042154
   vertex 0.003949 -0.082713 0.042545
   vertex 0.005016 -0.083089 0.03822
  endloop
 endfacet
 facet normal -0.228183 0.918781 -0.32214
  outer loop
   vertex 0.003969 -0.084338 0.033043
   vertex 0.005062 -0.084123 0.032882
   vertex 0.003836 -0.084749 0.031965
  endloop
 endfacet
endsolid
