solid ascii
 facet normal -0.569682 -0.818929 -0.0694051
  outer loop
   vertex 0.031547 -0.13225 -0.045774
   vertex 0.030906 -0.131724 -0.046719
   vertex 0.033384 -0.13343 -0.046929
  endloop
 endfacet
 facet normal -0.572523 -0.585786 0.573648
  outer loop
   vertex 0.030091 -0.130211 -0.045145
   vertex 0.031547 -0.13225 -0.045774
   vertex 0.030553 -0.130215 -0.044688
  endloop
 endfacet
 facet normal -0.715056 -0.69189 0.0999149
  outer loop
   vertex 0.031547 -0.13225 -0.045774
   vertex 0.029985 -0.130611 -0.045603
   vertex 0.030906 -0.131724 -0.046719
  endloop
 endfacet
 facet normal -0.184669 -0.45436 0.871467
  outer loop
   vertex 0.034343 -0.130799 -0.044425
   vertex 0.031547 -0.13225 -0.045774
   vertex 0.033132 -0.133203 -0.045935
  endloop
 endfacet
 facet normal -0.138399 -0.518054 0.844077
  outer loop
   vertex 0.030553 -0.130215 -0.044688
   vertex 0.031547 -0.13225 -0.045774
   vertex 0.034343 -0.130799 -0.044425
  endloop
 endfacet
 facet normal -0.509138 -0.858082 0.066888
  outer loop
   vertex 0.033384 -0.13343 -0.046929
   vertex 0.033132 -0.133203 -0.045935
   vertex 0.031547 -0.13225 -0.045774
  endloop
 endfacet
 facet normal -0.532557 -0.572574 0.623332
  outer loop
   vertex 0.029985 -0.130611 -0.045603
   vertex 0.031547 -0.13225 -0.045774
   vertex 0.030091 -0.130211 -0.045145
  endloop
 endfacet
 facet normal -0.569953 -0.814956 -0.104881
  outer loop
   vertex 0.033384 -0.13343 -0.046929
   vertex 0.030906 -0.131724 -0.046719
   vertex 0.032556 -0.132318 -0.05107
  endloop
 endfacet
 facet normal -0.731229 -0.655779 -0.187771
  outer loop
   vertex 0.032556 -0.132318 -0.05107
   vertex 0.030906 -0.131724 -0.046719
   vertex 0.029923 -0.130544 -0.047012
  endloop
 endfacet
 facet normal -0.768739 -0.639554 0.00341697
  outer loop
   vertex 0.029985 -0.130611 -0.045603
   vertex 0.029923 -0.130544 -0.047012
   vertex 0.030906 -0.131724 -0.046719
  endloop
 endfacet
 facet normal -0.176406 -0.968377 0.17643
  outer loop
   vertex 0.033384 -0.13343 -0.046929
   vertex 0.033701 -0.133297 -0.045882
   vertex 0.033132 -0.133203 -0.045935
  endloop
 endfacet
 facet normal -0.283613 -0.93882 -0.195396
  outer loop
   vertex 0.03329 -0.133002 -0.048849
   vertex 0.033384 -0.13343 -0.046929
   vertex 0.032556 -0.132318 -0.05107
  endloop
 endfacet
 facet normal 0.577614 -0.790292 -0.204451
  outer loop
   vertex 0.03329 -0.133002 -0.048849
   vertex 0.03473 -0.132038 -0.048507
   vertex 0.033384 -0.13343 -0.046929
  endloop
 endfacet
 facet normal 0.492218 -0.816871 -0.300738
  outer loop
   vertex 0.03473 -0.132038 -0.048507
   vertex 0.035028 -0.132689 -0.046251
   vertex 0.033384 -0.13343 -0.046929
  endloop
 endfacet
 facet normal 0.41426 -0.910106 -0.00980808
  outer loop
   vertex 0.035028 -0.132689 -0.046251
   vertex 0.033701 -0.133297 -0.045882
   vertex 0.033384 -0.13343 -0.046929
  endloop
 endfacet
 facet normal -0.519205 -0.4777 0.708681
  outer loop
   vertex 0.028352 -0.128582 -0.045321
   vertex 0.030091 -0.130211 -0.045145
   vertex 0.029851 -0.129287 -0.044698
  endloop
 endfacet
 facet normal -0.624415 -0.465591 0.627162
  outer loop
   vertex 0.030553 -0.130215 -0.044688
   vertex 0.029851 -0.129287 -0.044698
   vertex 0.030091 -0.130211 -0.045145
  endloop
 endfacet
 facet normal -0.573686 -0.546512 0.610089
  outer loop
   vertex 0.029985 -0.130611 -0.045603
   vertex 0.030091 -0.130211 -0.045145
   vertex 0.028352 -0.128582 -0.045321
  endloop
 endfacet
 facet normal -0.385589 -0.28222 0.878449
  outer loop
   vertex 0.029851 -0.129287 -0.044698
   vertex 0.030553 -0.130215 -0.044688
   vertex 0.030905 -0.129261 -0.044227
  endloop
 endfacet
 facet normal -0.123944 -0.394291 0.910589
  outer loop
   vertex 0.030905 -0.129261 -0.044227
   vertex 0.030553 -0.130215 -0.044688
   vertex 0.034343 -0.130799 -0.044425
  endloop
 endfacet
 facet normal -0.645737 -0.763519 -0.00788976
  outer loop
   vertex 0.026151 -0.127343 -0.048065
   vertex 0.029923 -0.130544 -0.047012
   vertex 0.029985 -0.130611 -0.045603
  endloop
 endfacet
 facet normal -0.722856 -0.623248 0.298397
  outer loop
   vertex 0.029985 -0.130611 -0.045603
   vertex 0.028352 -0.128582 -0.045321
   vertex 0.026151 -0.127343 -0.048065
  endloop
 endfacet
 facet normal -0.158165 -0.466841 0.870082
  outer loop
   vertex 0.033132 -0.133203 -0.045935
   vertex 0.033701 -0.133297 -0.045882
   vertex 0.034343 -0.130799 -0.044425
  endloop
 endfacet
 facet normal -0.0446192 -0.494745 0.867892
  outer loop
   vertex 0.033701 -0.133297 -0.045882
   vertex 0.034661 -0.132731 -0.04551
   vertex 0.034343 -0.130799 -0.044425
  endloop
 endfacet
 facet normal -0.140272 -0.502271 0.853257
  outer loop
   vertex 0.034661 -0.132731 -0.04551
   vertex 0.034822 -0.131879 -0.044982
   vertex 0.034343 -0.130799 -0.044425
  endloop
 endfacet
 facet normal -0.118666 -0.450763 0.884721
  outer loop
   vertex 0.033341 -0.129915 -0.044109
   vertex 0.032012 -0.129361 -0.044005
   vertex 0.034343 -0.130799 -0.044425
  endloop
 endfacet
 facet normal -0.210611 -0.572781 0.79219
  outer loop
   vertex 0.032012 -0.129361 -0.044005
   vertex 0.030905 -0.129261 -0.044227
   vertex 0.034343 -0.130799 -0.044425
  endloop
 endfacet
 facet normal 0.538773 0.334266 0.773298
  outer loop
   vertex 0.034343 -0.130799 -0.044425
   vertex 0.034683 -0.130225 -0.04491
   vertex 0.033341 -0.129915 -0.044109
  endloop
 endfacet
 facet normal 0.795024 0.0404649 0.605227
  outer loop
   vertex 0.034683 -0.130225 -0.04491
   vertex 0.034343 -0.130799 -0.044425
   vertex 0.034822 -0.131879 -0.044982
  endloop
 endfacet
 facet normal -0.363767 -0.917248 -0.162263
  outer loop
   vertex 0.032556 -0.132318 -0.05107
   vertex 0.033591 -0.13268 -0.051344
   vertex 0.03329 -0.133002 -0.048849
  endloop
 endfacet
 facet normal -0.722587 -0.668321 -0.176681
  outer loop
   vertex 0.029923 -0.130544 -0.047012
   vertex 0.029788 -0.129707 -0.049626
   vertex 0.032556 -0.132318 -0.05107
  endloop
 endfacet
 facet normal -0.732344 -0.616654 -0.288809
  outer loop
   vertex 0.030514 -0.130069 -0.050694
   vertex 0.032556 -0.132318 -0.05107
   vertex 0.029788 -0.129707 -0.049626
  endloop
 endfacet
 facet normal -0.548055 -0.372394 -0.748972
  outer loop
   vertex 0.033123 -0.131996 -0.051645
   vertex 0.032556 -0.132318 -0.05107
   vertex 0.030514 -0.130069 -0.050694
  endloop
 endfacet
 facet normal -0.392132 -0.581854 -0.712516
  outer loop
   vertex 0.033123 -0.131996 -0.051645
   vertex 0.033591 -0.13268 -0.051344
   vertex 0.032556 -0.132318 -0.05107
  endloop
 endfacet
 facet normal -0.59574 -0.773346 -0.216862
  outer loop
   vertex 0.026151 -0.127343 -0.048065
   vertex 0.029788 -0.129707 -0.049626
   vertex 0.029923 -0.130544 -0.047012
  endloop
 endfacet
 facet normal 0.44961 -0.87631 0.173005
  outer loop
   vertex 0.035028 -0.132689 -0.046251
   vertex 0.034661 -0.132731 -0.04551
   vertex 0.033701 -0.133297 -0.045882
  endloop
 endfacet
 facet normal 0.562223 -0.826075 -0.0387842
  outer loop
   vertex 0.03473 -0.132038 -0.048507
   vertex 0.03329 -0.133002 -0.048849
   vertex 0.033591 -0.13268 -0.051344
  endloop
 endfacet
 facet normal 0.989561 0.102734 -0.101068
  outer loop
   vertex 0.035028 -0.132689 -0.046251
   vertex 0.03473 -0.132038 -0.048507
   vertex 0.0346 -0.130472 -0.048188
  endloop
 endfacet
 facet normal 0.95468 0.0187416 0.297044
  outer loop
   vertex 0.03473 -0.132038 -0.048507
   vertex 0.035137 -0.130914 -0.049886
   vertex 0.0346 -0.130472 -0.048188
  endloop
 endfacet
 facet normal 0.906473 -0.41614 -0.0716476
  outer loop
   vertex 0.035137 -0.130914 -0.049886
   vertex 0.03473 -0.132038 -0.048507
   vertex 0.034478 -0.132063 -0.05155
  endloop
 endfacet
 facet normal 0.564308 -0.824597 -0.0399559
  outer loop
   vertex 0.03473 -0.132038 -0.048507
   vertex 0.033591 -0.13268 -0.051344
   vertex 0.034478 -0.132063 -0.05155
  endloop
 endfacet
 facet normal 0.849154 -0.343604 0.40109
  outer loop
   vertex 0.035219 -0.131331 -0.045492
   vertex 0.034661 -0.132731 -0.04551
   vertex 0.035028 -0.132689 -0.046251
  endloop
 endfacet
 facet normal 0.979573 -0.0263533 -0.199355
  outer loop
   vertex 0.035219 -0.131331 -0.045492
   vertex 0.035028 -0.132689 -0.046251
   vertex 0.034999 -0.130567 -0.046674
  endloop
 endfacet
 facet normal 0.965694 -0.0380109 -0.256884
  outer loop
   vertex 0.034999 -0.130567 -0.046674
   vertex 0.035028 -0.132689 -0.046251
   vertex 0.0346 -0.130472 -0.048188
  endloop
 endfacet
 facet normal -0.445343 -0.702662 0.554919
  outer loop
   vertex 0.023801 -0.124851 -0.044249
   vertex 0.028352 -0.128582 -0.045321
   vertex 0.026191 -0.126102 -0.043915
  endloop
 endfacet
 facet normal -0.608874 -0.781615 0.135463
  outer loop
   vertex 0.023801 -0.124851 -0.044249
   vertex 0.026151 -0.127343 -0.048065
   vertex 0.028352 -0.128582 -0.045321
  endloop
 endfacet
 facet normal -0.531572 -0.627393 0.569043
  outer loop
   vertex 0.029851 -0.129287 -0.044698
   vertex 0.028618 -0.128265 -0.044723
   vertex 0.028352 -0.128582 -0.045321
  endloop
 endfacet
 facet normal -0.435989 -0.700336 0.565193
  outer loop
   vertex 0.028618 -0.128265 -0.044723
   vertex 0.026191 -0.126102 -0.043915
   vertex 0.028352 -0.128582 -0.045321
  endloop
 endfacet
 facet normal 0.327248 0.0459621 0.94382
  outer loop
   vertex 0.030401 -0.12848 -0.044928
   vertex 0.029354 -0.127576 -0.044609
   vertex 0.029851 -0.129287 -0.044698
  endloop
 endfacet
 facet normal -0.0829655 -0.0757862 0.993667
  outer loop
   vertex 0.028618 -0.128265 -0.044723
   vertex 0.029851 -0.129287 -0.044698
   vertex 0.029354 -0.127576 -0.044609
  endloop
 endfacet
 facet normal -0.36813 0.478156 0.7974
  outer loop
   vertex 0.030905 -0.129261 -0.044227
   vertex 0.030401 -0.12848 -0.044928
   vertex 0.029851 -0.129287 -0.044698
  endloop
 endfacet
 facet normal -0.136065 0.451472 0.88185
  outer loop
   vertex 0.031404 -0.128384 -0.044599
   vertex 0.030905 -0.129261 -0.044227
   vertex 0.032012 -0.129361 -0.044005
  endloop
 endfacet
 facet normal -0.311205 0.515671 0.79827
  outer loop
   vertex 0.030401 -0.12848 -0.044928
   vertex 0.030905 -0.129261 -0.044227
   vertex 0.031404 -0.128384 -0.044599
  endloop
 endfacet
 facet normal -0.610828 -0.594315 -0.523143
  outer loop
   vertex 0.029788 -0.129707 -0.049626
   vertex 0.026151 -0.127343 -0.048065
   vertex 0.026589 -0.126486 -0.04955
  endloop
 endfacet
 facet normal -0.645783 -0.757349 0.0968872
  outer loop
   vertex 0.026151 -0.127343 -0.048065
   vertex 0.023801 -0.124851 -0.044249
   vertex 0.022455 -0.124133 -0.047608
  endloop
 endfacet
 facet normal -0.656947 -0.729071 -0.192032
  outer loop
   vertex 0.02173 -0.123323 -0.048203
   vertex 0.026151 -0.127343 -0.048065
   vertex 0.022455 -0.124133 -0.047608
  endloop
 endfacet
 facet normal -0.566173 -0.630559 -0.530889
  outer loop
   vertex 0.026589 -0.126486 -0.04955
   vertex 0.026151 -0.127343 -0.048065
   vertex 0.020694 -0.121411 -0.049291
  endloop
 endfacet
 facet normal -0.544075 -0.617835 -0.567681
  outer loop
   vertex 0.026151 -0.127343 -0.048065
   vertex 0.02173 -0.123323 -0.048203
   vertex 0.020694 -0.121411 -0.049291
  endloop
 endfacet
 facet normal 0.883293 -0.355976 0.305081
  outer loop
   vertex 0.035219 -0.131331 -0.045492
   vertex 0.034822 -0.131879 -0.044982
   vertex 0.034661 -0.132731 -0.04551
  endloop
 endfacet
 facet normal 0.768992 0.036842 0.638196
  outer loop
   vertex 0.035219 -0.131331 -0.045492
   vertex 0.034683 -0.130225 -0.04491
   vertex 0.034822 -0.131879 -0.044982
  endloop
 endfacet
 facet normal 0.198698 0.301605 0.932499
  outer loop
   vertex 0.032012 -0.129361 -0.044005
   vertex 0.033341 -0.129915 -0.044109
   vertex 0.03331 -0.1291 -0.044366
  endloop
 endfacet
 facet normal 0.538745 0.271931 0.797375
  outer loop
   vertex 0.033341 -0.129915 -0.044109
   vertex 0.034683 -0.130225 -0.04491
   vertex 0.03331 -0.1291 -0.044366
  endloop
 endfacet
 facet normal 0.113068 0.566596 0.816201
  outer loop
   vertex 0.032012 -0.129361 -0.044005
   vertex 0.03331 -0.1291 -0.044366
   vertex 0.031404 -0.128384 -0.044599
  endloop
 endfacet
 facet normal 0.653366 0.746703 0.124687
  outer loop
   vertex 0.034782 -0.130065 -0.046387
   vertex 0.033488 -0.128983 -0.046086
   vertex 0.034683 -0.130225 -0.04491
  endloop
 endfacet
 facet normal 0.915347 0.389135 0.10351
  outer loop
   vertex 0.034683 -0.130225 -0.04491
   vertex 0.035219 -0.131331 -0.045492
   vertex 0.034782 -0.130065 -0.046387
  endloop
 endfacet
 facet normal 0.657017 0.744483 0.118632
  outer loop
   vertex 0.03331 -0.1291 -0.044366
   vertex 0.034683 -0.130225 -0.04491
   vertex 0.033488 -0.128983 -0.046086
  endloop
 endfacet
 facet normal -0.0495867 -0.251439 -0.966602
  outer loop
   vertex 0.033591 -0.13268 -0.051344
   vertex 0.034338 -0.130663 -0.051907
   vertex 0.034478 -0.132063 -0.05155
  endloop
 endfacet
 facet normal 0.143186 -0.314921 -0.938255
  outer loop
   vertex 0.033123 -0.131996 -0.051645
   vertex 0.034338 -0.130663 -0.051907
   vertex 0.033591 -0.13268 -0.051344
  endloop
 endfacet
 facet normal -0.579006 -0.561096 -0.591543
  outer loop
   vertex 0.026589 -0.126486 -0.04955
   vertex 0.0295 -0.128792 -0.050212
   vertex 0.029788 -0.129707 -0.049626
  endloop
 endfacet
 facet normal -0.840772 -0.163755 -0.51603
  outer loop
   vertex 0.030364 -0.128927 -0.050812
   vertex 0.030514 -0.130069 -0.050694
   vertex 0.029788 -0.129707 -0.049626
  endloop
 endfacet
 facet normal -0.526964 -0.569749 -0.630631
  outer loop
   vertex 0.029788 -0.129707 -0.049626
   vertex 0.0295 -0.128792 -0.050212
   vertex 0.030364 -0.128927 -0.050812
  endloop
 endfacet
 facet normal -0.532444 -0.209117 -0.820228
  outer loop
   vertex 0.031157 -0.129392 -0.051284
   vertex 0.031311 -0.130396 -0.051128
   vertex 0.030514 -0.130069 -0.050694
  endloop
 endfacet
 facet normal -0.571902 -0.158287 -0.804905
  outer loop
   vertex 0.031157 -0.129392 -0.051284
   vertex 0.030514 -0.130069 -0.050694
   vertex 0.030364 -0.128927 -0.050812
  endloop
 endfacet
 facet normal -0.55932 -0.398564 -0.726848
  outer loop
   vertex 0.031311 -0.130396 -0.051128
   vertex 0.033123 -0.131996 -0.051645
   vertex 0.030514 -0.130069 -0.050694
  endloop
 endfacet
 facet normal -0.246264 0.0340857 -0.968603
  outer loop
   vertex 0.031311 -0.130396 -0.051128
   vertex 0.034338 -0.130663 -0.051907
   vertex 0.033123 -0.131996 -0.051645
  endloop
 endfacet
 facet normal 0.902766 0.388628 0.184342
  outer loop
   vertex 0.035137 -0.130914 -0.049886
   vertex 0.034498 -0.129552 -0.049628
   vertex 0.0346 -0.130472 -0.048188
  endloop
 endfacet
 facet normal 0.735043 0.59379 0.327299
  outer loop
   vertex 0.0346 -0.130472 -0.048188
   vertex 0.034498 -0.129552 -0.049628
   vertex 0.033194 -0.128941 -0.047808
  endloop
 endfacet
 facet normal 0.590992 0.771939 -0.234174
  outer loop
   vertex 0.034782 -0.130065 -0.046387
   vertex 0.0346 -0.130472 -0.048188
   vertex 0.033488 -0.128983 -0.046086
  endloop
 endfacet
 facet normal 0.719135 0.686734 -0.106027
  outer loop
   vertex 0.0346 -0.130472 -0.048188
   vertex 0.033194 -0.128941 -0.047808
   vertex 0.033488 -0.128983 -0.046086
  endloop
 endfacet
 facet normal 0.854739 0.481006 -0.195078
  outer loop
   vertex 0.034782 -0.130065 -0.046387
   vertex 0.034999 -0.130567 -0.046674
   vertex 0.0346 -0.130472 -0.048188
  endloop
 endfacet
 facet normal 0.94023 0.294321 -0.171297
  outer loop
   vertex 0.034831 -0.130902 -0.051545
   vertex 0.03463 -0.130218 -0.051473
   vertex 0.035137 -0.130914 -0.049886
  endloop
 endfacet
 facet normal 0.894357 0.437389 -0.0938976
  outer loop
   vertex 0.035137 -0.130914 -0.049886
   vertex 0.03463 -0.130218 -0.051473
   vertex 0.034498 -0.129552 -0.049628
  endloop
 endfacet
 facet normal 0.942059 -0.285674 -0.175828
  outer loop
   vertex 0.034831 -0.130902 -0.051545
   vertex 0.035137 -0.130914 -0.049886
   vertex 0.034478 -0.132063 -0.05155
  endloop
 endfacet
 facet normal 0.533274 -0.158563 -0.830949
  outer loop
   vertex 0.034831 -0.130902 -0.051545
   vertex 0.034478 -0.132063 -0.05155
   vertex 0.034338 -0.130663 -0.051907
  endloop
 endfacet
 facet normal 0.928738 0.365301 0.063257
  outer loop
   vertex 0.034999 -0.130567 -0.046674
   vertex 0.034782 -0.130065 -0.046387
   vertex 0.035219 -0.131331 -0.045492
  endloop
 endfacet
 facet normal -0.455296 -0.736116 0.500838
  outer loop
   vertex 0.02444 -0.124325 -0.042895
   vertex 0.023801 -0.124851 -0.044249
   vertex 0.026191 -0.126102 -0.043915
  endloop
 endfacet
 facet normal -0.048198 -0.747238 0.662806
  outer loop
   vertex 0.020002 -0.12134 -0.040567
   vertex 0.023801 -0.124851 -0.044249
   vertex 0.020997 -0.120911 -0.040011
  endloop
 endfacet
 facet normal -0.376892 -0.789413 0.484541
  outer loop
   vertex 0.020997 -0.120911 -0.040011
   vertex 0.023801 -0.124851 -0.044249
   vertex 0.02444 -0.124325 -0.042895
  endloop
 endfacet
 facet normal -0.485531 -0.825908 0.286592
  outer loop
   vertex 0.023801 -0.124851 -0.044249
   vertex 0.020002 -0.12134 -0.040567
   vertex 0.017999 -0.120751 -0.042263
  endloop
 endfacet
 facet normal -0.564839 -0.823668 0.0502756
  outer loop
   vertex 0.022455 -0.124133 -0.047608
   vertex 0.023801 -0.124851 -0.044249
   vertex 0.017999 -0.120751 -0.042263
  endloop
 endfacet
 facet normal 0.00852118 -0.341521 0.939836
  outer loop
   vertex 0.026191 -0.126102 -0.043915
   vertex 0.028618 -0.128265 -0.044723
   vertex 0.027768 -0.126547 -0.044091
  endloop
 endfacet
 facet normal -0.0585845 -0.53976 0.839778
  outer loop
   vertex 0.026191 -0.126102 -0.043915
   vertex 0.027768 -0.126547 -0.044091
   vertex 0.02444 -0.124325 -0.042895
  endloop
 endfacet
 facet normal 0.122971 -0.288472 0.949559
  outer loop
   vertex 0.029354 -0.127576 -0.044609
   vertex 0.027768 -0.126547 -0.044091
   vertex 0.028618 -0.128265 -0.044723
  endloop
 endfacet
 facet normal 0.672343 0.661356 0.332511
  outer loop
   vertex 0.030401 -0.12848 -0.044928
   vertex 0.030528 -0.128046 -0.046048
   vertex 0.029354 -0.127576 -0.044609
  endloop
 endfacet
 facet normal -0.197938 0.921347 0.334574
  outer loop
   vertex 0.030401 -0.12848 -0.044928
   vertex 0.031404 -0.128384 -0.044599
   vertex 0.030528 -0.128046 -0.046048
  endloop
 endfacet
 facet normal 0.744744 0.649723 -0.152371
  outer loop
   vertex 0.029354 -0.127576 -0.044609
   vertex 0.023217 -0.121677 -0.049451
   vertex 0.023749 -0.121178 -0.044723
  endloop
 endfacet
 facet normal 0.641345 0.759052 0.111878
  outer loop
   vertex 0.029924 -0.127448 -0.048745
   vertex 0.023217 -0.121677 -0.049451
   vertex 0.029354 -0.127576 -0.044609
  endloop
 endfacet
 facet normal 0.464529 0.880841 0.091279
  outer loop
   vertex 0.029354 -0.127576 -0.044609
   vertex 0.030528 -0.128046 -0.046048
   vertex 0.029924 -0.127448 -0.048745
  endloop
 endfacet
 facet normal 0.745079 0.654975 0.125953
  outer loop
   vertex 0.029354 -0.127576 -0.044609
   vertex 0.023749 -0.121178 -0.044723
   vertex 0.025445 -0.12335 -0.043461
  endloop
 endfacet
 facet normal 0.35107 0.07111 0.933645
  outer loop
   vertex 0.025445 -0.12335 -0.043461
   vertex 0.027768 -0.126547 -0.044091
   vertex 0.029354 -0.127576 -0.044609
  endloop
 endfacet
 facet normal 0.340616 0.935914 0.0897021
  outer loop
   vertex 0.029924 -0.127448 -0.048745
   vertex 0.031404 -0.128384 -0.044599
   vertex 0.03331 -0.1291 -0.044366
  endloop
 endfacet
 facet normal 0.0295871 0.977241 0.21006
  outer loop
   vertex 0.029924 -0.127448 -0.048745
   vertex 0.030528 -0.128046 -0.046048
   vertex 0.031404 -0.128384 -0.044599
  endloop
 endfacet
 facet normal -0.0533851 0.212698 -0.975659
  outer loop
   vertex 0.026589 -0.126486 -0.04955
   vertex 0.02929 -0.127964 -0.05002
   vertex 0.0295 -0.128792 -0.050212
  endloop
 endfacet
 facet normal -0.0753882 -0.0367142 -0.996478
  outer loop
   vertex 0.020694 -0.121411 -0.049291
   vertex 0.028822 -0.127 -0.0497
   vertex 0.026589 -0.126486 -0.04955
  endloop
 endfacet
 facet normal 0.00985347 0.319338 -0.94759
  outer loop
   vertex 0.026589 -0.126486 -0.04955
   vertex 0.028822 -0.127 -0.0497
   vertex 0.02929 -0.127964 -0.05002
  endloop
 endfacet
 facet normal -0.580232 -0.750948 -0.315291
  outer loop
   vertex 0.017661 -0.12102 -0.0462
   vertex 0.02173 -0.123323 -0.048203
   vertex 0.022455 -0.124133 -0.047608
  endloop
 endfacet
 facet normal -0.520363 -0.84776 0.102598
  outer loop
   vertex 0.017999 -0.120751 -0.042263
   vertex 0.017661 -0.12102 -0.0462
   vertex 0.022455 -0.124133 -0.047608
  endloop
 endfacet
 facet normal -0.593588 -0.693185 -0.408838
  outer loop
   vertex 0.018003 -0.119767 -0.048821
   vertex 0.02173 -0.123323 -0.048203
   vertex 0.017661 -0.12102 -0.0462
  endloop
 endfacet
 facet normal -0.484776 -0.615998 -0.620918
  outer loop
   vertex 0.020694 -0.121411 -0.049291
   vertex 0.02173 -0.123323 -0.048203
   vertex 0.018003 -0.119767 -0.048821
  endloop
 endfacet
 facet normal -0.445583 -0.521282 -0.727819
  outer loop
   vertex 0.020694 -0.121411 -0.049291
   vertex 0.018003 -0.119767 -0.048821
   vertex 0.019078 -0.119467 -0.049694
  endloop
 endfacet
 facet normal -0.0651692 -0.254212 -0.96495
  outer loop
   vertex 0.020694 -0.121411 -0.049291
   vertex 0.019078 -0.119467 -0.049694
   vertex 0.022052 -0.120962 -0.049501
  endloop
 endfacet
 facet normal -0.08337 -0.204053 -0.975403
  outer loop
   vertex 0.020694 -0.121411 -0.049291
   vertex 0.022052 -0.120962 -0.049501
   vertex 0.023217 -0.121677 -0.049451
  endloop
 endfacet
 facet normal -0.0656303 -0.0224421 -0.997592
  outer loop
   vertex 0.023217 -0.121677 -0.049451
   vertex 0.028822 -0.127 -0.0497
   vertex 0.020694 -0.121411 -0.049291
  endloop
 endfacet
 facet normal 0.331031 0.938508 0.0980925
  outer loop
   vertex 0.03331 -0.1291 -0.044366
   vertex 0.033488 -0.128983 -0.046086
   vertex 0.029924 -0.127448 -0.048745
  endloop
 endfacet
 facet normal 0.426816 0.902908 -0.0508455
  outer loop
   vertex 0.033488 -0.128983 -0.046086
   vertex 0.033194 -0.128941 -0.047808
   vertex 0.029924 -0.127448 -0.048745
  endloop
 endfacet
 facet normal -0.253544 -0.0571111 -0.965636
  outer loop
   vertex 0.034338 -0.130663 -0.051907
   vertex 0.031311 -0.130396 -0.051128
   vertex 0.033776 -0.129639 -0.05182
  endloop
 endfacet
 facet normal 0.552791 0.366956 -0.748175
  outer loop
   vertex 0.033776 -0.129639 -0.05182
   vertex 0.03463 -0.130218 -0.051473
   vertex 0.034338 -0.130663 -0.051907
  endloop
 endfacet
 facet normal 0.651013 0.266134 -0.710883
  outer loop
   vertex 0.034831 -0.130902 -0.051545
   vertex 0.034338 -0.130663 -0.051907
   vertex 0.03463 -0.130218 -0.051473
  endloop
 endfacet
 facet normal -0.56469 0.0478324 -0.823916
  outer loop
   vertex 0.02929 -0.127964 -0.05002
   vertex 0.030364 -0.128927 -0.050812
   vertex 0.0295 -0.128792 -0.050212
  endloop
 endfacet
 facet normal -0.326785 0.338428 -0.882427
  outer loop
   vertex 0.031092 -0.128065 -0.050751
   vertex 0.031157 -0.129392 -0.051284
   vertex 0.030364 -0.128927 -0.050812
  endloop
 endfacet
 facet normal -0.442078 0.429094 -0.787684
  outer loop
   vertex 0.029792 -0.12771 -0.049828
   vertex 0.031092 -0.128065 -0.050751
   vertex 0.030364 -0.128927 -0.050812
  endloop
 endfacet
 facet normal -0.0168142 0.623856 -0.781358
  outer loop
   vertex 0.029792 -0.12771 -0.049828
   vertex 0.030364 -0.128927 -0.050812
   vertex 0.02929 -0.127964 -0.05002
  endloop
 endfacet
 facet normal -0.475871 0.30764 -0.823957
  outer loop
   vertex 0.031157 -0.129392 -0.051284
   vertex 0.031092 -0.128065 -0.050751
   vertex 0.031725 -0.128808 -0.051394
  endloop
 endfacet
 facet normal -0.0289101 -0.157801 -0.987048
  outer loop
   vertex 0.031311 -0.130396 -0.051128
   vertex 0.031157 -0.129392 -0.051284
   vertex 0.031725 -0.128808 -0.051394
  endloop
 endfacet
 facet normal -0.203215 -0.109995 -0.972936
  outer loop
   vertex 0.032696 -0.128939 -0.051582
   vertex 0.031311 -0.130396 -0.051128
   vertex 0.031725 -0.128808 -0.051394
  endloop
 endfacet
 facet normal -0.252363 -0.0610227 -0.965707
  outer loop
   vertex 0.033776 -0.129639 -0.05182
   vertex 0.031311 -0.130396 -0.051128
   vertex 0.032696 -0.128939 -0.051582
  endloop
 endfacet
 facet normal 0.873223 0.474979 -0.108979
  outer loop
   vertex 0.034498 -0.129552 -0.049628
   vertex 0.03463 -0.130218 -0.051473
   vertex 0.034277 -0.129547 -0.051377
  endloop
 endfacet
 facet normal 0.555838 0.828516 -0.0678626
  outer loop
   vertex 0.034277 -0.129547 -0.051377
   vertex 0.032701 -0.128462 -0.051039
   vertex 0.034498 -0.129552 -0.049628
  endloop
 endfacet
 facet normal 0.485788 0.872332 0.0552001
  outer loop
   vertex 0.032701 -0.128462 -0.051039
   vertex 0.033194 -0.128941 -0.047808
   vertex 0.034498 -0.129552 -0.049628
  endloop
 endfacet
 facet normal 0.396248 0.915059 0.0751968
  outer loop
   vertex 0.029924 -0.127448 -0.048745
   vertex 0.033194 -0.128941 -0.047808
   vertex 0.032701 -0.128462 -0.051039
  endloop
 endfacet
 facet normal 0.564667 0.40032 -0.721731
  outer loop
   vertex 0.033776 -0.129639 -0.05182
   vertex 0.034277 -0.129547 -0.051377
   vertex 0.03463 -0.130218 -0.051473
  endloop
 endfacet
 facet normal 0.464786 -0.249039 0.849679
  outer loop
   vertex 0.020997 -0.120911 -0.040011
   vertex 0.02444 -0.124325 -0.042895
   vertex 0.022709 -0.121271 -0.041053
  endloop
 endfacet
 facet normal 0.18702 -0.427464 0.884476
  outer loop
   vertex 0.025142 -0.123962 -0.042868
   vertex 0.022709 -0.121271 -0.041053
   vertex 0.02444 -0.124325 -0.042895
  endloop
 endfacet
 facet normal 0.127104 -0.315746 0.940292
  outer loop
   vertex 0.027768 -0.126547 -0.044091
   vertex 0.025142 -0.123962 -0.042868
   vertex 0.02444 -0.124325 -0.042895
  endloop
 endfacet
 facet normal -0.599859 -0.633799 0.488332
  outer loop
   vertex 0.01844 -0.119941 -0.04067
   vertex 0.017999 -0.120751 -0.042263
   vertex 0.020002 -0.12134 -0.040567
  endloop
 endfacet
 facet normal -0.485974 -0.48928 0.724178
  outer loop
   vertex 0.01844 -0.119941 -0.04067
   vertex 0.020002 -0.12134 -0.040567
   vertex 0.020213 -0.119994 -0.039516
  endloop
 endfacet
 facet normal -0.187784 -0.586035 0.788226
  outer loop
   vertex 0.020002 -0.12134 -0.040567
   vertex 0.020997 -0.120911 -0.040011
   vertex 0.020213 -0.119994 -0.039516
  endloop
 endfacet
 facet normal 0.233823 -0.299423 0.925026
  outer loop
   vertex 0.020213 -0.119994 -0.039516
   vertex 0.020997 -0.120911 -0.040011
   vertex 0.021345 -0.119317 -0.039583
  endloop
 endfacet
 facet normal 0.44211 -0.321371 0.837412
  outer loop
   vertex 0.020997 -0.120911 -0.040011
   vertex 0.022709 -0.121271 -0.041053
   vertex 0.021345 -0.119317 -0.039583
  endloop
 endfacet
 facet normal -0.640578 -0.760409 0.10695
  outer loop
   vertex 0.017661 -0.12102 -0.0462
   vertex 0.017999 -0.120751 -0.042263
   vertex 0.016517 -0.119801 -0.044385
  endloop
 endfacet
 facet normal -0.768749 -0.575329 0.279323
  outer loop
   vertex 0.017999 -0.120751 -0.042263
   vertex 0.017325 -0.119998 -0.042567
   vertex 0.016517 -0.119801 -0.044385
  endloop
 endfacet
 facet normal -0.747186 -0.485604 0.453764
  outer loop
   vertex 0.017325 -0.119998 -0.042567
   vertex 0.017999 -0.120751 -0.042263
   vertex 0.01844 -0.119941 -0.04067
  endloop
 endfacet
 facet normal 0.649792 0.337986 0.680834
  outer loop
   vertex 0.025445 -0.12335 -0.043461
   vertex 0.025142 -0.123962 -0.042868
   vertex 0.027768 -0.126547 -0.044091
  endloop
 endfacet
 facet normal 0.19928 0.258604 -0.945204
  outer loop
   vertex 0.022064 -0.120211 -0.049293
   vertex 0.023217 -0.121677 -0.049451
   vertex 0.022052 -0.120962 -0.049501
  endloop
 endfacet
 facet normal 0.621327 0.673012 -0.401257
  outer loop
   vertex 0.028822 -0.127 -0.0497
   vertex 0.023217 -0.121677 -0.049451
   vertex 0.029924 -0.127448 -0.048745
  endloop
 endfacet
 facet normal 0.76885 0.621085 -0.152061
  outer loop
   vertex 0.023217 -0.121677 -0.049451
   vertex 0.022064 -0.120211 -0.049293
   vertex 0.023749 -0.121178 -0.044723
  endloop
 endfacet
 facet normal 0.895512 0.366361 -0.252662
  outer loop
   vertex 0.023749 -0.121178 -0.044723
   vertex 0.022064 -0.120211 -0.049293
   vertex 0.021276 -0.117629 -0.048342
  endloop
 endfacet
 facet normal 0.854246 0.513678 -0.0799959
  outer loop
   vertex 0.021669 -0.11722 -0.041519
   vertex 0.023749 -0.121178 -0.044723
   vertex 0.021276 -0.117629 -0.048342
  endloop
 endfacet
 facet normal 0.789741 0.613414 -0.00559799
  outer loop
   vertex 0.023749 -0.121178 -0.044723
   vertex 0.023495 -0.120827 -0.042094
   vertex 0.025445 -0.12335 -0.043461
  endloop
 endfacet
 facet normal 0.893573 0.448136 0.0265003
  outer loop
   vertex 0.021669 -0.11722 -0.041519
   vertex 0.023495 -0.120827 -0.042094
   vertex 0.023749 -0.121178 -0.044723
  endloop
 endfacet
 facet normal 0.143825 0.957706 -0.249225
  outer loop
   vertex 0.029924 -0.127448 -0.048745
   vertex 0.032701 -0.128462 -0.051039
   vertex 0.029792 -0.12771 -0.049828
  endloop
 endfacet
 facet normal 0.547949 0.795341 -0.2592
  outer loop
   vertex 0.029792 -0.12771 -0.049828
   vertex 0.028822 -0.127 -0.0497
   vertex 0.029924 -0.127448 -0.048745
  endloop
 endfacet
 facet normal 0.738473 0.243604 0.628741
  outer loop
   vertex 0.022709 -0.121271 -0.041053
   vertex 0.025142 -0.123962 -0.042868
   vertex 0.025445 -0.12335 -0.043461
  endloop
 endfacet
 facet normal 0.732522 0.216464 0.645411
  outer loop
   vertex 0.025445 -0.12335 -0.043461
   vertex 0.023495 -0.120827 -0.042094
   vertex 0.022709 -0.121271 -0.041053
  endloop
 endfacet
 facet normal 0.15705 0.378979 -0.911981
  outer loop
   vertex 0.028822 -0.127 -0.0497
   vertex 0.029792 -0.12771 -0.049828
   vertex 0.02929 -0.127964 -0.05002
  endloop
 endfacet
 facet normal -0.792687 -0.602147 -0.0952166
  outer loop
   vertex 0.017661 -0.12102 -0.0462
   vertex 0.016517 -0.119801 -0.044385
   vertex 0.016458 -0.119393 -0.046474
  endloop
 endfacet
 facet normal -0.671427 -0.630691 -0.389119
  outer loop
   vertex 0.016657 -0.119386 -0.047116
   vertex 0.018003 -0.119767 -0.048821
   vertex 0.017661 -0.12102 -0.0462
  endloop
 endfacet
 facet normal -0.760187 -0.60287 -0.242205
  outer loop
   vertex 0.016657 -0.119386 -0.047116
   vertex 0.017661 -0.12102 -0.0462
   vertex 0.016458 -0.119393 -0.046474
  endloop
 endfacet
 facet normal -0.735323 -0.209101 -0.644652
  outer loop
   vertex 0.01813 -0.118333 -0.049431
   vertex 0.018003 -0.119767 -0.048821
   vertex 0.017253 -0.119041 -0.048201
  endloop
 endfacet
 facet normal -0.773067 -0.342867 -0.533675
  outer loop
   vertex 0.016657 -0.119386 -0.047116
   vertex 0.017253 -0.119041 -0.048201
   vertex 0.018003 -0.119767 -0.048821
  endloop
 endfacet
 facet normal -0.555704 -0.283277 -0.781631
  outer loop
   vertex 0.01813 -0.118333 -0.049431
   vertex 0.019078 -0.119467 -0.049694
   vertex 0.018003 -0.119767 -0.048821
  endloop
 endfacet
 facet normal -0.187786 0.07023 -0.979696
  outer loop
   vertex 0.019078 -0.119467 -0.049694
   vertex 0.01813 -0.118333 -0.049431
   vertex 0.01974 -0.118771 -0.049771
  endloop
 endfacet
 facet normal 0.00623781 -0.115816 -0.993251
  outer loop
   vertex 0.022052 -0.120962 -0.049501
   vertex 0.019078 -0.119467 -0.049694
   vertex 0.01974 -0.118771 -0.049771
  endloop
 endfacet
 facet normal 0.354784 0.244283 -0.902471
  outer loop
   vertex 0.022052 -0.120962 -0.049501
   vertex 0.020539 -0.117974 -0.049287
   vertex 0.022064 -0.120211 -0.049293
  endloop
 endfacet
 facet normal 0.32554 0.230516 -0.916999
  outer loop
   vertex 0.022052 -0.120962 -0.049501
   vertex 0.01974 -0.118771 -0.049771
   vertex 0.020539 -0.117974 -0.049287
  endloop
 endfacet
 facet normal 0.35946 0.745449 -0.561332
  outer loop
   vertex 0.033776 -0.129639 -0.05182
   vertex 0.032696 -0.128939 -0.051582
   vertex 0.034277 -0.129547 -0.051377
  endloop
 endfacet
 facet normal 0.0324411 0.669703 -0.741921
  outer loop
   vertex 0.031092 -0.128065 -0.050751
   vertex 0.032701 -0.128462 -0.051039
   vertex 0.031725 -0.128808 -0.051394
  endloop
 endfacet
 facet normal 0.231129 0.971728 -0.0482126
  outer loop
   vertex 0.031092 -0.128065 -0.050751
   vertex 0.029792 -0.12771 -0.049828
   vertex 0.032701 -0.128462 -0.051039
  endloop
 endfacet
 facet normal -0.0263733 0.751149 -0.659605
  outer loop
   vertex 0.032701 -0.128462 -0.051039
   vertex 0.032696 -0.128939 -0.051582
   vertex 0.031725 -0.128808 -0.051394
  endloop
 endfacet
 facet normal 0.350377 0.702063 -0.619954
  outer loop
   vertex 0.032701 -0.128462 -0.051039
   vertex 0.034277 -0.129547 -0.051377
   vertex 0.032696 -0.128939 -0.051582
  endloop
 endfacet
 facet normal 0.802238 -0.0213394 0.596623
  outer loop
   vertex 0.022097 -0.118948 -0.040147
   vertex 0.022709 -0.121271 -0.041053
   vertex 0.023495 -0.120827 -0.042094
  endloop
 endfacet
 facet normal 0.634895 -0.129778 0.761621
  outer loop
   vertex 0.021345 -0.119317 -0.039583
   vertex 0.022709 -0.121271 -0.041053
   vertex 0.022097 -0.118948 -0.040147
  endloop
 endfacet
 facet normal -0.799531 0.576987 0.166843
  outer loop
   vertex 0.020261 -0.117256 -0.041229
   vertex 0.01844 -0.119941 -0.04067
   vertex 0.019863 -0.118184 -0.039927
  endloop
 endfacet
 facet normal -0.743034 0.667977 0.0413249
  outer loop
   vertex 0.01844 -0.119941 -0.04067
   vertex 0.020279 -0.11773 -0.043343
   vertex 0.019951 -0.118038 -0.044262
  endloop
 endfacet
 facet normal -0.792901 0.48767 0.365356
  outer loop
   vertex 0.019863 -0.118184 -0.039927
   vertex 0.01844 -0.119941 -0.04067
   vertex 0.019631 -0.118983 -0.039364
  endloop
 endfacet
 facet normal -0.50698 -0.406156 0.760269
  outer loop
   vertex 0.01844 -0.119941 -0.04067
   vertex 0.020213 -0.119994 -0.039516
   vertex 0.019631 -0.118983 -0.039364
  endloop
 endfacet
 facet normal -0.320681 0.933501 0.160439
  outer loop
   vertex 0.018733 -0.119179 -0.044518
   vertex 0.017325 -0.119998 -0.042567
   vertex 0.01844 -0.119941 -0.04067
  endloop
 endfacet
 facet normal -0.832985 0.538334 -0.127797
  outer loop
   vertex 0.020279 -0.11773 -0.043343
   vertex 0.01844 -0.119941 -0.04067
   vertex 0.020261 -0.117256 -0.041229
  endloop
 endfacet
 facet normal -0.524851 0.84171 0.126716
  outer loop
   vertex 0.018733 -0.119179 -0.044518
   vertex 0.01844 -0.119941 -0.04067
   vertex 0.019406 -0.1188 -0.044248
  endloop
 endfacet
 facet normal -0.813193 0.580985 -0.0342755
  outer loop
   vertex 0.019951 -0.118038 -0.044262
   vertex 0.019406 -0.1188 -0.044248
   vertex 0.01844 -0.119941 -0.04067
  endloop
 endfacet
 facet normal -0.0598874 -0.182035 0.981467
  outer loop
   vertex 0.020476 -0.119261 -0.039364
   vertex 0.019631 -0.118983 -0.039364
   vertex 0.020213 -0.119994 -0.039516
  endloop
 endfacet
 facet normal 0.21855 -0.272705 0.936946
  outer loop
   vertex 0.020213 -0.119994 -0.039516
   vertex 0.021345 -0.119317 -0.039583
   vertex 0.020476 -0.119261 -0.039364
  endloop
 endfacet
 facet normal 0.249319 0.103199 0.962907
  outer loop
   vertex 0.020476 -0.119261 -0.039364
   vertex 0.021345 -0.119317 -0.039583
   vertex 0.02073 -0.118559 -0.039505
  endloop
 endfacet
 facet normal 0.474072 0.299433 0.828007
  outer loop
   vertex 0.02073 -0.118559 -0.039505
   vertex 0.021345 -0.119317 -0.039583
   vertex 0.022097 -0.118948 -0.040147
  endloop
 endfacet
 facet normal -0.20064 0.960416 0.193245
  outer loop
   vertex 0.016517 -0.119801 -0.044385
   vertex 0.017325 -0.119998 -0.042567
   vertex 0.016458 -0.119393 -0.046474
  endloop
 endfacet
 facet normal -0.125144 0.975878 0.178886
  outer loop
   vertex 0.017325 -0.119998 -0.042567
   vertex 0.018583 -0.119328 -0.045342
   vertex 0.016458 -0.119393 -0.046474
  endloop
 endfacet
 facet normal -0.552817 0.831815 -0.0497754
  outer loop
   vertex 0.018733 -0.119179 -0.044518
   vertex 0.018583 -0.119328 -0.045342
   vertex 0.017325 -0.119998 -0.042567
  endloop
 endfacet
 facet normal 0.628823 0.430416 -0.647552
  outer loop
   vertex 0.021276 -0.117629 -0.048342
   vertex 0.022064 -0.120211 -0.049293
   vertex 0.020539 -0.117974 -0.049287
  endloop
 endfacet
 facet normal 0.411587 0.704483 -0.578187
  outer loop
   vertex 0.019499 -0.11686 -0.04867
   vertex 0.021276 -0.117629 -0.048342
   vertex 0.020539 -0.117974 -0.049287
  endloop
 endfacet
 facet normal 0.42191 0.772581 -0.474458
  outer loop
   vertex 0.021276 -0.117629 -0.048342
   vertex 0.019499 -0.11686 -0.04867
   vertex 0.019665 -0.116296 -0.047604
  endloop
 endfacet
 facet normal 0.605509 0.789082 -0.10348
  outer loop
   vertex 0.019665 -0.116296 -0.047604
   vertex 0.020246 -0.116158 -0.043152
   vertex 0.021276 -0.117629 -0.048342
  endloop
 endfacet
 facet normal 0.655306 0.750817 -0.0827523
  outer loop
   vertex 0.021276 -0.117629 -0.048342
   vertex 0.020246 -0.116158 -0.043152
   vertex 0.021669 -0.11722 -0.041519
  endloop
 endfacet
 facet normal 0.732239 0.525414 0.43332
  outer loop
   vertex 0.021669 -0.11722 -0.041519
   vertex 0.021377 -0.117952 -0.040138
   vertex 0.022097 -0.118948 -0.040147
  endloop
 endfacet
 facet normal 0.528939 0.844083 0.088019
  outer loop
   vertex 0.020539 -0.116478 -0.041844
   vertex 0.021669 -0.11722 -0.041519
   vertex 0.020246 -0.116158 -0.043152
  endloop
 endfacet
 facet normal 0.881162 0.407984 0.238963
  outer loop
   vertex 0.022097 -0.118948 -0.040147
   vertex 0.023495 -0.120827 -0.042094
   vertex 0.021669 -0.11722 -0.041519
  endloop
 endfacet
 facet normal 0.429376 0.75724 0.492162
  outer loop
   vertex 0.021377 -0.117952 -0.040138
   vertex 0.021669 -0.11722 -0.041519
   vertex 0.020526 -0.116995 -0.040868
  endloop
 endfacet
 facet normal 0.404801 0.805799 0.432231
  outer loop
   vertex 0.020539 -0.116478 -0.041844
   vertex 0.020526 -0.116995 -0.040868
   vertex 0.021669 -0.11722 -0.041519
  endloop
 endfacet
 facet normal -0.318141 0.94392 -0.088328
  outer loop
   vertex 0.016458 -0.119393 -0.046474
   vertex 0.018057 -0.118925 -0.047232
   vertex 0.016657 -0.119386 -0.047116
  endloop
 endfacet
 facet normal -0.161656 0.955014 0.248626
  outer loop
   vertex 0.018583 -0.119328 -0.045342
   vertex 0.018057 -0.118925 -0.047232
   vertex 0.016458 -0.119393 -0.046474
  endloop
 endfacet
 facet normal -0.299722 0.944336 0.135633
  outer loop
   vertex 0.018057 -0.118925 -0.047232
   vertex 0.017253 -0.119041 -0.048201
   vertex 0.016657 -0.119386 -0.047116
  endloop
 endfacet
 facet normal -0.081109 0.407822 -0.909452
  outer loop
   vertex 0.01974 -0.118771 -0.049771
   vertex 0.01813 -0.118333 -0.049431
   vertex 0.018517 -0.117422 -0.049057
  endloop
 endfacet
 facet normal -0.400294 0.88813 0.225808
  outer loop
   vertex 0.018057 -0.118925 -0.047232
   vertex 0.01813 -0.118333 -0.049431
   vertex 0.017253 -0.119041 -0.048201
  endloop
 endfacet
 facet normal -0.562812 0.802667 0.197405
  outer loop
   vertex 0.018057 -0.118925 -0.047232
   vertex 0.019428 -0.118141 -0.046511
   vertex 0.01813 -0.118333 -0.049431
  endloop
 endfacet
 facet normal -0.896103 0.223164 0.383662
  outer loop
   vertex 0.019428 -0.118141 -0.046511
   vertex 0.018517 -0.117422 -0.049057
   vertex 0.01813 -0.118333 -0.049431
  endloop
 endfacet
 facet normal 0.0355272 0.492472 -0.869603
  outer loop
   vertex 0.018517 -0.117422 -0.049057
   vertex 0.020539 -0.117974 -0.049287
   vertex 0.01974 -0.118771 -0.049771
  endloop
 endfacet
 facet normal 0.0430458 0.514513 -0.856402
  outer loop
   vertex 0.019499 -0.11686 -0.04867
   vertex 0.020539 -0.117974 -0.049287
   vertex 0.018517 -0.117422 -0.049057
  endloop
 endfacet
 facet normal 0.477132 0.337583 0.811408
  outer loop
   vertex 0.02073 -0.118559 -0.039505
   vertex 0.022097 -0.118948 -0.040147
   vertex 0.021377 -0.117952 -0.040138
  endloop
 endfacet
 facet normal -0.955916 0.284683 -0.07197
  outer loop
   vertex 0.020539 -0.116478 -0.041844
   vertex 0.020279 -0.11773 -0.043343
   vertex 0.020261 -0.117256 -0.041229
  endloop
 endfacet
 facet normal -0.831145 0.495879 0.2516
  outer loop
   vertex 0.020539 -0.116478 -0.041844
   vertex 0.020261 -0.117256 -0.041229
   vertex 0.020526 -0.116995 -0.040868
  endloop
 endfacet
 facet normal -0.65735 0.75115 -0.0605389
  outer loop
   vertex 0.020226 -0.117217 -0.040365
   vertex 0.020526 -0.116995 -0.040868
   vertex 0.020261 -0.117256 -0.041229
  endloop
 endfacet
 facet normal -0.942563 0.329787 -0.0530713
  outer loop
   vertex 0.020261 -0.117256 -0.041229
   vertex 0.019863 -0.118184 -0.039927
   vertex 0.020226 -0.117217 -0.040365
  endloop
 endfacet
 facet normal 0.175215 0.532586 0.828041
  outer loop
   vertex 0.019631 -0.118983 -0.039364
   vertex 0.020476 -0.119261 -0.039364
   vertex 0.019863 -0.118184 -0.039927
  endloop
 endfacet
 facet normal -0.0664572 0.432277 0.899289
  outer loop
   vertex 0.020476 -0.119261 -0.039364
   vertex 0.020226 -0.117217 -0.040365
   vertex 0.019863 -0.118184 -0.039927
  endloop
 endfacet
 facet normal -0.945422 0.160247 0.283723
  outer loop
   vertex 0.020279 -0.11773 -0.043343
   vertex 0.02011 -0.117601 -0.043979
   vertex 0.019951 -0.118038 -0.044262
  endloop
 endfacet
 facet normal -0.977124 -0.0457471 0.207691
  outer loop
   vertex 0.020539 -0.116478 -0.041844
   vertex 0.020246 -0.116158 -0.043152
   vertex 0.020279 -0.11773 -0.043343
  endloop
 endfacet
 facet normal -0.967723 -0.0503186 0.24694
  outer loop
   vertex 0.02011 -0.117601 -0.043979
   vertex 0.020279 -0.11773 -0.043343
   vertex 0.020246 -0.116158 -0.043152
  endloop
 endfacet
 facet normal -0.721218 0.524152 0.45289
  outer loop
   vertex 0.019406 -0.1188 -0.044248
   vertex 0.019951 -0.118038 -0.044262
   vertex 0.019497 -0.118362 -0.04461
  endloop
 endfacet
 facet normal -0.89624 0.0400076 0.441761
  outer loop
   vertex 0.02011 -0.117601 -0.043979
   vertex 0.01988 -0.117122 -0.044489
   vertex 0.019951 -0.118038 -0.044262
  endloop
 endfacet
 facet normal -0.989748 -0.0429623 0.136207
  outer loop
   vertex 0.019861 -0.118019 -0.04491
   vertex 0.019951 -0.118038 -0.044262
   vertex 0.01988 -0.117122 -0.044489
  endloop
 endfacet
 facet normal -0.631975 0.767104 0.110267
  outer loop
   vertex 0.019951 -0.118038 -0.044262
   vertex 0.019861 -0.118019 -0.04491
   vertex 0.019497 -0.118362 -0.04461
  endloop
 endfacet
 facet normal -0.466488 0.881388 -0.0744547
  outer loop
   vertex 0.018583 -0.119328 -0.045342
   vertex 0.018733 -0.119179 -0.044518
   vertex 0.019406 -0.1188 -0.044248
  endloop
 endfacet
 facet normal -0.573385 0.818481 0.0363233
  outer loop
   vertex 0.019406 -0.1188 -0.044248
   vertex 0.019309 -0.118838 -0.044923
   vertex 0.018583 -0.119328 -0.045342
  endloop
 endfacet
 facet normal -0.947765 0.295719 0.119552
  outer loop
   vertex 0.019309 -0.118838 -0.044923
   vertex 0.019406 -0.1188 -0.044248
   vertex 0.019497 -0.118362 -0.04461
  endloop
 endfacet
 facet normal -0.482424 0.336956 0.808534
  outer loop
   vertex 0.020476 -0.119261 -0.039364
   vertex 0.02073 -0.118559 -0.039505
   vertex 0.020226 -0.117217 -0.040365
  endloop
 endfacet
 facet normal 0.218192 0.583321 0.782387
  outer loop
   vertex 0.02073 -0.118559 -0.039505
   vertex 0.021377 -0.117952 -0.040138
   vertex 0.020226 -0.117217 -0.040365
  endloop
 endfacet
 facet normal -0.59193 0.73876 0.322263
  outer loop
   vertex 0.019428 -0.118141 -0.046511
   vertex 0.018057 -0.118925 -0.047232
   vertex 0.018583 -0.119328 -0.045342
  endloop
 endfacet
 facet normal -0.640427 0.719771 0.267925
  outer loop
   vertex 0.019428 -0.118141 -0.046511
   vertex 0.018583 -0.119328 -0.045342
   vertex 0.019309 -0.118838 -0.044923
  endloop
 endfacet
 facet normal -0.98404 0.165355 0.0657493
  outer loop
   vertex 0.019665 -0.116296 -0.047604
   vertex 0.019499 -0.11686 -0.04867
   vertex 0.019428 -0.118141 -0.046511
  endloop
 endfacet
 facet normal -0.569165 0.715201 0.405633
  outer loop
   vertex 0.019499 -0.11686 -0.04867
   vertex 0.018517 -0.117422 -0.049057
   vertex 0.019428 -0.118141 -0.046511
  endloop
 endfacet
 facet normal -0.97198 0.201776 0.120592
  outer loop
   vertex 0.020246 -0.116158 -0.043152
   vertex 0.019665 -0.116296 -0.047604
   vertex 0.01988 -0.117122 -0.044489
  endloop
 endfacet
 facet normal -0.937205 0.258862 0.233746
  outer loop
   vertex 0.019665 -0.116296 -0.047604
   vertex 0.019428 -0.118141 -0.046511
   vertex 0.019861 -0.118019 -0.04491
  endloop
 endfacet
 facet normal -0.997755 -0.00994859 0.0662283
  outer loop
   vertex 0.01988 -0.117122 -0.044489
   vertex 0.019665 -0.116296 -0.047604
   vertex 0.019861 -0.118019 -0.04491
  endloop
 endfacet
 facet normal -0.938895 -0.100229 0.329286
  outer loop
   vertex 0.02011 -0.117601 -0.043979
   vertex 0.020246 -0.116158 -0.043152
   vertex 0.01988 -0.117122 -0.044489
  endloop
 endfacet
 facet normal 0.369392 0.748535 0.550677
  outer loop
   vertex 0.020526 -0.116995 -0.040868
   vertex 0.020226 -0.117217 -0.040365
   vertex 0.021377 -0.117952 -0.040138
  endloop
 endfacet
 facet normal -0.942943 0.325072 0.0720167
  outer loop
   vertex 0.019428 -0.118141 -0.046511
   vertex 0.019309 -0.118838 -0.044923
   vertex 0.019497 -0.118362 -0.04461
  endloop
 endfacet
 facet normal -0.630958 0.767669 0.112146
  outer loop
   vertex 0.019861 -0.118019 -0.04491
   vertex 0.019428 -0.118141 -0.046511
   vertex 0.019497 -0.118362 -0.04461
  endloop
 endfacet
endsolid
