solid ascii
 facet normal 0.440163 -0.896844 -0.0438985
  outer loop
   vertex -0.002223 0.138448 0
   vertex 0.011588 0.145666 -0.008983
   vertex 0.01249 0.145669 0
  endloop
 endfacet
 facet normal 0.426277 -0.901932 -0.0693346
  outer loop
   vertex -0.002223 0.138448 0
   vertex 0.006919 0.144182 -0.018384
   vertex 0.011588 0.145666 -0.008983
  endloop
 endfacet
 facet normal 0.437252 -0.897172 -0.0623928
  outer loop
   vertex -0.002223 0.138448 0
   vertex -0.0003 0.140982 -0.022961
   vertex 0.006919 0.144182 -0.018384
  endloop
 endfacet
 facet normal 0.41624 -0.906837 0.0662573
  outer loop
   vertex -0.002223 0.138448 0
   vertex -0.018175 0.131126 0
   vertex -0.017911 0.130853 -0.005395
  endloop
 endfacet
 facet normal 0.444202 -0.895384 -0.0311757
  outer loop
   vertex -0.017911 0.130853 -0.005395
   vertex -0.018404 0.130977 -0.015981
   vertex -0.002223 0.138448 0
  endloop
 endfacet
 facet normal 0.534132 -0.831617 -0.152042
  outer loop
   vertex -0.002223 0.138448 0
   vertex -0.018404 0.130977 -0.015981
   vertex -0.014318 0.134902 -0.023095
  endloop
 endfacet
 facet normal 0.397544 -0.915083 -0.0676949
  outer loop
   vertex -0.014318 0.134902 -0.023095
   vertex -0.0003 0.140982 -0.022961
   vertex -0.002223 0.138448 0
  endloop
 endfacet
 facet normal 0.440163 -0.896844 0.0438985
  outer loop
   vertex 0.01249 0.145669 0
   vertex 0.011588 0.145666 0.008983
   vertex -0.002223 0.138448 0
  endloop
 endfacet
 facet normal 0.426277 -0.901932 0.0693346
  outer loop
   vertex 0.011588 0.145666 0.008983
   vertex 0.006919 0.144182 0.018384
   vertex -0.002223 0.138448 0
  endloop
 endfacet
 facet normal 0.437252 -0.897172 0.0623928
  outer loop
   vertex 0.006919 0.144182 0.018384
   vertex -0.0003 0.140982 0.022961
   vertex -0.002223 0.138448 0
  endloop
 endfacet
 facet normal 0.41624 -0.906837 -0.0662573
  outer loop
   vertex -0.017911 0.130853 0.005395
   vertex -0.018175 0.131126 0
   vertex -0.002223 0.138448 0
  endloop
 endfacet
 facet normal 0.444202 -0.895384 0.0311757
  outer loop
   vertex -0.002223 0.138448 0
   vertex -0.018404 0.130977 0.015981
   vertex -0.017911 0.130853 0.005395
  endloop
 endfacet
 facet normal 0.534132 -0.831617 0.152042
  outer loop
   vertex -0.014318 0.134902 0.023095
   vertex -0.018404 0.130977 0.015981
   vertex -0.002223 0.138448 0
  endloop
 endfacet
 facet normal 0.397544 -0.915083 0.0676949
  outer loop
   vertex -0.002223 0.138448 0
   vertex -0.0003 0.140982 0.022961
   vertex -0.014318 0.134902 0.023095
  endloop
 endfacet
 facet normal 0.938746 -0.331499 -0.0941507
  outer loop
   vertex 0.01249 0.145669 0
   vertex 0.011588 0.145666 -0.008983
   vertex 0.011879 0.147003 -0.010789
  endloop
 endfacet
 facet normal 0.771162 -0.564769 -0.293845
  outer loop
   vertex 0.011879 0.147003 -0.010789
   vertex 0.011588 0.145666 -0.008983
   vertex 0.006919 0.144182 -0.018384
  endloop
 endfacet
 facet normal 0.902427 0.430838 0.00216455
  outer loop
   vertex 0.011549 0.14764 0
   vertex 0.01249 0.145669 0
   vertex 0.011879 0.147003 -0.010789
  endloop
 endfacet
 facet normal 0.938746 -0.331499 0.0941507
  outer loop
   vertex 0.011879 0.147003 0.010789
   vertex 0.011588 0.145666 0.008983
   vertex 0.01249 0.145669 0
  endloop
 endfacet
 facet normal 0.902427 0.430838 -0.00216455
  outer loop
   vertex 0.011879 0.147003 0.010789
   vertex 0.01249 0.145669 0
   vertex 0.011549 0.14764 0
  endloop
 endfacet
 facet normal 0.596556 0.542782 -0.591192
  outer loop
   vertex 0.005194 0.146763 -0.017755
   vertex 0.011879 0.147003 -0.010789
   vertex 0.006919 0.144182 -0.018384
  endloop
 endfacet
 facet normal 0.339354 0.430617 -0.836306
  outer loop
   vertex 0.005194 0.146763 -0.017755
   vertex 0.006919 0.144182 -0.018384
   vertex -0.0003 0.140982 -0.022961
  endloop
 endfacet
 facet normal 0.346139 0.424488 -0.836659
  outer loop
   vertex -0.00334 0.146171 -0.021586
   vertex 0.005194 0.146763 -0.017755
   vertex -0.0003 0.140982 -0.022961
  endloop
 endfacet
 facet normal -0.081856 0.210198 -0.974226
  outer loop
   vertex -0.00334 0.146171 -0.021586
   vertex -0.0003 0.140982 -0.022961
   vertex -0.014318 0.134902 -0.023095
  endloop
 endfacet
 facet normal -0.978374 -0.2034 -0.0375833
  outer loop
   vertex -0.019562 0.13873 -0.005046
   vertex -0.017911 0.130853 -0.005395
   vertex -0.018175 0.131126 0
  endloop
 endfacet
 facet normal -0.985014 -0.172097 0.0114123
  outer loop
   vertex -0.019481 0.138601 0
   vertex -0.019562 0.13873 -0.005046
   vertex -0.018175 0.131126 0
  endloop
 endfacet
 facet normal -0.978374 -0.2034 0.0375833
  outer loop
   vertex -0.018175 0.131126 0
   vertex -0.017911 0.130853 0.005395
   vertex -0.019562 0.13873 0.005046
  endloop
 endfacet
 facet normal -0.985014 -0.172097 -0.0114123
  outer loop
   vertex -0.018175 0.131126 0
   vertex -0.019562 0.13873 0.005046
   vertex -0.019481 0.138601 0
  endloop
 endfacet
 facet normal -0.977438 -0.206778 0.0430979
  outer loop
   vertex -0.017911 0.130853 -0.005395
   vertex -0.019562 0.13873 -0.005046
   vertex -0.018404 0.130977 -0.015981
  endloop
 endfacet
 facet normal -0.627773 -0.143099 -0.76513
  outer loop
   vertex -0.018404 0.130977 -0.015981
   vertex -0.020164 0.1405 -0.016318
   vertex -0.013701 0.141175 -0.021747
  endloop
 endfacet
 facet normal -0.892463 0.176953 -0.414966
  outer loop
   vertex -0.014318 0.134902 -0.023095
   vertex -0.018404 0.130977 -0.015981
   vertex -0.013701 0.141175 -0.021747
  endloop
 endfacet
 facet normal -0.972336 -0.184761 -0.142917
  outer loop
   vertex -0.02103 0.139888 -0.009635
   vertex -0.020164 0.1405 -0.016318
   vertex -0.018404 0.130977 -0.015981
  endloop
 endfacet
 facet normal -0.898212 -0.397829 0.186944
  outer loop
   vertex -0.019562 0.13873 -0.005046
   vertex -0.02103 0.139888 -0.009635
   vertex -0.018404 0.130977 -0.015981
  endloop
 endfacet
 facet normal -0.0898637 0.217684 -0.971874
  outer loop
   vertex -0.013701 0.141175 -0.021747
   vertex -0.00334 0.146171 -0.021586
   vertex -0.014318 0.134902 -0.023095
  endloop
 endfacet
 facet normal 0.771162 -0.564769 0.293845
  outer loop
   vertex 0.006919 0.144182 0.018384
   vertex 0.011588 0.145666 0.008983
   vertex 0.011879 0.147003 0.010789
  endloop
 endfacet
 facet normal 0.596556 0.542782 0.591192
  outer loop
   vertex 0.006919 0.144182 0.018384
   vertex 0.011879 0.147003 0.010789
   vertex 0.005194 0.146763 0.017755
  endloop
 endfacet
 facet normal 0.339354 0.430617 0.836306
  outer loop
   vertex -0.0003 0.140982 0.022961
   vertex 0.006919 0.144182 0.018384
   vertex 0.005194 0.146763 0.017755
  endloop
 endfacet
 facet normal 0.346139 0.424488 0.836659
  outer loop
   vertex -0.0003 0.140982 0.022961
   vertex 0.005194 0.146763 0.017755
   vertex -0.00334 0.146171 0.021586
  endloop
 endfacet
 facet normal -0.081856 0.210198 0.974226
  outer loop
   vertex -0.014318 0.134902 0.023095
   vertex -0.0003 0.140982 0.022961
   vertex -0.00334 0.146171 0.021586
  endloop
 endfacet
 facet normal -0.977438 -0.206778 -0.0430979
  outer loop
   vertex -0.018404 0.130977 0.015981
   vertex -0.019562 0.13873 0.005046
   vertex -0.017911 0.130853 0.005395
  endloop
 endfacet
 facet normal -0.627773 -0.143099 0.76513
  outer loop
   vertex -0.013701 0.141175 0.021747
   vertex -0.020164 0.1405 0.016318
   vertex -0.018404 0.130977 0.015981
  endloop
 endfacet
 facet normal -0.892463 0.176953 0.414966
  outer loop
   vertex -0.013701 0.141175 0.021747
   vertex -0.018404 0.130977 0.015981
   vertex -0.014318 0.134902 0.023095
  endloop
 endfacet
 facet normal -0.972336 -0.184761 0.142917
  outer loop
   vertex -0.018404 0.130977 0.015981
   vertex -0.020164 0.1405 0.016318
   vertex -0.02103 0.139888 0.009635
  endloop
 endfacet
 facet normal -0.898212 -0.397829 -0.186944
  outer loop
   vertex -0.018404 0.130977 0.015981
   vertex -0.02103 0.139888 0.009635
   vertex -0.019562 0.13873 0.005046
  endloop
 endfacet
 facet normal -0.0898637 0.217684 0.971874
  outer loop
   vertex -0.014318 0.134902 0.023095
   vertex -0.00334 0.146171 0.021586
   vertex -0.013701 0.141175 0.021747
  endloop
 endfacet
 facet normal 0.777961 0.618045 -0.113127
  outer loop
   vertex 0.011879 0.147003 -0.010789
   vertex 0.00768 0.152341 -0.010502
   vertex 0.009142 0.152423 0
  endloop
 endfacet
 facet normal 0.893266 0.449528 0.000780779
  outer loop
   vertex 0.011549 0.14764 0
   vertex 0.011879 0.147003 -0.010789
   vertex 0.009142 0.152423 0
  endloop
 endfacet
 facet normal 0.610558 0.512732 -0.603594
  outer loop
   vertex 0.00768 0.152341 -0.010502
   vertex 0.011879 0.147003 -0.010789
   vertex 0.005194 0.146763 -0.017755
  endloop
 endfacet
 facet normal 0.893266 0.449528 -0.000780779
  outer loop
   vertex 0.009142 0.152423 0
   vertex 0.011879 0.147003 0.010789
   vertex 0.011549 0.14764 0
  endloop
 endfacet
 facet normal 0.777961 0.618045 0.113127
  outer loop
   vertex 0.009142 0.152423 0
   vertex 0.00768 0.152341 0.010502
   vertex 0.011879 0.147003 0.010789
  endloop
 endfacet
 facet normal 0.610558 0.512732 0.603594
  outer loop
   vertex 0.005194 0.146763 0.017755
   vertex 0.011879 0.147003 0.010789
   vertex 0.00768 0.152341 0.010502
  endloop
 endfacet
 facet normal 0.627406 0.498369 -0.598323
  outer loop
   vertex 0.001936 0.1514 -0.017309
   vertex 0.00768 0.152341 -0.010502
   vertex 0.005194 0.146763 -0.017755
  endloop
 endfacet
 facet normal 0.365394 0.340073 -0.866509
  outer loop
   vertex 0.001936 0.1514 -0.017309
   vertex 0.005194 0.146763 -0.017755
   vertex -0.00334 0.146171 -0.021586
  endloop
 endfacet
 facet normal 0.250773 0.448618 -0.85782
  outer loop
   vertex -0.004941 0.150808 -0.019629
   vertex 0.001936 0.1514 -0.017309
   vertex -0.00334 0.146171 -0.021586
  endloop
 endfacet
 facet normal -0.149599 0.340166 -0.92839
  outer loop
   vertex -0.004941 0.150808 -0.019629
   vertex -0.00334 0.146171 -0.021586
   vertex -0.013701 0.141175 -0.021747
  endloop
 endfacet
 facet normal -0.954682 -0.297527 0.00771883
  outer loop
   vertex -0.019562 0.13873 -0.005046
   vertex -0.019481 0.138601 0
   vertex -0.022088 0.146798 -0.006481
  endloop
 endfacet
 facet normal -0.938416 -0.251712 0.236677
  outer loop
   vertex -0.02103 0.139888 -0.009635
   vertex -0.019562 0.13873 -0.005046
   vertex -0.022088 0.146798 -0.006481
  endloop
 endfacet
 facet normal -0.966415 -0.244295 0.0797647
  outer loop
   vertex -0.021614 0.147039 0
   vertex -0.022088 0.146798 -0.006481
   vertex -0.019481 0.138601 0
  endloop
 endfacet
 facet normal -0.966415 -0.244295 -0.0797647
  outer loop
   vertex -0.019481 0.138601 0
   vertex -0.022088 0.146798 0.006481
   vertex -0.021614 0.147039 0
  endloop
 endfacet
 facet normal -0.954682 -0.297527 -0.00771883
  outer loop
   vertex -0.022088 0.146798 0.006481
   vertex -0.019481 0.138601 0
   vertex -0.019562 0.13873 0.005046
  endloop
 endfacet
 facet normal -0.938416 -0.251712 -0.236677
  outer loop
   vertex -0.022088 0.146798 0.006481
   vertex -0.019562 0.13873 0.005046
   vertex -0.02103 0.139888 0.009635
  endloop
 endfacet
 facet normal 0.0660233 -0.503581 -0.861422
  outer loop
   vertex -0.020164 0.1405 -0.016318
   vertex -0.020423 0.145839 -0.019459
   vertex -0.01495 0.148469 -0.020577
  endloop
 endfacet
 facet normal -0.64391 0.0124496 -0.765
  outer loop
   vertex -0.013701 0.141175 -0.021747
   vertex -0.020164 0.1405 -0.016318
   vertex -0.01495 0.148469 -0.020577
  endloop
 endfacet
 facet normal -0.89478 -0.418993 -0.154317
  outer loop
   vertex -0.024128 0.146617 -0.009942
   vertex -0.020164 0.1405 -0.016318
   vertex -0.02103 0.139888 -0.009635
  endloop
 endfacet
 facet normal -0.910864 -0.241203 -0.334885
  outer loop
   vertex -0.024128 0.146617 -0.009942
   vertex -0.020423 0.145839 -0.019459
   vertex -0.020164 0.1405 -0.016318
  endloop
 endfacet
 facet normal 0.0541711 0.167185 -0.984436
  outer loop
   vertex -0.01495 0.148469 -0.020577
   vertex -0.004941 0.150808 -0.019629
   vertex -0.013701 0.141175 -0.021747
  endloop
 endfacet
 facet normal -0.800223 -0.346074 0.489771
  outer loop
   vertex -0.024128 0.146617 -0.009942
   vertex -0.02103 0.139888 -0.009635
   vertex -0.022088 0.146798 -0.006481
  endloop
 endfacet
 facet normal 0.627406 0.498369 0.598323
  outer loop
   vertex 0.005194 0.146763 0.017755
   vertex 0.00768 0.152341 0.010502
   vertex 0.001936 0.1514 0.017309
  endloop
 endfacet
 facet normal 0.365394 0.340073 0.866509
  outer loop
   vertex -0.00334 0.146171 0.021586
   vertex 0.005194 0.146763 0.017755
   vertex 0.001936 0.1514 0.017309
  endloop
 endfacet
 facet normal 0.250773 0.448618 0.85782
  outer loop
   vertex -0.00334 0.146171 0.021586
   vertex 0.001936 0.1514 0.017309
   vertex -0.004941 0.150808 0.019629
  endloop
 endfacet
 facet normal -0.149599 0.340166 0.92839
  outer loop
   vertex -0.013701 0.141175 0.021747
   vertex -0.00334 0.146171 0.021586
   vertex -0.004941 0.150808 0.019629
  endloop
 endfacet
 facet normal 0.0541711 0.167185 0.984436
  outer loop
   vertex -0.013701 0.141175 0.021747
   vertex -0.004941 0.150808 0.019629
   vertex -0.01495 0.148469 0.020577
  endloop
 endfacet
 facet normal -0.64391 0.0124496 0.765
  outer loop
   vertex -0.01495 0.148469 0.020577
   vertex -0.020164 0.1405 0.016318
   vertex -0.013701 0.141175 0.021747
  endloop
 endfacet
 facet normal 0.0660233 -0.503581 0.861422
  outer loop
   vertex -0.01495 0.148469 0.020577
   vertex -0.020423 0.145839 0.019459
   vertex -0.020164 0.1405 0.016318
  endloop
 endfacet
 facet normal -0.89478 -0.418993 0.154317
  outer loop
   vertex -0.02103 0.139888 0.009635
   vertex -0.020164 0.1405 0.016318
   vertex -0.024128 0.146617 0.009942
  endloop
 endfacet
 facet normal -0.910864 -0.241203 0.334885
  outer loop
   vertex -0.020164 0.1405 0.016318
   vertex -0.020423 0.145839 0.019459
   vertex -0.024128 0.146617 0.009942
  endloop
 endfacet
 facet normal -0.800223 -0.346074 -0.489771
  outer loop
   vertex -0.022088 0.146798 0.006481
   vertex -0.02103 0.139888 0.009635
   vertex -0.024128 0.146617 0.009942
  endloop
 endfacet
 facet normal 0.938981 0.311901 -0.145026
  outer loop
   vertex 0.00768 0.152341 -0.010502
   vertex 0.004725 0.16141 -0.01013
   vertex 0.005694 0.163203 0
  endloop
 endfacet
 facet normal 0.943906 0.30191 -0.13376
  outer loop
   vertex 0.009142 0.152423 0
   vertex 0.00768 0.152341 -0.010502
   vertex 0.005694 0.163203 0
  endloop
 endfacet
 facet normal 0.719712 0.260898 -0.643386
  outer loop
   vertex 0.004725 0.16141 -0.01013
   vertex 0.00768 0.152341 -0.010502
   vertex 0.001936 0.1514 -0.017309
  endloop
 endfacet
 facet normal 0.943906 0.30191 0.13376
  outer loop
   vertex 0.005694 0.163203 0
   vertex 0.00768 0.152341 0.010502
   vertex 0.009142 0.152423 0
  endloop
 endfacet
 facet normal 0.938981 0.311901 0.145026
  outer loop
   vertex 0.005694 0.163203 0
   vertex 0.004725 0.16141 0.01013
   vertex 0.00768 0.152341 0.010502
  endloop
 endfacet
 facet normal 0.719712 0.260898 0.643386
  outer loop
   vertex 0.001936 0.1514 0.017309
   vertex 0.00768 0.152341 0.010502
   vertex 0.004725 0.16141 0.01013
  endloop
 endfacet
 facet normal 0.743303 0.240567 -0.624202
  outer loop
   vertex -0.001243 0.159497 -0.017974
   vertex 0.004725 0.16141 -0.01013
   vertex 0.001936 0.1514 -0.017309
  endloop
 endfacet
 facet normal 0.315748 0.0461319 -0.947721
  outer loop
   vertex -0.001243 0.159497 -0.017974
   vertex 0.001936 0.1514 -0.017309
   vertex -0.004941 0.150808 -0.019629
  endloop
 endfacet
 facet normal 0.318948 0.04458 -0.946723
  outer loop
   vertex -0.006142 0.157553 -0.019716
   vertex -0.001243 0.159497 -0.017974
   vertex -0.004941 0.150808 -0.019629
  endloop
 endfacet
 facet normal 0.0934141 0.00379109 -0.99562
  outer loop
   vertex -0.006142 0.157553 -0.019716
   vertex -0.004941 0.150808 -0.019629
   vertex -0.01495 0.148469 -0.020577
  endloop
 endfacet
 facet normal -0.821466 -0.564466 0.0810692
  outer loop
   vertex -0.026151 0.15268 -0.006696
   vertex -0.022088 0.146798 -0.006481
   vertex -0.021614 0.147039 0
  endloop
 endfacet
 facet normal -0.734958 -0.490561 0.468174
  outer loop
   vertex -0.026151 0.15268 -0.006696
   vertex -0.028261 0.152311 -0.010395
   vertex -0.022088 0.146798 -0.006481
  endloop
 endfacet
 facet normal -0.735706 -0.497444 0.459659
  outer loop
   vertex -0.028261 0.152311 -0.010395
   vertex -0.024128 0.146617 -0.009942
   vertex -0.022088 0.146798 -0.006481
  endloop
 endfacet
 facet normal -0.83747 -0.533613 0.117904
  outer loop
   vertex -0.025474 0.153097 0
   vertex -0.026151 0.15268 -0.006696
   vertex -0.021614 0.147039 0
  endloop
 endfacet
 facet normal -0.821466 -0.564466 -0.0810692
  outer loop
   vertex -0.021614 0.147039 0
   vertex -0.022088 0.146798 0.006481
   vertex -0.026151 0.15268 0.006696
  endloop
 endfacet
 facet normal -0.83747 -0.533613 -0.117904
  outer loop
   vertex -0.021614 0.147039 0
   vertex -0.026151 0.15268 0.006696
   vertex -0.025474 0.153097 0
  endloop
 endfacet
 facet normal -0.734958 -0.490561 -0.468174
  outer loop
   vertex -0.022088 0.146798 0.006481
   vertex -0.028261 0.152311 0.010395
   vertex -0.026151 0.15268 0.006696
  endloop
 endfacet
 facet normal -0.735706 -0.497444 -0.459659
  outer loop
   vertex -0.022088 0.146798 0.006481
   vertex -0.024128 0.146617 0.009942
   vertex -0.028261 0.152311 0.010395
  endloop
 endfacet
 facet normal 0.119192 -0.219123 -0.96839
  outer loop
   vertex -0.020423 0.145839 -0.019459
   vertex -0.02134 0.152725 -0.02113
   vertex -0.016275 0.153677 -0.020722
  endloop
 endfacet
 facet normal -0.167281 -0.0699393 -0.983425
  outer loop
   vertex -0.01495 0.148469 -0.020577
   vertex -0.020423 0.145839 -0.019459
   vertex -0.016275 0.153677 -0.020722
  endloop
 endfacet
 facet normal 0.1399 -0.707256 -0.692977
  outer loop
   vertex -0.024517 0.147028 -0.021499
   vertex -0.020423 0.145839 -0.019459
   vertex -0.026287 0.142789 -0.01753
  endloop
 endfacet
 facet normal 0.0473204 -0.818766 -0.572175
  outer loop
   vertex -0.020423 0.145839 -0.019459
   vertex -0.024517 0.147028 -0.021499
   vertex -0.027717 0.14979 -0.025716
  endloop
 endfacet
 facet normal 0.612798 -0.108348 -0.782777
  outer loop
   vertex -0.02134 0.152725 -0.02113
   vertex -0.020423 0.145839 -0.019459
   vertex -0.027717 0.14979 -0.025716
  endloop
 endfacet
 facet normal 0.512261 -0.816541 0.266175
  outer loop
   vertex -0.024128 0.146617 -0.009942
   vertex -0.026287 0.142789 -0.01753
   vertex -0.020423 0.145839 -0.019459
  endloop
 endfacet
 facet normal 0.0996809 -0.0023425 -0.995017
  outer loop
   vertex -0.016275 0.153677 -0.020722
   vertex -0.006142 0.157553 -0.019716
   vertex -0.01495 0.148469 -0.020577
  endloop
 endfacet
 facet normal 0.333068 -0.876557 0.347438
  outer loop
   vertex -0.024128 0.146617 -0.009942
   vertex -0.033094 0.145649 -0.003789
   vertex -0.026287 0.142789 -0.01753
  endloop
 endfacet
 facet normal 0.484567 0.413069 0.771083
  outer loop
   vertex -0.033094 0.145649 -0.003789
   vertex -0.024128 0.146617 -0.009942
   vertex -0.028261 0.152311 -0.010395
  endloop
 endfacet
 facet normal 0.743303 0.240567 0.624202
  outer loop
   vertex 0.001936 0.1514 0.017309
   vertex 0.004725 0.16141 0.01013
   vertex -0.001243 0.159497 0.017974
  endloop
 endfacet
 facet normal 0.315748 0.0461319 0.947721
  outer loop
   vertex -0.004941 0.150808 0.019629
   vertex 0.001936 0.1514 0.017309
   vertex -0.001243 0.159497 0.017974
  endloop
 endfacet
 facet normal 0.318948 0.04458 0.946723
  outer loop
   vertex -0.004941 0.150808 0.019629
   vertex -0.001243 0.159497 0.017974
   vertex -0.006142 0.157553 0.019716
  endloop
 endfacet
 facet normal 0.0934141 0.00379109 0.99562
  outer loop
   vertex -0.01495 0.148469 0.020577
   vertex -0.004941 0.150808 0.019629
   vertex -0.006142 0.157553 0.019716
  endloop
 endfacet
 facet normal 0.0996809 -0.0023425 0.995017
  outer loop
   vertex -0.01495 0.148469 0.020577
   vertex -0.006142 0.157553 0.019716
   vertex -0.016275 0.153677 0.020722
  endloop
 endfacet
 facet normal -0.167281 -0.0699393 0.983425
  outer loop
   vertex -0.016275 0.153677 0.020722
   vertex -0.020423 0.145839 0.019459
   vertex -0.01495 0.148469 0.020577
  endloop
 endfacet
 facet normal 0.119192 -0.219123 0.96839
  outer loop
   vertex -0.016275 0.153677 0.020722
   vertex -0.02134 0.152725 0.02113
   vertex -0.020423 0.145839 0.019459
  endloop
 endfacet
 facet normal 0.1399 -0.707256 0.692977
  outer loop
   vertex -0.026287 0.142789 0.01753
   vertex -0.020423 0.145839 0.019459
   vertex -0.024517 0.147028 0.021499
  endloop
 endfacet
 facet normal 0.0473204 -0.818766 0.572175
  outer loop
   vertex -0.027717 0.14979 0.025716
   vertex -0.024517 0.147028 0.021499
   vertex -0.020423 0.145839 0.019459
  endloop
 endfacet
 facet normal 0.612798 -0.108348 0.782777
  outer loop
   vertex -0.027717 0.14979 0.025716
   vertex -0.020423 0.145839 0.019459
   vertex -0.02134 0.152725 0.02113
  endloop
 endfacet
 facet normal 0.512261 -0.816541 -0.266175
  outer loop
   vertex -0.020423 0.145839 0.019459
   vertex -0.026287 0.142789 0.01753
   vertex -0.024128 0.146617 0.009942
  endloop
 endfacet
 facet normal 0.333068 -0.876557 -0.347438
  outer loop
   vertex -0.026287 0.142789 0.01753
   vertex -0.033094 0.145649 0.003789
   vertex -0.024128 0.146617 0.009942
  endloop
 endfacet
 facet normal 0.484567 0.413069 -0.771083
  outer loop
   vertex -0.028261 0.152311 0.010395
   vertex -0.024128 0.146617 0.009942
   vertex -0.033094 0.145649 0.003789
  endloop
 endfacet
 facet normal 0.996987 0.0634624 -0.0446056
  outer loop
   vertex 0.004725 0.16141 -0.01013
   vertex 0.004322 0.166982 -0.01121
   vertex 0.00478 0.167666 0
  endloop
 endfacet
 facet normal 0.971588 0.198976 -0.128157
  outer loop
   vertex 0.005694 0.163203 0
   vertex 0.004725 0.16141 -0.01013
   vertex 0.00478 0.167666 0
  endloop
 endfacet
 facet normal 0.801232 -0.0574904 -0.595586
  outer loop
   vertex 0.004322 0.166982 -0.01121
   vertex 0.004725 0.16141 -0.01013
   vertex -0.001243 0.159497 -0.017974
  endloop
 endfacet
 facet normal 0.971588 0.198976 0.128157
  outer loop
   vertex 0.00478 0.167666 0
   vertex 0.004725 0.16141 0.01013
   vertex 0.005694 0.163203 0
  endloop
 endfacet
 facet normal 0.996987 0.0634624 0.0446056
  outer loop
   vertex 0.00478 0.167666 0
   vertex 0.004322 0.166982 0.01121
   vertex 0.004725 0.16141 0.01013
  endloop
 endfacet
 facet normal 0.801232 -0.0574904 0.595586
  outer loop
   vertex -0.001243 0.159497 0.017974
   vertex 0.004725 0.16141 0.01013
   vertex 0.004322 0.166982 0.01121
  endloop
 endfacet
 facet normal 0.854229 -0.202328 -0.478912
  outer loop
   vertex -0.000682 0.164358 -0.019027
   vertex 0.004322 0.166982 -0.01121
   vertex -0.001243 0.159497 -0.017974
  endloop
 endfacet
 facet normal 0.407882 -0.238017 -0.881465
  outer loop
   vertex -0.000682 0.164358 -0.019027
   vertex -0.001243 0.159497 -0.017974
   vertex -0.006142 0.157553 -0.019716
  endloop
 endfacet
 facet normal 0.551209 -0.366364 -0.749631
  outer loop
   vertex -0.006557 0.161203 -0.021805
   vertex -0.000682 0.164358 -0.019027
   vertex -0.006142 0.157553 -0.019716
  endloop
 endfacet
 facet normal 0.259389 -0.457343 -0.85062
  outer loop
   vertex -0.006557 0.161203 -0.021805
   vertex -0.006142 0.157553 -0.019716
   vertex -0.016275 0.153677 -0.020722
  endloop
 endfacet
 facet normal -0.926527 -0.35791 0.115966
  outer loop
   vertex -0.029289 0.160203 -0.008549
   vertex -0.026151 0.15268 -0.006696
   vertex -0.025474 0.153097 0
  endloop
 endfacet
 facet normal -0.859143 -0.105958 0.500646
  outer loop
   vertex -0.029415 0.158044 -0.011162
   vertex -0.028261 0.152311 -0.010395
   vertex -0.026151 0.15268 -0.006696
  endloop
 endfacet
 facet normal -0.905381 -0.304857 0.295547
  outer loop
   vertex -0.029289 0.160203 -0.008549
   vertex -0.029415 0.158044 -0.011162
   vertex -0.026151 0.15268 -0.006696
  endloop
 endfacet
 facet normal 0.661281 0.228691 0.714428
  outer loop
   vertex -0.028261 0.152311 -0.010395
   vertex -0.029415 0.158044 -0.011162
   vertex -0.033094 0.145649 -0.003789
  endloop
 endfacet
 facet normal -0.943953 -0.255792 0.208623
  outer loop
   vertex -0.027321 0.159913 0
   vertex -0.029289 0.160203 -0.008549
   vertex -0.025474 0.153097 0
  endloop
 endfacet
 facet normal -0.926527 -0.35791 -0.115966
  outer loop
   vertex -0.025474 0.153097 0
   vertex -0.026151 0.15268 0.006696
   vertex -0.029289 0.160203 0.008549
  endloop
 endfacet
 facet normal -0.943953 -0.255792 -0.208623
  outer loop
   vertex -0.025474 0.153097 0
   vertex -0.029289 0.160203 0.008549
   vertex -0.027321 0.159913 0
  endloop
 endfacet
 facet normal -0.859143 -0.105958 -0.500646
  outer loop
   vertex -0.026151 0.15268 0.006696
   vertex -0.028261 0.152311 0.010395
   vertex -0.029415 0.158044 0.011162
  endloop
 endfacet
 facet normal -0.905381 -0.304857 -0.295547
  outer loop
   vertex -0.026151 0.15268 0.006696
   vertex -0.029415 0.158044 0.011162
   vertex -0.029289 0.160203 0.008549
  endloop
 endfacet
 facet normal 0.661281 0.228691 -0.714428
  outer loop
   vertex -0.033094 0.145649 0.003789
   vertex -0.029415 0.158044 0.011162
   vertex -0.028261 0.152311 0.010395
  endloop
 endfacet
 facet normal -0.281791 -0.0092164 -0.959432
  outer loop
   vertex -0.02134 0.152725 -0.02113
   vertex -0.02391 0.156975 -0.020416
   vertex -0.015641 0.159197 -0.022866
  endloop
 endfacet
 facet normal 0.143882 -0.372604 -0.916769
  outer loop
   vertex -0.016275 0.153677 -0.020722
   vertex -0.02134 0.152725 -0.02113
   vertex -0.015641 0.159197 -0.022866
  endloop
 endfacet
 facet normal 0.172698 0.702908 -0.689997
  outer loop
   vertex -0.02134 0.152725 -0.02113
   vertex -0.027717 0.14979 -0.025716
   vertex -0.030584 0.155646 -0.020468
  endloop
 endfacet
 facet normal -0.0226314 0.15231 -0.988074
  outer loop
   vertex -0.02391 0.156975 -0.020416
   vertex -0.02134 0.152725 -0.02113
   vertex -0.030584 0.155646 -0.020468
  endloop
 endfacet
 facet normal 0.188699 -0.374307 -0.907902
  outer loop
   vertex -0.015641 0.159197 -0.022866
   vertex -0.006557 0.161203 -0.021805
   vertex -0.016275 0.153677 -0.020722
  endloop
 endfacet
 facet normal 0.245202 -0.715197 -0.654499
  outer loop
   vertex -0.027717 0.14979 -0.025716
   vertex -0.024517 0.147028 -0.021499
   vertex -0.026287 0.142789 -0.01753
  endloop
 endfacet
 facet normal -0.187589 -0.864635 -0.466064
  outer loop
   vertex -0.026287 0.142789 -0.01753
   vertex -0.034323 0.144588 -0.017633
   vertex -0.037414 0.148551 -0.023741
  endloop
 endfacet
 facet normal -0.538878 -0.816264 0.208144
  outer loop
   vertex -0.030411 0.143505 -0.025399
   vertex -0.026287 0.142789 -0.01753
   vertex -0.037414 0.148551 -0.023741
  endloop
 endfacet
 facet normal 0.808717 -0.369722 -0.457475
  outer loop
   vertex -0.030411 0.143505 -0.025399
   vertex -0.027717 0.14979 -0.025716
   vertex -0.026287 0.142789 -0.01753
  endloop
 endfacet
 facet normal -0.18376 -0.849192 -0.495081
  outer loop
   vertex -0.027276 0.139073 -0.010789
   vertex -0.034323 0.144588 -0.017633
   vertex -0.026287 0.142789 -0.01753
  endloop
 endfacet
 facet normal 0.854152 0.392173 0.341503
  outer loop
   vertex -0.033094 0.145649 -0.003789
   vertex -0.027276 0.139073 -0.010789
   vertex -0.026287 0.142789 -0.01753
  endloop
 endfacet
 facet normal 0.799627 -0.425219 -0.424011
  outer loop
   vertex -0.032122 0.145499 -0.02972
   vertex -0.031724 0.149211 -0.032692
   vertex -0.027717 0.14979 -0.025716
  endloop
 endfacet
 facet normal 0.795423 -0.36534 -0.483559
  outer loop
   vertex -0.030411 0.143505 -0.025399
   vertex -0.032122 0.145499 -0.02972
   vertex -0.027717 0.14979 -0.025716
  endloop
 endfacet
 facet normal 0.617939 0.670496 -0.410593
  outer loop
   vertex -0.027717 0.14979 -0.025716
   vertex -0.031724 0.149211 -0.032692
   vertex -0.030584 0.155646 -0.020468
  endloop
 endfacet
 facet normal 0.948246 0.307183 0.0804174
  outer loop
   vertex -0.029114 0.133738 -0.005221
   vertex -0.033094 0.145649 -0.003789
   vertex -0.032886 0.144015 0
  endloop
 endfacet
 facet normal -0.00929604 0.918027 0.396408
  outer loop
   vertex -0.04207 0.143922 0
   vertex -0.032886 0.144015 0
   vertex -0.033094 0.145649 -0.003789
  endloop
 endfacet
 facet normal 0.183658 0.654516 0.733402
  outer loop
   vertex -0.037162 0.151388 -0.007892
   vertex -0.04207 0.143922 0
   vertex -0.033094 0.145649 -0.003789
  endloop
 endfacet
 facet normal 0.842237 0.222386 0.491103
  outer loop
   vertex -0.033094 0.145649 -0.003789
   vertex -0.029114 0.133738 -0.005221
   vertex -0.027276 0.139073 -0.010789
  endloop
 endfacet
 facet normal -0.100517 0.530508 0.841699
  outer loop
   vertex -0.029415 0.158044 -0.011162
   vertex -0.037162 0.151388 -0.007892
   vertex -0.033094 0.145649 -0.003789
  endloop
 endfacet
 facet normal 0.854229 -0.202328 0.478912
  outer loop
   vertex -0.001243 0.159497 0.017974
   vertex 0.004322 0.166982 0.01121
   vertex -0.000682 0.164358 0.019027
  endloop
 endfacet
 facet normal 0.407882 -0.238017 0.881465
  outer loop
   vertex -0.006142 0.157553 0.019716
   vertex -0.001243 0.159497 0.017974
   vertex -0.000682 0.164358 0.019027
  endloop
 endfacet
 facet normal 0.551209 -0.366364 0.749631
  outer loop
   vertex -0.006142 0.157553 0.019716
   vertex -0.000682 0.164358 0.019027
   vertex -0.006557 0.161203 0.021805
  endloop
 endfacet
 facet normal 0.259389 -0.457343 0.85062
  outer loop
   vertex -0.016275 0.153677 0.020722
   vertex -0.006142 0.157553 0.019716
   vertex -0.006557 0.161203 0.021805
  endloop
 endfacet
 facet normal 0.188699 -0.374307 0.907902
  outer loop
   vertex -0.016275 0.153677 0.020722
   vertex -0.006557 0.161203 0.021805
   vertex -0.015641 0.159197 0.022866
  endloop
 endfacet
 facet normal 0.143882 -0.372604 0.916769
  outer loop
   vertex -0.015641 0.159197 0.022866
   vertex -0.02134 0.152725 0.02113
   vertex -0.016275 0.153677 0.020722
  endloop
 endfacet
 facet normal -0.281791 -0.0092164 0.959432
  outer loop
   vertex -0.015641 0.159197 0.022866
   vertex -0.02391 0.156975 0.020416
   vertex -0.02134 0.152725 0.02113
  endloop
 endfacet
 facet normal 0.172698 0.702908 0.689997
  outer loop
   vertex -0.030584 0.155646 0.020468
   vertex -0.027717 0.14979 0.025716
   vertex -0.02134 0.152725 0.02113
  endloop
 endfacet
 facet normal -0.0226314 0.15231 0.988074
  outer loop
   vertex -0.030584 0.155646 0.020468
   vertex -0.02134 0.152725 0.02113
   vertex -0.02391 0.156975 0.020416
  endloop
 endfacet
 facet normal -0.187589 -0.864635 0.466064
  outer loop
   vertex -0.037414 0.148551 0.023741
   vertex -0.034323 0.144588 0.017633
   vertex -0.026287 0.142789 0.01753
  endloop
 endfacet
 facet normal -0.538878 -0.816264 -0.208144
  outer loop
   vertex -0.037414 0.148551 0.023741
   vertex -0.026287 0.142789 0.01753
   vertex -0.030411 0.143505 0.025399
  endloop
 endfacet
 facet normal 0.245202 -0.715197 0.654499
  outer loop
   vertex -0.026287 0.142789 0.01753
   vertex -0.024517 0.147028 0.021499
   vertex -0.027717 0.14979 0.025716
  endloop
 endfacet
 facet normal 0.808717 -0.369722 0.457475
  outer loop
   vertex -0.026287 0.142789 0.01753
   vertex -0.027717 0.14979 0.025716
   vertex -0.030411 0.143505 0.025399
  endloop
 endfacet
 facet normal -0.18376 -0.849192 0.495081
  outer loop
   vertex -0.026287 0.142789 0.01753
   vertex -0.034323 0.144588 0.017633
   vertex -0.027276 0.139073 0.010789
  endloop
 endfacet
 facet normal 0.854152 0.392173 -0.341503
  outer loop
   vertex -0.026287 0.142789 0.01753
   vertex -0.027276 0.139073 0.010789
   vertex -0.033094 0.145649 0.003789
  endloop
 endfacet
 facet normal 0.799627 -0.425219 0.424011
  outer loop
   vertex -0.027717 0.14979 0.025716
   vertex -0.031724 0.149211 0.032692
   vertex -0.032122 0.145499 0.02972
  endloop
 endfacet
 facet normal 0.795423 -0.36534 0.483559
  outer loop
   vertex -0.027717 0.14979 0.025716
   vertex -0.032122 0.145499 0.02972
   vertex -0.030411 0.143505 0.025399
  endloop
 endfacet
 facet normal 0.617939 0.670496 0.410593
  outer loop
   vertex -0.030584 0.155646 0.020468
   vertex -0.031724 0.149211 0.032692
   vertex -0.027717 0.14979 0.025716
  endloop
 endfacet
 facet normal 0.948246 0.307183 -0.0804174
  outer loop
   vertex -0.032886 0.144015 0
   vertex -0.033094 0.145649 0.003789
   vertex -0.029114 0.133738 0.005221
  endloop
 endfacet
 facet normal -0.00929604 0.918027 -0.396408
  outer loop
   vertex -0.033094 0.145649 0.003789
   vertex -0.032886 0.144015 0
   vertex -0.04207 0.143922 0
  endloop
 endfacet
 facet normal 0.183658 0.654516 -0.733402
  outer loop
   vertex -0.033094 0.145649 0.003789
   vertex -0.04207 0.143922 0
   vertex -0.037162 0.151388 0.007892
  endloop
 endfacet
 facet normal 0.842237 0.222386 -0.491103
  outer loop
   vertex -0.027276 0.139073 0.010789
   vertex -0.029114 0.133738 0.005221
   vertex -0.033094 0.145649 0.003789
  endloop
 endfacet
 facet normal -0.100517 0.530508 -0.841699
  outer loop
   vertex -0.033094 0.145649 0.003789
   vertex -0.037162 0.151388 0.007892
   vertex -0.029415 0.158044 0.011162
  endloop
 endfacet
 facet normal 0.918663 0.386998 -0.0793125
  outer loop
   vertex 0.004322 0.166982 -0.01121
   vertex 0.002299 0.171742 -0.011416
   vertex 0.003031 0.172344 0
  endloop
 endfacet
 facet normal 0.935013 0.349581 -0.0595319
  outer loop
   vertex 0.00478 0.167666 0
   vertex 0.004322 0.166982 -0.01121
   vertex 0.003031 0.172344 0
  endloop
 endfacet
 facet normal 0.756206 0.296135 -0.583486
  outer loop
   vertex 0.002299 0.171742 -0.011416
   vertex 0.004322 0.166982 -0.01121
   vertex -0.000682 0.164358 -0.019027
  endloop
 endfacet
 facet normal 0.935013 0.349581 0.0595319
  outer loop
   vertex 0.003031 0.172344 0
   vertex 0.004322 0.166982 0.01121
   vertex 0.00478 0.167666 0
  endloop
 endfacet
 facet normal 0.918663 0.386998 0.0793125
  outer loop
   vertex 0.003031 0.172344 0
   vertex 0.002299 0.171742 0.011416
   vertex 0.004322 0.166982 0.01121
  endloop
 endfacet
 facet normal 0.756206 0.296135 0.583486
  outer loop
   vertex -0.000682 0.164358 0.019027
   vertex 0.004322 0.166982 0.01121
   vertex 0.002299 0.171742 0.011416
  endloop
 endfacet
 facet normal 0.781974 0.265557 -0.563912
  outer loop
   vertex -0.002591 0.169423 -0.019289
   vertex 0.002299 0.171742 -0.011416
   vertex -0.000682 0.164358 -0.019027
  endloop
 endfacet
 facet normal 0.406694 0.0460616 -0.912402
  outer loop
   vertex -0.000682 0.164358 -0.019027
   vertex -0.006557 0.161203 -0.021805
   vertex -0.009547 0.166705 -0.02286
  endloop
 endfacet
 facet normal 0.419087 0.111343 -0.901093
  outer loop
   vertex -0.002591 0.169423 -0.019289
   vertex -0.000682 0.164358 -0.019027
   vertex -0.009547 0.166705 -0.02286
  endloop
 endfacet
 facet normal 0.106412 0.0435291 -0.993369
  outer loop
   vertex -0.006557 0.161203 -0.021805
   vertex -0.015641 0.159197 -0.022866
   vertex -0.018303 0.162464 -0.023008
  endloop
 endfacet
 facet normal 0.0856927 -0.14251 -0.986077
  outer loop
   vertex -0.009547 0.166705 -0.02286
   vertex -0.006557 0.161203 -0.021805
   vertex -0.018303 0.162464 -0.023008
  endloop
 endfacet
 facet normal 0.49468 0.741346 -0.45354
  outer loop
   vertex -0.029289 0.160203 -0.008549
   vertex -0.030953 0.157702 -0.014452
   vertex -0.038799 0.161742 -0.016406
  endloop
 endfacet
 facet normal -0.225478 0.86776 0.44289
  outer loop
   vertex -0.038799 0.161742 -0.016406
   vertex -0.037743 0.1589 -0.0103
   vertex -0.029289 0.160203 -0.008549
  endloop
 endfacet
 facet normal -0.2359 0.280047 0.930551
  outer loop
   vertex -0.037743 0.1589 -0.0103
   vertex -0.037162 0.151388 -0.007892
   vertex -0.029289 0.160203 -0.008549
  endloop
 endfacet
 facet normal 0.684277 -0.578017 0.444592
  outer loop
   vertex -0.029415 0.158044 -0.011162
   vertex -0.029289 0.160203 -0.008549
   vertex -0.037162 0.151388 -0.007892
  endloop
 endfacet
 facet normal -0.37634 0.918961 0.117807
  outer loop
   vertex -0.012145 0.166128 0
   vertex -0.029289 0.160203 -0.008549
   vertex -0.027321 0.159913 0
  endloop
 endfacet
 facet normal -0.308261 0.950438 -0.0405341
  outer loop
   vertex -0.012145 0.166128 0
   vertex -0.027233 0.160486 -0.017549
   vertex -0.029289 0.160203 -0.008549
  endloop
 endfacet
 facet normal -0.66015 0.740228 -0.127531
  outer loop
   vertex -0.029289 0.160203 -0.008549
   vertex -0.027233 0.160486 -0.017549
   vertex -0.030953 0.157702 -0.014452
  endloop
 endfacet
 facet normal -0.37634 0.918961 -0.117807
  outer loop
   vertex -0.027321 0.159913 0
   vertex -0.029289 0.160203 0.008549
   vertex -0.012145 0.166128 0
  endloop
 endfacet
 facet normal 0.49468 0.741346 0.45354
  outer loop
   vertex -0.038799 0.161742 0.016406
   vertex -0.030953 0.157702 0.014452
   vertex -0.029289 0.160203 0.008549
  endloop
 endfacet
 facet normal -0.225478 0.86776 -0.44289
  outer loop
   vertex -0.029289 0.160203 0.008549
   vertex -0.037743 0.1589 0.0103
   vertex -0.038799 0.161742 0.016406
  endloop
 endfacet
 facet normal -0.2359 0.280047 -0.930551
  outer loop
   vertex -0.029289 0.160203 0.008549
   vertex -0.037162 0.151388 0.007892
   vertex -0.037743 0.1589 0.0103
  endloop
 endfacet
 facet normal 0.684277 -0.578017 -0.444592
  outer loop
   vertex -0.037162 0.151388 0.007892
   vertex -0.029289 0.160203 0.008549
   vertex -0.029415 0.158044 0.011162
  endloop
 endfacet
 facet normal -0.308261 0.950438 0.0405341
  outer loop
   vertex -0.029289 0.160203 0.008549
   vertex -0.027233 0.160486 0.017549
   vertex -0.012145 0.166128 0
  endloop
 endfacet
 facet normal -0.66015 0.740228 0.127531
  outer loop
   vertex -0.030953 0.157702 0.014452
   vertex -0.027233 0.160486 0.017549
   vertex -0.029289 0.160203 0.008549
  endloop
 endfacet
 facet normal -0.2217 -0.221917 -0.949527
  outer loop
   vertex -0.015641 0.159197 -0.022866
   vertex -0.02391 0.156975 -0.020416
   vertex -0.018303 0.162464 -0.023008
  endloop
 endfacet
 facet normal -0.106445 0.566517 -0.817146
  outer loop
   vertex -0.02391 0.156975 -0.020416
   vertex -0.030584 0.155646 -0.020468
   vertex -0.027233 0.160486 -0.017549
  endloop
 endfacet
 facet normal -0.540587 0.162412 -0.825462
  outer loop
   vertex -0.02391 0.156975 -0.020416
   vertex -0.027233 0.160486 -0.017549
   vertex -0.018303 0.162464 -0.023008
  endloop
 endfacet
 facet normal -0.709796 0.652092 -0.266393
  outer loop
   vertex -0.030584 0.155646 -0.020468
   vertex -0.030953 0.157702 -0.014452
   vertex -0.027233 0.160486 -0.017549
  endloop
 endfacet
 facet normal 0.543673 0.720715 -0.430103
  outer loop
   vertex -0.031724 0.149211 -0.032692
   vertex -0.035699 0.154309 -0.029174
   vertex -0.030584 0.155646 -0.020468
  endloop
 endfacet
 facet normal 0.315779 0.892321 -0.322563
  outer loop
   vertex -0.035676 0.158026 -0.018869
   vertex -0.030584 0.155646 -0.020468
   vertex -0.035699 0.154309 -0.029174
  endloop
 endfacet
 facet normal 0.330151 0.899219 -0.287063
  outer loop
   vertex -0.030953 0.157702 -0.014452
   vertex -0.030584 0.155646 -0.020468
   vertex -0.035676 0.158026 -0.018869
  endloop
 endfacet
 facet normal -0.518617 -0.133504 -0.844519
  outer loop
   vertex -0.034323 0.144588 -0.017633
   vertex -0.035125 0.136608 -0.015879
   vertex -0.039023 0.133336 -0.012968
  endloop
 endfacet
 facet normal -0.138042 -0.861305 -0.488977
  outer loop
   vertex -0.037414 0.148551 -0.023741
   vertex -0.034323 0.144588 -0.017633
   vertex -0.043138 0.148283 -0.021653
  endloop
 endfacet
 facet normal -0.297345 -0.932484 -0.205085
  outer loop
   vertex -0.034323 0.144588 -0.017633
   vertex -0.043227 0.146747 -0.01454
   vertex -0.043138 0.148283 -0.021653
  endloop
 endfacet
 facet normal 0.579339 -0.230094 -0.781936
  outer loop
   vertex -0.027276 0.139073 -0.010789
   vertex -0.035125 0.136608 -0.015879
   vertex -0.034323 0.144588 -0.017633
  endloop
 endfacet
 facet normal -0.602799 -0.0774476 -0.794126
  outer loop
   vertex -0.039023 0.133336 -0.012968
   vertex -0.040611 0.146024 -0.013
   vertex -0.034323 0.144588 -0.017633
  endloop
 endfacet
 facet normal -0.24699 -0.968383 -0.0350675
  outer loop
   vertex -0.040611 0.146024 -0.013
   vertex -0.043227 0.146747 -0.01454
   vertex -0.034323 0.144588 -0.017633
  endloop
 endfacet
 facet normal -0.344867 0.0778935 -0.935414
  outer loop
   vertex -0.037414 0.148551 -0.023741
   vertex -0.043138 0.148283 -0.021653
   vertex -0.045585 0.157552 -0.019979
  endloop
 endfacet
 facet normal -0.522495 -0.497647 -0.692349
  outer loop
   vertex -0.035699 0.154309 -0.029174
   vertex -0.030411 0.143505 -0.025399
   vertex -0.037414 0.148551 -0.023741
  endloop
 endfacet
 facet normal -0.905332 -0.115879 -0.408591
  outer loop
   vertex -0.035699 0.154309 -0.029174
   vertex -0.037414 0.148551 -0.023741
   vertex -0.039093 0.154948 -0.021835
  endloop
 endfacet
 facet normal -0.177572 0.237913 -0.954917
  outer loop
   vertex -0.039093 0.154948 -0.021835
   vertex -0.037414 0.148551 -0.023741
   vertex -0.045585 0.157552 -0.019979
  endloop
 endfacet
 facet normal -0.906717 -0.379538 0.183892
  outer loop
   vertex -0.035699 0.154309 -0.029174
   vertex -0.032122 0.145499 -0.02972
   vertex -0.030411 0.143505 -0.025399
  endloop
 endfacet
 facet normal 0.927805 0.0639497 0.367543
  outer loop
   vertex -0.026197 0.132097 -0.012299
   vertex -0.027276 0.139073 -0.010789
   vertex -0.029114 0.133738 -0.005221
  endloop
 endfacet
 facet normal 0.345216 0.24925 -0.904821
  outer loop
   vertex -0.027276 0.139073 -0.010789
   vertex -0.026197 0.132097 -0.012299
   vertex -0.037628 0.129045 -0.017501
  endloop
 endfacet
 facet normal 0.54413 -0.000144919 -0.839001
  outer loop
   vertex -0.035125 0.136608 -0.015879
   vertex -0.027276 0.139073 -0.010789
   vertex -0.037628 0.129045 -0.017501
  endloop
 endfacet
 facet normal 0.435252 -0.720921 -0.539284
  outer loop
   vertex -0.032122 0.145499 -0.02972
   vertex -0.036608 0.14523 -0.032981
   vertex -0.035666 0.148182 -0.036167
  endloop
 endfacet
 facet normal 0.636509 -0.522482 -0.567335
  outer loop
   vertex -0.031724 0.149211 -0.032692
   vertex -0.032122 0.145499 -0.02972
   vertex -0.035666 0.148182 -0.036167
  endloop
 endfacet
 facet normal -0.568372 -0.199137 0.798309
  outer loop
   vertex -0.032122 0.145499 -0.02972
   vertex -0.039803 0.152493 -0.033444
   vertex -0.036608 0.14523 -0.032981
  endloop
 endfacet
 facet normal -0.622006 -0.297434 0.724322
  outer loop
   vertex -0.035699 0.154309 -0.029174
   vertex -0.039803 0.152493 -0.033444
   vertex -0.032122 0.145499 -0.02972
  endloop
 endfacet
 facet normal 0.358036 0.703119 -0.614356
  outer loop
   vertex -0.031724 0.149211 -0.032692
   vertex -0.035666 0.148182 -0.036167
   vertex -0.035699 0.154309 -0.029174
  endloop
 endfacet
 facet normal 0.837215 0.0550753 0.544094
  outer loop
   vertex -0.027686 0.128173 -0.006855
   vertex -0.029114 0.133738 -0.005221
   vertex -0.032506 0.133722 0
  endloop
 endfacet
 facet normal 0.83812 0.0309418 0.544608
  outer loop
   vertex -0.032506 0.133722 0
   vertex -0.029114 0.133738 -0.005221
   vertex -0.032886 0.144015 0
  endloop
 endfacet
 facet normal 0.926741 0.134842 0.350668
  outer loop
   vertex -0.027686 0.128173 -0.006855
   vertex -0.026197 0.132097 -0.012299
   vertex -0.029114 0.133738 -0.005221
  endloop
 endfacet
 facet normal 0.83812 0.0309418 -0.544608
  outer loop
   vertex -0.032886 0.144015 0
   vertex -0.029114 0.133738 0.005221
   vertex -0.032506 0.133722 0
  endloop
 endfacet
 facet normal -0.836508 0.420071 -0.351845
  outer loop
   vertex -0.04207 0.143922 0
   vertex -0.042053 0.139716 -0.005062
   vertex -0.049006 0.13011 0
  endloop
 endfacet
 facet normal -0.496537 0.666807 -0.555715
  outer loop
   vertex -0.037857 0.139977 -0.008498
   vertex -0.042053 0.139716 -0.005062
   vertex -0.04207 0.143922 0
  endloop
 endfacet
 facet normal -0.889514 -0.368737 -0.269811
  outer loop
   vertex -0.039137 0.144646 -0.010659
   vertex -0.037857 0.139977 -0.008498
   vertex -0.04207 0.143922 0
  endloop
 endfacet
 facet normal -0.906252 0.357846 -0.225064
  outer loop
   vertex -0.04207 0.143922 0
   vertex -0.037162 0.151388 -0.007892
   vertex -0.039137 0.144646 -0.010659
  endloop
 endfacet
 facet normal -0.836508 0.420071 0.351845
  outer loop
   vertex -0.049006 0.13011 0
   vertex -0.042053 0.139716 0.005062
   vertex -0.04207 0.143922 0
  endloop
 endfacet
 facet normal -0.496537 0.666807 0.555715
  outer loop
   vertex -0.04207 0.143922 0
   vertex -0.042053 0.139716 0.005062
   vertex -0.037857 0.139977 0.008498
  endloop
 endfacet
 facet normal -0.889514 -0.368737 0.269811
  outer loop
   vertex -0.04207 0.143922 0
   vertex -0.037857 0.139977 0.008498
   vertex -0.039137 0.144646 0.010659
  endloop
 endfacet
 facet normal -0.906252 0.357846 0.225064
  outer loop
   vertex -0.039137 0.144646 0.010659
   vertex -0.037162 0.151388 0.007892
   vertex -0.04207 0.143922 0
  endloop
 endfacet
 facet normal -0.937232 0.14426 0.317467
  outer loop
   vertex -0.037162 0.151388 -0.007892
   vertex -0.038402 0.151558 -0.01163
   vertex -0.039137 0.144646 -0.010659
  endloop
 endfacet
 facet normal -0.94839 0.0279043 0.315877
  outer loop
   vertex -0.037743 0.1589 -0.0103
   vertex -0.038402 0.151558 -0.01163
   vertex -0.037162 0.151388 -0.007892
  endloop
 endfacet
 facet normal 0.781974 0.265557 0.563912
  outer loop
   vertex -0.000682 0.164358 0.019027
   vertex 0.002299 0.171742 0.011416
   vertex -0.002591 0.169423 0.019289
  endloop
 endfacet
 facet normal 0.406694 0.0460616 0.912402
  outer loop
   vertex -0.009547 0.166705 0.02286
   vertex -0.006557 0.161203 0.021805
   vertex -0.000682 0.164358 0.019027
  endloop
 endfacet
 facet normal 0.419087 0.111343 0.901093
  outer loop
   vertex -0.009547 0.166705 0.02286
   vertex -0.000682 0.164358 0.019027
   vertex -0.002591 0.169423 0.019289
  endloop
 endfacet
 facet normal 0.106412 0.0435291 0.993369
  outer loop
   vertex -0.018303 0.162464 0.023008
   vertex -0.015641 0.159197 0.022866
   vertex -0.006557 0.161203 0.021805
  endloop
 endfacet
 facet normal 0.0856927 -0.14251 0.986077
  outer loop
   vertex -0.018303 0.162464 0.023008
   vertex -0.006557 0.161203 0.021805
   vertex -0.009547 0.166705 0.02286
  endloop
 endfacet
 facet normal -0.2217 -0.221917 0.949527
  outer loop
   vertex -0.018303 0.162464 0.023008
   vertex -0.02391 0.156975 0.020416
   vertex -0.015641 0.159197 0.022866
  endloop
 endfacet
 facet normal -0.106445 0.566517 0.817146
  outer loop
   vertex -0.027233 0.160486 0.017549
   vertex -0.030584 0.155646 0.020468
   vertex -0.02391 0.156975 0.020416
  endloop
 endfacet
 facet normal -0.540587 0.162412 0.825462
  outer loop
   vertex -0.018303 0.162464 0.023008
   vertex -0.027233 0.160486 0.017549
   vertex -0.02391 0.156975 0.020416
  endloop
 endfacet
 facet normal -0.709796 0.652092 0.266393
  outer loop
   vertex -0.027233 0.160486 0.017549
   vertex -0.030953 0.157702 0.014452
   vertex -0.030584 0.155646 0.020468
  endloop
 endfacet
 facet normal 0.543673 0.720715 0.430103
  outer loop
   vertex -0.030584 0.155646 0.020468
   vertex -0.035699 0.154309 0.029174
   vertex -0.031724 0.149211 0.032692
  endloop
 endfacet
 facet normal 0.315779 0.892321 0.322563
  outer loop
   vertex -0.035699 0.154309 0.029174
   vertex -0.030584 0.155646 0.020468
   vertex -0.035676 0.158026 0.018869
  endloop
 endfacet
 facet normal 0.330151 0.899219 0.287063
  outer loop
   vertex -0.035676 0.158026 0.018869
   vertex -0.030584 0.155646 0.020468
   vertex -0.030953 0.157702 0.014452
  endloop
 endfacet
 facet normal -0.344867 0.0778935 0.935414
  outer loop
   vertex -0.045585 0.157552 0.019979
   vertex -0.043138 0.148283 0.021653
   vertex -0.037414 0.148551 0.023741
  endloop
 endfacet
 facet normal -0.138042 -0.861305 0.488977
  outer loop
   vertex -0.043138 0.148283 0.021653
   vertex -0.034323 0.144588 0.017633
   vertex -0.037414 0.148551 0.023741
  endloop
 endfacet
 facet normal -0.522495 -0.497647 0.692349
  outer loop
   vertex -0.037414 0.148551 0.023741
   vertex -0.030411 0.143505 0.025399
   vertex -0.035699 0.154309 0.029174
  endloop
 endfacet
 facet normal -0.905332 -0.115879 0.408591
  outer loop
   vertex -0.039093 0.154948 0.021835
   vertex -0.037414 0.148551 0.023741
   vertex -0.035699 0.154309 0.029174
  endloop
 endfacet
 facet normal -0.177572 0.237913 0.954917
  outer loop
   vertex -0.045585 0.157552 0.019979
   vertex -0.037414 0.148551 0.023741
   vertex -0.039093 0.154948 0.021835
  endloop
 endfacet
 facet normal -0.518617 -0.133504 0.844519
  outer loop
   vertex -0.039023 0.133336 0.012968
   vertex -0.035125 0.136608 0.015879
   vertex -0.034323 0.144588 0.017633
  endloop
 endfacet
 facet normal -0.297345 -0.932484 0.205085
  outer loop
   vertex -0.043138 0.148283 0.021653
   vertex -0.043227 0.146747 0.01454
   vertex -0.034323 0.144588 0.017633
  endloop
 endfacet
 facet normal 0.579339 -0.230094 0.781936
  outer loop
   vertex -0.034323 0.144588 0.017633
   vertex -0.035125 0.136608 0.015879
   vertex -0.027276 0.139073 0.010789
  endloop
 endfacet
 facet normal -0.602799 -0.0774476 0.794126
  outer loop
   vertex -0.034323 0.144588 0.017633
   vertex -0.040611 0.146024 0.013
   vertex -0.039023 0.133336 0.012968
  endloop
 endfacet
 facet normal -0.24699 -0.968383 0.0350675
  outer loop
   vertex -0.034323 0.144588 0.017633
   vertex -0.043227 0.146747 0.01454
   vertex -0.040611 0.146024 0.013
  endloop
 endfacet
 facet normal -0.906717 -0.379538 -0.183892
  outer loop
   vertex -0.030411 0.143505 0.025399
   vertex -0.032122 0.145499 0.02972
   vertex -0.035699 0.154309 0.029174
  endloop
 endfacet
 facet normal 0.927805 0.0639497 -0.367543
  outer loop
   vertex -0.029114 0.133738 0.005221
   vertex -0.027276 0.139073 0.010789
   vertex -0.026197 0.132097 0.012299
  endloop
 endfacet
 facet normal 0.345216 0.24925 0.904821
  outer loop
   vertex -0.037628 0.129045 0.017501
   vertex -0.026197 0.132097 0.012299
   vertex -0.027276 0.139073 0.010789
  endloop
 endfacet
 facet normal 0.54413 -0.000144919 0.839001
  outer loop
   vertex -0.037628 0.129045 0.017501
   vertex -0.027276 0.139073 0.010789
   vertex -0.035125 0.136608 0.015879
  endloop
 endfacet
 facet normal 0.358036 0.703119 0.614356
  outer loop
   vertex -0.035699 0.154309 0.029174
   vertex -0.035666 0.148182 0.036167
   vertex -0.031724 0.149211 0.032692
  endloop
 endfacet
 facet normal 0.636509 -0.522482 0.567335
  outer loop
   vertex -0.035666 0.148182 0.036167
   vertex -0.032122 0.145499 0.02972
   vertex -0.031724 0.149211 0.032692
  endloop
 endfacet
 facet normal 0.435252 -0.720921 0.539284
  outer loop
   vertex -0.035666 0.148182 0.036167
   vertex -0.036608 0.14523 0.032981
   vertex -0.032122 0.145499 0.02972
  endloop
 endfacet
 facet normal -0.568372 -0.199137 -0.798309
  outer loop
   vertex -0.036608 0.14523 0.032981
   vertex -0.039803 0.152493 0.033444
   vertex -0.032122 0.145499 0.02972
  endloop
 endfacet
 facet normal -0.622006 -0.297434 -0.724322
  outer loop
   vertex -0.032122 0.145499 0.02972
   vertex -0.039803 0.152493 0.033444
   vertex -0.035699 0.154309 0.029174
  endloop
 endfacet
 facet normal 0.837215 0.0550753 -0.544094
  outer loop
   vertex -0.032506 0.133722 0
   vertex -0.029114 0.133738 0.005221
   vertex -0.027686 0.128173 0.006855
  endloop
 endfacet
 facet normal 0.926741 0.134842 -0.350668
  outer loop
   vertex -0.029114 0.133738 0.005221
   vertex -0.026197 0.132097 0.012299
   vertex -0.027686 0.128173 0.006855
  endloop
 endfacet
 facet normal -0.937232 0.14426 -0.317467
  outer loop
   vertex -0.039137 0.144646 0.010659
   vertex -0.038402 0.151558 0.01163
   vertex -0.037162 0.151388 0.007892
  endloop
 endfacet
 facet normal -0.94839 0.0279043 -0.315877
  outer loop
   vertex -0.037162 0.151388 0.007892
   vertex -0.038402 0.151558 0.01163
   vertex -0.037743 0.1589 0.0103
  endloop
 endfacet
 facet normal -0.384549 0.922519 -0.0328827
  outer loop
   vertex -0.012145 0.166128 0
   vertex 0.002299 0.171742 -0.011416
   vertex -0.002591 0.169423 -0.019289
  endloop
 endfacet
 facet normal -0.378918 0.925106 -0.0244865
  outer loop
   vertex -0.012145 0.166128 0
   vertex 0.003031 0.172344 0
   vertex 0.002299 0.171742 -0.011416
  endloop
 endfacet
 facet normal -0.378918 0.925106 0.0244865
  outer loop
   vertex 0.002299 0.171742 0.011416
   vertex 0.003031 0.172344 0
   vertex -0.012145 0.166128 0
  endloop
 endfacet
 facet normal -0.384549 0.922519 0.0328827
  outer loop
   vertex -0.002591 0.169423 0.019289
   vertex 0.002299 0.171742 0.011416
   vertex -0.012145 0.166128 0
  endloop
 endfacet
 facet normal -0.356346 0.934201 -0.0169182
  outer loop
   vertex -0.012145 0.166128 0
   vertex -0.002591 0.169423 -0.019289
   vertex -0.009547 0.166705 -0.02286
  endloop
 endfacet
 facet normal -0.435391 0.899844 -0.0267687
  outer loop
   vertex -0.012145 0.166128 0
   vertex -0.009547 0.166705 -0.02286
   vertex -0.018303 0.162464 -0.023008
  endloop
 endfacet
 facet normal -0.263373 0.961154 -0.0825722
  outer loop
   vertex -0.012145 0.166128 0
   vertex -0.018303 0.162464 -0.023008
   vertex -0.027233 0.160486 -0.017549
  endloop
 endfacet
 facet normal 0.493514 0.729078 -0.474224
  outer loop
   vertex -0.035676 0.158026 -0.018869
   vertex -0.038799 0.161742 -0.016406
   vertex -0.030953 0.157702 -0.014452
  endloop
 endfacet
 facet normal 0.062309 0.587253 -0.807002
  outer loop
   vertex -0.038799 0.161742 -0.016406
   vertex -0.035676 0.158026 -0.018869
   vertex -0.045585 0.157552 -0.019979
  endloop
 endfacet
 facet normal -0.61447 0.719846 0.322877
  outer loop
   vertex -0.038799 0.161742 -0.016406
   vertex -0.045585 0.157552 -0.019979
   vertex -0.050203 0.152159 -0.016744
  endloop
 endfacet
 facet normal -0.299186 0.324388 0.897363
  outer loop
   vertex -0.042873 0.152095 -0.014277
   vertex -0.038799 0.161742 -0.016406
   vertex -0.050203 0.152159 -0.016744
  endloop
 endfacet
 facet normal -0.440878 0.366959 0.819126
  outer loop
   vertex -0.042873 0.152095 -0.014277
   vertex -0.038402 0.151558 -0.01163
   vertex -0.038799 0.161742 -0.016406
  endloop
 endfacet
 facet normal -0.979584 0.0527853 0.193983
  outer loop
   vertex -0.037743 0.1589 -0.0103
   vertex -0.038799 0.161742 -0.016406
   vertex -0.038402 0.151558 -0.01163
  endloop
 endfacet
 facet normal -0.356346 0.934201 0.0169182
  outer loop
   vertex -0.009547 0.166705 0.02286
   vertex -0.002591 0.169423 0.019289
   vertex -0.012145 0.166128 0
  endloop
 endfacet
 facet normal -0.435391 0.899844 0.0267687
  outer loop
   vertex -0.018303 0.162464 0.023008
   vertex -0.009547 0.166705 0.02286
   vertex -0.012145 0.166128 0
  endloop
 endfacet
 facet normal -0.263373 0.961154 0.0825722
  outer loop
   vertex -0.027233 0.160486 0.017549
   vertex -0.018303 0.162464 0.023008
   vertex -0.012145 0.166128 0
  endloop
 endfacet
 facet normal 0.493514 0.729078 0.474224
  outer loop
   vertex -0.030953 0.157702 0.014452
   vertex -0.038799 0.161742 0.016406
   vertex -0.035676 0.158026 0.018869
  endloop
 endfacet
 facet normal 0.062309 0.587253 0.807002
  outer loop
   vertex -0.045585 0.157552 0.019979
   vertex -0.035676 0.158026 0.018869
   vertex -0.038799 0.161742 0.016406
  endloop
 endfacet
 facet normal -0.61447 0.719846 -0.322877
  outer loop
   vertex -0.050203 0.152159 0.016744
   vertex -0.045585 0.157552 0.019979
   vertex -0.038799 0.161742 0.016406
  endloop
 endfacet
 facet normal -0.299186 0.324388 -0.897363
  outer loop
   vertex -0.050203 0.152159 0.016744
   vertex -0.038799 0.161742 0.016406
   vertex -0.042873 0.152095 0.014277
  endloop
 endfacet
 facet normal -0.440878 0.366959 -0.819126
  outer loop
   vertex -0.038799 0.161742 0.016406
   vertex -0.038402 0.151558 0.01163
   vertex -0.042873 0.152095 0.014277
  endloop
 endfacet
 facet normal -0.979584 0.0527853 -0.193983
  outer loop
   vertex -0.038402 0.151558 0.01163
   vertex -0.038799 0.161742 0.016406
   vertex -0.037743 0.1589 0.0103
  endloop
 endfacet
 facet normal 0.331606 0.710361 -0.620826
  outer loop
   vertex -0.035666 0.148182 -0.036167
   vertex -0.039803 0.152493 -0.033444
   vertex -0.035699 0.154309 -0.029174
  endloop
 endfacet
 facet normal -0.484697 0.823139 -0.295823
  outer loop
   vertex -0.039093 0.154948 -0.021835
   vertex -0.035676 0.158026 -0.018869
   vertex -0.035699 0.154309 -0.029174
  endloop
 endfacet
 facet normal 0.0520325 0.662392 -0.747349
  outer loop
   vertex -0.035676 0.158026 -0.018869
   vertex -0.039093 0.154948 -0.021835
   vertex -0.045585 0.157552 -0.019979
  endloop
 endfacet
 facet normal -0.734172 0.365668 -0.572083
  outer loop
   vertex -0.039023 0.133336 -0.012968
   vertex -0.035125 0.136608 -0.015879
   vertex -0.037628 0.129045 -0.017501
  endloop
 endfacet
 facet normal -0.608957 -0.233243 -0.758135
  outer loop
   vertex -0.039404 0.124547 -0.009958
   vertex -0.040575 0.129444 -0.010524
   vertex -0.039023 0.133336 -0.012968
  endloop
 endfacet
 facet normal -0.895795 -0.108758 -0.430955
  outer loop
   vertex -0.035585 0.122002 -0.017254
   vertex -0.039404 0.124547 -0.009958
   vertex -0.039023 0.133336 -0.012968
  endloop
 endfacet
 facet normal -0.959665 -0.279455 -0.0307951
  outer loop
   vertex -0.037628 0.129045 -0.017501
   vertex -0.035585 0.122002 -0.017254
   vertex -0.039023 0.133336 -0.012968
  endloop
 endfacet
 facet normal -0.943586 0.221981 -0.245703
  outer loop
   vertex -0.039505 0.135605 -0.009067
   vertex -0.039023 0.133336 -0.012968
   vertex -0.040575 0.129444 -0.010524
  endloop
 endfacet
 facet normal -0.990991 -0.124156 -0.0502294
  outer loop
   vertex -0.039023 0.133336 -0.012968
   vertex -0.039505 0.135605 -0.009067
   vertex -0.040611 0.146024 -0.013
  endloop
 endfacet
 facet normal 0.240554 0.23365 -0.942094
  outer loop
   vertex -0.043138 0.148283 -0.021653
   vertex -0.047937 0.151236 -0.022146
   vertex -0.045585 0.157552 -0.019979
  endloop
 endfacet
 facet normal -0.396114 -0.735502 -0.549664
  outer loop
   vertex -0.049034 0.148132 -0.017202
   vertex -0.047937 0.151236 -0.022146
   vertex -0.043138 0.148283 -0.021653
  endloop
 endfacet
 facet normal -0.134316 -0.968264 -0.210772
  outer loop
   vertex -0.049034 0.148132 -0.017202
   vertex -0.043138 0.148283 -0.021653
   vertex -0.043227 0.146747 -0.01454
  endloop
 endfacet
 facet normal -0.450232 -0.228858 0.863085
  outer loop
   vertex -0.050203 0.152159 -0.016744
   vertex -0.049034 0.148132 -0.017202
   vertex -0.043227 0.146747 -0.01454
  endloop
 endfacet
 facet normal -0.319077 -0.0254692 0.947387
  outer loop
   vertex -0.042873 0.152095 -0.014277
   vertex -0.050203 0.152159 -0.016744
   vertex -0.043227 0.146747 -0.01454
  endloop
 endfacet
 facet normal -0.509283 -0.0097469 0.860544
  outer loop
   vertex -0.043227 0.146747 -0.01454
   vertex -0.040611 0.146024 -0.013
   vertex -0.038402 0.151558 -0.01163
  endloop
 endfacet
 facet normal -0.510188 -0.00852261 0.860021
  outer loop
   vertex -0.042873 0.152095 -0.014277
   vertex -0.043227 0.146747 -0.01454
   vertex -0.038402 0.151558 -0.01163
  endloop
 endfacet
 facet normal -0.786992 0.167117 0.593898
  outer loop
   vertex -0.038402 0.151558 -0.01163
   vertex -0.040611 0.146024 -0.013
   vertex -0.039137 0.144646 -0.010659
  endloop
 endfacet
 facet normal -0.712519 0.18033 0.678084
  outer loop
   vertex -0.037857 0.139977 -0.008498
   vertex -0.040611 0.146024 -0.013
   vertex -0.039505 0.135605 -0.009067
  endloop
 endfacet
 facet normal -0.840718 0.019964 0.541106
  outer loop
   vertex -0.039137 0.144646 -0.010659
   vertex -0.040611 0.146024 -0.013
   vertex -0.037857 0.139977 -0.008498
  endloop
 endfacet
 facet normal -0.799573 0.438534 -0.41033
  outer loop
   vertex -0.050203 0.152159 -0.016744
   vertex -0.045585 0.157552 -0.019979
   vertex -0.047937 0.151236 -0.022146
  endloop
 endfacet
 facet normal 0.394905 0.0807729 -0.915164
  outer loop
   vertex -0.026197 0.132097 -0.012299
   vertex -0.026781 0.119464 -0.013666
   vertex -0.037628 0.129045 -0.017501
  endloop
 endfacet
 facet normal 0.973773 -0.0684936 0.216969
  outer loop
   vertex -0.027686 0.128173 -0.006855
   vertex -0.026781 0.119464 -0.013666
   vertex -0.026197 0.132097 -0.012299
  endloop
 endfacet
 facet normal 0.396518 0.0829563 -0.914271
  outer loop
   vertex -0.026781 0.119464 -0.013666
   vertex -0.035585 0.122002 -0.017254
   vertex -0.037628 0.129045 -0.017501
  endloop
 endfacet
 facet normal -0.746119 -0.363767 -0.557655
  outer loop
   vertex -0.036608 0.14523 -0.032981
   vertex -0.039803 0.152493 -0.033444
   vertex -0.035666 0.148182 -0.036167
  endloop
 endfacet
 facet normal 0.743792 -0.156653 0.649795
  outer loop
   vertex -0.029632 0.124782 -0.005445
   vertex -0.027686 0.128173 -0.006855
   vertex -0.032506 0.133722 0
  endloop
 endfacet
 facet normal 0.834839 -0.282675 0.472375
  outer loop
   vertex -0.029632 0.124782 -0.005445
   vertex -0.026781 0.119464 -0.013666
   vertex -0.027686 0.128173 -0.006855
  endloop
 endfacet
 facet normal 0.779067 -0.123866 0.614583
  outer loop
   vertex -0.033542 0.127206 0
   vertex -0.029632 0.124782 -0.005445
   vertex -0.032506 0.133722 0
  endloop
 endfacet
 facet normal 0.743792 -0.156653 -0.649795
  outer loop
   vertex -0.032506 0.133722 0
   vertex -0.027686 0.128173 0.006855
   vertex -0.029632 0.124782 0.005445
  endloop
 endfacet
 facet normal 0.779067 -0.123866 -0.614583
  outer loop
   vertex -0.032506 0.133722 0
   vertex -0.029632 0.124782 0.005445
   vertex -0.033542 0.127206 0
  endloop
 endfacet
 facet normal -0.77558 0.257721 -0.576243
  outer loop
   vertex -0.049006 0.13011 0
   vertex -0.042053 0.139716 -0.005062
   vertex -0.044601 0.13381 -0.004274
  endloop
 endfacet
 facet normal -0.63057 0.171036 -0.757052
  outer loop
   vertex -0.042053 0.139716 -0.005062
   vertex -0.037857 0.139977 -0.008498
   vertex -0.044601 0.13381 -0.004274
  endloop
 endfacet
 facet normal -0.335887 0.810501 -0.479863
  outer loop
   vertex -0.04654 0.128669 -0.00416
   vertex -0.057273 0.126684 0
   vertex -0.049006 0.13011 0
  endloop
 endfacet
 facet normal -0.779466 0.281577 -0.559595
  outer loop
   vertex -0.044601 0.13381 -0.004274
   vertex -0.04654 0.128669 -0.00416
   vertex -0.049006 0.13011 0
  endloop
 endfacet
 facet normal -0.77558 0.257721 0.576243
  outer loop
   vertex -0.044601 0.13381 0.004274
   vertex -0.042053 0.139716 0.005062
   vertex -0.049006 0.13011 0
  endloop
 endfacet
 facet normal -0.335887 0.810501 0.479863
  outer loop
   vertex -0.049006 0.13011 0
   vertex -0.057273 0.126684 0
   vertex -0.04654 0.128669 0.00416
  endloop
 endfacet
 facet normal -0.779466 0.281577 0.559595
  outer loop
   vertex -0.049006 0.13011 0
   vertex -0.04654 0.128669 0.00416
   vertex -0.044601 0.13381 0.004274
  endloop
 endfacet
 facet normal -0.70457 0.346205 -0.619455
  outer loop
   vertex -0.037857 0.139977 -0.008498
   vertex -0.039505 0.135605 -0.009067
   vertex -0.044601 0.13381 -0.004274
  endloop
 endfacet
 facet normal -0.63057 0.171036 0.757052
  outer loop
   vertex -0.044601 0.13381 0.004274
   vertex -0.037857 0.139977 0.008498
   vertex -0.042053 0.139716 0.005062
  endloop
 endfacet
 facet normal -0.70457 0.346205 0.619455
  outer loop
   vertex -0.044601 0.13381 0.004274
   vertex -0.039505 0.135605 0.009067
   vertex -0.037857 0.139977 0.008498
  endloop
 endfacet
 facet normal -0.712519 0.18033 -0.678084
  outer loop
   vertex -0.039505 0.135605 0.009067
   vertex -0.040611 0.146024 0.013
   vertex -0.037857 0.139977 0.008498
  endloop
 endfacet
 facet normal -0.840718 0.019964 -0.541106
  outer loop
   vertex -0.037857 0.139977 0.008498
   vertex -0.040611 0.146024 0.013
   vertex -0.039137 0.144646 0.010659
  endloop
 endfacet
 facet normal -0.786992 0.167117 -0.593898
  outer loop
   vertex -0.039137 0.144646 0.010659
   vertex -0.040611 0.146024 0.013
   vertex -0.038402 0.151558 0.01163
  endloop
 endfacet
 facet normal 0.331606 0.710361 0.620826
  outer loop
   vertex -0.035699 0.154309 0.029174
   vertex -0.039803 0.152493 0.033444
   vertex -0.035666 0.148182 0.036167
  endloop
 endfacet
 facet normal -0.484697 0.823139 0.295823
  outer loop
   vertex -0.035699 0.154309 0.029174
   vertex -0.035676 0.158026 0.018869
   vertex -0.039093 0.154948 0.021835
  endloop
 endfacet
 facet normal 0.0520325 0.662392 0.747349
  outer loop
   vertex -0.045585 0.157552 0.019979
   vertex -0.039093 0.154948 0.021835
   vertex -0.035676 0.158026 0.018869
  endloop
 endfacet
 facet normal 0.240554 0.23365 0.942094
  outer loop
   vertex -0.045585 0.157552 0.019979
   vertex -0.047937 0.151236 0.022146
   vertex -0.043138 0.148283 0.021653
  endloop
 endfacet
 facet normal -0.799573 0.438534 0.41033
  outer loop
   vertex -0.047937 0.151236 0.022146
   vertex -0.045585 0.157552 0.019979
   vertex -0.050203 0.152159 0.016744
  endloop
 endfacet
 facet normal -0.396114 -0.735502 0.549664
  outer loop
   vertex -0.043138 0.148283 0.021653
   vertex -0.047937 0.151236 0.022146
   vertex -0.049034 0.148132 0.017202
  endloop
 endfacet
 facet normal -0.134316 -0.968264 0.210772
  outer loop
   vertex -0.043227 0.146747 0.01454
   vertex -0.043138 0.148283 0.021653
   vertex -0.049034 0.148132 0.017202
  endloop
 endfacet
 facet normal -0.734172 0.365668 0.572083
  outer loop
   vertex -0.037628 0.129045 0.017501
   vertex -0.035125 0.136608 0.015879
   vertex -0.039023 0.133336 0.012968
  endloop
 endfacet
 facet normal -0.608957 -0.233243 0.758135
  outer loop
   vertex -0.039023 0.133336 0.012968
   vertex -0.040575 0.129444 0.010524
   vertex -0.039404 0.124547 0.009958
  endloop
 endfacet
 facet normal -0.895795 -0.108758 0.430955
  outer loop
   vertex -0.039023 0.133336 0.012968
   vertex -0.039404 0.124547 0.009958
   vertex -0.035585 0.122002 0.017254
  endloop
 endfacet
 facet normal -0.959665 -0.279455 0.0307951
  outer loop
   vertex -0.039023 0.133336 0.012968
   vertex -0.035585 0.122002 0.017254
   vertex -0.037628 0.129045 0.017501
  endloop
 endfacet
 facet normal -0.943586 0.221981 0.245703
  outer loop
   vertex -0.040575 0.129444 0.010524
   vertex -0.039023 0.133336 0.012968
   vertex -0.039505 0.135605 0.009067
  endloop
 endfacet
 facet normal -0.990991 -0.124156 0.0502294
  outer loop
   vertex -0.040611 0.146024 0.013
   vertex -0.039505 0.135605 0.009067
   vertex -0.039023 0.133336 0.012968
  endloop
 endfacet
 facet normal -0.450232 -0.228858 -0.863085
  outer loop
   vertex -0.043227 0.146747 0.01454
   vertex -0.049034 0.148132 0.017202
   vertex -0.050203 0.152159 0.016744
  endloop
 endfacet
 facet normal -0.319077 -0.0254692 -0.947387
  outer loop
   vertex -0.043227 0.146747 0.01454
   vertex -0.050203 0.152159 0.016744
   vertex -0.042873 0.152095 0.014277
  endloop
 endfacet
 facet normal -0.509283 -0.0097469 -0.860544
  outer loop
   vertex -0.038402 0.151558 0.01163
   vertex -0.040611 0.146024 0.013
   vertex -0.043227 0.146747 0.01454
  endloop
 endfacet
 facet normal -0.510188 -0.00852261 -0.860021
  outer loop
   vertex -0.038402 0.151558 0.01163
   vertex -0.043227 0.146747 0.01454
   vertex -0.042873 0.152095 0.014277
  endloop
 endfacet
 facet normal 0.394905 0.0807729 0.915164
  outer loop
   vertex -0.037628 0.129045 0.017501
   vertex -0.026781 0.119464 0.013666
   vertex -0.026197 0.132097 0.012299
  endloop
 endfacet
 facet normal 0.973773 -0.0684936 -0.216969
  outer loop
   vertex -0.026197 0.132097 0.012299
   vertex -0.026781 0.119464 0.013666
   vertex -0.027686 0.128173 0.006855
  endloop
 endfacet
 facet normal 0.396518 0.0829563 0.914271
  outer loop
   vertex -0.037628 0.129045 0.017501
   vertex -0.035585 0.122002 0.017254
   vertex -0.026781 0.119464 0.013666
  endloop
 endfacet
 facet normal -0.746119 -0.363767 0.557655
  outer loop
   vertex -0.035666 0.148182 0.036167
   vertex -0.039803 0.152493 0.033444
   vertex -0.036608 0.14523 0.032981
  endloop
 endfacet
 facet normal 0.834839 -0.282675 -0.472375
  outer loop
   vertex -0.027686 0.128173 0.006855
   vertex -0.026781 0.119464 0.013666
   vertex -0.029632 0.124782 0.005445
  endloop
 endfacet
 facet normal -0.911548 -0.225508 -0.34384
  outer loop
   vertex -0.049034 0.148132 -0.017202
   vertex -0.050203 0.152159 -0.016744
   vertex -0.047937 0.151236 -0.022146
  endloop
 endfacet
 facet normal -0.911548 -0.225508 0.34384
  outer loop
   vertex -0.047937 0.151236 0.022146
   vertex -0.050203 0.152159 0.016744
   vertex -0.049034 0.148132 0.017202
  endloop
 endfacet
 facet normal -0.64988 -0.2388 -0.721548
  outer loop
   vertex -0.040575 0.129444 -0.010524
   vertex -0.039404 0.124547 -0.009958
   vertex -0.045442 0.124013 -0.004343
  endloop
 endfacet
 facet normal -0.126414 -0.910416 -0.393905
  outer loop
   vertex -0.039404 0.124547 -0.009958
   vertex -0.034762 0.12298 -0.007826
   vertex -0.040247 0.12256 -0.005095
  endloop
 endfacet
 facet normal -0.300177 -0.863671 -0.404927
  outer loop
   vertex -0.045442 0.124013 -0.004343
   vertex -0.039404 0.124547 -0.009958
   vertex -0.040247 0.12256 -0.005095
  endloop
 endfacet
 facet normal -0.369382 -0.920458 0.127727
  outer loop
   vertex -0.039404 0.124547 -0.009958
   vertex -0.035585 0.122002 -0.017254
   vertex -0.034762 0.12298 -0.007826
  endloop
 endfacet
 facet normal -0.717835 0.27584 -0.639238
  outer loop
   vertex -0.039505 0.135605 -0.009067
   vertex -0.040575 0.129444 -0.010524
   vertex -0.04654 0.128669 -0.00416
  endloop
 endfacet
 facet normal -0.71364 -0.141327 -0.686108
  outer loop
   vertex -0.04654 0.128669 -0.00416
   vertex -0.040575 0.129444 -0.010524
   vertex -0.045442 0.124013 -0.004343
  endloop
 endfacet
 facet normal -0.32167 -0.938507 0.125434
  outer loop
   vertex -0.035585 0.122002 -0.017254
   vertex -0.026781 0.119464 -0.013666
   vertex -0.034762 0.12298 -0.007826
  endloop
 endfacet
 facet normal -0.708624 0.252658 -0.658799
  outer loop
   vertex -0.044601 0.13381 -0.004274
   vertex -0.039505 0.135605 -0.009067
   vertex -0.04654 0.128669 -0.00416
  endloop
 endfacet
 facet normal 0.0366248 -0.833235 0.551704
  outer loop
   vertex -0.034762 0.12298 -0.007826
   vertex -0.026781 0.119464 -0.013666
   vertex -0.029632 0.124782 -0.005445
  endloop
 endfacet
 facet normal 0.205831 -0.94098 0.268684
  outer loop
   vertex -0.040247 0.12256 -0.005095
   vertex -0.034762 0.12298 -0.007826
   vertex -0.029632 0.124782 -0.005445
  endloop
 endfacet
 facet normal 0.117414 -0.675567 -0.727889
  outer loop
   vertex -0.038621 0.117353 0
   vertex -0.040247 0.12256 -0.005095
   vertex -0.029632 0.124782 -0.005445
  endloop
 endfacet
 facet normal 0.679847 -0.350446 0.644202
  outer loop
   vertex -0.038621 0.117353 0
   vertex -0.029632 0.124782 -0.005445
   vertex -0.033542 0.127206 0
  endloop
 endfacet
 facet normal 0.679847 -0.350446 -0.644202
  outer loop
   vertex -0.033542 0.127206 0
   vertex -0.029632 0.124782 0.005445
   vertex -0.038621 0.117353 0
  endloop
 endfacet
 facet normal 0.0366248 -0.833235 -0.551704
  outer loop
   vertex -0.029632 0.124782 0.005445
   vertex -0.026781 0.119464 0.013666
   vertex -0.034762 0.12298 0.007826
  endloop
 endfacet
 facet normal 0.205831 -0.94098 -0.268684
  outer loop
   vertex -0.029632 0.124782 0.005445
   vertex -0.034762 0.12298 0.007826
   vertex -0.040247 0.12256 0.005095
  endloop
 endfacet
 facet normal 0.117414 -0.675567 0.727889
  outer loop
   vertex -0.029632 0.124782 0.005445
   vertex -0.040247 0.12256 0.005095
   vertex -0.038621 0.117353 0
  endloop
 endfacet
 facet normal -0.353489 -0.0466408 -0.934275
  outer loop
   vertex -0.04654 0.128669 -0.00416
   vertex -0.045442 0.124013 -0.004343
   vertex -0.057273 0.126684 0
  endloop
 endfacet
 facet normal -0.337154 0.0362448 -0.940751
  outer loop
   vertex -0.045442 0.124013 -0.004343
   vertex -0.057882 0.121019 0
   vertex -0.057273 0.126684 0
  endloop
 endfacet
 facet normal -0.337154 0.0362448 0.940751
  outer loop
   vertex -0.057273 0.126684 0
   vertex -0.057882 0.121019 0
   vertex -0.045442 0.124013 0.004343
  endloop
 endfacet
 facet normal -0.353489 -0.0466408 0.934275
  outer loop
   vertex -0.057273 0.126684 0
   vertex -0.045442 0.124013 0.004343
   vertex -0.04654 0.128669 0.00416
  endloop
 endfacet
 facet normal -0.708624 0.252658 0.658799
  outer loop
   vertex -0.04654 0.128669 0.00416
   vertex -0.039505 0.135605 0.009067
   vertex -0.044601 0.13381 0.004274
  endloop
 endfacet
 facet normal -0.717835 0.27584 0.639238
  outer loop
   vertex -0.04654 0.128669 0.00416
   vertex -0.040575 0.129444 0.010524
   vertex -0.039505 0.135605 0.009067
  endloop
 endfacet
 facet normal -0.71364 -0.141327 0.686108
  outer loop
   vertex -0.045442 0.124013 0.004343
   vertex -0.040575 0.129444 0.010524
   vertex -0.04654 0.128669 0.00416
  endloop
 endfacet
 facet normal -0.64988 -0.2388 0.721548
  outer loop
   vertex -0.045442 0.124013 0.004343
   vertex -0.039404 0.124547 0.009958
   vertex -0.040575 0.129444 0.010524
  endloop
 endfacet
 facet normal -0.126414 -0.910416 0.393905
  outer loop
   vertex -0.040247 0.12256 0.005095
   vertex -0.034762 0.12298 0.007826
   vertex -0.039404 0.124547 0.009958
  endloop
 endfacet
 facet normal -0.300177 -0.863671 0.404927
  outer loop
   vertex -0.040247 0.12256 0.005095
   vertex -0.039404 0.124547 0.009958
   vertex -0.045442 0.124013 0.004343
  endloop
 endfacet
 facet normal -0.369382 -0.920458 -0.127727
  outer loop
   vertex -0.034762 0.12298 0.007826
   vertex -0.035585 0.122002 0.017254
   vertex -0.039404 0.124547 0.009958
  endloop
 endfacet
 facet normal -0.32167 -0.938507 -0.125434
  outer loop
   vertex -0.034762 0.12298 0.007826
   vertex -0.026781 0.119464 0.013666
   vertex -0.035585 0.122002 0.017254
  endloop
 endfacet
 facet normal -0.377676 0.297137 -0.876967
  outer loop
   vertex -0.045442 0.124013 -0.004343
   vertex -0.048076 0.119514 -0.004733
   vertex -0.057882 0.121019 0
  endloop
 endfacet
 facet normal -0.131877 0.0410806 -0.990414
  outer loop
   vertex -0.045442 0.124013 -0.004343
   vertex -0.040247 0.12256 -0.005095
   vertex -0.044199 0.118215 -0.004749
  endloop
 endfacet
 facet normal 0.0207692 0.0742683 -0.997022
  outer loop
   vertex -0.048076 0.119514 -0.004733
   vertex -0.045442 0.124013 -0.004343
   vertex -0.044199 0.118215 -0.004749
  endloop
 endfacet
 facet normal 0.661301 -0.408863 -0.628897
  outer loop
   vertex -0.040247 0.12256 -0.005095
   vertex -0.038621 0.117353 0
   vertex -0.044363 0.113737 -0.003687
  endloop
 endfacet
 facet normal 0.172691 -0.233275 -0.956954
  outer loop
   vertex -0.044199 0.118215 -0.004749
   vertex -0.040247 0.12256 -0.005095
   vertex -0.044363 0.113737 -0.003687
  endloop
 endfacet
 facet normal 0.557233 -0.828516 -0.0552525
  outer loop
   vertex -0.045966 0.112413 0
   vertex -0.044363 0.113737 -0.003687
   vertex -0.038621 0.117353 0
  endloop
 endfacet
 facet normal 0.557233 -0.828516 0.0552525
  outer loop
   vertex -0.038621 0.117353 0
   vertex -0.044363 0.113737 0.003687
   vertex -0.045966 0.112413 0
  endloop
 endfacet
 facet normal 0.661301 -0.408863 0.628897
  outer loop
   vertex -0.044363 0.113737 0.003687
   vertex -0.038621 0.117353 0
   vertex -0.040247 0.12256 0.005095
  endloop
 endfacet
 facet normal -0.131877 0.0410806 0.990414
  outer loop
   vertex -0.044199 0.118215 0.004749
   vertex -0.040247 0.12256 0.005095
   vertex -0.045442 0.124013 0.004343
  endloop
 endfacet
 facet normal 0.172691 -0.233275 0.956954
  outer loop
   vertex -0.044363 0.113737 0.003687
   vertex -0.040247 0.12256 0.005095
   vertex -0.044199 0.118215 0.004749
  endloop
 endfacet
 facet normal -0.264701 0.613949 -0.74364
  outer loop
   vertex -0.048076 0.119514 -0.004733
   vertex -0.05456 0.116647 -0.004792
   vertex -0.057882 0.121019 0
  endloop
 endfacet
 facet normal -0.881006 -0.409251 -0.237365
  outer loop
   vertex -0.057882 0.121019 0
   vertex -0.05456 0.116647 -0.004792
   vertex -0.055001 0.114817 0
  endloop
 endfacet
 facet normal -0.264701 0.613949 0.74364
  outer loop
   vertex -0.057882 0.121019 0
   vertex -0.05456 0.116647 0.004792
   vertex -0.048076 0.119514 0.004733
  endloop
 endfacet
 facet normal -0.377676 0.297137 0.876967
  outer loop
   vertex -0.057882 0.121019 0
   vertex -0.048076 0.119514 0.004733
   vertex -0.045442 0.124013 0.004343
  endloop
 endfacet
 facet normal -0.881006 -0.409251 0.237365
  outer loop
   vertex -0.055001 0.114817 0
   vertex -0.05456 0.116647 0.004792
   vertex -0.057882 0.121019 0
  endloop
 endfacet
 facet normal 0.0207692 0.0742683 0.997022
  outer loop
   vertex -0.044199 0.118215 0.004749
   vertex -0.045442 0.124013 0.004343
   vertex -0.048076 0.119514 0.004733
  endloop
 endfacet
 facet normal -0.0801418 -0.227237 -0.970536
  outer loop
   vertex -0.048076 0.119514 -0.004733
   vertex -0.044199 0.118215 -0.004749
   vertex -0.044363 0.113737 -0.003687
  endloop
 endfacet
 facet normal 0.24939 -0.0150321 -0.968286
  outer loop
   vertex -0.051742 0.11351 -0.005584
   vertex -0.048076 0.119514 -0.004733
   vertex -0.044363 0.113737 -0.003687
  endloop
 endfacet
 facet normal -0.0719541 0.182909 -0.980493
  outer loop
   vertex -0.048076 0.119514 -0.004733
   vertex -0.051742 0.11351 -0.005584
   vertex -0.05456 0.116647 -0.004792
  endloop
 endfacet
 facet normal 0.105128 -0.949604 -0.295297
  outer loop
   vertex -0.051742 0.11351 -0.005584
   vertex -0.044363 0.113737 -0.003687
   vertex -0.045966 0.112413 0
  endloop
 endfacet
 facet normal 0.117811 -0.94427 -0.307367
  outer loop
   vertex -0.050198 0.111885 0
   vertex -0.051742 0.11351 -0.005584
   vertex -0.045966 0.112413 0
  endloop
 endfacet
 facet normal 0.105128 -0.949604 0.295297
  outer loop
   vertex -0.045966 0.112413 0
   vertex -0.044363 0.113737 0.003687
   vertex -0.051742 0.11351 0.005584
  endloop
 endfacet
 facet normal 0.117811 -0.94427 0.307367
  outer loop
   vertex -0.045966 0.112413 0
   vertex -0.051742 0.11351 0.005584
   vertex -0.050198 0.111885 0
  endloop
 endfacet
 facet normal -0.0801418 -0.227237 0.970536
  outer loop
   vertex -0.044363 0.113737 0.003687
   vertex -0.044199 0.118215 0.004749
   vertex -0.048076 0.119514 0.004733
  endloop
 endfacet
 facet normal 0.24939 -0.0150321 0.968286
  outer loop
   vertex -0.044363 0.113737 0.003687
   vertex -0.048076 0.119514 0.004733
   vertex -0.051742 0.11351 0.005584
  endloop
 endfacet
 facet normal -0.742567 -0.66969 0.010436
  outer loop
   vertex -0.05456 0.116647 -0.004792
   vertex -0.051742 0.11351 -0.005584
   vertex -0.050198 0.111885 0
  endloop
 endfacet
 facet normal -0.488041 -0.799475 -0.350222
  outer loop
   vertex -0.055001 0.114817 0
   vertex -0.05456 0.116647 -0.004792
   vertex -0.050198 0.111885 0
  endloop
 endfacet
 facet normal -0.488041 -0.799475 0.350222
  outer loop
   vertex -0.050198 0.111885 0
   vertex -0.05456 0.116647 0.004792
   vertex -0.055001 0.114817 0
  endloop
 endfacet
 facet normal -0.742567 -0.66969 -0.010436
  outer loop
   vertex -0.050198 0.111885 0
   vertex -0.051742 0.11351 0.005584
   vertex -0.05456 0.116647 0.004792
  endloop
 endfacet
 facet normal -0.0719541 0.182909 0.980493
  outer loop
   vertex -0.05456 0.116647 0.004792
   vertex -0.051742 0.11351 0.005584
   vertex -0.048076 0.119514 0.004733
  endloop
 endfacet
endsolid
