solid ascii
 facet normal 0.196867 -0.888813 -0.41383
  outer loop
   vertex 0.001762 0.006343 0
   vertex 0.014785 0.01341 -0.008983
   vertex 0.01383 0.009016 0
  endloop
 endfacet
 facet normal 0.442182 -0.894721 -0.0628358
  outer loop
   vertex 0.001762 0.006343 0
   vertex 0.010159 0.011784 -0.018384
   vertex 0.014785 0.01341 -0.008983
  endloop
 endfacet
 facet normal 0.459157 -0.886789 -0.0527348
  outer loop
   vertex 0.001762 0.006343 0
   vertex 0.003032 0.008366 -0.022961
   vertex 0.010159 0.011784 -0.018384
  endloop
 endfacet
 facet normal 0.269396 -0.960724 0.0665954
  outer loop
   vertex 0.001762 0.006343 0
   vertex -0.015067 0.001624 0
   vertex -0.014846 0.001312 -0.005395
  endloop
 endfacet
 facet normal 0.299073 -0.953717 -0.0312968
  outer loop
   vertex -0.014846 0.001312 -0.005395
   vertex -0.015316 0.001512 -0.015981
   vertex 0.001762 0.006343 0
  endloop
 endfacet
 facet normal 0.398856 -0.904176 -0.152906
  outer loop
   vertex 0.001762 0.006343 0
   vertex -0.015316 0.001512 -0.015981
   vertex -0.010712 0.004746 -0.023095
  endloop
 endfacet
 facet normal 0.254707 -0.964417 -0.0708827
  outer loop
   vertex -0.010712 0.004746 -0.023095
   vertex 0.003032 0.008366 -0.022961
   vertex 0.001762 0.006343 0
  endloop
 endfacet
 facet normal 0.196867 -0.888813 0.41383
  outer loop
   vertex 0.01383 0.009016 0
   vertex 0.014785 0.01341 0.008983
   vertex 0.001762 0.006343 0
  endloop
 endfacet
 facet normal 0.442182 -0.894721 0.0628358
  outer loop
   vertex 0.014785 0.01341 0.008983
   vertex 0.010159 0.011784 0.018384
   vertex 0.001762 0.006343 0
  endloop
 endfacet
 facet normal 0.459157 -0.886789 0.0527348
  outer loop
   vertex 0.010159 0.011784 0.018384
   vertex 0.003032 0.008366 0.022961
   vertex 0.001762 0.006343 0
  endloop
 endfacet
 facet normal 0.269396 -0.960724 -0.0665954
  outer loop
   vertex -0.014846 0.001312 0.005395
   vertex -0.015067 0.001624 0
   vertex 0.001762 0.006343 0
  endloop
 endfacet
 facet normal 0.299073 -0.953717 0.0312968
  outer loop
   vertex 0.001762 0.006343 0
   vertex -0.015316 0.001512 0.015981
   vertex -0.014846 0.001312 0.005395
  endloop
 endfacet
 facet normal 0.398856 -0.904176 0.152906
  outer loop
   vertex -0.010712 0.004746 0.023095
   vertex -0.015316 0.001512 0.015981
   vertex 0.001762 0.006343 0
  endloop
 endfacet
 facet normal 0.254707 -0.964417 0.0708827
  outer loop
   vertex 0.001762 0.006343 0
   vertex 0.003032 0.008366 0.022961
   vertex -0.010712 0.004746 0.023095
  endloop
 endfacet
 facet normal 0.990298 -0.133012 0.0402182
  outer loop
   vertex 0.01383 0.009016 0
   vertex 0.014785 0.01341 -0.008983
   vertex 0.015039 0.014755 -0.010789
  endloop
 endfacet
 facet normal 0.787047 -0.542637 -0.293432
  outer loop
   vertex 0.015039 0.014755 -0.010789
   vertex 0.014785 0.01341 -0.008983
   vertex 0.010159 0.011784 -0.018384
  endloop
 endfacet
 facet normal 0.990175 -0.134098 0.039627
  outer loop
   vertex 0.014692 0.015381 0
   vertex 0.01383 0.009016 0
   vertex 0.015039 0.014755 -0.010789
  endloop
 endfacet
 facet normal 0.990298 -0.133012 -0.0402182
  outer loop
   vertex 0.015039 0.014755 0.010789
   vertex 0.014785 0.01341 0.008983
   vertex 0.01383 0.009016 0
  endloop
 endfacet
 facet normal 0.990175 -0.134098 -0.039627
  outer loop
   vertex 0.015039 0.014755 0.010789
   vertex 0.01383 0.009016 0
   vertex 0.014692 0.015381 0
  endloop
 endfacet
 facet normal 0.580552 0.559242 -0.591784
  outer loop
   vertex 0.008364 0.014313 -0.017755
   vertex 0.015039 0.014755 -0.010789
   vertex 0.010159 0.011784 -0.018384
  endloop
 endfacet
 facet normal 0.326416 0.439777 -0.836689
  outer loop
   vertex 0.008364 0.014313 -0.017755
   vertex 0.010159 0.011784 -0.018384
   vertex 0.003032 0.008366 -0.022961
  endloop
 endfacet
 facet normal 0.333307 0.433904 -0.837038
  outer loop
   vertex -0.000149 0.013462 -0.021586
   vertex 0.008364 0.014313 -0.017755
   vertex 0.003032 0.008366 -0.022961
  endloop
 endfacet
 facet normal -0.0511736 0.230262 -0.971782
  outer loop
   vertex -0.000149 0.013462 -0.021586
   vertex 0.003032 0.008366 -0.022961
   vertex -0.010712 0.004746 -0.023095
  endloop
 endfacet
 facet normal -0.989483 0.136306 -0.0484158
  outer loop
   vertex -0.014005 0.007541 -0.005046
   vertex -0.014846 0.001312 -0.005395
   vertex -0.015067 0.001624 0
  endloop
 endfacet
 facet normal -0.980756 0.194085 0.0211728
  outer loop
   vertex -0.013921 0.007415 0
   vertex -0.014005 0.007541 -0.005046
   vertex -0.015067 0.001624 0
  endloop
 endfacet
 facet normal -0.989483 0.136306 0.0484158
  outer loop
   vertex -0.015067 0.001624 0
   vertex -0.014846 0.001312 0.005395
   vertex -0.014005 0.007541 0.005046
  endloop
 endfacet
 facet normal -0.980756 0.194085 -0.0211728
  outer loop
   vertex -0.015067 0.001624 0
   vertex -0.014005 0.007541 0.005046
   vertex -0.013921 0.007415 0
  endloop
 endfacet
 facet normal -0.990281 0.131099 0.0464436
  outer loop
   vertex -0.014846 0.001312 -0.005395
   vertex -0.014005 0.007541 -0.005046
   vertex -0.015316 0.001512 -0.015981
  endloop
 endfacet
 facet normal -0.780122 0.0392288 -0.624396
  outer loop
   vertex -0.015316 0.001512 -0.015981
   vertex -0.014655 0.009293 -0.016318
   vertex -0.010367 0.008154 -0.021747
  endloop
 endfacet
 facet normal -0.86025 0.260461 -0.438327
  outer loop
   vertex -0.010712 0.004746 -0.023095
   vertex -0.015316 0.001512 -0.015981
   vertex -0.010367 0.008154 -0.021747
  endloop
 endfacet
 facet normal -0.989845 0.0789687 -0.118198
  outer loop
   vertex -0.015504 0.008654 -0.009635
   vertex -0.014655 0.009293 -0.016318
   vertex -0.015316 0.001512 -0.015981
  endloop
 endfacet
 facet normal -0.937716 -0.24422 0.247073
  outer loop
   vertex -0.014005 0.007541 -0.005046
   vertex -0.015504 0.008654 -0.009635
   vertex -0.015316 0.001512 -0.015981
  endloop
 endfacet
 facet normal -0.181818 0.377543 -0.907967
  outer loop
   vertex -0.010367 0.008154 -0.021747
   vertex -0.000149 0.013462 -0.021586
   vertex -0.010712 0.004746 -0.023095
  endloop
 endfacet
 facet normal 0.787047 -0.542637 0.293432
  outer loop
   vertex 0.010159 0.011784 0.018384
   vertex 0.014785 0.01341 0.008983
   vertex 0.015039 0.014755 0.010789
  endloop
 endfacet
 facet normal 0.580552 0.559242 0.591784
  outer loop
   vertex 0.010159 0.011784 0.018384
   vertex 0.015039 0.014755 0.010789
   vertex 0.008364 0.014313 0.017755
  endloop
 endfacet
 facet normal 0.326416 0.439777 0.836689
  outer loop
   vertex 0.003032 0.008366 0.022961
   vertex 0.010159 0.011784 0.018384
   vertex 0.008364 0.014313 0.017755
  endloop
 endfacet
 facet normal 0.333307 0.433904 0.837038
  outer loop
   vertex 0.003032 0.008366 0.022961
   vertex 0.008364 0.014313 0.017755
   vertex -0.000149 0.013462 0.021586
  endloop
 endfacet
 facet normal -0.0511736 0.230262 0.971782
  outer loop
   vertex -0.010712 0.004746 0.023095
   vertex 0.003032 0.008366 0.022961
   vertex -0.000149 0.013462 0.021586
  endloop
 endfacet
 facet normal -0.990281 0.131099 -0.0464436
  outer loop
   vertex -0.015316 0.001512 0.015981
   vertex -0.014005 0.007541 0.005046
   vertex -0.014846 0.001312 0.005395
  endloop
 endfacet
 facet normal -0.780122 0.0392288 0.624396
  outer loop
   vertex -0.010367 0.008154 0.021747
   vertex -0.014655 0.009293 0.016318
   vertex -0.015316 0.001512 0.015981
  endloop
 endfacet
 facet normal -0.86025 0.260461 0.438327
  outer loop
   vertex -0.010367 0.008154 0.021747
   vertex -0.015316 0.001512 0.015981
   vertex -0.010712 0.004746 0.023095
  endloop
 endfacet
 facet normal -0.989845 0.0789687 0.118198
  outer loop
   vertex -0.015316 0.001512 0.015981
   vertex -0.014655 0.009293 0.016318
   vertex -0.015504 0.008654 0.009635
  endloop
 endfacet
 facet normal -0.937716 -0.24422 -0.247073
  outer loop
   vertex -0.015316 0.001512 0.015981
   vertex -0.015504 0.008654 0.009635
   vertex -0.014005 0.007541 0.005046
  endloop
 endfacet
 facet normal -0.181818 0.377543 0.907967
  outer loop
   vertex -0.010712 0.004746 0.023095
   vertex -0.000149 0.013462 0.021586
   vertex -0.010367 0.008154 0.021747
  endloop
 endfacet
 facet normal 0.759897 0.640079 -0.113382
  outer loop
   vertex 0.015039 0.014755 -0.010789
   vertex 0.010695 0.019963 -0.010502
   vertex 0.012155 0.02009 0
  endloop
 endfacet
 facet normal 0.880363 0.4743 0.000794674
  outer loop
   vertex 0.014692 0.015381 0
   vertex 0.015039 0.014755 -0.010789
   vertex 0.012155 0.02009 0
  endloop
 endfacet
 facet normal 0.595307 0.529835 -0.604057
  outer loop
   vertex 0.010695 0.019963 -0.010502
   vertex 0.015039 0.014755 -0.010789
   vertex 0.008364 0.014313 -0.017755
  endloop
 endfacet
 facet normal 0.880363 0.4743 -0.000794674
  outer loop
   vertex 0.012155 0.02009 0
   vertex 0.015039 0.014755 0.010789
   vertex 0.014692 0.015381 0
  endloop
 endfacet
 facet normal 0.759897 0.640079 0.113382
  outer loop
   vertex 0.012155 0.02009 0
   vertex 0.010695 0.019963 0.010502
   vertex 0.015039 0.014755 0.010789
  endloop
 endfacet
 facet normal 0.595307 0.529835 0.604057
  outer loop
   vertex 0.008364 0.014313 0.017755
   vertex 0.015039 0.014755 0.010789
   vertex 0.010695 0.019963 0.010502
  endloop
 endfacet
 facet normal 0.61271 0.515838 -0.598747
  outer loop
   vertex 0.004981 0.018849 -0.017309
   vertex 0.010695 0.019963 -0.010502
   vertex 0.008364 0.014313 -0.017755
  endloop
 endfacet
 facet normal 0.355089 0.350059 -0.866816
  outer loop
   vertex 0.004981 0.018849 -0.017309
   vertex 0.008364 0.014313 -0.017755
   vertex -0.000149 0.013462 -0.021586
  endloop
 endfacet
 facet normal 0.237277 0.455342 -0.858116
  outer loop
   vertex -0.001876 0.01805 -0.019629
   vertex 0.004981 0.018849 -0.017309
   vertex -0.000149 0.013462 -0.021586
  endloop
 endfacet
 facet normal -0.159813 0.335799 -0.928278
  outer loop
   vertex -0.001876 0.01805 -0.019629
   vertex -0.000149 0.013462 -0.021586
   vertex -0.010367 0.008154 -0.021747
  endloop
 endfacet
 facet normal -0.773207 -0.634146 -0.00296339
  outer loop
   vertex -0.014005 0.007541 -0.005046
   vertex -0.013921 0.007415 0
   vertex -0.018904 0.013521 -0.006481
  endloop
 endfacet
 facet normal -0.781526 -0.61477 0.106182
  outer loop
   vertex -0.015504 0.008654 -0.009635
   vertex -0.014005 0.007541 -0.005046
   vertex -0.018904 0.013521 -0.006481
  endloop
 endfacet
 facet normal -0.812742 -0.576916 0.0813519
  outer loop
   vertex -0.018437 0.013777 0
   vertex -0.018904 0.013521 -0.006481
   vertex -0.013921 0.007415 0
  endloop
 endfacet
 facet normal -0.812742 -0.576916 -0.0813519
  outer loop
   vertex -0.013921 0.007415 0
   vertex -0.018904 0.013521 0.006481
   vertex -0.018437 0.013777 0
  endloop
 endfacet
 facet normal -0.773207 -0.634146 0.00296339
  outer loop
   vertex -0.018904 0.013521 0.006481
   vertex -0.013921 0.007415 0
   vertex -0.014005 0.007541 0.005046
  endloop
 endfacet
 facet normal -0.781526 -0.61477 -0.106182
  outer loop
   vertex -0.018904 0.013521 0.006481
   vertex -0.014005 0.007541 0.005046
   vertex -0.015504 0.008654 0.009635
  endloop
 endfacet
 facet normal 0.156637 -0.612406 -0.77487
  outer loop
   vertex -0.014655 0.009293 -0.016318
   vertex -0.017213 0.012613 -0.019459
   vertex -0.011816 0.015408 -0.020577
  endloop
 endfacet
 facet normal -0.789369 -0.0591189 -0.611066
  outer loop
   vertex -0.010367 0.008154 -0.021747
   vertex -0.014655 0.009293 -0.016318
   vertex -0.011816 0.015408 -0.020577
  endloop
 endfacet
 facet normal -0.635394 -0.756861 -0.153087
  outer loop
   vertex -0.020938 0.013278 -0.009942
   vertex -0.014655 0.009293 -0.016318
   vertex -0.015504 0.008654 -0.009635
  endloop
 endfacet
 facet normal -0.667371 -0.714117 -0.211313
  outer loop
   vertex -0.020938 0.013278 -0.009942
   vertex -0.017213 0.012613 -0.019459
   vertex -0.014655 0.009293 -0.016318
  endloop
 endfacet
 facet normal 0.0490807 0.168588 -0.984464
  outer loop
   vertex -0.011816 0.015408 -0.020577
   vertex -0.001876 0.01805 -0.019629
   vertex -0.010367 0.008154 -0.021747
  endloop
 endfacet
 facet normal -0.605904 -0.685207 0.404193
  outer loop
   vertex -0.020938 0.013278 -0.009942
   vertex -0.015504 0.008654 -0.009635
   vertex -0.018904 0.013521 -0.006481
  endloop
 endfacet
 facet normal 0.61271 0.515838 0.598747
  outer loop
   vertex 0.008364 0.014313 0.017755
   vertex 0.010695 0.019963 0.010502
   vertex 0.004981 0.018849 0.017309
  endloop
 endfacet
 facet normal 0.355089 0.350059 0.866816
  outer loop
   vertex -0.000149 0.013462 0.021586
   vertex 0.008364 0.014313 0.017755
   vertex 0.004981 0.018849 0.017309
  endloop
 endfacet
 facet normal 0.237277 0.455342 0.858116
  outer loop
   vertex -0.000149 0.013462 0.021586
   vertex 0.004981 0.018849 0.017309
   vertex -0.001876 0.01805 0.019629
  endloop
 endfacet
 facet normal -0.159813 0.335799 0.928278
  outer loop
   vertex -0.010367 0.008154 0.021747
   vertex -0.000149 0.013462 0.021586
   vertex -0.001876 0.01805 0.019629
  endloop
 endfacet
 facet normal 0.0490807 0.168588 0.984464
  outer loop
   vertex -0.010367 0.008154 0.021747
   vertex -0.001876 0.01805 0.019629
   vertex -0.011816 0.015408 0.020577
  endloop
 endfacet
 facet normal -0.789369 -0.0591189 0.611066
  outer loop
   vertex -0.011816 0.015408 0.020577
   vertex -0.014655 0.009293 0.016318
   vertex -0.010367 0.008154 0.021747
  endloop
 endfacet
 facet normal 0.156637 -0.612406 0.77487
  outer loop
   vertex -0.011816 0.015408 0.020577
   vertex -0.017213 0.012613 0.019459
   vertex -0.014655 0.009293 0.016318
  endloop
 endfacet
 facet normal -0.635394 -0.756861 0.153087
  outer loop
   vertex -0.015504 0.008654 0.009635
   vertex -0.014655 0.009293 0.016318
   vertex -0.020938 0.013278 0.009942
  endloop
 endfacet
 facet normal -0.667371 -0.714117 0.211313
  outer loop
   vertex -0.014655 0.009293 0.016318
   vertex -0.017213 0.012613 0.019459
   vertex -0.020938 0.013278 0.009942
  endloop
 endfacet
 facet normal -0.605904 -0.685207 -0.404193
  outer loop
   vertex -0.018904 0.013521 0.006481
   vertex -0.015504 0.008654 0.009635
   vertex -0.020938 0.013278 0.009942
  endloop
 endfacet
 facet normal 0.929989 0.337731 -0.145114
  outer loop
   vertex 0.010695 0.019963 -0.010502
   vertex 0.007493 0.02894 -0.01013
   vertex 0.008412 0.030762 0
  endloop
 endfacet
 facet normal 0.935137 0.327981 -0.13397
  outer loop
   vertex 0.012155 0.02009 0
   vertex 0.010695 0.019963 -0.010502
   vertex 0.008412 0.030762 0
  endloop
 endfacet
 facet normal 0.712028 0.280644 -0.643626
  outer loop
   vertex 0.007493 0.02894 -0.01013
   vertex 0.010695 0.019963 -0.010502
   vertex 0.004981 0.018849 -0.017309
  endloop
 endfacet
 facet normal 0.935137 0.327981 0.13397
  outer loop
   vertex 0.008412 0.030762 0
   vertex 0.010695 0.019963 0.010502
   vertex 0.012155 0.02009 0
  endloop
 endfacet
 facet normal 0.929989 0.337731 0.145114
  outer loop
   vertex 0.008412 0.030762 0
   vertex 0.007493 0.02894 0.01013
   vertex 0.010695 0.019963 0.010502
  endloop
 endfacet
 facet normal 0.712028 0.280644 0.643626
  outer loop
   vertex 0.004981 0.018849 0.017309
   vertex 0.010695 0.019963 0.010502
   vertex 0.007493 0.02894 0.01013
  endloop
 endfacet
 facet normal 0.736165 0.260995 -0.624453
  outer loop
   vertex 0.001581 0.026848 -0.017974
   vertex 0.007493 0.02894 -0.01013
   vertex 0.004981 0.018849 -0.017309
  endloop
 endfacet
 facet normal 0.314277 0.054793 -0.947749
  outer loop
   vertex 0.001581 0.026848 -0.017974
   vertex 0.004981 0.018849 -0.017309
   vertex -0.001876 0.01805 -0.019629
  endloop
 endfacet
 facet normal 0.317574 0.0533065 -0.946734
  outer loop
   vertex -0.003261 0.024756 -0.019716
   vertex 0.001581 0.026848 -0.017974
   vertex -0.001876 0.01805 -0.019629
  endloop
 endfacet
 facet normal 0.0932679 0.00634605 -0.995621
  outer loop
   vertex -0.003261 0.024756 -0.019716
   vertex -0.001876 0.01805 -0.019629
   vertex -0.011816 0.015408 -0.020577
  endloop
 endfacet
 facet normal -0.80522 -0.587387 0.0812235
  outer loop
   vertex -0.023126 0.019279 -0.006696
   vertex -0.018904 0.013521 -0.006481
   vertex -0.018437 0.013777 0
  endloop
 endfacet
 facet normal -0.720621 -0.510887 0.468721
  outer loop
   vertex -0.023126 0.019279 -0.006696
   vertex -0.025225 0.018846 -0.010395
   vertex -0.018904 0.013521 -0.006481
  endloop
 endfacet
 facet normal -0.721175 -0.517819 0.460185
  outer loop
   vertex -0.025225 0.018846 -0.010395
   vertex -0.020938 0.013278 -0.009942
   vertex -0.018904 0.013521 -0.006481
  endloop
 endfacet
 facet normal -0.822083 -0.557007 0.117995
  outer loop
   vertex -0.022461 0.019716 0
   vertex -0.023126 0.019279 -0.006696
   vertex -0.018437 0.013777 0
  endloop
 endfacet
 facet normal -0.80522 -0.587387 -0.0812235
  outer loop
   vertex -0.018437 0.013777 0
   vertex -0.018904 0.013521 0.006481
   vertex -0.023126 0.019279 0.006696
  endloop
 endfacet
 facet normal -0.822083 -0.557007 -0.117995
  outer loop
   vertex -0.018437 0.013777 0
   vertex -0.023126 0.019279 0.006696
   vertex -0.022461 0.019716 0
  endloop
 endfacet
 facet normal -0.720621 -0.510887 -0.468721
  outer loop
   vertex -0.018904 0.013521 0.006481
   vertex -0.025225 0.018846 0.010395
   vertex -0.023126 0.019279 0.006696
  endloop
 endfacet
 facet normal -0.721175 -0.517819 -0.460185
  outer loop
   vertex -0.018904 0.013521 0.006481
   vertex -0.020938 0.013278 0.009942
   vertex -0.025225 0.018846 0.010395
  endloop
 endfacet
 facet normal 0.125823 -0.215708 -0.968317
  outer loop
   vertex -0.017213 0.012613 -0.019459
   vertex -0.018319 0.019469 -0.02113
   vertex -0.013283 0.020575 -0.020722
  endloop
 endfacet
 facet normal -0.165149 -0.0744869 -0.983452
  outer loop
   vertex -0.011816 0.015408 -0.020577
   vertex -0.017213 0.012613 -0.019459
   vertex -0.013283 0.020575 -0.020722
  endloop
 endfacet
 facet normal 0.161215 -0.702794 -0.692886
  outer loop
   vertex -0.021338 0.013678 -0.021499
   vertex -0.017213 0.012613 -0.019459
   vertex -0.02299 0.009386 -0.01753
  endloop
 endfacet
 facet normal 0.0719359 -0.817078 -0.572021
  outer loop
   vertex -0.017213 0.012613 -0.019459
   vertex -0.021338 0.013678 -0.021499
   vertex -0.024612 0.016342 -0.025716
  endloop
 endfacet
 facet normal 0.615754 -0.0914136 -0.782618
  outer loop
   vertex -0.018319 0.019469 -0.02113
   vertex -0.017213 0.012613 -0.019459
   vertex -0.024612 0.016342 -0.025716
  endloop
 endfacet
 facet normal 0.536259 -0.801086 0.26587
  outer loop
   vertex -0.020938 0.013278 -0.009942
   vertex -0.02299 0.009386 -0.01753
   vertex -0.017213 0.012613 -0.019459
  endloop
 endfacet
 facet normal 0.0997167 0.000388568 -0.995016
  outer loop
   vertex -0.013283 0.020575 -0.020722
   vertex -0.003261 0.024756 -0.019716
   vertex -0.011816 0.015408 -0.020577
  endloop
 endfacet
 facet normal 0.359167 -0.866285 0.347202
  outer loop
   vertex -0.020938 0.013278 -0.009942
   vertex -0.029872 0.01204 -0.003789
   vertex -0.02299 0.009386 -0.01753
  endloop
 endfacet
 facet normal 0.472252 0.426369 0.771484
  outer loop
   vertex -0.029872 0.01204 -0.003789
   vertex -0.020938 0.013278 -0.009942
   vertex -0.025225 0.018846 -0.010395
  endloop
 endfacet
 facet normal 0.736165 0.260995 0.624453
  outer loop
   vertex 0.004981 0.018849 0.017309
   vertex 0.007493 0.02894 0.01013
   vertex 0.001581 0.026848 0.017974
  endloop
 endfacet
 facet normal 0.314277 0.054793 0.947749
  outer loop
   vertex -0.001876 0.01805 0.019629
   vertex 0.004981 0.018849 0.017309
   vertex 0.001581 0.026848 0.017974
  endloop
 endfacet
 facet normal 0.317574 0.0533065 0.946734
  outer loop
   vertex -0.001876 0.01805 0.019629
   vertex 0.001581 0.026848 0.017974
   vertex -0.003261 0.024756 0.019716
  endloop
 endfacet
 facet normal 0.0932679 0.00634605 0.995621
  outer loop
   vertex -0.011816 0.015408 0.020577
   vertex -0.001876 0.01805 0.019629
   vertex -0.003261 0.024756 0.019716
  endloop
 endfacet
 facet normal 0.0997167 0.000388568 0.995016
  outer loop
   vertex -0.011816 0.015408 0.020577
   vertex -0.003261 0.024756 0.019716
   vertex -0.013283 0.020575 0.020722
  endloop
 endfacet
 facet normal -0.165149 -0.0744869 0.983452
  outer loop
   vertex -0.013283 0.020575 0.020722
   vertex -0.017213 0.012613 0.019459
   vertex -0.011816 0.015408 0.020577
  endloop
 endfacet
 facet normal 0.125823 -0.215708 0.968317
  outer loop
   vertex -0.013283 0.020575 0.020722
   vertex -0.018319 0.019469 0.02113
   vertex -0.017213 0.012613 0.019459
  endloop
 endfacet
 facet normal 0.161215 -0.702794 0.692886
  outer loop
   vertex -0.02299 0.009386 0.01753
   vertex -0.017213 0.012613 0.019459
   vertex -0.021338 0.013678 0.021499
  endloop
 endfacet
 facet normal 0.0719359 -0.817078 0.572021
  outer loop
   vertex -0.024612 0.016342 0.025716
   vertex -0.021338 0.013678 0.021499
   vertex -0.017213 0.012613 0.019459
  endloop
 endfacet
 facet normal 0.615754 -0.0914136 0.782618
  outer loop
   vertex -0.024612 0.016342 0.025716
   vertex -0.017213 0.012613 0.019459
   vertex -0.018319 0.019469 0.02113
  endloop
 endfacet
 facet normal 0.536259 -0.801086 -0.26587
  outer loop
   vertex -0.017213 0.012613 0.019459
   vertex -0.02299 0.009386 0.01753
   vertex -0.020938 0.013278 0.009942
  endloop
 endfacet
 facet normal 0.359167 -0.866285 -0.347202
  outer loop
   vertex -0.02299 0.009386 0.01753
   vertex -0.029872 0.01204 0.003789
   vertex -0.020938 0.013278 0.009942
  endloop
 endfacet
 facet normal 0.472252 0.426369 -0.771484
  outer loop
   vertex -0.025225 0.018846 0.010395
   vertex -0.020938 0.013278 0.009942
   vertex -0.029872 0.01204 0.003789
  endloop
 endfacet
 facet normal 0.994885 0.0906783 -0.0445185
  outer loop
   vertex 0.007493 0.02894 -0.01013
   vertex 0.006938 0.034499 -0.01121
   vertex 0.007376 0.035197 0
  endloop
 endfacet
 facet normal 0.96575 0.225596 -0.12819
  outer loop
   vertex 0.008412 0.030762 0
   vertex 0.007493 0.02894 -0.01013
   vertex 0.007376 0.035197 0
  endloop
 endfacet
 facet normal 0.80261 -0.0355514 -0.595443
  outer loop
   vertex 0.006938 0.034499 -0.01121
   vertex 0.007493 0.02894 -0.01013
   vertex 0.001581 0.026848 -0.017974
  endloop
 endfacet
 facet normal 0.96575 0.225596 0.12819
  outer loop
   vertex 0.007376 0.035197 0
   vertex 0.007493 0.02894 0.01013
   vertex 0.008412 0.030762 0
  endloop
 endfacet
 facet normal 0.994885 0.0906783 0.0445185
  outer loop
   vertex 0.007376 0.035197 0
   vertex 0.006938 0.034499 0.01121
   vertex 0.007493 0.02894 0.01013
  endloop
 endfacet
 facet normal 0.80261 -0.0355514 0.595443
  outer loop
   vertex 0.001581 0.026848 0.017974
   vertex 0.007493 0.02894 0.01013
   vertex 0.006938 0.034499 0.01121
  endloop
 endfacet
 facet normal 0.859595 -0.178626 -0.478738
  outer loop
   vertex 0.002008 0.031725 -0.019027
   vertex 0.006938 0.034499 -0.01121
   vertex 0.001581 0.026848 -0.017974
  endloop
 endfacet
 facet normal 0.414923 -0.226587 -0.881191
  outer loop
   vertex 0.002008 0.031725 -0.019027
   vertex 0.001581 0.026848 -0.017974
   vertex -0.003261 0.024756 -0.019716
  endloop
 endfacet
 facet normal 0.561844 -0.350717 -0.749219
  outer loop
   vertex -0.003777 0.028392 -0.021805
   vertex 0.002008 0.031725 -0.019027
   vertex -0.003261 0.024756 -0.019716
  endloop
 endfacet
 facet normal 0.273016 -0.449819 -0.850368
  outer loop
   vertex -0.003777 0.028392 -0.021805
   vertex -0.003261 0.024756 -0.019716
   vertex -0.013283 0.020575 -0.020722
  endloop
 endfacet
 facet normal -0.916221 -0.383509 0.116022
  outer loop
   vertex -0.026469 0.026705 -0.008549
   vertex -0.023126 0.019279 -0.006696
   vertex -0.022461 0.019716 0
  endloop
 endfacet
 facet normal -0.855816 -0.129541 0.500797
  outer loop
   vertex -0.026536 0.024542 -0.011162
   vertex -0.025225 0.018846 -0.010395
   vertex -0.023126 0.019279 -0.006696
  endloop
 endfacet
 facet normal -0.896492 -0.329734 0.295936
  outer loop
   vertex -0.026469 0.026705 -0.008549
   vertex -0.026536 0.024542 -0.011162
   vertex -0.023126 0.019279 -0.006696
  endloop
 endfacet
 facet normal 0.654427 0.246861 0.714692
  outer loop
   vertex -0.025225 0.018846 -0.010395
   vertex -0.026536 0.024542 -0.011162
   vertex -0.029872 0.01204 -0.003789
  endloop
 endfacet
 facet normal -0.936512 -0.28173 0.208742
  outer loop
   vertex -0.024494 0.026474 0
   vertex -0.026469 0.026705 -0.008549
   vertex -0.022461 0.019716 0
  endloop
 endfacet
 facet normal -0.916221 -0.383509 -0.116022
  outer loop
   vertex -0.022461 0.019716 0
   vertex -0.023126 0.019279 0.006696
   vertex -0.026469 0.026705 0.008549
  endloop
 endfacet
 facet normal -0.936512 -0.28173 -0.208742
  outer loop
   vertex -0.022461 0.019716 0
   vertex -0.026469 0.026705 0.008549
   vertex -0.024494 0.026474 0
  endloop
 endfacet
 facet normal -0.855816 -0.129541 -0.500797
  outer loop
   vertex -0.023126 0.019279 0.006696
   vertex -0.025225 0.018846 0.010395
   vertex -0.026536 0.024542 0.011162
  endloop
 endfacet
 facet normal -0.896492 -0.329734 -0.295936
  outer loop
   vertex -0.023126 0.019279 0.006696
   vertex -0.026536 0.024542 0.011162
   vertex -0.026469 0.026705 0.008549
  endloop
 endfacet
 facet normal 0.654427 0.246861 -0.714692
  outer loop
   vertex -0.029872 0.01204 0.003789
   vertex -0.026536 0.024542 0.011162
   vertex -0.025225 0.018846 0.010395
  endloop
 endfacet
 facet normal -0.281451 -0.0169382 -0.959426
  outer loop
   vertex -0.018319 0.019469 -0.02113
   vertex -0.021004 0.023641 -0.020416
   vertex -0.012801 0.026112 -0.022866
  endloop
 endfacet
 facet normal 0.155175 -0.368433 -0.916612
  outer loop
   vertex -0.013283 0.020575 -0.020722
   vertex -0.018319 0.019469 -0.02113
   vertex -0.012801 0.026112 -0.022866
  endloop
 endfacet
 facet normal 0.151461 0.707524 -0.690268
  outer loop
   vertex -0.018319 0.019469 -0.02113
   vertex -0.024612 0.016342 -0.025716
   vertex -0.027639 0.02211 -0.020468
  endloop
 endfacet
 facet normal -0.0272313 0.151574 -0.988071
  outer loop
   vertex -0.021004 0.023641 -0.020416
   vertex -0.018319 0.019469 -0.02113
   vertex -0.027639 0.02211 -0.020468
  endloop
 endfacet
 facet normal 0.199928 -0.368885 -0.907719
  outer loop
   vertex -0.012801 0.026112 -0.022866
   vertex -0.003777 0.028392 -0.021805
   vertex -0.013283 0.020575 -0.020722
  endloop
 endfacet
 facet normal 0.266819 -0.70768 -0.654215
  outer loop
   vertex -0.024612 0.016342 -0.025716
   vertex -0.021338 0.013678 -0.021499
   vertex -0.02299 0.009386 -0.01753
  endloop
 endfacet
 facet normal -0.161393 -0.869722 -0.466408
  outer loop
   vertex -0.02299 0.009386 -0.01753
   vertex -0.031072 0.010941 -0.017633
   vertex -0.03427 0.01481 -0.023741
  endloop
 endfacet
 facet normal -0.514636 -0.831718 0.208317
  outer loop
   vertex -0.027132 0.009978 -0.025399
   vertex -0.02299 0.009386 -0.01753
   vertex -0.03427 0.01481 -0.023741
  endloop
 endfacet
 facet normal 0.818892 -0.347034 -0.457148
  outer loop
   vertex -0.027132 0.009978 -0.025399
   vertex -0.024612 0.016342 -0.025716
   vertex -0.02299 0.009386 -0.01753
  endloop
 endfacet
 facet normal -0.158051 -0.854261 -0.495236
  outer loop
   vertex -0.023876 0.005642 -0.010789
   vertex -0.031072 0.010941 -0.017633
   vertex -0.02299 0.009386 -0.01753
  endloop
 endfacet
 facet normal 0.842756 0.415891 0.341756
  outer loop
   vertex -0.029872 0.01204 -0.003789
   vertex -0.023876 0.005642 -0.010789
   vertex -0.02299 0.009386 -0.01753
  endloop
 endfacet
 facet normal 0.811444 -0.402718 -0.42353
  outer loop
   vertex -0.028897 0.011919 -0.02972
   vertex -0.028601 0.015641 -0.032692
   vertex -0.024612 0.016342 -0.025716
  endloop
 endfacet
 facet normal 0.805544 -0.343043 -0.483136
  outer loop
   vertex -0.027132 0.009978 -0.025399
   vertex -0.028897 0.011919 -0.02972
   vertex -0.024612 0.016342 -0.025716
  endloop
 endfacet
 facet normal 0.598092 0.687938 -0.411129
  outer loop
   vertex -0.024612 0.016342 -0.025716
   vertex -0.028601 0.015641 -0.032692
   vertex -0.027639 0.02211 -0.020468
  endloop
 endfacet
 facet normal 0.939375 0.333257 0.0807122
  outer loop
   vertex -0.025567 0.000252 -0.005221
   vertex -0.029872 0.01204 -0.003789
   vertex -0.02962 0.010412 0
  endloop
 endfacet
 facet normal -0.0370899 0.917252 0.396578
  outer loop
   vertex -0.038795 0.010041 0
   vertex -0.02962 0.010412 0
   vertex -0.029872 0.01204 -0.003789
  endloop
 endfacet
 facet normal 0.163774 0.659517 0.733631
  outer loop
   vertex -0.034096 0.017653 -0.007892
   vertex -0.038795 0.010041 0
   vertex -0.029872 0.01204 -0.003789
  endloop
 endfacet
 facet normal 0.835621 0.245475 0.491405
  outer loop
   vertex -0.029872 0.01204 -0.003789
   vertex -0.025567 0.000252 -0.005221
   vertex -0.023876 0.005642 -0.010789
  endloop
 endfacet
 facet normal -0.1166 0.527422 0.841564
  outer loop
   vertex -0.026536 0.024542 -0.011162
   vertex -0.034096 0.017653 -0.007892
   vertex -0.029872 0.01204 -0.003789
  endloop
 endfacet
 facet normal 0.859595 -0.178626 0.478738
  outer loop
   vertex 0.001581 0.026848 0.017974
   vertex 0.006938 0.034499 0.01121
   vertex 0.002008 0.031725 0.019027
  endloop
 endfacet
 facet normal 0.414923 -0.226587 0.881191
  outer loop
   vertex -0.003261 0.024756 0.019716
   vertex 0.001581 0.026848 0.017974
   vertex 0.002008 0.031725 0.019027
  endloop
 endfacet
 facet normal 0.561844 -0.350717 0.749219
  outer loop
   vertex -0.003261 0.024756 0.019716
   vertex 0.002008 0.031725 0.019027
   vertex -0.003777 0.028392 0.021805
  endloop
 endfacet
 facet normal 0.273016 -0.449819 0.850368
  outer loop
   vertex -0.013283 0.020575 0.020722
   vertex -0.003261 0.024756 0.019716
   vertex -0.003777 0.028392 0.021805
  endloop
 endfacet
 facet normal 0.199928 -0.368885 0.907719
  outer loop
   vertex -0.013283 0.020575 0.020722
   vertex -0.003777 0.028392 0.021805
   vertex -0.012801 0.026112 0.022866
  endloop
 endfacet
 facet normal 0.155175 -0.368433 0.916612
  outer loop
   vertex -0.012801 0.026112 0.022866
   vertex -0.018319 0.019469 0.02113
   vertex -0.013283 0.020575 0.020722
  endloop
 endfacet
 facet normal -0.281451 -0.0169382 0.959426
  outer loop
   vertex -0.012801 0.026112 0.022866
   vertex -0.021004 0.023641 0.020416
   vertex -0.018319 0.019469 0.02113
  endloop
 endfacet
 facet normal 0.151461 0.707524 0.690268
  outer loop
   vertex -0.027639 0.02211 0.020468
   vertex -0.024612 0.016342 0.025716
   vertex -0.018319 0.019469 0.02113
  endloop
 endfacet
 facet normal -0.0272313 0.151574 0.988071
  outer loop
   vertex -0.027639 0.02211 0.020468
   vertex -0.018319 0.019469 0.02113
   vertex -0.021004 0.023641 0.020416
  endloop
 endfacet
 facet normal -0.161393 -0.869722 0.466408
  outer loop
   vertex -0.03427 0.01481 0.023741
   vertex -0.031072 0.010941 0.017633
   vertex -0.02299 0.009386 0.01753
  endloop
 endfacet
 facet normal -0.514636 -0.831718 -0.208317
  outer loop
   vertex -0.03427 0.01481 0.023741
   vertex -0.02299 0.009386 0.01753
   vertex -0.027132 0.009978 0.025399
  endloop
 endfacet
 facet normal 0.266819 -0.70768 0.654215
  outer loop
   vertex -0.02299 0.009386 0.01753
   vertex -0.021338 0.013678 0.021499
   vertex -0.024612 0.016342 0.025716
  endloop
 endfacet
 facet normal 0.818892 -0.347034 0.457148
  outer loop
   vertex -0.02299 0.009386 0.01753
   vertex -0.024612 0.016342 0.025716
   vertex -0.027132 0.009978 0.025399
  endloop
 endfacet
 facet normal -0.158051 -0.854261 0.495236
  outer loop
   vertex -0.02299 0.009386 0.01753
   vertex -0.031072 0.010941 0.017633
   vertex -0.023876 0.005642 0.010789
  endloop
 endfacet
 facet normal 0.842756 0.415891 -0.341756
  outer loop
   vertex -0.02299 0.009386 0.01753
   vertex -0.023876 0.005642 0.010789
   vertex -0.029872 0.01204 0.003789
  endloop
 endfacet
 facet normal 0.811444 -0.402718 0.42353
  outer loop
   vertex -0.024612 0.016342 0.025716
   vertex -0.028601 0.015641 0.032692
   vertex -0.028897 0.011919 0.02972
  endloop
 endfacet
 facet normal 0.805544 -0.343043 0.483136
  outer loop
   vertex -0.024612 0.016342 0.025716
   vertex -0.028897 0.011919 0.02972
   vertex -0.027132 0.009978 0.025399
  endloop
 endfacet
 facet normal 0.598092 0.687938 0.411129
  outer loop
   vertex -0.027639 0.02211 0.020468
   vertex -0.028601 0.015641 0.032692
   vertex -0.024612 0.016342 0.025716
  endloop
 endfacet
 facet normal 0.939375 0.333257 -0.0807122
  outer loop
   vertex -0.02962 0.010412 0
   vertex -0.029872 0.01204 0.003789
   vertex -0.025567 0.000252 0.005221
  endloop
 endfacet
 facet normal -0.0370899 0.917252 -0.396578
  outer loop
   vertex -0.029872 0.01204 0.003789
   vertex -0.02962 0.010412 0
   vertex -0.038795 0.010041 0
  endloop
 endfacet
 facet normal 0.163774 0.659517 -0.733631
  outer loop
   vertex -0.029872 0.01204 0.003789
   vertex -0.038795 0.010041 0
   vertex -0.034096 0.017653 0.007892
  endloop
 endfacet
 facet normal 0.835621 0.245475 -0.491405
  outer loop
   vertex -0.023876 0.005642 0.010789
   vertex -0.025567 0.000252 0.005221
   vertex -0.029872 0.01204 0.003789
  endloop
 endfacet
 facet normal -0.1166 0.527422 -0.841564
  outer loop
   vertex -0.029872 0.01204 0.003789
   vertex -0.034096 0.017653 0.007892
   vertex -0.026536 0.024542 0.011162
  endloop
 endfacet
 facet normal 0.907418 0.412648 -0.0794677
  outer loop
   vertex 0.006938 0.034499 -0.01121
   vertex 0.004784 0.039196 -0.011416
   vertex 0.0055 0.03982 0
  endloop
 endfacet
 facet normal 0.92497 0.37535 -0.0595122
  outer loop
   vertex 0.007376 0.035197 0
   vertex 0.006938 0.034499 -0.01121
   vertex 0.0055 0.03982 0
  endloop
 endfacet
 facet normal 0.747349 0.31712 -0.583871
  outer loop
   vertex 0.004784 0.039196 -0.011416
   vertex 0.006938 0.034499 -0.01121
   vertex 0.002008 0.031725 -0.019027
  endloop
 endfacet
 facet normal 0.92497 0.37535 0.0595122
  outer loop
   vertex 0.0055 0.03982 0
   vertex 0.006938 0.034499 0.01121
   vertex 0.007376 0.035197 0
  endloop
 endfacet
 facet normal 0.907418 0.412648 0.0794677
  outer loop
   vertex 0.0055 0.03982 0
   vertex 0.004784 0.039196 0.011416
   vertex 0.006938 0.034499 0.01121
  endloop
 endfacet
 facet normal 0.747349 0.31712 0.583871
  outer loop
   vertex 0.002008 0.031725 0.019027
   vertex 0.006938 0.034499 0.01121
   vertex 0.004784 0.039196 0.011416
  endloop
 endfacet
 facet normal 0.774146 0.287086 -0.564163
  outer loop
   vertex -3.9e-05 0.03673 -0.019289
   vertex 0.004784 0.039196 -0.011416
   vertex 0.002008 0.031725 -0.019027
  endloop
 endfacet
 facet normal 0.405213 0.0571804 -0.912433
  outer loop
   vertex 0.002008 0.031725 -0.019027
   vertex -0.003777 0.028392 -0.021805
   vertex -0.006916 0.033802 -0.02286
  endloop
 endfacet
 facet normal 0.415661 0.122827 -0.901188
  outer loop
   vertex -3.9e-05 0.03673 -0.019289
   vertex 0.002008 0.031725 -0.019027
   vertex -0.006916 0.033802 -0.02286
  endloop
 endfacet
 facet normal 0.105067 0.0464278 -0.993381
  outer loop
   vertex -0.003777 0.028392 -0.021805
   vertex -0.012801 0.026112 -0.022866
   vertex -0.015551 0.029297 -0.023008
  endloop
 endfacet
 facet normal 0.0899813 -0.140079 -0.986043
  outer loop
   vertex -0.006916 0.033802 -0.02286
   vertex -0.003777 0.028392 -0.021805
   vertex -0.015551 0.029297 -0.023008
  endloop
 endfacet
 facet normal 0.472557 0.755345 -0.45403
  outer loop
   vertex -0.026469 0.026705 -0.008549
   vertex -0.028063 0.024154 -0.014452
   vertex -0.036016 0.027955 -0.016406
  endloop
 endfacet
 facet normal -0.25162 0.860659 0.442667
  outer loop
   vertex -0.036016 0.027955 -0.016406
   vertex -0.034882 0.025146 -0.0103
   vertex -0.026469 0.026705 -0.008549
  endloop
 endfacet
 facet normal -0.244295 0.273364 0.930372
  outer loop
   vertex -0.034882 0.025146 -0.0103
   vertex -0.034096 0.017653 -0.007892
   vertex -0.026469 0.026705 -0.008549
  endloop
 endfacet
 facet normal 0.700797 -0.558239 0.444132
  outer loop
   vertex -0.026536 0.024542 -0.011162
   vertex -0.026469 0.026705 -0.008549
   vertex -0.034096 0.017653 -0.007892
  endloop
 endfacet
 facet normal -0.403699 0.907279 0.117778
  outer loop
   vertex -0.009497 0.033147 0
   vertex -0.026469 0.026705 -0.008549
   vertex -0.024494 0.026474 0
  endloop
 endfacet
 facet normal -0.336628 0.940762 -0.0406062
  outer loop
   vertex -0.009497 0.033147 0
   vertex -0.024422 0.027049 -0.017549
   vertex -0.026469 0.026705 -0.008549
  endloop
 endfacet
 facet normal -0.681435 0.720697 -0.127442
  outer loop
   vertex -0.026469 0.026705 -0.008549
   vertex -0.024422 0.027049 -0.017549
   vertex -0.028063 0.024154 -0.014452
  endloop
 endfacet
 facet normal -0.403699 0.907279 -0.117778
  outer loop
   vertex -0.024494 0.026474 0
   vertex -0.026469 0.026705 0.008549
   vertex -0.009497 0.033147 0
  endloop
 endfacet
 facet normal 0.472557 0.755345 0.45403
  outer loop
   vertex -0.036016 0.027955 0.016406
   vertex -0.028063 0.024154 0.014452
   vertex -0.026469 0.026705 0.008549
  endloop
 endfacet
 facet normal -0.25162 0.860659 -0.442667
  outer loop
   vertex -0.026469 0.026705 0.008549
   vertex -0.034882 0.025146 0.0103
   vertex -0.036016 0.027955 0.016406
  endloop
 endfacet
 facet normal -0.244295 0.273364 -0.930372
  outer loop
   vertex -0.026469 0.026705 0.008549
   vertex -0.034096 0.017653 0.007892
   vertex -0.034882 0.025146 0.0103
  endloop
 endfacet
 facet normal 0.700797 -0.558239 -0.444132
  outer loop
   vertex -0.034096 0.017653 0.007892
   vertex -0.026469 0.026705 0.008549
   vertex -0.026536 0.024542 0.011162
  endloop
 endfacet
 facet normal -0.336628 0.940762 0.0406062
  outer loop
   vertex -0.026469 0.026705 0.008549
   vertex -0.024422 0.027049 0.017549
   vertex -0.009497 0.033147 0
  endloop
 endfacet
 facet normal -0.681435 0.720697 0.127442
  outer loop
   vertex -0.028063 0.024154 0.014452
   vertex -0.024422 0.027049 0.017549
   vertex -0.026469 0.026705 0.008549
  endloop
 endfacet
 facet normal -0.214967 -0.227947 -0.949647
  outer loop
   vertex -0.012801 0.026112 -0.022866
   vertex -0.021004 0.023641 -0.020416
   vertex -0.015551 0.029297 -0.023008
  endloop
 endfacet
 facet normal -0.123581 0.563318 -0.816946
  outer loop
   vertex -0.021004 0.023641 -0.020416
   vertex -0.027639 0.02211 -0.020468
   vertex -0.024422 0.027049 -0.017549
  endloop
 endfacet
 facet normal -0.545196 0.147442 -0.82524
  outer loop
   vertex -0.021004 0.023641 -0.020416
   vertex -0.024422 0.027049 -0.017549
   vertex -0.015551 0.029297 -0.023008
  endloop
 endfacet
 facet normal -0.728321 0.631541 -0.265904
  outer loop
   vertex -0.027639 0.02211 -0.020468
   vertex -0.028063 0.024154 -0.014452
   vertex -0.024422 0.027049 -0.017549
  endloop
 endfacet
 facet normal 0.522325 0.736033 -0.430618
  outer loop
   vertex -0.028601 0.015641 -0.032692
   vertex -0.032714 0.020618 -0.029174
   vertex -0.027639 0.02211 -0.020468
  endloop
 endfacet
 facet normal 0.288953 0.901248 -0.322892
  outer loop
   vertex -0.032792 0.024335 -0.018869
   vertex -0.027639 0.02211 -0.020468
   vertex -0.032714 0.020618 -0.029174
  endloop
 endfacet
 facet normal 0.303155 0.908589 -0.287337
  outer loop
   vertex -0.028063 0.024154 -0.014452
   vertex -0.027639 0.02211 -0.020468
   vertex -0.032792 0.024335 -0.018869
  endloop
 endfacet
 facet normal -0.514562 -0.147733 -0.844631
  outer loop
   vertex -0.031072 0.010941 -0.017633
   vertex -0.031654 0.00294 -0.015879
   vertex -0.035459 -0.00045 -0.012968
  endloop
 endfacet
 facet normal -0.112034 -0.864935 -0.489219
  outer loop
   vertex -0.03427 0.01481 -0.023741
   vertex -0.031072 0.010941 -0.017633
   vertex -0.039983 0.014369 -0.021653
  endloop
 endfacet
 facet normal -0.269397 -0.940916 -0.205191
  outer loop
   vertex -0.031072 0.010941 -0.017633
   vertex -0.040029 0.012831 -0.01454
   vertex -0.039983 0.014369 -0.021653
  endloop
 endfacet
 facet normal 0.585856 -0.213973 -0.781657
  outer loop
   vertex -0.023876 0.005642 -0.010789
   vertex -0.031654 0.00294 -0.015879
   vertex -0.031072 0.010941 -0.017633
  endloop
 endfacet
 facet normal -0.600412 -0.0939946 -0.794148
  outer loop
   vertex -0.035459 -0.00045 -0.012968
   vertex -0.037395 0.012187 -0.013
   vertex -0.031072 0.010941 -0.017633
  endloop
 endfacet
 facet normal -0.21793 -0.975332 -0.0351198
  outer loop
   vertex -0.037395 0.012187 -0.013
   vertex -0.040029 0.012831 -0.01454
   vertex -0.031072 0.010941 -0.017633
  endloop
 endfacet
 facet normal -0.347122 0.0683749 -0.935324
  outer loop
   vertex -0.03427 0.01481 -0.023741
   vertex -0.039983 0.014369 -0.021653
   vertex -0.042683 0.023561 -0.019979
  endloop
 endfacet
 facet normal -0.507616 -0.512129 -0.692857
  outer loop
   vertex -0.032714 0.020618 -0.029174
   vertex -0.027132 0.009978 -0.025399
   vertex -0.03427 0.01481 -0.023741
  endloop
 endfacet
 facet normal -0.901813 -0.140623 -0.408606
  outer loop
   vertex -0.032714 0.020618 -0.029174
   vertex -0.03427 0.01481 -0.023741
   vertex -0.036123 0.021155 -0.021835
  endloop
 endfacet
 facet normal -0.18473 0.232868 -0.954802
  outer loop
   vertex -0.036123 0.021155 -0.021835
   vertex -0.03427 0.01481 -0.023741
   vertex -0.042683 0.023561 -0.019979
  endloop
 endfacet
 facet normal -0.89576 -0.404605 0.184142
  outer loop
   vertex -0.032714 0.020618 -0.029174
   vertex -0.028897 0.011919 -0.02972
   vertex -0.027132 0.009978 -0.025399
  endloop
 endfacet
 facet normal 0.925662 0.0893764 0.367643
  outer loop
   vertex -0.022606 -0.0013 -0.012299
   vertex -0.023876 0.005642 -0.010789
   vertex -0.025567 0.000252 -0.005221
  endloop
 endfacet
 facet normal 0.337662 0.258634 -0.905037
  outer loop
   vertex -0.023876 0.005642 -0.010789
   vertex -0.022606 -0.0013 -0.012299
   vertex -0.033947 -0.004697 -0.017501
  endloop
 endfacet
 facet normal 0.543891 0.0148954 -0.839024
  outer loop
   vertex -0.031654 0.00294 -0.015879
   vertex -0.023876 0.005642 -0.010789
   vertex -0.033947 -0.004697 -0.017501
  endloop
 endfacet
 facet normal 0.456752 -0.707799 -0.538886
  outer loop
   vertex -0.028897 0.011919 -0.02972
   vertex -0.033372 0.011514 -0.032981
   vertex -0.032513 0.014494 -0.036167
  endloop
 endfacet
 facet normal 0.651386 -0.5044 -0.566813
  outer loop
   vertex -0.028601 0.015641 -0.032692
   vertex -0.028897 0.011919 -0.02972
   vertex -0.032513 0.014494 -0.036167
  endloop
 endfacet
 facet normal -0.562421 -0.214769 0.798472
  outer loop
   vertex -0.028897 0.011919 -0.02972
   vertex -0.036765 0.018678 -0.033444
   vertex -0.033372 0.011514 -0.032981
  endloop
 endfacet
 facet normal -0.613174 -0.314534 0.724628
  outer loop
   vertex -0.032714 0.020618 -0.029174
   vertex -0.036765 0.018678 -0.033444
   vertex -0.028897 0.011919 -0.02972
  endloop
 endfacet
 facet normal 0.337025 0.713071 -0.614772
  outer loop
   vertex -0.028601 0.015641 -0.032692
   vertex -0.032513 0.014494 -0.036167
   vertex -0.032714 0.020618 -0.029174
  endloop
 endfacet
 facet normal 0.835348 0.0780253 0.544156
  outer loop
   vertex -0.023987 -0.005268 -0.006855
   vertex -0.025567 0.000252 -0.005221
   vertex -0.028957 0.000134 0
  endloop
 endfacet
 facet normal 0.836931 0.0539876 0.54464
  outer loop
   vertex -0.028957 0.000134 0
   vertex -0.025567 0.000252 -0.005221
   vertex -0.02962 0.010412 0
  endloop
 endfacet
 facet normal 0.922627 0.160233 0.350836
  outer loop
   vertex -0.023987 -0.005268 -0.006855
   vertex -0.022606 -0.0013 -0.012299
   vertex -0.025567 0.000252 -0.005221
  endloop
 endfacet
 facet normal 0.836931 0.0539876 -0.54464
  outer loop
   vertex -0.02962 0.010412 0
   vertex -0.025567 0.000252 0.005221
   vertex -0.028957 0.000134 0
  endloop
 endfacet
 facet normal -0.779636 0.471613 -0.412006
  outer loop
   vertex -0.038795 0.010041 0
   vertex -0.038663 0.005837 -0.005062
   vertex -0.045492 -0.00103 0
  endloop
 endfacet
 facet normal -0.516137 0.65224 -0.555145
  outer loop
   vertex -0.034477 0.006225 -0.008498
   vertex -0.038663 0.005837 -0.005062
   vertex -0.038795 0.010041 0
  endloop
 endfacet
 facet normal -0.87887 -0.393344 -0.269941
  outer loop
   vertex -0.035885 0.010854 -0.010659
   vertex -0.034477 0.006225 -0.008498
   vertex -0.038795 0.010041 0
  endloop
 endfacet
 facet normal -0.915956 0.332462 -0.224706
  outer loop
   vertex -0.038795 0.010041 0
   vertex -0.034096 0.017653 -0.007892
   vertex -0.035885 0.010854 -0.010659
  endloop
 endfacet
 facet normal -0.779636 0.471613 0.412006
  outer loop
   vertex -0.045492 -0.00103 0
   vertex -0.038663 0.005837 0.005062
   vertex -0.038795 0.010041 0
  endloop
 endfacet
 facet normal -0.516137 0.65224 0.555145
  outer loop
   vertex -0.038795 0.010041 0
   vertex -0.038663 0.005837 0.005062
   vertex -0.034477 0.006225 0.008498
  endloop
 endfacet
 facet normal -0.87887 -0.393344 0.269941
  outer loop
   vertex -0.038795 0.010041 0
   vertex -0.034477 0.006225 0.008498
   vertex -0.035885 0.010854 0.010659
  endloop
 endfacet
 facet normal -0.915956 0.332462 0.224706
  outer loop
   vertex -0.035885 0.010854 0.010659
   vertex -0.034096 0.017653 0.007892
   vertex -0.038795 0.010041 0
  endloop
 endfacet
 facet normal -0.940943 0.11852 0.317142
  outer loop
   vertex -0.034096 0.017653 -0.007892
   vertex -0.035339 0.017787 -0.01163
   vertex -0.035885 0.010854 -0.010659
  endloop
 endfacet
 facet normal -0.948889 0.00188752 0.315603
  outer loop
   vertex -0.034882 0.025146 -0.0103
   vertex -0.035339 0.017787 -0.01163
   vertex -0.034096 0.017653 -0.007892
  endloop
 endfacet
 facet normal 0.774146 0.287086 0.564163
  outer loop
   vertex 0.002008 0.031725 0.019027
   vertex 0.004784 0.039196 0.011416
   vertex -3.9e-05 0.03673 0.019289
  endloop
 endfacet
 facet normal 0.405213 0.0571804 0.912433
  outer loop
   vertex -0.006916 0.033802 0.02286
   vertex -0.003777 0.028392 0.021805
   vertex 0.002008 0.031725 0.019027
  endloop
 endfacet
 facet normal 0.415661 0.122827 0.901188
  outer loop
   vertex -0.006916 0.033802 0.02286
   vertex 0.002008 0.031725 0.019027
   vertex -3.9e-05 0.03673 0.019289
  endloop
 endfacet
 facet normal 0.105067 0.0464278 0.993381
  outer loop
   vertex -0.015551 0.029297 0.023008
   vertex -0.012801 0.026112 0.022866
   vertex -0.003777 0.028392 0.021805
  endloop
 endfacet
 facet normal 0.0899813 -0.140079 0.986043
  outer loop
   vertex -0.015551 0.029297 0.023008
   vertex -0.003777 0.028392 0.021805
   vertex -0.006916 0.033802 0.02286
  endloop
 endfacet
 facet normal -0.214967 -0.227947 0.949647
  outer loop
   vertex -0.015551 0.029297 0.023008
   vertex -0.021004 0.023641 0.020416
   vertex -0.012801 0.026112 0.022866
  endloop
 endfacet
 facet normal -0.123581 0.563318 0.816946
  outer loop
   vertex -0.024422 0.027049 0.017549
   vertex -0.027639 0.02211 0.020468
   vertex -0.021004 0.023641 0.020416
  endloop
 endfacet
 facet normal -0.545196 0.147442 0.82524
  outer loop
   vertex -0.015551 0.029297 0.023008
   vertex -0.024422 0.027049 0.017549
   vertex -0.021004 0.023641 0.020416
  endloop
 endfacet
 facet normal -0.728321 0.631541 0.265904
  outer loop
   vertex -0.024422 0.027049 0.017549
   vertex -0.028063 0.024154 0.014452
   vertex -0.027639 0.02211 0.020468
  endloop
 endfacet
 facet normal 0.522325 0.736033 0.430618
  outer loop
   vertex -0.027639 0.02211 0.020468
   vertex -0.032714 0.020618 0.029174
   vertex -0.028601 0.015641 0.032692
  endloop
 endfacet
 facet normal 0.288953 0.901248 0.322892
  outer loop
   vertex -0.032714 0.020618 0.029174
   vertex -0.027639 0.02211 0.020468
   vertex -0.032792 0.024335 0.018869
  endloop
 endfacet
 facet normal 0.303155 0.908589 0.287337
  outer loop
   vertex -0.032792 0.024335 0.018869
   vertex -0.027639 0.02211 0.020468
   vertex -0.028063 0.024154 0.014452
  endloop
 endfacet
 facet normal -0.347122 0.0683749 0.935324
  outer loop
   vertex -0.042683 0.023561 0.019979
   vertex -0.039983 0.014369 0.021653
   vertex -0.03427 0.01481 0.023741
  endloop
 endfacet
 facet normal -0.112034 -0.864935 0.489219
  outer loop
   vertex -0.039983 0.014369 0.021653
   vertex -0.031072 0.010941 0.017633
   vertex -0.03427 0.01481 0.023741
  endloop
 endfacet
 facet normal -0.507616 -0.512129 0.692857
  outer loop
   vertex -0.03427 0.01481 0.023741
   vertex -0.027132 0.009978 0.025399
   vertex -0.032714 0.020618 0.029174
  endloop
 endfacet
 facet normal -0.901813 -0.140623 0.408606
  outer loop
   vertex -0.036123 0.021155 0.021835
   vertex -0.03427 0.01481 0.023741
   vertex -0.032714 0.020618 0.029174
  endloop
 endfacet
 facet normal -0.18473 0.232868 0.954802
  outer loop
   vertex -0.042683 0.023561 0.019979
   vertex -0.03427 0.01481 0.023741
   vertex -0.036123 0.021155 0.021835
  endloop
 endfacet
 facet normal -0.514562 -0.147733 0.844631
  outer loop
   vertex -0.035459 -0.00045 0.012968
   vertex -0.031654 0.00294 0.015879
   vertex -0.031072 0.010941 0.017633
  endloop
 endfacet
 facet normal -0.269397 -0.940916 0.205191
  outer loop
   vertex -0.039983 0.014369 0.021653
   vertex -0.040029 0.012831 0.01454
   vertex -0.031072 0.010941 0.017633
  endloop
 endfacet
 facet normal 0.585856 -0.213973 0.781657
  outer loop
   vertex -0.031072 0.010941 0.017633
   vertex -0.031654 0.00294 0.015879
   vertex -0.023876 0.005642 0.010789
  endloop
 endfacet
 facet normal -0.600412 -0.0939946 0.794148
  outer loop
   vertex -0.031072 0.010941 0.017633
   vertex -0.037395 0.012187 0.013
   vertex -0.035459 -0.00045 0.012968
  endloop
 endfacet
 facet normal -0.21793 -0.975332 0.0351198
  outer loop
   vertex -0.031072 0.010941 0.017633
   vertex -0.040029 0.012831 0.01454
   vertex -0.037395 0.012187 0.013
  endloop
 endfacet
 facet normal -0.89576 -0.404605 -0.184142
  outer loop
   vertex -0.027132 0.009978 0.025399
   vertex -0.028897 0.011919 0.02972
   vertex -0.032714 0.020618 0.029174
  endloop
 endfacet
 facet normal 0.925662 0.0893764 -0.367643
  outer loop
   vertex -0.025567 0.000252 0.005221
   vertex -0.023876 0.005642 0.010789
   vertex -0.022606 -0.0013 0.012299
  endloop
 endfacet
 facet normal 0.337662 0.258634 0.905037
  outer loop
   vertex -0.033947 -0.004697 0.017501
   vertex -0.022606 -0.0013 0.012299
   vertex -0.023876 0.005642 0.010789
  endloop
 endfacet
 facet normal 0.543891 0.0148954 0.839024
  outer loop
   vertex -0.033947 -0.004697 0.017501
   vertex -0.023876 0.005642 0.010789
   vertex -0.031654 0.00294 0.015879
  endloop
 endfacet
 facet normal 0.337025 0.713071 0.614772
  outer loop
   vertex -0.032714 0.020618 0.029174
   vertex -0.032513 0.014494 0.036167
   vertex -0.028601 0.015641 0.032692
  endloop
 endfacet
 facet normal 0.651386 -0.5044 0.566813
  outer loop
   vertex -0.032513 0.014494 0.036167
   vertex -0.028897 0.011919 0.02972
   vertex -0.028601 0.015641 0.032692
  endloop
 endfacet
 facet normal 0.456752 -0.707799 0.538886
  outer loop
   vertex -0.032513 0.014494 0.036167
   vertex -0.033372 0.011514 0.032981
   vertex -0.028897 0.011919 0.02972
  endloop
 endfacet
 facet normal -0.562421 -0.214769 -0.798472
  outer loop
   vertex -0.033372 0.011514 0.032981
   vertex -0.036765 0.018678 0.033444
   vertex -0.028897 0.011919 0.02972
  endloop
 endfacet
 facet normal -0.613174 -0.314534 -0.724628
  outer loop
   vertex -0.028897 0.011919 0.02972
   vertex -0.036765 0.018678 0.033444
   vertex -0.032714 0.020618 0.029174
  endloop
 endfacet
 facet normal 0.835348 0.0780253 -0.544156
  outer loop
   vertex -0.028957 0.000134 0
   vertex -0.025567 0.000252 0.005221
   vertex -0.023987 -0.005268 0.006855
  endloop
 endfacet
 facet normal 0.922627 0.160233 -0.350836
  outer loop
   vertex -0.025567 0.000252 0.005221
   vertex -0.022606 -0.0013 0.012299
   vertex -0.023987 -0.005268 0.006855
  endloop
 endfacet
 facet normal -0.940943 0.11852 -0.317142
  outer loop
   vertex -0.035885 0.010854 0.010659
   vertex -0.035339 0.017787 0.01163
   vertex -0.034096 0.017653 0.007892
  endloop
 endfacet
 facet normal -0.948889 0.00188752 -0.315603
  outer loop
   vertex -0.034096 0.017653 0.007892
   vertex -0.035339 0.017787 0.01163
   vertex -0.034882 0.025146 0.0103
  endloop
 endfacet
 facet normal -0.411967 0.910607 -0.0328517
  outer loop
   vertex -0.009497 0.033147 0
   vertex 0.004784 0.039196 -0.011416
   vertex -3.9e-05 0.03673 -0.019289
  endloop
 endfacet
 facet normal -0.406407 0.913365 -0.0244353
  outer loop
   vertex -0.009497 0.033147 0
   vertex 0.0055 0.03982 0
   vertex 0.004784 0.039196 -0.011416
  endloop
 endfacet
 facet normal -0.406407 0.913365 0.0244353
  outer loop
   vertex 0.004784 0.039196 0.011416
   vertex 0.0055 0.03982 0
   vertex -0.009497 0.033147 0
  endloop
 endfacet
 facet normal -0.411967 0.910607 0.0328517
  outer loop
   vertex -3.9e-05 0.03673 0.019289
   vertex 0.004784 0.039196 0.011416
   vertex -0.009497 0.033147 0
  endloop
 endfacet
 facet normal -0.384226 0.923084 -0.0169322
  outer loop
   vertex -0.009497 0.033147 0
   vertex -3.9e-05 0.03673 -0.019289
   vertex -0.006916 0.033802 -0.02286
  endloop
 endfacet
 facet normal -0.462022 0.886464 -0.0267649
  outer loop
   vertex -0.009497 0.033147 0
   vertex -0.006916 0.033802 -0.02286
   vertex -0.015551 0.029297 -0.023008
  endloop
 endfacet
 facet normal -0.292235 0.952778 -0.0825368
  outer loop
   vertex -0.009497 0.033147 0
   vertex -0.015551 0.029297 -0.023008
   vertex -0.024422 0.027049 -0.017549
  endloop
 endfacet
 facet normal 0.471757 0.743083 -0.47463
  outer loop
   vertex -0.032792 0.024335 -0.018869
   vertex -0.036016 0.027955 -0.016406
   vertex -0.028063 0.024154 -0.014452
  endloop
 endfacet
 facet normal 0.0445011 0.588761 -0.807081
  outer loop
   vertex -0.036016 0.027955 -0.016406
   vertex -0.032792 0.024335 -0.018869
   vertex -0.042683 0.023561 -0.019979
  endloop
 endfacet
 facet normal -0.635301 0.701707 0.322489
  outer loop
   vertex -0.036016 0.027955 -0.016406
   vertex -0.042683 0.023561 -0.019979
   vertex -0.04715 0.01803 -0.016744
  endloop
 endfacet
 facet normal -0.308796 0.315859 0.89715
  outer loop
   vertex -0.039822 0.018187 -0.014277
   vertex -0.036016 0.027955 -0.016406
   vertex -0.04715 0.01803 -0.016744
  endloop
 endfacet
 facet normal -0.451771 0.354467 0.818691
  outer loop
   vertex -0.039822 0.018187 -0.014277
   vertex -0.035339 0.017787 -0.01163
   vertex -0.036016 0.027955 -0.016406
  endloop
 endfacet
 facet normal -0.980659 0.0258358 0.194012
  outer loop
   vertex -0.034882 0.025146 -0.0103
   vertex -0.036016 0.027955 -0.016406
   vertex -0.035339 0.017787 -0.01163
  endloop
 endfacet
 facet normal -0.384226 0.923084 0.0169322
  outer loop
   vertex -0.006916 0.033802 0.02286
   vertex -3.9e-05 0.03673 0.019289
   vertex -0.009497 0.033147 0
  endloop
 endfacet
 facet normal -0.462022 0.886464 0.0267649
  outer loop
   vertex -0.015551 0.029297 0.023008
   vertex -0.006916 0.033802 0.02286
   vertex -0.009497 0.033147 0
  endloop
 endfacet
 facet normal -0.292235 0.952778 0.0825368
  outer loop
   vertex -0.024422 0.027049 0.017549
   vertex -0.015551 0.029297 0.023008
   vertex -0.009497 0.033147 0
  endloop
 endfacet
 facet normal 0.471757 0.743083 0.47463
  outer loop
   vertex -0.028063 0.024154 0.014452
   vertex -0.036016 0.027955 0.016406
   vertex -0.032792 0.024335 0.018869
  endloop
 endfacet
 facet normal 0.0445011 0.588761 0.807081
  outer loop
   vertex -0.042683 0.023561 0.019979
   vertex -0.032792 0.024335 0.018869
   vertex -0.036016 0.027955 0.016406
  endloop
 endfacet
 facet normal -0.635301 0.701707 -0.322489
  outer loop
   vertex -0.04715 0.01803 0.016744
   vertex -0.042683 0.023561 0.019979
   vertex -0.036016 0.027955 0.016406
  endloop
 endfacet
 facet normal -0.308796 0.315859 -0.89715
  outer loop
   vertex -0.04715 0.01803 0.016744
   vertex -0.036016 0.027955 0.016406
   vertex -0.039822 0.018187 0.014277
  endloop
 endfacet
 facet normal -0.451771 0.354467 -0.818691
  outer loop
   vertex -0.036016 0.027955 0.016406
   vertex -0.035339 0.017787 0.01163
   vertex -0.039822 0.018187 0.014277
  endloop
 endfacet
 facet normal -0.980659 0.0258358 -0.194012
  outer loop
   vertex -0.035339 0.017787 0.01163
   vertex -0.036016 0.027955 0.016406
   vertex -0.034882 0.025146 0.0103
  endloop
 endfacet
 facet normal 0.310229 0.719588 -0.62125
  outer loop
   vertex -0.032513 0.014494 -0.036167
   vertex -0.036765 0.018678 -0.033444
   vertex -0.032714 0.020618 -0.029174
  endloop
 endfacet
 facet normal -0.5088 0.808579 -0.295504
  outer loop
   vertex -0.036123 0.021155 -0.021835
   vertex -0.032792 0.024335 -0.018869
   vertex -0.032714 0.020618 -0.029174
  endloop
 endfacet
 facet normal 0.0319429 0.663626 -0.747382
  outer loop
   vertex -0.032792 0.024335 -0.018869
   vertex -0.036123 0.021155 -0.021835
   vertex -0.042683 0.023561 -0.019979
  endloop
 endfacet
 facet normal -0.744562 0.344939 -0.571528
  outer loop
   vertex -0.035459 -0.00045 -0.012968
   vertex -0.031654 0.00294 -0.015879
   vertex -0.033947 -0.004697 -0.017501
  endloop
 endfacet
 facet normal -0.602197 -0.249832 -0.75825
  outer loop
   vertex -0.035599 -0.009248 -0.009958
   vertex -0.036903 -0.004387 -0.010524
   vertex -0.035459 -0.00045 -0.012968
  endloop
 endfacet
 facet normal -0.892413 -0.133284 -0.431085
  outer loop
   vertex -0.031712 -0.011676 -0.017254
   vertex -0.035599 -0.009248 -0.009958
   vertex -0.035459 -0.00045 -0.012968
  endloop
 endfacet
 facet normal -0.951584 -0.305834 -0.0308673
  outer loop
   vertex -0.033947 -0.004697 -0.017501
   vertex -0.031712 -0.011676 -0.017254
   vertex -0.035459 -0.00045 -0.012968
  endloop
 endfacet
 facet normal -0.949387 0.195686 -0.245704
  outer loop
   vertex -0.036004 0.001804 -0.009067
   vertex -0.035459 -0.00045 -0.012968
   vertex -0.036903 -0.004387 -0.010524
  endloop
 endfacet
 facet normal -0.987189 -0.151366 -0.0504583
  outer loop
   vertex -0.035459 -0.00045 -0.012968
   vertex -0.036004 0.001804 -0.009067
   vertex -0.037395 0.012187 -0.013
  endloop
 endfacet
 facet normal 0.233483 0.240176 -0.942232
  outer loop
   vertex -0.039983 0.014369 -0.021653
   vertex -0.04486 0.017176 -0.022146
   vertex -0.042683 0.023561 -0.019979
  endloop
 endfacet
 facet normal -0.374117 -0.746619 -0.550087
  outer loop
   vertex -0.045871 0.01404 -0.017202
   vertex -0.04486 0.017176 -0.022146
   vertex -0.039983 0.014369 -0.021653
  endloop
 endfacet
 facet normal -0.105064 -0.971863 -0.210819
  outer loop
   vertex -0.045871 0.01404 -0.017202
   vertex -0.039983 0.014369 -0.021653
   vertex -0.040029 0.012831 -0.01454
  endloop
 endfacet
 facet normal -0.443298 -0.241197 0.863314
  outer loop
   vertex -0.04715 0.01803 -0.016744
   vertex -0.045871 0.01404 -0.017202
   vertex -0.040029 0.012831 -0.01454
  endloop
 endfacet
 facet normal -0.318213 -0.0342226 0.947401
  outer loop
   vertex -0.039822 0.018187 -0.014277
   vertex -0.04715 0.01803 -0.016744
   vertex -0.040029 0.012831 -0.01454
  endloop
 endfacet
 facet normal -0.508893 -0.0236797 0.860504
  outer loop
   vertex -0.040029 0.012831 -0.01454
   vertex -0.037395 0.012187 -0.013
   vertex -0.035339 0.017787 -0.01163
  endloop
 endfacet
 facet normal -0.509799 -0.0225264 0.859999
  outer loop
   vertex -0.039822 0.018187 -0.014277
   vertex -0.040029 0.012831 -0.01454
   vertex -0.035339 0.017787 -0.01163
  endloop
 endfacet
 facet normal -0.791624 0.145457 0.593442
  outer loop
   vertex -0.035339 0.017787 -0.01163
   vertex -0.037395 0.012187 -0.013
   vertex -0.035885 0.010854 -0.010659
  endloop
 endfacet
 facet normal -0.717531 0.160603 0.677758
  outer loop
   vertex -0.034477 0.006225 -0.008498
   vertex -0.037395 0.012187 -0.013
   vertex -0.036004 0.001804 -0.009067
  endloop
 endfacet
 facet normal -0.841248 -0.00349086 0.540638
  outer loop
   vertex -0.035885 0.010854 -0.010659
   vertex -0.037395 0.012187 -0.013
   vertex -0.034477 0.006225 -0.008498
  endloop
 endfacet
 facet normal -0.811802 0.415899 -0.409886
  outer loop
   vertex -0.04715 0.01803 -0.016744
   vertex -0.042683 0.023561 -0.019979
   vertex -0.04486 0.017176 -0.022146
  endloop
 endfacet
 facet normal 0.392381 0.0915663 -0.915234
  outer loop
   vertex -0.022606 -0.0013 -0.012299
   vertex -0.022843 -0.013948 -0.013666
   vertex -0.033947 -0.004697 -0.017501
  endloop
 endfacet
 facet normal 0.975282 -0.0417272 0.21699
  outer loop
   vertex -0.023987 -0.005268 -0.006855
   vertex -0.022843 -0.013948 -0.013666
   vertex -0.022606 -0.0013 -0.012299
  endloop
 endfacet
 facet normal 0.39393 0.0937942 -0.914342
  outer loop
   vertex -0.022843 -0.013948 -0.013666
   vertex -0.031712 -0.011676 -0.017254
   vertex -0.033947 -0.004697 -0.017501
  endloop
 endfacet
 facet normal -0.73553 -0.384415 -0.557871
  outer loop
   vertex -0.033372 0.011514 -0.032981
   vertex -0.036765 0.018678 -0.033444
   vertex -0.032513 0.014494 -0.036167
  endloop
 endfacet
 facet normal 0.748014 -0.136102 0.649578
  outer loop
   vertex -0.025839 -0.008717 -0.005445
   vertex -0.023987 -0.005268 -0.006855
   vertex -0.028957 0.000134 0
  endloop
 endfacet
 facet normal 0.842516 -0.259403 0.472098
  outer loop
   vertex -0.025839 -0.008717 -0.005445
   vertex -0.022843 -0.013948 -0.013666
   vertex -0.023987 -0.005268 -0.006855
  endloop
 endfacet
 facet normal 0.782387 -0.10231 0.614331
  outer loop
   vertex -0.029813 -0.006412 0
   vertex -0.025839 -0.008717 -0.005445
   vertex -0.028957 0.000134 0
  endloop
 endfacet
 facet normal 0.748014 -0.136102 -0.649578
  outer loop
   vertex -0.028957 0.000134 0
   vertex -0.023987 -0.005268 0.006855
   vertex -0.025839 -0.008717 0.005445
  endloop
 endfacet
 facet normal 0.782387 -0.10231 -0.614331
  outer loop
   vertex -0.028957 0.000134 0
   vertex -0.025839 -0.008717 0.005445
   vertex -0.029813 -0.006412 0
  endloop
 endfacet
 facet normal -0.699953 0.18823 -0.688938
  outer loop
   vertex -0.045492 -0.00103 0
   vertex -0.038663 0.005837 -0.005062
   vertex -0.041047 -0.000144 -0.004274
  endloop
 endfacet
 facet normal -0.635403 0.153566 -0.756756
  outer loop
   vertex -0.038663 0.005837 -0.005062
   vertex -0.034477 0.006225 -0.008498
   vertex -0.041047 -0.000144 -0.004274
  endloop
 endfacet
 facet normal -0.406521 0.492651 -0.769439
  outer loop
   vertex -0.042845 -0.005343 -0.00416
   vertex -0.053517 -0.007652 0
   vertex -0.045492 -0.00103 0
  endloop
 endfacet
 facet normal -0.69817 0.226561 -0.679138
  outer loop
   vertex -0.041047 -0.000144 -0.004274
   vertex -0.042845 -0.005343 -0.00416
   vertex -0.045492 -0.00103 0
  endloop
 endfacet
 facet normal -0.699953 0.18823 0.688938
  outer loop
   vertex -0.041047 -0.000144 0.004274
   vertex -0.038663 0.005837 0.005062
   vertex -0.045492 -0.00103 0
  endloop
 endfacet
 facet normal -0.406521 0.492651 0.769439
  outer loop
   vertex -0.045492 -0.00103 0
   vertex -0.053517 -0.007652 0
   vertex -0.042845 -0.005343 0.00416
  endloop
 endfacet
 facet normal -0.69817 0.226561 0.679138
  outer loop
   vertex -0.045492 -0.00103 0
   vertex -0.042845 -0.005343 0.00416
   vertex -0.041047 -0.000144 0.004274
  endloop
 endfacet
 facet normal -0.714373 0.326407 -0.618974
  outer loop
   vertex -0.034477 0.006225 -0.008498
   vertex -0.036004 0.001804 -0.009067
   vertex -0.041047 -0.000144 -0.004274
  endloop
 endfacet
 facet normal -0.635403 0.153566 0.756756
  outer loop
   vertex -0.041047 -0.000144 0.004274
   vertex -0.034477 0.006225 0.008498
   vertex -0.038663 0.005837 0.005062
  endloop
 endfacet
 facet normal -0.714373 0.326407 0.618974
  outer loop
   vertex -0.041047 -0.000144 0.004274
   vertex -0.036004 0.001804 0.009067
   vertex -0.034477 0.006225 0.008498
  endloop
 endfacet
 facet normal -0.717531 0.160603 -0.677758
  outer loop
   vertex -0.036004 0.001804 0.009067
   vertex -0.037395 0.012187 0.013
   vertex -0.034477 0.006225 0.008498
  endloop
 endfacet
 facet normal -0.841248 -0.00349086 -0.540638
  outer loop
   vertex -0.034477 0.006225 0.008498
   vertex -0.037395 0.012187 0.013
   vertex -0.035885 0.010854 0.010659
  endloop
 endfacet
 facet normal -0.791624 0.145457 -0.593442
  outer loop
   vertex -0.035885 0.010854 0.010659
   vertex -0.037395 0.012187 0.013
   vertex -0.035339 0.017787 0.01163
  endloop
 endfacet
 facet normal 0.310229 0.719588 0.62125
  outer loop
   vertex -0.032714 0.020618 0.029174
   vertex -0.036765 0.018678 0.033444
   vertex -0.032513 0.014494 0.036167
  endloop
 endfacet
 facet normal -0.5088 0.808579 0.295504
  outer loop
   vertex -0.032714 0.020618 0.029174
   vertex -0.032792 0.024335 0.018869
   vertex -0.036123 0.021155 0.021835
  endloop
 endfacet
 facet normal 0.0319429 0.663626 0.747382
  outer loop
   vertex -0.042683 0.023561 0.019979
   vertex -0.036123 0.021155 0.021835
   vertex -0.032792 0.024335 0.018869
  endloop
 endfacet
 facet normal 0.233483 0.240176 0.942232
  outer loop
   vertex -0.042683 0.023561 0.019979
   vertex -0.04486 0.017176 0.022146
   vertex -0.039983 0.014369 0.021653
  endloop
 endfacet
 facet normal -0.811802 0.415899 0.409886
  outer loop
   vertex -0.04486 0.017176 0.022146
   vertex -0.042683 0.023561 0.019979
   vertex -0.04715 0.01803 0.016744
  endloop
 endfacet
 facet normal -0.374117 -0.746619 0.550087
  outer loop
   vertex -0.039983 0.014369 0.021653
   vertex -0.04486 0.017176 0.022146
   vertex -0.045871 0.01404 0.017202
  endloop
 endfacet
 facet normal -0.105064 -0.971863 0.210819
  outer loop
   vertex -0.040029 0.012831 0.01454
   vertex -0.039983 0.014369 0.021653
   vertex -0.045871 0.01404 0.017202
  endloop
 endfacet
 facet normal -0.744562 0.344939 0.571528
  outer loop
   vertex -0.033947 -0.004697 0.017501
   vertex -0.031654 0.00294 0.015879
   vertex -0.035459 -0.00045 0.012968
  endloop
 endfacet
 facet normal -0.602197 -0.249832 0.75825
  outer loop
   vertex -0.035459 -0.00045 0.012968
   vertex -0.036903 -0.004387 0.010524
   vertex -0.035599 -0.009248 0.009958
  endloop
 endfacet
 facet normal -0.892413 -0.133284 0.431085
  outer loop
   vertex -0.035459 -0.00045 0.012968
   vertex -0.035599 -0.009248 0.009958
   vertex -0.031712 -0.011676 0.017254
  endloop
 endfacet
 facet normal -0.951584 -0.305834 0.0308673
  outer loop
   vertex -0.035459 -0.00045 0.012968
   vertex -0.031712 -0.011676 0.017254
   vertex -0.033947 -0.004697 0.017501
  endloop
 endfacet
 facet normal -0.949387 0.195686 0.245704
  outer loop
   vertex -0.036903 -0.004387 0.010524
   vertex -0.035459 -0.00045 0.012968
   vertex -0.036004 0.001804 0.009067
  endloop
 endfacet
 facet normal -0.987189 -0.151366 0.0504583
  outer loop
   vertex -0.037395 0.012187 0.013
   vertex -0.036004 0.001804 0.009067
   vertex -0.035459 -0.00045 0.012968
  endloop
 endfacet
 facet normal -0.443298 -0.241197 -0.863314
  outer loop
   vertex -0.040029 0.012831 0.01454
   vertex -0.045871 0.01404 0.017202
   vertex -0.04715 0.01803 0.016744
  endloop
 endfacet
 facet normal -0.318213 -0.0342226 -0.947401
  outer loop
   vertex -0.040029 0.012831 0.01454
   vertex -0.04715 0.01803 0.016744
   vertex -0.039822 0.018187 0.014277
  endloop
 endfacet
 facet normal -0.508893 -0.0236797 -0.860504
  outer loop
   vertex -0.035339 0.017787 0.01163
   vertex -0.037395 0.012187 0.013
   vertex -0.040029 0.012831 0.01454
  endloop
 endfacet
 facet normal -0.509799 -0.0225264 -0.859999
  outer loop
   vertex -0.035339 0.017787 0.01163
   vertex -0.040029 0.012831 0.01454
   vertex -0.039822 0.018187 0.014277
  endloop
 endfacet
 facet normal 0.392381 0.0915663 0.915234
  outer loop
   vertex -0.033947 -0.004697 0.017501
   vertex -0.022843 -0.013948 0.013666
   vertex -0.022606 -0.0013 0.012299
  endloop
 endfacet
 facet normal 0.975282 -0.0417272 -0.21699
  outer loop
   vertex -0.022606 -0.0013 0.012299
   vertex -0.022843 -0.013948 0.013666
   vertex -0.023987 -0.005268 0.006855
  endloop
 endfacet
 facet normal 0.39393 0.0937942 0.914342
  outer loop
   vertex -0.033947 -0.004697 0.017501
   vertex -0.031712 -0.011676 0.017254
   vertex -0.022843 -0.013948 0.013666
  endloop
 endfacet
 facet normal -0.73553 -0.384415 0.557871
  outer loop
   vertex -0.032513 0.014494 0.036167
   vertex -0.036765 0.018678 0.033444
   vertex -0.033372 0.011514 0.032981
  endloop
 endfacet
 facet normal 0.842516 -0.259403 -0.472098
  outer loop
   vertex -0.023987 -0.005268 0.006855
   vertex -0.022843 -0.013948 0.013666
   vertex -0.025839 -0.008717 0.005445
  endloop
 endfacet
 facet normal -0.904917 -0.250586 -0.343994
  outer loop
   vertex -0.045871 0.01404 -0.017202
   vertex -0.04715 0.01803 -0.016744
   vertex -0.04486 0.017176 -0.022146
  endloop
 endfacet
 facet normal -0.904917 -0.250586 0.343994
  outer loop
   vertex -0.04486 0.017176 0.022146
   vertex -0.04715 0.01803 0.016744
   vertex -0.045871 0.01404 0.017202
  endloop
 endfacet
 facet normal -0.642776 -0.256479 -0.721843
  outer loop
   vertex -0.036903 -0.004387 -0.010524
   vertex -0.035599 -0.009248 -0.009958
   vertex -0.041619 -0.009964 -0.004343
  endloop
 endfacet
 facet normal -0.0988377 -0.913751 -0.394068
  outer loop
   vertex -0.035599 -0.009248 -0.009958
   vertex -0.030916 -0.010674 -0.007826
   vertex -0.036387 -0.01126 -0.005095
  endloop
 endfacet
 facet normal -0.27427 -0.87209 -0.405258
  outer loop
   vertex -0.041619 -0.009964 -0.004343
   vertex -0.035599 -0.009248 -0.009958
   vertex -0.036387 -0.01126 -0.005095
  endloop
 endfacet
 facet normal -0.341703 -0.931078 0.127804
  outer loop
   vertex -0.035599 -0.009248 -0.009958
   vertex -0.031712 -0.011676 -0.017254
   vertex -0.030916 -0.010674 -0.007826
  endloop
 endfacet
 facet normal -0.725486 0.255724 -0.638964
  outer loop
   vertex -0.036004 0.001804 -0.009067
   vertex -0.036903 -0.004387 -0.010524
   vertex -0.042845 -0.005343 -0.00416
  endloop
 endfacet
 facet normal -0.709214 -0.160981 -0.686368
  outer loop
   vertex -0.042845 -0.005343 -0.00416
   vertex -0.036903 -0.004387 -0.010524
   vertex -0.041619 -0.009964 -0.004343
  endloop
 endfacet
 facet normal -0.293541 -0.947673 0.125501
  outer loop
   vertex -0.031712 -0.011676 -0.017254
   vertex -0.022843 -0.013948 -0.013666
   vertex -0.030916 -0.010674 -0.007826
  endloop
 endfacet
 facet normal -0.715731 0.23309 -0.65833
  outer loop
   vertex -0.041047 -0.000144 -0.004274
   vertex -0.036004 0.001804 -0.009067
   vertex -0.042845 -0.005343 -0.00416
  endloop
 endfacet
 facet normal 0.0618359 -0.831713 0.551752
  outer loop
   vertex -0.030916 -0.010674 -0.007826
   vertex -0.022843 -0.013948 -0.013666
   vertex -0.025839 -0.008717 -0.005445
  endloop
 endfacet
 facet normal 0.234173 -0.934344 0.268633
  outer loop
   vertex -0.036387 -0.01126 -0.005095
   vertex -0.030916 -0.010674 -0.007826
   vertex -0.025839 -0.008717 -0.005445
  endloop
 endfacet
 facet normal 0.137831 -0.671864 -0.727737
  outer loop
   vertex -0.034619 -0.016416 0
   vertex -0.036387 -0.01126 -0.005095
   vertex -0.025839 -0.008717 -0.005445
  endloop
 endfacet
 facet normal 0.68979 -0.331381 0.643721
  outer loop
   vertex -0.034619 -0.016416 0
   vertex -0.025839 -0.008717 -0.005445
   vertex -0.029813 -0.006412 0
  endloop
 endfacet
 facet normal 0.68979 -0.331381 -0.643721
  outer loop
   vertex -0.029813 -0.006412 0
   vertex -0.025839 -0.008717 0.005445
   vertex -0.034619 -0.016416 0
  endloop
 endfacet
 facet normal 0.0618359 -0.831713 -0.551752
  outer loop
   vertex -0.025839 -0.008717 0.005445
   vertex -0.022843 -0.013948 0.013666
   vertex -0.030916 -0.010674 0.007826
  endloop
 endfacet
 facet normal 0.234173 -0.934344 -0.268633
  outer loop
   vertex -0.025839 -0.008717 0.005445
   vertex -0.030916 -0.010674 0.007826
   vertex -0.036387 -0.01126 0.005095
  endloop
 endfacet
 facet normal 0.137831 -0.671864 0.727737
  outer loop
   vertex -0.025839 -0.008717 0.005445
   vertex -0.036387 -0.01126 0.005095
   vertex -0.034619 -0.016416 0
  endloop
 endfacet
 facet normal -0.351995 -0.0563881 -0.934302
  outer loop
   vertex -0.042845 -0.005343 -0.00416
   vertex -0.041619 -0.009964 -0.004343
   vertex -0.053517 -0.007652 0
  endloop
 endfacet
 facet normal -0.338139 0.0269584 -0.94071
  outer loop
   vertex -0.041619 -0.009964 -0.004343
   vertex -0.05397 -0.013334 0
   vertex -0.053517 -0.007652 0
  endloop
 endfacet
 facet normal -0.338139 0.0269584 0.94071
  outer loop
   vertex -0.053517 -0.007652 0
   vertex -0.05397 -0.013334 0
   vertex -0.041619 -0.009964 0.004343
  endloop
 endfacet
 facet normal -0.351995 -0.0563881 0.934302
  outer loop
   vertex -0.053517 -0.007652 0
   vertex -0.041619 -0.009964 0.004343
   vertex -0.042845 -0.005343 0.00416
  endloop
 endfacet
 facet normal -0.715731 0.23309 0.65833
  outer loop
   vertex -0.042845 -0.005343 0.00416
   vertex -0.036004 0.001804 0.009067
   vertex -0.041047 -0.000144 0.004274
  endloop
 endfacet
 facet normal -0.725486 0.255724 0.638964
  outer loop
   vertex -0.042845 -0.005343 0.00416
   vertex -0.036903 -0.004387 0.010524
   vertex -0.036004 0.001804 0.009067
  endloop
 endfacet
 facet normal -0.709214 -0.160981 0.686368
  outer loop
   vertex -0.041619 -0.009964 0.004343
   vertex -0.036903 -0.004387 0.010524
   vertex -0.042845 -0.005343 0.00416
  endloop
 endfacet
 facet normal -0.642776 -0.256479 0.721843
  outer loop
   vertex -0.041619 -0.009964 0.004343
   vertex -0.035599 -0.009248 0.009958
   vertex -0.036903 -0.004387 0.010524
  endloop
 endfacet
 facet normal -0.0988377 -0.913751 0.394068
  outer loop
   vertex -0.036387 -0.01126 0.005095
   vertex -0.030916 -0.010674 0.007826
   vertex -0.035599 -0.009248 0.009958
  endloop
 endfacet
 facet normal -0.27427 -0.87209 0.405258
  outer loop
   vertex -0.036387 -0.01126 0.005095
   vertex -0.035599 -0.009248 0.009958
   vertex -0.041619 -0.009964 0.004343
  endloop
 endfacet
 facet normal -0.341703 -0.931078 -0.127804
  outer loop
   vertex -0.030916 -0.010674 0.007826
   vertex -0.031712 -0.011676 0.017254
   vertex -0.035599 -0.009248 0.009958
  endloop
 endfacet
 facet normal -0.293541 -0.947673 -0.125501
  outer loop
   vertex -0.030916 -0.010674 0.007826
   vertex -0.022843 -0.013948 0.013666
   vertex -0.031712 -0.011676 0.017254
  endloop
 endfacet
 facet normal -0.386448 0.286542 -0.876671
  outer loop
   vertex -0.041619 -0.009964 -0.004343
   vertex -0.044128 -0.014541 -0.004733
   vertex -0.05397 -0.013334 0
  endloop
 endfacet
 facet normal -0.133075 0.0374482 -0.990398
  outer loop
   vertex -0.041619 -0.009964 -0.004343
   vertex -0.036387 -0.01126 -0.005095
   vertex -0.040218 -0.015723 -0.004749
  endloop
 endfacet
 facet normal 0.0185313 0.0747969 -0.997027
  outer loop
   vertex -0.044128 -0.014541 -0.004733
   vertex -0.041619 -0.009964 -0.004343
   vertex -0.040218 -0.015723 -0.004749
  endloop
 endfacet
 facet normal 0.673006 -0.390156 -0.628365
  outer loop
   vertex -0.036387 -0.01126 -0.005095
   vertex -0.034619 -0.016416 0
   vertex -0.040258 -0.020205 -0.003687
  endloop
 endfacet
 facet normal 0.17958 -0.228333 -0.956878
  outer loop
   vertex -0.040218 -0.015723 -0.004749
   vertex -0.036387 -0.01126 -0.005095
   vertex -0.040258 -0.020205 -0.003687
  endloop
 endfacet
 facet normal 0.581442 -0.81172 -0.055097
  outer loop
   vertex -0.041824 -0.021577 0
   vertex -0.040258 -0.020205 -0.003687
   vertex -0.034619 -0.016416 0
  endloop
 endfacet
 facet normal 0.581442 -0.81172 0.055097
  outer loop
   vertex -0.034619 -0.016416 0
   vertex -0.040258 -0.020205 0.003687
   vertex -0.041824 -0.021577 0
  endloop
 endfacet
 facet normal 0.673006 -0.390156 0.628365
  outer loop
   vertex -0.040258 -0.020205 0.003687
   vertex -0.034619 -0.016416 0
   vertex -0.036387 -0.01126 0.005095
  endloop
 endfacet
 facet normal -0.133075 0.0374482 0.990398
  outer loop
   vertex -0.040218 -0.015723 0.004749
   vertex -0.036387 -0.01126 0.005095
   vertex -0.041619 -0.009964 0.004343
  endloop
 endfacet
 facet normal 0.17958 -0.228333 0.956878
  outer loop
   vertex -0.040258 -0.020205 0.003687
   vertex -0.036387 -0.01126 0.005095
   vertex -0.040218 -0.015723 0.004749
  endloop
 endfacet
 facet normal -0.283126 0.606082 -0.743306
  outer loop
   vertex -0.044128 -0.014541 -0.004733
   vertex -0.05053 -0.017604 -0.004792
   vertex -0.05397 -0.013334 0
  endloop
 endfacet
 facet normal -0.869198 -0.433675 -0.237531
  outer loop
   vertex -0.05397 -0.013334 0
   vertex -0.05053 -0.017604 -0.004792
   vertex -0.05092 -0.019447 0
  endloop
 endfacet
 facet normal -0.283126 0.606082 0.743306
  outer loop
   vertex -0.05397 -0.013334 0
   vertex -0.05053 -0.017604 0.004792
   vertex -0.044128 -0.014541 0.004733
  endloop
 endfacet
 facet normal -0.386448 0.286542 0.876671
  outer loop
   vertex -0.05397 -0.013334 0
   vertex -0.044128 -0.014541 0.004733
   vertex -0.041619 -0.009964 0.004343
  endloop
 endfacet
 facet normal -0.869198 -0.433675 0.237531
  outer loop
   vertex -0.05092 -0.019447 0
   vertex -0.05053 -0.017604 0.004792
   vertex -0.05397 -0.013334 0
  endloop
 endfacet
 facet normal 0.0185313 0.0747969 0.997027
  outer loop
   vertex -0.040218 -0.015723 0.004749
   vertex -0.041619 -0.009964 0.004343
   vertex -0.044128 -0.014541 0.004733
  endloop
 endfacet
 facet normal -0.0732968 -0.229324 -0.970586
  outer loop
   vertex -0.044128 -0.014541 -0.004733
   vertex -0.040218 -0.015723 -0.004749
   vertex -0.040258 -0.020205 -0.003687
  endloop
 endfacet
 facet normal 0.249761 -0.00816364 -0.968273
  outer loop
   vertex -0.047627 -0.020655 -0.005584
   vertex -0.044128 -0.014541 -0.004733
   vertex -0.040258 -0.020205 -0.003687
  endloop
 endfacet
 facet normal -0.077469 0.180804 -0.980463
  outer loop
   vertex -0.044128 -0.014541 -0.004733
   vertex -0.047627 -0.020655 -0.005584
   vertex -0.05053 -0.017604 -0.004792
  endloop
 endfacet
 facet normal 0.133768 -0.94602 -0.295216
  outer loop
   vertex -0.047627 -0.020655 -0.005584
   vertex -0.040258 -0.020205 -0.003687
   vertex -0.041824 -0.021577 0
  endloop
 endfacet
 facet normal 0.14634 -0.940282 -0.307334
  outer loop
   vertex -0.046039 -0.022233 0
   vertex -0.047627 -0.020655 -0.005584
   vertex -0.041824 -0.021577 0
  endloop
 endfacet
 facet normal 0.133768 -0.94602 0.295216
  outer loop
   vertex -0.041824 -0.021577 0
   vertex -0.040258 -0.020205 0.003687
   vertex -0.047627 -0.020655 0.005584
  endloop
 endfacet
 facet normal 0.14634 -0.940282 0.307334
  outer loop
   vertex -0.041824 -0.021577 0
   vertex -0.047627 -0.020655 0.005584
   vertex -0.046039 -0.022233 0
  endloop
 endfacet
 facet normal -0.0732968 -0.229324 0.970586
  outer loop
   vertex -0.040258 -0.020205 0.003687
   vertex -0.040218 -0.015723 0.004749
   vertex -0.044128 -0.014541 0.004733
  endloop
 endfacet
 facet normal 0.249761 -0.00816364 0.968273
  outer loop
   vertex -0.040258 -0.020205 0.003687
   vertex -0.044128 -0.014541 0.004733
   vertex -0.047627 -0.020655 0.005584
  endloop
 endfacet
 facet normal -0.723065 -0.690701 0.0104405
  outer loop
   vertex -0.05053 -0.017604 -0.004792
   vertex -0.047627 -0.020655 -0.005584
   vertex -0.046039 -0.022233 0
  endloop
 endfacet
 facet normal -0.464252 -0.813357 -0.3506
  outer loop
   vertex -0.05092 -0.019447 0
   vertex -0.05053 -0.017604 -0.004792
   vertex -0.046039 -0.022233 0
  endloop
 endfacet
 facet normal -0.464252 -0.813357 0.3506
  outer loop
   vertex -0.046039 -0.022233 0
   vertex -0.05053 -0.017604 0.004792
   vertex -0.05092 -0.019447 0
  endloop
 endfacet
 facet normal -0.723065 -0.690701 -0.0104405
  outer loop
   vertex -0.046039 -0.022233 0
   vertex -0.047627 -0.020655 0.005584
   vertex -0.05053 -0.017604 0.004792
  endloop
 endfacet
 facet normal -0.077469 0.180804 0.980463
  outer loop
   vertex -0.05053 -0.017604 0.004792
   vertex -0.047627 -0.020655 0.005584
   vertex -0.044128 -0.014541 0.004733
  endloop
 endfacet
endsolid
