solid ascii
 facet normal -0.155842 -0.897971 -0.411536
  outer loop
   vertex 0.005778 0.007432 0
   vertex 0.021715 0.008915 -0.009271
   vertex 0.019169 0.005108 0
  endloop
 endfacet
 facet normal 0.0559455 -0.99643 -0.063219
  outer loop
   vertex 0.005778 0.007432 0
   vertex 0.016647 0.009246 -0.018973
   vertex 0.021715 0.008915 -0.009271
  endloop
 endfacet
 facet normal 0.0730244 -0.9959 -0.0533844
  outer loop
   vertex 0.005778 0.007432 0
   vertex 0.007752 0.008847 -0.023697
   vertex 0.016647 0.009246 -0.018973
  endloop
 endfacet
 facet normal -0.129027 -0.989387 0.0668278
  outer loop
   vertex 0.005778 0.007432 0
   vertex -0.012219 0.009779 0
   vertex -0.01212 0.00939 -0.005568
  endloop
 endfacet
 facet normal -0.099033 -0.994588 -0.0314138
  outer loop
   vertex -0.01212 0.00939 -0.005568
   vertex -0.012501 0.009773 -0.016493
   vertex 0.005778 0.007432 0
  endloop
 endfacet
 facet normal 0.0123247 -0.98801 -0.153896
  outer loop
   vertex 0.005778 0.007432 0
   vertex -0.012501 0.009773 -0.016493
   vertex -0.006859 0.010987 -0.023835
  endloop
 endfacet
 facet normal -0.143898 -0.987048 -0.0709257
  outer loop
   vertex -0.006859 0.010987 -0.023835
   vertex 0.007752 0.008847 -0.023697
   vertex 0.005778 0.007432 0
  endloop
 endfacet
 facet normal -0.155842 -0.897971 0.411536
  outer loop
   vertex 0.019169 0.005108 0
   vertex 0.021715 0.008915 0.009271
   vertex 0.005778 0.007432 0
  endloop
 endfacet
 facet normal 0.0559455 -0.99643 0.063219
  outer loop
   vertex 0.021715 0.008915 0.009271
   vertex 0.016647 0.009246 0.018973
   vertex 0.005778 0.007432 0
  endloop
 endfacet
 facet normal 0.0730244 -0.9959 0.0533844
  outer loop
   vertex 0.016647 0.009246 0.018973
   vertex 0.007752 0.008847 0.023697
   vertex 0.005778 0.007432 0
  endloop
 endfacet
 facet normal -0.129027 -0.989387 -0.0668278
  outer loop
   vertex -0.01212 0.00939 0.005568
   vertex -0.012219 0.009779 0
   vertex 0.005778 0.007432 0
  endloop
 endfacet
 facet normal -0.099033 -0.994588 0.0314138
  outer loop
   vertex 0.005778 0.007432 0
   vertex -0.012501 0.009773 0.016493
   vertex -0.01212 0.00939 0.005568
  endloop
 endfacet
 facet normal 0.0123247 -0.98801 0.153896
  outer loop
   vertex -0.006859 0.010987 0.023835
   vertex -0.012501 0.009773 0.016493
   vertex 0.005778 0.007432 0
  endloop
 endfacet
 facet normal -0.143898 -0.987048 0.0709257
  outer loop
   vertex 0.005778 0.007432 0
   vertex 0.007752 0.008847 0.023697
   vertex -0.006859 0.010987 0.023835
  endloop
 endfacet
 facet normal 0.874095 -0.483995 0.0412982
  outer loop
   vertex 0.019169 0.005108 0
   vertex 0.021715 0.008915 -0.009271
   vertex 0.022457 0.010096 -0.011135
  endloop
 endfacet
 facet normal 0.52073 -0.799541 -0.29929
  outer loop
   vertex 0.022457 0.010096 -0.011135
   vertex 0.021715 0.008915 -0.009271
   vertex 0.016647 0.009246 -0.018973
  endloop
 endfacet
 facet normal 0.873231 -0.485636 0.0403079
  outer loop
   vertex 0.022354 0.010835 0
   vertex 0.019169 0.005108 0
   vertex 0.022457 0.010096 -0.011135
  endloop
 endfacet
 facet normal 0.874095 -0.483995 -0.0412982
  outer loop
   vertex 0.022457 0.010096 0.011135
   vertex 0.021715 0.008915 0.009271
   vertex 0.019169 0.005108 0
  endloop
 endfacet
 facet normal 0.873231 -0.485636 -0.0403079
  outer loop
   vertex 0.022457 0.010096 0.011135
   vertex 0.019169 0.005108 0
   vertex 0.022354 0.010835 0
  endloop
 endfacet
 facet normal 0.688786 0.45987 -0.560441
  outer loop
   vertex 0.0151 0.012354 -0.018324
   vertex 0.022457 0.010096 -0.011135
   vertex 0.016647 0.009246 -0.018973
  endloop
 endfacet
 facet normal 0.420245 0.381133 -0.823487
  outer loop
   vertex 0.0151 0.012354 -0.018324
   vertex 0.016647 0.009246 -0.018973
   vertex 0.007752 0.008847 -0.023697
  endloop
 endfacet
 facet normal 0.474164 0.283545 -0.833529
  outer loop
   vertex 0.006564 0.015008 -0.022277
   vertex 0.0151 0.012354 -0.018324
   vertex 0.007752 0.008847 -0.023697
  endloop
 endfacet
 facet normal 0.0431994 0.232287 -0.971688
  outer loop
   vertex 0.006564 0.015008 -0.022277
   vertex 0.007752 0.008847 -0.023697
   vertex -0.006859 0.010987 -0.023835
  endloop
 endfacet
 facet normal -0.996976 0.0742582 -0.0229143
  outer loop
   vertex -0.011674 0.015489 -0.005208
   vertex -0.01212 0.00939 -0.005568
   vertex -0.012219 0.009779 0
  endloop
 endfacet
 facet normal -0.994566 0.103664 0.00957814
  outer loop
   vertex -0.01164 0.015334 0
   vertex -0.011674 0.015489 -0.005208
   vertex -0.012219 0.009779 0
  endloop
 endfacet
 facet normal -0.996976 0.0742582 0.0229143
  outer loop
   vertex -0.012219 0.009779 0
   vertex -0.01212 0.00939 0.005568
   vertex -0.011674 0.015489 0.005208
  endloop
 endfacet
 facet normal -0.994566 0.103664 -0.00957814
  outer loop
   vertex -0.012219 0.009779 0
   vertex -0.011674 0.015489 0.005208
   vertex -0.01164 0.015334 0
  endloop
 endfacet
 facet normal -0.996803 0.0706948 0.037241
  outer loop
   vertex -0.01212 0.00939 -0.005568
   vertex -0.011674 0.015489 -0.005208
   vertex -0.012501 0.009773 -0.016493
  endloop
 endfacet
 facet normal -0.647928 0.0370297 -0.760801
  outer loop
   vertex -0.012501 0.009773 -0.016493
   vertex -0.011655 0.017426 -0.016841
   vertex -0.005266 0.0141 -0.022444
  endloop
 endfacet
 facet normal -0.700218 0.55756 -0.445894
  outer loop
   vertex -0.006859 0.010987 -0.023835
   vertex -0.012501 0.009773 -0.016493
   vertex -0.005266 0.0141 -0.022444
  endloop
 endfacet
 facet normal -0.983913 0.102101 -0.146596
  outer loop
   vertex -0.01271 0.017162 -0.009944
   vertex -0.011655 0.017426 -0.016841
   vertex -0.012501 0.009773 -0.016493
  endloop
 endfacet
 facet normal -0.974092 -0.16481 0.154863
  outer loop
   vertex -0.011674 0.015489 -0.005208
   vertex -0.01271 0.017162 -0.009944
   vertex -0.012501 0.009773 -0.016493
  endloop
 endfacet
 facet normal -0.0190965 0.416016 -0.909157
  outer loop
   vertex -0.005266 0.0141 -0.022444
   vertex 0.006564 0.015008 -0.022277
   vertex -0.006859 0.010987 -0.023835
  endloop
 endfacet
 facet normal 0.52073 -0.799541 0.29929
  outer loop
   vertex 0.016647 0.009246 0.018973
   vertex 0.021715 0.008915 0.009271
   vertex 0.022457 0.010096 0.011135
  endloop
 endfacet
 facet normal 0.688786 0.45987 0.560441
  outer loop
   vertex 0.016647 0.009246 0.018973
   vertex 0.022457 0.010096 0.011135
   vertex 0.0151 0.012354 0.018324
  endloop
 endfacet
 facet normal 0.420245 0.381133 0.823487
  outer loop
   vertex 0.007752 0.008847 0.023697
   vertex 0.016647 0.009246 0.018973
   vertex 0.0151 0.012354 0.018324
  endloop
 endfacet
 facet normal 0.474164 0.283545 0.833529
  outer loop
   vertex 0.007752 0.008847 0.023697
   vertex 0.0151 0.012354 0.018324
   vertex 0.006564 0.015008 0.022277
  endloop
 endfacet
 facet normal 0.0431994 0.232287 0.971688
  outer loop
   vertex -0.006859 0.010987 0.023835
   vertex 0.007752 0.008847 0.023697
   vertex 0.006564 0.015008 0.022277
  endloop
 endfacet
 facet normal -0.996803 0.0706948 -0.037241
  outer loop
   vertex -0.012501 0.009773 0.016493
   vertex -0.011674 0.015489 0.005208
   vertex -0.01212 0.00939 0.005568
  endloop
 endfacet
 facet normal -0.647928 0.0370297 0.760801
  outer loop
   vertex -0.005266 0.0141 0.022444
   vertex -0.011655 0.017426 0.016841
   vertex -0.012501 0.009773 0.016493
  endloop
 endfacet
 facet normal -0.700218 0.55756 0.445894
  outer loop
   vertex -0.005266 0.0141 0.022444
   vertex -0.012501 0.009773 0.016493
   vertex -0.006859 0.010987 0.023835
  endloop
 endfacet
 facet normal -0.983913 0.102101 0.146596
  outer loop
   vertex -0.012501 0.009773 0.016493
   vertex -0.011655 0.017426 0.016841
   vertex -0.01271 0.017162 0.009944
  endloop
 endfacet
 facet normal -0.974092 -0.16481 -0.154863
  outer loop
   vertex -0.012501 0.009773 0.016493
   vertex -0.01271 0.017162 0.009944
   vertex -0.011674 0.015489 0.005208
  endloop
 endfacet
 facet normal -0.0190965 0.416016 0.909157
  outer loop
   vertex -0.006859 0.010987 0.023835
   vertex 0.006564 0.015008 0.022277
   vertex -0.005266 0.0141 0.022444
  endloop
 endfacet
 facet normal 0.905295 0.411927 -0.103715
  outer loop
   vertex 0.022457 0.010096 -0.011135
   vertex 0.01944 0.016801 -0.010839
   vertex 0.020897 0.016328 0
  endloop
 endfacet
 facet normal 0.966544 0.256373 -0.00807409
  outer loop
   vertex 0.022354 0.010835 0
   vertex 0.022457 0.010096 -0.011135
   vertex 0.020897 0.016328 0
  endloop
 endfacet
 facet normal 0.707928 0.34573 -0.615881
  outer loop
   vertex 0.01944 0.016801 -0.010839
   vertex 0.022457 0.010096 -0.011135
   vertex 0.0151 0.012354 -0.018324
  endloop
 endfacet
 facet normal 0.966544 0.256373 0.00807409
  outer loop
   vertex 0.020897 0.016328 0
   vertex 0.022457 0.010096 0.011135
   vertex 0.022354 0.010835 0
  endloop
 endfacet
 facet normal 0.905295 0.411927 0.103715
  outer loop
   vertex 0.020897 0.016328 0
   vertex 0.01944 0.016801 0.010839
   vertex 0.022457 0.010096 0.011135
  endloop
 endfacet
 facet normal 0.707928 0.34573 0.615881
  outer loop
   vertex 0.0151 0.012354 0.018324
   vertex 0.022457 0.010096 0.011135
   vertex 0.01944 0.016801 0.010839
  endloop
 endfacet
 facet normal 0.76044 0.259703 -0.595218
  outer loop
   vertex 0.01351 0.018064 -0.017864
   vertex 0.01944 0.016801 -0.010839
   vertex 0.0151 0.012354 -0.018324
  endloop
 endfacet
 facet normal 0.461972 0.19828 -0.864446
  outer loop
   vertex 0.01351 0.018064 -0.017864
   vertex 0.0151 0.012354 -0.018324
   vertex 0.006564 0.015008 -0.022277
  endloop
 endfacet
 facet normal 0.394606 0.337317 -0.854695
  outer loop
   vertex 0.006592 0.020091 -0.020258
   vertex 0.01351 0.018064 -0.017864
   vertex 0.006564 0.015008 -0.022277
  endloop
 endfacet
 facet normal -0.0152184 0.369181 -0.929233
  outer loop
   vertex 0.006592 0.020091 -0.020258
   vertex 0.006564 0.015008 -0.022277
   vertex -0.005266 0.0141 -0.022444
  endloop
 endfacet
 facet normal -0.999732 0.0219936 0.0071812
  outer loop
   vertex -0.011674 0.015489 -0.005208
   vertex -0.01164 0.015334 0
   vertex -0.011526 0.0227 -0.006689
  endloop
 endfacet
 facet normal -0.969294 0.0684043 0.236197
  outer loop
   vertex -0.01271 0.017162 -0.009944
   vertex -0.011674 0.015489 -0.005208
   vertex -0.011526 0.0227 -0.006689
  endloop
 endfacet
 facet normal -0.992848 0.0883127 0.0803298
  outer loop
   vertex -0.01098 0.022754 0
   vertex -0.011526 0.0227 -0.006689
   vertex -0.01164 0.015334 0
  endloop
 endfacet
 facet normal -0.992848 0.0883127 -0.0803298
  outer loop
   vertex -0.01164 0.015334 0
   vertex -0.011526 0.0227 0.006689
   vertex -0.01098 0.022754 0
  endloop
 endfacet
 facet normal -0.999732 0.0219936 -0.0071812
  outer loop
   vertex -0.011526 0.0227 0.006689
   vertex -0.01164 0.015334 0
   vertex -0.011674 0.015489 0.005208
  endloop
 endfacet
 facet normal -0.969294 0.0684043 -0.236197
  outer loop
   vertex -0.011526 0.0227 0.006689
   vertex -0.011674 0.015489 0.005208
   vertex -0.01271 0.017162 0.009944
  endloop
 endfacet
 facet normal -0.0942694 -0.633381 -0.768077
  outer loop
   vertex -0.011655 0.017426 -0.016841
   vertex -0.010229 0.021144 -0.020082
   vertex -0.003983 0.021615 -0.021237
  endloop
 endfacet
 facet normal -0.57385 0.224468 -0.787598
  outer loop
   vertex -0.005266 0.0141 -0.022444
   vertex -0.011655 0.017426 -0.016841
   vertex -0.003983 0.021615 -0.021237
  endloop
 endfacet
 facet normal -0.976975 -0.146554 -0.155053
  outer loop
   vertex -0.01358 0.023296 -0.01026
   vertex -0.011655 0.017426 -0.016841
   vertex -0.01271 0.017162 -0.009944
  endloop
 endfacet
 facet normal -0.939602 0.0679559 -0.335456
  outer loop
   vertex -0.01358 0.023296 -0.01026
   vertex -0.010229 0.021144 -0.020082
   vertex -0.011655 0.017426 -0.016841
  endloop
 endfacet
 facet normal 0.11114 0.139072 -0.984026
  outer loop
   vertex -0.003983 0.021615 -0.021237
   vertex 0.006592 0.020091 -0.020258
   vertex -0.005266 0.0141 -0.022444
  endloop
 endfacet
 facet normal -0.869638 -0.0984204 0.48378
  outer loop
   vertex -0.01358 0.023296 -0.01026
   vertex -0.01271 0.017162 -0.009944
   vertex -0.011526 0.0227 -0.006689
  endloop
 endfacet
 facet normal 0.76044 0.259703 0.595218
  outer loop
   vertex 0.0151 0.012354 0.018324
   vertex 0.01944 0.016801 0.010839
   vertex 0.01351 0.018064 0.017864
  endloop
 endfacet
 facet normal 0.461972 0.19828 0.864446
  outer loop
   vertex 0.006564 0.015008 0.022277
   vertex 0.0151 0.012354 0.018324
   vertex 0.01351 0.018064 0.017864
  endloop
 endfacet
 facet normal 0.394606 0.337317 0.854695
  outer loop
   vertex 0.006564 0.015008 0.022277
   vertex 0.01351 0.018064 0.017864
   vertex 0.006592 0.020091 0.020258
  endloop
 endfacet
 facet normal -0.0152184 0.369181 0.929233
  outer loop
   vertex -0.005266 0.0141 0.022444
   vertex 0.006564 0.015008 0.022277
   vertex 0.006592 0.020091 0.020258
  endloop
 endfacet
 facet normal 0.11114 0.139072 0.984026
  outer loop
   vertex -0.005266 0.0141 0.022444
   vertex 0.006592 0.020091 0.020258
   vertex -0.003983 0.021615 0.021237
  endloop
 endfacet
 facet normal -0.57385 0.224468 0.787598
  outer loop
   vertex -0.003983 0.021615 0.021237
   vertex -0.011655 0.017426 0.016841
   vertex -0.005266 0.0141 0.022444
  endloop
 endfacet
 facet normal -0.0942694 -0.633381 0.768077
  outer loop
   vertex -0.003983 0.021615 0.021237
   vertex -0.010229 0.021144 0.020082
   vertex -0.011655 0.017426 0.016841
  endloop
 endfacet
 facet normal -0.976975 -0.146554 0.155053
  outer loop
   vertex -0.01271 0.017162 0.009944
   vertex -0.011655 0.017426 0.016841
   vertex -0.01358 0.023296 0.01026
  endloop
 endfacet
 facet normal -0.939602 0.0679559 0.335456
  outer loop
   vertex -0.011655 0.017426 0.016841
   vertex -0.010229 0.021144 0.020082
   vertex -0.01358 0.023296 0.01026
  endloop
 endfacet
 facet normal -0.869638 -0.0984204 -0.48378
  outer loop
   vertex -0.011526 0.0227 0.006689
   vertex -0.01271 0.017162 0.009944
   vertex -0.01358 0.023296 0.01026
  endloop
 endfacet
 facet normal 0.989216 -0.0170827 -0.145466
  outer loop
   vertex 0.01944 0.016801 -0.010839
   vertex 0.019667 0.026676 -0.010455
   vertex 0.021228 0.028041 0
  endloop
 endfacet
 facet normal 0.990536 -0.0279919 -0.134371
  outer loop
   vertex 0.020897 0.016328 0
   vertex 0.01944 0.016801 -0.010839
   vertex 0.021228 0.028041 0
  endloop
 endfacet
 facet normal 0.764789 0.00747149 -0.644237
  outer loop
   vertex 0.019667 0.026676 -0.010455
   vertex 0.01944 0.016801 -0.010839
   vertex 0.01351 0.018064 -0.017864
  endloop
 endfacet
 facet normal 0.990536 -0.0279919 0.134371
  outer loop
   vertex 0.021228 0.028041 0
   vertex 0.01944 0.016801 0.010839
   vertex 0.020897 0.016328 0
  endloop
 endfacet
 facet normal 0.989216 -0.0170827 0.145466
  outer loop
   vertex 0.021228 0.028041 0
   vertex 0.019667 0.026676 0.010455
   vertex 0.01944 0.016801 0.010839
  endloop
 endfacet
 facet normal 0.764789 0.00747149 0.644237
  outer loop
   vertex 0.01351 0.018064 0.017864
   vertex 0.01944 0.016801 0.010839
   vertex 0.019667 0.026676 0.010455
  endloop
 endfacet
 facet normal 0.779915 -0.019388 -0.625586
  outer loop
   vertex 0.013184 0.027085 -0.01855
   vertex 0.019667 0.026676 -0.010455
   vertex 0.01351 0.018064 -0.017864
  endloop
 endfacet
 facet normal 0.310431 -0.0609208 -0.948642
  outer loop
   vertex 0.013184 0.027085 -0.01855
   vertex 0.01351 0.018064 -0.017864
   vertex 0.006592 0.020091 -0.020258
  endloop
 endfacet
 facet normal 0.31295 -0.0635389 -0.947642
  outer loop
   vertex 0.007734 0.027058 -0.020348
   vertex 0.013184 0.027085 -0.01855
   vertex 0.006592 0.020091 -0.020258
  endloop
 endfacet
 facet normal 0.0882428 -0.0273271 -0.995724
  outer loop
   vertex 0.007734 0.027058 -0.020348
   vertex 0.006592 0.020091 -0.020258
   vertex -0.003983 0.021615 -0.021237
  endloop
 endfacet
 facet normal -0.962881 -0.257587 0.0806762
  outer loop
   vertex -0.013475 0.029916 -0.006911
   vertex -0.011526 0.0227 -0.006689
   vertex -0.01098 0.022754 0
  endloop
 endfacet
 facet normal -0.857669 -0.217314 0.466023
  outer loop
   vertex -0.013475 0.029916 -0.006911
   vertex -0.015661 0.030358 -0.010728
   vertex -0.011526 0.0227 -0.006689
  endloop
 endfacet
 facet normal -0.860596 -0.223262 0.457743
  outer loop
   vertex -0.015661 0.030358 -0.010728
   vertex -0.01358 0.023296 -0.01026
   vertex -0.011526 0.0227 -0.006689
  endloop
 endfacet
 facet normal -0.967537 -0.223848 0.117321
  outer loop
   vertex -0.012671 0.030063 0
   vertex -0.013475 0.029916 -0.006911
   vertex -0.01098 0.022754 0
  endloop
 endfacet
 facet normal -0.962881 -0.257587 -0.0806762
  outer loop
   vertex -0.01098 0.022754 0
   vertex -0.011526 0.0227 0.006689
   vertex -0.013475 0.029916 0.006911
  endloop
 endfacet
 facet normal -0.967537 -0.223848 -0.117321
  outer loop
   vertex -0.01098 0.022754 0
   vertex -0.013475 0.029916 0.006911
   vertex -0.012671 0.030063 0
  endloop
 endfacet
 facet normal -0.857669 -0.217314 -0.466023
  outer loop
   vertex -0.011526 0.0227 0.006689
   vertex -0.015661 0.030358 0.010728
   vertex -0.013475 0.029916 0.006911
  endloop
 endfacet
 facet normal -0.860596 -0.223262 -0.457743
  outer loop
   vertex -0.011526 0.0227 0.006689
   vertex -0.01358 0.023296 0.01026
   vertex -0.015661 0.030358 0.010728
  endloop
 endfacet
 facet normal 0.0311069 -0.245395 -0.968924
  outer loop
   vertex -0.010229 0.021144 -0.020082
   vertex -0.008762 0.028141 -0.021807
   vertex -0.00349 0.027147 -0.021386
  endloop
 endfacet
 facet normal -0.181071 -0.0103506 -0.983416
  outer loop
   vertex -0.003983 0.021615 -0.021237
   vertex -0.010229 0.021144 -0.020082
   vertex -0.00349 0.027147 -0.021386
  endloop
 endfacet
 facet normal -0.127182 -0.710051 -0.692569
  outer loop
   vertex -0.013818 0.023841 -0.022188
   vertex -0.010229 0.021144 -0.020082
   vertex -0.017001 0.020415 -0.018091
  endloop
 endfacet
 facet normal -0.253278 -0.781878 -0.569664
  outer loop
   vertex -0.010229 0.021144 -0.020082
   vertex -0.013818 0.023841 -0.022188
   vertex -0.015995 0.027717 -0.02654
  endloop
 endfacet
 facet normal 0.533749 -0.306236 -0.788245
  outer loop
   vertex -0.008762 0.028141 -0.021807
   vertex -0.010229 0.021144 -0.020082
   vertex -0.015995 0.027717 -0.02654
  endloop
 endfacet
 facet normal 0.180921 -0.945997 0.268993
  outer loop
   vertex -0.01358 0.023296 -0.01026
   vertex -0.017001 0.020415 -0.018091
   vertex -0.010229 0.021144 -0.020082
  endloop
 endfacet
 facet normal 0.091756 -0.0349809 -0.995167
  outer loop
   vertex -0.00349 0.027147 -0.021386
   vertex 0.007734 0.027058 -0.020348
   vertex -0.003983 0.021615 -0.021237
  endloop
 endfacet
 facet normal -0.00942079 -0.93712 0.348879
  outer loop
   vertex -0.01358 0.023296 -0.01026
   vertex -0.022666 0.025751 -0.003911
   vertex -0.017001 0.020415 -0.018091
  endloop
 endfacet
 facet normal 0.598309 0.227227 0.768371
  outer loop
   vertex -0.022666 0.025751 -0.003911
   vertex -0.01358 0.023296 -0.01026
   vertex -0.015661 0.030358 -0.010728
  endloop
 endfacet
 facet normal 0.779915 -0.019388 0.625586
  outer loop
   vertex 0.01351 0.018064 0.017864
   vertex 0.019667 0.026676 0.010455
   vertex 0.013184 0.027085 0.01855
  endloop
 endfacet
 facet normal 0.310431 -0.0609208 0.948642
  outer loop
   vertex 0.006592 0.020091 0.020258
   vertex 0.01351 0.018064 0.017864
   vertex 0.013184 0.027085 0.01855
  endloop
 endfacet
 facet normal 0.31295 -0.0635389 0.947642
  outer loop
   vertex 0.006592 0.020091 0.020258
   vertex 0.013184 0.027085 0.01855
   vertex 0.007734 0.027058 0.020348
  endloop
 endfacet
 facet normal 0.0882428 -0.0273271 0.995724
  outer loop
   vertex -0.003983 0.021615 0.021237
   vertex 0.006592 0.020091 0.020258
   vertex 0.007734 0.027058 0.020348
  endloop
 endfacet
 facet normal 0.091756 -0.0349809 0.995167
  outer loop
   vertex -0.003983 0.021615 0.021237
   vertex 0.007734 0.027058 0.020348
   vertex -0.00349 0.027147 0.021386
  endloop
 endfacet
 facet normal -0.181071 -0.0103506 0.983416
  outer loop
   vertex -0.00349 0.027147 0.021386
   vertex -0.010229 0.021144 0.020082
   vertex -0.003983 0.021615 0.021237
  endloop
 endfacet
 facet normal 0.0311069 -0.245395 0.968924
  outer loop
   vertex -0.00349 0.027147 0.021386
   vertex -0.008762 0.028141 0.021807
   vertex -0.010229 0.021144 0.020082
  endloop
 endfacet
 facet normal -0.127182 -0.710051 0.692569
  outer loop
   vertex -0.017001 0.020415 0.018091
   vertex -0.010229 0.021144 0.020082
   vertex -0.013818 0.023841 0.022188
  endloop
 endfacet
 facet normal -0.253278 -0.781878 0.569664
  outer loop
   vertex -0.015995 0.027717 0.02654
   vertex -0.013818 0.023841 0.022188
   vertex -0.010229 0.021144 0.020082
  endloop
 endfacet
 facet normal 0.533749 -0.306236 0.788245
  outer loop
   vertex -0.015995 0.027717 0.02654
   vertex -0.010229 0.021144 0.020082
   vertex -0.008762 0.028141 0.021807
  endloop
 endfacet
 facet normal 0.180921 -0.945997 -0.268993
  outer loop
   vertex -0.010229 0.021144 0.020082
   vertex -0.017001 0.020415 0.018091
   vertex -0.01358 0.023296 0.01026
  endloop
 endfacet
 facet normal -0.00942079 -0.93712 -0.348879
  outer loop
   vertex -0.017001 0.020415 0.018091
   vertex -0.022666 0.025751 0.003911
   vertex -0.01358 0.023296 0.01026
  endloop
 endfacet
 facet normal 0.598309 0.227227 -0.768371
  outer loop
   vertex -0.015661 0.030358 0.010728
   vertex -0.01358 0.023296 0.01026
   vertex -0.022666 0.025751 0.003911
  endloop
 endfacet
 facet normal 0.961034 -0.272716 -0.0451696
  outer loop
   vertex 0.019667 0.026676 -0.010455
   vertex 0.021185 0.03221 -0.01157
   vertex 0.021867 0.032697 0
  endloop
 endfacet
 facet normal 0.982425 -0.13483 -0.129079
  outer loop
   vertex 0.021228 0.028041 0
   vertex 0.019667 0.026676 -0.010455
   vertex 0.021867 0.032697 0
  endloop
 endfacet
 facet normal 0.731033 -0.32176 -0.601715
  outer loop
   vertex 0.021185 0.03221 -0.01157
   vertex 0.019667 0.026676 -0.010455
   vertex 0.013184 0.027085 -0.01855
  endloop
 endfacet
 facet normal 0.982425 -0.13483 0.129079
  outer loop
   vertex 0.021867 0.032697 0
   vertex 0.019667 0.026676 0.010455
   vertex 0.021228 0.028041 0
  endloop
 endfacet
 facet normal 0.961034 -0.272716 0.0451696
  outer loop
   vertex 0.021867 0.032697 0
   vertex 0.021185 0.03221 0.01157
   vertex 0.019667 0.026676 0.010455
  endloop
 endfacet
 facet normal 0.731033 -0.32176 0.601715
  outer loop
   vertex 0.013184 0.027085 0.01855
   vertex 0.019667 0.026676 0.010455
   vertex 0.021185 0.03221 0.01157
  endloop
 endfacet
 facet normal 0.730907 -0.479093 -0.48605
  outer loop
   vertex 0.015399 0.031567 -0.019637
   vertex 0.021185 0.03221 -0.01157
   vertex 0.013184 0.027085 -0.01855
  endloop
 endfacet
 facet normal 0.293902 -0.359991 -0.885453
  outer loop
   vertex 0.015399 0.031567 -0.019637
   vertex 0.013184 0.027085 -0.01855
   vertex 0.007734 0.027058 -0.020348
  endloop
 endfacet
 facet normal 0.382328 -0.53065 -0.756463
  outer loop
   vertex 0.00858 0.030741 -0.022504
   vertex 0.015399 0.031567 -0.019637
   vertex 0.007734 0.027058 -0.020348
  endloop
 endfacet
 facet normal 0.0747902 -0.516521 -0.853002
  outer loop
   vertex 0.00858 0.030741 -0.022504
   vertex 0.007734 0.027058 -0.020348
   vertex -0.00349 0.027147 -0.021386
  endloop
 endfacet
 facet normal -0.992769 -0.0303461 0.11614
  outer loop
   vertex -0.013957 0.038367 -0.008823
   vertex -0.013475 0.029916 -0.006911
   vertex -0.012671 0.030063 0
  endloop
 endfacet
 facet normal -0.843287 0.185511 0.504433
  outer loop
   vertex -0.014821 0.03633 -0.01152
   vertex -0.015661 0.030358 -0.010728
   vertex -0.013475 0.029916 -0.006911
  endloop
 endfacet
 facet normal -0.954975 0.0125965 0.296418
  outer loop
   vertex -0.013957 0.038367 -0.008823
   vertex -0.014821 0.03633 -0.01152
   vertex -0.013475 0.029916 -0.006911
  endloop
 endfacet
 facet normal 0.698555 -0.00336078 0.715549
  outer loop
   vertex -0.015661 0.030358 -0.010728
   vertex -0.014821 0.03633 -0.01152
   vertex -0.022666 0.025751 -0.003911
  endloop
 endfacet
 facet normal -0.975161 0.0716636 0.209583
  outer loop
   vertex -0.012136 0.037343 0
   vertex -0.013957 0.038367 -0.008823
   vertex -0.012671 0.030063 0
  endloop
 endfacet
 facet normal -0.992769 -0.0303461 -0.11614
  outer loop
   vertex -0.012671 0.030063 0
   vertex -0.013475 0.029916 0.006911
   vertex -0.013957 0.038367 0.008823
  endloop
 endfacet
 facet normal -0.975161 0.0716636 -0.209583
  outer loop
   vertex -0.012671 0.030063 0
   vertex -0.013957 0.038367 0.008823
   vertex -0.012136 0.037343 0
  endloop
 endfacet
 facet normal -0.843287 0.185511 -0.504433
  outer loop
   vertex -0.013475 0.029916 0.006911
   vertex -0.015661 0.030358 0.010728
   vertex -0.014821 0.03633 0.01152
  endloop
 endfacet
 facet normal -0.954975 0.0125965 -0.296418
  outer loop
   vertex -0.013475 0.029916 0.006911
   vertex -0.014821 0.03633 0.01152
   vertex -0.013957 0.038367 0.008823
  endloop
 endfacet
 facet normal 0.698555 -0.00336078 -0.715549
  outer loop
   vertex -0.022666 0.025751 0.003911
   vertex -0.014821 0.03633 0.01152
   vertex -0.015661 0.030358 0.010728
  endloop
 endfacet
 facet normal -0.265513 0.0844682 -0.9604
  outer loop
   vertex -0.008762 0.028141 -0.021807
   vertex -0.009813 0.033217 -0.02107
   vertex -0.000977 0.032237 -0.023599
  endloop
 endfacet
 facet normal -0.00177731 -0.397981 -0.917392
  outer loop
   vertex -0.00349 0.027147 -0.021386
   vertex -0.008762 0.028141 -0.021807
   vertex -0.000977 0.032237 -0.023599
  endloop
 endfacet
 facet normal 0.41339 0.599398 -0.685442
  outer loop
   vertex -0.008762 0.028141 -0.021807
   vertex -0.015995 0.027717 -0.02654
   vertex -0.016786 0.034456 -0.021124
  endloop
 endfacet
 facet normal 0.0344061 0.150575 -0.988
  outer loop
   vertex -0.009813 0.033217 -0.02107
   vertex -0.008762 0.028141 -0.021807
   vertex -0.016786 0.034456 -0.021124
  endloop
 endfacet
 facet normal 0.0392577 -0.41465 -0.909134
  outer loop
   vertex -0.000977 0.032237 -0.023599
   vertex 0.00858 0.030741 -0.022504
   vertex -0.00349 0.027147 -0.021386
  endloop
 endfacet
 facet normal -0.0321322 -0.754309 -0.655733
  outer loop
   vertex -0.015995 0.027717 -0.02654
   vertex -0.013818 0.023841 -0.022188
   vertex -0.017001 0.020415 -0.018091
  endloop
 endfacet
 facet normal -0.484118 -0.743266 -0.461721
  outer loop
   vertex -0.017001 0.020415 -0.018091
   vertex -0.02423 0.02519 -0.018198
   vertex -0.025888 0.030186 -0.024502
  endloop
 endfacet
 facet normal -0.787322 -0.581319 0.205407
  outer loop
   vertex -0.020782 0.022666 -0.026213
   vertex -0.017001 0.020415 -0.018091
   vertex -0.025888 0.030186 -0.024502
  endloop
 endfacet
 facet normal 0.627295 -0.624621 -0.465135
  outer loop
   vertex -0.020782 0.022666 -0.026213
   vertex -0.015995 0.027717 -0.02654
   vertex -0.017001 0.020415 -0.018091
  endloop
 endfacet
 facet normal -0.475221 -0.730441 -0.490531
  outer loop
   vertex -0.019241 0.017201 -0.011135
   vertex -0.02423 0.02519 -0.018198
   vertex -0.017001 0.020415 -0.018091
  endloop
 endfacet
 facet normal 0.935942 0.0865018 0.341364
  outer loop
   vertex -0.022666 0.025751 -0.003911
   vertex -0.019241 0.017201 -0.011135
   vertex -0.017001 0.020415 -0.018091
  endloop
 endfacet
 facet normal 0.598491 -0.67514 -0.431272
  outer loop
   vertex -0.021769 0.025238 -0.030672
   vertex -0.020106 0.028672 -0.03374
   vertex -0.015995 0.027717 -0.02654
  endloop
 endfacet
 facet normal 0.616011 -0.615631 -0.491457
  outer loop
   vertex -0.020782 0.022666 -0.026213
   vertex -0.021769 0.025238 -0.030672
   vertex -0.015995 0.027717 -0.02654
  endloop
 endfacet
 facet normal 0.810287 0.421952 -0.406684
  outer loop
   vertex -0.015995 0.027717 -0.02654
   vertex -0.020106 0.028672 -0.03374
   vertex -0.016786 0.034456 -0.021124
  endloop
 endfacet
 facet normal 0.996427 -0.0245712 0.0807995
  outer loop
   vertex -0.022867 0.012743 -0.005388
   vertex -0.022666 0.025751 -0.003911
   vertex -0.023024 0.024094 0
  endloop
 endfacet
 facet normal 0.323272 0.860339 0.394097
  outer loop
   vertex -0.032022 0.027475 0
   vertex -0.023024 0.024094 0
   vertex -0.022666 0.025751 -0.003911
  endloop
 endfacet
 facet normal 0.40625 0.550955 0.728978
  outer loop
   vertex -0.024669 0.03283 -0.008145
   vertex -0.032022 0.027475 0
   vertex -0.022666 0.025751 -0.003911
  endloop
 endfacet
 facet normal 0.867111 -0.0694055 0.493255
  outer loop
   vertex -0.022666 0.025751 -0.003911
   vertex -0.022867 0.012743 -0.005388
   vertex -0.019241 0.017201 -0.011135
  endloop
 endfacet
 facet normal 0.0994832 0.531336 0.8413
  outer loop
   vertex -0.014821 0.03633 -0.01152
   vertex -0.024669 0.03283 -0.008145
   vertex -0.022666 0.025751 -0.003911
  endloop
 endfacet
 facet normal 0.730907 -0.479093 0.48605
  outer loop
   vertex 0.013184 0.027085 0.01855
   vertex 0.021185 0.03221 0.01157
   vertex 0.015399 0.031567 0.019637
  endloop
 endfacet
 facet normal 0.293902 -0.359991 0.885453
  outer loop
   vertex 0.007734 0.027058 0.020348
   vertex 0.013184 0.027085 0.01855
   vertex 0.015399 0.031567 0.019637
  endloop
 endfacet
 facet normal 0.382328 -0.53065 0.756463
  outer loop
   vertex 0.007734 0.027058 0.020348
   vertex 0.015399 0.031567 0.019637
   vertex 0.00858 0.030741 0.022504
  endloop
 endfacet
 facet normal 0.0747902 -0.516521 0.853002
  outer loop
   vertex -0.00349 0.027147 0.021386
   vertex 0.007734 0.027058 0.020348
   vertex 0.00858 0.030741 0.022504
  endloop
 endfacet
 facet normal 0.0392577 -0.41465 0.909134
  outer loop
   vertex -0.00349 0.027147 0.021386
   vertex 0.00858 0.030741 0.022504
   vertex -0.000977 0.032237 0.023599
  endloop
 endfacet
 facet normal -0.00177731 -0.397981 0.917392
  outer loop
   vertex -0.000977 0.032237 0.023599
   vertex -0.008762 0.028141 0.021807
   vertex -0.00349 0.027147 0.021386
  endloop
 endfacet
 facet normal -0.265513 0.0844682 0.9604
  outer loop
   vertex -0.000977 0.032237 0.023599
   vertex -0.009813 0.033217 0.02107
   vertex -0.008762 0.028141 0.021807
  endloop
 endfacet
 facet normal 0.41339 0.599398 0.685442
  outer loop
   vertex -0.016786 0.034456 0.021124
   vertex -0.015995 0.027717 0.02654
   vertex -0.008762 0.028141 0.021807
  endloop
 endfacet
 facet normal 0.0344061 0.150575 0.988
  outer loop
   vertex -0.016786 0.034456 0.021124
   vertex -0.008762 0.028141 0.021807
   vertex -0.009813 0.033217 0.02107
  endloop
 endfacet
 facet normal -0.484118 -0.743266 0.461721
  outer loop
   vertex -0.025888 0.030186 0.024502
   vertex -0.02423 0.02519 0.018198
   vertex -0.017001 0.020415 0.018091
  endloop
 endfacet
 facet normal -0.787322 -0.581319 -0.205407
  outer loop
   vertex -0.025888 0.030186 0.024502
   vertex -0.017001 0.020415 0.018091
   vertex -0.020782 0.022666 0.026213
  endloop
 endfacet
 facet normal -0.0321322 -0.754309 0.655733
  outer loop
   vertex -0.017001 0.020415 0.018091
   vertex -0.013818 0.023841 0.022188
   vertex -0.015995 0.027717 0.02654
  endloop
 endfacet
 facet normal 0.627295 -0.624621 0.465135
  outer loop
   vertex -0.017001 0.020415 0.018091
   vertex -0.015995 0.027717 0.02654
   vertex -0.020782 0.022666 0.026213
  endloop
 endfacet
 facet normal -0.475221 -0.730441 0.490531
  outer loop
   vertex -0.017001 0.020415 0.018091
   vertex -0.02423 0.02519 0.018198
   vertex -0.019241 0.017201 0.011135
  endloop
 endfacet
 facet normal 0.935942 0.0865018 -0.341364
  outer loop
   vertex -0.017001 0.020415 0.018091
   vertex -0.019241 0.017201 0.011135
   vertex -0.022666 0.025751 0.003911
  endloop
 endfacet
 facet normal 0.598491 -0.67514 0.431272
  outer loop
   vertex -0.015995 0.027717 0.02654
   vertex -0.020106 0.028672 0.03374
   vertex -0.021769 0.025238 0.030672
  endloop
 endfacet
 facet normal 0.616011 -0.615631 0.491457
  outer loop
   vertex -0.015995 0.027717 0.02654
   vertex -0.021769 0.025238 0.030672
   vertex -0.020782 0.022666 0.026213
  endloop
 endfacet
 facet normal 0.810287 0.421952 0.406684
  outer loop
   vertex -0.016786 0.034456 0.021124
   vertex -0.020106 0.028672 0.03374
   vertex -0.015995 0.027717 0.02654
  endloop
 endfacet
 facet normal 0.996427 -0.0245712 -0.0807995
  outer loop
   vertex -0.023024 0.024094 0
   vertex -0.022666 0.025751 0.003911
   vertex -0.022867 0.012743 0.005388
  endloop
 endfacet
 facet normal 0.323272 0.860339 -0.394097
  outer loop
   vertex -0.022666 0.025751 0.003911
   vertex -0.023024 0.024094 0
   vertex -0.032022 0.027475 0
  endloop
 endfacet
 facet normal 0.40625 0.550955 -0.728978
  outer loop
   vertex -0.022666 0.025751 0.003911
   vertex -0.032022 0.027475 0
   vertex -0.024669 0.03283 0.008145
  endloop
 endfacet
 facet normal 0.867111 -0.0694055 -0.493255
  outer loop
   vertex -0.019241 0.017201 0.011135
   vertex -0.022867 0.012743 0.005388
   vertex -0.022666 0.025751 0.003911
  endloop
 endfacet
 facet normal 0.0994832 0.531336 -0.8413
  outer loop
   vertex -0.022666 0.025751 0.003911
   vertex -0.024669 0.03283 0.008145
   vertex -0.014821 0.03633 0.01152
  endloop
 endfacet
 facet normal 0.942325 0.324482 -0.0820615
  outer loop
   vertex 0.021185 0.03221 -0.01157
   vertex 0.019346 0.037497 -0.011782
   vertex 0.020267 0.037802 0
  endloop
 endfacet
 facet normal 0.951977 0.298367 -0.0686736
  outer loop
   vertex 0.021867 0.032697 0
   vertex 0.021185 0.03221 -0.01157
   vertex 0.020267 0.037802 0
  endloop
 endfacet
 facet normal 0.777885 0.247412 -0.577653
  outer loop
   vertex 0.019346 0.037497 -0.011782
   vertex 0.021185 0.03221 -0.01157
   vertex 0.015399 0.031567 -0.019637
  endloop
 endfacet
 facet normal 0.951977 0.298367 0.0686736
  outer loop
   vertex 0.020267 0.037802 0
   vertex 0.021185 0.03221 0.01157
   vertex 0.021867 0.032697 0
  endloop
 endfacet
 facet normal 0.942325 0.324482 0.0820615
  outer loop
   vertex 0.020267 0.037802 0
   vertex 0.019346 0.037497 0.011782
   vertex 0.021185 0.03221 0.01157
  endloop
 endfacet
 facet normal 0.777885 0.247412 0.577653
  outer loop
   vertex 0.015399 0.031567 0.019637
   vertex 0.021185 0.03221 0.01157
   vertex 0.019346 0.037497 0.011782
  endloop
 endfacet
 facet normal 0.893987 -0.00148627 -0.448091
  outer loop
   vertex 0.015273 0.03718 -0.019907
   vertex 0.019346 0.037497 -0.011782
   vertex 0.015399 0.031567 -0.019637
  endloop
 endfacet
 facet normal 0.395333 -0.0912235 -0.913997
  outer loop
   vertex 0.015399 0.031567 -0.019637
   vertex 0.00858 0.030741 -0.022504
   vertex 0.007549 0.037184 -0.023593
  endloop
 endfacet
 facet normal 0.430427 -0.0337261 -0.901995
  outer loop
   vertex 0.015273 0.03718 -0.019907
   vertex 0.015399 0.031567 -0.019637
   vertex 0.007549 0.037184 -0.023593
  endloop
 endfacet
 facet normal 0.114741 0.00590097 -0.993378
  outer loop
   vertex 0.00858 0.030741 -0.022504
   vertex -0.000977 0.032237 -0.023599
   vertex -0.002455 0.036398 -0.023745
  endloop
 endfacet
 facet normal 0.0277365 -0.162276 -0.986356
  outer loop
   vertex 0.007549 0.037184 -0.023593
   vertex 0.00858 0.030741 -0.022504
   vertex -0.002455 0.036398 -0.023745
  endloop
 endfacet
 facet normal 0.721411 0.527495 -0.448682
  outer loop
   vertex -0.013957 0.038367 -0.008823
   vertex -0.01644 0.036581 -0.014915
   vertex -0.022715 0.043448 -0.016931
  endloop
 endfacet
 facet normal 0.106256 0.89017 0.443065
  outer loop
   vertex -0.022715 0.043448 -0.016931
   vertex -0.022658 0.040305 -0.01063
   vertex -0.013957 0.038367 -0.008823
  endloop
 endfacet
 facet normal -0.117561 0.341615 0.932458
  outer loop
   vertex -0.022658 0.040305 -0.01063
   vertex -0.024669 0.03283 -0.008145
   vertex -0.013957 0.038367 -0.008823
  endloop
 endfacet
 facet normal 0.432143 -0.780776 0.451267
  outer loop
   vertex -0.014821 0.03633 -0.01152
   vertex -0.013957 0.038367 -0.008823
   vertex -0.024669 0.03283 -0.008145
  endloop
 endfacet
 facet normal -0.0155809 0.992838 0.118445
  outer loop
   vertex 0.004814 0.037609 0
   vertex -0.013957 0.038367 -0.008823
   vertex -0.012136 0.037343 0
  endloop
 endfacet
 facet normal 0.0593904 0.997406 -0.0406646
  outer loop
   vertex 0.004814 0.037609 0
   vertex -0.011853 0.037863 -0.018112
   vertex -0.013957 0.038367 -0.008823
  endloop
 endfacet
 facet normal -0.349616 0.927895 -0.129535
  outer loop
   vertex -0.013957 0.038367 -0.008823
   vertex -0.011853 0.037863 -0.018112
   vertex -0.01644 0.036581 -0.014915
  endloop
 endfacet
 facet normal -0.0155809 0.992838 -0.118445
  outer loop
   vertex -0.012136 0.037343 0
   vertex -0.013957 0.038367 0.008823
   vertex 0.004814 0.037609 0
  endloop
 endfacet
 facet normal 0.721411 0.527495 0.448682
  outer loop
   vertex -0.022715 0.043448 0.016931
   vertex -0.01644 0.036581 0.014915
   vertex -0.013957 0.038367 0.008823
  endloop
 endfacet
 facet normal 0.106256 0.89017 -0.443065
  outer loop
   vertex -0.013957 0.038367 0.008823
   vertex -0.022658 0.040305 0.01063
   vertex -0.022715 0.043448 0.016931
  endloop
 endfacet
 facet normal -0.117561 0.341615 -0.932458
  outer loop
   vertex -0.013957 0.038367 0.008823
   vertex -0.024669 0.03283 0.008145
   vertex -0.022658 0.040305 0.01063
  endloop
 endfacet
 facet normal 0.432143 -0.780776 -0.451267
  outer loop
   vertex -0.024669 0.03283 0.008145
   vertex -0.013957 0.038367 0.008823
   vertex -0.014821 0.03633 0.01152
  endloop
 endfacet
 facet normal 0.0593904 0.997406 0.0406646
  outer loop
   vertex -0.013957 0.038367 0.008823
   vertex -0.011853 0.037863 0.018112
   vertex 0.004814 0.037609 0
  endloop
 endfacet
 facet normal -0.349616 0.927895 0.129535
  outer loop
   vertex -0.01644 0.036581 0.014915
   vertex -0.011853 0.037863 0.018112
   vertex -0.013957 0.038367 0.008823
  endloop
 endfacet
 facet normal -0.28646 -0.135033 -0.948529
  outer loop
   vertex -0.000977 0.032237 -0.023599
   vertex -0.009813 0.033217 -0.02107
   vertex -0.002455 0.036398 -0.023745
  endloop
 endfacet
 facet normal 0.107073 0.567005 -0.816726
  outer loop
   vertex -0.009813 0.033217 -0.02107
   vertex -0.016786 0.034456 -0.021124
   vertex -0.011853 0.037863 -0.018112
  endloop
 endfacet
 facet normal -0.446012 0.333077 -0.830743
  outer loop
   vertex -0.009813 0.033217 -0.02107
   vertex -0.011853 0.037863 -0.018112
   vertex -0.002455 0.036398 -0.023745
  endloop
 endfacet
 facet normal -0.429564 0.861449 -0.270889
  outer loop
   vertex -0.016786 0.034456 -0.021124
   vertex -0.01644 0.036581 -0.014915
   vertex -0.011853 0.037863 -0.018112
  endloop
 endfacet
 facet normal 0.759275 0.49236 -0.425539
  outer loop
   vertex -0.020106 0.028672 -0.03374
   vertex -0.022238 0.035098 -0.030109
   vertex -0.016786 0.034456 -0.021124
  endloop
 endfacet
 facet normal 0.610499 0.725095 -0.318634
  outer loop
   vertex -0.02094 0.038679 -0.019473
   vertex -0.016786 0.034456 -0.021124
   vertex -0.022238 0.035098 -0.030109
  endloop
 endfacet
 facet normal 0.62591 0.726531 -0.283531
  outer loop
   vertex -0.01644 0.036581 -0.014915
   vertex -0.016786 0.034456 -0.021124
   vertex -0.02094 0.038679 -0.019473
  endloop
 endfacet
 facet normal -0.531368 0.0459167 -0.845896
  outer loop
   vertex -0.02423 0.02519 -0.018198
   vertex -0.027751 0.017788 -0.016388
   vertex -0.032679 0.0161 -0.013384
  endloop
 endfacet
 facet normal -0.437811 -0.757112 -0.484874
  outer loop
   vertex -0.025888 0.030186 -0.024502
   vertex -0.02423 0.02519 -0.018198
   vertex -0.031569 0.032091 -0.022347
  endloop
 endfacet
 facet normal -0.607678 -0.767951 -0.20243
  outer loop
   vertex -0.02423 0.02519 -0.018198
   vertex -0.032182 0.030641 -0.015006
   vertex -0.031569 0.032091 -0.022347
  endloop
 endfacet
 facet normal 0.458233 -0.410722 -0.788245
  outer loop
   vertex -0.019241 0.017201 -0.011135
   vertex -0.027751 0.017788 -0.016388
   vertex -0.02423 0.02519 -0.018198
  endloop
 endfacet
 facet normal -0.590516 0.126786 -0.797005
  outer loop
   vertex -0.032679 0.0161 -0.013384
   vertex -0.029876 0.028954 -0.013416
   vertex -0.02423 0.02519 -0.018198
  endloop
 endfacet
 facet normal -0.574461 -0.817803 -0.0345454
  outer loop
   vertex -0.029876 0.028954 -0.013416
   vertex -0.032182 0.030641 -0.015006
   vertex -0.02423 0.02519 -0.018198
  endloop
 endfacet
 facet normal -0.292826 0.187413 -0.937619
  outer loop
   vertex -0.025888 0.030186 -0.024502
   vertex -0.031569 0.032091 -0.022347
   vertex -0.030778 0.041967 -0.02062
  endloop
 endfacet
 facet normal -0.663002 -0.293475 -0.688695
  outer loop
   vertex -0.022238 0.035098 -0.030109
   vertex -0.020782 0.022666 -0.026213
   vertex -0.025888 0.030186 -0.024502
  endloop
 endfacet
 facet normal -0.890798 0.191611 -0.412024
  outer loop
   vertex -0.022238 0.035098 -0.030109
   vertex -0.025888 0.030186 -0.024502
   vertex -0.025333 0.036998 -0.022534
  endloop
 endfacet
 facet normal -0.0781935 0.282576 -0.956053
  outer loop
   vertex -0.025333 0.036998 -0.022534
   vertex -0.025888 0.030186 -0.024502
   vertex -0.030778 0.041967 -0.02062
  endloop
 endfacet
 facet normal -0.981222 -0.0571907 0.184206
  outer loop
   vertex -0.022238 0.035098 -0.030109
   vertex -0.021769 0.025238 -0.030672
   vertex -0.020782 0.022666 -0.026213
  endloop
 endfacet
 facet normal 0.894519 -0.248753 0.371426
  outer loop
   vertex -0.020581 0.010056 -0.012693
   vertex -0.019241 0.017201 -0.011135
   vertex -0.022867 0.012743 -0.005388
  endloop
 endfacet
 facet normal 0.410949 0.119991 -0.903728
  outer loop
   vertex -0.019241 0.017201 -0.011135
   vertex -0.020581 0.010056 -0.012693
   vertex -0.032789 0.011429 -0.018062
  endloop
 endfacet
 facet normal 0.507609 -0.180374 -0.842496
  outer loop
   vertex -0.027751 0.017788 -0.016388
   vertex -0.019241 0.017201 -0.011135
   vertex -0.032789 0.011429 -0.018062
  endloop
 endfacet
 facet normal 0.143441 -0.827128 -0.5434
  outer loop
   vertex -0.021769 0.025238 -0.030672
   vertex -0.02624 0.026674 -0.034038
   vertex -0.024309 0.029169 -0.037326
  endloop
 endfacet
 facet normal 0.406385 -0.710293 -0.574749
  outer loop
   vertex -0.020106 0.028672 -0.03374
   vertex -0.021769 0.025238 -0.030672
   vertex -0.024309 0.029169 -0.037326
  endloop
 endfacet
 facet normal -0.601366 0.000443936 0.798974
  outer loop
   vertex -0.021769 0.025238 -0.030672
   vertex -0.026869 0.034895 -0.034516
   vertex -0.02624 0.026674 -0.034038
  endloop
 endfacet
 facet normal -0.685778 -0.0739621 0.724043
  outer loop
   vertex -0.022238 0.035098 -0.030109
   vertex -0.026869 0.034895 -0.034516
   vertex -0.021769 0.025238 -0.030672
  endloop
 endfacet
 facet normal 0.583176 0.537602 -0.609007
  outer loop
   vertex -0.020106 0.028672 -0.03374
   vertex -0.024309 0.029169 -0.037326
   vertex -0.022238 0.035098 -0.030109
  endloop
 endfacet
 facet normal 0.804826 -0.226445 0.548615
  outer loop
   vertex -0.023381 0.006829 -0.007075
   vertex -0.022867 0.012743 -0.005388
   vertex -0.026183 0.014011 0
  endloop
 endfacet
 facet normal 0.797296 -0.249793 0.549475
  outer loop
   vertex -0.026183 0.014011 0
   vertex -0.022867 0.012743 -0.005388
   vertex -0.023024 0.024094 0
  endloop
 endfacet
 facet normal 0.917768 -0.180646 0.35365
  outer loop
   vertex -0.023381 0.006829 -0.007075
   vertex -0.020581 0.010056 -0.012693
   vertex -0.022867 0.012743 -0.005388
  endloop
 endfacet
 facet normal 0.797296 -0.249793 -0.549475
  outer loop
   vertex -0.023024 0.024094 0
   vertex -0.022867 0.012743 0.005388
   vertex -0.026183 0.014011 0
  endloop
 endfacet
 facet normal -0.5413 0.728726 -0.419467
  outer loop
   vertex -0.032022 0.027475 0
   vertex -0.033449 0.023408 -0.005224
   vertex -0.042582 0.019631 0
  endloop
 endfacet
 facet normal -0.220749 0.797915 -0.560894
  outer loop
   vertex -0.029262 0.022073 -0.008771
   vertex -0.033449 0.023408 -0.005224
   vertex -0.032022 0.027475 0
  endloop
 endfacet
 facet normal -0.961426 -0.052964 -0.269915
  outer loop
   vertex -0.028911 0.027066 -0.011001
   vertex -0.029262 0.022073 -0.008771
   vertex -0.032022 0.027475 0
  endloop
 endfacet
 facet normal -0.726162 0.648106 -0.229449
  outer loop
   vertex -0.032022 0.027475 0
   vertex -0.024669 0.03283 -0.008145
   vertex -0.028911 0.027066 -0.011001
  endloop
 endfacet
 facet normal -0.5413 0.728726 0.419467
  outer loop
   vertex -0.042582 0.019631 0
   vertex -0.033449 0.023408 0.005224
   vertex -0.032022 0.027475 0
  endloop
 endfacet
 facet normal -0.220749 0.797915 0.560894
  outer loop
   vertex -0.032022 0.027475 0
   vertex -0.033449 0.023408 0.005224
   vertex -0.029262 0.022073 0.008771
  endloop
 endfacet
 facet normal -0.961426 -0.052964 0.269915
  outer loop
   vertex -0.032022 0.027475 0
   vertex -0.029262 0.022073 0.008771
   vertex -0.028911 0.027066 0.011001
  endloop
 endfacet
 facet normal -0.726162 0.648106 0.229449
  outer loop
   vertex -0.028911 0.027066 0.011001
   vertex -0.024669 0.03283 0.008145
   vertex -0.032022 0.027475 0
  endloop
 endfacet
 facet normal -0.831563 0.452138 0.322606
  outer loop
   vertex -0.024669 0.03283 -0.008145
   vertex -0.025821 0.033464 -0.012003
   vertex -0.028911 0.027066 -0.011001
  endloop
 endfacet
 facet normal -0.882758 0.343905 0.320107
  outer loop
   vertex -0.022658 0.040305 -0.01063
   vertex -0.025821 0.033464 -0.012003
   vertex -0.024669 0.03283 -0.008145
  endloop
 endfacet
 facet normal 0.893987 -0.00148627 0.448091
  outer loop
   vertex 0.015399 0.031567 0.019637
   vertex 0.019346 0.037497 0.011782
   vertex 0.015273 0.03718 0.019907
  endloop
 endfacet
 facet normal 0.395333 -0.0912235 0.913997
  outer loop
   vertex 0.007549 0.037184 0.023593
   vertex 0.00858 0.030741 0.022504
   vertex 0.015399 0.031567 0.019637
  endloop
 endfacet
 facet normal 0.430427 -0.0337261 0.901995
  outer loop
   vertex 0.007549 0.037184 0.023593
   vertex 0.015399 0.031567 0.019637
   vertex 0.015273 0.03718 0.019907
  endloop
 endfacet
 facet normal 0.114741 0.00590097 0.993378
  outer loop
   vertex -0.002455 0.036398 0.023745
   vertex -0.000977 0.032237 0.023599
   vertex 0.00858 0.030741 0.022504
  endloop
 endfacet
 facet normal 0.0277365 -0.162276 0.986356
  outer loop
   vertex -0.002455 0.036398 0.023745
   vertex 0.00858 0.030741 0.022504
   vertex 0.007549 0.037184 0.023593
  endloop
 endfacet
 facet normal -0.28646 -0.135033 0.948529
  outer loop
   vertex -0.002455 0.036398 0.023745
   vertex -0.009813 0.033217 0.02107
   vertex -0.000977 0.032237 0.023599
  endloop
 endfacet
 facet normal 0.107073 0.567005 0.816726
  outer loop
   vertex -0.011853 0.037863 0.018112
   vertex -0.016786 0.034456 0.021124
   vertex -0.009813 0.033217 0.02107
  endloop
 endfacet
 facet normal -0.446012 0.333077 0.830743
  outer loop
   vertex -0.002455 0.036398 0.023745
   vertex -0.011853 0.037863 0.018112
   vertex -0.009813 0.033217 0.02107
  endloop
 endfacet
 facet normal -0.429564 0.861449 0.270889
  outer loop
   vertex -0.011853 0.037863 0.018112
   vertex -0.01644 0.036581 0.014915
   vertex -0.016786 0.034456 0.021124
  endloop
 endfacet
 facet normal 0.759275 0.49236 0.425539
  outer loop
   vertex -0.016786 0.034456 0.021124
   vertex -0.022238 0.035098 0.030109
   vertex -0.020106 0.028672 0.03374
  endloop
 endfacet
 facet normal 0.610499 0.725095 0.318634
  outer loop
   vertex -0.022238 0.035098 0.030109
   vertex -0.016786 0.034456 0.021124
   vertex -0.02094 0.038679 0.019473
  endloop
 endfacet
 facet normal 0.62591 0.726531 0.283531
  outer loop
   vertex -0.02094 0.038679 0.019473
   vertex -0.016786 0.034456 0.021124
   vertex -0.01644 0.036581 0.014915
  endloop
 endfacet
 facet normal -0.292826 0.187413 0.937619
  outer loop
   vertex -0.030778 0.041967 0.02062
   vertex -0.031569 0.032091 0.022347
   vertex -0.025888 0.030186 0.024502
  endloop
 endfacet
 facet normal -0.437811 -0.757112 0.484874
  outer loop
   vertex -0.031569 0.032091 0.022347
   vertex -0.02423 0.02519 0.018198
   vertex -0.025888 0.030186 0.024502
  endloop
 endfacet
 facet normal -0.663002 -0.293475 0.688695
  outer loop
   vertex -0.025888 0.030186 0.024502
   vertex -0.020782 0.022666 0.026213
   vertex -0.022238 0.035098 0.030109
  endloop
 endfacet
 facet normal -0.890798 0.191611 0.412024
  outer loop
   vertex -0.025333 0.036998 0.022534
   vertex -0.025888 0.030186 0.024502
   vertex -0.022238 0.035098 0.030109
  endloop
 endfacet
 facet normal -0.0781935 0.282576 0.956053
  outer loop
   vertex -0.030778 0.041967 0.02062
   vertex -0.025888 0.030186 0.024502
   vertex -0.025333 0.036998 0.022534
  endloop
 endfacet
 facet normal -0.531368 0.0459167 0.845896
  outer loop
   vertex -0.032679 0.0161 0.013384
   vertex -0.027751 0.017788 0.016388
   vertex -0.02423 0.02519 0.018198
  endloop
 endfacet
 facet normal -0.607678 -0.767951 0.20243
  outer loop
   vertex -0.031569 0.032091 0.022347
   vertex -0.032182 0.030641 0.015006
   vertex -0.02423 0.02519 0.018198
  endloop
 endfacet
 facet normal 0.458233 -0.410722 0.788245
  outer loop
   vertex -0.02423 0.02519 0.018198
   vertex -0.027751 0.017788 0.016388
   vertex -0.019241 0.017201 0.011135
  endloop
 endfacet
 facet normal -0.590516 0.126786 0.797005
  outer loop
   vertex -0.02423 0.02519 0.018198
   vertex -0.029876 0.028954 0.013416
   vertex -0.032679 0.0161 0.013384
  endloop
 endfacet
 facet normal -0.574461 -0.817803 0.0345454
  outer loop
   vertex -0.02423 0.02519 0.018198
   vertex -0.032182 0.030641 0.015006
   vertex -0.029876 0.028954 0.013416
  endloop
 endfacet
 facet normal -0.981222 -0.0571907 -0.184206
  outer loop
   vertex -0.020782 0.022666 0.026213
   vertex -0.021769 0.025238 0.030672
   vertex -0.022238 0.035098 0.030109
  endloop
 endfacet
 facet normal 0.894519 -0.248753 -0.371426
  outer loop
   vertex -0.022867 0.012743 0.005388
   vertex -0.019241 0.017201 0.011135
   vertex -0.020581 0.010056 0.012693
  endloop
 endfacet
 facet normal 0.410949 0.119991 0.903728
  outer loop
   vertex -0.032789 0.011429 0.018062
   vertex -0.020581 0.010056 0.012693
   vertex -0.019241 0.017201 0.011135
  endloop
 endfacet
 facet normal 0.507609 -0.180374 0.842496
  outer loop
   vertex -0.032789 0.011429 0.018062
   vertex -0.019241 0.017201 0.011135
   vertex -0.027751 0.017788 0.016388
  endloop
 endfacet
 facet normal 0.583176 0.537602 0.609007
  outer loop
   vertex -0.022238 0.035098 0.030109
   vertex -0.024309 0.029169 0.037326
   vertex -0.020106 0.028672 0.03374
  endloop
 endfacet
 facet normal 0.406385 -0.710293 0.574749
  outer loop
   vertex -0.024309 0.029169 0.037326
   vertex -0.021769 0.025238 0.030672
   vertex -0.020106 0.028672 0.03374
  endloop
 endfacet
 facet normal 0.143441 -0.827128 0.5434
  outer loop
   vertex -0.024309 0.029169 0.037326
   vertex -0.02624 0.026674 0.034038
   vertex -0.021769 0.025238 0.030672
  endloop
 endfacet
 facet normal -0.601366 0.000443936 -0.798974
  outer loop
   vertex -0.02624 0.026674 0.034038
   vertex -0.026869 0.034895 0.034516
   vertex -0.021769 0.025238 0.030672
  endloop
 endfacet
 facet normal -0.685778 -0.0739621 -0.724043
  outer loop
   vertex -0.021769 0.025238 0.030672
   vertex -0.026869 0.034895 0.034516
   vertex -0.022238 0.035098 0.030109
  endloop
 endfacet
 facet normal 0.804826 -0.226445 -0.548615
  outer loop
   vertex -0.026183 0.014011 0
   vertex -0.022867 0.012743 0.005388
   vertex -0.023381 0.006829 0.007075
  endloop
 endfacet
 facet normal 0.917768 -0.180646 -0.35365
  outer loop
   vertex -0.022867 0.012743 0.005388
   vertex -0.020581 0.010056 0.012693
   vertex -0.023381 0.006829 0.007075
  endloop
 endfacet
 facet normal -0.831563 0.452138 -0.322606
  outer loop
   vertex -0.028911 0.027066 0.011001
   vertex -0.025821 0.033464 0.012003
   vertex -0.024669 0.03283 0.008145
  endloop
 endfacet
 facet normal -0.882758 0.343905 -0.320107
  outer loop
   vertex -0.024669 0.03283 0.008145
   vertex -0.025821 0.033464 0.012003
   vertex -0.022658 0.040305 0.01063
  endloop
 endfacet
 facet normal -0.0170008 0.999391 -0.0304692
  outer loop
   vertex 0.004814 0.037609 0
   vertex 0.019346 0.037497 -0.011782
   vertex 0.015273 0.03718 -0.019907
  endloop
 endfacet
 facet normal -0.0124846 0.999612 -0.024901
  outer loop
   vertex 0.004814 0.037609 0
   vertex 0.020267 0.037802 0
   vertex 0.019346 0.037497 -0.011782
  endloop
 endfacet
 facet normal -0.0124846 0.999612 0.024901
  outer loop
   vertex 0.019346 0.037497 0.011782
   vertex 0.020267 0.037802 0
   vertex 0.004814 0.037609 0
  endloop
 endfacet
 facet normal -0.0170008 0.999391 0.0304692
  outer loop
   vertex 0.015273 0.03718 0.019907
   vertex 0.019346 0.037497 0.011782
   vertex 0.004814 0.037609 0
  endloop
 endfacet
 facet normal 0.00863507 0.999818 -0.0170095
  outer loop
   vertex 0.004814 0.037609 0
   vertex 0.015273 0.03718 -0.019907
   vertex 0.007549 0.037184 -0.023593
  endloop
 endfacet
 facet normal -0.0778911 0.996597 -0.026982
  outer loop
   vertex 0.004814 0.037609 0
   vertex 0.007549 0.037184 -0.023593
   vertex -0.002455 0.036398 -0.023745
  endloop
 endfacet
 facet normal 0.104938 0.991037 -0.0826674
  outer loop
   vertex 0.004814 0.037609 0
   vertex -0.002455 0.036398 -0.023745
   vertex -0.011853 0.037863 -0.018112
  endloop
 endfacet
 facet normal 0.716158 0.516663 -0.46923
  outer loop
   vertex -0.02094 0.038679 -0.019473
   vertex -0.022715 0.043448 -0.016931
   vertex -0.01644 0.036581 -0.014915
  endloop
 endfacet
 facet normal 0.270658 0.529335 -0.804083
  outer loop
   vertex -0.022715 0.043448 -0.016931
   vertex -0.02094 0.038679 -0.019473
   vertex -0.030778 0.041967 -0.02062
  endloop
 endfacet
 facet normal -0.313468 0.891421 0.32727
  outer loop
   vertex -0.022715 0.043448 -0.016931
   vertex -0.030778 0.041967 -0.02062
   vertex -0.037137 0.038505 -0.017281
  endloop
 endfacet
 facet normal -0.160531 0.40463 0.90028
  outer loop
   vertex -0.030002 0.035671 -0.014735
   vertex -0.022715 0.043448 -0.016931
   vertex -0.037137 0.038505 -0.017281
  endloop
 endfacet
 facet normal -0.278132 0.493331 0.824177
  outer loop
   vertex -0.030002 0.035671 -0.014735
   vertex -0.025821 0.033464 -0.012003
   vertex -0.022715 0.043448 -0.016931
  endloop
 endfacet
 facet normal -0.90435 0.378591 0.197026
  outer loop
   vertex -0.022658 0.040305 -0.01063
   vertex -0.022715 0.043448 -0.016931
   vertex -0.025821 0.033464 -0.012003
  endloop
 endfacet
 facet normal 0.00863507 0.999818 0.0170095
  outer loop
   vertex 0.007549 0.037184 0.023593
   vertex 0.015273 0.03718 0.019907
   vertex 0.004814 0.037609 0
  endloop
 endfacet
 facet normal -0.0778911 0.996597 0.026982
  outer loop
   vertex -0.002455 0.036398 0.023745
   vertex 0.007549 0.037184 0.023593
   vertex 0.004814 0.037609 0
  endloop
 endfacet
 facet normal 0.104938 0.991037 0.0826674
  outer loop
   vertex -0.011853 0.037863 0.018112
   vertex -0.002455 0.036398 0.023745
   vertex 0.004814 0.037609 0
  endloop
 endfacet
 facet normal 0.716158 0.516663 0.46923
  outer loop
   vertex -0.01644 0.036581 0.014915
   vertex -0.022715 0.043448 0.016931
   vertex -0.02094 0.038679 0.019473
  endloop
 endfacet
 facet normal 0.270658 0.529335 0.804083
  outer loop
   vertex -0.030778 0.041967 0.02062
   vertex -0.02094 0.038679 0.019473
   vertex -0.022715 0.043448 0.016931
  endloop
 endfacet
 facet normal -0.313468 0.891421 -0.32727
  outer loop
   vertex -0.037137 0.038505 0.017281
   vertex -0.030778 0.041967 0.02062
   vertex -0.022715 0.043448 0.016931
  endloop
 endfacet
 facet normal -0.160531 0.40463 -0.90028
  outer loop
   vertex -0.037137 0.038505 0.017281
   vertex -0.022715 0.043448 0.016931
   vertex -0.030002 0.035671 0.014735
  endloop
 endfacet
 facet normal -0.278132 0.493331 -0.824177
  outer loop
   vertex -0.022715 0.043448 0.016931
   vertex -0.025821 0.033464 0.012003
   vertex -0.030002 0.035671 0.014735
  endloop
 endfacet
 facet normal -0.90435 0.378591 -0.197026
  outer loop
   vertex -0.025821 0.033464 0.012003
   vertex -0.022715 0.043448 0.016931
   vertex -0.022658 0.040305 0.01063
  endloop
 endfacet
 facet normal 0.561482 0.553082 -0.615498
  outer loop
   vertex -0.024309 0.029169 -0.037326
   vertex -0.026869 0.034895 -0.034516
   vertex -0.022238 0.035098 -0.030109
  endloop
 endfacet
 facet normal -0.152449 0.942125 -0.298596
  outer loop
   vertex -0.025333 0.036998 -0.022534
   vertex -0.02094 0.038679 -0.019473
   vertex -0.022238 0.035098 -0.030109
  endloop
 endfacet
 facet normal 0.288126 0.60244 -0.744345
  outer loop
   vertex -0.02094 0.038679 -0.019473
   vertex -0.025333 0.036998 -0.022534
   vertex -0.030778 0.041967 -0.02062
  endloop
 endfacet
 facet normal -0.557158 0.594139 -0.580149
  outer loop
   vertex -0.032679 0.0161 -0.013384
   vertex -0.027751 0.017788 -0.016388
   vertex -0.032789 0.011429 -0.018062
  endloop
 endfacet
 facet normal -0.651523 -0.0178644 -0.758418
  outer loop
   vertex -0.036067 0.007757 -0.010277
   vertex -0.035529 0.012929 -0.010861
   vertex -0.032679 0.0161 -0.013384
  endloop
 endfacet
 facet normal -0.879188 0.195151 -0.434678
  outer loop
   vertex -0.03321 0.003856 -0.017807
   vertex -0.036067 0.007757 -0.010277
   vertex -0.032679 0.0161 -0.013384
  endloop
 endfacet
 facet normal -0.998039 0.0544428 -0.0308931
  outer loop
   vertex -0.032789 0.011429 -0.018062
   vertex -0.03321 0.003856 -0.017807
   vertex -0.032679 0.0161 -0.013384
  endloop
 endfacet
 facet normal -0.810595 0.529469 -0.250198
  outer loop
   vertex -0.032371 0.018474 -0.009358
   vertex -0.032679 0.0161 -0.013384
   vertex -0.035529 0.012929 -0.010861
  endloop
 endfacet
 facet normal -0.975807 0.212662 -0.0507482
  outer loop
   vertex -0.032679 0.0161 -0.013384
   vertex -0.032371 0.018474 -0.009358
   vertex -0.029876 0.028954 -0.013416
  endloop
 endfacet
 facet normal 0.308168 0.139868 -0.940994
  outer loop
   vertex -0.031569 0.032091 -0.022347
   vertex -0.035241 0.036757 -0.022856
   vertex -0.030778 0.041967 -0.02062
  endloop
 endfacet
 facet normal -0.629401 -0.554687 -0.544221
  outer loop
   vertex -0.037377 0.034174 -0.017753
   vertex -0.035241 0.036757 -0.022856
   vertex -0.031569 0.032091 -0.022347
  endloop
 endfacet
 facet normal -0.472165 -0.856473 -0.208599
  outer loop
   vertex -0.037377 0.034174 -0.017753
   vertex -0.031569 0.032091 -0.022347
   vertex -0.032182 0.030641 -0.015006
  endloop
 endfacet
 facet normal -0.50126 -0.0662479 0.862757
  outer loop
   vertex -0.037137 0.038505 -0.017281
   vertex -0.037377 0.034174 -0.017753
   vertex -0.032182 0.030641 -0.015006
  endloop
 endfacet
 facet normal -0.306069 0.0815475 0.94851
  outer loop
   vertex -0.030002 0.035671 -0.014735
   vertex -0.037137 0.038505 -0.017281
   vertex -0.032182 0.030641 -0.015006
  endloop
 endfacet
 facet normal -0.478505 0.159712 0.863438
  outer loop
   vertex -0.032182 0.030641 -0.015006
   vertex -0.029876 0.028954 -0.013416
   vertex -0.025821 0.033464 -0.012003
  endloop
 endfacet
 facet normal -0.478884 0.161054 0.862979
  outer loop
   vertex -0.030002 0.035671 -0.014735
   vertex -0.032182 0.030641 -0.015006
   vertex -0.025821 0.033464 -0.012003
  endloop
 endfacet
 facet normal -0.678732 0.421938 0.601075
  outer loop
   vertex -0.025821 0.033464 -0.012003
   vertex -0.029876 0.028954 -0.013416
   vertex -0.028911 0.027066 -0.011001
  endloop
 endfacet
 facet normal -0.602665 0.408838 0.685307
  outer loop
   vertex -0.029262 0.022073 -0.008771
   vertex -0.029876 0.028954 -0.013416
   vertex -0.032371 0.018474 -0.009358
  endloop
 endfacet
 facet normal -0.782336 0.299025 0.546383
  outer loop
   vertex -0.028911 0.027066 -0.011001
   vertex -0.029876 0.028954 -0.013416
   vertex -0.029262 0.022073 -0.008771
  endloop
 endfacet
 facet normal -0.593735 0.687824 -0.417585
  outer loop
   vertex -0.037137 0.038505 -0.017281
   vertex -0.030778 0.041967 -0.02062
   vertex -0.035241 0.036757 -0.022856
  endloop
 endfacet
 facet normal 0.396833 -0.0545584 -0.916268
  outer loop
   vertex -0.020581 0.010056 -0.012693
   vertex -0.025486 -0.001924 -0.014104
   vertex -0.032789 0.011429 -0.018062
  endloop
 endfacet
 facet normal 0.893342 -0.391704 0.220244
  outer loop
   vertex -0.023381 0.006829 -0.007075
   vertex -0.025486 -0.001924 -0.014104
   vertex -0.020581 0.010056 -0.012693
  endloop
 endfacet
 facet normal 0.399161 -0.053012 -0.915347
  outer loop
   vertex -0.025486 -0.001924 -0.014104
   vertex -0.03321 0.003856 -0.017807
   vertex -0.032789 0.011429 -0.018062
  endloop
 endfacet
 facet normal -0.825009 -0.0955081 -0.556991
  outer loop
   vertex -0.02624 0.026674 -0.034038
   vertex -0.026869 0.034895 -0.034516
   vertex -0.024309 0.029169 -0.037326
  endloop
 endfacet
 facet normal 0.641002 -0.397015 0.656883
  outer loop
   vertex -0.026444 0.004291 -0.00562
   vertex -0.023381 0.006829 -0.007075
   vertex -0.026183 0.014011 0
  endloop
 endfacet
 facet normal 0.683595 -0.549837 0.479976
  outer loop
   vertex -0.026444 0.004291 -0.00562
   vertex -0.025486 -0.001924 -0.014104
   vertex -0.023381 0.006829 -0.007075
  endloop
 endfacet
 facet normal 0.686509 -0.377685 0.621337
  outer loop
   vertex -0.02943 0.008109 0
   vertex -0.026444 0.004291 -0.00562
   vertex -0.026183 0.014011 0
  endloop
 endfacet
 facet normal 0.641002 -0.397015 -0.656883
  outer loop
   vertex -0.026183 0.014011 0
   vertex -0.023381 0.006829 0.007075
   vertex -0.026444 0.004291 0.00562
  endloop
 endfacet
 facet normal 0.686509 -0.377685 -0.621337
  outer loop
   vertex -0.026183 0.014011 0
   vertex -0.026444 0.004291 0.00562
   vertex -0.02943 0.008109 0
  endloop
 endfacet
 facet normal -0.575594 0.428612 -0.696407
  outer loop
   vertex -0.042582 0.019631 0
   vertex -0.033449 0.023408 -0.005224
   vertex -0.037963 0.018667 -0.004411
  endloop
 endfacet
 facet normal -0.528118 0.371923 -0.76339
  outer loop
   vertex -0.033449 0.023408 -0.005224
   vertex -0.029262 0.022073 -0.008771
   vertex -0.037963 0.018667 -0.004411
  endloop
 endfacet
 facet normal -0.18164 0.60614 -0.77434
  outer loop
   vertex -0.04162 0.014435 -0.004293
   vertex -0.05278 0.016575 0
   vertex -0.042582 0.019631 0
  endloop
 endfacet
 facet normal -0.559195 0.464063 -0.686983
  outer loop
   vertex -0.037963 0.018667 -0.004411
   vertex -0.04162 0.014435 -0.004293
   vertex -0.042582 0.019631 0
  endloop
 endfacet
 facet normal -0.575594 0.428612 0.696407
  outer loop
   vertex -0.037963 0.018667 0.004411
   vertex -0.033449 0.023408 0.005224
   vertex -0.042582 0.019631 0
  endloop
 endfacet
 facet normal -0.18164 0.60614 0.77434
  outer loop
   vertex -0.042582 0.019631 0
   vertex -0.05278 0.016575 0
   vertex -0.04162 0.014435 0.004293
  endloop
 endfacet
 facet normal -0.559195 0.464063 0.686983
  outer loop
   vertex -0.042582 0.019631 0
   vertex -0.04162 0.014435 0.004293
   vertex -0.037963 0.018667 0.004411
  endloop
 endfacet
 facet normal -0.535643 0.565065 -0.627526
  outer loop
   vertex -0.029262 0.022073 -0.008771
   vertex -0.032371 0.018474 -0.009358
   vertex -0.037963 0.018667 -0.004411
  endloop
 endfacet
 facet normal -0.528118 0.371923 0.76339
  outer loop
   vertex -0.037963 0.018667 0.004411
   vertex -0.029262 0.022073 0.008771
   vertex -0.033449 0.023408 0.005224
  endloop
 endfacet
 facet normal -0.535643 0.565065 0.627526
  outer loop
   vertex -0.037963 0.018667 0.004411
   vertex -0.032371 0.018474 0.009358
   vertex -0.029262 0.022073 0.008771
  endloop
 endfacet
 facet normal -0.602665 0.408838 -0.685307
  outer loop
   vertex -0.032371 0.018474 0.009358
   vertex -0.029876 0.028954 0.013416
   vertex -0.029262 0.022073 0.008771
  endloop
 endfacet
 facet normal -0.782336 0.299025 -0.546383
  outer loop
   vertex -0.029262 0.022073 0.008771
   vertex -0.029876 0.028954 0.013416
   vertex -0.028911 0.027066 0.011001
  endloop
 endfacet
 facet normal -0.678732 0.421938 -0.601075
  outer loop
   vertex -0.028911 0.027066 0.011001
   vertex -0.029876 0.028954 0.013416
   vertex -0.025821 0.033464 0.012003
  endloop
 endfacet
 facet normal 0.561482 0.553082 0.615498
  outer loop
   vertex -0.022238 0.035098 0.030109
   vertex -0.026869 0.034895 0.034516
   vertex -0.024309 0.029169 0.037326
  endloop
 endfacet
 facet normal -0.152449 0.942125 0.298596
  outer loop
   vertex -0.022238 0.035098 0.030109
   vertex -0.02094 0.038679 0.019473
   vertex -0.025333 0.036998 0.022534
  endloop
 endfacet
 facet normal 0.288126 0.60244 0.744345
  outer loop
   vertex -0.030778 0.041967 0.02062
   vertex -0.025333 0.036998 0.022534
   vertex -0.02094 0.038679 0.019473
  endloop
 endfacet
 facet normal 0.308168 0.139868 0.940994
  outer loop
   vertex -0.030778 0.041967 0.02062
   vertex -0.035241 0.036757 0.022856
   vertex -0.031569 0.032091 0.022347
  endloop
 endfacet
 facet normal -0.593735 0.687824 0.417585
  outer loop
   vertex -0.035241 0.036757 0.022856
   vertex -0.030778 0.041967 0.02062
   vertex -0.037137 0.038505 0.017281
  endloop
 endfacet
 facet normal -0.629401 -0.554687 0.544221
  outer loop
   vertex -0.031569 0.032091 0.022347
   vertex -0.035241 0.036757 0.022856
   vertex -0.037377 0.034174 0.017753
  endloop
 endfacet
 facet normal -0.472165 -0.856473 0.208599
  outer loop
   vertex -0.032182 0.030641 0.015006
   vertex -0.031569 0.032091 0.022347
   vertex -0.037377 0.034174 0.017753
  endloop
 endfacet
 facet normal -0.557158 0.594139 0.580149
  outer loop
   vertex -0.032789 0.011429 0.018062
   vertex -0.027751 0.017788 0.016388
   vertex -0.032679 0.0161 0.013384
  endloop
 endfacet
 facet normal -0.651523 -0.0178644 0.758418
  outer loop
   vertex -0.032679 0.0161 0.013384
   vertex -0.035529 0.012929 0.010861
   vertex -0.036067 0.007757 0.010277
  endloop
 endfacet
 facet normal -0.879188 0.195151 0.434678
  outer loop
   vertex -0.032679 0.0161 0.013384
   vertex -0.036067 0.007757 0.010277
   vertex -0.03321 0.003856 0.017807
  endloop
 endfacet
 facet normal -0.998039 0.0544428 0.0308931
  outer loop
   vertex -0.032679 0.0161 0.013384
   vertex -0.03321 0.003856 0.017807
   vertex -0.032789 0.011429 0.018062
  endloop
 endfacet
 facet normal -0.810595 0.529469 0.250198
  outer loop
   vertex -0.035529 0.012929 0.010861
   vertex -0.032679 0.0161 0.013384
   vertex -0.032371 0.018474 0.009358
  endloop
 endfacet
 facet normal -0.975807 0.212662 0.0507482
  outer loop
   vertex -0.029876 0.028954 0.013416
   vertex -0.032371 0.018474 0.009358
   vertex -0.032679 0.0161 0.013384
  endloop
 endfacet
 facet normal -0.50126 -0.0662479 -0.862757
  outer loop
   vertex -0.032182 0.030641 0.015006
   vertex -0.037377 0.034174 0.017753
   vertex -0.037137 0.038505 0.017281
  endloop
 endfacet
 facet normal -0.306069 0.0815475 -0.94851
  outer loop
   vertex -0.032182 0.030641 0.015006
   vertex -0.037137 0.038505 0.017281
   vertex -0.030002 0.035671 0.014735
  endloop
 endfacet
 facet normal -0.478505 0.159712 -0.863438
  outer loop
   vertex -0.025821 0.033464 0.012003
   vertex -0.029876 0.028954 0.013416
   vertex -0.032182 0.030641 0.015006
  endloop
 endfacet
 facet normal -0.478884 0.161054 -0.862979
  outer loop
   vertex -0.025821 0.033464 0.012003
   vertex -0.032182 0.030641 0.015006
   vertex -0.030002 0.035671 0.014735
  endloop
 endfacet
 facet normal 0.396833 -0.0545584 0.916268
  outer loop
   vertex -0.032789 0.011429 0.018062
   vertex -0.025486 -0.001924 0.014104
   vertex -0.020581 0.010056 0.012693
  endloop
 endfacet
 facet normal 0.893342 -0.391704 -0.220244
  outer loop
   vertex -0.020581 0.010056 0.012693
   vertex -0.025486 -0.001924 0.014104
   vertex -0.023381 0.006829 0.007075
  endloop
 endfacet
 facet normal 0.399161 -0.053012 0.915347
  outer loop
   vertex -0.032789 0.011429 0.018062
   vertex -0.03321 0.003856 0.017807
   vertex -0.025486 -0.001924 0.014104
  endloop
 endfacet
 facet normal -0.825009 -0.0955081 0.556991
  outer loop
   vertex -0.024309 0.029169 0.037326
   vertex -0.026869 0.034895 0.034516
   vertex -0.02624 0.026674 0.034038
  endloop
 endfacet
 facet normal 0.683595 -0.549837 -0.479976
  outer loop
   vertex -0.023381 0.006829 0.007075
   vertex -0.025486 -0.001924 0.014104
   vertex -0.026444 0.004291 0.00562
  endloop
 endfacet
 facet normal -0.93407 0.0894366 -0.34571
  outer loop
   vertex -0.037377 0.034174 -0.017753
   vertex -0.037137 0.038505 -0.017281
   vertex -0.035241 0.036757 -0.022856
  endloop
 endfacet
 facet normal -0.93407 0.0894366 0.34571
  outer loop
   vertex -0.035241 0.036757 0.022856
   vertex -0.037137 0.038505 0.017281
   vertex -0.037377 0.034174 0.017753
  endloop
 endfacet
 facet normal -0.691432 -0.00964342 -0.722377
  outer loop
   vertex -0.035529 0.012929 -0.010861
   vertex -0.036067 0.007757 -0.010277
   vertex -0.042146 0.009524 -0.004482
  endloop
 endfacet
 facet normal -0.444572 -0.806231 -0.390316
  outer loop
   vertex -0.036067 0.007757 -0.010277
   vertex -0.032072 0.004489 -0.008077
   vertex -0.037571 0.006157 -0.005259
  endloop
 endfacet
 facet normal -0.586305 -0.704283 -0.40029
  outer loop
   vertex -0.042146 0.009524 -0.004482
   vertex -0.036067 0.007757 -0.010277
   vertex -0.037571 0.006157 -0.005259
  endloop
 endfacet
 facet normal -0.668739 -0.732762 0.125885
  outer loop
   vertex -0.036067 0.007757 -0.010277
   vertex -0.03321 0.003856 -0.017807
   vertex -0.032072 0.004489 -0.008077
  endloop
 endfacet
 facet normal -0.573663 0.502123 -0.647135
  outer loop
   vertex -0.032371 0.018474 -0.009358
   vertex -0.035529 0.012929 -0.010861
   vertex -0.04162 0.014435 -0.004293
  endloop
 endfacet
 facet normal -0.717378 0.103351 -0.688976
  outer loop
   vertex -0.04162 0.014435 -0.004293
   vertex -0.035529 0.012929 -0.010861
   vertex -0.042146 0.009524 -0.004482
  endloop
 endfacet
 facet normal -0.631866 -0.765146 0.123679
  outer loop
   vertex -0.03321 0.003856 -0.017807
   vertex -0.025486 -0.001924 -0.014104
   vertex -0.032072 0.004489 -0.008077
  endloop
 endfacet
 facet normal -0.573171 0.476711 -0.6665
  outer loop
   vertex -0.037963 0.018667 -0.004411
   vertex -0.032371 0.018474 -0.009358
   vertex -0.04162 0.014435 -0.004293
  endloop
 endfacet
 facet normal -0.267746 -0.791415 0.549522
  outer loop
   vertex -0.032072 0.004489 -0.008077
   vertex -0.025486 -0.001924 -0.014104
   vertex -0.026444 0.004291 -0.00562
  endloop
 endfacet
 facet normal -0.150815 -0.951317 0.268795
  outer loop
   vertex -0.037571 0.006157 -0.005259
   vertex -0.032072 0.004489 -0.008077
   vertex -0.026444 0.004291 -0.00562
  endloop
 endfacet
 facet normal -0.136423 -0.672825 -0.727115
  outer loop
   vertex -0.03777 0.000514 0
   vertex -0.037571 0.006157 -0.005259
   vertex -0.026444 0.004291 -0.00562
  endloop
 endfacet
 facet normal 0.510487 -0.560561 0.652053
  outer loop
   vertex -0.03777 0.000514 0
   vertex -0.026444 0.004291 -0.00562
   vertex -0.02943 0.008109 0
  endloop
 endfacet
 facet normal 0.510487 -0.560561 -0.652053
  outer loop
   vertex -0.02943 0.008109 0
   vertex -0.026444 0.004291 0.00562
   vertex -0.03777 0.000514 0
  endloop
 endfacet
 facet normal -0.267746 -0.791415 -0.549522
  outer loop
   vertex -0.026444 0.004291 0.00562
   vertex -0.025486 -0.001924 0.014104
   vertex -0.032072 0.004489 0.008077
  endloop
 endfacet
 facet normal -0.150815 -0.951317 -0.268795
  outer loop
   vertex -0.026444 0.004291 0.00562
   vertex -0.032072 0.004489 0.008077
   vertex -0.037571 0.006157 0.005259
  endloop
 endfacet
 facet normal -0.136423 -0.672825 0.727115
  outer loop
   vertex -0.026444 0.004291 0.00562
   vertex -0.037571 0.006157 0.005259
   vertex -0.03777 0.000514 0
  endloop
 endfacet
 facet normal -0.345839 0.0730423 -0.935447
  outer loop
   vertex -0.04162 0.014435 -0.004293
   vertex -0.042146 0.009524 -0.004482
   vertex -0.05278 0.016575 0
  endloop
 endfacet
 facet normal -0.300662 0.145684 -0.942538
  outer loop
   vertex -0.042146 0.009524 -0.004482
   vertex -0.055319 0.011335 0
   vertex -0.05278 0.016575 0
  endloop
 endfacet
 facet normal -0.300662 0.145684 0.942538
  outer loop
   vertex -0.05278 0.016575 0
   vertex -0.055319 0.011335 0
   vertex -0.042146 0.009524 0.004482
  endloop
 endfacet
 facet normal -0.345839 0.0730423 0.935447
  outer loop
   vertex -0.05278 0.016575 0
   vertex -0.042146 0.009524 0.004482
   vertex -0.04162 0.014435 0.004293
  endloop
 endfacet
 facet normal -0.573171 0.476711 0.6665
  outer loop
   vertex -0.04162 0.014435 0.004293
   vertex -0.032371 0.018474 0.009358
   vertex -0.037963 0.018667 0.004411
  endloop
 endfacet
 facet normal -0.573663 0.502123 0.647135
  outer loop
   vertex -0.04162 0.014435 0.004293
   vertex -0.035529 0.012929 0.010861
   vertex -0.032371 0.018474 0.009358
  endloop
 endfacet
 facet normal -0.717378 0.103351 0.688976
  outer loop
   vertex -0.042146 0.009524 0.004482
   vertex -0.035529 0.012929 0.010861
   vertex -0.04162 0.014435 0.004293
  endloop
 endfacet
 facet normal -0.691432 -0.00964342 0.722377
  outer loop
   vertex -0.042146 0.009524 0.004482
   vertex -0.036067 0.007757 0.010277
   vertex -0.035529 0.012929 0.010861
  endloop
 endfacet
 facet normal -0.444572 -0.806231 0.390316
  outer loop
   vertex -0.037571 0.006157 0.005259
   vertex -0.032072 0.004489 0.008077
   vertex -0.036067 0.007757 0.010277
  endloop
 endfacet
 facet normal -0.586305 -0.704283 0.40029
  outer loop
   vertex -0.037571 0.006157 0.005259
   vertex -0.036067 0.007757 0.010277
   vertex -0.042146 0.009524 0.004482
  endloop
 endfacet
 facet normal -0.668739 -0.732762 -0.125885
  outer loop
   vertex -0.032072 0.004489 0.008077
   vertex -0.03321 0.003856 0.017807
   vertex -0.036067 0.007757 0.010277
  endloop
 endfacet
 facet normal -0.631866 -0.765146 -0.123679
  outer loop
   vertex -0.032072 0.004489 0.008077
   vertex -0.025486 -0.001924 0.014104
   vertex -0.03321 0.003856 0.017807
  endloop
 endfacet
 facet normal -0.243976 0.405522 -0.880924
  outer loop
   vertex -0.042146 0.009524 -0.004482
   vertex -0.046261 0.006175 -0.004884
   vertex -0.055319 0.011335 0
  endloop
 endfacet
 facet normal -0.107687 0.0823169 -0.990771
  outer loop
   vertex -0.042146 0.009524 -0.004482
   vertex -0.037571 0.006157 -0.005259
   vertex -0.042921 0.003455 -0.004902
  endloop
 endfacet
 facet normal 0.0460264 0.0631152 -0.996944
  outer loop
   vertex -0.046261 0.006175 -0.004884
   vertex -0.042146 0.009524 -0.004482
   vertex -0.042921 0.003455 -0.004902
  endloop
 endfacet
 facet normal 0.471627 -0.610034 -0.636731
  outer loop
   vertex -0.037571 0.006157 -0.005259
   vertex -0.03777 0.000514 0
   vertex -0.044617 -0.000808 -0.003805
  endloop
 endfacet
 facet normal 0.0758094 -0.276675 -0.957969
  outer loop
   vertex -0.042921 0.003455 -0.004902
   vertex -0.037571 0.006157 -0.005259
   vertex -0.044617 -0.000808 -0.003805
  endloop
 endfacet
 facet normal 0.219184 -0.974076 -0.0559847
  outer loop
   vertex -0.046636 -0.001481 0
   vertex -0.044617 -0.000808 -0.003805
   vertex -0.03777 0.000514 0
  endloop
 endfacet
 facet normal 0.219184 -0.974076 0.0559847
  outer loop
   vertex -0.03777 0.000514 0
   vertex -0.044617 -0.000808 0.003805
   vertex -0.046636 -0.001481 0
  endloop
 endfacet
 facet normal 0.471627 -0.610034 0.636731
  outer loop
   vertex -0.044617 -0.000808 0.003805
   vertex -0.03777 0.000514 0
   vertex -0.037571 0.006157 0.005259
  endloop
 endfacet
 facet normal -0.107687 0.0823169 0.990771
  outer loop
   vertex -0.042921 0.003455 0.004902
   vertex -0.037571 0.006157 0.005259
   vertex -0.042146 0.009524 0.004482
  endloop
 endfacet
 facet normal 0.0758094 -0.276675 0.957969
  outer loop
   vertex -0.044617 -0.000808 0.003805
   vertex -0.037571 0.006157 0.005259
   vertex -0.042921 0.003455 0.004902
  endloop
 endfacet
 facet normal -0.0226358 0.665995 -0.745612
  outer loop
   vertex -0.046261 0.006175 -0.004884
   vertex -0.053575 0.005857 -0.004946
   vertex -0.055319 0.011335 0
  endloop
 endfacet
 facet normal -0.966939 -0.0937026 -0.237169
  outer loop
   vertex -0.055319 0.011335 0
   vertex -0.053575 0.005857 -0.004946
   vertex -0.054633 0.004256 0
  endloop
 endfacet
 facet normal -0.0226358 0.665995 0.745612
  outer loop
   vertex -0.055319 0.011335 0
   vertex -0.053575 0.005857 0.004946
   vertex -0.046261 0.006175 0.004884
  endloop
 endfacet
 facet normal -0.243976 0.405522 0.880924
  outer loop
   vertex -0.055319 0.011335 0
   vertex -0.046261 0.006175 0.004884
   vertex -0.042146 0.009524 0.004482
  endloop
 endfacet
 facet normal -0.966939 -0.0937026 0.237169
  outer loop
   vertex -0.054633 0.004256 0
   vertex -0.053575 0.005857 0.004946
   vertex -0.055319 0.011335 0
  endloop
 endfacet
 facet normal 0.0460264 0.0631152 0.996944
  outer loop
   vertex -0.042921 0.003455 0.004902
   vertex -0.042146 0.009524 0.004482
   vertex -0.046261 0.006175 0.004884
  endloop
 endfacet
 facet normal -0.157429 -0.186897 -0.969683
  outer loop
   vertex -0.046261 0.006175 -0.004884
   vertex -0.042921 0.003455 -0.004902
   vertex -0.044617 -0.000808 -0.003805
  endloop
 endfacet
 facet normal 0.226542 -0.0964268 -0.969216
  outer loop
   vertex -0.0519 0.001762 -0.005763
   vertex -0.046261 0.006175 -0.004884
   vertex -0.044617 -0.000808 -0.003805
  endloop
 endfacet
 facet normal -0.000190325 0.195581 -0.980688
  outer loop
   vertex -0.046261 0.006175 -0.004884
   vertex -0.0519 0.001762 -0.005763
   vertex -0.053575 0.005857 -0.004946
  endloop
 endfacet
 facet normal -0.246723 -0.92334 -0.294229
  outer loop
   vertex -0.0519 0.001762 -0.005763
   vertex -0.044617 -0.000808 -0.003805
   vertex -0.046636 -0.001481 0
  endloop
 endfacet
 facet normal -0.233189 -0.922915 -0.306352
  outer loop
   vertex -0.05095 -0.000391 0
   vertex -0.0519 0.001762 -0.005763
   vertex -0.046636 -0.001481 0
  endloop
 endfacet
 facet normal -0.246723 -0.92334 0.294229
  outer loop
   vertex -0.046636 -0.001481 0
   vertex -0.044617 -0.000808 0.003805
   vertex -0.0519 0.001762 0.005763
  endloop
 endfacet
 facet normal -0.233189 -0.922915 0.306352
  outer loop
   vertex -0.046636 -0.001481 0
   vertex -0.0519 0.001762 0.005763
   vertex -0.05095 -0.000391 0
  endloop
 endfacet
 facet normal -0.157429 -0.186897 0.969683
  outer loop
   vertex -0.044617 -0.000808 0.003805
   vertex -0.042921 0.003455 0.004902
   vertex -0.046261 0.006175 0.004884
  endloop
 endfacet
 facet normal 0.226542 -0.0964268 0.969216
  outer loop
   vertex -0.044617 -0.000808 0.003805
   vertex -0.046261 0.006175 0.004884
   vertex -0.0519 0.001762 0.005763
  endloop
 endfacet
 facet normal -0.924789 -0.380338 0.0103562
  outer loop
   vertex -0.053575 0.005857 -0.004946
   vertex -0.0519 0.001762 -0.005763
   vertex -0.05095 -0.000391 0
  endloop
 endfacet
 facet normal -0.73532 -0.582781 -0.345936
  outer loop
   vertex -0.054633 0.004256 0
   vertex -0.053575 0.005857 -0.004946
   vertex -0.05095 -0.000391 0
  endloop
 endfacet
 facet normal -0.73532 -0.582781 0.345936
  outer loop
   vertex -0.05095 -0.000391 0
   vertex -0.053575 0.005857 0.004946
   vertex -0.054633 0.004256 0
  endloop
 endfacet
 facet normal -0.924789 -0.380338 -0.0103562
  outer loop
   vertex -0.05095 -0.000391 0
   vertex -0.0519 0.001762 0.005763
   vertex -0.053575 0.005857 0.004946
  endloop
 endfacet
 facet normal -0.000190325 0.195581 0.980688
  outer loop
   vertex -0.053575 0.005857 0.004946
   vertex -0.0519 0.001762 0.005763
   vertex -0.046261 0.006175 0.004884
  endloop
 endfacet
endsolid
