solid ascii
 facet normal 0.196867 -0.888813 -0.41383
  outer loop
   vertex 0.010262 0.108343 0
   vertex 0.023285 0.11541 -0.008983
   vertex 0.02233 0.111016 0
  endloop
 endfacet
 facet normal 0.442183 -0.894721 -0.0628359
  outer loop
   vertex 0.010262 0.108343 0
   vertex 0.018659 0.113784 -0.018384
   vertex 0.023285 0.11541 -0.008983
  endloop
 endfacet
 facet normal 0.459157 -0.886789 -0.052735
  outer loop
   vertex 0.010262 0.108343 0
   vertex 0.011532 0.110366 -0.022961
   vertex 0.018659 0.113784 -0.018384
  endloop
 endfacet
 facet normal 0.269395 -0.960724 0.0665955
  outer loop
   vertex 0.010262 0.108343 0
   vertex -0.006567 0.103624 0
   vertex -0.006346 0.103312 -0.005395
  endloop
 endfacet
 facet normal 0.299072 -0.953717 -0.0312964
  outer loop
   vertex -0.006346 0.103312 -0.005395
   vertex -0.006816 0.103512 -0.015981
   vertex 0.010262 0.108343 0
  endloop
 endfacet
 facet normal 0.398856 -0.904176 -0.152906
  outer loop
   vertex 0.010262 0.108343 0
   vertex -0.006816 0.103512 -0.015981
   vertex -0.002212 0.106746 -0.023095
  endloop
 endfacet
 facet normal 0.254707 -0.964417 -0.0708829
  outer loop
   vertex -0.002212 0.106746 -0.023095
   vertex 0.011532 0.110366 -0.022961
   vertex 0.010262 0.108343 0
  endloop
 endfacet
 facet normal 0.196867 -0.888813 0.41383
  outer loop
   vertex 0.02233 0.111016 0
   vertex 0.023285 0.11541 0.008983
   vertex 0.010262 0.108343 0
  endloop
 endfacet
 facet normal 0.442183 -0.894721 0.0628359
  outer loop
   vertex 0.023285 0.11541 0.008983
   vertex 0.018659 0.113784 0.018384
   vertex 0.010262 0.108343 0
  endloop
 endfacet
 facet normal 0.459157 -0.886789 0.052735
  outer loop
   vertex 0.018659 0.113784 0.018384
   vertex 0.011532 0.110366 0.022961
   vertex 0.010262 0.108343 0
  endloop
 endfacet
 facet normal 0.269395 -0.960724 -0.0665955
  outer loop
   vertex -0.006346 0.103312 0.005395
   vertex -0.006567 0.103624 0
   vertex 0.010262 0.108343 0
  endloop
 endfacet
 facet normal 0.299072 -0.953717 0.0312964
  outer loop
   vertex 0.010262 0.108343 0
   vertex -0.006816 0.103512 0.015981
   vertex -0.006346 0.103312 0.005395
  endloop
 endfacet
 facet normal 0.398856 -0.904176 0.152906
  outer loop
   vertex -0.002212 0.106746 0.023095
   vertex -0.006816 0.103512 0.015981
   vertex 0.010262 0.108343 0
  endloop
 endfacet
 facet normal 0.254707 -0.964417 0.0708829
  outer loop
   vertex 0.010262 0.108343 0
   vertex 0.011532 0.110366 0.022961
   vertex -0.002212 0.106746 0.023095
  endloop
 endfacet
 facet normal 0.990298 -0.133012 0.0402183
  outer loop
   vertex 0.02233 0.111016 0
   vertex 0.023285 0.11541 -0.008983
   vertex 0.023539 0.116755 -0.010789
  endloop
 endfacet
 facet normal 0.787047 -0.542637 -0.293432
  outer loop
   vertex 0.023539 0.116755 -0.010789
   vertex 0.023285 0.11541 -0.008983
   vertex 0.018659 0.113784 -0.018384
  endloop
 endfacet
 facet normal 0.990175 -0.134098 0.039627
  outer loop
   vertex 0.023192 0.117381 0
   vertex 0.02233 0.111016 0
   vertex 0.023539 0.116755 -0.010789
  endloop
 endfacet
 facet normal 0.990298 -0.133012 -0.0402183
  outer loop
   vertex 0.023539 0.116755 0.010789
   vertex 0.023285 0.11541 0.008983
   vertex 0.02233 0.111016 0
  endloop
 endfacet
 facet normal 0.990175 -0.134098 -0.039627
  outer loop
   vertex 0.023539 0.116755 0.010789
   vertex 0.02233 0.111016 0
   vertex 0.023192 0.117381 0
  endloop
 endfacet
 facet normal 0.580552 0.559241 -0.591784
  outer loop
   vertex 0.016864 0.116313 -0.017755
   vertex 0.023539 0.116755 -0.010789
   vertex 0.018659 0.113784 -0.018384
  endloop
 endfacet
 facet normal 0.326417 0.439776 -0.836689
  outer loop
   vertex 0.016864 0.116313 -0.017755
   vertex 0.018659 0.113784 -0.018384
   vertex 0.011532 0.110366 -0.022961
  endloop
 endfacet
 facet normal 0.333307 0.433905 -0.837038
  outer loop
   vertex 0.008351 0.115462 -0.021586
   vertex 0.016864 0.116313 -0.017755
   vertex 0.011532 0.110366 -0.022961
  endloop
 endfacet
 facet normal -0.0511736 0.230262 -0.971782
  outer loop
   vertex 0.008351 0.115462 -0.021586
   vertex 0.011532 0.110366 -0.022961
   vertex -0.002212 0.106746 -0.023095
  endloop
 endfacet
 facet normal -0.989483 0.136306 -0.0484158
  outer loop
   vertex -0.005505 0.109541 -0.005046
   vertex -0.006346 0.103312 -0.005395
   vertex -0.006567 0.103624 0
  endloop
 endfacet
 facet normal -0.980756 0.194085 0.0211727
  outer loop
   vertex -0.005421 0.109415 0
   vertex -0.005505 0.109541 -0.005046
   vertex -0.006567 0.103624 0
  endloop
 endfacet
 facet normal -0.989483 0.136306 0.0484158
  outer loop
   vertex -0.006567 0.103624 0
   vertex -0.006346 0.103312 0.005395
   vertex -0.005505 0.109541 0.005046
  endloop
 endfacet
 facet normal -0.980756 0.194085 -0.0211727
  outer loop
   vertex -0.006567 0.103624 0
   vertex -0.005505 0.109541 0.005046
   vertex -0.005421 0.109415 0
  endloop
 endfacet
 facet normal -0.990281 0.131099 0.0464436
  outer loop
   vertex -0.006346 0.103312 -0.005395
   vertex -0.005505 0.109541 -0.005046
   vertex -0.006816 0.103512 -0.015981
  endloop
 endfacet
 facet normal -0.780122 0.0392287 -0.624396
  outer loop
   vertex -0.006816 0.103512 -0.015981
   vertex -0.006155 0.111293 -0.016318
   vertex -0.001867 0.110154 -0.021747
  endloop
 endfacet
 facet normal -0.86025 0.260461 -0.438327
  outer loop
   vertex -0.002212 0.106746 -0.023095
   vertex -0.006816 0.103512 -0.015981
   vertex -0.001867 0.110154 -0.021747
  endloop
 endfacet
 facet normal -0.989845 0.0789686 -0.118198
  outer loop
   vertex -0.007004 0.110654 -0.009635
   vertex -0.006155 0.111293 -0.016318
   vertex -0.006816 0.103512 -0.015981
  endloop
 endfacet
 facet normal -0.937716 -0.24422 0.247073
  outer loop
   vertex -0.005505 0.109541 -0.005046
   vertex -0.007004 0.110654 -0.009635
   vertex -0.006816 0.103512 -0.015981
  endloop
 endfacet
 facet normal -0.181818 0.377543 -0.907967
  outer loop
   vertex -0.001867 0.110154 -0.021747
   vertex 0.008351 0.115462 -0.021586
   vertex -0.002212 0.106746 -0.023095
  endloop
 endfacet
 facet normal 0.787047 -0.542637 0.293432
  outer loop
   vertex 0.018659 0.113784 0.018384
   vertex 0.023285 0.11541 0.008983
   vertex 0.023539 0.116755 0.010789
  endloop
 endfacet
 facet normal 0.580552 0.559241 0.591784
  outer loop
   vertex 0.018659 0.113784 0.018384
   vertex 0.023539 0.116755 0.010789
   vertex 0.016864 0.116313 0.017755
  endloop
 endfacet
 facet normal 0.326417 0.439776 0.836689
  outer loop
   vertex 0.011532 0.110366 0.022961
   vertex 0.018659 0.113784 0.018384
   vertex 0.016864 0.116313 0.017755
  endloop
 endfacet
 facet normal 0.333307 0.433905 0.837038
  outer loop
   vertex 0.011532 0.110366 0.022961
   vertex 0.016864 0.116313 0.017755
   vertex 0.008351 0.115462 0.021586
  endloop
 endfacet
 facet normal -0.0511736 0.230262 0.971782
  outer loop
   vertex -0.002212 0.106746 0.023095
   vertex 0.011532 0.110366 0.022961
   vertex 0.008351 0.115462 0.021586
  endloop
 endfacet
 facet normal -0.990281 0.131099 -0.0464436
  outer loop
   vertex -0.006816 0.103512 0.015981
   vertex -0.005505 0.109541 0.005046
   vertex -0.006346 0.103312 0.005395
  endloop
 endfacet
 facet normal -0.780122 0.0392287 0.624396
  outer loop
   vertex -0.001867 0.110154 0.021747
   vertex -0.006155 0.111293 0.016318
   vertex -0.006816 0.103512 0.015981
  endloop
 endfacet
 facet normal -0.86025 0.260461 0.438327
  outer loop
   vertex -0.001867 0.110154 0.021747
   vertex -0.006816 0.103512 0.015981
   vertex -0.002212 0.106746 0.023095
  endloop
 endfacet
 facet normal -0.989845 0.0789686 0.118198
  outer loop
   vertex -0.006816 0.103512 0.015981
   vertex -0.006155 0.111293 0.016318
   vertex -0.007004 0.110654 0.009635
  endloop
 endfacet
 facet normal -0.937716 -0.24422 -0.247073
  outer loop
   vertex -0.006816 0.103512 0.015981
   vertex -0.007004 0.110654 0.009635
   vertex -0.005505 0.109541 0.005046
  endloop
 endfacet
 facet normal -0.181818 0.377543 0.907967
  outer loop
   vertex -0.002212 0.106746 0.023095
   vertex 0.008351 0.115462 0.021586
   vertex -0.001867 0.110154 0.021747
  endloop
 endfacet
 facet normal 0.759972 0.640012 -0.113258
  outer loop
   vertex 0.023539 0.116755 -0.010789
   vertex 0.019195 0.121964 -0.010502
   vertex 0.020654 0.12209 0
  endloop
 endfacet
 facet normal 0.880285 0.474445 0.00078383
  outer loop
   vertex 0.023192 0.117381 0
   vertex 0.023539 0.116755 -0.010789
   vertex 0.020654 0.12209 0
  endloop
 endfacet
 facet normal 0.595342 0.529763 -0.604085
  outer loop
   vertex 0.019195 0.121964 -0.010502
   vertex 0.023539 0.116755 -0.010789
   vertex 0.016864 0.116313 -0.017755
  endloop
 endfacet
 facet normal 0.880285 0.474445 -0.00078383
  outer loop
   vertex 0.020654 0.12209 0
   vertex 0.023539 0.116755 0.010789
   vertex 0.023192 0.117381 0
  endloop
 endfacet
 facet normal 0.759972 0.640012 0.113258
  outer loop
   vertex 0.020654 0.12209 0
   vertex 0.019195 0.121964 0.010502
   vertex 0.023539 0.116755 0.010789
  endloop
 endfacet
 facet normal 0.595342 0.529763 0.604085
  outer loop
   vertex 0.016864 0.116313 0.017755
   vertex 0.023539 0.116755 0.010789
   vertex 0.019195 0.121964 0.010502
  endloop
 endfacet
 facet normal 0.612679 0.51582 -0.598794
  outer loop
   vertex 0.013481 0.120849 -0.017309
   vertex 0.019195 0.121964 -0.010502
   vertex 0.016864 0.116313 -0.017755
  endloop
 endfacet
 facet normal 0.355089 0.350059 -0.866816
  outer loop
   vertex 0.013481 0.120849 -0.017309
   vertex 0.016864 0.116313 -0.017755
   vertex 0.008351 0.115462 -0.021586
  endloop
 endfacet
 facet normal 0.237277 0.455342 -0.858116
  outer loop
   vertex 0.006624 0.12005 -0.019629
   vertex 0.013481 0.120849 -0.017309
   vertex 0.008351 0.115462 -0.021586
  endloop
 endfacet
 facet normal -0.159813 0.335799 -0.928278
  outer loop
   vertex 0.006624 0.12005 -0.019629
   vertex 0.008351 0.115462 -0.021586
   vertex -0.001867 0.110154 -0.021747
  endloop
 endfacet
 facet normal -0.773207 -0.634146 -0.00296298
  outer loop
   vertex -0.005505 0.109541 -0.005046
   vertex -0.005421 0.109415 0
   vertex -0.010404 0.115521 -0.006481
  endloop
 endfacet
 facet normal -0.781526 -0.61477 0.106182
  outer loop
   vertex -0.007004 0.110654 -0.009635
   vertex -0.005505 0.109541 -0.005046
   vertex -0.010404 0.115521 -0.006481
  endloop
 endfacet
 facet normal -0.812742 -0.576917 0.0813519
  outer loop
   vertex -0.009937 0.115777 0
   vertex -0.010404 0.115521 -0.006481
   vertex -0.005421 0.109415 0
  endloop
 endfacet
 facet normal -0.812742 -0.576917 -0.0813519
  outer loop
   vertex -0.005421 0.109415 0
   vertex -0.010404 0.115521 0.006481
   vertex -0.009937 0.115777 0
  endloop
 endfacet
 facet normal -0.773207 -0.634146 0.00296298
  outer loop
   vertex -0.010404 0.115521 0.006481
   vertex -0.005421 0.109415 0
   vertex -0.005505 0.109541 0.005046
  endloop
 endfacet
 facet normal -0.781526 -0.61477 -0.106182
  outer loop
   vertex -0.010404 0.115521 0.006481
   vertex -0.005505 0.109541 0.005046
   vertex -0.007004 0.110654 0.009635
  endloop
 endfacet
 facet normal 0.156638 -0.612406 -0.77487
  outer loop
   vertex -0.006155 0.111293 -0.016318
   vertex -0.008713 0.114613 -0.019459
   vertex -0.003316 0.117408 -0.020577
  endloop
 endfacet
 facet normal -0.789369 -0.0591189 -0.611066
  outer loop
   vertex -0.001867 0.110154 -0.021747
   vertex -0.006155 0.111293 -0.016318
   vertex -0.003316 0.117408 -0.020577
  endloop
 endfacet
 facet normal -0.635394 -0.756861 -0.153088
  outer loop
   vertex -0.012438 0.115278 -0.009942
   vertex -0.006155 0.111293 -0.016318
   vertex -0.007004 0.110654 -0.009635
  endloop
 endfacet
 facet normal -0.66737 -0.714118 -0.211313
  outer loop
   vertex -0.012438 0.115278 -0.009942
   vertex -0.008713 0.114613 -0.019459
   vertex -0.006155 0.111293 -0.016318
  endloop
 endfacet
 facet normal 0.0490807 0.168589 -0.984464
  outer loop
   vertex -0.003316 0.117408 -0.020577
   vertex 0.006624 0.12005 -0.019629
   vertex -0.001867 0.110154 -0.021747
  endloop
 endfacet
 facet normal -0.605904 -0.685206 0.404194
  outer loop
   vertex -0.012438 0.115278 -0.009942
   vertex -0.007004 0.110654 -0.009635
   vertex -0.010404 0.115521 -0.006481
  endloop
 endfacet
 facet normal 0.612679 0.51582 0.598794
  outer loop
   vertex 0.016864 0.116313 0.017755
   vertex 0.019195 0.121964 0.010502
   vertex 0.013481 0.120849 0.017309
  endloop
 endfacet
 facet normal 0.355089 0.350059 0.866816
  outer loop
   vertex 0.008351 0.115462 0.021586
   vertex 0.016864 0.116313 0.017755
   vertex 0.013481 0.120849 0.017309
  endloop
 endfacet
 facet normal 0.237277 0.455342 0.858116
  outer loop
   vertex 0.008351 0.115462 0.021586
   vertex 0.013481 0.120849 0.017309
   vertex 0.006624 0.12005 0.019629
  endloop
 endfacet
 facet normal -0.159813 0.335799 0.928278
  outer loop
   vertex -0.001867 0.110154 0.021747
   vertex 0.008351 0.115462 0.021586
   vertex 0.006624 0.12005 0.019629
  endloop
 endfacet
 facet normal 0.0490807 0.168589 0.984464
  outer loop
   vertex -0.001867 0.110154 0.021747
   vertex 0.006624 0.12005 0.019629
   vertex -0.003316 0.117408 0.020577
  endloop
 endfacet
 facet normal -0.789369 -0.0591189 0.611066
  outer loop
   vertex -0.003316 0.117408 0.020577
   vertex -0.006155 0.111293 0.016318
   vertex -0.001867 0.110154 0.021747
  endloop
 endfacet
 facet normal 0.156638 -0.612406 0.77487
  outer loop
   vertex -0.003316 0.117408 0.020577
   vertex -0.008713 0.114613 0.019459
   vertex -0.006155 0.111293 0.016318
  endloop
 endfacet
 facet normal -0.635394 -0.756861 0.153088
  outer loop
   vertex -0.007004 0.110654 0.009635
   vertex -0.006155 0.111293 0.016318
   vertex -0.012438 0.115278 0.009942
  endloop
 endfacet
 facet normal -0.66737 -0.714118 0.211313
  outer loop
   vertex -0.006155 0.111293 0.016318
   vertex -0.008713 0.114613 0.019459
   vertex -0.012438 0.115278 0.009942
  endloop
 endfacet
 facet normal -0.605904 -0.685206 -0.404194
  outer loop
   vertex -0.010404 0.115521 0.006481
   vertex -0.007004 0.110654 0.009635
   vertex -0.012438 0.115278 0.009942
  endloop
 endfacet
 facet normal 0.929976 0.337764 -0.145119
  outer loop
   vertex 0.019195 0.121964 -0.010502
   vertex 0.015993 0.13094 -0.01013
   vertex 0.016912 0.132762 0
  endloop
 endfacet
 facet normal 0.935179 0.327908 -0.133855
  outer loop
   vertex 0.020654 0.12209 0
   vertex 0.019195 0.121964 -0.010502
   vertex 0.016912 0.132762 0
  endloop
 endfacet
 facet normal 0.712 0.280666 -0.643648
  outer loop
   vertex 0.015993 0.13094 -0.01013
   vertex 0.019195 0.121964 -0.010502
   vertex 0.013481 0.120849 -0.017309
  endloop
 endfacet
 facet normal 0.935179 0.327908 0.133855
  outer loop
   vertex 0.016912 0.132762 0
   vertex 0.019195 0.121964 0.010502
   vertex 0.020654 0.12209 0
  endloop
 endfacet
 facet normal 0.929976 0.337764 0.145119
  outer loop
   vertex 0.016912 0.132762 0
   vertex 0.015993 0.13094 0.01013
   vertex 0.019195 0.121964 0.010502
  endloop
 endfacet
 facet normal 0.712 0.280666 0.643648
  outer loop
   vertex 0.013481 0.120849 0.017309
   vertex 0.019195 0.121964 0.010502
   vertex 0.015993 0.13094 0.01013
  endloop
 endfacet
 facet normal 0.736165 0.260995 -0.624453
  outer loop
   vertex 0.010081 0.128848 -0.017974
   vertex 0.015993 0.13094 -0.01013
   vertex 0.013481 0.120849 -0.017309
  endloop
 endfacet
 facet normal 0.314277 0.054793 -0.947749
  outer loop
   vertex 0.010081 0.128848 -0.017974
   vertex 0.013481 0.120849 -0.017309
   vertex 0.006624 0.12005 -0.019629
  endloop
 endfacet
 facet normal 0.317574 0.0533065 -0.946734
  outer loop
   vertex 0.005239 0.126756 -0.019716
   vertex 0.010081 0.128848 -0.017974
   vertex 0.006624 0.12005 -0.019629
  endloop
 endfacet
 facet normal 0.0932679 0.00634605 -0.995621
  outer loop
   vertex 0.005239 0.126756 -0.019716
   vertex 0.006624 0.12005 -0.019629
   vertex -0.003316 0.117408 -0.020577
  endloop
 endfacet
 facet normal -0.80522 -0.587387 0.0812235
  outer loop
   vertex -0.014626 0.121279 -0.006696
   vertex -0.010404 0.115521 -0.006481
   vertex -0.009937 0.115777 0
  endloop
 endfacet
 facet normal -0.720621 -0.510887 0.468721
  outer loop
   vertex -0.014626 0.121279 -0.006696
   vertex -0.016725 0.120846 -0.010395
   vertex -0.010404 0.115521 -0.006481
  endloop
 endfacet
 facet normal -0.721175 -0.517818 0.460185
  outer loop
   vertex -0.016725 0.120846 -0.010395
   vertex -0.012438 0.115278 -0.009942
   vertex -0.010404 0.115521 -0.006481
  endloop
 endfacet
 facet normal -0.822083 -0.557007 0.117995
  outer loop
   vertex -0.013961 0.121716 0
   vertex -0.014626 0.121279 -0.006696
   vertex -0.009937 0.115777 0
  endloop
 endfacet
 facet normal -0.80522 -0.587387 -0.0812235
  outer loop
   vertex -0.009937 0.115777 0
   vertex -0.010404 0.115521 0.006481
   vertex -0.014626 0.121279 0.006696
  endloop
 endfacet
 facet normal -0.822083 -0.557007 -0.117995
  outer loop
   vertex -0.009937 0.115777 0
   vertex -0.014626 0.121279 0.006696
   vertex -0.013961 0.121716 0
  endloop
 endfacet
 facet normal -0.720621 -0.510887 -0.468721
  outer loop
   vertex -0.010404 0.115521 0.006481
   vertex -0.016725 0.120846 0.010395
   vertex -0.014626 0.121279 0.006696
  endloop
 endfacet
 facet normal -0.721175 -0.517818 -0.460185
  outer loop
   vertex -0.010404 0.115521 0.006481
   vertex -0.012438 0.115278 0.009942
   vertex -0.016725 0.120846 0.010395
  endloop
 endfacet
 facet normal 0.125823 -0.215708 -0.968317
  outer loop
   vertex -0.008713 0.114613 -0.019459
   vertex -0.009819 0.121469 -0.02113
   vertex -0.004783 0.122575 -0.020722
  endloop
 endfacet
 facet normal -0.165149 -0.0744868 -0.983452
  outer loop
   vertex -0.003316 0.117408 -0.020577
   vertex -0.008713 0.114613 -0.019459
   vertex -0.004783 0.122575 -0.020722
  endloop
 endfacet
 facet normal 0.161215 -0.702794 -0.692886
  outer loop
   vertex -0.012838 0.115678 -0.021499
   vertex -0.008713 0.114613 -0.019459
   vertex -0.01449 0.111386 -0.01753
  endloop
 endfacet
 facet normal 0.0719358 -0.817078 -0.572021
  outer loop
   vertex -0.008713 0.114613 -0.019459
   vertex -0.012838 0.115678 -0.021499
   vertex -0.016112 0.118342 -0.025716
  endloop
 endfacet
 facet normal 0.615754 -0.0914135 -0.782618
  outer loop
   vertex -0.009819 0.121469 -0.02113
   vertex -0.008713 0.114613 -0.019459
   vertex -0.016112 0.118342 -0.025716
  endloop
 endfacet
 facet normal 0.536259 -0.801087 0.26587
  outer loop
   vertex -0.012438 0.115278 -0.009942
   vertex -0.01449 0.111386 -0.01753
   vertex -0.008713 0.114613 -0.019459
  endloop
 endfacet
 facet normal 0.0997167 0.000388554 -0.995016
  outer loop
   vertex -0.004783 0.122575 -0.020722
   vertex 0.005239 0.126756 -0.019716
   vertex -0.003316 0.117408 -0.020577
  endloop
 endfacet
 facet normal 0.359166 -0.866285 0.347202
  outer loop
   vertex -0.012438 0.115278 -0.009942
   vertex -0.021372 0.11404 -0.003789
   vertex -0.01449 0.111386 -0.01753
  endloop
 endfacet
 facet normal 0.472252 0.426369 0.771484
  outer loop
   vertex -0.021372 0.11404 -0.003789
   vertex -0.012438 0.115278 -0.009942
   vertex -0.016725 0.120846 -0.010395
  endloop
 endfacet
 facet normal 0.736165 0.260995 0.624453
  outer loop
   vertex 0.013481 0.120849 0.017309
   vertex 0.015993 0.13094 0.01013
   vertex 0.010081 0.128848 0.017974
  endloop
 endfacet
 facet normal 0.314277 0.054793 0.947749
  outer loop
   vertex 0.006624 0.12005 0.019629
   vertex 0.013481 0.120849 0.017309
   vertex 0.010081 0.128848 0.017974
  endloop
 endfacet
 facet normal 0.317574 0.0533065 0.946734
  outer loop
   vertex 0.006624 0.12005 0.019629
   vertex 0.010081 0.128848 0.017974
   vertex 0.005239 0.126756 0.019716
  endloop
 endfacet
 facet normal 0.0932679 0.00634605 0.995621
  outer loop
   vertex -0.003316 0.117408 0.020577
   vertex 0.006624 0.12005 0.019629
   vertex 0.005239 0.126756 0.019716
  endloop
 endfacet
 facet normal 0.0997167 0.000388554 0.995016
  outer loop
   vertex -0.003316 0.117408 0.020577
   vertex 0.005239 0.126756 0.019716
   vertex -0.004783 0.122575 0.020722
  endloop
 endfacet
 facet normal -0.165149 -0.0744868 0.983452
  outer loop
   vertex -0.004783 0.122575 0.020722
   vertex -0.008713 0.114613 0.019459
   vertex -0.003316 0.117408 0.020577
  endloop
 endfacet
 facet normal 0.125823 -0.215708 0.968317
  outer loop
   vertex -0.004783 0.122575 0.020722
   vertex -0.009819 0.121469 0.02113
   vertex -0.008713 0.114613 0.019459
  endloop
 endfacet
 facet normal 0.161215 -0.702794 0.692886
  outer loop
   vertex -0.01449 0.111386 0.01753
   vertex -0.008713 0.114613 0.019459
   vertex -0.012838 0.115678 0.021499
  endloop
 endfacet
 facet normal 0.0719358 -0.817078 0.572021
  outer loop
   vertex -0.016112 0.118342 0.025716
   vertex -0.012838 0.115678 0.021499
   vertex -0.008713 0.114613 0.019459
  endloop
 endfacet
 facet normal 0.615754 -0.0914135 0.782618
  outer loop
   vertex -0.016112 0.118342 0.025716
   vertex -0.008713 0.114613 0.019459
   vertex -0.009819 0.121469 0.02113
  endloop
 endfacet
 facet normal 0.536259 -0.801087 -0.26587
  outer loop
   vertex -0.008713 0.114613 0.019459
   vertex -0.01449 0.111386 0.01753
   vertex -0.012438 0.115278 0.009942
  endloop
 endfacet
 facet normal 0.359166 -0.866285 -0.347202
  outer loop
   vertex -0.01449 0.111386 0.01753
   vertex -0.021372 0.11404 0.003789
   vertex -0.012438 0.115278 0.009942
  endloop
 endfacet
 facet normal 0.472252 0.426369 -0.771484
  outer loop
   vertex -0.016725 0.120846 0.010395
   vertex -0.012438 0.115278 0.009942
   vertex -0.021372 0.11404 0.003789
  endloop
 endfacet
 facet normal 0.994885 0.0906783 -0.0445186
  outer loop
   vertex 0.015993 0.13094 -0.01013
   vertex 0.015438 0.136499 -0.01121
   vertex 0.015876 0.137197 0
  endloop
 endfacet
 facet normal 0.965751 0.225596 -0.12819
  outer loop
   vertex 0.016912 0.132762 0
   vertex 0.015993 0.13094 -0.01013
   vertex 0.015876 0.137197 0
  endloop
 endfacet
 facet normal 0.80261 -0.0355515 -0.595443
  outer loop
   vertex 0.015438 0.136499 -0.01121
   vertex 0.015993 0.13094 -0.01013
   vertex 0.010081 0.128848 -0.017974
  endloop
 endfacet
 facet normal 0.965751 0.225596 0.12819
  outer loop
   vertex 0.015876 0.137197 0
   vertex 0.015993 0.13094 0.01013
   vertex 0.016912 0.132762 0
  endloop
 endfacet
 facet normal 0.994885 0.0906783 0.0445186
  outer loop
   vertex 0.015876 0.137197 0
   vertex 0.015438 0.136499 0.01121
   vertex 0.015993 0.13094 0.01013
  endloop
 endfacet
 facet normal 0.80261 -0.0355515 0.595443
  outer loop
   vertex 0.010081 0.128848 0.017974
   vertex 0.015993 0.13094 0.01013
   vertex 0.015438 0.136499 0.01121
  endloop
 endfacet
 facet normal 0.859595 -0.178626 -0.478738
  outer loop
   vertex 0.010508 0.133725 -0.019027
   vertex 0.015438 0.136499 -0.01121
   vertex 0.010081 0.128848 -0.017974
  endloop
 endfacet
 facet normal 0.414923 -0.226587 -0.881191
  outer loop
   vertex 0.010508 0.133725 -0.019027
   vertex 0.010081 0.128848 -0.017974
   vertex 0.005239 0.126756 -0.019716
  endloop
 endfacet
 facet normal 0.561844 -0.350717 -0.749219
  outer loop
   vertex 0.004723 0.130392 -0.021805
   vertex 0.010508 0.133725 -0.019027
   vertex 0.005239 0.126756 -0.019716
  endloop
 endfacet
 facet normal 0.273015 -0.449819 -0.850368
  outer loop
   vertex 0.004723 0.130392 -0.021805
   vertex 0.005239 0.126756 -0.019716
   vertex -0.004783 0.122575 -0.020722
  endloop
 endfacet
 facet normal -0.91622 -0.383509 0.116021
  outer loop
   vertex -0.017969 0.128705 -0.008549
   vertex -0.014626 0.121279 -0.006696
   vertex -0.013961 0.121716 0
  endloop
 endfacet
 facet normal -0.85584 -0.129396 0.500794
  outer loop
   vertex -0.018035 0.126542 -0.011162
   vertex -0.016725 0.120846 -0.010395
   vertex -0.014626 0.121279 -0.006696
  endloop
 endfacet
 facet normal -0.896546 -0.329825 0.295669
  outer loop
   vertex -0.017969 0.128705 -0.008549
   vertex -0.018035 0.126542 -0.011162
   vertex -0.014626 0.121279 -0.006696
  endloop
 endfacet
 facet normal 0.654512 0.24676 0.714649
  outer loop
   vertex -0.016725 0.120846 -0.010395
   vertex -0.018035 0.126542 -0.011162
   vertex -0.021372 0.11404 -0.003789
  endloop
 endfacet
 facet normal -0.936512 -0.28173 0.208742
  outer loop
   vertex -0.015994 0.128474 0
   vertex -0.017969 0.128705 -0.008549
   vertex -0.013961 0.121716 0
  endloop
 endfacet
 facet normal -0.91622 -0.383509 -0.116021
  outer loop
   vertex -0.013961 0.121716 0
   vertex -0.014626 0.121279 0.006696
   vertex -0.017969 0.128705 0.008549
  endloop
 endfacet
 facet normal -0.936512 -0.28173 -0.208742
  outer loop
   vertex -0.013961 0.121716 0
   vertex -0.017969 0.128705 0.008549
   vertex -0.015994 0.128474 0
  endloop
 endfacet
 facet normal -0.85584 -0.129396 -0.500794
  outer loop
   vertex -0.014626 0.121279 0.006696
   vertex -0.016725 0.120846 0.010395
   vertex -0.018035 0.126542 0.011162
  endloop
 endfacet
 facet normal -0.896546 -0.329825 -0.295669
  outer loop
   vertex -0.014626 0.121279 0.006696
   vertex -0.018035 0.126542 0.011162
   vertex -0.017969 0.128705 0.008549
  endloop
 endfacet
 facet normal 0.654512 0.24676 -0.714649
  outer loop
   vertex -0.021372 0.11404 0.003789
   vertex -0.018035 0.126542 0.011162
   vertex -0.016725 0.120846 0.010395
  endloop
 endfacet
 facet normal -0.281451 -0.0169381 -0.959426
  outer loop
   vertex -0.009819 0.121469 -0.02113
   vertex -0.012504 0.125641 -0.020416
   vertex -0.004301 0.128112 -0.022866
  endloop
 endfacet
 facet normal 0.155176 -0.368432 -0.916612
  outer loop
   vertex -0.004783 0.122575 -0.020722
   vertex -0.009819 0.121469 -0.02113
   vertex -0.004301 0.128112 -0.022866
  endloop
 endfacet
 facet normal 0.151473 0.707512 -0.690277
  outer loop
   vertex -0.009819 0.121469 -0.02113
   vertex -0.016112 0.118342 -0.025716
   vertex -0.019138 0.12411 -0.020468
  endloop
 endfacet
 facet normal -0.027235 0.151571 -0.988071
  outer loop
   vertex -0.012504 0.125641 -0.020416
   vertex -0.009819 0.121469 -0.02113
   vertex -0.019138 0.12411 -0.020468
  endloop
 endfacet
 facet normal 0.199927 -0.368884 -0.907719
  outer loop
   vertex -0.004301 0.128112 -0.022866
   vertex 0.004723 0.130392 -0.021805
   vertex -0.004783 0.122575 -0.020722
  endloop
 endfacet
 facet normal 0.266818 -0.70768 -0.654215
  outer loop
   vertex -0.016112 0.118342 -0.025716
   vertex -0.012838 0.115678 -0.021499
   vertex -0.01449 0.111386 -0.01753
  endloop
 endfacet
 facet normal -0.161392 -0.869721 -0.466409
  outer loop
   vertex -0.01449 0.111386 -0.01753
   vertex -0.022572 0.112941 -0.017633
   vertex -0.02577 0.11681 -0.023741
  endloop
 endfacet
 facet normal -0.514636 -0.831718 0.208317
  outer loop
   vertex -0.018632 0.111978 -0.025399
   vertex -0.01449 0.111386 -0.01753
   vertex -0.02577 0.11681 -0.023741
  endloop
 endfacet
 facet normal 0.818892 -0.347034 -0.457148
  outer loop
   vertex -0.018632 0.111978 -0.025399
   vertex -0.016112 0.118342 -0.025716
   vertex -0.01449 0.111386 -0.01753
  endloop
 endfacet
 facet normal -0.15805 -0.854261 -0.495236
  outer loop
   vertex -0.015376 0.107642 -0.010789
   vertex -0.022572 0.112941 -0.017633
   vertex -0.01449 0.111386 -0.01753
  endloop
 endfacet
 facet normal 0.842756 0.415891 0.341756
  outer loop
   vertex -0.021372 0.11404 -0.003789
   vertex -0.015376 0.107642 -0.010789
   vertex -0.01449 0.111386 -0.01753
  endloop
 endfacet
 facet normal 0.811441 -0.402659 -0.423592
  outer loop
   vertex -0.020397 0.113919 -0.02972
   vertex -0.020101 0.117642 -0.032692
   vertex -0.016112 0.118342 -0.025716
  endloop
 endfacet
 facet normal 0.805544 -0.343043 -0.483136
  outer loop
   vertex -0.018632 0.111978 -0.025399
   vertex -0.020397 0.113919 -0.02972
   vertex -0.016112 0.118342 -0.025716
  endloop
 endfacet
 facet normal 0.598209 0.68786 -0.411089
  outer loop
   vertex -0.016112 0.118342 -0.025716
   vertex -0.020101 0.117642 -0.032692
   vertex -0.019138 0.12411 -0.020468
  endloop
 endfacet
 facet normal 0.939375 0.333256 0.0807129
  outer loop
   vertex -0.017067 0.102252 -0.005221
   vertex -0.021372 0.11404 -0.003789
   vertex -0.02112 0.112412 0
  endloop
 endfacet
 facet normal -0.0370901 0.917251 0.396578
  outer loop
   vertex -0.030295 0.112041 0
   vertex -0.02112 0.112412 0
   vertex -0.021372 0.11404 -0.003789
  endloop
 endfacet
 facet normal 0.163774 0.659517 0.733632
  outer loop
   vertex -0.025596 0.119653 -0.007892
   vertex -0.030295 0.112041 0
   vertex -0.021372 0.11404 -0.003789
  endloop
 endfacet
 facet normal 0.835621 0.245475 0.491405
  outer loop
   vertex -0.021372 0.11404 -0.003789
   vertex -0.017067 0.102252 -0.005221
   vertex -0.015376 0.107642 -0.010789
  endloop
 endfacet
 facet normal -0.11659 0.527428 0.841562
  outer loop
   vertex -0.018035 0.126542 -0.011162
   vertex -0.025596 0.119653 -0.007892
   vertex -0.021372 0.11404 -0.003789
  endloop
 endfacet
 facet normal 0.859595 -0.178626 0.478738
  outer loop
   vertex 0.010081 0.128848 0.017974
   vertex 0.015438 0.136499 0.01121
   vertex 0.010508 0.133725 0.019027
  endloop
 endfacet
 facet normal 0.414923 -0.226587 0.881191
  outer loop
   vertex 0.005239 0.126756 0.019716
   vertex 0.010081 0.128848 0.017974
   vertex 0.010508 0.133725 0.019027
  endloop
 endfacet
 facet normal 0.561844 -0.350717 0.749219
  outer loop
   vertex 0.005239 0.126756 0.019716
   vertex 0.010508 0.133725 0.019027
   vertex 0.004723 0.130392 0.021805
  endloop
 endfacet
 facet normal 0.273015 -0.449819 0.850368
  outer loop
   vertex -0.004783 0.122575 0.020722
   vertex 0.005239 0.126756 0.019716
   vertex 0.004723 0.130392 0.021805
  endloop
 endfacet
 facet normal 0.199927 -0.368884 0.907719
  outer loop
   vertex -0.004783 0.122575 0.020722
   vertex 0.004723 0.130392 0.021805
   vertex -0.004301 0.128112 0.022866
  endloop
 endfacet
 facet normal 0.155176 -0.368432 0.916612
  outer loop
   vertex -0.004301 0.128112 0.022866
   vertex -0.009819 0.121469 0.02113
   vertex -0.004783 0.122575 0.020722
  endloop
 endfacet
 facet normal -0.281451 -0.0169381 0.959426
  outer loop
   vertex -0.004301 0.128112 0.022866
   vertex -0.012504 0.125641 0.020416
   vertex -0.009819 0.121469 0.02113
  endloop
 endfacet
 facet normal 0.151473 0.707512 0.690277
  outer loop
   vertex -0.019138 0.12411 0.020468
   vertex -0.016112 0.118342 0.025716
   vertex -0.009819 0.121469 0.02113
  endloop
 endfacet
 facet normal -0.027235 0.151571 0.988071
  outer loop
   vertex -0.019138 0.12411 0.020468
   vertex -0.009819 0.121469 0.02113
   vertex -0.012504 0.125641 0.020416
  endloop
 endfacet
 facet normal -0.161392 -0.869721 0.466409
  outer loop
   vertex -0.02577 0.11681 0.023741
   vertex -0.022572 0.112941 0.017633
   vertex -0.01449 0.111386 0.01753
  endloop
 endfacet
 facet normal -0.514636 -0.831718 -0.208317
  outer loop
   vertex -0.02577 0.11681 0.023741
   vertex -0.01449 0.111386 0.01753
   vertex -0.018632 0.111978 0.025399
  endloop
 endfacet
 facet normal 0.266818 -0.70768 0.654215
  outer loop
   vertex -0.01449 0.111386 0.01753
   vertex -0.012838 0.115678 0.021499
   vertex -0.016112 0.118342 0.025716
  endloop
 endfacet
 facet normal 0.818892 -0.347034 0.457148
  outer loop
   vertex -0.01449 0.111386 0.01753
   vertex -0.016112 0.118342 0.025716
   vertex -0.018632 0.111978 0.025399
  endloop
 endfacet
 facet normal -0.15805 -0.854261 0.495236
  outer loop
   vertex -0.01449 0.111386 0.01753
   vertex -0.022572 0.112941 0.017633
   vertex -0.015376 0.107642 0.010789
  endloop
 endfacet
 facet normal 0.842756 0.415891 -0.341756
  outer loop
   vertex -0.01449 0.111386 0.01753
   vertex -0.015376 0.107642 0.010789
   vertex -0.021372 0.11404 0.003789
  endloop
 endfacet
 facet normal 0.811441 -0.402659 0.423592
  outer loop
   vertex -0.016112 0.118342 0.025716
   vertex -0.020101 0.117642 0.032692
   vertex -0.020397 0.113919 0.02972
  endloop
 endfacet
 facet normal 0.805544 -0.343043 0.483136
  outer loop
   vertex -0.016112 0.118342 0.025716
   vertex -0.020397 0.113919 0.02972
   vertex -0.018632 0.111978 0.025399
  endloop
 endfacet
 facet normal 0.598209 0.68786 0.411089
  outer loop
   vertex -0.019138 0.12411 0.020468
   vertex -0.020101 0.117642 0.032692
   vertex -0.016112 0.118342 0.025716
  endloop
 endfacet
 facet normal 0.939375 0.333256 -0.0807129
  outer loop
   vertex -0.02112 0.112412 0
   vertex -0.021372 0.11404 0.003789
   vertex -0.017067 0.102252 0.005221
  endloop
 endfacet
 facet normal -0.0370901 0.917251 -0.396578
  outer loop
   vertex -0.021372 0.11404 0.003789
   vertex -0.02112 0.112412 0
   vertex -0.030295 0.112041 0
  endloop
 endfacet
 facet normal 0.163774 0.659517 -0.733632
  outer loop
   vertex -0.021372 0.11404 0.003789
   vertex -0.030295 0.112041 0
   vertex -0.025596 0.119653 0.007892
  endloop
 endfacet
 facet normal 0.835621 0.245475 -0.491405
  outer loop
   vertex -0.015376 0.107642 0.010789
   vertex -0.017067 0.102252 0.005221
   vertex -0.021372 0.11404 0.003789
  endloop
 endfacet
 facet normal -0.11659 0.527428 -0.841562
  outer loop
   vertex -0.021372 0.11404 0.003789
   vertex -0.025596 0.119653 0.007892
   vertex -0.018035 0.126542 0.011162
  endloop
 endfacet
 facet normal 0.907417 0.412648 -0.0794678
  outer loop
   vertex 0.015438 0.136499 -0.01121
   vertex 0.013284 0.141196 -0.011416
   vertex 0.014 0.14182 0
  endloop
 endfacet
 facet normal 0.92497 0.375351 -0.0595123
  outer loop
   vertex 0.015876 0.137197 0
   vertex 0.015438 0.136499 -0.01121
   vertex 0.014 0.14182 0
  endloop
 endfacet
 facet normal 0.747348 0.31712 -0.583871
  outer loop
   vertex 0.013284 0.141196 -0.011416
   vertex 0.015438 0.136499 -0.01121
   vertex 0.010508 0.133725 -0.019027
  endloop
 endfacet
 facet normal 0.92497 0.375351 0.0595123
  outer loop
   vertex 0.014 0.14182 0
   vertex 0.015438 0.136499 0.01121
   vertex 0.015876 0.137197 0
  endloop
 endfacet
 facet normal 0.907417 0.412648 0.0794678
  outer loop
   vertex 0.014 0.14182 0
   vertex 0.013284 0.141196 0.011416
   vertex 0.015438 0.136499 0.01121
  endloop
 endfacet
 facet normal 0.747348 0.31712 0.583871
  outer loop
   vertex 0.010508 0.133725 0.019027
   vertex 0.015438 0.136499 0.01121
   vertex 0.013284 0.141196 0.011416
  endloop
 endfacet
 facet normal 0.77405 0.287197 -0.564238
  outer loop
   vertex 0.00846 0.13873 -0.019289
   vertex 0.013284 0.141196 -0.011416
   vertex 0.010508 0.133725 -0.019027
  endloop
 endfacet
 facet normal 0.405213 0.0571803 -0.912433
  outer loop
   vertex 0.010508 0.133725 -0.019027
   vertex 0.004723 0.130392 -0.021805
   vertex 0.001584 0.135802 -0.02286
  endloop
 endfacet
 facet normal 0.415674 0.122916 -0.901169
  outer loop
   vertex 0.00846 0.13873 -0.019289
   vertex 0.010508 0.133725 -0.019027
   vertex 0.001584 0.135802 -0.02286
  endloop
 endfacet
 facet normal 0.105067 0.0464278 -0.993381
  outer loop
   vertex 0.004723 0.130392 -0.021805
   vertex -0.004301 0.128112 -0.022866
   vertex -0.007051 0.131297 -0.023008
  endloop
 endfacet
 facet normal 0.0899812 -0.140079 -0.986043
  outer loop
   vertex 0.001584 0.135802 -0.02286
   vertex 0.004723 0.130392 -0.021805
   vertex -0.007051 0.131297 -0.023008
  endloop
 endfacet
 facet normal 0.472556 0.755346 -0.454029
  outer loop
   vertex -0.017969 0.128705 -0.008549
   vertex -0.019563 0.126154 -0.014452
   vertex -0.027516 0.129955 -0.016406
  endloop
 endfacet
 facet normal -0.251619 0.86066 0.442666
  outer loop
   vertex -0.027516 0.129955 -0.016406
   vertex -0.026382 0.127146 -0.0103
   vertex -0.017969 0.128705 -0.008549
  endloop
 endfacet
 facet normal -0.244295 0.273364 0.930372
  outer loop
   vertex -0.026382 0.127146 -0.0103
   vertex -0.025596 0.119653 -0.007892
   vertex -0.017969 0.128705 -0.008549
  endloop
 endfacet
 facet normal 0.700725 -0.558164 0.444339
  outer loop
   vertex -0.018035 0.126542 -0.011162
   vertex -0.017969 0.128705 -0.008549
   vertex -0.025596 0.119653 -0.007892
  endloop
 endfacet
 facet normal -0.403699 0.907279 0.117778
  outer loop
   vertex -0.000997 0.135147 0
   vertex -0.017969 0.128705 -0.008549
   vertex -0.015994 0.128474 0
  endloop
 endfacet
 facet normal -0.336629 0.940762 -0.0406054
  outer loop
   vertex -0.000997 0.135147 0
   vertex -0.015922 0.129049 -0.017549
   vertex -0.017969 0.128705 -0.008549
  endloop
 endfacet
 facet normal -0.681435 0.720698 -0.127441
  outer loop
   vertex -0.017969 0.128705 -0.008549
   vertex -0.015922 0.129049 -0.017549
   vertex -0.019563 0.126154 -0.014452
  endloop
 endfacet
 facet normal -0.403699 0.907279 -0.117778
  outer loop
   vertex -0.015994 0.128474 0
   vertex -0.017969 0.128705 0.008549
   vertex -0.000997 0.135147 0
  endloop
 endfacet
 facet normal 0.472556 0.755346 0.454029
  outer loop
   vertex -0.027516 0.129955 0.016406
   vertex -0.019563 0.126154 0.014452
   vertex -0.017969 0.128705 0.008549
  endloop
 endfacet
 facet normal -0.251619 0.86066 -0.442666
  outer loop
   vertex -0.017969 0.128705 0.008549
   vertex -0.026382 0.127146 0.0103
   vertex -0.027516 0.129955 0.016406
  endloop
 endfacet
 facet normal -0.244295 0.273364 -0.930372
  outer loop
   vertex -0.017969 0.128705 0.008549
   vertex -0.025596 0.119653 0.007892
   vertex -0.026382 0.127146 0.0103
  endloop
 endfacet
 facet normal 0.700725 -0.558164 -0.444339
  outer loop
   vertex -0.025596 0.119653 0.007892
   vertex -0.017969 0.128705 0.008549
   vertex -0.018035 0.126542 0.011162
  endloop
 endfacet
 facet normal -0.336629 0.940762 0.0406054
  outer loop
   vertex -0.017969 0.128705 0.008549
   vertex -0.015922 0.129049 0.017549
   vertex -0.000997 0.135147 0
  endloop
 endfacet
 facet normal -0.681435 0.720698 0.127441
  outer loop
   vertex -0.019563 0.126154 0.014452
   vertex -0.015922 0.129049 0.017549
   vertex -0.017969 0.128705 0.008549
  endloop
 endfacet
 facet normal -0.214967 -0.227947 -0.949647
  outer loop
   vertex -0.004301 0.128112 -0.022866
   vertex -0.012504 0.125641 -0.020416
   vertex -0.007051 0.131297 -0.023008
  endloop
 endfacet
 facet normal -0.123597 0.563306 -0.816952
  outer loop
   vertex -0.012504 0.125641 -0.020416
   vertex -0.019138 0.12411 -0.020468
   vertex -0.015922 0.129049 -0.017549
  endloop
 endfacet
 facet normal -0.545196 0.147442 -0.82524
  outer loop
   vertex -0.012504 0.125641 -0.020416
   vertex -0.015922 0.129049 -0.017549
   vertex -0.007051 0.131297 -0.023008
  endloop
 endfacet
 facet normal -0.728347 0.631469 -0.266003
  outer loop
   vertex -0.019138 0.12411 -0.020468
   vertex -0.019563 0.126154 -0.014452
   vertex -0.015922 0.129049 -0.017549
  endloop
 endfacet
 facet normal 0.52222 0.736102 -0.430628
  outer loop
   vertex -0.020101 0.117642 -0.032692
   vertex -0.024214 0.122618 -0.029174
   vertex -0.019138 0.12411 -0.020468
  endloop
 endfacet
 facet normal 0.288901 0.901262 -0.322897
  outer loop
   vertex -0.024292 0.126335 -0.018869
   vertex -0.019138 0.12411 -0.020468
   vertex -0.024214 0.122618 -0.029174
  endloop
 endfacet
 facet normal 0.303118 0.908614 -0.287298
  outer loop
   vertex -0.019563 0.126154 -0.014452
   vertex -0.019138 0.12411 -0.020468
   vertex -0.024292 0.126335 -0.018869
  endloop
 endfacet
 facet normal -0.514562 -0.147733 -0.844631
  outer loop
   vertex -0.022572 0.112941 -0.017633
   vertex -0.023154 0.10494 -0.015879
   vertex -0.026959 0.10155 -0.012968
  endloop
 endfacet
 facet normal -0.112035 -0.864935 -0.489219
  outer loop
   vertex -0.02577 0.11681 -0.023741
   vertex -0.022572 0.112941 -0.017633
   vertex -0.031483 0.116369 -0.021653
  endloop
 endfacet
 facet normal -0.269397 -0.940916 -0.205191
  outer loop
   vertex -0.022572 0.112941 -0.017633
   vertex -0.031529 0.114831 -0.01454
   vertex -0.031483 0.116369 -0.021653
  endloop
 endfacet
 facet normal 0.585856 -0.213973 -0.781657
  outer loop
   vertex -0.015376 0.107642 -0.010789
   vertex -0.023154 0.10494 -0.015879
   vertex -0.022572 0.112941 -0.017633
  endloop
 endfacet
 facet normal -0.600412 -0.0939946 -0.794148
  outer loop
   vertex -0.026959 0.10155 -0.012968
   vertex -0.028895 0.114187 -0.013
   vertex -0.022572 0.112941 -0.017633
  endloop
 endfacet
 facet normal -0.217931 -0.975332 -0.0351191
  outer loop
   vertex -0.028895 0.114187 -0.013
   vertex -0.031529 0.114831 -0.01454
   vertex -0.022572 0.112941 -0.017633
  endloop
 endfacet
 facet normal -0.347122 0.0683749 -0.935324
  outer loop
   vertex -0.02577 0.11681 -0.023741
   vertex -0.031483 0.116369 -0.021653
   vertex -0.034183 0.125561 -0.019979
  endloop
 endfacet
 facet normal -0.507616 -0.512129 -0.692857
  outer loop
   vertex -0.024214 0.122618 -0.029174
   vertex -0.018632 0.111978 -0.025399
   vertex -0.02577 0.11681 -0.023741
  endloop
 endfacet
 facet normal -0.901812 -0.140623 -0.408607
  outer loop
   vertex -0.024214 0.122618 -0.029174
   vertex -0.02577 0.11681 -0.023741
   vertex -0.027623 0.123155 -0.021835
  endloop
 endfacet
 facet normal -0.18473 0.232868 -0.954802
  outer loop
   vertex -0.027623 0.123155 -0.021835
   vertex -0.02577 0.11681 -0.023741
   vertex -0.034183 0.125561 -0.019979
  endloop
 endfacet
 facet normal -0.89576 -0.404605 0.184143
  outer loop
   vertex -0.024214 0.122618 -0.029174
   vertex -0.020397 0.113919 -0.02972
   vertex -0.018632 0.111978 -0.025399
  endloop
 endfacet
 facet normal 0.925662 0.0893763 0.367643
  outer loop
   vertex -0.014106 0.1007 -0.012299
   vertex -0.015376 0.107642 -0.010789
   vertex -0.017067 0.102252 -0.005221
  endloop
 endfacet
 facet normal 0.337662 0.258634 -0.905037
  outer loop
   vertex -0.015376 0.107642 -0.010789
   vertex -0.014106 0.1007 -0.012299
   vertex -0.025447 0.097303 -0.017501
  endloop
 endfacet
 facet normal 0.543891 0.0148953 -0.839024
  outer loop
   vertex -0.023154 0.10494 -0.015879
   vertex -0.015376 0.107642 -0.010789
   vertex -0.025447 0.097303 -0.017501
  endloop
 endfacet
 facet normal 0.456752 -0.707799 -0.538886
  outer loop
   vertex -0.020397 0.113919 -0.02972
   vertex -0.024872 0.113514 -0.032981
   vertex -0.024013 0.116494 -0.036167
  endloop
 endfacet
 facet normal 0.651481 -0.504274 -0.566816
  outer loop
   vertex -0.020101 0.117642 -0.032692
   vertex -0.020397 0.113919 -0.02972
   vertex -0.024013 0.116494 -0.036167
  endloop
 endfacet
 facet normal -0.562421 -0.214769 0.798472
  outer loop
   vertex -0.020397 0.113919 -0.02972
   vertex -0.028265 0.120678 -0.033444
   vertex -0.024872 0.113514 -0.032981
  endloop
 endfacet
 facet normal -0.613174 -0.314534 0.724628
  outer loop
   vertex -0.024214 0.122618 -0.029174
   vertex -0.028265 0.120678 -0.033444
   vertex -0.020397 0.113919 -0.02972
  endloop
 endfacet
 facet normal 0.336866 0.713111 -0.614812
  outer loop
   vertex -0.020101 0.117642 -0.032692
   vertex -0.024013 0.116494 -0.036167
   vertex -0.024214 0.122618 -0.029174
  endloop
 endfacet
 facet normal 0.835348 0.0780253 0.544156
  outer loop
   vertex -0.015487 0.096732 -0.006855
   vertex -0.017067 0.102252 -0.005221
   vertex -0.020457 0.102134 0
  endloop
 endfacet
 facet normal 0.836931 0.0539877 0.54464
  outer loop
   vertex -0.020457 0.102134 0
   vertex -0.017067 0.102252 -0.005221
   vertex -0.02112 0.112412 0
  endloop
 endfacet
 facet normal 0.922627 0.160233 0.350836
  outer loop
   vertex -0.015487 0.096732 -0.006855
   vertex -0.014106 0.1007 -0.012299
   vertex -0.017067 0.102252 -0.005221
  endloop
 endfacet
 facet normal 0.836931 0.0539877 -0.54464
  outer loop
   vertex -0.02112 0.112412 0
   vertex -0.017067 0.102252 0.005221
   vertex -0.020457 0.102134 0
  endloop
 endfacet
 facet normal -0.779636 0.471613 -0.412005
  outer loop
   vertex -0.030295 0.112041 0
   vertex -0.030163 0.107837 -0.005062
   vertex -0.036992 0.10097 0
  endloop
 endfacet
 facet normal -0.516137 0.65224 -0.555145
  outer loop
   vertex -0.025977 0.108225 -0.008498
   vertex -0.030163 0.107837 -0.005062
   vertex -0.030295 0.112041 0
  endloop
 endfacet
 facet normal -0.878907 -0.393205 -0.270023
  outer loop
   vertex -0.027384 0.112854 -0.010659
   vertex -0.025977 0.108225 -0.008498
   vertex -0.030295 0.112041 0
  endloop
 endfacet
 facet normal -0.915967 0.332369 -0.224802
  outer loop
   vertex -0.030295 0.112041 0
   vertex -0.025596 0.119653 -0.007892
   vertex -0.027384 0.112854 -0.010659
  endloop
 endfacet
 facet normal -0.779636 0.471613 0.412005
  outer loop
   vertex -0.036992 0.10097 0
   vertex -0.030163 0.107837 0.005062
   vertex -0.030295 0.112041 0
  endloop
 endfacet
 facet normal -0.516137 0.65224 0.555145
  outer loop
   vertex -0.030295 0.112041 0
   vertex -0.030163 0.107837 0.005062
   vertex -0.025977 0.108225 0.008498
  endloop
 endfacet
 facet normal -0.878907 -0.393205 0.270023
  outer loop
   vertex -0.030295 0.112041 0
   vertex -0.025977 0.108225 0.008498
   vertex -0.027384 0.112854 0.010659
  endloop
 endfacet
 facet normal -0.915967 0.332369 0.224802
  outer loop
   vertex -0.027384 0.112854 0.010659
   vertex -0.025596 0.119653 0.007892
   vertex -0.030295 0.112041 0
  endloop
 endfacet
 facet normal -0.94096 0.118386 0.317142
  outer loop
   vertex -0.025596 0.119653 -0.007892
   vertex -0.026839 0.119787 -0.01163
   vertex -0.027384 0.112854 -0.010659
  endloop
 endfacet
 facet normal -0.94889 0.00188769 0.315602
  outer loop
   vertex -0.026382 0.127146 -0.0103
   vertex -0.026839 0.119787 -0.01163
   vertex -0.025596 0.119653 -0.007892
  endloop
 endfacet
 facet normal 0.77405 0.287197 0.564238
  outer loop
   vertex 0.010508 0.133725 0.019027
   vertex 0.013284 0.141196 0.011416
   vertex 0.00846 0.13873 0.019289
  endloop
 endfacet
 facet normal 0.405213 0.0571803 0.912433
  outer loop
   vertex 0.001584 0.135802 0.02286
   vertex 0.004723 0.130392 0.021805
   vertex 0.010508 0.133725 0.019027
  endloop
 endfacet
 facet normal 0.415674 0.122916 0.901169
  outer loop
   vertex 0.001584 0.135802 0.02286
   vertex 0.010508 0.133725 0.019027
   vertex 0.00846 0.13873 0.019289
  endloop
 endfacet
 facet normal 0.105067 0.0464278 0.993381
  outer loop
   vertex -0.007051 0.131297 0.023008
   vertex -0.004301 0.128112 0.022866
   vertex 0.004723 0.130392 0.021805
  endloop
 endfacet
 facet normal 0.0899812 -0.140079 0.986043
  outer loop
   vertex -0.007051 0.131297 0.023008
   vertex 0.004723 0.130392 0.021805
   vertex 0.001584 0.135802 0.02286
  endloop
 endfacet
 facet normal -0.214967 -0.227947 0.949647
  outer loop
   vertex -0.007051 0.131297 0.023008
   vertex -0.012504 0.125641 0.020416
   vertex -0.004301 0.128112 0.022866
  endloop
 endfacet
 facet normal -0.123597 0.563306 0.816952
  outer loop
   vertex -0.015922 0.129049 0.017549
   vertex -0.019138 0.12411 0.020468
   vertex -0.012504 0.125641 0.020416
  endloop
 endfacet
 facet normal -0.545196 0.147442 0.82524
  outer loop
   vertex -0.007051 0.131297 0.023008
   vertex -0.015922 0.129049 0.017549
   vertex -0.012504 0.125641 0.020416
  endloop
 endfacet
 facet normal -0.728347 0.631469 0.266003
  outer loop
   vertex -0.015922 0.129049 0.017549
   vertex -0.019563 0.126154 0.014452
   vertex -0.019138 0.12411 0.020468
  endloop
 endfacet
 facet normal 0.52222 0.736102 0.430628
  outer loop
   vertex -0.019138 0.12411 0.020468
   vertex -0.024214 0.122618 0.029174
   vertex -0.020101 0.117642 0.032692
  endloop
 endfacet
 facet normal 0.288901 0.901262 0.322897
  outer loop
   vertex -0.024214 0.122618 0.029174
   vertex -0.019138 0.12411 0.020468
   vertex -0.024292 0.126335 0.018869
  endloop
 endfacet
 facet normal 0.303118 0.908614 0.287298
  outer loop
   vertex -0.024292 0.126335 0.018869
   vertex -0.019138 0.12411 0.020468
   vertex -0.019563 0.126154 0.014452
  endloop
 endfacet
 facet normal -0.347122 0.0683749 0.935324
  outer loop
   vertex -0.034183 0.125561 0.019979
   vertex -0.031483 0.116369 0.021653
   vertex -0.02577 0.11681 0.023741
  endloop
 endfacet
 facet normal -0.112035 -0.864935 0.489219
  outer loop
   vertex -0.031483 0.116369 0.021653
   vertex -0.022572 0.112941 0.017633
   vertex -0.02577 0.11681 0.023741
  endloop
 endfacet
 facet normal -0.507616 -0.512129 0.692857
  outer loop
   vertex -0.02577 0.11681 0.023741
   vertex -0.018632 0.111978 0.025399
   vertex -0.024214 0.122618 0.029174
  endloop
 endfacet
 facet normal -0.901812 -0.140623 0.408607
  outer loop
   vertex -0.027623 0.123155 0.021835
   vertex -0.02577 0.11681 0.023741
   vertex -0.024214 0.122618 0.029174
  endloop
 endfacet
 facet normal -0.18473 0.232868 0.954802
  outer loop
   vertex -0.034183 0.125561 0.019979
   vertex -0.02577 0.11681 0.023741
   vertex -0.027623 0.123155 0.021835
  endloop
 endfacet
 facet normal -0.514562 -0.147733 0.844631
  outer loop
   vertex -0.026959 0.10155 0.012968
   vertex -0.023154 0.10494 0.015879
   vertex -0.022572 0.112941 0.017633
  endloop
 endfacet
 facet normal -0.269397 -0.940916 0.205191
  outer loop
   vertex -0.031483 0.116369 0.021653
   vertex -0.031529 0.114831 0.01454
   vertex -0.022572 0.112941 0.017633
  endloop
 endfacet
 facet normal 0.585856 -0.213973 0.781657
  outer loop
   vertex -0.022572 0.112941 0.017633
   vertex -0.023154 0.10494 0.015879
   vertex -0.015376 0.107642 0.010789
  endloop
 endfacet
 facet normal -0.600412 -0.0939946 0.794148
  outer loop
   vertex -0.022572 0.112941 0.017633
   vertex -0.028895 0.114187 0.013
   vertex -0.026959 0.10155 0.012968
  endloop
 endfacet
 facet normal -0.217931 -0.975332 0.0351191
  outer loop
   vertex -0.022572 0.112941 0.017633
   vertex -0.031529 0.114831 0.01454
   vertex -0.028895 0.114187 0.013
  endloop
 endfacet
 facet normal -0.89576 -0.404605 -0.184143
  outer loop
   vertex -0.018632 0.111978 0.025399
   vertex -0.020397 0.113919 0.02972
   vertex -0.024214 0.122618 0.029174
  endloop
 endfacet
 facet normal 0.925662 0.0893763 -0.367643
  outer loop
   vertex -0.017067 0.102252 0.005221
   vertex -0.015376 0.107642 0.010789
   vertex -0.014106 0.1007 0.012299
  endloop
 endfacet
 facet normal 0.337662 0.258634 0.905037
  outer loop
   vertex -0.025447 0.097303 0.017501
   vertex -0.014106 0.1007 0.012299
   vertex -0.015376 0.107642 0.010789
  endloop
 endfacet
 facet normal 0.543891 0.0148953 0.839024
  outer loop
   vertex -0.025447 0.097303 0.017501
   vertex -0.015376 0.107642 0.010789
   vertex -0.023154 0.10494 0.015879
  endloop
 endfacet
 facet normal 0.336866 0.713111 0.614812
  outer loop
   vertex -0.024214 0.122618 0.029174
   vertex -0.024013 0.116494 0.036167
   vertex -0.020101 0.117642 0.032692
  endloop
 endfacet
 facet normal 0.651481 -0.504274 0.566816
  outer loop
   vertex -0.024013 0.116494 0.036167
   vertex -0.020397 0.113919 0.02972
   vertex -0.020101 0.117642 0.032692
  endloop
 endfacet
 facet normal 0.456752 -0.707799 0.538886
  outer loop
   vertex -0.024013 0.116494 0.036167
   vertex -0.024872 0.113514 0.032981
   vertex -0.020397 0.113919 0.02972
  endloop
 endfacet
 facet normal -0.562421 -0.214769 -0.798472
  outer loop
   vertex -0.024872 0.113514 0.032981
   vertex -0.028265 0.120678 0.033444
   vertex -0.020397 0.113919 0.02972
  endloop
 endfacet
 facet normal -0.613174 -0.314534 -0.724628
  outer loop
   vertex -0.020397 0.113919 0.02972
   vertex -0.028265 0.120678 0.033444
   vertex -0.024214 0.122618 0.029174
  endloop
 endfacet
 facet normal 0.835348 0.0780253 -0.544156
  outer loop
   vertex -0.020457 0.102134 0
   vertex -0.017067 0.102252 0.005221
   vertex -0.015487 0.096732 0.006855
  endloop
 endfacet
 facet normal 0.922627 0.160233 -0.350836
  outer loop
   vertex -0.017067 0.102252 0.005221
   vertex -0.014106 0.1007 0.012299
   vertex -0.015487 0.096732 0.006855
  endloop
 endfacet
 facet normal -0.94096 0.118386 -0.317142
  outer loop
   vertex -0.027384 0.112854 0.010659
   vertex -0.026839 0.119787 0.01163
   vertex -0.025596 0.119653 0.007892
  endloop
 endfacet
 facet normal -0.94889 0.00188769 -0.315602
  outer loop
   vertex -0.025596 0.119653 0.007892
   vertex -0.026839 0.119787 0.01163
   vertex -0.026382 0.127146 0.0103
  endloop
 endfacet
 facet normal -0.411943 0.910618 -0.0328167
  outer loop
   vertex -0.000997 0.135147 0
   vertex 0.013284 0.141196 -0.011416
   vertex 0.00846 0.13873 -0.019289
  endloop
 endfacet
 facet normal -0.406407 0.913365 -0.0244353
  outer loop
   vertex -0.000997 0.135147 0
   vertex 0.014 0.14182 0
   vertex 0.013284 0.141196 -0.011416
  endloop
 endfacet
 facet normal -0.406407 0.913365 0.0244353
  outer loop
   vertex 0.013284 0.141196 0.011416
   vertex 0.014 0.14182 0
   vertex -0.000997 0.135147 0
  endloop
 endfacet
 facet normal -0.411943 0.910618 0.0328167
  outer loop
   vertex 0.00846 0.13873 0.019289
   vertex 0.013284 0.141196 0.011416
   vertex -0.000997 0.135147 0
  endloop
 endfacet
 facet normal -0.384272 0.923065 -0.016938
  outer loop
   vertex -0.000997 0.135147 0
   vertex 0.00846 0.13873 -0.019289
   vertex 0.001584 0.135802 -0.02286
  endloop
 endfacet
 facet normal -0.462022 0.886465 -0.026765
  outer loop
   vertex -0.000997 0.135147 0
   vertex 0.001584 0.135802 -0.02286
   vertex -0.007051 0.131297 -0.023008
  endloop
 endfacet
 facet normal -0.292235 0.952778 -0.0825367
  outer loop
   vertex -0.000997 0.135147 0
   vertex -0.007051 0.131297 -0.023008
   vertex -0.015922 0.129049 -0.017549
  endloop
 endfacet
 facet normal 0.471756 0.743083 -0.474631
  outer loop
   vertex -0.024292 0.126335 -0.018869
   vertex -0.027516 0.129955 -0.016406
   vertex -0.019563 0.126154 -0.014452
  endloop
 endfacet
 facet normal 0.0445013 0.588761 -0.807081
  outer loop
   vertex -0.027516 0.129955 -0.016406
   vertex -0.024292 0.126335 -0.018869
   vertex -0.034183 0.125561 -0.019979
  endloop
 endfacet
 facet normal -0.635301 0.701707 0.322489
  outer loop
   vertex -0.027516 0.129955 -0.016406
   vertex -0.034183 0.125561 -0.019979
   vertex -0.03865 0.12003 -0.016744
  endloop
 endfacet
 facet normal -0.308796 0.315859 0.89715
  outer loop
   vertex -0.031322 0.120187 -0.014277
   vertex -0.027516 0.129955 -0.016406
   vertex -0.03865 0.12003 -0.016744
  endloop
 endfacet
 facet normal -0.451771 0.354467 0.818691
  outer loop
   vertex -0.031322 0.120187 -0.014277
   vertex -0.026839 0.119787 -0.01163
   vertex -0.027516 0.129955 -0.016406
  endloop
 endfacet
 facet normal -0.980659 0.0258356 0.194012
  outer loop
   vertex -0.026382 0.127146 -0.0103
   vertex -0.027516 0.129955 -0.016406
   vertex -0.026839 0.119787 -0.01163
  endloop
 endfacet
 facet normal -0.384272 0.923065 0.016938
  outer loop
   vertex 0.001584 0.135802 0.02286
   vertex 0.00846 0.13873 0.019289
   vertex -0.000997 0.135147 0
  endloop
 endfacet
 facet normal -0.462022 0.886465 0.026765
  outer loop
   vertex -0.007051 0.131297 0.023008
   vertex 0.001584 0.135802 0.02286
   vertex -0.000997 0.135147 0
  endloop
 endfacet
 facet normal -0.292235 0.952778 0.0825367
  outer loop
   vertex -0.015922 0.129049 0.017549
   vertex -0.007051 0.131297 0.023008
   vertex -0.000997 0.135147 0
  endloop
 endfacet
 facet normal 0.471756 0.743083 0.474631
  outer loop
   vertex -0.019563 0.126154 0.014452
   vertex -0.027516 0.129955 0.016406
   vertex -0.024292 0.126335 0.018869
  endloop
 endfacet
 facet normal 0.0445013 0.588761 0.807081
  outer loop
   vertex -0.034183 0.125561 0.019979
   vertex -0.024292 0.126335 0.018869
   vertex -0.027516 0.129955 0.016406
  endloop
 endfacet
 facet normal -0.635301 0.701707 -0.322489
  outer loop
   vertex -0.03865 0.12003 0.016744
   vertex -0.034183 0.125561 0.019979
   vertex -0.027516 0.129955 0.016406
  endloop
 endfacet
 facet normal -0.308796 0.315859 -0.89715
  outer loop
   vertex -0.03865 0.12003 0.016744
   vertex -0.027516 0.129955 0.016406
   vertex -0.031322 0.120187 0.014277
  endloop
 endfacet
 facet normal -0.451771 0.354467 -0.818691
  outer loop
   vertex -0.027516 0.129955 0.016406
   vertex -0.026839 0.119787 0.01163
   vertex -0.031322 0.120187 0.014277
  endloop
 endfacet
 facet normal -0.980659 0.0258356 -0.194012
  outer loop
   vertex -0.026839 0.119787 0.01163
   vertex -0.027516 0.129955 0.016406
   vertex -0.026382 0.127146 0.0103
  endloop
 endfacet
 facet normal 0.310229 0.719588 -0.62125
  outer loop
   vertex -0.024013 0.116494 -0.036167
   vertex -0.028265 0.120678 -0.033444
   vertex -0.024214 0.122618 -0.029174
  endloop
 endfacet
 facet normal -0.5088 0.808579 -0.295504
  outer loop
   vertex -0.027623 0.123155 -0.021835
   vertex -0.024292 0.126335 -0.018869
   vertex -0.024214 0.122618 -0.029174
  endloop
 endfacet
 facet normal 0.0319431 0.663627 -0.747382
  outer loop
   vertex -0.024292 0.126335 -0.018869
   vertex -0.027623 0.123155 -0.021835
   vertex -0.034183 0.125561 -0.019979
  endloop
 endfacet
 facet normal -0.744562 0.344939 -0.571527
  outer loop
   vertex -0.026959 0.10155 -0.012968
   vertex -0.023154 0.10494 -0.015879
   vertex -0.025447 0.097303 -0.017501
  endloop
 endfacet
 facet normal -0.602197 -0.249832 -0.75825
  outer loop
   vertex -0.027099 0.092752 -0.009958
   vertex -0.028403 0.097613 -0.010524
   vertex -0.026959 0.10155 -0.012968
  endloop
 endfacet
 facet normal -0.892413 -0.133284 -0.431085
  outer loop
   vertex -0.023212 0.090324 -0.017254
   vertex -0.027099 0.092752 -0.009958
   vertex -0.026959 0.10155 -0.012968
  endloop
 endfacet
 facet normal -0.951584 -0.305834 -0.0308674
  outer loop
   vertex -0.025447 0.097303 -0.017501
   vertex -0.023212 0.090324 -0.017254
   vertex -0.026959 0.10155 -0.012968
  endloop
 endfacet
 facet normal -0.949387 0.195686 -0.245704
  outer loop
   vertex -0.027504 0.103804 -0.009067
   vertex -0.026959 0.10155 -0.012968
   vertex -0.028403 0.097613 -0.010524
  endloop
 endfacet
 facet normal -0.987189 -0.151366 -0.0504587
  outer loop
   vertex -0.026959 0.10155 -0.012968
   vertex -0.027504 0.103804 -0.009067
   vertex -0.028895 0.114187 -0.013
  endloop
 endfacet
 facet normal 0.233482 0.240176 -0.942232
  outer loop
   vertex -0.031483 0.116369 -0.021653
   vertex -0.03636 0.119176 -0.022146
   vertex -0.034183 0.125561 -0.019979
  endloop
 endfacet
 facet normal -0.374117 -0.74662 -0.550087
  outer loop
   vertex -0.037371 0.11604 -0.017202
   vertex -0.03636 0.119176 -0.022146
   vertex -0.031483 0.116369 -0.021653
  endloop
 endfacet
 facet normal -0.105063 -0.971863 -0.210819
  outer loop
   vertex -0.037371 0.11604 -0.017202
   vertex -0.031483 0.116369 -0.021653
   vertex -0.031529 0.114831 -0.01454
  endloop
 endfacet
 facet normal -0.443298 -0.241197 0.863314
  outer loop
   vertex -0.03865 0.12003 -0.016744
   vertex -0.037371 0.11604 -0.017202
   vertex -0.031529 0.114831 -0.01454
  endloop
 endfacet
 facet normal -0.318213 -0.0342226 0.947401
  outer loop
   vertex -0.031322 0.120187 -0.014277
   vertex -0.03865 0.12003 -0.016744
   vertex -0.031529 0.114831 -0.01454
  endloop
 endfacet
 facet normal -0.508894 -0.0236795 0.860504
  outer loop
   vertex -0.031529 0.114831 -0.01454
   vertex -0.028895 0.114187 -0.013
   vertex -0.026839 0.119787 -0.01163
  endloop
 endfacet
 facet normal -0.509799 -0.0225264 0.859999
  outer loop
   vertex -0.031322 0.120187 -0.014277
   vertex -0.031529 0.114831 -0.01454
   vertex -0.026839 0.119787 -0.01163
  endloop
 endfacet
 facet normal -0.791493 0.145361 0.593641
  outer loop
   vertex -0.026839 0.119787 -0.01163
   vertex -0.028895 0.114187 -0.013
   vertex -0.027384 0.112854 -0.010659
  endloop
 endfacet
 facet normal -0.717531 0.160603 0.677758
  outer loop
   vertex -0.025977 0.108225 -0.008498
   vertex -0.028895 0.114187 -0.013
   vertex -0.027504 0.103804 -0.009067
  endloop
 endfacet
 facet normal -0.840963 -0.00301412 0.541084
  outer loop
   vertex -0.027384 0.112854 -0.010659
   vertex -0.028895 0.114187 -0.013
   vertex -0.025977 0.108225 -0.008498
  endloop
 endfacet
 facet normal -0.811801 0.415899 -0.409886
  outer loop
   vertex -0.03865 0.12003 -0.016744
   vertex -0.034183 0.125561 -0.019979
   vertex -0.03636 0.119176 -0.022146
  endloop
 endfacet
 facet normal 0.392381 0.0915662 -0.915234
  outer loop
   vertex -0.014106 0.1007 -0.012299
   vertex -0.014343 0.088052 -0.013666
   vertex -0.025447 0.097303 -0.017501
  endloop
 endfacet
 facet normal 0.975282 -0.0417273 0.216989
  outer loop
   vertex -0.015487 0.096732 -0.006855
   vertex -0.014343 0.088052 -0.013666
   vertex -0.014106 0.1007 -0.012299
  endloop
 endfacet
 facet normal 0.39393 0.0937942 -0.914342
  outer loop
   vertex -0.014343 0.088052 -0.013666
   vertex -0.023212 0.090324 -0.017254
   vertex -0.025447 0.097303 -0.017501
  endloop
 endfacet
 facet normal -0.73553 -0.384415 -0.557871
  outer loop
   vertex -0.024872 0.113514 -0.032981
   vertex -0.028265 0.120678 -0.033444
   vertex -0.024013 0.116494 -0.036167
  endloop
 endfacet
 facet normal 0.748014 -0.136102 0.649578
  outer loop
   vertex -0.017339 0.093283 -0.005445
   vertex -0.015487 0.096732 -0.006855
   vertex -0.020457 0.102134 0
  endloop
 endfacet
 facet normal 0.842516 -0.259403 0.472098
  outer loop
   vertex -0.017339 0.093283 -0.005445
   vertex -0.014343 0.088052 -0.013666
   vertex -0.015487 0.096732 -0.006855
  endloop
 endfacet
 facet normal 0.782387 -0.10231 0.614331
  outer loop
   vertex -0.021313 0.095588 0
   vertex -0.017339 0.093283 -0.005445
   vertex -0.020457 0.102134 0
  endloop
 endfacet
 facet normal 0.748014 -0.136102 -0.649578
  outer loop
   vertex -0.020457 0.102134 0
   vertex -0.015487 0.096732 0.006855
   vertex -0.017339 0.093283 0.005445
  endloop
 endfacet
 facet normal 0.782387 -0.10231 -0.614331
  outer loop
   vertex -0.020457 0.102134 0
   vertex -0.017339 0.093283 0.005445
   vertex -0.021313 0.095588 0
  endloop
 endfacet
 facet normal -0.699953 0.188231 -0.688937
  outer loop
   vertex -0.036992 0.10097 0
   vertex -0.030163 0.107837 -0.005062
   vertex -0.032547 0.101856 -0.004274
  endloop
 endfacet
 facet normal -0.635404 0.153566 -0.756756
  outer loop
   vertex -0.030163 0.107837 -0.005062
   vertex -0.025977 0.108225 -0.008498
   vertex -0.032547 0.101856 -0.004274
  endloop
 endfacet
 facet normal -0.406521 0.492651 -0.769438
  outer loop
   vertex -0.034345 0.096657 -0.00416
   vertex -0.045017 0.094348 0
   vertex -0.036992 0.10097 0
  endloop
 endfacet
 facet normal -0.698171 0.226561 -0.679138
  outer loop
   vertex -0.032547 0.101856 -0.004274
   vertex -0.034345 0.096657 -0.00416
   vertex -0.036992 0.10097 0
  endloop
 endfacet
 facet normal -0.699953 0.188231 0.688937
  outer loop
   vertex -0.032547 0.101856 0.004274
   vertex -0.030163 0.107837 0.005062
   vertex -0.036992 0.10097 0
  endloop
 endfacet
 facet normal -0.406521 0.492651 0.769438
  outer loop
   vertex -0.036992 0.10097 0
   vertex -0.045017 0.094348 0
   vertex -0.034345 0.096657 0.00416
  endloop
 endfacet
 facet normal -0.698171 0.226561 0.679138
  outer loop
   vertex -0.036992 0.10097 0
   vertex -0.034345 0.096657 0.00416
   vertex -0.032547 0.101856 0.004274
  endloop
 endfacet
 facet normal -0.714373 0.326407 -0.618975
  outer loop
   vertex -0.025977 0.108225 -0.008498
   vertex -0.027504 0.103804 -0.009067
   vertex -0.032547 0.101856 -0.004274
  endloop
 endfacet
 facet normal -0.635404 0.153566 0.756756
  outer loop
   vertex -0.032547 0.101856 0.004274
   vertex -0.025977 0.108225 0.008498
   vertex -0.030163 0.107837 0.005062
  endloop
 endfacet
 facet normal -0.714373 0.326407 0.618975
  outer loop
   vertex -0.032547 0.101856 0.004274
   vertex -0.027504 0.103804 0.009067
   vertex -0.025977 0.108225 0.008498
  endloop
 endfacet
 facet normal -0.717531 0.160603 -0.677758
  outer loop
   vertex -0.027504 0.103804 0.009067
   vertex -0.028895 0.114187 0.013
   vertex -0.025977 0.108225 0.008498
  endloop
 endfacet
 facet normal -0.840963 -0.00301412 -0.541084
  outer loop
   vertex -0.025977 0.108225 0.008498
   vertex -0.028895 0.114187 0.013
   vertex -0.027384 0.112854 0.010659
  endloop
 endfacet
 facet normal -0.791493 0.145361 -0.593641
  outer loop
   vertex -0.027384 0.112854 0.010659
   vertex -0.028895 0.114187 0.013
   vertex -0.026839 0.119787 0.01163
  endloop
 endfacet
 facet normal 0.310229 0.719588 0.62125
  outer loop
   vertex -0.024214 0.122618 0.029174
   vertex -0.028265 0.120678 0.033444
   vertex -0.024013 0.116494 0.036167
  endloop
 endfacet
 facet normal -0.5088 0.808579 0.295504
  outer loop
   vertex -0.024214 0.122618 0.029174
   vertex -0.024292 0.126335 0.018869
   vertex -0.027623 0.123155 0.021835
  endloop
 endfacet
 facet normal 0.0319431 0.663627 0.747382
  outer loop
   vertex -0.034183 0.125561 0.019979
   vertex -0.027623 0.123155 0.021835
   vertex -0.024292 0.126335 0.018869
  endloop
 endfacet
 facet normal 0.233482 0.240176 0.942232
  outer loop
   vertex -0.034183 0.125561 0.019979
   vertex -0.03636 0.119176 0.022146
   vertex -0.031483 0.116369 0.021653
  endloop
 endfacet
 facet normal -0.811801 0.415899 0.409886
  outer loop
   vertex -0.03636 0.119176 0.022146
   vertex -0.034183 0.125561 0.019979
   vertex -0.03865 0.12003 0.016744
  endloop
 endfacet
 facet normal -0.374117 -0.74662 0.550087
  outer loop
   vertex -0.031483 0.116369 0.021653
   vertex -0.03636 0.119176 0.022146
   vertex -0.037371 0.11604 0.017202
  endloop
 endfacet
 facet normal -0.105063 -0.971863 0.210819
  outer loop
   vertex -0.031529 0.114831 0.01454
   vertex -0.031483 0.116369 0.021653
   vertex -0.037371 0.11604 0.017202
  endloop
 endfacet
 facet normal -0.744562 0.344939 0.571527
  outer loop
   vertex -0.025447 0.097303 0.017501
   vertex -0.023154 0.10494 0.015879
   vertex -0.026959 0.10155 0.012968
  endloop
 endfacet
 facet normal -0.602197 -0.249832 0.75825
  outer loop
   vertex -0.026959 0.10155 0.012968
   vertex -0.028403 0.097613 0.010524
   vertex -0.027099 0.092752 0.009958
  endloop
 endfacet
 facet normal -0.892413 -0.133284 0.431085
  outer loop
   vertex -0.026959 0.10155 0.012968
   vertex -0.027099 0.092752 0.009958
   vertex -0.023212 0.090324 0.017254
  endloop
 endfacet
 facet normal -0.951584 -0.305834 0.0308674
  outer loop
   vertex -0.026959 0.10155 0.012968
   vertex -0.023212 0.090324 0.017254
   vertex -0.025447 0.097303 0.017501
  endloop
 endfacet
 facet normal -0.949387 0.195686 0.245704
  outer loop
   vertex -0.028403 0.097613 0.010524
   vertex -0.026959 0.10155 0.012968
   vertex -0.027504 0.103804 0.009067
  endloop
 endfacet
 facet normal -0.987189 -0.151366 0.0504587
  outer loop
   vertex -0.028895 0.114187 0.013
   vertex -0.027504 0.103804 0.009067
   vertex -0.026959 0.10155 0.012968
  endloop
 endfacet
 facet normal -0.443298 -0.241197 -0.863314
  outer loop
   vertex -0.031529 0.114831 0.01454
   vertex -0.037371 0.11604 0.017202
   vertex -0.03865 0.12003 0.016744
  endloop
 endfacet
 facet normal -0.318213 -0.0342226 -0.947401
  outer loop
   vertex -0.031529 0.114831 0.01454
   vertex -0.03865 0.12003 0.016744
   vertex -0.031322 0.120187 0.014277
  endloop
 endfacet
 facet normal -0.508894 -0.0236795 -0.860504
  outer loop
   vertex -0.026839 0.119787 0.01163
   vertex -0.028895 0.114187 0.013
   vertex -0.031529 0.114831 0.01454
  endloop
 endfacet
 facet normal -0.509799 -0.0225264 -0.859999
  outer loop
   vertex -0.026839 0.119787 0.01163
   vertex -0.031529 0.114831 0.01454
   vertex -0.031322 0.120187 0.014277
  endloop
 endfacet
 facet normal 0.392381 0.0915662 0.915234
  outer loop
   vertex -0.025447 0.097303 0.017501
   vertex -0.014343 0.088052 0.013666
   vertex -0.014106 0.1007 0.012299
  endloop
 endfacet
 facet normal 0.975282 -0.0417273 -0.216989
  outer loop
   vertex -0.014106 0.1007 0.012299
   vertex -0.014343 0.088052 0.013666
   vertex -0.015487 0.096732 0.006855
  endloop
 endfacet
 facet normal 0.39393 0.0937942 0.914342
  outer loop
   vertex -0.025447 0.097303 0.017501
   vertex -0.023212 0.090324 0.017254
   vertex -0.014343 0.088052 0.013666
  endloop
 endfacet
 facet normal -0.73553 -0.384415 0.557871
  outer loop
   vertex -0.024013 0.116494 0.036167
   vertex -0.028265 0.120678 0.033444
   vertex -0.024872 0.113514 0.032981
  endloop
 endfacet
 facet normal 0.842516 -0.259403 -0.472098
  outer loop
   vertex -0.015487 0.096732 0.006855
   vertex -0.014343 0.088052 0.013666
   vertex -0.017339 0.093283 0.005445
  endloop
 endfacet
 facet normal -0.904917 -0.250586 -0.343995
  outer loop
   vertex -0.037371 0.11604 -0.017202
   vertex -0.03865 0.12003 -0.016744
   vertex -0.03636 0.119176 -0.022146
  endloop
 endfacet
 facet normal -0.904917 -0.250586 0.343995
  outer loop
   vertex -0.03636 0.119176 0.022146
   vertex -0.03865 0.12003 0.016744
   vertex -0.037371 0.11604 0.017202
  endloop
 endfacet
 facet normal -0.642776 -0.256479 -0.721843
  outer loop
   vertex -0.028403 0.097613 -0.010524
   vertex -0.027099 0.092752 -0.009958
   vertex -0.033119 0.092036 -0.004343
  endloop
 endfacet
 facet normal -0.098924 -0.913807 -0.393917
  outer loop
   vertex -0.027099 0.092752 -0.009958
   vertex -0.022416 0.091326 -0.007826
   vertex -0.027887 0.090741 -0.005095
  endloop
 endfacet
 facet normal -0.274112 -0.872212 -0.405104
  outer loop
   vertex -0.033119 0.092036 -0.004343
   vertex -0.027099 0.092752 -0.009958
   vertex -0.027887 0.090741 -0.005095
  endloop
 endfacet
 facet normal -0.341703 -0.931077 0.127804
  outer loop
   vertex -0.027099 0.092752 -0.009958
   vertex -0.023212 0.090324 -0.017254
   vertex -0.022416 0.091326 -0.007826
  endloop
 endfacet
 facet normal -0.725486 0.255723 -0.638964
  outer loop
   vertex -0.027504 0.103804 -0.009067
   vertex -0.028403 0.097613 -0.010524
   vertex -0.034345 0.096657 -0.00416
  endloop
 endfacet
 facet normal -0.709214 -0.160981 -0.686368
  outer loop
   vertex -0.034345 0.096657 -0.00416
   vertex -0.028403 0.097613 -0.010524
   vertex -0.033119 0.092036 -0.004343
  endloop
 endfacet
 facet normal -0.293541 -0.947673 0.125501
  outer loop
   vertex -0.023212 0.090324 -0.017254
   vertex -0.014343 0.088052 -0.013666
   vertex -0.022416 0.091326 -0.007826
  endloop
 endfacet
 facet normal -0.715731 0.23309 -0.65833
  outer loop
   vertex -0.032547 0.101856 -0.004274
   vertex -0.027504 0.103804 -0.009067
   vertex -0.034345 0.096657 -0.00416
  endloop
 endfacet
 facet normal 0.0618358 -0.831713 0.551752
  outer loop
   vertex -0.022416 0.091326 -0.007826
   vertex -0.014343 0.088052 -0.013666
   vertex -0.017339 0.093283 -0.005445
  endloop
 endfacet
 facet normal 0.234084 -0.934318 0.268802
  outer loop
   vertex -0.027887 0.090741 -0.005095
   vertex -0.022416 0.091326 -0.007826
   vertex -0.017339 0.093283 -0.005445
  endloop
 endfacet
 facet normal 0.137754 -0.671818 -0.727795
  outer loop
   vertex -0.026119 0.085584 0
   vertex -0.027887 0.090741 -0.005095
   vertex -0.017339 0.093283 -0.005445
  endloop
 endfacet
 facet normal 0.68979 -0.331381 0.643721
  outer loop
   vertex -0.026119 0.085584 0
   vertex -0.017339 0.093283 -0.005445
   vertex -0.021313 0.095588 0
  endloop
 endfacet
 facet normal 0.68979 -0.331381 -0.643721
  outer loop
   vertex -0.021313 0.095588 0
   vertex -0.017339 0.093283 0.005445
   vertex -0.026119 0.085584 0
  endloop
 endfacet
 facet normal 0.0618358 -0.831713 -0.551752
  outer loop
   vertex -0.017339 0.093283 0.005445
   vertex -0.014343 0.088052 0.013666
   vertex -0.022416 0.091326 0.007826
  endloop
 endfacet
 facet normal 0.234084 -0.934318 -0.268802
  outer loop
   vertex -0.017339 0.093283 0.005445
   vertex -0.022416 0.091326 0.007826
   vertex -0.027887 0.090741 0.005095
  endloop
 endfacet
 facet normal 0.137754 -0.671818 0.727795
  outer loop
   vertex -0.017339 0.093283 0.005445
   vertex -0.027887 0.090741 0.005095
   vertex -0.026119 0.085584 0
  endloop
 endfacet
 facet normal -0.351995 -0.0563881 -0.934302
  outer loop
   vertex -0.034345 0.096657 -0.00416
   vertex -0.033119 0.092036 -0.004343
   vertex -0.045017 0.094348 0
  endloop
 endfacet
 facet normal -0.338139 0.0269582 -0.94071
  outer loop
   vertex -0.033119 0.092036 -0.004343
   vertex -0.04547 0.088666 0
   vertex -0.045017 0.094348 0
  endloop
 endfacet
 facet normal -0.338139 0.0269582 0.94071
  outer loop
   vertex -0.045017 0.094348 0
   vertex -0.04547 0.088666 0
   vertex -0.033119 0.092036 0.004343
  endloop
 endfacet
 facet normal -0.351995 -0.0563881 0.934302
  outer loop
   vertex -0.045017 0.094348 0
   vertex -0.033119 0.092036 0.004343
   vertex -0.034345 0.096657 0.00416
  endloop
 endfacet
 facet normal -0.715731 0.23309 0.65833
  outer loop
   vertex -0.034345 0.096657 0.00416
   vertex -0.027504 0.103804 0.009067
   vertex -0.032547 0.101856 0.004274
  endloop
 endfacet
 facet normal -0.725486 0.255723 0.638964
  outer loop
   vertex -0.034345 0.096657 0.00416
   vertex -0.028403 0.097613 0.010524
   vertex -0.027504 0.103804 0.009067
  endloop
 endfacet
 facet normal -0.709214 -0.160981 0.686368
  outer loop
   vertex -0.033119 0.092036 0.004343
   vertex -0.028403 0.097613 0.010524
   vertex -0.034345 0.096657 0.00416
  endloop
 endfacet
 facet normal -0.642776 -0.256479 0.721843
  outer loop
   vertex -0.033119 0.092036 0.004343
   vertex -0.027099 0.092752 0.009958
   vertex -0.028403 0.097613 0.010524
  endloop
 endfacet
 facet normal -0.098924 -0.913807 0.393917
  outer loop
   vertex -0.027887 0.090741 0.005095
   vertex -0.022416 0.091326 0.007826
   vertex -0.027099 0.092752 0.009958
  endloop
 endfacet
 facet normal -0.274112 -0.872212 0.405104
  outer loop
   vertex -0.027887 0.090741 0.005095
   vertex -0.027099 0.092752 0.009958
   vertex -0.033119 0.092036 0.004343
  endloop
 endfacet
 facet normal -0.341703 -0.931077 -0.127804
  outer loop
   vertex -0.022416 0.091326 0.007826
   vertex -0.023212 0.090324 0.017254
   vertex -0.027099 0.092752 0.009958
  endloop
 endfacet
 facet normal -0.293541 -0.947673 -0.125501
  outer loop
   vertex -0.022416 0.091326 0.007826
   vertex -0.014343 0.088052 0.013666
   vertex -0.023212 0.090324 0.017254
  endloop
 endfacet
 facet normal -0.386449 0.286541 -0.876671
  outer loop
   vertex -0.033119 0.092036 -0.004343
   vertex -0.035628 0.087459 -0.004733
   vertex -0.04547 0.088666 0
  endloop
 endfacet
 facet normal -0.133082 0.0374464 -0.990397
  outer loop
   vertex -0.033119 0.092036 -0.004343
   vertex -0.027887 0.090741 -0.005095
   vertex -0.031718 0.086277 -0.004749
  endloop
 endfacet
 facet normal 0.0185313 0.0747969 -0.997027
  outer loop
   vertex -0.035628 0.087459 -0.004733
   vertex -0.033119 0.092036 -0.004343
   vertex -0.031718 0.086277 -0.004749
  endloop
 endfacet
 facet normal 0.672999 -0.390114 -0.628397
  outer loop
   vertex -0.027887 0.090741 -0.005095
   vertex -0.026119 0.085584 0
   vertex -0.031758 0.081795 -0.003687
  endloop
 endfacet
 facet normal 0.179638 -0.228331 -0.956867
  outer loop
   vertex -0.031718 0.086277 -0.004749
   vertex -0.027887 0.090741 -0.005095
   vertex -0.031758 0.081795 -0.003687
  endloop
 endfacet
 facet normal 0.581442 -0.81172 -0.0550972
  outer loop
   vertex -0.033324 0.080423 0
   vertex -0.031758 0.081795 -0.003687
   vertex -0.026119 0.085584 0
  endloop
 endfacet
 facet normal 0.581442 -0.81172 0.0550972
  outer loop
   vertex -0.026119 0.085584 0
   vertex -0.031758 0.081795 0.003687
   vertex -0.033324 0.080423 0
  endloop
 endfacet
 facet normal 0.672999 -0.390114 0.628397
  outer loop
   vertex -0.031758 0.081795 0.003687
   vertex -0.026119 0.085584 0
   vertex -0.027887 0.090741 0.005095
  endloop
 endfacet
 facet normal -0.133082 0.0374464 0.990397
  outer loop
   vertex -0.031718 0.086277 0.004749
   vertex -0.027887 0.090741 0.005095
   vertex -0.033119 0.092036 0.004343
  endloop
 endfacet
 facet normal 0.179638 -0.228331 0.956867
  outer loop
   vertex -0.031758 0.081795 0.003687
   vertex -0.027887 0.090741 0.005095
   vertex -0.031718 0.086277 0.004749
  endloop
 endfacet
 facet normal -0.283126 0.606082 -0.743306
  outer loop
   vertex -0.035628 0.087459 -0.004733
   vertex -0.04203 0.084396 -0.004792
   vertex -0.04547 0.088666 0
  endloop
 endfacet
 facet normal -0.869198 -0.433675 -0.237531
  outer loop
   vertex -0.04547 0.088666 0
   vertex -0.04203 0.084396 -0.004792
   vertex -0.04242 0.082553 0
  endloop
 endfacet
 facet normal -0.283126 0.606082 0.743306
  outer loop
   vertex -0.04547 0.088666 0
   vertex -0.04203 0.084396 0.004792
   vertex -0.035628 0.087459 0.004733
  endloop
 endfacet
 facet normal -0.386449 0.286541 0.876671
  outer loop
   vertex -0.04547 0.088666 0
   vertex -0.035628 0.087459 0.004733
   vertex -0.033119 0.092036 0.004343
  endloop
 endfacet
 facet normal -0.869198 -0.433675 0.237531
  outer loop
   vertex -0.04242 0.082553 0
   vertex -0.04203 0.084396 0.004792
   vertex -0.04547 0.088666 0
  endloop
 endfacet
 facet normal 0.0185313 0.0747969 0.997027
  outer loop
   vertex -0.031718 0.086277 0.004749
   vertex -0.033119 0.092036 0.004343
   vertex -0.035628 0.087459 0.004733
  endloop
 endfacet
 facet normal -0.0732967 -0.229324 -0.970586
  outer loop
   vertex -0.035628 0.087459 -0.004733
   vertex -0.031718 0.086277 -0.004749
   vertex -0.031758 0.081795 -0.003687
  endloop
 endfacet
 facet normal 0.249761 -0.00816373 -0.968273
  outer loop
   vertex -0.039127 0.081345 -0.005584
   vertex -0.035628 0.087459 -0.004733
   vertex -0.031758 0.081795 -0.003687
  endloop
 endfacet
 facet normal -0.077469 0.180805 -0.980463
  outer loop
   vertex -0.035628 0.087459 -0.004733
   vertex -0.039127 0.081345 -0.005584
   vertex -0.04203 0.084396 -0.004792
  endloop
 endfacet
 facet normal 0.133768 -0.94602 -0.295216
  outer loop
   vertex -0.039127 0.081345 -0.005584
   vertex -0.031758 0.081795 -0.003687
   vertex -0.033324 0.080423 0
  endloop
 endfacet
 facet normal 0.146339 -0.940283 -0.307333
  outer loop
   vertex -0.037539 0.079767 0
   vertex -0.039127 0.081345 -0.005584
   vertex -0.033324 0.080423 0
  endloop
 endfacet
 facet normal 0.133768 -0.94602 0.295216
  outer loop
   vertex -0.033324 0.080423 0
   vertex -0.031758 0.081795 0.003687
   vertex -0.039127 0.081345 0.005584
  endloop
 endfacet
 facet normal 0.146339 -0.940283 0.307333
  outer loop
   vertex -0.033324 0.080423 0
   vertex -0.039127 0.081345 0.005584
   vertex -0.037539 0.079767 0
  endloop
 endfacet
 facet normal -0.0732967 -0.229324 0.970586
  outer loop
   vertex -0.031758 0.081795 0.003687
   vertex -0.031718 0.086277 0.004749
   vertex -0.035628 0.087459 0.004733
  endloop
 endfacet
 facet normal 0.249761 -0.00816373 0.968273
  outer loop
   vertex -0.031758 0.081795 0.003687
   vertex -0.035628 0.087459 0.004733
   vertex -0.039127 0.081345 0.005584
  endloop
 endfacet
 facet normal -0.723065 -0.690701 0.0104411
  outer loop
   vertex -0.04203 0.084396 -0.004792
   vertex -0.039127 0.081345 -0.005584
   vertex -0.037539 0.079767 0
  endloop
 endfacet
 facet normal -0.464251 -0.813357 -0.3506
  outer loop
   vertex -0.04242 0.082553 0
   vertex -0.04203 0.084396 -0.004792
   vertex -0.037539 0.079767 0
  endloop
 endfacet
 facet normal -0.464251 -0.813357 0.3506
  outer loop
   vertex -0.037539 0.079767 0
   vertex -0.04203 0.084396 0.004792
   vertex -0.04242 0.082553 0
  endloop
 endfacet
 facet normal -0.723065 -0.690701 -0.0104411
  outer loop
   vertex -0.037539 0.079767 0
   vertex -0.039127 0.081345 0.005584
   vertex -0.04203 0.084396 0.004792
  endloop
 endfacet
 facet normal -0.077469 0.180805 0.980463
  outer loop
   vertex -0.04203 0.084396 0.004792
   vertex -0.039127 0.081345 0.005584
   vertex -0.035628 0.087459 0.004733
  endloop
 endfacet
endsolid
