solid ascii
 facet normal -0.138335 -0.140566 -0.980359
  outer loop
   vertex 0.158425 0.005231 0.011871
   vertex 0.154651 -3e-06 0.013154
   vertex 0.15259 0.00183 0.013182
  endloop
 endfacet
 facet normal 0.267627 0.588236 -0.763121
  outer loop
   vertex 0.156752 0.006886 0.01256
   vertex 0.158425 0.005231 0.011871
   vertex 0.154954 0.007189 0.012163
  endloop
 endfacet
 facet normal 0.102313 0.468704 -0.87741
  outer loop
   vertex 0.156752 0.006886 0.01256
   vertex 0.159524 0.006221 0.012528
   vertex 0.158425 0.005231 0.011871
  endloop
 endfacet
 facet normal 0.457415 0.096174 -0.884038
  outer loop
   vertex 0.159378 -0.003006 0.011468
   vertex 0.158425 0.005231 0.011871
   vertex 0.161416 0.004334 0.013321
  endloop
 endfacet
 facet normal -0.150385 -0.12025 -0.981287
  outer loop
   vertex 0.158425 0.005231 0.011871
   vertex 0.15259 0.00183 0.013182
   vertex 0.154954 0.007189 0.012163
  endloop
 endfacet
 facet normal -0.331535 0.00779895 -0.943411
  outer loop
   vertex 0.158425 0.005231 0.011871
   vertex 0.159378 -0.003006 0.011468
   vertex 0.154651 -3e-06 0.013154
  endloop
 endfacet
 facet normal 0.454865 0.0834655 -0.88664
  outer loop
   vertex 0.161416 0.004334 0.013321
   vertex 0.158425 0.005231 0.011871
   vertex 0.159524 0.006221 0.012528
  endloop
 endfacet
 facet normal -0.783811 -0.431963 -0.446148
  outer loop
   vertex 0.154651 -3e-06 0.013154
   vertex 0.157024 -0.004061 0.012914
   vertex 0.157298 -0.006345 0.014644
  endloop
 endfacet
 facet normal -0.575707 -0.639533 -0.509469
  outer loop
   vertex 0.154651 -3e-06 0.013154
   vertex 0.152119 0.001263 0.014426
   vertex 0.15259 0.00183 0.013182
  endloop
 endfacet
 facet normal -0.563942 -0.404522 -0.719952
  outer loop
   vertex 0.152119 0.001263 0.014426
   vertex 0.154651 -3e-06 0.013154
   vertex 0.157298 -0.006345 0.014644
  endloop
 endfacet
 facet normal -0.848848 -0.483777 -0.213111
  outer loop
   vertex 0.157024 -0.004061 0.012914
   vertex 0.154651 -3e-06 0.013154
   vertex 0.157656 -0.004888 0.012274
  endloop
 endfacet
 facet normal -0.368822 -0.0597833 -0.927576
  outer loop
   vertex 0.157656 -0.004888 0.012274
   vertex 0.154651 -3e-06 0.013154
   vertex 0.159378 -0.003006 0.011468
  endloop
 endfacet
 facet normal -0.353572 -0.793395 -0.495491
  outer loop
   vertex 0.15259 0.00183 0.013182
   vertex 0.152119 0.001263 0.014426
   vertex 0.144905 0.005128 0.013385
  endloop
 endfacet
 facet normal -0.275305 -0.59504 -0.755072
  outer loop
   vertex 0.144905 0.005128 0.013385
   vertex 0.144916 0.008629 0.010622
   vertex 0.15259 0.00183 0.013182
  endloop
 endfacet
 facet normal 0.114621 -0.234135 -0.965424
  outer loop
   vertex 0.154954 0.007189 0.012163
   vertex 0.15259 0.00183 0.013182
   vertex 0.144916 0.008629 0.010622
  endloop
 endfacet
 facet normal 0.259966 0.378971 -0.888143
  outer loop
   vertex 0.154954 0.007189 0.012163
   vertex 0.14811 0.01108 0.01182
   vertex 0.156752 0.006886 0.01256
  endloop
 endfacet
 facet normal 0.370125 0.644641 -0.668914
  outer loop
   vertex 0.14811 0.01108 0.01182
   vertex 0.159703 0.006441 0.013764
   vertex 0.156752 0.006886 0.01256
  endloop
 endfacet
 facet normal 0.226245 0.952818 -0.202362
  outer loop
   vertex 0.156752 0.006886 0.01256
   vertex 0.159703 0.006441 0.013764
   vertex 0.159524 0.006221 0.012528
  endloop
 endfacet
 facet normal 0.180081 0.232495 -0.955781
  outer loop
   vertex 0.14811 0.01108 0.01182
   vertex 0.154954 0.007189 0.012163
   vertex 0.144916 0.008629 0.010622
  endloop
 endfacet
 facet normal 0.733575 0.64279 -0.220655
  outer loop
   vertex 0.159524 0.006221 0.012528
   vertex 0.159703 0.006441 0.013764
   vertex 0.161416 0.004334 0.013321
  endloop
 endfacet
 facet normal -0.0837126 0.265702 -0.960414
  outer loop
   vertex 0.161416 0.004334 0.013321
   vertex 0.16202 -0.001035 0.011783
   vertex 0.159378 -0.003006 0.011468
  endloop
 endfacet
 facet normal 0.1322 -0.018819 -0.991044
  outer loop
   vertex 0.16202 -0.001035 0.011783
   vertex 0.161052 -0.003938 0.011709
   vertex 0.159378 -0.003006 0.011468
  endloop
 endfacet
 facet normal -0.346405 -0.083211 -0.934387
  outer loop
   vertex 0.158521 -0.005109 0.011973
   vertex 0.157656 -0.004888 0.012274
   vertex 0.159378 -0.003006 0.011468
  endloop
 endfacet
 facet normal 0.00813467 -0.236621 -0.971568
  outer loop
   vertex 0.161052 -0.003938 0.011709
   vertex 0.158521 -0.005109 0.011973
   vertex 0.159378 -0.003006 0.011468
  endloop
 endfacet
 facet normal 0.778685 0.626677 0.0304119
  outer loop
   vertex 0.159703 0.006441 0.013764
   vertex 0.160337 0.005568 0.01552
   vertex 0.161416 0.004334 0.013321
  endloop
 endfacet
 facet normal 0.209938 0.892994 -0.398105
  outer loop
   vertex 0.163361 0.004179 0.013999
   vertex 0.161416 0.004334 0.013321
   vertex 0.160337 0.005568 0.01552
  endloop
 endfacet
 facet normal 0.335416 0.29411 -0.894983
  outer loop
   vertex 0.163361 0.004179 0.013999
   vertex 0.16202 -0.001035 0.011783
   vertex 0.161416 0.004334 0.013321
  endloop
 endfacet
 facet normal -0.0883326 -0.608142 -0.788898
  outer loop
   vertex 0.157298 -0.006345 0.014644
   vertex 0.157024 -0.004061 0.012914
   vertex 0.159352 -0.006524 0.014552
  endloop
 endfacet
 facet normal -0.754189 -0.649769 0.0948582
  outer loop
   vertex 0.157024 -0.004061 0.012914
   vertex 0.157656 -0.004888 0.012274
   vertex 0.159352 -0.006524 0.014552
  endloop
 endfacet
 facet normal -0.70276 -0.342717 0.623437
  outer loop
   vertex 0.158566 -0.002802 0.018021
   vertex 0.157298 -0.006345 0.014644
   vertex 0.158379 -0.00528 0.016448
  endloop
 endfacet
 facet normal -0.768912 -0.274974 0.577203
  outer loop
   vertex 0.157079 -0.000277 0.017243
   vertex 0.157298 -0.006345 0.014644
   vertex 0.158566 -0.002802 0.018021
  endloop
 endfacet
 facet normal -0.542322 -0.347254 0.76505
  outer loop
   vertex 0.157079 -0.000277 0.017243
   vertex 0.152119 0.001263 0.014426
   vertex 0.157298 -0.006345 0.014644
  endloop
 endfacet
 facet normal -0.185741 -0.793391 0.579682
  outer loop
   vertex 0.158379 -0.00528 0.016448
   vertex 0.157298 -0.006345 0.014644
   vertex 0.159661 -0.005651 0.016351
  endloop
 endfacet
 facet normal -0.0580439 -0.894196 0.443896
  outer loop
   vertex 0.159661 -0.005651 0.016351
   vertex 0.157298 -0.006345 0.014644
   vertex 0.159352 -0.006524 0.014552
  endloop
 endfacet
 facet normal -0.284219 -0.283836 0.915782
  outer loop
   vertex 0.152119 0.001263 0.014426
   vertex 0.154986 0.005842 0.016735
   vertex 0.144905 0.005128 0.013385
  endloop
 endfacet
 facet normal -0.516413 -0.655675 0.550824
  outer loop
   vertex 0.152119 0.001263 0.014426
   vertex 0.157079 -0.000277 0.017243
   vertex 0.155391 0.001428 0.01769
  endloop
 endfacet
 facet normal -0.705746 0.0873571 0.703059
  outer loop
   vertex 0.152119 0.001263 0.014426
   vertex 0.155391 0.001428 0.01769
   vertex 0.154986 0.005842 0.016735
  endloop
 endfacet
 facet normal -0.347157 -0.864851 -0.36265
  outer loop
   vertex 0.157656 -0.004888 0.012274
   vertex 0.158521 -0.005109 0.011973
   vertex 0.159352 -0.006524 0.014552
  endloop
 endfacet
 facet normal -0.332781 -0.907576 -0.256052
  outer loop
   vertex 0.126366 0.012172 0.012512
   vertex 0.136089 0.009102 0.010757
   vertex 0.144905 0.005128 0.013385
  endloop
 endfacet
 facet normal -0.0451528 -0.618794 -0.784254
  outer loop
   vertex 0.136089 0.009102 0.010757
   vertex 0.144916 0.008629 0.010622
   vertex 0.144905 0.005128 0.013385
  endloop
 endfacet
 facet normal -0.298502 -0.181603 0.936972
  outer loop
   vertex 0.144905 0.005128 0.013385
   vertex 0.154986 0.005842 0.016735
   vertex 0.135072 0.017261 0.012604
  endloop
 endfacet
 facet normal -0.0326613 0.0378196 0.998751
  outer loop
   vertex 0.135072 0.017261 0.012604
   vertex 0.126366 0.012172 0.012512
   vertex 0.144905 0.005128 0.013385
  endloop
 endfacet
 facet normal -0.0374223 -0.442661 -0.895908
  outer loop
   vertex 0.144916 0.008629 0.010622
   vertex 0.136089 0.009102 0.010757
   vertex 0.130398 0.013467 0.008838
  endloop
 endfacet
 facet normal 0.236744 0.159898 -0.958324
  outer loop
   vertex 0.144916 0.008629 0.010622
   vertex 0.131657 0.017628 0.008848
   vertex 0.14811 0.01108 0.01182
  endloop
 endfacet
 facet normal 0.111597 -0.0313788 -0.993258
  outer loop
   vertex 0.144916 0.008629 0.010622
   vertex 0.130398 0.013467 0.008838
   vertex 0.131657 0.017628 0.008848
  endloop
 endfacet
 facet normal 0.394504 0.889882 -0.229077
  outer loop
   vertex 0.14811 0.01108 0.01182
   vertex 0.153476 0.00939 0.014496
   vertex 0.159703 0.006441 0.013764
  endloop
 endfacet
 facet normal 0.424443 0.903274 -0.0628098
  outer loop
   vertex 0.122034 0.02314 0.009045
   vertex 0.135072 0.017261 0.012604
   vertex 0.14811 0.01108 0.01182
  endloop
 endfacet
 facet normal 0.402341 0.880488 -0.250724
  outer loop
   vertex 0.135072 0.017261 0.012604
   vertex 0.153476 0.00939 0.014496
   vertex 0.14811 0.01108 0.01182
  endloop
 endfacet
 facet normal 0.386348 0.696123 -0.605102
  outer loop
   vertex 0.14811 0.01108 0.01182
   vertex 0.131657 0.017628 0.008848
   vertex 0.122034 0.02314 0.009045
  endloop
 endfacet
 facet normal 0.438053 0.882548 0.170934
  outer loop
   vertex 0.153476 0.00939 0.014496
   vertex 0.157084 0.007267 0.016211
   vertex 0.159703 0.006441 0.013764
  endloop
 endfacet
 facet normal 0.489 0.838525 0.240322
  outer loop
   vertex 0.159703 0.006441 0.013764
   vertex 0.157084 0.007267 0.016211
   vertex 0.160337 0.005568 0.01552
  endloop
 endfacet
 facet normal 0.72152 -0.237394 -0.650425
  outer loop
   vertex 0.161514 -0.005247 0.012759
   vertex 0.16202 -0.001035 0.011783
   vertex 0.164472 -7.6e-05 0.014153
  endloop
 endfacet
 facet normal 0.657737 0.144986 -0.739162
  outer loop
   vertex 0.16202 -0.001035 0.011783
   vertex 0.163361 0.004179 0.013999
   vertex 0.164472 -7.6e-05 0.014153
  endloop
 endfacet
 facet normal 0.748411 -0.233733 -0.620685
  outer loop
   vertex 0.161052 -0.003938 0.011709
   vertex 0.16202 -0.001035 0.011783
   vertex 0.161514 -0.005247 0.012759
  endloop
 endfacet
 facet normal 0.0991951 -0.417986 -0.903022
  outer loop
   vertex 0.160784 -0.005879 0.012578
   vertex 0.158521 -0.005109 0.011973
   vertex 0.161052 -0.003938 0.011709
  endloop
 endfacet
 facet normal 0.534966 -0.405665 -0.741112
  outer loop
   vertex 0.161052 -0.003938 0.011709
   vertex 0.161514 -0.005247 0.012759
   vertex 0.160784 -0.005879 0.012578
  endloop
 endfacet
 facet normal -0.187543 -0.885385 -0.425347
  outer loop
   vertex 0.159352 -0.006524 0.014552
   vertex 0.158521 -0.005109 0.011973
   vertex 0.160784 -0.005879 0.012578
  endloop
 endfacet
 facet normal 0.442982 0.565075 0.69603
  outer loop
   vertex 0.160337 0.005568 0.01552
   vertex 0.157084 0.007267 0.016211
   vertex 0.159511 0.004193 0.017162
  endloop
 endfacet
 facet normal 0.219703 0.690727 0.688931
  outer loop
   vertex 0.160337 0.005568 0.01552
   vertex 0.159511 0.004193 0.017162
   vertex 0.162434 0.0049 0.015521
  endloop
 endfacet
 facet normal 0.293404 0.920674 -0.257437
  outer loop
   vertex 0.163361 0.004179 0.013999
   vertex 0.160337 0.005568 0.01552
   vertex 0.162434 0.0049 0.015521
  endloop
 endfacet
 facet normal 0.845097 0.437271 0.307578
  outer loop
   vertex 0.162434 0.0049 0.015521
   vertex 0.164246 0.000587 0.016674
   vertex 0.163361 0.004179 0.013999
  endloop
 endfacet
 facet normal 0.967188 0.253265 0.0201014
  outer loop
   vertex 0.164472 -7.6e-05 0.014153
   vertex 0.163361 0.004179 0.013999
   vertex 0.164246 0.000587 0.016674
  endloop
 endfacet
 facet normal 0.488015 -0.870045 0.0697366
  outer loop
   vertex 0.160784 -0.005879 0.012578
   vertex 0.160769 -0.005627 0.015827
   vertex 0.159352 -0.006524 0.014552
  endloop
 endfacet
 facet normal 0.207572 -0.8936 0.397985
  outer loop
   vertex 0.160769 -0.005627 0.015827
   vertex 0.159661 -0.005651 0.016351
   vertex 0.159352 -0.006524 0.014552
  endloop
 endfacet
 facet normal 0.0496685 0.0834042 0.995277
  outer loop
   vertex 0.163198 -0.001527 0.017683
   vertex 0.161875 0.004058 0.017281
   vertex 0.158566 -0.002802 0.018021
  endloop
 endfacet
 facet normal -0.245133 0.150724 0.957701
  outer loop
   vertex 0.159511 0.004193 0.017162
   vertex 0.157079 -0.000277 0.017243
   vertex 0.158566 -0.002802 0.018021
  endloop
 endfacet
 facet normal 0.150332 -0.296089 0.943256
  outer loop
   vertex 0.163198 -0.001527 0.017683
   vertex 0.158566 -0.002802 0.018021
   vertex 0.161404 -0.004413 0.017063
  endloop
 endfacet
 facet normal -0.0426036 0.127444 0.99093
  outer loop
   vertex 0.158566 -0.002802 0.018021
   vertex 0.161875 0.004058 0.017281
   vertex 0.159511 0.004193 0.017162
  endloop
 endfacet
 facet normal -0.0892284 -0.528981 0.84393
  outer loop
   vertex 0.158566 -0.002802 0.018021
   vertex 0.158379 -0.00528 0.016448
   vertex 0.159661 -0.005651 0.016351
  endloop
 endfacet
 facet normal 0.00532436 -0.504165 0.863591
  outer loop
   vertex 0.161404 -0.004413 0.017063
   vertex 0.158566 -0.002802 0.018021
   vertex 0.159661 -0.005651 0.016351
  endloop
 endfacet
 facet normal 0.179159 -0.0797068 0.980586
  outer loop
   vertex 0.157079 -0.000277 0.017243
   vertex 0.159511 0.004193 0.017162
   vertex 0.155391 0.001428 0.01769
  endloop
 endfacet
 facet normal 0.294548 -0.753063 0.588335
  outer loop
   vertex 0.160769 -0.005627 0.015827
   vertex 0.161404 -0.004413 0.017063
   vertex 0.159661 -0.005651 0.016351
  endloop
 endfacet
 facet normal -0.119579 0.492955 0.861798
  outer loop
   vertex 0.153476 0.00939 0.014496
   vertex 0.154986 0.005842 0.016735
   vertex 0.157084 0.007267 0.016211
  endloop
 endfacet
 facet normal 0.163689 0.575364 0.80135
  outer loop
   vertex 0.154986 0.005842 0.016735
   vertex 0.153476 0.00939 0.014496
   vertex 0.135072 0.017261 0.012604
  endloop
 endfacet
 facet normal -0.370216 0.163864 0.914379
  outer loop
   vertex 0.157345 0.005692 0.017717
   vertex 0.154986 0.005842 0.016735
   vertex 0.155391 0.001428 0.01769
  endloop
 endfacet
 facet normal -0.258398 0.644916 0.719245
  outer loop
   vertex 0.157345 0.005692 0.017717
   vertex 0.157084 0.007267 0.016211
   vertex 0.154986 0.005842 0.016735
  endloop
 endfacet
 facet normal 0.187013 -0.0918929 0.97805
  outer loop
   vertex 0.159511 0.004193 0.017162
   vertex 0.157345 0.005692 0.017717
   vertex 0.155391 0.001428 0.01769
  endloop
 endfacet
 facet normal -0.167705 -0.984925 -0.0424071
  outer loop
   vertex 0.109687 0.01519 0.008377
   vertex 0.110775 0.015125 0.005584
   vertex 0.126366 0.012172 0.012512
  endloop
 endfacet
 facet normal -0.335899 -0.710026 -0.618898
  outer loop
   vertex 0.130398 0.013467 0.008838
   vertex 0.136089 0.009102 0.010757
   vertex 0.126366 0.012172 0.012512
  endloop
 endfacet
 facet normal -0.0206147 -0.935619 -0.352408
  outer loop
   vertex 0.110775 0.015125 0.005584
   vertex 0.130398 0.013467 0.008838
   vertex 0.126366 0.012172 0.012512
  endloop
 endfacet
 facet normal 0.0522862 -0.107397 0.99284
  outer loop
   vertex 0.126366 0.012172 0.012512
   vertex 0.135072 0.017261 0.012604
   vertex 0.103577 0.023523 0.01494
  endloop
 endfacet
 facet normal -0.287486 -0.713783 0.638643
  outer loop
   vertex 0.109687 0.01519 0.008377
   vertex 0.126366 0.012172 0.012512
   vertex 0.103577 0.023523 0.01494
  endloop
 endfacet
 facet normal 0.176407 0.594629 0.784409
  outer loop
   vertex 0.111547 0.028096 0.009681
   vertex 0.103577 0.023523 0.01494
   vertex 0.135072 0.017261 0.012604
  endloop
 endfacet
 facet normal 0.423624 0.903933 -0.0587207
  outer loop
   vertex 0.111547 0.028096 0.009681
   vertex 0.135072 0.017261 0.012604
   vertex 0.122034 0.02314 0.009045
  endloop
 endfacet
 facet normal 0.152145 -0.123793 -0.980575
  outer loop
   vertex 0.130398 0.013467 0.008838
   vertex 0.110775 0.015125 0.005584
   vertex 0.110774 0.021825 0.004738
  endloop
 endfacet
 facet normal 0.182593 -0.0528878 -0.981765
  outer loop
   vertex 0.110774 0.021825 0.004738
   vertex 0.131657 0.017628 0.008848
   vertex 0.130398 0.013467 0.008838
  endloop
 endfacet
 facet normal 0.341726 0.621781 -0.704707
  outer loop
   vertex 0.131657 0.017628 0.008848
   vertex 0.105022 0.028422 0.005456
   vertex 0.122034 0.02314 0.009045
  endloop
 endfacet
 facet normal 0.243478 0.312234 -0.918275
  outer loop
   vertex 0.110774 0.021825 0.004738
   vertex 0.105022 0.028422 0.005456
   vertex 0.131657 0.017628 0.008848
  endloop
 endfacet
 facet normal 0.350903 0.804101 -0.479883
  outer loop
   vertex 0.111547 0.028096 0.009681
   vertex 0.122034 0.02314 0.009045
   vertex 0.105022 0.028422 0.005456
  endloop
 endfacet
 facet normal 0.566718 0.616526 0.546559
  outer loop
   vertex 0.157084 0.007267 0.016211
   vertex 0.157345 0.005692 0.017717
   vertex 0.159511 0.004193 0.017162
  endloop
 endfacet
 facet normal 0.644433 -0.762136 0.0620894
  outer loop
   vertex 0.161514 -0.005247 0.012759
   vertex 0.160769 -0.005627 0.015827
   vertex 0.160784 -0.005879 0.012578
  endloop
 endfacet
 facet normal 0.680807 -0.728605 0.0750752
  outer loop
   vertex 0.160769 -0.005627 0.015827
   vertex 0.161514 -0.005247 0.012759
   vertex 0.162286 -0.004158 0.016327
  endloop
 endfacet
 facet normal 0.871906 -0.488062 -0.0396891
  outer loop
   vertex 0.162286 -0.004158 0.016327
   vertex 0.161514 -0.005247 0.012759
   vertex 0.164472 -7.6e-05 0.014153
  endloop
 endfacet
 facet normal 0.903903 -0.386735 0.182742
  outer loop
   vertex 0.164472 -7.6e-05 0.014153
   vertex 0.164246 0.000587 0.016674
   vertex 0.162286 -0.004158 0.016327
  endloop
 endfacet
 facet normal 0.0291912 0.898057 0.43891
  outer loop
   vertex 0.161875 0.004058 0.017281
   vertex 0.162434 0.0049 0.015521
   vertex 0.159511 0.004193 0.017162
  endloop
 endfacet
 facet normal 0.769465 0.445594 0.45757
  outer loop
   vertex 0.164246 0.000587 0.016674
   vertex 0.162434 0.0049 0.015521
   vertex 0.161875 0.004058 0.017281
  endloop
 endfacet
 facet normal 0.476628 0.174917 0.861528
  outer loop
   vertex 0.161875 0.004058 0.017281
   vertex 0.163198 -0.001527 0.017683
   vertex 0.164246 0.000587 0.016674
  endloop
 endfacet
 facet normal 0.911967 -0.386719 0.136983
  outer loop
   vertex 0.164246 0.000587 0.016674
   vertex 0.163198 -0.001527 0.017683
   vertex 0.162286 -0.004158 0.016327
  endloop
 endfacet
 facet normal 0.556772 -0.717456 0.418643
  outer loop
   vertex 0.161404 -0.004413 0.017063
   vertex 0.160769 -0.005627 0.015827
   vertex 0.162286 -0.004158 0.016327
  endloop
 endfacet
 facet normal 0.631642 -0.51679 0.57789
  outer loop
   vertex 0.162286 -0.004158 0.016327
   vertex 0.163198 -0.001527 0.017683
   vertex 0.161404 -0.004413 0.017063
  endloop
 endfacet
 facet normal 0.0467056 -0.99805 0.041421
  outer loop
   vertex 0.110775 0.015125 0.005584
   vertex 0.109687 0.01519 0.008377
   vertex 0.103736 0.014757 0.004654
  endloop
 endfacet
 facet normal -0.295289 -0.772725 0.561873
  outer loop
   vertex 0.109687 0.01519 0.008377
   vertex 0.101407 0.016124 0.00531
   vertex 0.103736 0.014757 0.004654
  endloop
 endfacet
 facet normal -0.189435 -0.689491 0.699083
  outer loop
   vertex 0.103577 0.023523 0.01494
   vertex 0.100468 0.021667 0.012267
   vertex 0.109687 0.01519 0.008377
  endloop
 endfacet
 facet normal -0.297537 -0.765853 0.570036
  outer loop
   vertex 0.109687 0.01519 0.008377
   vertex 0.100468 0.021667 0.012267
   vertex 0.101407 0.016124 0.00531
  endloop
 endfacet
 facet normal 0.136344 -0.124084 -0.98286
  outer loop
   vertex 0.103736 0.014757 0.004654
   vertex 0.110774 0.021825 0.004738
   vertex 0.110775 0.015125 0.005584
  endloop
 endfacet
 facet normal 0.303287 0.442154 0.844108
  outer loop
   vertex 0.103577 0.023523 0.01494
   vertex 0.111547 0.028096 0.009681
   vertex 0.101233 0.026576 0.014183
  endloop
 endfacet
 facet normal -0.426334 -0.265029 0.86487
  outer loop
   vertex 0.103577 0.023523 0.01494
   vertex 0.100569 0.025415 0.014037
   vertex 0.099917 0.024421 0.013411
  endloop
 endfacet
 facet normal -0.26855 0.0325235 0.962717
  outer loop
   vertex 0.100569 0.025415 0.014037
   vertex 0.103577 0.023523 0.01494
   vertex 0.101233 0.026576 0.014183
  endloop
 endfacet
 facet normal -0.435603 -0.418251 0.797068
  outer loop
   vertex 0.100468 0.021667 0.012267
   vertex 0.103577 0.023523 0.01494
   vertex 0.099917 0.024421 0.013411
  endloop
 endfacet
 facet normal 0.316987 0.848331 -0.424092
  outer loop
   vertex 0.104603 0.02894 0.006179
   vertex 0.111547 0.028096 0.009681
   vertex 0.105022 0.028422 0.005456
  endloop
 endfacet
 facet normal 0.221868 0.95209 -0.210476
  outer loop
   vertex 0.111547 0.028096 0.009681
   vertex 0.104603 0.02894 0.006179
   vertex 0.103744 0.029365 0.007196
  endloop
 endfacet
 facet normal 0.104042 0.979337 0.173417
  outer loop
   vertex 0.102434 0.02856 0.012528
   vertex 0.111547 0.028096 0.009681
   vertex 0.103744 0.029365 0.007196
  endloop
 endfacet
 facet normal 0.280155 0.509225 0.813759
  outer loop
   vertex 0.102434 0.02856 0.012528
   vertex 0.101233 0.026576 0.014183
   vertex 0.111547 0.028096 0.009681
  endloop
 endfacet
 facet normal 0.132335 -0.288929 -0.94816
  outer loop
   vertex 0.110774 0.021825 0.004738
   vertex 0.104054 0.019305 0.004568
   vertex 0.103928 0.020514 0.004182
  endloop
 endfacet
 facet normal 0.0332349 -0.0212185 -0.999222
  outer loop
   vertex 0.103736 0.014757 0.004654
   vertex 0.104054 0.019305 0.004568
   vertex 0.110774 0.021825 0.004738
  endloop
 endfacet
 facet normal 0.354136 0.400741 -0.844982
  outer loop
   vertex 0.110774 0.021825 0.004738
   vertex 0.104255 0.026559 0.004251
   vertex 0.105022 0.028422 0.005456
  endloop
 endfacet
 facet normal 0.0796013 0.0070719 -0.996802
  outer loop
   vertex 0.103928 0.020514 0.004182
   vertex 0.104255 0.026559 0.004251
   vertex 0.110774 0.021825 0.004738
  endloop
 endfacet
 facet normal -0.415061 0.608405 -0.676437
  outer loop
   vertex 0.104603 0.02894 0.006179
   vertex 0.105022 0.028422 0.005456
   vertex 0.104255 0.026559 0.004251
  endloop
 endfacet
 facet normal -0.26474 0.000275964 -0.96432
  outer loop
   vertex 0.103736 0.014757 0.004654
   vertex 0.101262 0.017557 0.005334
   vertex 0.104054 0.019305 0.004568
  endloop
 endfacet
 facet normal -0.277617 -0.0120017 -0.960617
  outer loop
   vertex 0.101262 0.017557 0.005334
   vertex 0.103736 0.014757 0.004654
   vertex 0.101407 0.016124 0.00531
  endloop
 endfacet
 facet normal -0.99352 -0.099611 -0.0547317
  outer loop
   vertex 0.100468 0.021667 0.012267
   vertex 0.101262 0.017557 0.005334
   vertex 0.101407 0.016124 0.00531
  endloop
 endfacet
 facet normal -0.967644 0.15235 -0.201135
  outer loop
   vertex 0.100468 0.021667 0.012267
   vertex 0.102864 0.02706 0.004825
   vertex 0.101262 0.017557 0.005334
  endloop
 endfacet
 facet normal -0.940134 -0.0479333 -0.337417
  outer loop
   vertex 0.102864 0.02706 0.004825
   vertex 0.100468 0.021667 0.012267
   vertex 0.099917 0.024421 0.013411
  endloop
 endfacet
 facet normal -0.866026 0.499088 -0.0301575
  outer loop
   vertex 0.101233 0.026576 0.014183
   vertex 0.102434 0.02856 0.012528
   vertex 0.100569 0.025415 0.014037
  endloop
 endfacet
 facet normal -0.803752 0.587272 -0.0953694
  outer loop
   vertex 0.100569 0.025415 0.014037
   vertex 0.102864 0.02706 0.004825
   vertex 0.099917 0.024421 0.013411
  endloop
 endfacet
 facet normal -0.879532 0.455455 -0.137787
  outer loop
   vertex 0.102434 0.02856 0.012528
   vertex 0.102864 0.02706 0.004825
   vertex 0.100569 0.025415 0.014037
  endloop
 endfacet
 facet normal 0.0205938 0.627349 -0.778466
  outer loop
   vertex 0.104603 0.02894 0.006179
   vertex 0.104255 0.026559 0.004251
   vertex 0.103507 0.028837 0.006067
  endloop
 endfacet
 facet normal -0.0428776 0.908425 -0.415843
  outer loop
   vertex 0.104603 0.02894 0.006179
   vertex 0.103507 0.028837 0.006067
   vertex 0.103744 0.029365 0.007196
  endloop
 endfacet
 facet normal -0.800521 0.589553 -0.107669
  outer loop
   vertex 0.103744 0.029365 0.007196
   vertex 0.103507 0.028837 0.006067
   vertex 0.102434 0.02856 0.012528
  endloop
 endfacet
 facet normal -0.899232 0.417257 -0.131449
  outer loop
   vertex 0.102434 0.02856 0.012528
   vertex 0.103507 0.028837 0.006067
   vertex 0.102864 0.02706 0.004825
  endloop
 endfacet
 facet normal -0.0663067 -0.309741 -0.948506
  outer loop
   vertex 0.103928 0.020514 0.004182
   vertex 0.104054 0.019305 0.004568
   vertex 0.101262 0.017557 0.005334
  endloop
 endfacet
 facet normal -0.371803 0.0307026 -0.927804
  outer loop
   vertex 0.104255 0.026559 0.004251
   vertex 0.103928 0.020514 0.004182
   vertex 0.102864 0.02706 0.004825
  endloop
 endfacet
 facet normal -0.416618 0.021554 -0.908826
  outer loop
   vertex 0.103928 0.020514 0.004182
   vertex 0.101262 0.017557 0.005334
   vertex 0.102864 0.02706 0.004825
  endloop
 endfacet
 facet normal -0.113135 0.596374 -0.794694
  outer loop
   vertex 0.104255 0.026559 0.004251
   vertex 0.102864 0.02706 0.004825
   vertex 0.103507 0.028837 0.006067
  endloop
 endfacet
endsolid
