solid ascii
 facet normal 0.425511 0.402836 0.810347
  outer loop
   vertex -0.006546 -0.002115 -0.042555
   vertex -0.005768 0.000668 -0.044347
   vertex -0.006502 0.001389 -0.04432
  endloop
 endfacet
 facet normal 0.400335 0.818303 -0.412447
  outer loop
   vertex -0.008553 0.002092 -0.044916
   vertex -0.006502 0.001389 -0.04432
   vertex -0.005914 -6.7e-05 -0.046638
  endloop
 endfacet
 facet normal 0.354344 0.926513 -0.126547
  outer loop
   vertex -0.006502 0.001389 -0.04432
   vertex -0.008553 0.002092 -0.044916
   vertex -0.007721 0.001925 -0.043809
  endloop
 endfacet
 facet normal 0.495773 0.38571 0.778098
  outer loop
   vertex -0.006502 0.001389 -0.04432
   vertex -0.007721 0.001925 -0.043809
   vertex -0.006546 -0.002115 -0.042555
  endloop
 endfacet
 facet normal 0.670731 0.692748 -0.264992
  outer loop
   vertex -0.005914 -6.7e-05 -0.046638
   vertex -0.006502 0.001389 -0.04432
   vertex -0.005768 0.000668 -0.044347
  endloop
 endfacet
 facet normal 0.871943 0.0684143 0.484804
  outer loop
   vertex -0.005768 0.000668 -0.044347
   vertex -0.006546 -0.002115 -0.042555
   vertex -0.005358 -0.001234 -0.044816
  endloop
 endfacet
 facet normal 0.96052 0.241229 -0.138603
  outer loop
   vertex -0.005914 -6.7e-05 -0.046638
   vertex -0.005768 0.000668 -0.044347
   vertex -0.005358 -0.001234 -0.044816
  endloop
 endfacet
 facet normal 0.574404 -0.272604 0.771846
  outer loop
   vertex -0.007804 -0.003653 -0.042162
   vertex -0.006946 -0.003442 -0.042726
   vertex -0.006546 -0.002115 -0.042555
  endloop
 endfacet
 facet normal 0.160026 0.334779 0.928609
  outer loop
   vertex -0.006546 -0.002115 -0.042555
   vertex -0.007721 0.001925 -0.043809
   vertex -0.009634 -0.003213 -0.041627
  endloop
 endfacet
 facet normal 0.28349 0.0131415 0.958885
  outer loop
   vertex -0.009634 -0.003213 -0.041627
   vertex -0.007804 -0.003653 -0.042162
   vertex -0.006546 -0.002115 -0.042555
  endloop
 endfacet
 facet normal 0.896309 -0.0998609 0.432039
  outer loop
   vertex -0.005733 -0.002428 -0.044314
   vertex -0.005358 -0.001234 -0.044816
   vertex -0.006546 -0.002115 -0.042555
  endloop
 endfacet
 facet normal 0.840597 -0.310569 0.443783
  outer loop
   vertex -0.005733 -0.002428 -0.044314
   vertex -0.006546 -0.002115 -0.042555
   vertex -0.006946 -0.003442 -0.042726
  endloop
 endfacet
 facet normal 0.2152 0.756052 -0.618121
  outer loop
   vertex -0.008553 0.002092 -0.044916
   vertex -0.005914 -6.7e-05 -0.046638
   vertex -0.01207 -0.000671 -0.04952
  endloop
 endfacet
 facet normal 0.1736 0.821593 -0.542999
  outer loop
   vertex -0.009684 -0.001499 -0.05001
   vertex -0.01207 -0.000671 -0.04952
   vertex -0.005914 -6.7e-05 -0.046638
  endloop
 endfacet
 facet normal 0.352085 0.652706 -0.670829
  outer loop
   vertex -0.009684 -0.001499 -0.05001
   vertex -0.005914 -6.7e-05 -0.046638
   vertex -0.006915 -0.002783 -0.049806
  endloop
 endfacet
 facet normal 0.927096 0.0843109 -0.365218
  outer loop
   vertex -0.005914 -6.7e-05 -0.046638
   vertex -0.006239 -0.002887 -0.048114
   vertex -0.006915 -0.002783 -0.049806
  endloop
 endfacet
 facet normal 0.97293 0.00874356 -0.230934
  outer loop
   vertex -0.005914 -6.7e-05 -0.046638
   vertex -0.006028 -0.002146 -0.047197
   vertex -0.006239 -0.002887 -0.048114
  endloop
 endfacet
 facet normal 0.919368 0.0543495 -0.389626
  outer loop
   vertex -0.005528 -0.001779 -0.045966
   vertex -0.006028 -0.002146 -0.047197
   vertex -0.005914 -6.7e-05 -0.046638
  endloop
 endfacet
 facet normal 0.96853 0.136736 -0.207975
  outer loop
   vertex -0.005358 -0.001234 -0.044816
   vertex -0.005528 -0.001779 -0.045966
   vertex -0.005914 -6.7e-05 -0.046638
  endloop
 endfacet
 facet normal -0.0493281 0.981474 0.185138
  outer loop
   vertex -0.007721 0.001925 -0.043809
   vertex -0.008553 0.002092 -0.044916
   vertex -0.011271 0.00165 -0.043297
  endloop
 endfacet
 facet normal 0.0393673 0.945191 0.324135
  outer loop
   vertex -0.01333 0.002197 -0.044642
   vertex -0.011271 0.00165 -0.043297
   vertex -0.008553 0.002092 -0.044916
  endloop
 endfacet
 facet normal -0.0102609 0.860838 -0.508776
  outer loop
   vertex -0.01207 -0.000671 -0.04952
   vertex -0.01333 0.002197 -0.044642
   vertex -0.008553 0.002092 -0.044916
  endloop
 endfacet
 facet normal 0.174721 0.329052 0.928007
  outer loop
   vertex -0.007721 0.001925 -0.043809
   vertex -0.010794 0.000728 -0.042806
   vertex -0.009634 -0.003213 -0.041627
  endloop
 endfacet
 facet normal 0.0851914 0.502313 0.860479
  outer loop
   vertex -0.007721 0.001925 -0.043809
   vertex -0.011271 0.00165 -0.043297
   vertex -0.010794 0.000728 -0.042806
  endloop
 endfacet
 facet normal 0.954149 -0.29933 0.000808157
  outer loop
   vertex -0.005528 -0.001779 -0.045966
   vertex -0.005358 -0.001234 -0.044816
   vertex -0.005733 -0.002428 -0.044314
  endloop
 endfacet
 facet normal 0.478949 -0.756295 0.445675
  outer loop
   vertex -0.007903 -0.00415 -0.042899
   vertex -0.006946 -0.003442 -0.042726
   vertex -0.007804 -0.003653 -0.042162
  endloop
 endfacet
 facet normal 0.544824 -0.798786 0.255163
  outer loop
   vertex -0.007903 -0.00415 -0.042899
   vertex -0.006528 -0.003599 -0.04411
   vertex -0.006946 -0.003442 -0.042726
  endloop
 endfacet
 facet normal 0.812353 -0.49891 0.301945
  outer loop
   vertex -0.006528 -0.003599 -0.04411
   vertex -0.005733 -0.002428 -0.044314
   vertex -0.006946 -0.003442 -0.042726
  endloop
 endfacet
 facet normal -0.0237823 -0.827378 0.561141
  outer loop
   vertex -0.007804 -0.003653 -0.042162
   vertex -0.009499 -0.003725 -0.04234
   vertex -0.007903 -0.00415 -0.042899
  endloop
 endfacet
 facet normal -0.0262949 -0.814339 0.579794
  outer loop
   vertex -0.009499 -0.003725 -0.04234
   vertex -0.007804 -0.003653 -0.042162
   vertex -0.009634 -0.003213 -0.041627
  endloop
 endfacet
 facet normal -0.762951 -0.584815 0.275494
  outer loop
   vertex -0.009499 -0.003725 -0.04234
   vertex -0.009634 -0.003213 -0.041627
   vertex -0.010157 -0.002656 -0.041893
  endloop
 endfacet
 facet normal -0.261039 0.205346 0.943235
  outer loop
   vertex -0.010157 -0.002656 -0.041893
   vertex -0.009634 -0.003213 -0.041627
   vertex -0.010794 0.000728 -0.042806
  endloop
 endfacet
 facet normal 0.810766 -0.572059 -0.124128
  outer loop
   vertex -0.006528 -0.003599 -0.04411
   vertex -0.005528 -0.001779 -0.045966
   vertex -0.005733 -0.002428 -0.044314
  endloop
 endfacet
 facet normal -0.654348 -0.188807 -0.732243
  outer loop
   vertex -0.016146 -0.001608 -0.045636
   vertex -0.016078 0.0025 -0.046756
   vertex -0.01207 -0.000671 -0.04952
  endloop
 endfacet
 facet normal 0.391349 0.83389 -0.389196
  outer loop
   vertex -0.016078 0.0025 -0.046756
   vertex -0.01333 0.002197 -0.044642
   vertex -0.01207 -0.000671 -0.04952
  endloop
 endfacet
 facet normal -0.613899 -0.320248 -0.721505
  outer loop
   vertex -0.01207 -0.000671 -0.04952
   vertex -0.012557 -0.003777 -0.047727
   vertex -0.016146 -0.001608 -0.045636
  endloop
 endfacet
 facet normal -0.323419 -0.434534 -0.840583
  outer loop
   vertex -0.012557 -0.003777 -0.047727
   vertex -0.01207 -0.000671 -0.04952
   vertex -0.009684 -0.001499 -0.05001
  endloop
 endfacet
 facet normal -0.274697 -0.437732 -0.856114
  outer loop
   vertex -0.009849 -0.006592 -0.047353
   vertex -0.011373 -0.006017 -0.047158
   vertex -0.009684 -0.001499 -0.05001
  endloop
 endfacet
 facet normal -0.173225 -0.451127 -0.875487
  outer loop
   vertex -0.009684 -0.001499 -0.05001
   vertex -0.007508 -0.005329 -0.048467
   vertex -0.009849 -0.006592 -0.047353
  endloop
 endfacet
 facet normal -0.136639 -0.435992 -0.889517
  outer loop
   vertex -0.009684 -0.001499 -0.05001
   vertex -0.006915 -0.002783 -0.049806
   vertex -0.007508 -0.005329 -0.048467
  endloop
 endfacet
 facet normal -0.353256 -0.401378 -0.845048
  outer loop
   vertex -0.011373 -0.006017 -0.047158
   vertex -0.012557 -0.003777 -0.047727
   vertex -0.009684 -0.001499 -0.05001
  endloop
 endfacet
 facet normal 0.0176577 -0.46862 -0.883223
  outer loop
   vertex -0.006915 -0.002783 -0.049806
   vertex -0.00694 -0.004369 -0.048965
   vertex -0.007508 -0.005329 -0.048467
  endloop
 endfacet
 facet normal 0.902864 -0.212432 -0.373777
  outer loop
   vertex -0.006239 -0.002887 -0.048114
   vertex -0.00694 -0.004369 -0.048965
   vertex -0.006915 -0.002783 -0.049806
  endloop
 endfacet
 facet normal 0.877603 -0.469824 0.0952754
  outer loop
   vertex -0.00694 -0.004369 -0.048965
   vertex -0.006239 -0.002887 -0.048114
   vertex -0.007508 -0.005329 -0.048467
  endloop
 endfacet
 facet normal 0.841829 -0.497818 0.208568
  outer loop
   vertex -0.006457 -0.00291 -0.047289
   vertex -0.006239 -0.002887 -0.048114
   vertex -0.006028 -0.002146 -0.047197
  endloop
 endfacet
 facet normal 0.854175 -0.474592 0.212478
  outer loop
   vertex -0.007508 -0.005329 -0.048467
   vertex -0.006239 -0.002887 -0.048114
   vertex -0.006457 -0.00291 -0.047289
  endloop
 endfacet
 facet normal 0.795396 -0.587786 -0.147831
  outer loop
   vertex -0.006028 -0.002146 -0.047197
   vertex -0.005528 -0.001779 -0.045966
   vertex -0.006528 -0.003599 -0.04411
  endloop
 endfacet
 facet normal 0.728744 -0.657484 -0.191433
  outer loop
   vertex -0.006345 -0.002631 -0.046738
   vertex -0.006028 -0.002146 -0.047197
   vertex -0.006528 -0.003599 -0.04411
  endloop
 endfacet
 facet normal 0.865635 -0.495068 0.0747242
  outer loop
   vertex -0.006345 -0.002631 -0.046738
   vertex -0.006457 -0.00291 -0.047289
   vertex -0.006028 -0.002146 -0.047197
  endloop
 endfacet
 facet normal -0.508848 0.184529 0.840846
  outer loop
   vertex -0.011271 0.00165 -0.043297
   vertex -0.011333 0.000472 -0.043076
   vertex -0.010794 0.000728 -0.042806
  endloop
 endfacet
 facet normal 0.1725 0.976008 0.132862
  outer loop
   vertex -0.01333 0.002197 -0.044642
   vertex -0.023362 0.003477 -0.04102
   vertex -0.011271 0.00165 -0.043297
  endloop
 endfacet
 facet normal 0.175978 -0.0599622 0.982566
  outer loop
   vertex -0.011271 0.00165 -0.043297
   vertex -0.023362 0.003477 -0.04102
   vertex -0.013737 0.000361 -0.042934
  endloop
 endfacet
 facet normal 0.0496251 0.181638 0.982113
  outer loop
   vertex -0.011333 0.000472 -0.043076
   vertex -0.011271 0.00165 -0.043297
   vertex -0.013737 0.000361 -0.042934
  endloop
 endfacet
 facet normal 0.20389 0.970867 -0.125883
  outer loop
   vertex -0.01333 0.002197 -0.044642
   vertex -0.016078 0.0025 -0.046756
   vertex -0.023434 0.004182 -0.045698
  endloop
 endfacet
 facet normal 0.232342 0.918908 0.318787
  outer loop
   vertex -0.023362 0.003477 -0.04102
   vertex -0.01333 0.002197 -0.044642
   vertex -0.021054 0.004074 -0.044423
  endloop
 endfacet
 facet normal 0.214829 0.921715 -0.322939
  outer loop
   vertex -0.023434 0.004182 -0.045698
   vertex -0.021054 0.004074 -0.044423
   vertex -0.01333 0.002197 -0.044642
  endloop
 endfacet
 facet normal -0.444011 -0.0101173 0.895964
  outer loop
   vertex -0.010794 0.000728 -0.042806
   vertex -0.011333 0.000472 -0.043076
   vertex -0.010897 -0.000685 -0.042873
  endloop
 endfacet
 facet normal -0.771789 0.0261339 0.635342
  outer loop
   vertex -0.010794 0.000728 -0.042806
   vertex -0.010897 -0.000685 -0.042873
   vertex -0.010157 -0.002656 -0.041893
  endloop
 endfacet
 facet normal 0.0139313 -0.999577 0.0255156
  outer loop
   vertex -0.007903 -0.00415 -0.042899
   vertex -0.009464 -0.004243 -0.04569
   vertex -0.008844 -0.00424 -0.045911
  endloop
 endfacet
 facet normal 0.316766 -0.945865 -0.0707002
  outer loop
   vertex -0.006528 -0.003599 -0.04411
   vertex -0.007903 -0.00415 -0.042899
   vertex -0.008844 -0.00424 -0.045911
  endloop
 endfacet
 facet normal -0.205968 -0.967389 0.147432
  outer loop
   vertex -0.009499 -0.003725 -0.04234
   vertex -0.009464 -0.004243 -0.04569
   vertex -0.007903 -0.00415 -0.042899
  endloop
 endfacet
 facet normal 0.708973 -0.676353 -0.19976
  outer loop
   vertex -0.007128 -0.003424 -0.046832
   vertex -0.006345 -0.002631 -0.046738
   vertex -0.006528 -0.003599 -0.04411
  endloop
 endfacet
 facet normal 0.363289 -0.921203 -0.139303
  outer loop
   vertex -0.006528 -0.003599 -0.04411
   vertex -0.008844 -0.00424 -0.045911
   vertex -0.007128 -0.003424 -0.046832
  endloop
 endfacet
 facet normal -0.834741 -0.545426 0.0756162
  outer loop
   vertex -0.009464 -0.004243 -0.04569
   vertex -0.009499 -0.003725 -0.04234
   vertex -0.010157 -0.002656 -0.041893
  endloop
 endfacet
 facet normal -0.708828 -0.687467 0.157965
  outer loop
   vertex -0.009464 -0.004243 -0.04569
   vertex -0.010157 -0.002656 -0.041893
   vertex -0.010811 -0.002674 -0.044906
  endloop
 endfacet
 facet normal -0.945353 -0.252152 0.206704
  outer loop
   vertex -0.010811 -0.002674 -0.044906
   vertex -0.010157 -0.002656 -0.041893
   vertex -0.010897 -0.000685 -0.042873
  endloop
 endfacet
 facet normal -0.203217 -0.303109 -0.931036
  outer loop
   vertex -0.023434 0.004182 -0.045698
   vertex -0.016078 0.0025 -0.046756
   vertex -0.024363 -0.000807 -0.043871
  endloop
 endfacet
 facet normal -0.226676 -0.252697 -0.940618
  outer loop
   vertex -0.024363 -0.000807 -0.043871
   vertex -0.016078 0.0025 -0.046756
   vertex -0.016146 -0.001608 -0.045636
  endloop
 endfacet
 facet normal -0.223314 -0.582313 0.781692
  outer loop
   vertex -0.010811 -0.002674 -0.044906
   vertex -0.016146 -0.001608 -0.045636
   vertex -0.009464 -0.004243 -0.04569
  endloop
 endfacet
 facet normal -0.51086 -0.859537 0.0147585
  outer loop
   vertex -0.012016 -0.004083 -0.046822
   vertex -0.016146 -0.001608 -0.045636
   vertex -0.012557 -0.003777 -0.047727
  endloop
 endfacet
 facet normal -0.0858671 -0.99496 0.051781
  outer loop
   vertex -0.016146 -0.001608 -0.045636
   vertex -0.0243 -0.000744 -0.042556
   vertex -0.024363 -0.000807 -0.043871
  endloop
 endfacet
 facet normal -0.298772 -0.76922 0.564832
  outer loop
   vertex -0.009464 -0.004243 -0.04569
   vertex -0.016146 -0.001608 -0.045636
   vertex -0.012016 -0.004083 -0.046822
  endloop
 endfacet
 facet normal 0.107218 -0.84659 0.521335
  outer loop
   vertex -0.013737 0.000361 -0.042934
   vertex -0.0243 -0.000744 -0.042556
   vertex -0.016146 -0.001608 -0.045636
  endloop
 endfacet
 facet normal -0.230881 -0.676789 0.699035
  outer loop
   vertex -0.010811 -0.002674 -0.044906
   vertex -0.013737 0.000361 -0.042934
   vertex -0.016146 -0.001608 -0.045636
  endloop
 endfacet
 facet normal -0.857332 -0.31758 0.405124
  outer loop
   vertex -0.012557 -0.003777 -0.047727
   vertex -0.011072 -0.005903 -0.046251
   vertex -0.012016 -0.004083 -0.046822
  endloop
 endfacet
 facet normal -0.478327 0.250292 0.841758
  outer loop
   vertex -0.011072 -0.005903 -0.046251
   vertex -0.012557 -0.003777 -0.047727
   vertex -0.012277 -0.00491 -0.047231
  endloop
 endfacet
 facet normal -0.488662 -0.448407 -0.748426
  outer loop
   vertex -0.011373 -0.006017 -0.047158
   vertex -0.012277 -0.00491 -0.047231
   vertex -0.012557 -0.003777 -0.047727
  endloop
 endfacet
 facet normal -0.743918 -0.586358 0.320578
  outer loop
   vertex -0.011072 -0.005903 -0.046251
   vertex -0.012277 -0.00491 -0.047231
   vertex -0.011373 -0.006017 -0.047158
  endloop
 endfacet
 facet normal -0.319252 -0.92136 0.221753
  outer loop
   vertex -0.011072 -0.005903 -0.046251
   vertex -0.011373 -0.006017 -0.047158
   vertex -0.009849 -0.006592 -0.047353
  endloop
 endfacet
 facet normal -0.0187213 -0.641627 -0.766788
  outer loop
   vertex -0.007508 -0.005329 -0.048467
   vertex -0.008745 -0.006433 -0.047513
   vertex -0.009849 -0.006592 -0.047353
  endloop
 endfacet
 facet normal -0.207249 -0.916242 0.342854
  outer loop
   vertex -0.009462 -0.00629 -0.046312
   vertex -0.011072 -0.005903 -0.046251
   vertex -0.009849 -0.006592 -0.047353
  endloop
 endfacet
 facet normal 0.169767 -0.961557 0.215841
  outer loop
   vertex -0.009849 -0.006592 -0.047353
   vertex -0.008745 -0.006433 -0.047513
   vertex -0.009462 -0.00629 -0.046312
  endloop
 endfacet
 facet normal 0.917753 -0.397139 -0.00329224
  outer loop
   vertex -0.007508 -0.005329 -0.048467
   vertex -0.006457 -0.00291 -0.047289
   vertex -0.007524 -0.005377 -0.047137
  endloop
 endfacet
 facet normal 0.65742 -0.753278 -0.0192773
  outer loop
   vertex -0.007508 -0.005329 -0.048467
   vertex -0.007524 -0.005377 -0.047137
   vertex -0.008745 -0.006433 -0.047513
  endloop
 endfacet
 facet normal 0.682017 -0.698934 0.215276
  outer loop
   vertex -0.007128 -0.003424 -0.046832
   vertex -0.006457 -0.00291 -0.047289
   vertex -0.006345 -0.002631 -0.046738
  endloop
 endfacet
 facet normal 0.666975 -0.245121 0.703605
  outer loop
   vertex -0.007128 -0.003424 -0.046832
   vertex -0.007524 -0.005377 -0.047137
   vertex -0.006457 -0.00291 -0.047289
  endloop
 endfacet
 facet normal 0.0491162 0.190534 0.980451
  outer loop
   vertex -0.011333 0.000472 -0.043076
   vertex -0.013737 0.000361 -0.042934
   vertex -0.010897 -0.000685 -0.042873
  endloop
 endfacet
 facet normal 0.370063 0.839324 0.398231
  outer loop
   vertex -0.02887 0.005915 -0.04104
   vertex -0.023362 0.003477 -0.04102
   vertex -0.021054 0.004074 -0.044423
  endloop
 endfacet
 facet normal 0.261009 0.23041 0.937436
  outer loop
   vertex -0.013737 0.000361 -0.042934
   vertex -0.023362 0.003477 -0.04102
   vertex -0.019425 0.000966 -0.041499
  endloop
 endfacet
 facet normal 0.320395 0.333189 0.886754
  outer loop
   vertex -0.025169 0.00114 -0.039489
   vertex -0.019425 0.000966 -0.041499
   vertex -0.023362 0.003477 -0.04102
  endloop
 endfacet
 facet normal 0.241472 0.394201 0.886734
  outer loop
   vertex -0.023362 0.003477 -0.04102
   vertex -0.028333 -0.000404 -0.037941
   vertex -0.025169 0.00114 -0.039489
  endloop
 endfacet
 facet normal 0.193884 0.445201 0.874188
  outer loop
   vertex -0.023362 0.003477 -0.04102
   vertex -0.02887 0.005915 -0.04104
   vertex -0.028333 -0.000404 -0.037941
  endloop
 endfacet
 facet normal 0.0994008 -0.71264 0.694452
  outer loop
   vertex -0.013737 0.000361 -0.042934
   vertex -0.019425 0.000966 -0.041499
   vertex -0.0243 -0.000744 -0.042556
  endloop
 endfacet
 facet normal -0.269927 -0.69395 0.667512
  outer loop
   vertex -0.013737 0.000361 -0.042934
   vertex -0.010811 -0.002674 -0.044906
   vertex -0.010897 -0.000685 -0.042873
  endloop
 endfacet
 facet normal 0.188097 0.943979 -0.271153
  outer loop
   vertex -0.021054 0.004074 -0.044423
   vertex -0.023434 0.004182 -0.045698
   vertex -0.027395 0.005243 -0.044752
  endloop
 endfacet
 facet normal -0.293332 -0.28011 -0.914054
  outer loop
   vertex -0.023434 0.004182 -0.045698
   vertex -0.024363 -0.000807 -0.043871
   vertex -0.027395 0.005243 -0.044752
  endloop
 endfacet
 facet normal 0.32485 0.91077 0.254892
  outer loop
   vertex -0.028225 0.006311 -0.043277
   vertex -0.02887 0.005915 -0.04104
   vertex -0.021054 0.004074 -0.044423
  endloop
 endfacet
 facet normal 0.181606 0.842218 -0.50763
  outer loop
   vertex -0.027395 0.005243 -0.044752
   vertex -0.028225 0.006311 -0.043277
   vertex -0.021054 0.004074 -0.044423
  endloop
 endfacet
 facet normal 0.324015 -0.27476 0.905274
  outer loop
   vertex -0.009464 -0.004243 -0.04569
   vertex -0.009462 -0.00629 -0.046312
   vertex -0.008844 -0.00424 -0.045911
  endloop
 endfacet
 facet normal 0.561422 -0.31864 0.763724
  outer loop
   vertex -0.009462 -0.00629 -0.046312
   vertex -0.007128 -0.003424 -0.046832
   vertex -0.008844 -0.00424 -0.045911
  endloop
 endfacet
 facet normal -0.0336205 -0.2906 0.956254
  outer loop
   vertex -0.011072 -0.005903 -0.046251
   vertex -0.009462 -0.00629 -0.046312
   vertex -0.009464 -0.004243 -0.04569
  endloop
 endfacet
 facet normal -0.400067 0.0789589 0.913078
  outer loop
   vertex -0.009464 -0.004243 -0.04569
   vertex -0.012016 -0.004083 -0.046822
   vertex -0.011072 -0.005903 -0.046251
  endloop
 endfacet
 facet normal 0.470475 -0.228502 0.852314
  outer loop
   vertex -0.007128 -0.003424 -0.046832
   vertex -0.009462 -0.00629 -0.046312
   vertex -0.007524 -0.005377 -0.047137
  endloop
 endfacet
 facet normal -0.410104 -0.329374 -0.850487
  outer loop
   vertex -0.027395 0.005243 -0.044752
   vertex -0.024363 -0.000807 -0.043871
   vertex -0.029848 -0.001928 -0.040792
  endloop
 endfacet
 facet normal 0.219565 -0.974926 0.0361883
  outer loop
   vertex -0.0243 -0.000744 -0.042556
   vertex -0.029848 -0.001928 -0.040792
   vertex -0.024363 -0.000807 -0.043871
  endloop
 endfacet
 facet normal 0.319543 -0.837824 0.442655
  outer loop
   vertex -0.029848 -0.001928 -0.040792
   vertex -0.0243 -0.000744 -0.042556
   vertex -0.02543 0.000428 -0.039522
  endloop
 endfacet
 facet normal 0.217542 -0.880513 0.421155
  outer loop
   vertex -0.02543 0.000428 -0.039522
   vertex -0.0243 -0.000744 -0.042556
   vertex -0.019425 0.000966 -0.041499
  endloop
 endfacet
 facet normal 0.524731 -0.750061 0.402574
  outer loop
   vertex -0.009462 -0.00629 -0.046312
   vertex -0.008745 -0.006433 -0.047513
   vertex -0.007524 -0.005377 -0.047137
  endloop
 endfacet
 facet normal 0.484484 0.826714 0.28604
  outer loop
   vertex -0.031368 0.00821 -0.043442
   vertex -0.02887 0.005915 -0.04104
   vertex -0.028225 0.006311 -0.043277
  endloop
 endfacet
 facet normal 0.76043 0.617626 -0.200709
  outer loop
   vertex -0.031368 0.00821 -0.043442
   vertex -0.031001 0.008463 -0.041273
   vertex -0.02887 0.005915 -0.04104
  endloop
 endfacet
 facet normal 0.766965 0.641683 0.00259944
  outer loop
   vertex -0.02887 0.005915 -0.04104
   vertex -0.031001 0.008463 -0.041273
   vertex -0.030692 0.008089 -0.04012
  endloop
 endfacet
 facet normal 0.791206 0.549601 0.268201
  outer loop
   vertex -0.030636 0.007394 -0.038861
   vertex -0.02887 0.005915 -0.04104
   vertex -0.030692 0.008089 -0.04012
  endloop
 endfacet
 facet normal 0.827738 0.243745 0.505409
  outer loop
   vertex -0.02887 0.005915 -0.04104
   vertex -0.030636 0.007394 -0.038861
   vertex -0.0308 0.000986 -0.035502
  endloop
 endfacet
 facet normal 0.751064 0.341069 0.565309
  outer loop
   vertex -0.028333 -0.000404 -0.037941
   vertex -0.02887 0.005915 -0.04104
   vertex -0.0308 0.000986 -0.035502
  endloop
 endfacet
 facet normal 0.321623 -0.161142 0.933055
  outer loop
   vertex -0.02543 0.000428 -0.039522
   vertex -0.019425 0.000966 -0.041499
   vertex -0.025169 0.00114 -0.039489
  endloop
 endfacet
 facet normal 0.515183 -0.227154 0.826431
  outer loop
   vertex -0.025169 0.00114 -0.039489
   vertex -0.028333 -0.000404 -0.037941
   vertex -0.02543 0.000428 -0.039522
  endloop
 endfacet
 facet normal 0.295083 -0.898957 0.323732
  outer loop
   vertex -0.029848 -0.001928 -0.040792
   vertex -0.028333 -0.000404 -0.037941
   vertex -0.031653 -0.001398 -0.037675
  endloop
 endfacet
 facet normal 0.394697 -0.880916 0.261154
  outer loop
   vertex -0.029848 -0.001928 -0.040792
   vertex -0.02543 0.000428 -0.039522
   vertex -0.028333 -0.000404 -0.037941
  endloop
 endfacet
 facet normal 0.293204 -0.878169 0.377955
  outer loop
   vertex -0.031653 -0.001398 -0.037675
   vertex -0.028333 -0.000404 -0.037941
   vertex -0.030629 -0.000355 -0.036046
  endloop
 endfacet
 facet normal 0.616803 -0.228469 0.75323
  outer loop
   vertex -0.030629 -0.000355 -0.036046
   vertex -0.028333 -0.000404 -0.037941
   vertex -0.030365 0.000483 -0.036008
  endloop
 endfacet
 facet normal 0.619539 -0.221709 0.753005
  outer loop
   vertex -0.030365 0.000483 -0.036008
   vertex -0.028333 -0.000404 -0.037941
   vertex -0.0308 0.000986 -0.035502
  endloop
 endfacet
 facet normal 0.302747 0.693873 -0.653364
  outer loop
   vertex -0.032564 0.006713 -0.045586
   vertex -0.031368 0.00821 -0.043442
   vertex -0.027395 0.005243 -0.044752
  endloop
 endfacet
 facet normal 0.290337 -0.372957 -0.881253
  outer loop
   vertex -0.033122 -0.000496 -0.04421
   vertex -0.033922 0.003529 -0.046177
   vertex -0.027395 0.005243 -0.044752
  endloop
 endfacet
 facet normal 0.504584 0.808907 -0.301768
  outer loop
   vertex -0.027395 0.005243 -0.044752
   vertex -0.031368 0.00821 -0.043442
   vertex -0.028225 0.006311 -0.043277
  endloop
 endfacet
 facet normal 0.186606 0.101785 -0.977148
  outer loop
   vertex -0.032564 0.006713 -0.045586
   vertex -0.027395 0.005243 -0.044752
   vertex -0.033922 0.003529 -0.046177
  endloop
 endfacet
 facet normal 0.489257 -0.552003 -0.675218
  outer loop
   vertex -0.033122 -0.000496 -0.04421
   vertex -0.027395 0.005243 -0.044752
   vertex -0.031975 -0.001472 -0.042581
  endloop
 endfacet
 facet normal 0.468473 -0.544469 -0.695763
  outer loop
   vertex -0.031975 -0.001472 -0.042581
   vertex -0.027395 0.005243 -0.044752
   vertex -0.029848 -0.001928 -0.040792
  endloop
 endfacet
 facet normal 0.309198 -0.766455 -0.562978
  outer loop
   vertex -0.031975 -0.001472 -0.042581
   vertex -0.029848 -0.001928 -0.040792
   vertex -0.031274 -0.001804 -0.041744
  endloop
 endfacet
 facet normal 0.160001 -0.919359 -0.359414
  outer loop
   vertex -0.031274 -0.001804 -0.041744
   vertex -0.029848 -0.001928 -0.040792
   vertex -0.03267 -0.002278 -0.041153
  endloop
 endfacet
 facet normal 0.161824 -0.909279 -0.383437
  outer loop
   vertex -0.033639 -0.002776 -0.040381
   vertex -0.03267 -0.002278 -0.041153
   vertex -0.029848 -0.001928 -0.040792
  endloop
 endfacet
 facet normal 0.238948 -0.924932 0.295642
  outer loop
   vertex -0.031653 -0.001398 -0.037675
   vertex -0.033639 -0.002776 -0.040381
   vertex -0.029848 -0.001928 -0.040792
  endloop
 endfacet
 facet normal -0.829065 0.55401 0.0756577
  outer loop
   vertex -0.031001 0.008463 -0.041273
   vertex -0.031368 0.00821 -0.043442
   vertex -0.032564 0.006713 -0.045586
  endloop
 endfacet
 facet normal -0.335842 0.865838 0.370856
  outer loop
   vertex -0.031309 0.007788 -0.039976
   vertex -0.030692 0.008089 -0.04012
   vertex -0.031001 0.008463 -0.041273
  endloop
 endfacet
 facet normal -0.836417 0.541726 0.0833058
  outer loop
   vertex -0.031001 0.008463 -0.041273
   vertex -0.032564 0.006713 -0.045586
   vertex -0.031309 0.007788 -0.039976
  endloop
 endfacet
 facet normal -0.493618 0.751899 0.437024
  outer loop
   vertex -0.031224 0.007026 -0.038892
   vertex -0.030636 0.007394 -0.038861
   vertex -0.030692 0.008089 -0.04012
  endloop
 endfacet
 facet normal -0.248981 0.783039 0.569963
  outer loop
   vertex -0.031309 0.007788 -0.039976
   vertex -0.031224 0.007026 -0.038892
   vertex -0.030692 0.008089 -0.04012
  endloop
 endfacet
 facet normal -0.399899 0.57912 0.710423
  outer loop
   vertex -0.030636 0.007394 -0.038861
   vertex -0.031224 0.007026 -0.038892
   vertex -0.032849 0.001668 -0.035439
  endloop
 endfacet
 facet normal 0.177738 0.453306 0.873455
  outer loop
   vertex -0.030636 0.007394 -0.038861
   vertex -0.032849 0.001668 -0.035439
   vertex -0.0308 0.000986 -0.035502
  endloop
 endfacet
 facet normal -0.0914004 -0.36036 0.928324
  outer loop
   vertex -0.0308 0.000986 -0.035502
   vertex -0.032849 0.001668 -0.035439
   vertex -0.031104 0.00045 -0.03574
  endloop
 endfacet
 facet normal 0.310396 -0.527261 0.79098
  outer loop
   vertex -0.031104 0.00045 -0.03574
   vertex -0.030365 0.000483 -0.036008
   vertex -0.0308 0.000986 -0.035502
  endloop
 endfacet
 facet normal 0.024047 -0.897879 0.439586
  outer loop
   vertex -0.033348 -0.000851 -0.036465
   vertex -0.033639 -0.002776 -0.040381
   vertex -0.031653 -0.001398 -0.037675
  endloop
 endfacet
 facet normal -0.400032 -0.636769 0.659166
  outer loop
   vertex -0.032849 0.001668 -0.035439
   vertex -0.031653 -0.001398 -0.037675
   vertex -0.030629 -0.000355 -0.036046
  endloop
 endfacet
 facet normal 0.437496 -0.41218 0.79919
  outer loop
   vertex -0.032849 0.001668 -0.035439
   vertex -0.033348 -0.000851 -0.036465
   vertex -0.031653 -0.001398 -0.037675
  endloop
 endfacet
 facet normal 0.342981 -0.150097 0.927273
  outer loop
   vertex -0.031104 0.00045 -0.03574
   vertex -0.030629 -0.000355 -0.036046
   vertex -0.030365 0.000483 -0.036008
  endloop
 endfacet
 facet normal -0.141238 -0.423483 0.894826
  outer loop
   vertex -0.031104 0.00045 -0.03574
   vertex -0.032849 0.001668 -0.035439
   vertex -0.030629 -0.000355 -0.036046
  endloop
 endfacet
 facet normal -0.904472 0.337307 0.261066
  outer loop
   vertex -0.034657 0.00023 -0.044461
   vertex -0.032564 0.006713 -0.045586
   vertex -0.033922 0.003529 -0.046177
  endloop
 endfacet
 facet normal -0.969701 0.157494 0.18675
  outer loop
   vertex -0.031224 0.007026 -0.038892
   vertex -0.031309 0.007788 -0.039976
   vertex -0.032564 0.006713 -0.045586
  endloop
 endfacet
 facet normal -0.928668 0.329402 0.170498
  outer loop
   vertex -0.032564 0.006713 -0.045586
   vertex -0.034657 0.00023 -0.044461
   vertex -0.031224 0.007026 -0.038892
  endloop
 endfacet
 facet normal -0.0665127 -0.448738 -0.891185
  outer loop
   vertex -0.033122 -0.000496 -0.04421
   vertex -0.034657 0.00023 -0.044461
   vertex -0.033922 0.003529 -0.046177
  endloop
 endfacet
 facet normal 0.0273102 -0.663205 -0.747939
  outer loop
   vertex -0.034598 -0.001971 -0.042956
   vertex -0.033122 -0.000496 -0.04421
   vertex -0.032842 -0.001822 -0.043024
  endloop
 endfacet
 facet normal 0.545358 -0.491885 -0.6787
  outer loop
   vertex -0.033122 -0.000496 -0.04421
   vertex -0.031975 -0.001472 -0.042581
   vertex -0.032842 -0.001822 -0.043024
  endloop
 endfacet
 facet normal -0.132235 -0.561899 -0.816568
  outer loop
   vertex -0.033122 -0.000496 -0.04421
   vertex -0.034598 -0.001971 -0.042956
   vertex -0.034657 0.00023 -0.044461
  endloop
 endfacet
 facet normal 0.487169 -0.817296 -0.307723
  outer loop
   vertex -0.031975 -0.001472 -0.042581
   vertex -0.033005 -0.002377 -0.041808
   vertex -0.032842 -0.001822 -0.043024
  endloop
 endfacet
 facet normal 0.281069 -0.787895 -0.547924
  outer loop
   vertex -0.031975 -0.001472 -0.042581
   vertex -0.031274 -0.001804 -0.041744
   vertex -0.033005 -0.002377 -0.041808
  endloop
 endfacet
 facet normal 0.314789 -0.948999 -0.017563
  outer loop
   vertex -0.031274 -0.001804 -0.041744
   vertex -0.03267 -0.002278 -0.041153
   vertex -0.033005 -0.002377 -0.041808
  endloop
 endfacet
 facet normal 0.409824 -0.909305 -0.0721682
  outer loop
   vertex -0.03267 -0.002278 -0.041153
   vertex -0.033639 -0.002776 -0.040381
   vertex -0.033005 -0.002377 -0.041808
  endloop
 endfacet
 facet normal 0.104276 -0.968862 -0.224572
  outer loop
   vertex -0.033639 -0.002776 -0.040381
   vertex -0.034908 -0.002554 -0.041928
   vertex -0.033005 -0.002377 -0.041808
  endloop
 endfacet
 facet normal -0.164435 -0.986365 -0.00666124
  outer loop
   vertex -0.035377 -0.002482 -0.041012
   vertex -0.034908 -0.002554 -0.041928
   vertex -0.033639 -0.002776 -0.040381
  endloop
 endfacet
 facet normal -0.30237 -0.846336 0.438505
  outer loop
   vertex -0.033348 -0.000851 -0.036465
   vertex -0.035377 -0.002482 -0.041012
   vertex -0.033639 -0.002776 -0.040381
  endloop
 endfacet
 facet normal -0.923397 0.362112 0.127332
  outer loop
   vertex -0.034657 0.00023 -0.044461
   vertex -0.032849 0.001668 -0.035439
   vertex -0.031224 0.007026 -0.038892
  endloop
 endfacet
 facet normal -0.459653 -0.255392 0.850584
  outer loop
   vertex -0.033348 -0.000851 -0.036465
   vertex -0.032849 0.001668 -0.035439
   vertex -0.034431 -0.000264 -0.036874
  endloop
 endfacet
 facet normal -0.794596 0.603863 0.0629878
  outer loop
   vertex -0.034657 0.00023 -0.044461
   vertex -0.034431 -0.000264 -0.036874
   vertex -0.032849 0.001668 -0.035439
  endloop
 endfacet
 facet normal -0.55114 -0.676423 0.488566
  outer loop
   vertex -0.035377 -0.002482 -0.041012
   vertex -0.033348 -0.000851 -0.036465
   vertex -0.034431 -0.000264 -0.036874
  endloop
 endfacet
 facet normal -0.652333 -0.439647 -0.617391
  outer loop
   vertex -0.034657 0.00023 -0.044461
   vertex -0.034598 -0.001971 -0.042956
   vertex -0.035519 -0.002159 -0.041849
  endloop
 endfacet
 facet normal -0.919532 0.389459 0.0527493
  outer loop
   vertex -0.035519 -0.002159 -0.041849
   vertex -0.034431 -0.000264 -0.036874
   vertex -0.034657 0.00023 -0.044461
  endloop
 endfacet
 facet normal 0.0615239 -0.911091 -0.407589
  outer loop
   vertex -0.032842 -0.001822 -0.043024
   vertex -0.033005 -0.002377 -0.041808
   vertex -0.034598 -0.001971 -0.042956
  endloop
 endfacet
 facet normal -0.506154 -0.675759 -0.535872
  outer loop
   vertex -0.035519 -0.002159 -0.041849
   vertex -0.034598 -0.001971 -0.042956
   vertex -0.034908 -0.002554 -0.041928
  endloop
 endfacet
 facet normal 0.111012 -0.87847 -0.464723
  outer loop
   vertex -0.033005 -0.002377 -0.041808
   vertex -0.034908 -0.002554 -0.041928
   vertex -0.034598 -0.001971 -0.042956
  endloop
 endfacet
 facet normal -0.549575 -0.806502 -0.217994
  outer loop
   vertex -0.035377 -0.002482 -0.041012
   vertex -0.035519 -0.002159 -0.041849
   vertex -0.034908 -0.002554 -0.041928
  endloop
 endfacet
 facet normal -0.979707 0.0626545 0.19039
  outer loop
   vertex -0.035377 -0.002482 -0.041012
   vertex -0.034431 -0.000264 -0.036874
   vertex -0.035519 -0.002159 -0.041849
  endloop
 endfacet
endsolid
