solid ascii
 facet normal -0.0401461 -0.908106 0.416811
  outer loop
   vertex -0.018792 -0.229397 -0.015465
   vertex -0.013906 -0.229378 -0.014953
   vertex -0.012807 -0.22762 -0.011017
  endloop
 endfacet
 facet normal -0.123759 -0.975472 0.182037
  outer loop
   vertex -0.003959 -0.228413 -0.009251
   vertex -0.007831 -0.227726 -0.008202
   vertex -0.012807 -0.22762 -0.011017
  endloop
 endfacet
 facet normal -0.414494 -0.167528 0.894499
  outer loop
   vertex -0.012807 -0.22762 -0.011017
   vertex -0.006925 -0.22419 -0.007649
   vertex -0.0103 -0.222893 -0.00897
  endloop
 endfacet
 facet normal -0.492521 -0.00990393 0.870244
  outer loop
   vertex -0.006925 -0.22419 -0.007649
   vertex -0.012807 -0.22762 -0.011017
   vertex -0.007831 -0.227726 -0.008202
  endloop
 endfacet
 facet normal -0.588932 -0.037262 0.807323
  outer loop
   vertex -0.012807 -0.22762 -0.011017
   vertex -0.0103 -0.222893 -0.00897
   vertex -0.018792 -0.229397 -0.015465
  endloop
 endfacet
 facet normal -0.16699 -0.882042 0.440586
  outer loop
   vertex -0.003959 -0.228413 -0.009251
   vertex -0.012807 -0.22762 -0.011017
   vertex -0.013906 -0.229378 -0.014953
  endloop
 endfacet
 facet normal -0.0587539 -0.804858 0.590552
  outer loop
   vertex -0.01684 -0.233137 -0.020368
   vertex -0.013906 -0.229378 -0.014953
   vertex -0.018792 -0.229397 -0.015465
  endloop
 endfacet
 facet normal -0.0292904 -0.975897 0.216256
  outer loop
   vertex -0.00357 -0.232487 -0.027583
   vertex -0.003959 -0.228413 -0.009251
   vertex -0.013906 -0.229378 -0.014953
  endloop
 endfacet
 facet normal 0.280953 -0.852973 0.43989
  outer loop
   vertex -0.013906 -0.229378 -0.014953
   vertex -0.01684 -0.233137 -0.020368
   vertex -0.00357 -0.232487 -0.027583
  endloop
 endfacet
 facet normal -0.410385 -0.12732 0.902981
  outer loop
   vertex -0.01998 -0.229816 -0.016064
   vertex -0.018792 -0.229397 -0.015465
   vertex -0.020873 -0.22681 -0.016046
  endloop
 endfacet
 facet normal -0.0212333 -0.798969 0.600998
  outer loop
   vertex -0.018792 -0.229397 -0.015465
   vertex -0.01998 -0.229816 -0.016064
   vertex -0.01684 -0.233137 -0.020368
  endloop
 endfacet
 facet normal -0.490903 -0.204701 0.846824
  outer loop
   vertex -0.0103 -0.222893 -0.00897
   vertex -0.020873 -0.22681 -0.016046
   vertex -0.018792 -0.229397 -0.015465
  endloop
 endfacet
 facet normal 0.245169 -0.0918721 0.965118
  outer loop
   vertex -0.003494 -0.225922 -0.009132
   vertex -0.007831 -0.227726 -0.008202
   vertex -0.003959 -0.228413 -0.009251
  endloop
 endfacet
 facet normal 0.291229 -0.220214 0.930963
  outer loop
   vertex -0.006925 -0.22419 -0.007649
   vertex -0.007831 -0.227726 -0.008202
   vertex -0.003494 -0.225922 -0.009132
  endloop
 endfacet
 facet normal -0.226476 -0.951827 0.206723
  outer loop
   vertex -0.001507 -0.22958 -0.011938
   vertex -0.003959 -0.228413 -0.009251
   vertex -0.00357 -0.232487 -0.027583
  endloop
 endfacet
 facet normal 0.686807 -0.178958 0.704464
  outer loop
   vertex -0.000459 -0.227416 -0.01241
   vertex -0.003959 -0.228413 -0.009251
   vertex -0.001507 -0.22958 -0.011938
  endloop
 endfacet
 facet normal 0.686199 -0.161972 0.709152
  outer loop
   vertex -0.003959 -0.228413 -0.009251
   vertex -0.000459 -0.227416 -0.01241
   vertex -0.003494 -0.225922 -0.009132
  endloop
 endfacet
 facet normal 0.0930482 0.818921 0.566313
  outer loop
   vertex -0.006535 -0.220379 -0.013224
   vertex -0.0103 -0.222893 -0.00897
   vertex -0.006925 -0.22419 -0.007649
  endloop
 endfacet
 facet normal 0.296519 0.6839 0.666601
  outer loop
   vertex -0.006535 -0.220379 -0.013224
   vertex -0.011412 -0.218668 -0.01281
   vertex -0.0103 -0.222893 -0.00897
  endloop
 endfacet
 facet normal -0.102751 0.65408 0.749414
  outer loop
   vertex -0.011412 -0.218668 -0.01281
   vertex -0.012698 -0.218634 -0.013016
   vertex -0.0103 -0.222893 -0.00897
  endloop
 endfacet
 facet normal -0.606817 0.340591 0.718172
  outer loop
   vertex -0.020873 -0.22681 -0.016046
   vertex -0.0103 -0.222893 -0.00897
   vertex -0.012698 -0.218634 -0.013016
  endloop
 endfacet
 facet normal 0.552548 0.669565 0.49636
  outer loop
   vertex -0.003494 -0.225922 -0.009132
   vertex -0.006535 -0.220379 -0.013224
   vertex -0.006925 -0.22419 -0.007649
  endloop
 endfacet
 facet normal -0.829182 -0.510445 -0.227823
  outer loop
   vertex -0.020038 -0.229244 -0.017451
   vertex -0.016802 -0.2316 -0.02395
   vertex -0.01684 -0.233137 -0.020368
  endloop
 endfacet
 facet normal -0.823135 -0.536262 -0.186739
  outer loop
   vertex -0.01998 -0.229816 -0.016064
   vertex -0.020038 -0.229244 -0.017451
   vertex -0.01684 -0.233137 -0.020368
  endloop
 endfacet
 facet normal 0.197726 -0.92442 0.326117
  outer loop
   vertex -0.014345 -0.233849 -0.023899
   vertex -0.008889 -0.234115 -0.027961
   vertex -0.01684 -0.233137 -0.020368
  endloop
 endfacet
 facet normal 0.247056 -0.893979 0.373852
  outer loop
   vertex -0.008889 -0.234115 -0.027961
   vertex -0.00357 -0.232487 -0.027583
   vertex -0.01684 -0.233137 -0.020368
  endloop
 endfacet
 facet normal -0.561778 -0.792574 -0.237133
  outer loop
   vertex -0.015652 -0.232957 -0.023784
   vertex -0.014345 -0.233849 -0.023899
   vertex -0.01684 -0.233137 -0.020368
  endloop
 endfacet
 facet normal -0.714576 -0.640096 -0.282239
  outer loop
   vertex -0.016802 -0.2316 -0.02395
   vertex -0.015652 -0.232957 -0.023784
   vertex -0.01684 -0.233137 -0.020368
  endloop
 endfacet
 facet normal -0.233061 -0.782998 0.576712
  outer loop
   vertex 0.001082 -0.236946 -0.031757
   vertex 0.002201 -0.233835 -0.027081
   vertex -0.00357 -0.232487 -0.027583
  endloop
 endfacet
 facet normal -0.184531 -0.961631 0.203013
  outer loop
   vertex -0.00357 -0.232487 -0.027583
   vertex 0.001192 -0.232679 -0.024164
   vertex -0.001507 -0.22958 -0.011938
  endloop
 endfacet
 facet normal -0.241454 -0.927866 0.284192
  outer loop
   vertex 0.002201 -0.233835 -0.027081
   vertex 0.001192 -0.232679 -0.024164
   vertex -0.00357 -0.232487 -0.027583
  endloop
 endfacet
 facet normal -0.0545186 -0.712098 0.69996
  outer loop
   vertex 0.001082 -0.236946 -0.031757
   vertex -0.00357 -0.232487 -0.027583
   vertex -0.004699 -0.237392 -0.032661
  endloop
 endfacet
 facet normal -0.0885789 -0.706512 0.702136
  outer loop
   vertex -0.004699 -0.237392 -0.032661
   vertex -0.00357 -0.232487 -0.027583
   vertex -0.007458 -0.235616 -0.031222
  endloop
 endfacet
 facet normal 0.223827 -0.844321 0.48685
  outer loop
   vertex -0.00357 -0.232487 -0.027583
   vertex -0.008889 -0.234115 -0.027961
   vertex -0.007458 -0.235616 -0.031222
  endloop
 endfacet
 facet normal -0.59926 0.328659 0.72998
  outer loop
   vertex -0.016402 -0.215415 -0.017506
   vertex -0.020873 -0.22681 -0.016046
   vertex -0.012698 -0.218634 -0.013016
  endloop
 endfacet
 facet normal -0.887247 0.30363 -0.347276
  outer loop
   vertex -0.018751 -0.224172 -0.019161
   vertex -0.020873 -0.22681 -0.016046
   vertex -0.016402 -0.215415 -0.017506
  endloop
 endfacet
 facet normal -0.837082 0.028207 -0.54635
  outer loop
   vertex -0.020038 -0.229244 -0.017451
   vertex -0.020873 -0.22681 -0.016046
   vertex -0.018751 -0.224172 -0.019161
  endloop
 endfacet
 facet normal -0.955879 -0.283504 -0.0769482
  outer loop
   vertex -0.020038 -0.229244 -0.017451
   vertex -0.01998 -0.229816 -0.016064
   vertex -0.020873 -0.22681 -0.016046
  endloop
 endfacet
 facet normal 0.689135 0.635335 0.348487
  outer loop
   vertex -0.000459 -0.227416 -0.01241
   vertex -0.006535 -0.220379 -0.013224
   vertex -0.003494 -0.225922 -0.009132
  endloop
 endfacet
 facet normal 0.310472 -0.902864 0.297394
  outer loop
   vertex 0.002611 -0.232528 -0.025187
   vertex -0.001507 -0.22958 -0.011938
   vertex 0.001192 -0.232679 -0.024164
  endloop
 endfacet
 facet normal 0.853024 -0.323849 0.409233
  outer loop
   vertex -0.001507 -0.22958 -0.011938
   vertex 0.002632 -0.228528 -0.019733
   vertex -0.000459 -0.227416 -0.01241
  endloop
 endfacet
 facet normal 0.795578 -0.490001 0.356307
  outer loop
   vertex 0.002632 -0.228528 -0.019733
   vertex -0.001507 -0.22958 -0.011938
   vertex 0.002611 -0.232528 -0.025187
  endloop
 endfacet
 facet normal 0.717697 0.648909 0.252642
  outer loop
   vertex -0.006535 -0.220379 -0.013224
   vertex -0.000459 -0.227416 -0.01241
   vertex 0.00096 -0.224825 -0.023096
  endloop
 endfacet
 facet normal 0.782105 0.573819 0.242988
  outer loop
   vertex -0.000459 -0.227416 -0.01241
   vertex 0.002632 -0.228528 -0.019733
   vertex 0.00096 -0.224825 -0.023096
  endloop
 endfacet
 facet normal 0.245869 0.499881 0.830462
  outer loop
   vertex -0.006535 -0.220379 -0.013224
   vertex -0.006479 -0.214361 -0.016863
   vertex -0.011412 -0.218668 -0.01281
  endloop
 endfacet
 facet normal 0.808348 0.299094 0.507066
  outer loop
   vertex -0.005214 -0.219404 -0.015905
   vertex -0.006479 -0.214361 -0.016863
   vertex -0.006535 -0.220379 -0.013224
  endloop
 endfacet
 facet normal 0.821593 0.268966 0.502635
  outer loop
   vertex -0.005214 -0.219404 -0.015905
   vertex -0.006535 -0.220379 -0.013224
   vertex 0.00096 -0.224825 -0.023096
  endloop
 endfacet
 facet normal -0.121864 0.518499 0.84635
  outer loop
   vertex -0.010012 -0.214441 -0.015198
   vertex -0.012698 -0.218634 -0.013016
   vertex -0.011412 -0.218668 -0.01281
  endloop
 endfacet
 facet normal 0.392792 0.350277 0.850306
  outer loop
   vertex -0.006479 -0.214361 -0.016863
   vertex -0.010012 -0.214441 -0.015198
   vertex -0.011412 -0.218668 -0.01281
  endloop
 endfacet
 facet normal -0.35118 0.599317 0.719369
  outer loop
   vertex -0.016402 -0.215415 -0.017506
   vertex -0.012698 -0.218634 -0.013016
   vertex -0.010012 -0.214441 -0.015198
  endloop
 endfacet
 facet normal -0.966603 -0.102061 -0.23508
  outer loop
   vertex -0.016802 -0.2316 -0.02395
   vertex -0.018751 -0.224172 -0.019161
   vertex -0.016276 -0.231489 -0.026161
  endloop
 endfacet
 facet normal -0.759542 -0.649001 -0.0435188
  outer loop
   vertex -0.015604 -0.232902 -0.025442
   vertex -0.015652 -0.232957 -0.023784
   vertex -0.016802 -0.2316 -0.02395
  endloop
 endfacet
 facet normal -0.828714 -0.51336 -0.222924
  outer loop
   vertex -0.015321 -0.232827 -0.02663
   vertex -0.016802 -0.2316 -0.02395
   vertex -0.016276 -0.231489 -0.026161
  endloop
 endfacet
 facet normal -0.833178 -0.502804 -0.230224
  outer loop
   vertex -0.015321 -0.232827 -0.02663
   vertex -0.015604 -0.232902 -0.025442
   vertex -0.016802 -0.2316 -0.02395
  endloop
 endfacet
 facet normal -0.883133 0.0675784 -0.46423
  outer loop
   vertex -0.018751 -0.224172 -0.019161
   vertex -0.016802 -0.2316 -0.02395
   vertex -0.020038 -0.229244 -0.017451
  endloop
 endfacet
 facet normal -0.0992523 -0.919734 0.379787
  outer loop
   vertex -0.007458 -0.235616 -0.031222
   vertex -0.008889 -0.234115 -0.027961
   vertex -0.010171 -0.23462 -0.029519
  endloop
 endfacet
 facet normal 0.115695 -0.968876 0.218846
  outer loop
   vertex -0.014345 -0.233849 -0.023899
   vertex -0.010171 -0.23462 -0.029519
   vertex -0.008889 -0.234115 -0.027961
  endloop
 endfacet
 facet normal -0.564278 -0.825525 -0.0099508
  outer loop
   vertex -0.014596 -0.233642 -0.026839
   vertex -0.014345 -0.233849 -0.023899
   vertex -0.015652 -0.232957 -0.023784
  endloop
 endfacet
 facet normal -0.2429 -0.968888 -0.0474825
  outer loop
   vertex -0.010171 -0.23462 -0.029519
   vertex -0.014345 -0.233849 -0.023899
   vertex -0.014596 -0.233642 -0.026839
  endloop
 endfacet
 facet normal -0.630078 -0.775287 -0.0439599
  outer loop
   vertex -0.015604 -0.232902 -0.025442
   vertex -0.014596 -0.233642 -0.026839
   vertex -0.015652 -0.232957 -0.023784
  endloop
 endfacet
 facet normal 0.815886 -0.55203 0.172025
  outer loop
   vertex 0.001925 -0.236103 -0.03305
   vertex 0.002201 -0.233835 -0.027081
   vertex 0.001082 -0.236946 -0.031757
  endloop
 endfacet
 facet normal 0.41223 -0.789141 0.455327
  outer loop
   vertex 0.002201 -0.233835 -0.027081
   vertex 0.002611 -0.232528 -0.025187
   vertex 0.001192 -0.232679 -0.024164
  endloop
 endfacet
 facet normal 0.909881 -0.406385 0.0834702
  outer loop
   vertex 0.003622 -0.231543 -0.031412
   vertex 0.002611 -0.232528 -0.025187
   vertex 0.002201 -0.233835 -0.027081
  endloop
 endfacet
 facet normal 0.919923 -0.378766 0.101381
  outer loop
   vertex 0.003622 -0.231543 -0.031412
   vertex 0.002201 -0.233835 -0.027081
   vertex 0.001925 -0.236103 -0.03305
  endloop
 endfacet
 facet normal -0.0338117 -0.793461 0.607681
  outer loop
   vertex 0.001082 -0.236946 -0.031757
   vertex -0.004699 -0.237392 -0.032661
   vertex -0.00176 -0.238496 -0.033939
  endloop
 endfacet
 facet normal 0.693961 -0.719815 -0.0168576
  outer loop
   vertex 0.001082 -0.236946 -0.031757
   vertex 0.000171 -0.237757 -0.03463
   vertex 0.001925 -0.236103 -0.03305
  endloop
 endfacet
 facet normal 0.394996 -0.909235 0.131411
  outer loop
   vertex -0.00176 -0.238496 -0.033939
   vertex 0.000171 -0.237757 -0.03463
   vertex 0.001082 -0.236946 -0.031757
  endloop
 endfacet
 facet normal -0.637711 -0.579784 -0.507125
  outer loop
   vertex -0.00706 -0.234733 -0.032732
   vertex -0.004699 -0.237392 -0.032661
   vertex -0.007458 -0.235616 -0.031222
  endloop
 endfacet
 facet normal -0.726241 -0.650767 -0.221531
  outer loop
   vertex -0.004699 -0.237392 -0.032661
   vertex -0.00706 -0.234733 -0.032732
   vertex -0.004768 -0.236899 -0.033883
  endloop
 endfacet
 facet normal -0.450025 -0.83669 -0.312134
  outer loop
   vertex -0.004768 -0.236899 -0.033883
   vertex -0.00176 -0.238496 -0.033939
   vertex -0.004699 -0.237392 -0.032661
  endloop
 endfacet
 facet normal -0.573577 -0.589029 -0.569258
  outer loop
   vertex -0.007458 -0.235616 -0.031222
   vertex -0.010171 -0.23462 -0.029519
   vertex -0.012831 -0.230181 -0.031432
  endloop
 endfacet
 facet normal -0.599141 -0.61224 -0.515938
  outer loop
   vertex -0.007458 -0.235616 -0.031222
   vertex -0.012831 -0.230181 -0.031432
   vertex -0.00706 -0.234733 -0.032732
  endloop
 endfacet
 facet normal -0.367777 0.210384 0.905803
  outer loop
   vertex -0.014505 -0.209184 -0.018183
   vertex -0.016402 -0.215415 -0.017506
   vertex -0.010531 -0.208876 -0.016641
  endloop
 endfacet
 facet normal -0.359836 0.202599 0.910754
  outer loop
   vertex -0.010012 -0.214441 -0.015198
   vertex -0.010531 -0.208876 -0.016641
   vertex -0.016402 -0.215415 -0.017506
  endloop
 endfacet
 facet normal -0.953632 0.277726 -0.115994
  outer loop
   vertex -0.014505 -0.209184 -0.018183
   vertex -0.018751 -0.224172 -0.019161
   vertex -0.016402 -0.215415 -0.017506
  endloop
 endfacet
 facet normal -0.891509 0.275998 -0.359216
  outer loop
   vertex -0.018751 -0.224172 -0.019161
   vertex -0.014505 -0.209184 -0.018183
   vertex -0.016791 -0.226552 -0.025854
  endloop
 endfacet
 facet normal -0.963969 -0.0848785 -0.252109
  outer loop
   vertex -0.018751 -0.224172 -0.019161
   vertex -0.016791 -0.226552 -0.025854
   vertex -0.016276 -0.231489 -0.026161
  endloop
 endfacet
 facet normal 0.856746 -0.417447 0.30286
  outer loop
   vertex 0.002632 -0.228528 -0.019733
   vertex 0.002611 -0.232528 -0.025187
   vertex 0.004889 -0.229356 -0.027259
  endloop
 endfacet
 facet normal 0.736485 -0.676336 0.012594
  outer loop
   vertex 0.004817 -0.230221 -0.030299
   vertex 0.002611 -0.232528 -0.025187
   vertex 0.003622 -0.231543 -0.031412
  endloop
 endfacet
 facet normal 0.843369 -0.521747 0.128483
  outer loop
   vertex 0.002611 -0.232528 -0.025187
   vertex 0.004817 -0.230221 -0.030299
   vertex 0.004889 -0.229356 -0.027259
  endloop
 endfacet
 facet normal 0.948756 0.171064 0.265705
  outer loop
   vertex 0.004709 -0.22545 -0.029131
   vertex 0.002632 -0.228528 -0.019733
   vertex 0.004889 -0.229356 -0.027259
  endloop
 endfacet
 facet normal 0.683972 0.634987 0.359129
  outer loop
   vertex 0.00096 -0.224825 -0.023096
   vertex 0.002632 -0.228528 -0.019733
   vertex 0.004709 -0.22545 -0.029131
  endloop
 endfacet
 facet normal 0.823779 0.300686 0.4806
  outer loop
   vertex 0.00096 -0.224825 -0.023096
   vertex 0.004709 -0.22545 -0.029131
   vertex -0.005214 -0.219404 -0.015905
  endloop
 endfacet
 facet normal 0.582424 0.290332 0.759269
  outer loop
   vertex -0.006479 -0.214361 -0.016863
   vertex -0.005214 -0.219404 -0.015905
   vertex -0.003106 -0.209231 -0.021412
  endloop
 endfacet
 facet normal 0.517991 0.351091 0.780013
  outer loop
   vertex -0.010531 -0.208876 -0.016641
   vertex -0.006479 -0.214361 -0.016863
   vertex -0.003106 -0.209231 -0.021412
  endloop
 endfacet
 facet normal 0.406189 0.26467 0.87462
  outer loop
   vertex -0.006479 -0.214361 -0.016863
   vertex -0.010531 -0.208876 -0.016641
   vertex -0.010012 -0.214441 -0.015198
  endloop
 endfacet
 facet normal 0.91858 0.0232401 0.39455
  outer loop
   vertex -0.003106 -0.209231 -0.021412
   vertex -0.005214 -0.219404 -0.015905
   vertex 0.001638 -0.216138 -0.03205
  endloop
 endfacet
 facet normal 0.811332 0.400929 0.425437
  outer loop
   vertex 0.004709 -0.22545 -0.029131
   vertex 0.001638 -0.216138 -0.03205
   vertex -0.005214 -0.219404 -0.015905
  endloop
 endfacet
 facet normal -0.951918 -0.116907 0.283171
  outer loop
   vertex -0.017714 -0.225712 -0.02861
   vertex -0.016276 -0.231489 -0.026161
   vertex -0.016791 -0.226552 -0.025854
  endloop
 endfacet
 facet normal -0.787221 -0.396259 -0.472506
  outer loop
   vertex -0.017714 -0.225712 -0.02861
   vertex -0.015321 -0.232827 -0.02663
   vertex -0.016276 -0.231489 -0.026161
  endloop
 endfacet
 facet normal -0.756232 -0.616538 -0.219076
  outer loop
   vertex -0.014596 -0.233642 -0.026839
   vertex -0.015604 -0.232902 -0.025442
   vertex -0.015321 -0.232827 -0.02663
  endloop
 endfacet
 facet normal -0.637563 -0.397998 -0.659629
  outer loop
   vertex -0.017714 -0.225712 -0.02861
   vertex -0.014596 -0.233642 -0.026839
   vertex -0.015321 -0.232827 -0.02663
  endloop
 endfacet
 facet normal -0.511979 -0.579896 -0.633718
  outer loop
   vertex -0.014596 -0.233642 -0.026839
   vertex -0.012831 -0.230181 -0.031432
   vertex -0.010171 -0.23462 -0.029519
  endloop
 endfacet
 facet normal -0.706883 -0.407118 -0.578421
  outer loop
   vertex -0.017714 -0.225712 -0.02861
   vertex -0.012831 -0.230181 -0.031432
   vertex -0.014596 -0.233642 -0.026839
  endloop
 endfacet
 facet normal 0.941801 -0.288511 -0.172544
  outer loop
   vertex 0.001706 -0.235556 -0.03516
   vertex 0.003622 -0.231543 -0.031412
   vertex 0.001925 -0.236103 -0.03305
  endloop
 endfacet
 facet normal 0.770186 -0.593432 -0.233779
  outer loop
   vertex 0.001925 -0.236103 -0.03305
   vertex 0.000171 -0.237757 -0.03463
   vertex 0.001706 -0.235556 -0.03516
  endloop
 endfacet
 facet normal 0.895819 -0.444073 0.0175224
  outer loop
   vertex 0.00417 -0.230514 -0.03335
   vertex 0.003622 -0.231543 -0.031412
   vertex 0.001706 -0.235556 -0.03516
  endloop
 endfacet
 facet normal 0.780532 -0.616 -0.106364
  outer loop
   vertex 0.00417 -0.230514 -0.03335
   vertex 0.004817 -0.230221 -0.030299
   vertex 0.003622 -0.231543 -0.031412
  endloop
 endfacet
 facet normal -0.418133 -0.770706 -0.480808
  outer loop
   vertex -0.00176 -0.238496 -0.033939
   vertex -0.004768 -0.236899 -0.033883
   vertex -0.002656 -0.236867 -0.035771
  endloop
 endfacet
 facet normal 0.0404513 -0.736777 -0.674924
  outer loop
   vertex -0.00176 -0.238496 -0.033939
   vertex -0.002656 -0.236867 -0.035771
   vertex 0.000171 -0.237757 -0.03463
  endloop
 endfacet
 facet normal 0.132469 -0.595268 -0.792532
  outer loop
   vertex -0.001335 -0.235448 -0.036616
   vertex 0.000171 -0.237757 -0.03463
   vertex -0.002656 -0.236867 -0.035771
  endloop
 endfacet
 facet normal 0.371573 -0.454129 -0.809753
  outer loop
   vertex 0.000171 -0.237757 -0.03463
   vertex -0.001335 -0.235448 -0.036616
   vertex 0.001706 -0.235556 -0.03516
  endloop
 endfacet
 facet normal -0.443683 -0.323854 -0.835622
  outer loop
   vertex -0.0041 -0.232077 -0.035333
   vertex -0.00706 -0.234733 -0.032732
   vertex -0.012831 -0.230181 -0.031432
  endloop
 endfacet
 facet normal -0.563013 -0.165488 -0.80971
  outer loop
   vertex -0.0041 -0.232077 -0.035333
   vertex -0.004768 -0.236899 -0.033883
   vertex -0.00706 -0.234733 -0.032732
  endloop
 endfacet
 facet normal -0.6596 -0.131171 -0.740082
  outer loop
   vertex -0.002656 -0.236867 -0.035771
   vertex -0.004768 -0.236899 -0.033883
   vertex -0.0041 -0.232077 -0.035333
  endloop
 endfacet
 facet normal -0.426991 -0.0933166 -0.899428
  outer loop
   vertex -0.00262 -0.230562 -0.03624
   vertex -0.012831 -0.230181 -0.031432
   vertex -0.016491 -0.225106 -0.030221
  endloop
 endfacet
 facet normal -0.426586 -0.11996 -0.896456
  outer loop
   vertex -0.012831 -0.230181 -0.031432
   vertex -0.00262 -0.230562 -0.03624
   vertex -0.0041 -0.232077 -0.035333
  endloop
 endfacet
 facet normal -0.68364 -0.338779 -0.646425
  outer loop
   vertex -0.017714 -0.225712 -0.02861
   vertex -0.016491 -0.225106 -0.030221
   vertex -0.012831 -0.230181 -0.031432
  endloop
 endfacet
 facet normal -0.364989 0.0569176 0.92927
  outer loop
   vertex -0.014505 -0.209184 -0.018183
   vertex -0.010531 -0.208876 -0.016641
   vertex -0.011755 -0.194929 -0.017976
  endloop
 endfacet
 facet normal -0.213448 0.0745089 0.974109
  outer loop
   vertex -0.011755 -0.194929 -0.017976
   vertex -0.010531 -0.208876 -0.016641
   vertex -0.007865 -0.187825 -0.017667
  endloop
 endfacet
 facet normal 0.426537 -0.0099387 0.904415
  outer loop
   vertex -0.007865 -0.187825 -0.017667
   vertex -0.010531 -0.208876 -0.016641
   vertex -0.003824 -0.184567 -0.019537
  endloop
 endfacet
 facet normal 0.538314 -0.0482906 0.84136
  outer loop
   vertex -0.010531 -0.208876 -0.016641
   vertex -0.003106 -0.209231 -0.021412
   vertex -0.003824 -0.184567 -0.019537
  endloop
 endfacet
 facet normal -0.991949 0.0922397 0.0867654
  outer loop
   vertex -0.016791 -0.226552 -0.025854
   vertex -0.014505 -0.209184 -0.018183
   vertex -0.015071 -0.208991 -0.024859
  endloop
 endfacet
 facet normal -0.978293 0.187444 0.0883599
  outer loop
   vertex -0.011755 -0.194929 -0.017976
   vertex -0.015071 -0.208991 -0.024859
   vertex -0.014505 -0.209184 -0.018183
  endloop
 endfacet
 facet normal -0.938814 0.0728783 0.336627
  outer loop
   vertex -0.015071 -0.208991 -0.024859
   vertex -0.017714 -0.225712 -0.02861
   vertex -0.016791 -0.226552 -0.025854
  endloop
 endfacet
 facet normal 0.998542 0.0523473 0.0132112
  outer loop
   vertex 0.004859 -0.227537 -0.032199
   vertex 0.004709 -0.22545 -0.029131
   vertex 0.004889 -0.229356 -0.027259
  endloop
 endfacet
 facet normal 0.999508 -0.0269666 -0.0159995
  outer loop
   vertex 0.004817 -0.230221 -0.030299
   vertex 0.004859 -0.227537 -0.032199
   vertex 0.004889 -0.229356 -0.027259
  endloop
 endfacet
 facet normal 0.969932 -0.150548 -0.191228
  outer loop
   vertex 0.004859 -0.227537 -0.032199
   vertex 0.004817 -0.230221 -0.030299
   vertex 0.00417 -0.230514 -0.03335
  endloop
 endfacet
 facet normal 0.952671 0.270996 -0.137767
  outer loop
   vertex 0.004709 -0.22545 -0.029131
   vertex 0.004859 -0.227537 -0.032199
   vertex 0.001638 -0.216138 -0.03205
  endloop
 endfacet
 facet normal 0.879763 -0.0105218 0.475296
  outer loop
   vertex -0.003106 -0.209231 -0.021412
   vertex -0.000879 -0.187407 -0.025051
   vertex -0.003824 -0.184567 -0.019537
  endloop
 endfacet
 facet normal 0.907509 -0.0226699 0.419421
  outer loop
   vertex -0.000879 -0.187407 -0.025051
   vertex -0.003106 -0.209231 -0.021412
   vertex 0.001638 -0.216138 -0.03205
  endloop
 endfacet
 facet normal 0.161436 0.139362 -0.976994
  outer loop
   vertex -0.004849 -0.208294 -0.032003
   vertex -0.001127 -0.194182 -0.029375
   vertex 0.001638 -0.216138 -0.03205
  endloop
 endfacet
 facet normal 0.942365 0.154813 -0.296616
  outer loop
   vertex 0.001638 -0.216138 -0.03205
   vertex -0.001127 -0.194182 -0.029375
   vertex -0.000879 -0.187407 -0.025051
  endloop
 endfacet
 facet normal 0.57893 0.174 -0.796595
  outer loop
   vertex 0.001638 -0.216138 -0.03205
   vertex 0.004859 -0.227537 -0.032199
   vertex 0.00417 -0.230514 -0.03335
  endloop
 endfacet
 facet normal 0.240543 0.204614 -0.948827
  outer loop
   vertex -0.004849 -0.208294 -0.032003
   vertex 0.001638 -0.216138 -0.03205
   vertex -0.00262 -0.230562 -0.03624
  endloop
 endfacet
 facet normal 0.395582 0.146596 -0.906656
  outer loop
   vertex -0.00262 -0.230562 -0.03624
   vertex 0.001638 -0.216138 -0.03205
   vertex 0.001706 -0.235556 -0.03516
  endloop
 endfacet
 facet normal 0.370414 0.14816 -0.916974
  outer loop
   vertex 0.001638 -0.216138 -0.03205
   vertex 0.00417 -0.230514 -0.03335
   vertex 0.001706 -0.235556 -0.03516
  endloop
 endfacet
 facet normal -0.887668 0.229823 -0.399032
  outer loop
   vertex -0.015071 -0.208991 -0.024859
   vertex -0.016345 -0.222652 -0.029893
   vertex -0.017714 -0.225712 -0.02861
  endloop
 endfacet
 facet normal -0.812284 0.124489 -0.569822
  outer loop
   vertex -0.017714 -0.225712 -0.02861
   vertex -0.016345 -0.222652 -0.029893
   vertex -0.016491 -0.225106 -0.030221
  endloop
 endfacet
 facet normal 0.429926 0.181136 -0.884507
  outer loop
   vertex 0.001706 -0.235556 -0.03516
   vertex -0.001335 -0.235448 -0.036616
   vertex -0.00262 -0.230562 -0.03624
  endloop
 endfacet
 facet normal -0.474114 -0.0626207 -0.878234
  outer loop
   vertex -0.00262 -0.230562 -0.03624
   vertex -0.002656 -0.236867 -0.035771
   vertex -0.0041 -0.232077 -0.035333
  endloop
 endfacet
 facet normal -0.489796 -0.0618917 -0.869638
  outer loop
   vertex -0.002656 -0.236867 -0.035771
   vertex -0.00262 -0.230562 -0.03624
   vertex -0.001335 -0.235448 -0.036616
  endloop
 endfacet
 facet normal -0.345514 0.144489 -0.927223
  outer loop
   vertex -0.016491 -0.225106 -0.030221
   vertex -0.016345 -0.222652 -0.029893
   vertex -0.00262 -0.230562 -0.03624
  endloop
 endfacet
 facet normal 0.0547591 0.191926 -0.97988
  outer loop
   vertex -0.00262 -0.230562 -0.03624
   vertex -0.011011 -0.196621 -0.030061
   vertex -0.004849 -0.208294 -0.032003
  endloop
 endfacet
 facet normal -0.3838 0.0727031 -0.92055
  outer loop
   vertex -0.00262 -0.230562 -0.03624
   vertex -0.016345 -0.222652 -0.029893
   vertex -0.011011 -0.196621 -0.030061
  endloop
 endfacet
 facet normal -0.0252148 -0.0296567 0.999242
  outer loop
   vertex -0.007865 -0.187825 -0.017667
   vertex -0.008743 -0.146781 -0.016471
   vertex -0.011755 -0.194929 -0.017976
  endloop
 endfacet
 facet normal -0.957334 0.0915939 0.274085
  outer loop
   vertex -0.013017 -0.187801 -0.024766
   vertex -0.015071 -0.208991 -0.024859
   vertex -0.011755 -0.194929 -0.017976
  endloop
 endfacet
 facet normal -0.97022 0.0533083 0.236288
  outer loop
   vertex -0.013017 -0.187801 -0.024766
   vertex -0.011755 -0.194929 -0.017976
   vertex -0.008743 -0.146781 -0.016471
  endloop
 endfacet
 facet normal 0.431206 -0.0170622 0.902092
  outer loop
   vertex -0.003824 -0.184567 -0.019537
   vertex -0.008743 -0.146781 -0.016471
   vertex -0.007865 -0.187825 -0.017667
  endloop
 endfacet
 facet normal 0.447595 -0.0142819 0.894122
  outer loop
   vertex -0.008743 -0.146781 -0.016471
   vertex -0.003824 -0.184567 -0.019537
   vertex 0.00128 -0.141554 -0.021405
  endloop
 endfacet
 facet normal 0.861408 -0.0804366 0.501503
  outer loop
   vertex -0.000879 -0.187407 -0.025051
   vertex 0.00128 -0.141554 -0.021405
   vertex -0.003824 -0.184567 -0.019537
  endloop
 endfacet
 facet normal -0.99528 0.0965191 -0.0100437
  outer loop
   vertex -0.016345 -0.222652 -0.029893
   vertex -0.015071 -0.208991 -0.024859
   vertex -0.013017 -0.187801 -0.024766
  endloop
 endfacet
 facet normal 0.988823 -0.0350358 -0.144918
  outer loop
   vertex 0.00128 -0.141554 -0.021405
   vertex -0.000879 -0.187407 -0.025051
   vertex -0.000488 -0.170097 -0.026568
  endloop
 endfacet
 facet normal 0.999519 -0.0242688 -0.0193016
  outer loop
   vertex -0.000879 -0.187407 -0.025051
   vertex -0.001127 -0.194182 -0.029375
   vertex -0.000488 -0.170097 -0.026568
  endloop
 endfacet
 facet normal 0.518408 0.0854098 -0.850857
  outer loop
   vertex -0.00405 -0.183105 -0.030044
   vertex -0.000488 -0.170097 -0.026568
   vertex -0.001127 -0.194182 -0.029375
  endloop
 endfacet
 facet normal 0.422754 0.0569314 -0.904455
  outer loop
   vertex -0.001127 -0.194182 -0.029375
   vertex -0.004849 -0.208294 -0.032003
   vertex -0.00405 -0.183105 -0.030044
  endloop
 endfacet
 facet normal -0.155849 0.0815033 -0.984413
  outer loop
   vertex -0.011011 -0.196621 -0.030061
   vertex -0.00405 -0.183105 -0.030044
   vertex -0.004849 -0.208294 -0.032003
  endloop
 endfacet
 facet normal -0.603206 0.118512 -0.788732
  outer loop
   vertex -0.010782 -0.180135 -0.027759
   vertex -0.011011 -0.196621 -0.030061
   vertex -0.016345 -0.222652 -0.029893
  endloop
 endfacet
 facet normal -0.930375 0.138764 -0.339333
  outer loop
   vertex -0.010782 -0.180135 -0.027759
   vertex -0.016345 -0.222652 -0.029893
   vertex -0.013017 -0.187801 -0.024766
  endloop
 endfacet
 facet normal -0.0670838 0.0358035 -0.997105
  outer loop
   vertex -0.011011 -0.196621 -0.030061
   vertex -0.006709 -0.169985 -0.029394
   vertex -0.00405 -0.183105 -0.030044
  endloop
 endfacet
 facet normal -0.608912 0.117989 -0.784413
  outer loop
   vertex -0.006709 -0.169985 -0.029394
   vertex -0.011011 -0.196621 -0.030061
   vertex -0.010782 -0.180135 -0.027759
  endloop
 endfacet
 facet normal 0.509259 -0.182663 0.841005
  outer loop
   vertex 0.00128 -0.141554 -0.021405
   vertex -0.006915 -0.108148 -0.009187
   vertex -0.008743 -0.146781 -0.016471
  endloop
 endfacet
 facet normal -0.994776 0.0976057 0.029884
  outer loop
   vertex -0.013017 -0.187801 -0.024766
   vertex -0.008743 -0.146781 -0.016471
   vertex -0.009404 -0.150746 -0.025524
  endloop
 endfacet
 facet normal -0.99777 0.0256892 0.0616004
  outer loop
   vertex -0.007713 -0.101541 -0.018654
   vertex -0.009404 -0.150746 -0.025524
   vertex -0.008743 -0.146781 -0.016471
  endloop
 endfacet
 facet normal -0.99429 0.0276115 0.103082
  outer loop
   vertex -0.006915 -0.108148 -0.009187
   vertex -0.007713 -0.101541 -0.018654
   vertex -0.008743 -0.146781 -0.016471
  endloop
 endfacet
 facet normal -0.898479 0.0945699 -0.428709
  outer loop
   vertex -0.013017 -0.187801 -0.024766
   vertex -0.008273 -0.154829 -0.027435
   vertex -0.010782 -0.180135 -0.027759
  endloop
 endfacet
 facet normal -0.791944 0.0647976 -0.607146
  outer loop
   vertex -0.013017 -0.187801 -0.024766
   vertex -0.009404 -0.150746 -0.025524
   vertex -0.008273 -0.154829 -0.027435
  endloop
 endfacet
 facet normal 0.551762 -0.163738 0.81777
  outer loop
   vertex 0.004237 -0.074194 -0.009913
   vertex -0.006915 -0.108148 -0.009187
   vertex 0.00128 -0.141554 -0.021405
  endloop
 endfacet
 facet normal 0.997831 -0.0509215 0.0417234
  outer loop
   vertex 0.004237 -0.074194 -0.009913
   vertex 0.00128 -0.141554 -0.021405
   vertex 0.002744 -0.112028 -0.020382
  endloop
 endfacet
 facet normal 0.843519 0.0445691 -0.535246
  outer loop
   vertex -0.002631 -0.136804 -0.027173
   vertex 0.00128 -0.141554 -0.021405
   vertex -0.000488 -0.170097 -0.026568
  endloop
 endfacet
 facet normal 0.819232 -0.0213525 -0.573065
  outer loop
   vertex 0.00128 -0.141554 -0.021405
   vertex -0.002631 -0.136804 -0.027173
   vertex 0.000514 -0.11155 -0.023618
  endloop
 endfacet
 facet normal 0.821783 -0.0210181 -0.569413
  outer loop
   vertex 0.000514 -0.11155 -0.023618
   vertex 0.002744 -0.112028 -0.020382
   vertex 0.00128 -0.141554 -0.021405
  endloop
 endfacet
 facet normal 0.644673 0.0276136 -0.763959
  outer loop
   vertex -0.000488 -0.170097 -0.026568
   vertex -0.00405 -0.183105 -0.030044
   vertex -0.002631 -0.136804 -0.027173
  endloop
 endfacet
 facet normal 0.0532516 0.0601748 -0.996766
  outer loop
   vertex -0.006709 -0.169985 -0.029394
   vertex -0.002631 -0.136804 -0.027173
   vertex -0.00405 -0.183105 -0.030044
  endloop
 endfacet
 facet normal -0.497904 0.0604419 -0.865123
  outer loop
   vertex -0.006709 -0.169985 -0.029394
   vertex -0.010782 -0.180135 -0.027759
   vertex -0.008273 -0.154829 -0.027435
  endloop
 endfacet
 facet normal -0.425625 0.0726642 -0.901978
  outer loop
   vertex -0.008273 -0.154829 -0.027435
   vertex -0.005385 -0.145584 -0.028053
   vertex -0.006709 -0.169985 -0.029394
  endloop
 endfacet
 facet normal 0.171747 0.0447653 -0.984124
  outer loop
   vertex -0.002631 -0.136804 -0.027173
   vertex -0.006709 -0.169985 -0.029394
   vertex -0.005385 -0.145584 -0.028053
  endloop
 endfacet
 facet normal 0.525281 -0.154634 0.836761
  outer loop
   vertex 0.004237 -0.074194 -0.009913
   vertex -0.005447 -0.07709 -0.004369
   vertex -0.006915 -0.108148 -0.009187
  endloop
 endfacet
 facet normal -0.997193 -0.0154866 0.0732482
  outer loop
   vertex -0.007713 -0.101541 -0.018654
   vertex -0.006915 -0.108148 -0.009187
   vertex -0.007081 -0.077017 -0.004865
  endloop
 endfacet
 facet normal -0.293318 -0.133 0.946718
  outer loop
   vertex -0.007081 -0.077017 -0.004865
   vertex -0.006915 -0.108148 -0.009187
   vertex -0.005447 -0.07709 -0.004369
  endloop
 endfacet
 facet normal -0.554271 0.0239257 -0.831992
  outer loop
   vertex -0.009404 -0.150746 -0.025524
   vertex -0.007344 -0.136928 -0.026499
   vertex -0.005385 -0.145584 -0.028053
  endloop
 endfacet
 facet normal -0.663553 0.158408 -0.731166
  outer loop
   vertex -0.009404 -0.150746 -0.025524
   vertex -0.005385 -0.145584 -0.028053
   vertex -0.008273 -0.154829 -0.027435
  endloop
 endfacet
 facet normal -0.873666 0.0966011 -0.47684
  outer loop
   vertex -0.007344 -0.136928 -0.026499
   vertex -0.009404 -0.150746 -0.025524
   vertex -0.007713 -0.101541 -0.018654
  endloop
 endfacet
 facet normal -0.434498 0.158418 -0.886631
  outer loop
   vertex -0.004357 -0.039016 -0.009127
   vertex -0.002792 -0.075317 -0.01638
   vertex -0.007713 -0.101541 -0.018654
  endloop
 endfacet
 facet normal -0.905476 -0.105084 0.411181
  outer loop
   vertex -0.005179 -0.061822 -0.002923
   vertex -0.006724 -0.046001 -0.002282
   vertex -0.007713 -0.101541 -0.018654
  endloop
 endfacet
 facet normal -0.476635 0.18553 -0.859301
  outer loop
   vertex -0.001008 -0.106362 -0.023414
   vertex -0.007344 -0.136928 -0.026499
   vertex -0.007713 -0.101541 -0.018654
  endloop
 endfacet
 facet normal -0.488711 0.16598 -0.856512
  outer loop
   vertex -0.001008 -0.106362 -0.023414
   vertex -0.007713 -0.101541 -0.018654
   vertex -0.002792 -0.075317 -0.01638
  endloop
 endfacet
 facet normal -0.963952 0.148848 -0.220547
  outer loop
   vertex -0.005179 -0.061822 -0.002923
   vertex -0.007713 -0.101541 -0.018654
   vertex -0.007081 -0.077017 -0.004865
  endloop
 endfacet
 facet normal -0.965875 0.0889103 -0.243271
  outer loop
   vertex -0.006724 -0.046001 -0.002282
   vertex -0.004357 -0.039016 -0.009127
   vertex -0.007713 -0.101541 -0.018654
  endloop
 endfacet
 facet normal 0.539159 -0.287402 0.791649
  outer loop
   vertex 0.004237 -0.074194 -0.009913
   vertex 0.00346 -0.066548 -0.006608
   vertex -0.005447 -0.07709 -0.004369
  endloop
 endfacet
 facet normal 0.991987 -0.00420641 -0.126267
  outer loop
   vertex 0.004237 -0.074194 -0.009913
   vertex 0.002744 -0.112028 -0.020382
   vertex 0.003693 -0.075809 -0.014133
  endloop
 endfacet
 facet normal 0.964051 0.181753 -0.193833
  outer loop
   vertex 0.003693 -0.075809 -0.014133
   vertex 0.00346 -0.066548 -0.006608
   vertex 0.004237 -0.074194 -0.009913
  endloop
 endfacet
 facet normal 0.826237 0.0743891 -0.55839
  outer loop
   vertex 0.000514 -0.11155 -0.023618
   vertex 0.00133 -0.084748 -0.01884
   vertex 0.002744 -0.112028 -0.020382
  endloop
 endfacet
 facet normal 0.827451 0.0743506 -0.556594
  outer loop
   vertex 0.00133 -0.084748 -0.01884
   vertex 0.003693 -0.075809 -0.014133
   vertex 0.002744 -0.112028 -0.020382
  endloop
 endfacet
 facet normal 0.259403 0.104721 -0.960075
  outer loop
   vertex -0.003914 -0.131994 -0.026995
   vertex -0.001008 -0.106362 -0.023414
   vertex -0.002631 -0.136804 -0.027173
  endloop
 endfacet
 facet normal 0.108054 0.0655313 -0.991983
  outer loop
   vertex -0.002631 -0.136804 -0.027173
   vertex -0.005385 -0.145584 -0.028053
   vertex -0.003914 -0.131994 -0.026995
  endloop
 endfacet
 facet normal 0.234555 0.106804 -0.966218
  outer loop
   vertex -0.002631 -0.136804 -0.027173
   vertex -0.001008 -0.106362 -0.023414
   vertex 0.000514 -0.11155 -0.023618
  endloop
 endfacet
 facet normal 0.389863 0.150099 -0.908558
  outer loop
   vertex -0.001008 -0.106362 -0.023414
   vertex 0.00133 -0.084748 -0.01884
   vertex 0.000514 -0.11155 -0.023618
  endloop
 endfacet
 facet normal -0.289164 0.105372 -0.951462
  outer loop
   vertex -0.003914 -0.131994 -0.026995
   vertex -0.005385 -0.145584 -0.028053
   vertex -0.007344 -0.136928 -0.026499
  endloop
 endfacet
 facet normal -0.292887 -0.0850546 0.952356
  outer loop
   vertex -0.005179 -0.061822 -0.002923
   vertex -0.007081 -0.077017 -0.004865
   vertex -0.005447 -0.07709 -0.004369
  endloop
 endfacet
 facet normal 0.346425 -0.0944725 0.933308
  outer loop
   vertex -0.005179 -0.061822 -0.002923
   vertex -0.005447 -0.07709 -0.004369
   vertex 0.00346 -0.066548 -0.006608
  endloop
 endfacet
 facet normal -0.376111 0.169897 -0.910865
  outer loop
   vertex -0.003914 -0.131994 -0.026995
   vertex -0.007344 -0.136928 -0.026499
   vertex -0.001008 -0.106362 -0.023414
  endloop
 endfacet
 facet normal -0.0877973 0.215318 -0.972589
  outer loop
   vertex 0.00133 -0.084748 -0.01884
   vertex -0.001008 -0.106362 -0.023414
   vertex -0.002792 -0.075317 -0.01638
  endloop
 endfacet
 facet normal 0.0396991 0.268408 -0.962487
  outer loop
   vertex -0.002792 -0.075317 -0.01638
   vertex 0.001031 -0.075384 -0.016241
   vertex 0.00133 -0.084748 -0.01884
  endloop
 endfacet
 facet normal 0.0389585 0.186206 -0.981738
  outer loop
   vertex -0.002792 -0.075317 -0.01638
   vertex -0.000632 -0.032441 -0.008162
   vertex 0.001031 -0.075384 -0.016241
  endloop
 endfacet
 facet normal -0.0850555 0.191692 -0.977763
  outer loop
   vertex -0.002792 -0.075317 -0.01638
   vertex -0.004357 -0.039016 -0.009127
   vertex -0.000632 -0.032441 -0.008162
  endloop
 endfacet
 facet normal -0.216561 0.26077 -0.940798
  outer loop
   vertex -0.000632 -0.032441 -0.008162
   vertex -0.004357 -0.039016 -0.009127
   vertex -0.003284 -0.023968 -0.005203
  endloop
 endfacet
 facet normal -0.933137 -0.034479 -0.357863
  outer loop
   vertex -0.006724 -0.046001 -0.002282
   vertex -0.006506 -0.030551 -0.004339
   vertex -0.004357 -0.039016 -0.009127
  endloop
 endfacet
 facet normal -0.665214 0.232458 -0.709545
  outer loop
   vertex -0.003284 -0.023968 -0.005203
   vertex -0.004357 -0.039016 -0.009127
   vertex -0.006506 -0.030551 -0.004339
  endloop
 endfacet
 facet normal -0.785153 -0.101427 0.61094
  outer loop
   vertex -0.005179 -0.061822 -0.002923
   vertex -0.003637 -0.027095 0.004824
   vertex -0.006724 -0.046001 -0.002282
  endloop
 endfacet
 facet normal -0.597927 -0.194624 0.777563
  outer loop
   vertex -0.006724 -0.046001 -0.002282
   vertex -0.003637 -0.027095 0.004824
   vertex -0.006663 -0.026528 0.002639
  endloop
 endfacet
 facet normal -0.98225 -0.011071 -0.187252
  outer loop
   vertex -0.006506 -0.030551 -0.004339
   vertex -0.006724 -0.046001 -0.002282
   vertex -0.007226 -0.027171 -0.000762
  endloop
 endfacet
 facet normal -0.984537 -0.0400141 0.170545
  outer loop
   vertex -0.007226 -0.027171 -0.000762
   vertex -0.006724 -0.046001 -0.002282
   vertex -0.006663 -0.026528 0.002639
  endloop
 endfacet
 facet normal 0.278542 -0.219825 0.934929
  outer loop
   vertex -0.005179 -0.061822 -0.002923
   vertex 0.00346 -0.066548 -0.006608
   vertex 0.003416 -0.048575 -0.002369
  endloop
 endfacet
 facet normal -0.164586 -0.207794 0.964227
  outer loop
   vertex -0.003637 -0.027095 0.004824
   vertex -0.005179 -0.061822 -0.002923
   vertex -0.000447 -0.04364 0.001803
  endloop
 endfacet
 facet normal 0.461406 -0.33375 0.822019
  outer loop
   vertex -0.000447 -0.04364 0.001803
   vertex -0.005179 -0.061822 -0.002923
   vertex 0.003416 -0.048575 -0.002369
  endloop
 endfacet
 facet normal 0.995382 0.0743625 -0.0606974
  outer loop
   vertex 0.00346 -0.066548 -0.006608
   vertex 0.003693 -0.075809 -0.014133
   vertex 0.00281 -0.061447 -0.011018
  endloop
 endfacet
 facet normal 0.993193 0.0290364 -0.112803
  outer loop
   vertex 0.00281 -0.061447 -0.011018
   vertex 0.003416 -0.048575 -0.002369
   vertex 0.00346 -0.066548 -0.006608
  endloop
 endfacet
 facet normal 0.626622 0.226938 -0.74555
  outer loop
   vertex 0.003693 -0.075809 -0.014133
   vertex 0.00133 -0.084748 -0.01884
   vertex 0.001031 -0.075384 -0.016241
  endloop
 endfacet
 facet normal 0.62764 0.201675 -0.751928
  outer loop
   vertex 0.00281 -0.061447 -0.011018
   vertex 0.003693 -0.075809 -0.014133
   vertex 0.001031 -0.075384 -0.016241
  endloop
 endfacet
 facet normal 0.737741 0.152301 -0.657679
  outer loop
   vertex 0.00281 -0.061447 -0.011018
   vertex 0.001031 -0.075384 -0.016241
   vertex -0.000632 -0.032441 -0.008162
  endloop
 endfacet
 facet normal 0.514136 0.144259 -0.84549
  outer loop
   vertex -0.000632 -0.032441 -0.008162
   vertex 0.002935 -0.018762 -0.003659
   vertex 0.00281 -0.061447 -0.011018
  endloop
 endfacet
 facet normal 0.362108 0.204919 -0.909333
  outer loop
   vertex 0.002935 -0.018762 -0.003659
   vertex -0.000632 -0.032441 -0.008162
   vertex -5.6e-05 -0.018105 -0.004702
  endloop
 endfacet
 facet normal -0.283894 0.235725 -0.929429
  outer loop
   vertex -0.003284 -0.023968 -0.005203
   vertex -5.6e-05 -0.018105 -0.004702
   vertex -0.000632 -0.032441 -0.008162
  endloop
 endfacet
 facet normal -0.497021 0.130674 -0.857843
  outer loop
   vertex -0.003284 -0.023968 -0.005203
   vertex -0.006506 -0.030551 -0.004339
   vertex -0.006578 -0.018017 -0.002388
  endloop
 endfacet
 facet normal 0.0348071 0.0660488 -0.997209
  outer loop
   vertex -5.6e-05 -0.018105 -0.004702
   vertex -0.003284 -0.023968 -0.005203
   vertex -0.004396 -0.013991 -0.004581
  endloop
 endfacet
 facet normal -0.680318 -0.0301719 -0.732296
  outer loop
   vertex -0.006578 -0.018017 -0.002388
   vertex -0.004396 -0.013991 -0.004581
   vertex -0.003284 -0.023968 -0.005203
  endloop
 endfacet
 facet normal -0.974217 0.0292261 -0.223713
  outer loop
   vertex -0.006506 -0.030551 -0.004339
   vertex -0.007226 -0.027171 -0.000762
   vertex -0.006578 -0.018017 -0.002388
  endloop
 endfacet
 facet normal -0.570476 0.097909 0.815458
  outer loop
   vertex -0.005425 -0.023554 0.003148
   vertex -0.006663 -0.026528 0.002639
   vertex -0.003637 -0.027095 0.004824
  endloop
 endfacet
 facet normal -0.354861 0.247533 0.901555
  outer loop
   vertex -0.001207 -0.024063 0.004948
   vertex -0.005425 -0.023554 0.003148
   vertex -0.003637 -0.027095 0.004824
  endloop
 endfacet
 facet normal -0.217136 -0.215696 0.952012
  outer loop
   vertex 0.000868 -0.035545 0.003937
   vertex -0.003637 -0.027095 0.004824
   vertex -0.000447 -0.04364 0.001803
  endloop
 endfacet
 facet normal -0.159766 -0.186924 0.969296
  outer loop
   vertex -0.003637 -0.027095 0.004824
   vertex 0.000868 -0.035545 0.003937
   vertex 0.001047 -0.031617 0.004724
  endloop
 endfacet
 facet normal -0.0102173 -0.0326844 0.999413
  outer loop
   vertex -0.003637 -0.027095 0.004824
   vertex 0.001047 -0.031617 0.004724
   vertex -0.001207 -0.024063 0.004948
  endloop
 endfacet
 facet normal -0.48878 0.054445 0.870707
  outer loop
   vertex -0.006663 -0.026528 0.002639
   vertex -0.005425 -0.023554 0.003148
   vertex -0.006546 -0.018377 0.002195
  endloop
 endfacet
 facet normal -0.987003 0.0228324 0.159071
  outer loop
   vertex -0.007226 -0.027171 -0.000762
   vertex -0.006663 -0.026528 0.002639
   vertex -0.006546 -0.018377 0.002195
  endloop
 endfacet
 facet normal -0.936548 0.00403558 -0.350517
  outer loop
   vertex -0.007226 -0.027171 -0.000762
   vertex -0.007401 -0.016017 -0.000166
   vertex -0.006578 -0.018017 -0.002388
  endloop
 endfacet
 facet normal -0.949469 -0.0315822 0.312267
  outer loop
   vertex -0.006546 -0.018377 0.002195
   vertex -0.007401 -0.016017 -0.000166
   vertex -0.007226 -0.027171 -0.000762
  endloop
 endfacet
 facet normal 0.99732 0.00218961 -0.0731368
  outer loop
   vertex 0.003479 -0.044503 -0.001388
   vertex 0.003416 -0.048575 -0.002369
   vertex 0.00281 -0.061447 -0.011018
  endloop
 endfacet
 facet normal 0.493677 -0.302759 0.815242
  outer loop
   vertex -0.000447 -0.04364 0.001803
   vertex 0.003416 -0.048575 -0.002369
   vertex 0.002715 -0.044268 -0.000345
  endloop
 endfacet
 facet normal 0.779247 -0.158154 0.606434
  outer loop
   vertex 0.002715 -0.044268 -0.000345
   vertex 0.003416 -0.048575 -0.002369
   vertex 0.003479 -0.044503 -0.001388
  endloop
 endfacet
 facet normal 0.253387 -0.28487 0.92447
  outer loop
   vertex 0.00234 -0.040314 0.002064
   vertex 0.000868 -0.035545 0.003937
   vertex -0.000447 -0.04364 0.001803
  endloop
 endfacet
 facet normal 0.445407 -0.43465 0.782746
  outer loop
   vertex -0.000447 -0.04364 0.001803
   vertex 0.002715 -0.044268 -0.000345
   vertex 0.00234 -0.040314 0.002064
  endloop
 endfacet
 facet normal 0.995831 -0.0715056 0.0566335
  outer loop
   vertex 0.003479 -0.044503 -0.001388
   vertex 0.00281 -0.061447 -0.011018
   vertex 0.004772 -0.024184 0.001531
  endloop
 endfacet
 facet normal 0.988342 -0.000766001 -0.15225
  outer loop
   vertex 0.004433 -0.018747 -0.000697
   vertex 0.004772 -0.024184 0.001531
   vertex 0.00281 -0.061447 -0.011018
  endloop
 endfacet
 facet normal 0.8897 0.0750337 -0.450337
  outer loop
   vertex 0.00281 -0.061447 -0.011018
   vertex 0.002935 -0.018762 -0.003659
   vertex 0.004433 -0.018747 -0.000697
  endloop
 endfacet
 facet normal 0.891691 0.0367502 -0.45115
  outer loop
   vertex 0.004433 -0.018747 -0.000697
   vertex 0.002935 -0.018762 -0.003659
   vertex 0.004551 -0.010046 0.000245
  endloop
 endfacet
 facet normal 0.971071 -0.0791291 -0.225298
  outer loop
   vertex 0.004551 -0.010046 0.000245
   vertex 0.002935 -0.018762 -0.003659
   vertex 0.003862 -0.010011 -0.002737
  endloop
 endfacet
 facet normal 0.813981 -0.0250802 -0.58035
  outer loop
   vertex 0.003862 -0.010011 -0.002737
   vertex 0.002935 -0.018762 -0.003659
   vertex 0.002312 -0.009756 -0.004922
  endloop
 endfacet
 facet normal 0.295551 -0.151826 -0.943185
  outer loop
   vertex 6.1e-05 -0.009267 -0.006088
   vertex 0.002935 -0.018762 -0.003659
   vertex -5.6e-05 -0.018105 -0.004702
  endloop
 endfacet
 facet normal 0.441611 -0.0945742 -0.892208
  outer loop
   vertex 6.1e-05 -0.009267 -0.006088
   vertex 0.002312 -0.009756 -0.004922
   vertex 0.002935 -0.018762 -0.003659
  endloop
 endfacet
 facet normal 0.051965 -0.155391 -0.986485
  outer loop
   vertex 6.1e-05 -0.009267 -0.006088
   vertex -5.6e-05 -0.018105 -0.004702
   vertex -0.002793 -0.009485 -0.006204
  endloop
 endfacet
 facet normal -0.258111 -0.244803 -0.934586
  outer loop
   vertex -5.6e-05 -0.018105 -0.004702
   vertex -0.004396 -0.013991 -0.004581
   vertex -0.002793 -0.009485 -0.006204
  endloop
 endfacet
 facet normal -0.961293 -0.120043 -0.248001
  outer loop
   vertex -0.007401 -0.016017 -0.000166
   vertex -0.007544 -0.009581 -0.002727
   vertex -0.006578 -0.018017 -0.002388
  endloop
 endfacet
 facet normal -0.606235 -0.101119 -0.788831
  outer loop
   vertex -0.004396 -0.013991 -0.004581
   vertex -0.006578 -0.018017 -0.002388
   vertex -0.007544 -0.009581 -0.002727
  endloop
 endfacet
 facet normal -0.587578 -0.0809588 -0.805107
  outer loop
   vertex -0.004396 -0.013991 -0.004581
   vertex -0.007544 -0.009581 -0.002727
   vertex -0.002793 -0.009485 -0.006204
  endloop
 endfacet
 facet normal -0.400073 -0.0900066 0.912053
  outer loop
   vertex -0.005425 -0.023554 0.003148
   vertex -0.001207 -0.024063 0.004948
   vertex -0.004422 -0.019166 0.004021
  endloop
 endfacet
 facet normal -0.652272 -0.00170721 0.757983
  outer loop
   vertex -0.006546 -0.018377 0.002195
   vertex -0.005425 -0.023554 0.003148
   vertex -0.004422 -0.019166 0.004021
  endloop
 endfacet
 facet normal 0.241577 0.0433368 0.969413
  outer loop
   vertex -0.001207 -0.024063 0.004948
   vertex 0.001047 -0.031617 0.004724
   vertex 0.002231 -0.019494 0.003887
  endloop
 endfacet
 facet normal -0.424453 -0.108498 0.898926
  outer loop
   vertex -0.000838 -0.011546 0.006633
   vertex -0.004422 -0.019166 0.004021
   vertex -0.001207 -0.024063 0.004948
  endloop
 endfacet
 facet normal 0.520852 -0.128951 0.843851
  outer loop
   vertex -0.001207 -0.024063 0.004948
   vertex 0.002006 -0.015365 0.004294
   vertex -0.000838 -0.011546 0.006633
  endloop
 endfacet
 facet normal 0.378351 -0.0703622 0.922984
  outer loop
   vertex 0.002006 -0.015365 0.004294
   vertex -0.001207 -0.024063 0.004948
   vertex 0.002231 -0.019494 0.003887
  endloop
 endfacet
 facet normal 0.467541 -0.194368 0.862338
  outer loop
   vertex 0.000868 -0.035545 0.003937
   vertex 0.00234 -0.040314 0.002064
   vertex 0.00319 -0.031854 0.00351
  endloop
 endfacet
 facet normal 0.467185 -0.194115 0.862588
  outer loop
   vertex 0.00319 -0.031854 0.00351
   vertex 0.001047 -0.031617 0.004724
   vertex 0.000868 -0.035545 0.003937
  endloop
 endfacet
 facet normal 0.491545 -0.015467 0.870715
  outer loop
   vertex 0.00363 -0.024232 0.003397
   vertex 0.001047 -0.031617 0.004724
   vertex 0.00319 -0.031854 0.00351
  endloop
 endfacet
 facet normal 0.401781 0.0239627 0.915422
  outer loop
   vertex 0.002231 -0.019494 0.003887
   vertex 0.001047 -0.031617 0.004724
   vertex 0.00363 -0.024232 0.003397
  endloop
 endfacet
 facet normal -0.677318 -0.163087 0.717386
  outer loop
   vertex -0.004422 -0.019166 0.004021
   vertex -0.006674 -0.013473 0.003189
   vertex -0.006546 -0.018377 0.002195
  endloop
 endfacet
 facet normal -0.960063 -0.079435 0.268271
  outer loop
   vertex -0.007401 -0.016017 -0.000166
   vertex -0.006546 -0.018377 0.002195
   vertex -0.006674 -0.013473 0.003189
  endloop
 endfacet
 facet normal -0.959998 -0.121679 -0.252186
  outer loop
   vertex -0.007401 -0.016017 -0.000166
   vertex -0.007898 -0.009528 -0.001405
   vertex -0.007544 -0.009581 -0.002727
  endloop
 endfacet
 facet normal -0.971949 -0.0298996 0.233285
  outer loop
   vertex -0.007898 -0.009528 -0.001405
   vertex -0.007401 -0.016017 -0.000166
   vertex -0.006674 -0.013473 0.003189
  endloop
 endfacet
 facet normal 0.736133 -0.299871 0.606783
  outer loop
   vertex 0.003479 -0.044503 -0.001388
   vertex 0.00234 -0.040314 0.002064
   vertex 0.002715 -0.044268 -0.000345
  endloop
 endfacet
 facet normal 0.936907 -0.107411 0.332667
  outer loop
   vertex 0.00319 -0.031854 0.00351
   vertex 0.003479 -0.044503 -0.001388
   vertex 0.004772 -0.024184 0.001531
  endloop
 endfacet
 facet normal 0.856165 -0.169453 0.488126
  outer loop
   vertex 0.003479 -0.044503 -0.001388
   vertex 0.00319 -0.031854 0.00351
   vertex 0.00234 -0.040314 0.002064
  endloop
 endfacet
 facet normal 0.848167 0.093138 0.521477
  outer loop
   vertex 0.003888 -0.019426 0.002119
   vertex 0.00363 -0.024232 0.003397
   vertex 0.004772 -0.024184 0.001531
  endloop
 endfacet
 facet normal 0.852683 -0.0415025 0.520778
  outer loop
   vertex 0.00363 -0.024232 0.003397
   vertex 0.00319 -0.031854 0.00351
   vertex 0.004772 -0.024184 0.001531
  endloop
 endfacet
 facet normal 0.963021 0.151378 0.222881
  outer loop
   vertex 0.004772 -0.024184 0.001531
   vertex 0.004433 -0.018747 -0.000697
   vertex 0.003888 -0.019426 0.002119
  endloop
 endfacet
 facet normal 0.962681 -0.0420008 0.26736
  outer loop
   vertex 0.003811 -0.014798 0.002163
   vertex 0.004433 -0.018747 -0.000697
   vertex 0.004551 -0.010046 0.000245
  endloop
 endfacet
 facet normal 0.981022 0.0144838 0.193356
  outer loop
   vertex 0.004433 -0.018747 -0.000697
   vertex 0.003811 -0.014798 0.002163
   vertex 0.003888 -0.019426 0.002119
  endloop
 endfacet
 facet normal 0.946291 -0.0170454 0.322866
  outer loop
   vertex 0.004551 -0.010046 0.000245
   vertex 0.003255 -0.010964 0.003995
   vertex 0.003811 -0.014798 0.002163
  endloop
 endfacet
 facet normal 0.828727 -0.557073 0.0536871
  outer loop
   vertex 0.004551 -0.010046 0.000245
   vertex 0.006295 -0.007474 1.2e-05
   vertex 0.005935 -0.007421 0.006119
  endloop
 endfacet
 facet normal 0.761242 -0.639663 0.106496
  outer loop
   vertex 0.004551 -0.010046 0.000245
   vertex 0.005935 -0.007421 0.006119
   vertex 0.003255 -0.010964 0.003995
  endloop
 endfacet
 facet normal 0.804025 -0.562614 -0.192376
  outer loop
   vertex 0.004551 -0.010046 0.000245
   vertex 0.003862 -0.010011 -0.002737
   vertex 0.006295 -0.007474 1.2e-05
  endloop
 endfacet
 facet normal 0.592781 -0.623944 -0.509219
  outer loop
   vertex 0.003862 -0.010011 -0.002737
   vertex 0.005232 -0.004721 -0.007624
   vertex 0.007758 -0.005096 -0.004224
  endloop
 endfacet
 facet normal 0.766602 -0.635498 -0.0919915
  outer loop
   vertex 0.007758 -0.005096 -0.004224
   vertex 0.006295 -0.007474 1.2e-05
   vertex 0.003862 -0.010011 -0.002737
  endloop
 endfacet
 facet normal 0.604404 -0.619398 -0.50104
  outer loop
   vertex 0.005232 -0.004721 -0.007624
   vertex 0.003862 -0.010011 -0.002737
   vertex 0.002312 -0.009756 -0.004922
  endloop
 endfacet
 facet normal 0.245312 -0.629245 -0.737477
  outer loop
   vertex 0.000527 -0.004327 -0.010148
   vertex 0.002312 -0.009756 -0.004922
   vertex 6.1e-05 -0.009267 -0.006088
  endloop
 endfacet
 facet normal 0.451098 -0.610809 -0.65071
  outer loop
   vertex 0.005232 -0.004721 -0.007624
   vertex 0.002312 -0.009756 -0.004922
   vertex 0.003066 -0.004451 -0.009379
  endloop
 endfacet
 facet normal 0.191862 -0.647152 -0.737823
  outer loop
   vertex 0.003066 -0.004451 -0.009379
   vertex 0.002312 -0.009756 -0.004922
   vertex 0.000527 -0.004327 -0.010148
  endloop
 endfacet
 facet normal 0.0798367 -0.637397 -0.766388
  outer loop
   vertex 0.000527 -0.004327 -0.010148
   vertex 6.1e-05 -0.009267 -0.006088
   vertex -0.002793 -0.009485 -0.006204
  endloop
 endfacet
 facet normal -0.465735 -0.597364 -0.652877
  outer loop
   vertex -0.008384 -0.004303 -0.006957
   vertex -0.002793 -0.009485 -0.006204
   vertex -0.007544 -0.009581 -0.002727
  endloop
 endfacet
 facet normal -0.0275525 -0.595934 -0.802561
  outer loop
   vertex -0.003295 -0.004456 -0.009921
   vertex 0.000527 -0.004327 -0.010148
   vertex -0.002793 -0.009485 -0.006204
  endloop
 endfacet
 facet normal -0.428066 -0.564417 -0.705828
  outer loop
   vertex -0.003295 -0.004456 -0.009921
   vertex -0.002793 -0.009485 -0.006204
   vertex -0.008384 -0.004303 -0.006957
  endloop
 endfacet
 facet normal -0.860551 -0.463212 -0.211865
  outer loop
   vertex -0.007898 -0.009528 -0.001405
   vertex -0.010383 -0.004497 -0.002311
   vertex -0.007544 -0.009581 -0.002727
  endloop
 endfacet
 facet normal -0.823045 -0.429161 -0.372046
  outer loop
   vertex -0.008384 -0.004303 -0.006957
   vertex -0.007544 -0.009581 -0.002727
   vertex -0.010383 -0.004497 -0.002311
  endloop
 endfacet
 facet normal -0.644144 -0.145048 0.751026
  outer loop
   vertex -0.006674 -0.013473 0.003189
   vertex -0.004422 -0.019166 0.004021
   vertex -0.003923 -0.011275 0.005973
  endloop
 endfacet
 facet normal -0.22255 -0.220825 0.949583
  outer loop
   vertex -0.004422 -0.019166 0.004021
   vertex -0.000838 -0.011546 0.006633
   vertex -0.003923 -0.011275 0.005973
  endloop
 endfacet
 facet normal 0.72952 0.00563528 0.683936
  outer loop
   vertex 0.003888 -0.019426 0.002119
   vertex 0.003811 -0.014798 0.002163
   vertex 0.002231 -0.019494 0.003887
  endloop
 endfacet
 facet normal 0.719498 0.142144 0.679793
  outer loop
   vertex 0.002231 -0.019494 0.003887
   vertex 0.00363 -0.024232 0.003397
   vertex 0.003888 -0.019426 0.002119
  endloop
 endfacet
 facet normal 0.765714 -0.0216375 0.642818
  outer loop
   vertex 0.002231 -0.019494 0.003887
   vertex 0.003811 -0.014798 0.002163
   vertex 0.002006 -0.015365 0.004294
  endloop
 endfacet
 facet normal 0.306811 -0.695337 0.649902
  outer loop
   vertex 0.002209 -0.011468 0.005278
   vertex 0.003492 -0.009098 0.007208
   vertex -0.000838 -0.011546 0.006633
  endloop
 endfacet
 facet normal -0.216382 -0.613393 0.759558
  outer loop
   vertex -0.003923 -0.011275 0.005973
   vertex -0.000838 -0.011546 0.006633
   vertex -0.000624 -0.0094 0.008427
  endloop
 endfacet
 facet normal 0.399264 -0.243955 0.883784
  outer loop
   vertex -0.000838 -0.011546 0.006633
   vertex 0.002006 -0.015365 0.004294
   vertex 0.002209 -0.011468 0.005278
  endloop
 endfacet
 facet normal 0.261967 -0.634224 0.727416
  outer loop
   vertex -0.000838 -0.011546 0.006633
   vertex 0.003492 -0.009098 0.007208
   vertex -0.000624 -0.0094 0.008427
  endloop
 endfacet
 facet normal 0.796079 -0.186818 0.575637
  outer loop
   vertex 0.003255 -0.010964 0.003995
   vertex 0.002209 -0.011468 0.005278
   vertex 0.002006 -0.015365 0.004294
  endloop
 endfacet
 facet normal 0.773722 -0.17828 0.607923
  outer loop
   vertex 0.003811 -0.014798 0.002163
   vertex 0.003255 -0.010964 0.003995
   vertex 0.002006 -0.015365 0.004294
  endloop
 endfacet
 facet normal -0.689479 -0.0520885 0.722431
  outer loop
   vertex -0.003923 -0.011275 0.005973
   vertex -0.007047 -0.009992 0.003084
   vertex -0.006674 -0.013473 0.003189
  endloop
 endfacet
 facet normal -0.979444 -0.0996604 0.175376
  outer loop
   vertex -0.006674 -0.013473 0.003189
   vertex -0.007047 -0.009992 0.003084
   vertex -0.007898 -0.009528 -0.001405
  endloop
 endfacet
 facet normal -0.893132 -0.448124 -0.0387183
  outer loop
   vertex -0.010383 -0.004497 -0.002311
   vertex -0.007898 -0.009528 -0.001405
   vertex -0.010446 -0.004622 0.000589
  endloop
 endfacet
 facet normal -0.862385 -0.493602 0.112466
  outer loop
   vertex -0.010446 -0.004622 0.000589
   vertex -0.007898 -0.009528 -0.001405
   vertex -0.007047 -0.009992 0.003084
  endloop
 endfacet
 facet normal 0.675491 -0.680781 0.283282
  outer loop
   vertex 0.003255 -0.010964 0.003995
   vertex 0.005935 -0.007421 0.006119
   vertex 0.002209 -0.011468 0.005278
  endloop
 endfacet
 facet normal 0.532957 -0.251832 0.807798
  outer loop
   vertex 0.003492 -0.009098 0.007208
   vertex 0.005935 -0.007421 0.006119
   vertex 0.003387 -0.005394 0.008432
  endloop
 endfacet
 facet normal 0.627156 -0.0939482 0.773207
  outer loop
   vertex 0.003387 -0.005394 0.008432
   vertex 0.005935 -0.007421 0.006119
   vertex 0.00558 -0.000392 0.007261
  endloop
 endfacet
 facet normal 0.818015 -0.0517591 0.572863
  outer loop
   vertex 0.00558 -0.000392 0.007261
   vertex 0.005935 -0.007421 0.006119
   vertex 0.007822 -0.006408 0.003516
  endloop
 endfacet
 facet normal 0.63309 -0.665154 0.395938
  outer loop
   vertex 0.005935 -0.007421 0.006119
   vertex 0.003492 -0.009098 0.007208
   vertex 0.002209 -0.011468 0.005278
  endloop
 endfacet
 facet normal 0.512477 -0.857875 0.037655
  outer loop
   vertex 0.006295 -0.007474 1.2e-05
   vertex 0.007822 -0.006408 0.003516
   vertex 0.005935 -0.007421 0.006119
  endloop
 endfacet
 facet normal 0.584098 -0.811647 -0.00762027
  outer loop
   vertex 0.007822 -0.006408 0.003516
   vertex 0.006295 -0.007474 1.2e-05
   vertex 0.008658 -0.005775 0.000174
  endloop
 endfacet
 facet normal 0.577628 -0.780613 -0.238723
  outer loop
   vertex 0.006295 -0.007474 1.2e-05
   vertex 0.007758 -0.005096 -0.004224
   vertex 0.008658 -0.005775 0.000174
  endloop
 endfacet
 facet normal 0.97505 -0.0706524 -0.210441
  outer loop
   vertex 0.007988 -0.002455 -0.004045
   vertex 0.008658 -0.005775 0.000174
   vertex 0.007758 -0.005096 -0.004224
  endloop
 endfacet
 facet normal 0.800825 -0.029199 -0.598186
  outer loop
   vertex 0.005232 -0.004721 -0.007624
   vertex 0.007988 -0.002455 -0.004045
   vertex 0.007758 -0.005096 -0.004224
  endloop
 endfacet
 facet normal 0.629351 -0.00246685 -0.777117
  outer loop
   vertex 0.003066 -0.004451 -0.009379
   vertex 0.005633 -0.001649 -0.007309
   vertex 0.005232 -0.004721 -0.007624
  endloop
 endfacet
 facet normal 0.804921 -0.0443951 -0.591719
  outer loop
   vertex 0.007988 -0.002455 -0.004045
   vertex 0.005232 -0.004721 -0.007624
   vertex 0.005633 -0.001649 -0.007309
  endloop
 endfacet
 facet normal -0.0575523 -0.0494583 -0.997117
  outer loop
   vertex -0.003295 -0.004456 -0.009921
   vertex -0.00134 -0.001469 -0.010182
   vertex 0.000527 -0.004327 -0.010148
  endloop
 endfacet
 facet normal 0.293175 0.180349 -0.938894
  outer loop
   vertex 0.003066 -0.004451 -0.009379
   vertex 0.000527 -0.004327 -0.010148
   vertex -0.00134 -0.001469 -0.010182
  endloop
 endfacet
 facet normal 0.475865 0.197246 -0.857115
  outer loop
   vertex 0.003438 0.000696 -0.007988
   vertex 0.005633 -0.001649 -0.007309
   vertex 0.003066 -0.004451 -0.009379
  endloop
 endfacet
 facet normal 0.320309 0.225506 -0.920081
  outer loop
   vertex 0.003438 0.000696 -0.007988
   vertex 0.003066 -0.004451 -0.009379
   vertex -0.00134 -0.001469 -0.010182
  endloop
 endfacet
 facet normal -0.548038 0.0488706 -0.835025
  outer loop
   vertex -0.003223 -0.001531 -0.010182
   vertex -0.008384 -0.004303 -0.006957
   vertex -0.006608 -3.8e-05 -0.007873
  endloop
 endfacet
 facet normal -0.50369 -0.0644715 -0.861475
  outer loop
   vertex -0.008384 -0.004303 -0.006957
   vertex -0.003223 -0.001531 -0.010182
   vertex -0.003295 -0.004456 -0.009921
  endloop
 endfacet
 facet normal -0.677175 0.126296 -0.724902
  outer loop
   vertex -0.008384 -0.004303 -0.006957
   vertex -0.009383 -0.001136 -0.005472
   vertex -0.006608 -3.8e-05 -0.007873
  endloop
 endfacet
 facet normal -0.91383 -0.0864214 -0.396795
  outer loop
   vertex -0.009975 -0.001139 -0.003982
   vertex -0.008384 -0.004303 -0.006957
   vertex -0.010383 -0.004497 -0.002311
  endloop
 endfacet
 facet normal -0.922644 -0.119038 -0.36682
  outer loop
   vertex -0.009383 -0.001136 -0.005472
   vertex -0.008384 -0.004303 -0.006957
   vertex -0.009975 -0.001139 -0.003982
  endloop
 endfacet
 facet normal 0.00292874 -0.0889486 -0.996032
  outer loop
   vertex -0.00134 -0.001469 -0.010182
   vertex -0.003295 -0.004456 -0.009921
   vertex -0.003223 -0.001531 -0.010182
  endloop
 endfacet
 facet normal -0.996013 0.0411883 -0.0791322
  outer loop
   vertex -0.010529 -0.001432 0.001122
   vertex -0.01017 0.001355 -0.001946
   vertex -0.010383 -0.004497 -0.002311
  endloop
 endfacet
 facet normal -0.999496 -0.0222179 -0.0226709
  outer loop
   vertex -0.010383 -0.004497 -0.002311
   vertex -0.010446 -0.004622 0.000589
   vertex -0.010529 -0.001432 0.001122
  endloop
 endfacet
 facet normal -0.987633 0.0453093 -0.150093
  outer loop
   vertex -0.010383 -0.004497 -0.002311
   vertex -0.01017 0.001355 -0.001946
   vertex -0.009975 -0.001139 -0.003982
  endloop
 endfacet
 facet normal -0.264772 -0.560832 0.784451
  outer loop
   vertex -0.003923 -0.011275 0.005973
   vertex -0.000624 -0.0094 0.008427
   vertex -0.003776 -0.008705 0.00786
  endloop
 endfacet
 facet normal -0.706906 -0.391897 0.588813
  outer loop
   vertex -0.008142 -0.006249 0.004253
   vertex -0.003923 -0.011275 0.005973
   vertex -0.003776 -0.008705 0.00786
  endloop
 endfacet
 facet normal -0.706316 -0.390944 0.590152
  outer loop
   vertex -0.008142 -0.006249 0.004253
   vertex -0.007047 -0.009992 0.003084
   vertex -0.003923 -0.011275 0.005973
  endloop
 endfacet
 facet normal 0.291214 -0.292714 0.910776
  outer loop
   vertex -0.000624 -0.0094 0.008427
   vertex 0.003492 -0.009098 0.007208
   vertex 0.003387 -0.005394 0.008432
  endloop
 endfacet
 facet normal -0.215463 -0.196874 0.95646
  outer loop
   vertex -0.000624 -0.0094 0.008427
   vertex -0.003608 -0.003195 0.009032
   vertex -0.003776 -0.008705 0.00786
  endloop
 endfacet
 facet normal -0.338112 -0.251034 0.907007
  outer loop
   vertex -0.000624 -0.0094 0.008427
   vertex -0.001906 -0.004884 0.009199
   vertex -0.003608 -0.003195 0.009032
  endloop
 endfacet
 facet normal 0.129781 -0.13117 0.982828
  outer loop
   vertex -0.000624 -0.0094 0.008427
   vertex 0.003387 -0.005394 0.008432
   vertex -0.001906 -0.004884 0.009199
  endloop
 endfacet
 facet normal -0.852384 -0.366004 0.373473
  outer loop
   vertex -0.007047 -0.009992 0.003084
   vertex -0.008142 -0.006249 0.004253
   vertex -0.010446 -0.004622 0.000589
  endloop
 endfacet
 facet normal -0.862231 -0.105219 0.495466
  outer loop
   vertex -0.010529 -0.001432 0.001122
   vertex -0.010446 -0.004622 0.000589
   vertex -0.008142 -0.006249 0.004253
  endloop
 endfacet
 facet normal 0.412586 0.0322303 0.910348
  outer loop
   vertex 0.000338 -0.000568 0.009643
   vertex 0.003387 -0.005394 0.008432
   vertex 0.00558 -0.000392 0.007261
  endloop
 endfacet
 facet normal 0.125738 -0.165992 0.978078
  outer loop
   vertex 0.003387 -0.005394 0.008432
   vertex 0.000338 -0.000568 0.009643
   vertex -0.001906 -0.004884 0.009199
  endloop
 endfacet
 facet normal 0.926737 0.124758 0.354393
  outer loop
   vertex 0.007822 -0.006408 0.003516
   vertex 0.007954 0.000446 0.000758
   vertex 0.00558 -0.000392 0.007261
  endloop
 endfacet
 facet normal 0.226944 0.797935 0.558387
  outer loop
   vertex 0.000338 -0.000568 0.009643
   vertex 0.00558 -0.000392 0.007261
   vertex 0.004665 0.000666 0.006121
  endloop
 endfacet
 facet normal 0.539093 0.787651 0.298302
  outer loop
   vertex 0.00558 -0.000392 0.007261
   vertex 0.007954 0.000446 0.000758
   vertex 0.004665 0.000666 0.006121
  endloop
 endfacet
 facet normal 0.962711 0.0848297 0.256889
  outer loop
   vertex 0.007822 -0.006408 0.003516
   vertex 0.008658 -0.005775 0.000174
   vertex 0.007954 0.000446 0.000758
  endloop
 endfacet
 facet normal 0.990904 0.118178 -0.0643646
  outer loop
   vertex 0.008658 -0.005775 0.000174
   vertex 0.007988 -0.002455 -0.004045
   vertex 0.007954 0.000446 0.000758
  endloop
 endfacet
 facet normal 0.990702 0.119446 -0.0651317
  outer loop
   vertex 0.007988 -0.002455 -0.004045
   vertex 0.007756 -3.4e-05 -0.003134
   vertex 0.007954 0.000446 0.000758
  endloop
 endfacet
 facet normal 0.809568 0.283262 -0.514162
  outer loop
   vertex 0.005622 0.000272 -0.006268
   vertex 0.007988 -0.002455 -0.004045
   vertex 0.005633 -0.001649 -0.007309
  endloop
 endfacet
 facet normal 0.807158 0.274091 -0.522847
  outer loop
   vertex 0.007756 -3.4e-05 -0.003134
   vertex 0.007988 -0.002455 -0.004045
   vertex 0.005622 0.000272 -0.006268
  endloop
 endfacet
 facet normal 0.617034 0.37766 -0.690392
  outer loop
   vertex 0.005622 0.000272 -0.006268
   vertex 0.005633 -0.001649 -0.007309
   vertex 0.003438 0.000696 -0.007988
  endloop
 endfacet
 facet normal -0.0124997 0.379628 -0.925055
  outer loop
   vertex -0.002526 0.000936 -0.009179
   vertex -0.00134 -0.001469 -0.010182
   vertex -0.003223 -0.001531 -0.010182
  endloop
 endfacet
 facet normal 0.191844 0.456856 -0.868607
  outer loop
   vertex -0.00134 -0.001469 -0.010182
   vertex -0.002526 0.000936 -0.009179
   vertex 0.003438 0.000696 -0.007988
  endloop
 endfacet
 facet normal 0.375988 0.889975 -0.258028
  outer loop
   vertex 0.005622 0.000272 -0.006268
   vertex 0.003438 0.000696 -0.007988
   vertex 0.002673 0.001419 -0.006609
  endloop
 endfacet
 facet normal 0.118076 0.904896 -0.408927
  outer loop
   vertex 0.002673 0.001419 -0.006609
   vertex 0.003438 0.000696 -0.007988
   vertex -0.002526 0.000936 -0.009179
  endloop
 endfacet
 facet normal -0.689283 0.299542 -0.659669
  outer loop
   vertex -0.009383 -0.001136 -0.005472
   vertex -0.008684 0.001556 -0.00498
   vertex -0.006608 -3.8e-05 -0.007873
  endloop
 endfacet
 facet normal -0.610363 0.421868 -0.670436
  outer loop
   vertex -0.008684 0.001556 -0.00498
   vertex -0.006185 0.00134 -0.007391
   vertex -0.006608 -3.8e-05 -0.007873
  endloop
 endfacet
 facet normal -0.364878 0.405211 -0.838253
  outer loop
   vertex -0.002526 0.000936 -0.009179
   vertex -0.006608 -3.8e-05 -0.007873
   vertex -0.006185 0.00134 -0.007391
  endloop
 endfacet
 facet normal -0.367029 0.437458 -0.820926
  outer loop
   vertex -0.006608 -3.8e-05 -0.007873
   vertex -0.002526 0.000936 -0.009179
   vertex -0.003223 -0.001531 -0.010182
  endloop
 endfacet
 facet normal -0.888178 0.295009 -0.352293
  outer loop
   vertex -0.009975 -0.001139 -0.003982
   vertex -0.008684 0.001556 -0.00498
   vertex -0.009383 -0.001136 -0.005472
  endloop
 endfacet
 facet normal -0.872503 0.266242 -0.409698
  outer loop
   vertex -0.008684 0.001556 -0.00498
   vertex -0.009975 -0.001139 -0.003982
   vertex -0.01017 0.001355 -0.001946
  endloop
 endfacet
 facet normal -0.881406 0.396371 0.25693
  outer loop
   vertex -0.008504 0.001057 0.004229
   vertex -0.01017 0.001355 -0.001946
   vertex -0.010529 -0.001432 0.001122
  endloop
 endfacet
 facet normal -0.4818 0.859343 0.17146
  outer loop
   vertex -0.008497 0.002203 -0.001495
   vertex -0.01017 0.001355 -0.001946
   vertex -0.008504 0.001057 0.004229
  endloop
 endfacet
 facet normal -0.416144 0.897769 -0.144344
  outer loop
   vertex -0.008497 0.002203 -0.001495
   vertex -0.008684 0.001556 -0.00498
   vertex -0.01017 0.001355 -0.001946
  endloop
 endfacet
 facet normal -0.887001 0.205378 0.41358
  outer loop
   vertex -0.008504 0.001057 0.004229
   vertex -0.010529 -0.001432 0.001122
   vertex -0.0092 -0.001812 0.004161
  endloop
 endfacet
 facet normal -0.905428 -0.208229 0.36992
  outer loop
   vertex -0.0092 -0.001812 0.004161
   vertex -0.010529 -0.001432 0.001122
   vertex -0.008142 -0.006249 0.004253
  endloop
 endfacet
 facet normal -0.674836 -0.133792 0.725739
  outer loop
   vertex -0.008142 -0.006249 0.004253
   vertex -0.003776 -0.008705 0.00786
   vertex -0.003608 -0.003195 0.009032
  endloop
 endfacet
 facet normal -0.670015 -0.144667 0.728115
  outer loop
   vertex -0.0092 -0.001812 0.004161
   vertex -0.008142 -0.006249 0.004253
   vertex -0.003608 -0.003195 0.009032
  endloop
 endfacet
 facet normal -0.116918 -0.01964 0.992947
  outer loop
   vertex -0.001906 -0.004884 0.009199
   vertex -0.003293 -6.5e-05 0.009131
   vertex -0.003608 -0.003195 0.009032
  endloop
 endfacet
 facet normal -0.650407 0.0414668 0.758453
  outer loop
   vertex -0.003293 -6.5e-05 0.009131
   vertex -0.0092 -0.001812 0.004161
   vertex -0.003608 -0.003195 0.009032
  endloop
 endfacet
 facet normal -0.143279 -0.0272785 0.989306
  outer loop
   vertex -0.003293 -6.5e-05 0.009131
   vertex -0.001906 -0.004884 0.009199
   vertex 0.000338 -0.000568 0.009643
  endloop
 endfacet
 facet normal 0.0153883 0.765655 0.643067
  outer loop
   vertex -0.003293 -6.5e-05 0.009131
   vertex 0.000338 -0.000568 0.009643
   vertex -0.002797 0.001095 0.007738
  endloop
 endfacet
 facet normal 0.155782 0.856786 0.491579
  outer loop
   vertex 0.000338 -0.000568 0.009643
   vertex 0.004665 0.000666 0.006121
   vertex -0.002797 0.001095 0.007738
  endloop
 endfacet
 facet normal 0.55069 0.82457 -0.12971
  outer loop
   vertex 0.007756 -3.4e-05 -0.003134
   vertex 0.007013 0.000477 -0.00304
   vertex 0.007954 0.000446 0.000758
  endloop
 endfacet
 facet normal -0.141005 0.981861 -0.126753
  outer loop
   vertex 0.004665 0.000666 0.006121
   vertex 0.007954 0.000446 0.000758
   vertex 0.001661 -0.000403 0.001182
  endloop
 endfacet
 facet normal -0.130909 0.990566 0.0405194
  outer loop
   vertex 0.001661 -0.000403 0.001182
   vertex 0.007954 0.000446 0.000758
   vertex 0.007013 0.000477 -0.00304
  endloop
 endfacet
 facet normal 0.00913294 0.976165 -0.216837
  outer loop
   vertex -0.002797 0.001095 0.007738
   vertex 0.004665 0.000666 0.006121
   vertex 0.001661 -0.000403 0.001182
  endloop
 endfacet
 facet normal 0.520779 0.807939 -0.275722
  outer loop
   vertex 0.007013 0.000477 -0.00304
   vertex 0.007756 -3.4e-05 -0.003134
   vertex 0.005622 0.000272 -0.006268
  endloop
 endfacet
 facet normal 0.375586 0.900532 -0.219036
  outer loop
   vertex 0.005622 0.000272 -0.006268
   vertex 0.002673 0.001419 -0.006609
   vertex 0.007013 0.000477 -0.00304
  endloop
 endfacet
 facet normal 0.0263962 0.971404 -0.235962
  outer loop
   vertex -0.002526 0.000936 -0.009179
   vertex -0.00728 0.002313 -0.004042
   vertex 0.002673 0.001419 -0.006609
  endloop
 endfacet
 facet normal -0.0359252 0.956464 -0.289632
  outer loop
   vertex -0.002526 0.000936 -0.009179
   vertex -0.006185 0.00134 -0.007391
   vertex -0.00728 0.002313 -0.004042
  endloop
 endfacet
 facet normal 0.148881 0.958413 0.243473
  outer loop
   vertex 0.001661 -0.000403 0.001182
   vertex 0.002673 0.001419 -0.006609
   vertex -0.00728 0.002313 -0.004042
  endloop
 endfacet
 facet normal 0.0217426 0.972868 0.230339
  outer loop
   vertex 0.001661 -0.000403 0.001182
   vertex 0.007013 0.000477 -0.00304
   vertex 0.002673 0.001419 -0.006609
  endloop
 endfacet
 facet normal -0.255671 0.902773 -0.345882
  outer loop
   vertex -0.008684 0.001556 -0.00498
   vertex -0.00728 0.002313 -0.004042
   vertex -0.006185 0.00134 -0.007391
  endloop
 endfacet
 facet normal -0.391139 0.908409 -0.147661
  outer loop
   vertex -0.008497 0.002203 -0.001495
   vertex -0.00728 0.002313 -0.004042
   vertex -0.008684 0.001556 -0.00498
  endloop
 endfacet
 facet normal -0.661618 0.143058 0.736068
  outer loop
   vertex -0.0092 -0.001812 0.004161
   vertex -0.003293 -6.5e-05 0.009131
   vertex -0.008504 0.001057 0.004229
  endloop
 endfacet
 facet normal -0.340475 0.765872 0.545451
  outer loop
   vertex -0.008504 0.001057 0.004229
   vertex -0.002797 0.001095 0.007738
   vertex -0.007127 0.002063 0.003676
  endloop
 endfacet
 facet normal -0.331753 0.779651 0.531116
  outer loop
   vertex -0.008504 0.001057 0.004229
   vertex -0.003293 -6.5e-05 0.009131
   vertex -0.002797 0.001095 0.007738
  endloop
 endfacet
 facet normal -0.537815 0.826784 0.164873
  outer loop
   vertex -0.008504 0.001057 0.004229
   vertex -0.007127 0.002063 0.003676
   vertex -0.008497 0.002203 -0.001495
  endloop
 endfacet
 facet normal 0.210593 0.967148 0.142394
  outer loop
   vertex 0.001661 -0.000403 0.001182
   vertex -0.00728 0.002313 -0.004042
   vertex -0.008497 0.002203 -0.001495
  endloop
 endfacet
 facet normal 0.258751 0.965012 -0.0424266
  outer loop
   vertex 0.001661 -0.000403 0.001182
   vertex -0.008497 0.002203 -0.001495
   vertex -0.007127 0.002063 0.003676
  endloop
 endfacet
 facet normal 0.258025 0.965087 -0.045062
  outer loop
   vertex 0.001661 -0.000403 0.001182
   vertex -0.007127 0.002063 0.003676
   vertex -0.002797 0.001095 0.007738
  endloop
 endfacet
endsolid
