solid ascii
 facet normal -0.132294 0.810874 0.570072
  outer loop
   vertex 0.104206 0.031725 -0.005107
   vertex 0.094254 0.032434 -0.008425
   vertex 0.099289 0.030901 -0.005076
  endloop
 endfacet
 facet normal -0.151973 0.76953 0.620264
  outer loop
   vertex 0.104931 0.032459 -0.00584
   vertex 0.094254 0.032434 -0.008425
   vertex 0.104206 0.031725 -0.005107
  endloop
 endfacet
 facet normal -0.0909771 0.57351 0.814131
  outer loop
   vertex 0.099289 0.030901 -0.005076
   vertex 0.103284 0.030233 -0.004159
   vertex 0.104206 0.031725 -0.005107
  endloop
 endfacet
 facet normal 0.109559 0.483948 0.868211
  outer loop
   vertex 0.103284 0.030233 -0.004159
   vertex 0.104764 0.031082 -0.004819
   vertex 0.104206 0.031725 -0.005107
  endloop
 endfacet
 facet normal 0.235698 0.560219 0.794104
  outer loop
   vertex 0.104764 0.031082 -0.004819
   vertex 0.104931 0.032459 -0.00584
   vertex 0.104206 0.031725 -0.005107
  endloop
 endfacet
 facet normal -0.0743974 0.797729 0.598409
  outer loop
   vertex 0.090819 0.032656 -0.009148
   vertex 0.094254 0.032434 -0.008425
   vertex 0.090986 0.033628 -0.010423
  endloop
 endfacet
 facet normal -0.157798 0.95687 0.243926
  outer loop
   vertex 0.103168 0.034745 -0.011724
   vertex 0.093655 0.034344 -0.016305
   vertex 0.094254 0.032434 -0.008425
  endloop
 endfacet
 facet normal -0.0805712 0.942732 0.323672
  outer loop
   vertex 0.094254 0.032434 -0.008425
   vertex 0.104931 0.032459 -0.00584
   vertex 0.105496 0.034111 -0.010511
  endloop
 endfacet
 facet normal -0.0330323 0.858336 0.512023
  outer loop
   vertex 0.094254 0.032434 -0.008425
   vertex 0.105496 0.034111 -0.010511
   vertex 0.103168 0.034745 -0.011724
  endloop
 endfacet
 facet normal 0.186237 0.947102 0.26137
  outer loop
   vertex 0.090986 0.033628 -0.010423
   vertex 0.094254 0.032434 -0.008425
   vertex 0.091721 0.034225 -0.01311
  endloop
 endfacet
 facet normal 0.282136 0.937066 0.205684
  outer loop
   vertex 0.091721 0.034225 -0.01311
   vertex 0.094254 0.032434 -0.008425
   vertex 0.093655 0.034344 -0.016305
  endloop
 endfacet
 facet normal -0.366137 0.500159 0.78472
  outer loop
   vertex 0.093935 0.03178 -0.008157
   vertex 0.095424 0.031254 -0.007127
   vertex 0.094254 0.032434 -0.008425
  endloop
 endfacet
 facet normal -0.371431 0.495456 0.785215
  outer loop
   vertex 0.095424 0.031254 -0.007127
   vertex 0.099289 0.030901 -0.005076
   vertex 0.094254 0.032434 -0.008425
  endloop
 endfacet
 facet normal -0.157747 0.439343 0.884361
  outer loop
   vertex 0.090819 0.032656 -0.009148
   vertex 0.093935 0.03178 -0.008157
   vertex 0.094254 0.032434 -0.008425
  endloop
 endfacet
 facet normal -0.470242 -0.0226533 0.882247
  outer loop
   vertex 0.098303 0.028897 -0.005653
   vertex 0.099289 0.030901 -0.005076
   vertex 0.095424 0.031254 -0.007127
  endloop
 endfacet
 facet normal -0.22682 -0.019805 0.973735
  outer loop
   vertex 0.100951 0.028829 -0.004731
   vertex 0.103284 0.030233 -0.004159
   vertex 0.099289 0.030901 -0.005076
  endloop
 endfacet
 facet normal -0.214972 -0.00982936 0.976571
  outer loop
   vertex 0.100951 0.028829 -0.004731
   vertex 0.099289 0.030901 -0.005076
   vertex 0.099267 0.028799 -0.005102
  endloop
 endfacet
 facet normal -0.496652 -0.00553724 0.867932
  outer loop
   vertex 0.099267 0.028799 -0.005102
   vertex 0.099289 0.030901 -0.005076
   vertex 0.098303 0.028897 -0.005653
  endloop
 endfacet
 facet normal 0.620258 0.685656 0.380993
  outer loop
   vertex 0.105538 0.033074 -0.007935
   vertex 0.104931 0.032459 -0.00584
   vertex 0.105473 0.031822 -0.005576
  endloop
 endfacet
 facet normal 0.265604 0.553221 0.789558
  outer loop
   vertex 0.104764 0.031082 -0.004819
   vertex 0.105473 0.031822 -0.005576
   vertex 0.104931 0.032459 -0.00584
  endloop
 endfacet
 facet normal 0.314292 0.882411 0.350101
  outer loop
   vertex 0.105496 0.034111 -0.010511
   vertex 0.104931 0.032459 -0.00584
   vertex 0.105538 0.033074 -0.007935
  endloop
 endfacet
 facet normal 0.460166 -0.118121 0.87994
  outer loop
   vertex 0.104249 0.02918 -0.004805
   vertex 0.104764 0.031082 -0.004819
   vertex 0.103284 0.030233 -0.004159
  endloop
 endfacet
 facet normal -0.0927842 -0.239557 0.966439
  outer loop
   vertex 0.102476 0.028904 -0.004566
   vertex 0.103284 0.030233 -0.004159
   vertex 0.100951 0.028829 -0.004731
  endloop
 endfacet
 facet normal 0.132546 -0.363035 0.9223
  outer loop
   vertex 0.103311 0.028998 -0.004649
   vertex 0.103284 0.030233 -0.004159
   vertex 0.102476 0.028904 -0.004566
  endloop
 endfacet
 facet normal 0.220067 -0.355592 0.908364
  outer loop
   vertex 0.104249 0.02918 -0.004805
   vertex 0.103284 0.030233 -0.004159
   vertex 0.103311 0.028998 -0.004649
  endloop
 endfacet
 facet normal 0.658176 -0.172819 0.732761
  outer loop
   vertex 0.105004 0.029876 -0.005319
   vertex 0.104764 0.031082 -0.004819
   vertex 0.104249 0.02918 -0.004805
  endloop
 endfacet
 facet normal 0.774747 -0.104363 0.623599
  outer loop
   vertex 0.105004 0.029876 -0.005319
   vertex 0.105473 0.031822 -0.005576
   vertex 0.104764 0.031082 -0.004819
  endloop
 endfacet
 facet normal -0.733983 0.484394 0.476058
  outer loop
   vertex 0.090819 0.032656 -0.009148
   vertex 0.090178 0.032011 -0.00948
   vertex 0.090649 0.032193 -0.008939
  endloop
 endfacet
 facet normal -0.748813 0.570708 0.337004
  outer loop
   vertex 0.090819 0.032656 -0.009148
   vertex 0.090986 0.033628 -0.010423
   vertex 0.090178 0.032011 -0.00948
  endloop
 endfacet
 facet normal -0.152228 0.452527 0.878662
  outer loop
   vertex 0.090819 0.032656 -0.009148
   vertex 0.090649 0.032193 -0.008939
   vertex 0.093935 0.03178 -0.008157
  endloop
 endfacet
 facet normal -0.617472 0.786571 0.00585736
  outer loop
   vertex 0.090986 0.033628 -0.010423
   vertex 0.091721 0.034225 -0.01311
   vertex 0.090791 0.033497 -0.013387
  endloop
 endfacet
 facet normal -0.803731 0.594398 0.0266047
  outer loop
   vertex 0.090791 0.033497 -0.013387
   vertex 0.090286 0.032736 -0.011641
   vertex 0.090986 0.033628 -0.010423
  endloop
 endfacet
 facet normal -0.856352 0.500967 0.125272
  outer loop
   vertex 0.090286 0.032736 -0.011641
   vertex 0.090178 0.032011 -0.00948
   vertex 0.090986 0.033628 -0.010423
  endloop
 endfacet
 facet normal 0.314694 0.942649 -0.111266
  outer loop
   vertex 0.106886 0.033265 -0.013747
   vertex 0.103168 0.034745 -0.011724
   vertex 0.105496 0.034111 -0.010511
  endloop
 endfacet
 facet normal 0.376763 0.90955 -0.175408
  outer loop
   vertex 0.106372 0.032409 -0.016955
   vertex 0.103168 0.034745 -0.011724
   vertex 0.107376 0.032185 -0.01596
  endloop
 endfacet
 facet normal 0.0873022 0.92842 -0.36113
  outer loop
   vertex 0.102683 0.031983 -0.018942
   vertex 0.103168 0.034745 -0.011724
   vertex 0.106372 0.032409 -0.016955
  endloop
 endfacet
 facet normal 0.213583 0.829449 -0.516137
  outer loop
   vertex 0.093655 0.034344 -0.016305
   vertex 0.103168 0.034745 -0.011724
   vertex 0.094759 0.032687 -0.018511
  endloop
 endfacet
 facet normal 0.0630842 0.930675 -0.360366
  outer loop
   vertex 0.094759 0.032687 -0.018511
   vertex 0.103168 0.034745 -0.011724
   vertex 0.102683 0.031983 -0.018942
  endloop
 endfacet
 facet normal 0.135894 0.901882 -0.410051
  outer loop
   vertex 0.106886 0.033265 -0.013747
   vertex 0.107376 0.032185 -0.01596
   vertex 0.103168 0.034745 -0.011724
  endloop
 endfacet
 facet normal -0.357048 0.652269 -0.668627
  outer loop
   vertex 0.093655 0.034344 -0.016305
   vertex 0.094759 0.032687 -0.018511
   vertex 0.093447 0.031404 -0.019062
  endloop
 endfacet
 facet normal -0.642247 0.569019 -0.513553
  outer loop
   vertex 0.092601 0.032954 -0.016527
   vertex 0.091703 0.033324 -0.014994
   vertex 0.093655 0.034344 -0.016305
  endloop
 endfacet
 facet normal -0.604408 0.720946 -0.339009
  outer loop
   vertex 0.091703 0.033324 -0.014994
   vertex 0.091721 0.034225 -0.01311
   vertex 0.093655 0.034344 -0.016305
  endloop
 endfacet
 facet normal -0.609742 0.564696 -0.556177
  outer loop
   vertex 0.093447 0.031404 -0.019062
   vertex 0.093057 0.032216 -0.01781
   vertex 0.093655 0.034344 -0.016305
  endloop
 endfacet
 facet normal -0.624357 0.560352 -0.544228
  outer loop
   vertex 0.093057 0.032216 -0.01781
   vertex 0.092601 0.032954 -0.016527
   vertex 0.093655 0.034344 -0.016305
  endloop
 endfacet
 facet normal 0.775053 0.590459 0.225058
  outer loop
   vertex 0.105538 0.033074 -0.007935
   vertex 0.106045 0.033337 -0.010371
   vertex 0.105496 0.034111 -0.010511
  endloop
 endfacet
 facet normal 0.801728 0.564347 0.196837
  outer loop
   vertex 0.106886 0.033265 -0.013747
   vertex 0.105496 0.034111 -0.010511
   vertex 0.106708 0.032964 -0.012159
  endloop
 endfacet
 facet normal 0.789132 0.590387 0.16945
  outer loop
   vertex 0.105496 0.034111 -0.010511
   vertex 0.106045 0.033337 -0.010371
   vertex 0.106708 0.032964 -0.012159
  endloop
 endfacet
 facet normal -0.502184 0.781995 -0.369181
  outer loop
   vertex 0.091703 0.033324 -0.014994
   vertex 0.090791 0.033497 -0.013387
   vertex 0.091721 0.034225 -0.01311
  endloop
 endfacet
 facet normal -0.251847 -0.218829 0.942702
  outer loop
   vertex 0.09067 0.03101 -0.009208
   vertex 0.093935 0.03178 -0.008157
   vertex 0.090649 0.032193 -0.008939
  endloop
 endfacet
 facet normal -0.248692 -0.22979 0.94093
  outer loop
   vertex 0.092298 0.030714 -0.00885
   vertex 0.093935 0.03178 -0.008157
   vertex 0.09067 0.03101 -0.009208
  endloop
 endfacet
 facet normal -0.60471 -0.204539 0.769733
  outer loop
   vertex 0.095646 0.029845 -0.007327
   vertex 0.095424 0.031254 -0.007127
   vertex 0.093935 0.03178 -0.008157
  endloop
 endfacet
 facet normal -0.407047 0.0316352 0.912859
  outer loop
   vertex 0.095646 0.029845 -0.007327
   vertex 0.093935 0.03178 -0.008157
   vertex 0.092298 0.030714 -0.00885
  endloop
 endfacet
 facet normal -0.53311 -0.128194 0.836277
  outer loop
   vertex 0.098303 0.028897 -0.005653
   vertex 0.095424 0.031254 -0.007127
   vertex 0.097166 0.029235 -0.006326
  endloop
 endfacet
 facet normal -0.594231 -0.204058 0.777978
  outer loop
   vertex 0.097166 0.029235 -0.006326
   vertex 0.095424 0.031254 -0.007127
   vertex 0.095646 0.029845 -0.007327
  endloop
 endfacet
 facet normal -0.549843 -0.289801 0.783382
  outer loop
   vertex 0.097518 0.027667 -0.006659
   vertex 0.098303 0.028897 -0.005653
   vertex 0.097166 0.029235 -0.006326
  endloop
 endfacet
 facet normal -0.492408 -0.34077 0.800881
  outer loop
   vertex 0.099267 0.028799 -0.005102
   vertex 0.098303 0.028897 -0.005653
   vertex 0.097518 0.027667 -0.006659
  endloop
 endfacet
 facet normal -0.0804564 -0.385907 0.919022
  outer loop
   vertex 0.100951 0.028829 -0.004731
   vertex 0.09623 0.019392 -0.009107
   vertex 0.102476 0.028904 -0.004566
  endloop
 endfacet
 facet normal -0.197548 -0.329323 0.923321
  outer loop
   vertex 0.09623 0.019392 -0.009107
   vertex 0.100951 0.028829 -0.004731
   vertex 0.099267 0.028799 -0.005102
  endloop
 endfacet
 facet normal -0.607805 -0.136799 0.782214
  outer loop
   vertex 0.09623 0.019392 -0.009107
   vertex 0.099267 0.028799 -0.005102
   vertex 0.097518 0.027667 -0.006659
  endloop
 endfacet
 facet normal 0.895479 0.382471 0.227667
  outer loop
   vertex 0.105473 0.031822 -0.005576
   vertex 0.106045 0.033337 -0.010371
   vertex 0.105538 0.033074 -0.007935
  endloop
 endfacet
 facet normal 0.875978 0.42 0.237198
  outer loop
   vertex 0.106708 0.032964 -0.012159
   vertex 0.106045 0.033337 -0.010371
   vertex 0.105473 0.031822 -0.005576
  endloop
 endfacet
 facet normal 0.968401 0.14051 0.206052
  outer loop
   vertex 0.105473 0.031822 -0.005576
   vertex 0.107262 0.031847 -0.014001
   vertex 0.106708 0.032964 -0.012159
  endloop
 endfacet
 facet normal 0.957734 -0.204042 0.202764
  outer loop
   vertex 0.107262 0.031847 -0.014001
   vertex 0.105473 0.031822 -0.005576
   vertex 0.105004 0.029876 -0.005319
  endloop
 endfacet
 facet normal 0.680436 -0.222475 0.69822
  outer loop
   vertex 0.104425 0.027898 -0.005385
   vertex 0.105004 0.029876 -0.005319
   vertex 0.104249 0.02918 -0.004805
  endloop
 endfacet
 facet normal 0.222591 -0.376325 0.899351
  outer loop
   vertex 0.104425 0.027898 -0.005385
   vertex 0.104249 0.02918 -0.004805
   vertex 0.103311 0.028998 -0.004649
  endloop
 endfacet
 facet normal -0.29171 -0.249301 0.923447
  outer loop
   vertex 0.09623 0.019392 -0.009107
   vertex 0.097917 0.019096 -0.008654
   vertex 0.102476 0.028904 -0.004566
  endloop
 endfacet
 facet normal 0.138363 -0.450133 0.882177
  outer loop
   vertex 0.104425 0.027898 -0.005385
   vertex 0.103311 0.028998 -0.004649
   vertex 0.102476 0.028904 -0.004566
  endloop
 endfacet
 facet normal -0.200288 -0.296155 0.933904
  outer loop
   vertex 0.097917 0.019096 -0.008654
   vertex 0.099616 0.018934 -0.008341
   vertex 0.102476 0.028904 -0.004566
  endloop
 endfacet
 facet normal -0.126444 -0.319332 0.939169
  outer loop
   vertex 0.102476 0.028904 -0.004566
   vertex 0.099616 0.018934 -0.008341
   vertex 0.101798 0.019667 -0.007798
  endloop
 endfacet
 facet normal 0.113345 -0.335537 0.935183
  outer loop
   vertex 0.102476 0.028904 -0.004566
   vertex 0.101798 0.019667 -0.007798
   vertex 0.102523 0.019675 -0.007883
  endloop
 endfacet
 facet normal 0.216292 -0.329246 0.919138
  outer loop
   vertex 0.102476 0.028904 -0.004566
   vertex 0.102523 0.019675 -0.007883
   vertex 0.104425 0.027898 -0.005385
  endloop
 endfacet
 facet normal 0.835371 -0.260677 0.483945
  outer loop
   vertex 0.105004 0.029876 -0.005319
   vertex 0.104425 0.027898 -0.005385
   vertex 0.103913 0.020452 -0.008512
  endloop
 endfacet
 facet normal 0.960442 -0.185539 0.207669
  outer loop
   vertex 0.106418 0.025845 -0.01546
   vertex 0.107262 0.031847 -0.014001
   vertex 0.105004 0.029876 -0.005319
  endloop
 endfacet
 facet normal 0.966316 -0.175611 0.188135
  outer loop
   vertex 0.105004 0.029876 -0.005319
   vertex 0.103913 0.020452 -0.008512
   vertex 0.104965 0.022249 -0.012238
  endloop
 endfacet
 facet normal 0.95725 -0.197024 0.211789
  outer loop
   vertex 0.104965 0.022249 -0.012238
   vertex 0.106418 0.025845 -0.01546
   vertex 0.105004 0.029876 -0.005319
  endloop
 endfacet
 facet normal -0.7151 -0.167036 0.678772
  outer loop
   vertex 0.090178 0.032011 -0.00948
   vertex 0.09067 0.03101 -0.009208
   vertex 0.090649 0.032193 -0.008939
  endloop
 endfacet
 facet normal -0.995325 0.094908 -0.0179039
  outer loop
   vertex 0.090286 0.032736 -0.011641
   vertex 0.09009 0.030881 -0.010578
   vertex 0.090178 0.032011 -0.00948
  endloop
 endfacet
 facet normal -0.762894 -0.208694 0.611915
  outer loop
   vertex 0.090244 0.030764 -0.009823
   vertex 0.09067 0.03101 -0.009208
   vertex 0.090178 0.032011 -0.00948
  endloop
 endfacet
 facet normal -0.977673 -0.102245 0.183579
  outer loop
   vertex 0.090178 0.032011 -0.00948
   vertex 0.09009 0.030881 -0.010578
   vertex 0.090244 0.030764 -0.009823
  endloop
 endfacet
 facet normal -0.851434 -0.260573 -0.45515
  outer loop
   vertex 0.09009 0.030881 -0.010578
   vertex 0.090791 0.033497 -0.013387
   vertex 0.091703 0.033324 -0.014994
  endloop
 endfacet
 facet normal -0.948526 -0.0759619 -0.307453
  outer loop
   vertex 0.090791 0.033497 -0.013387
   vertex 0.09009 0.030881 -0.010578
   vertex 0.090286 0.032736 -0.011641
  endloop
 endfacet
 facet normal 0.914762 0.403956 0.00540606
  outer loop
   vertex 0.107376 0.032185 -0.01596
   vertex 0.106886 0.033265 -0.013747
   vertex 0.107398 0.03212 -0.014826
  endloop
 endfacet
 facet normal 0.934475 0.348288 0.0738334
  outer loop
   vertex 0.106886 0.033265 -0.013747
   vertex 0.107138 0.032616 -0.013875
   vertex 0.107398 0.03212 -0.014826
  endloop
 endfacet
 facet normal 0.929823 0.328217 0.166438
  outer loop
   vertex 0.106708 0.032964 -0.012159
   vertex 0.107138 0.032616 -0.013875
   vertex 0.106886 0.033265 -0.013747
  endloop
 endfacet
 facet normal 0.421292 0.877939 -0.227456
  outer loop
   vertex 0.107456 0.032015 -0.016468
   vertex 0.106372 0.032409 -0.016955
   vertex 0.107376 0.032185 -0.01596
  endloop
 endfacet
 facet normal 0.400873 0.391626 -0.828209
  outer loop
   vertex 0.106372 0.032409 -0.016955
   vertex 0.107933 0.030348 -0.017174
   vertex 0.102683 0.031983 -0.018942
  endloop
 endfacet
 facet normal 0.497266 0.455117 -0.738644
  outer loop
   vertex 0.106372 0.032409 -0.016955
   vertex 0.107456 0.032015 -0.016468
   vertex 0.107933 0.030348 -0.017174
  endloop
 endfacet
 facet normal 0.929317 0.36927 0.00313557
  outer loop
   vertex 0.107398 0.03212 -0.014826
   vertex 0.107672 0.031439 -0.015832
   vertex 0.107376 0.032185 -0.01596
  endloop
 endfacet
 facet normal 0.934834 0.353918 0.0287751
  outer loop
   vertex 0.107456 0.032015 -0.016468
   vertex 0.107376 0.032185 -0.01596
   vertex 0.107751 0.031231 -0.016409
  endloop
 endfacet
 facet normal 0.929807 0.368008 -0.00535892
  outer loop
   vertex 0.107376 0.032185 -0.01596
   vertex 0.107672 0.031439 -0.015832
   vertex 0.107751 0.031231 -0.016409
  endloop
 endfacet
 facet normal 0.128686 0.607158 -0.784091
  outer loop
   vertex 0.102683 0.031983 -0.018942
   vertex 0.094781 0.030366 -0.021491
   vertex 0.094543 0.030964 -0.021067
  endloop
 endfacet
 facet normal 0.042941 0.826744 -0.560937
  outer loop
   vertex 0.094543 0.030964 -0.021067
   vertex 0.094759 0.032687 -0.018511
   vertex 0.102683 0.031983 -0.018942
  endloop
 endfacet
 facet normal 0.335582 0.061059 -0.94003
  outer loop
   vertex 0.103982 0.029801 -0.01862
   vertex 0.102683 0.031983 -0.018942
   vertex 0.107933 0.030348 -0.017174
  endloop
 endfacet
 facet normal 0.357237 0.0752869 -0.930975
  outer loop
   vertex 0.102072 0.029837 -0.01935
   vertex 0.102683 0.031983 -0.018942
   vertex 0.103982 0.029801 -0.01862
  endloop
 endfacet
 facet normal 0.29261 0.0730407 -0.953438
  outer loop
   vertex 0.099815 0.029675 -0.019999
   vertex 0.094781 0.030366 -0.021491
   vertex 0.102683 0.031983 -0.018942
  endloop
 endfacet
 facet normal 0.267777 0.105829 -0.957651
  outer loop
   vertex 0.099815 0.029675 -0.019999
   vertex 0.102683 0.031983 -0.018942
   vertex 0.102072 0.029837 -0.01935
  endloop
 endfacet
 facet normal -0.523298 0.72644 -0.445471
  outer loop
   vertex 0.094759 0.032687 -0.018511
   vertex 0.094543 0.030964 -0.021067
   vertex 0.093447 0.031404 -0.019062
  endloop
 endfacet
 facet normal -0.718818 0.483915 -0.499126
  outer loop
   vertex 0.094543 0.030964 -0.021067
   vertex 0.093629 0.03058 -0.020123
   vertex 0.093447 0.031404 -0.019062
  endloop
 endfacet
 facet normal -0.975679 0.0570292 -0.211657
  outer loop
   vertex 0.093482 0.029056 -0.019856
   vertex 0.093447 0.031404 -0.019062
   vertex 0.093629 0.03058 -0.020123
  endloop
 endfacet
 facet normal -0.962424 -0.0509991 -0.266721
  outer loop
   vertex 0.093311 0.021424 -0.016663
   vertex 0.093057 0.032216 -0.01781
   vertex 0.093447 0.031404 -0.019062
  endloop
 endfacet
 facet normal -0.998784 0.00176923 -0.0492625
  outer loop
   vertex 0.093311 0.021424 -0.016663
   vertex 0.093447 0.031404 -0.019062
   vertex 0.093482 0.029056 -0.019856
  endloop
 endfacet
 facet normal -0.861885 -0.239201 -0.447144
  outer loop
   vertex 0.09009 0.030881 -0.010578
   vertex 0.091703 0.033324 -0.014994
   vertex 0.092601 0.032954 -0.016527
  endloop
 endfacet
 facet normal -0.927371 0.0669393 -0.368106
  outer loop
   vertex 0.09009 0.030881 -0.010578
   vertex 0.092601 0.032954 -0.016527
   vertex 0.093057 0.032216 -0.01781
  endloop
 endfacet
 facet normal -0.919199 -0.0629492 -0.388731
  outer loop
   vertex 0.093057 0.032216 -0.01781
   vertex 0.093311 0.021424 -0.016663
   vertex 0.09009 0.030881 -0.010578
  endloop
 endfacet
 facet normal 0.968436 0.120397 0.218259
  outer loop
   vertex 0.107262 0.031847 -0.014001
   vertex 0.107138 0.032616 -0.013875
   vertex 0.106708 0.032964 -0.012159
  endloop
 endfacet
 facet normal -0.763911 -0.206023 0.611551
  outer loop
   vertex 0.090244 0.030764 -0.009823
   vertex 0.092544 0.02044 -0.010428
   vertex 0.09067 0.03101 -0.009208
  endloop
 endfacet
 facet normal -0.238697 -0.153004 0.958965
  outer loop
   vertex 0.092544 0.02044 -0.010428
   vertex 0.092298 0.030714 -0.00885
   vertex 0.09067 0.03101 -0.009208
  endloop
 endfacet
 facet normal -0.440866 -0.146565 0.885526
  outer loop
   vertex 0.095646 0.029845 -0.007327
   vertex 0.092298 0.030714 -0.00885
   vertex 0.092544 0.02044 -0.010428
  endloop
 endfacet
 facet normal -0.376055 -0.175926 0.909743
  outer loop
   vertex 0.09623 0.019392 -0.009107
   vertex 0.095646 0.029845 -0.007327
   vertex 0.092544 0.02044 -0.010428
  endloop
 endfacet
 facet normal -0.50277 -0.172333 0.847068
  outer loop
   vertex 0.097518 0.027667 -0.006659
   vertex 0.095646 0.029845 -0.007327
   vertex 0.09623 0.019392 -0.009107
  endloop
 endfacet
 facet normal -0.605101 -0.293047 0.740255
  outer loop
   vertex 0.097166 0.029235 -0.006326
   vertex 0.095646 0.029845 -0.007327
   vertex 0.097518 0.027667 -0.006659
  endloop
 endfacet
 facet normal -0.302291 -0.45877 0.835554
  outer loop
   vertex 0.095133 0.018829 -0.009813
   vertex 0.098339 0.018332 -0.008926
   vertex 0.09623 0.019392 -0.009107
  endloop
 endfacet
 facet normal -0.30477 -0.464388 0.83154
  outer loop
   vertex 0.098339 0.018332 -0.008926
   vertex 0.097917 0.019096 -0.008654
   vertex 0.09623 0.019392 -0.009107
  endloop
 endfacet
 facet normal -0.380304 -0.199165 0.903162
  outer loop
   vertex 0.09623 0.019392 -0.009107
   vertex 0.092544 0.02044 -0.010428
   vertex 0.092921 0.019575 -0.01046
  endloop
 endfacet
 facet normal -0.358455 -0.374107 0.855309
  outer loop
   vertex 0.093956 0.0192 -0.010144
   vertex 0.095133 0.018829 -0.009813
   vertex 0.09623 0.019392 -0.009107
  endloop
 endfacet
 facet normal -0.375471 -0.296261 0.878209
  outer loop
   vertex 0.092921 0.019575 -0.01046
   vertex 0.093956 0.0192 -0.010144
   vertex 0.09623 0.019392 -0.009107
  endloop
 endfacet
 facet normal 0.971718 0.123732 0.201134
  outer loop
   vertex 0.107398 0.03212 -0.014826
   vertex 0.107138 0.032616 -0.013875
   vertex 0.107262 0.031847 -0.014001
  endloop
 endfacet
 facet normal 0.975956 0.0901516 0.198448
  outer loop
   vertex 0.107262 0.031847 -0.014001
   vertex 0.107837 0.030432 -0.016186
   vertex 0.107672 0.031439 -0.015832
  endloop
 endfacet
 facet normal 0.975232 0.10403 0.195193
  outer loop
   vertex 0.107262 0.031847 -0.014001
   vertex 0.107672 0.031439 -0.015832
   vertex 0.107398 0.03212 -0.014826
  endloop
 endfacet
 facet normal 0.899589 -0.218433 0.378189
  outer loop
   vertex 0.106418 0.025845 -0.01546
   vertex 0.107837 0.030432 -0.016186
   vertex 0.107262 0.031847 -0.014001
  endloop
 endfacet
 facet normal 0.543265 -0.356559 0.760085
  outer loop
   vertex 0.104425 0.027898 -0.005385
   vertex 0.102523 0.019675 -0.007883
   vertex 0.103913 0.020452 -0.008512
  endloop
 endfacet
 facet normal -0.203041 -0.426031 0.88163
  outer loop
   vertex 0.099616 0.018934 -0.008341
   vertex 0.097917 0.019096 -0.008654
   vertex 0.098339 0.018332 -0.008926
  endloop
 endfacet
 facet normal -0.0611163 -0.625903 0.777502
  outer loop
   vertex 0.098339 0.018332 -0.008926
   vertex 0.100879 0.019038 -0.008158
   vertex 0.099616 0.018934 -0.008341
  endloop
 endfacet
 facet normal -0.102291 -0.377334 0.920411
  outer loop
   vertex 0.101798 0.019667 -0.007798
   vertex 0.099616 0.018934 -0.008341
   vertex 0.100879 0.019038 -0.008158
  endloop
 endfacet
 facet normal 0.0959804 -0.645243 0.757925
  outer loop
   vertex 0.102523 0.019675 -0.007883
   vertex 0.101798 0.019667 -0.007798
   vertex 0.101449 0.018767 -0.00852
  endloop
 endfacet
 facet normal 0.158352 -0.65449 0.739302
  outer loop
   vertex 0.101798 0.019667 -0.007798
   vertex 0.100879 0.019038 -0.008158
   vertex 0.101449 0.018767 -0.00852
  endloop
 endfacet
 facet normal 0.0466866 -0.610103 0.790946
  outer loop
   vertex 0.102523 0.019675 -0.007883
   vertex 0.101449 0.018767 -0.00852
   vertex 0.102281 0.019252 -0.008195
  endloop
 endfacet
 facet normal 0.583867 -0.634372 0.506628
  outer loop
   vertex 0.103913 0.020452 -0.008512
   vertex 0.102523 0.019675 -0.007883
   vertex 0.102965 0.019621 -0.00846
  endloop
 endfacet
 facet normal 0.553263 -0.675777 0.487059
  outer loop
   vertex 0.102523 0.019675 -0.007883
   vertex 0.102281 0.019252 -0.008195
   vertex 0.102965 0.019621 -0.00846
  endloop
 endfacet
 facet normal 0.596798 -0.651519 0.468354
  outer loop
   vertex 0.103913 0.020452 -0.008512
   vertex 0.102965 0.019621 -0.00846
   vertex 0.103531 0.019954 -0.008718
  endloop
 endfacet
 facet normal 0.798003 -0.602174 -0.024044
  outer loop
   vertex 0.103913 0.020452 -0.008512
   vertex 0.103531 0.019954 -0.008718
   vertex 0.103977 0.020567 -0.009268
  endloop
 endfacet
 facet normal 0.85796 -0.513687 -0.00550801
  outer loop
   vertex 0.104965 0.022249 -0.012238
   vertex 0.103913 0.020452 -0.008512
   vertex 0.103977 0.020567 -0.009268
  endloop
 endfacet
 facet normal 0.426773 -0.469129 -0.773164
  outer loop
   vertex 0.100538 0.020575 -0.015508
   vertex 0.106824 0.029438 -0.017416
   vertex 0.106418 0.025845 -0.01546
  endloop
 endfacet
 facet normal 0.421276 -0.462935 -0.779883
  outer loop
   vertex 0.106418 0.025845 -0.01546
   vertex 0.104475 0.021624 -0.014004
   vertex 0.100538 0.020575 -0.015508
  endloop
 endfacet
 facet normal 0.950616 -0.309081 0.0282333
  outer loop
   vertex 0.107549 0.029177 -0.017064
   vertex 0.107933 0.030348 -0.017174
   vertex 0.106418 0.025845 -0.01546
  endloop
 endfacet
 facet normal 0.234389 -0.485111 -0.842454
  outer loop
   vertex 0.106418 0.025845 -0.01546
   vertex 0.106824 0.029438 -0.017416
   vertex 0.107549 0.029177 -0.017064
  endloop
 endfacet
 facet normal 0.953904 -0.276699 0.116213
  outer loop
   vertex 0.106418 0.025845 -0.01546
   vertex 0.107933 0.030348 -0.017174
   vertex 0.107837 0.030432 -0.016186
  endloop
 endfacet
 facet normal 0.892297 -0.442163 -0.0910963
  outer loop
   vertex 0.104965 0.022249 -0.012238
   vertex 0.104475 0.021624 -0.014004
   vertex 0.106418 0.025845 -0.01546
  endloop
 endfacet
 facet normal 0.676687 -0.714102 -0.179311
  outer loop
   vertex 0.104965 0.022249 -0.012238
   vertex 0.103977 0.020567 -0.009268
   vertex 0.103667 0.02039 -0.009733
  endloop
 endfacet
 facet normal 0.747044 -0.662575 0.0540275
  outer loop
   vertex 0.104099 0.021201 -0.013116
   vertex 0.104965 0.022249 -0.012238
   vertex 0.103692 0.020812 -0.012259
  endloop
 endfacet
 facet normal 0.726371 -0.675945 -0.124433
  outer loop
   vertex 0.103786 0.020654 -0.010456
   vertex 0.1039 0.020905 -0.011154
   vertex 0.104965 0.022249 -0.012238
  endloop
 endfacet
 facet normal 0.723318 -0.678421 -0.128669
  outer loop
   vertex 0.103667 0.02039 -0.009733
   vertex 0.103786 0.020654 -0.010456
   vertex 0.104965 0.022249 -0.012238
  endloop
 endfacet
 facet normal 0.746328 -0.659881 -0.0869032
  outer loop
   vertex 0.103796 0.020856 -0.0117
   vertex 0.103692 0.020812 -0.012259
   vertex 0.104965 0.022249 -0.012238
  endloop
 endfacet
 facet normal 0.7473 -0.65926 -0.0831836
  outer loop
   vertex 0.103796 0.020856 -0.0117
   vertex 0.104965 0.022249 -0.012238
   vertex 0.1039 0.020905 -0.011154
  endloop
 endfacet
 facet normal 0.764028 -0.644978 0.0162714
  outer loop
   vertex 0.104475 0.021624 -0.014004
   vertex 0.104965 0.022249 -0.012238
   vertex 0.104099 0.021201 -0.013116
  endloop
 endfacet
 facet normal -0.973093 -0.229068 -0.0248721
  outer loop
   vertex 0.09009 0.030881 -0.010578
   vertex 0.092144 0.022444 -0.013235
   vertex 0.092544 0.02044 -0.010428
  endloop
 endfacet
 facet normal -0.850428 0.0474763 -0.523946
  outer loop
   vertex 0.093311 0.021424 -0.016663
   vertex 0.092841 0.020962 -0.015942
   vertex 0.09009 0.030881 -0.010578
  endloop
 endfacet
 facet normal -0.970822 -0.190465 -0.145694
  outer loop
   vertex 0.092841 0.020962 -0.015942
   vertex 0.092144 0.022444 -0.013235
   vertex 0.09009 0.030881 -0.010578
  endloop
 endfacet
 facet normal -0.961222 -0.223601 0.161417
  outer loop
   vertex 0.09009 0.030881 -0.010578
   vertex 0.092544 0.02044 -0.010428
   vertex 0.090244 0.030764 -0.009823
  endloop
 endfacet
 facet normal 0.926806 0.336129 -0.167478
  outer loop
   vertex 0.107456 0.032015 -0.016468
   vertex 0.107751 0.031231 -0.016409
   vertex 0.107933 0.030348 -0.017174
  endloop
 endfacet
 facet normal 0.357989 -0.14915 -0.921736
  outer loop
   vertex 0.103982 0.029801 -0.01862
   vertex 0.107933 0.030348 -0.017174
   vertex 0.105838 0.029627 -0.017871
  endloop
 endfacet
 facet normal 0.374505 -0.216646 -0.90156
  outer loop
   vertex 0.105838 0.029627 -0.017871
   vertex 0.107933 0.030348 -0.017174
   vertex 0.106824 0.029438 -0.017416
  endloop
 endfacet
 facet normal 0.366602 -0.205458 -0.907408
  outer loop
   vertex 0.106824 0.029438 -0.017416
   vertex 0.107933 0.030348 -0.017174
   vertex 0.107549 0.029177 -0.017064
  endloop
 endfacet
 facet normal 0.987485 0.130858 0.0880265
  outer loop
   vertex 0.107751 0.031231 -0.016409
   vertex 0.107672 0.031439 -0.015832
   vertex 0.107837 0.030432 -0.016186
  endloop
 endfacet
 facet normal 0.987865 0.130036 0.0849318
  outer loop
   vertex 0.107751 0.031231 -0.016409
   vertex 0.107837 0.030432 -0.016186
   vertex 0.107933 0.030348 -0.017174
  endloop
 endfacet
 facet normal -0.287655 -0.26533 -0.920247
  outer loop
   vertex 0.094813 0.028996 -0.021106
   vertex 0.094241 0.030178 -0.021268
   vertex 0.094781 0.030366 -0.021491
  endloop
 endfacet
 facet normal -0.463289 0.382443 -0.799438
  outer loop
   vertex 0.094781 0.030366 -0.021491
   vertex 0.094241 0.030178 -0.021268
   vertex 0.094543 0.030964 -0.021067
  endloop
 endfacet
 facet normal 0.206057 -0.413649 -0.886812
  outer loop
   vertex 0.097647 0.029459 -0.020402
   vertex 0.094781 0.030366 -0.021491
   vertex 0.099815 0.029675 -0.019999
  endloop
 endfacet
 facet normal 0.264349 -0.274684 -0.924483
  outer loop
   vertex 0.096008 0.029201 -0.020794
   vertex 0.094781 0.030366 -0.021491
   vertex 0.097647 0.029459 -0.020402
  endloop
 endfacet
 facet normal 0.284816 -0.253166 -0.924547
  outer loop
   vertex 0.094813 0.028996 -0.021106
   vertex 0.094781 0.030366 -0.021491
   vertex 0.096008 0.029201 -0.020794
  endloop
 endfacet
 facet normal -0.723128 0.464509 -0.511193
  outer loop
   vertex 0.094543 0.030964 -0.021067
   vertex 0.093832 0.029976 -0.020959
   vertex 0.093629 0.03058 -0.020123
  endloop
 endfacet
 facet normal -0.670001 0.414861 -0.615621
  outer loop
   vertex 0.094241 0.030178 -0.021268
   vertex 0.093832 0.029976 -0.020959
   vertex 0.094543 0.030964 -0.021067
  endloop
 endfacet
 facet normal 0.309125 -0.405551 -0.860215
  outer loop
   vertex 0.100538 0.020575 -0.015508
   vertex 0.103982 0.029801 -0.01862
   vertex 0.105838 0.029627 -0.017871
  endloop
 endfacet
 facet normal 0.319272 -0.407736 -0.855463
  outer loop
   vertex 0.102072 0.029837 -0.01935
   vertex 0.103982 0.029801 -0.01862
   vertex 0.100538 0.020575 -0.015508
  endloop
 endfacet
 facet normal 0.27929 -0.407011 -0.869678
  outer loop
   vertex 0.100538 0.020575 -0.015508
   vertex 0.099815 0.029675 -0.019999
   vertex 0.102072 0.029837 -0.01935
  endloop
 endfacet
 facet normal 0.206129 -0.419834 -0.883884
  outer loop
   vertex 0.097647 0.029459 -0.020402
   vertex 0.099815 0.029675 -0.019999
   vertex 0.100538 0.020575 -0.015508
  endloop
 endfacet
 facet normal -0.964084 0.0395053 -0.262642
  outer loop
   vertex 0.093707 0.028448 -0.02073
   vertex 0.093629 0.03058 -0.020123
   vertex 0.093832 0.029976 -0.020959
  endloop
 endfacet
 facet normal -0.959686 0.0439303 -0.277619
  outer loop
   vertex 0.093482 0.029056 -0.019856
   vertex 0.093629 0.03058 -0.020123
   vertex 0.093707 0.028448 -0.02073
  endloop
 endfacet
 facet normal -0.992934 -0.024468 -0.116115
  outer loop
   vertex 0.093482 0.029056 -0.019856
   vertex 0.093609 0.026764 -0.020459
   vertex 0.093397 0.02179 -0.017598
  endloop
 endfacet
 facet normal -0.994904 -0.0191259 -0.0989988
  outer loop
   vertex 0.093311 0.021424 -0.016663
   vertex 0.093482 0.029056 -0.019856
   vertex 0.093397 0.02179 -0.017598
  endloop
 endfacet
 facet normal -0.965828 0.0145656 -0.258773
  outer loop
   vertex 0.093609 0.026764 -0.020459
   vertex 0.093482 0.029056 -0.019856
   vertex 0.093707 0.028448 -0.02073
  endloop
 endfacet
 facet normal -0.967907 -0.190698 -0.163677
  outer loop
   vertex 0.093585 0.019623 -0.016185
   vertex 0.093311 0.021424 -0.016663
   vertex 0.093397 0.02179 -0.017598
  endloop
 endfacet
 facet normal -0.619185 -0.288081 -0.730493
  outer loop
   vertex 0.093311 0.021424 -0.016663
   vertex 0.093585 0.019623 -0.016185
   vertex 0.0932 0.020273 -0.016115
  endloop
 endfacet
 facet normal -0.742111 -0.22845 -0.630144
  outer loop
   vertex 0.093311 0.021424 -0.016663
   vertex 0.0932 0.020273 -0.016115
   vertex 0.092841 0.020962 -0.015942
  endloop
 endfacet
 facet normal -0.908265 -0.400359 0.121521
  outer loop
   vertex 0.092623 0.020109 -0.010928
   vertex 0.092921 0.019575 -0.01046
   vertex 0.092544 0.02044 -0.010428
  endloop
 endfacet
 facet normal -0.976886 -0.213359 -0.0131163
  outer loop
   vertex 0.092623 0.020109 -0.010928
   vertex 0.092544 0.02044 -0.010428
   vertex 0.092144 0.022444 -0.013235
  endloop
 endfacet
 facet normal -0.374393 -0.842827 0.386617
  outer loop
   vertex 0.093956 0.0192 -0.010144
   vertex 0.09409 0.018918 -0.010629
   vertex 0.095133 0.018829 -0.009813
  endloop
 endfacet
 facet normal -0.187932 -0.972986 0.134088
  outer loop
   vertex 0.095133 0.018829 -0.009813
   vertex 0.09409 0.018918 -0.010629
   vertex 0.098339 0.018332 -0.008926
  endloop
 endfacet
 facet normal 0.0272369 -0.779186 0.626201
  outer loop
   vertex 0.098339 0.018332 -0.008926
   vertex 0.101449 0.018767 -0.00852
   vertex 0.100879 0.019038 -0.008158
  endloop
 endfacet
 facet normal 0.108771 -0.97201 0.208242
  outer loop
   vertex 0.101449 0.018767 -0.00852
   vertex 0.098339 0.018332 -0.008926
   vertex 0.099587 0.017884 -0.011669
  endloop
 endfacet
 facet normal -0.168927 -0.982082 0.0835411
  outer loop
   vertex 0.09409 0.018918 -0.010629
   vertex 0.099587 0.017884 -0.011669
   vertex 0.098339 0.018332 -0.008926
  endloop
 endfacet
 facet normal -0.851195 -0.522093 -0.0537197
  outer loop
   vertex 0.092623 0.020109 -0.010928
   vertex 0.093098 0.019335 -0.010932
   vertex 0.092921 0.019575 -0.01046
  endloop
 endfacet
 facet normal -0.441952 -0.855647 0.269346
  outer loop
   vertex 0.092921 0.019575 -0.01046
   vertex 0.093098 0.019335 -0.010932
   vertex 0.09409 0.018918 -0.010629
  endloop
 endfacet
 facet normal -0.414169 -0.83192 0.369287
  outer loop
   vertex 0.092921 0.019575 -0.01046
   vertex 0.09409 0.018918 -0.010629
   vertex 0.093956 0.0192 -0.010144
  endloop
 endfacet
 facet normal 0.488763 -0.871058 0.048658
  outer loop
   vertex 0.102965 0.019621 -0.00846
   vertex 0.102281 0.019252 -0.008195
   vertex 0.101449 0.018767 -0.00852
  endloop
 endfacet
 facet normal 0.491676 -0.869514 -0.0469094
  outer loop
   vertex 0.101449 0.018767 -0.00852
   vertex 0.099587 0.017884 -0.011669
   vertex 0.102965 0.019621 -0.00846
  endloop
 endfacet
 facet normal 0.490934 -0.869988 -0.0458716
  outer loop
   vertex 0.102965 0.019621 -0.00846
   vertex 0.099587 0.017884 -0.011669
   vertex 0.103531 0.019954 -0.008718
  endloop
 endfacet
 facet normal 0.712567 -0.678535 -0.178432
  outer loop
   vertex 0.103531 0.019954 -0.008718
   vertex 0.103423 0.019986 -0.009271
   vertex 0.103977 0.020567 -0.009268
  endloop
 endfacet
 facet normal 0.547307 -0.82255 -0.15449
  outer loop
   vertex 0.103423 0.019986 -0.009271
   vertex 0.103531 0.019954 -0.008718
   vertex 0.099587 0.017884 -0.011669
  endloop
 endfacet
 facet normal 0.707312 -0.673334 -0.215246
  outer loop
   vertex 0.103423 0.019986 -0.009271
   vertex 0.103667 0.02039 -0.009733
   vertex 0.103977 0.020567 -0.009268
  endloop
 endfacet
 facet normal 0.393266 -0.665608 -0.634278
  outer loop
   vertex 0.101167 0.020089 -0.014608
   vertex 0.100287 0.019793 -0.014843
   vertex 0.100538 0.020575 -0.015508
  endloop
 endfacet
 facet normal 0.137412 -0.607175 -0.782596
  outer loop
   vertex 0.098591 0.019526 -0.015036
   vertex 0.09688 0.019287 -0.015151
   vertex 0.100538 0.020575 -0.015508
  endloop
 endfacet
 facet normal 0.272041 -0.394885 -0.87753
  outer loop
   vertex 0.100538 0.020575 -0.015508
   vertex 0.096008 0.029201 -0.020794
   vertex 0.097647 0.029459 -0.020402
  endloop
 endfacet
 facet normal 0.164771 -0.497048 -0.851935
  outer loop
   vertex 0.093609 0.026764 -0.020459
   vertex 0.100538 0.020575 -0.015508
   vertex 0.093397 0.02179 -0.017598
  endloop
 endfacet
 facet normal 0.418394 -0.623911 -0.660062
  outer loop
   vertex 0.100538 0.020575 -0.015508
   vertex 0.104475 0.021624 -0.014004
   vertex 0.102066 0.020364 -0.01434
  endloop
 endfacet
 facet normal 0.392776 -0.666014 -0.634155
  outer loop
   vertex 0.100538 0.020575 -0.015508
   vertex 0.102066 0.020364 -0.01434
   vertex 0.101167 0.020089 -0.014608
  endloop
 endfacet
 facet normal 0.187253 -0.670548 -0.717846
  outer loop
   vertex 0.100538 0.020575 -0.015508
   vertex 0.100287 0.019793 -0.014843
   vertex 0.098591 0.019526 -0.015036
  endloop
 endfacet
 facet normal 0.176981 -0.715183 -0.676159
  outer loop
   vertex 0.094794 0.01977 -0.01616
   vertex 0.100538 0.020575 -0.015508
   vertex 0.0957 0.019166 -0.015284
  endloop
 endfacet
 facet normal 0.150533 -0.63706 -0.755972
  outer loop
   vertex 0.100538 0.020575 -0.015508
   vertex 0.09688 0.019287 -0.015151
   vertex 0.0957 0.019166 -0.015284
  endloop
 endfacet
 facet normal 0.316614 -0.408819 -0.855934
  outer loop
   vertex 0.105838 0.029627 -0.017871
   vertex 0.106824 0.029438 -0.017416
   vertex 0.100538 0.020575 -0.015508
  endloop
 endfacet
 facet normal 0.269439 -0.399361 -0.876306
  outer loop
   vertex 0.093609 0.026764 -0.020459
   vertex 0.094813 0.028996 -0.021106
   vertex 0.100538 0.020575 -0.015508
  endloop
 endfacet
 facet normal 0.294272 -0.382244 -0.875953
  outer loop
   vertex 0.094813 0.028996 -0.021106
   vertex 0.096008 0.029201 -0.020794
   vertex 0.100538 0.020575 -0.015508
  endloop
 endfacet
 facet normal 0.166041 -0.493101 -0.85398
  outer loop
   vertex 0.100538 0.020575 -0.015508
   vertex 0.094794 0.01977 -0.01616
   vertex 0.093397 0.02179 -0.017598
  endloop
 endfacet
 facet normal 0.437174 -0.678365 -0.590508
  outer loop
   vertex 0.102635 0.020527 -0.014106
   vertex 0.102066 0.020364 -0.01434
   vertex 0.104475 0.021624 -0.014004
  endloop
 endfacet
 facet normal 0.57108 -0.808303 -0.143228
  outer loop
   vertex 0.104475 0.021624 -0.014004
   vertex 0.104099 0.021201 -0.013116
   vertex 0.10354 0.020892 -0.013601
  endloop
 endfacet
 facet normal 0.499431 -0.808831 -0.310419
  outer loop
   vertex 0.104475 0.021624 -0.014004
   vertex 0.10354 0.020892 -0.013601
   vertex 0.102635 0.020527 -0.014106
  endloop
 endfacet
 facet normal 0.578632 -0.792175 -0.19402
  outer loop
   vertex 0.103667 0.02039 -0.009733
   vertex 0.099587 0.017884 -0.011669
   vertex 0.103786 0.020654 -0.010456
  endloop
 endfacet
 facet normal 0.601675 -0.731142 -0.321587
  outer loop
   vertex 0.103667 0.02039 -0.009733
   vertex 0.103423 0.019986 -0.009271
   vertex 0.099587 0.017884 -0.011669
  endloop
 endfacet
 facet normal 0.553337 -0.82541 -0.111878
  outer loop
   vertex 0.10354 0.020892 -0.013601
   vertex 0.104099 0.021201 -0.013116
   vertex 0.103692 0.020812 -0.012259
  endloop
 endfacet
 facet normal 0.775441 -0.624213 -0.0951269
  outer loop
   vertex 0.103786 0.020654 -0.010456
   vertex 0.103692 0.020812 -0.012259
   vertex 0.103796 0.020856 -0.0117
  endloop
 endfacet
 facet normal 0.414534 -0.904427 -0.100867
  outer loop
   vertex 0.103786 0.020654 -0.010456
   vertex 0.10354 0.020892 -0.013601
   vertex 0.103692 0.020812 -0.012259
  endloop
 endfacet
 facet normal 0.568739 -0.815632 -0.106209
  outer loop
   vertex 0.103786 0.020654 -0.010456
   vertex 0.099587 0.017884 -0.011669
   vertex 0.10354 0.020892 -0.013601
  endloop
 endfacet
 facet normal 0.782218 -0.615914 -0.0937248
  outer loop
   vertex 0.103796 0.020856 -0.0117
   vertex 0.1039 0.020905 -0.011154
   vertex 0.103786 0.020654 -0.010456
  endloop
 endfacet
 facet normal -0.975794 -0.176796 -0.128721
  outer loop
   vertex 0.092144 0.022444 -0.013235
   vertex 0.092782 0.020373 -0.015227
   vertex 0.092776 0.019903 -0.014536
  endloop
 endfacet
 facet normal -0.879933 -0.412829 -0.235138
  outer loop
   vertex 0.092887 0.019814 -0.011398
   vertex 0.092623 0.020109 -0.010928
   vertex 0.092144 0.022444 -0.013235
  endloop
 endfacet
 facet normal -0.972842 -0.215081 0.0855521
  outer loop
   vertex 0.09255 0.020641 -0.013151
   vertex 0.092887 0.019814 -0.011398
   vertex 0.092144 0.022444 -0.013235
  endloop
 endfacet
 facet normal -0.975211 -0.124431 -0.182977
  outer loop
   vertex 0.092841 0.020962 -0.015942
   vertex 0.092782 0.020373 -0.015227
   vertex 0.092144 0.022444 -0.013235
  endloop
 endfacet
 facet normal -0.973494 -0.221811 -0.0557551
  outer loop
   vertex 0.092676 0.020269 -0.013871
   vertex 0.09255 0.020641 -0.013151
   vertex 0.092144 0.022444 -0.013235
  endloop
 endfacet
 facet normal -0.972422 -0.232513 -0.0182617
  outer loop
   vertex 0.092776 0.019903 -0.014536
   vertex 0.092676 0.020269 -0.013871
   vertex 0.092144 0.022444 -0.013235
  endloop
 endfacet
 facet normal -0.860129 -0.356586 -0.364724
  outer loop
   vertex 0.092841 0.020962 -0.015942
   vertex 0.0932 0.020273 -0.016115
   vertex 0.092782 0.020373 -0.015227
  endloop
 endfacet
 facet normal -0.457438 -0.334301 -0.824011
  outer loop
   vertex 0.094813 0.028996 -0.021106
   vertex 0.093832 0.029976 -0.020959
   vertex 0.094241 0.030178 -0.021268
  endloop
 endfacet
 facet normal -0.264904 -0.121689 -0.956566
  outer loop
   vertex 0.093707 0.028448 -0.02073
   vertex 0.093832 0.029976 -0.020959
   vertex 0.094813 0.028996 -0.021106
  endloop
 endfacet
 facet normal -0.256312 -0.139017 -0.956545
  outer loop
   vertex 0.093707 0.028448 -0.02073
   vertex 0.094813 0.028996 -0.021106
   vertex 0.093609 0.026764 -0.020459
  endloop
 endfacet
 facet normal 0.137414 -0.509611 -0.849361
  outer loop
   vertex 0.093397 0.02179 -0.017598
   vertex 0.094794 0.01977 -0.01616
   vertex 0.094145 0.01964 -0.016187
  endloop
 endfacet
 facet normal 0.0135635 -0.545321 -0.838118
  outer loop
   vertex 0.093397 0.02179 -0.017598
   vertex 0.094145 0.01964 -0.016187
   vertex 0.093585 0.019623 -0.016185
  endloop
 endfacet
 facet normal -0.0107285 -0.901722 -0.432182
  outer loop
   vertex 0.093585 0.019623 -0.016185
   vertex 0.0957 0.019166 -0.015284
   vertex 0.095601 0.018616 -0.014134
  endloop
 endfacet
 facet normal -0.839008 -0.466854 -0.279487
  outer loop
   vertex 0.0932 0.020273 -0.016115
   vertex 0.093585 0.019623 -0.016185
   vertex 0.093366 0.019203 -0.014826
  endloop
 endfacet
 facet normal 0.0245491 -0.867143 -0.497454
  outer loop
   vertex 0.094145 0.01964 -0.016187
   vertex 0.0957 0.019166 -0.015284
   vertex 0.093585 0.019623 -0.016185
  endloop
 endfacet
 facet normal -0.14911 -0.937699 -0.313826
  outer loop
   vertex 0.095601 0.018616 -0.014134
   vertex 0.093366 0.019203 -0.014826
   vertex 0.093585 0.019623 -0.016185
  endloop
 endfacet
 facet normal -0.799694 -0.508551 -0.319163
  outer loop
   vertex 0.0932 0.020273 -0.016115
   vertex 0.093366 0.019203 -0.014826
   vertex 0.092782 0.020373 -0.015227
  endloop
 endfacet
 facet normal -0.843094 -0.516628 -0.149295
  outer loop
   vertex 0.092887 0.019814 -0.011398
   vertex 0.093098 0.019335 -0.010932
   vertex 0.092623 0.020109 -0.010928
  endloop
 endfacet
 facet normal -0.183866 -0.982936 0.00542799
  outer loop
   vertex 0.09409 0.018918 -0.010629
   vertex 0.095601 0.018616 -0.014134
   vertex 0.099587 0.017884 -0.011669
  endloop
 endfacet
 facet normal -0.0946019 -0.994502 0.0449061
  outer loop
   vertex 0.095601 0.018616 -0.014134
   vertex 0.09409 0.018918 -0.010629
   vertex 0.093661 0.018882 -0.01233
  endloop
 endfacet
 facet normal -0.416496 -0.900627 0.124102
  outer loop
   vertex 0.09409 0.018918 -0.010629
   vertex 0.093098 0.019335 -0.010932
   vertex 0.093661 0.018882 -0.01233
  endloop
 endfacet
 facet normal 0.377308 -0.826694 -0.417391
  outer loop
   vertex 0.101167 0.020089 -0.014608
   vertex 0.102066 0.020364 -0.01434
   vertex 0.099587 0.017884 -0.011669
  endloop
 endfacet
 facet normal 0.189347 -0.859327 -0.475083
  outer loop
   vertex 0.098591 0.019526 -0.015036
   vertex 0.100287 0.019793 -0.014843
   vertex 0.099587 0.017884 -0.011669
  endloop
 endfacet
 facet normal 0.387336 -0.825285 -0.410944
  outer loop
   vertex 0.099587 0.017884 -0.011669
   vertex 0.100287 0.019793 -0.014843
   vertex 0.101167 0.020089 -0.014608
  endloop
 endfacet
 facet normal 0.153022 -0.869642 -0.469368
  outer loop
   vertex 0.099587 0.017884 -0.011669
   vertex 0.09688 0.019287 -0.015151
   vertex 0.098591 0.019526 -0.015036
  endloop
 endfacet
 facet normal 0.489971 -0.824922 -0.281836
  outer loop
   vertex 0.10354 0.020892 -0.013601
   vertex 0.099587 0.017884 -0.011669
   vertex 0.102635 0.020527 -0.014106
  endloop
 endfacet
 facet normal 0.399765 -0.82649 -0.39636
  outer loop
   vertex 0.099587 0.017884 -0.011669
   vertex 0.102066 0.020364 -0.01434
   vertex 0.102635 0.020527 -0.014106
  endloop
 endfacet
 facet normal 0.112131 -0.888412 -0.445141
  outer loop
   vertex 0.095601 0.018616 -0.014134
   vertex 0.09688 0.019287 -0.015151
   vertex 0.099587 0.017884 -0.011669
  endloop
 endfacet
 facet normal -0.835509 -0.523538 -0.166833
  outer loop
   vertex 0.093661 0.018882 -0.01233
   vertex 0.093098 0.019335 -0.010932
   vertex 0.093038 0.019744 -0.011915
  endloop
 endfacet
 facet normal -0.829834 -0.531347 -0.170428
  outer loop
   vertex 0.093098 0.019335 -0.010932
   vertex 0.092887 0.019814 -0.011398
   vertex 0.093038 0.019744 -0.011915
  endloop
 endfacet
 facet normal 0.139136 -0.897969 -0.417485
  outer loop
   vertex 0.09688 0.019287 -0.015151
   vertex 0.095601 0.018616 -0.014134
   vertex 0.0957 0.019166 -0.015284
  endloop
 endfacet
 facet normal 0.172012 -0.718849 -0.673549
  outer loop
   vertex 0.094145 0.01964 -0.016187
   vertex 0.094794 0.01977 -0.01616
   vertex 0.0957 0.019166 -0.015284
  endloop
 endfacet
 facet normal -0.782099 -0.512083 -0.355093
  outer loop
   vertex 0.093366 0.019203 -0.014826
   vertex 0.092776 0.019903 -0.014536
   vertex 0.092782 0.020373 -0.015227
  endloop
 endfacet
 facet normal -0.676165 -0.683666 0.274594
  outer loop
   vertex 0.093366 0.019203 -0.014826
   vertex 0.092676 0.020269 -0.013871
   vertex 0.092776 0.019903 -0.014536
  endloop
 endfacet
 facet normal -0.773787 -0.617225 -0.142431
  outer loop
   vertex 0.093038 0.019744 -0.011915
   vertex 0.092887 0.019814 -0.011398
   vertex 0.09255 0.020641 -0.013151
  endloop
 endfacet
 facet normal -0.731121 -0.595853 -0.332297
  outer loop
   vertex 0.093097 0.019725 -0.012712
   vertex 0.09255 0.020641 -0.013151
   vertex 0.09421 0.018825 -0.013547
  endloop
 endfacet
 facet normal -0.692258 -0.683365 0.231928
  outer loop
   vertex 0.09421 0.018825 -0.013547
   vertex 0.09255 0.020641 -0.013151
   vertex 0.092676 0.020269 -0.013871
  endloop
 endfacet
 facet normal -0.846747 -0.529636 -0.0500584
  outer loop
   vertex 0.093038 0.019744 -0.011915
   vertex 0.09255 0.020641 -0.013151
   vertex 0.093097 0.019725 -0.012712
  endloop
 endfacet
 facet normal -0.690709 -0.676339 0.255906
  outer loop
   vertex 0.09421 0.018825 -0.013547
   vertex 0.092676 0.020269 -0.013871
   vertex 0.093366 0.019203 -0.014826
  endloop
 endfacet
 facet normal -0.159062 -0.986938 -0.0255286
  outer loop
   vertex 0.09421 0.018825 -0.013547
   vertex 0.095601 0.018616 -0.014134
   vertex 0.093661 0.018882 -0.01233
  endloop
 endfacet
 facet normal -0.207937 -0.966802 -0.148516
  outer loop
   vertex 0.09421 0.018825 -0.013547
   vertex 0.093366 0.019203 -0.014826
   vertex 0.095601 0.018616 -0.014134
  endloop
 endfacet
 facet normal -0.72538 -0.62042 -0.298165
  outer loop
   vertex 0.093097 0.019725 -0.012712
   vertex 0.09421 0.018825 -0.013547
   vertex 0.093661 0.018882 -0.01233
  endloop
 endfacet
 facet normal -0.820213 -0.570113 -0.0471292
  outer loop
   vertex 0.093661 0.018882 -0.01233
   vertex 0.093038 0.019744 -0.011915
   vertex 0.093097 0.019725 -0.012712
  endloop
 endfacet
endsolid
