solid ascii
 facet normal -0.323422 -0.945567 0.0360609
  outer loop
   vertex -0.026216 0.405048 0.00062
   vertex -0.026714 0.405479 0.007455
   vertex -0.036901 0.408702 0.000601
  endloop
 endfacet
 facet normal 0.799864 -0.592511 0.095641
  outer loop
   vertex -0.024828 0.408246 0.008824
   vertex -0.026714 0.405479 0.007455
   vertex -0.026216 0.405048 0.00062
  endloop
 endfacet
 facet normal 0.695175 -0.701726 0.155926
  outer loop
   vertex -0.024828 0.408246 0.008824
   vertex -0.026216 0.405048 0.00062
   vertex -0.025227 0.406028 0.000621
  endloop
 endfacet
 facet normal -0.32331 -0.945614 -0.0358465
  outer loop
   vertex -0.036901 0.408702 0.000601
   vertex -0.026714 0.405479 -0.006258
   vertex -0.026216 0.405048 0.00062
  endloop
 endfacet
 facet normal 0.800056 -0.592348 -0.0950467
  outer loop
   vertex -0.026216 0.405048 0.00062
   vertex -0.026714 0.405479 -0.006258
   vertex -0.024828 0.408246 -0.007627
  endloop
 endfacet
 facet normal 0.695431 -0.701667 -0.155047
  outer loop
   vertex -0.025227 0.406028 0.000621
   vertex -0.026216 0.405048 0.00062
   vertex -0.024828 0.408246 -0.007627
  endloop
 endfacet
 facet normal -0.335781 -0.940217 0.0569459
  outer loop
   vertex -0.026714 0.405479 0.007455
   vertex -0.029814 0.407017 0.014569
   vertex -0.036901 0.408702 0.000601
  endloop
 endfacet
 facet normal 0.640749 -0.643737 0.418383
  outer loop
   vertex -0.029814 0.407017 0.014569
   vertex -0.026714 0.405479 0.007455
   vertex -0.024828 0.408246 0.008824
  endloop
 endfacet
 facet normal -0.325669 -0.944088 0.0513485
  outer loop
   vertex -0.029814 0.407017 0.014569
   vertex -0.034933 0.408971 0.018029
   vertex -0.036901 0.408702 0.000601
  endloop
 endfacet
 facet normal -0.282423 -0.957609 -0.0567605
  outer loop
   vertex -0.046633 0.411328 0.004721
   vertex -0.046673 0.411584 0.000601
   vertex -0.036901 0.408702 0.000601
  endloop
 endfacet
 facet normal -0.249199 -0.968037 0.0283648
  outer loop
   vertex -0.036901 0.408702 0.000601
   vertex -0.046863 0.411622 0.012734
   vertex -0.046633 0.411328 0.004721
  endloop
 endfacet
 facet normal -0.17046 -0.980672 0.0960551
  outer loop
   vertex -0.043194 0.411512 0.018122
   vertex -0.046863 0.411622 0.012734
   vertex -0.036901 0.408702 0.000601
  endloop
 endfacet
 facet normal -0.293165 -0.954864 0.0478444
  outer loop
   vertex -0.036901 0.408702 0.000601
   vertex -0.034933 0.408971 0.018029
   vertex -0.043194 0.411512 0.018122
  endloop
 endfacet
 facet normal -0.3358 -0.940211 -0.0569361
  outer loop
   vertex -0.036901 0.408702 0.000601
   vertex -0.029814 0.407017 -0.013372
   vertex -0.026714 0.405479 -0.006258
  endloop
 endfacet
 facet normal -0.325678 -0.944086 -0.0513347
  outer loop
   vertex -0.036901 0.408702 0.000601
   vertex -0.034933 0.408971 -0.016832
   vertex -0.029814 0.407017 -0.013372
  endloop
 endfacet
 facet normal -0.282424 -0.957613 0.056692
  outer loop
   vertex -0.036901 0.408702 0.000601
   vertex -0.046673 0.411584 0.000601
   vertex -0.046633 0.411328 -0.003524
  endloop
 endfacet
 facet normal -0.249185 -0.96804 -0.0283653
  outer loop
   vertex -0.046633 0.411328 -0.003524
   vertex -0.046863 0.411622 -0.011537
   vertex -0.036901 0.408702 0.000601
  endloop
 endfacet
 facet normal -0.170435 -0.980678 -0.0960378
  outer loop
   vertex -0.036901 0.408702 0.000601
   vertex -0.046863 0.411622 -0.011537
   vertex -0.043194 0.411512 -0.016925
  endloop
 endfacet
 facet normal -0.293165 -0.954865 -0.0478307
  outer loop
   vertex -0.043194 0.411512 -0.016925
   vertex -0.034933 0.408971 -0.016832
   vertex -0.036901 0.408702 0.000601
  endloop
 endfacet
 facet normal 0.9424 0.326743 0.0715614
  outer loop
   vertex -0.024738 0.409783 0.000621
   vertex -0.025657 0.41051 0.009404
   vertex -0.024828 0.408246 0.008824
  endloop
 endfacet
 facet normal 0.991539 -0.129124 -0.0133153
  outer loop
   vertex -0.024738 0.409783 0.000621
   vertex -0.024828 0.408246 0.008824
   vertex -0.025227 0.406028 0.000621
  endloop
 endfacet
 facet normal 0.872912 0.206379 0.442077
  outer loop
   vertex -0.028668 0.410316 0.01544
   vertex -0.024828 0.408246 0.008824
   vertex -0.025657 0.41051 0.009404
  endloop
 endfacet
 facet normal 0.732841 -0.399908 0.55047
  outer loop
   vertex -0.029814 0.407017 0.014569
   vertex -0.024828 0.408246 0.008824
   vertex -0.028668 0.410316 0.01544
  endloop
 endfacet
 facet normal 0.99154 -0.129124 0.0132426
  outer loop
   vertex -0.025227 0.406028 0.000621
   vertex -0.024828 0.408246 -0.007627
   vertex -0.024738 0.409783 0.000621
  endloop
 endfacet
 facet normal 0.640749 -0.643737 -0.418383
  outer loop
   vertex -0.024828 0.408246 -0.007627
   vertex -0.026714 0.405479 -0.006258
   vertex -0.029814 0.407017 -0.013372
  endloop
 endfacet
 facet normal 0.942396 0.326837 -0.0711884
  outer loop
   vertex -0.024828 0.408246 -0.007627
   vertex -0.025657 0.41051 -0.008207
   vertex -0.024738 0.409783 0.000621
  endloop
 endfacet
 facet normal 0.872912 0.206379 -0.442077
  outer loop
   vertex -0.025657 0.41051 -0.008207
   vertex -0.024828 0.408246 -0.007627
   vertex -0.028668 0.410316 -0.014243
  endloop
 endfacet
 facet normal 0.732841 -0.399908 -0.55047
  outer loop
   vertex -0.028668 0.410316 -0.014243
   vertex -0.024828 0.408246 -0.007627
   vertex -0.029814 0.407017 -0.013372
  endloop
 endfacet
 facet normal 0.421438 -0.365517 0.829932
  outer loop
   vertex -0.034933 0.408971 0.018029
   vertex -0.029814 0.407017 0.014569
   vertex -0.028668 0.410316 0.01544
  endloop
 endfacet
 facet normal 0.405414 -0.15392 0.901082
  outer loop
   vertex -0.034933 0.408971 0.018029
   vertex -0.028668 0.410316 0.01544
   vertex -0.034695 0.413087 0.018625
  endloop
 endfacet
 facet normal -0.0323537 -0.141399 0.989424
  outer loop
   vertex -0.043194 0.411512 0.018122
   vertex -0.034933 0.408971 0.018029
   vertex -0.034695 0.413087 0.018625
  endloop
 endfacet
 facet normal -0.856466 -0.515657 -0.0237262
  outer loop
   vertex -0.046673 0.411584 0.000601
   vertex -0.046633 0.411328 0.004721
   vertex -0.048855 0.415013 0.004842
  endloop
 endfacet
 facet normal -0.856431 -0.51623 -0.00564173
  outer loop
   vertex -0.046863 0.411622 0.012734
   vertex -0.048855 0.415013 0.004842
   vertex -0.046633 0.411328 0.004721
  endloop
 endfacet
 facet normal -0.835668 -0.549056 0.0139787
  outer loop
   vertex -0.046673 0.411584 0.000601
   vertex -0.048855 0.415013 0.004842
   vertex -0.048855 0.414905 0.000601
  endloop
 endfacet
 facet normal -0.856467 -0.515658 0.0236975
  outer loop
   vertex -0.048855 0.415013 -0.003645
   vertex -0.046633 0.411328 -0.003524
   vertex -0.046673 0.411584 0.000601
  endloop
 endfacet
 facet normal -0.835669 -0.549056 -0.0139623
  outer loop
   vertex -0.048855 0.414905 0.000601
   vertex -0.048855 0.415013 -0.003645
   vertex -0.046673 0.411584 0.000601
  endloop
 endfacet
 facet normal -0.0469975 -0.793282 0.607037
  outer loop
   vertex -0.043017 0.416 0.018753
   vertex -0.049003 0.412892 0.014228
   vertex -0.046863 0.411622 0.012734
  endloop
 endfacet
 facet normal -0.826109 -0.0463784 0.561599
  outer loop
   vertex -0.043017 0.416 0.018753
   vertex -0.046863 0.411622 0.012734
   vertex -0.043194 0.411512 0.018122
  endloop
 endfacet
 facet normal -0.653632 -0.654631 -0.379768
  outer loop
   vertex -0.046863 0.411622 0.012734
   vertex -0.049003 0.412892 0.014228
   vertex -0.049271 0.416388 0.008663
  endloop
 endfacet
 facet normal -0.908154 -0.415558 0.0506697
  outer loop
   vertex -0.046863 0.411622 0.012734
   vertex -0.049271 0.416388 0.008663
   vertex -0.048855 0.415013 0.004842
  endloop
 endfacet
 facet normal -0.0330351 -0.137873 0.989899
  outer loop
   vertex -0.043194 0.411512 0.018122
   vertex -0.034695 0.413087 0.018625
   vertex -0.043017 0.416 0.018753
  endloop
 endfacet
 facet normal 0.421438 -0.365517 -0.829933
  outer loop
   vertex -0.028668 0.410316 -0.014243
   vertex -0.029814 0.407017 -0.013372
   vertex -0.034933 0.408971 -0.016832
  endloop
 endfacet
 facet normal 0.405414 -0.15392 -0.901082
  outer loop
   vertex -0.034695 0.413087 -0.017428
   vertex -0.028668 0.410316 -0.014243
   vertex -0.034933 0.408971 -0.016832
  endloop
 endfacet
 facet normal -0.0323537 -0.141399 -0.989424
  outer loop
   vertex -0.034695 0.413087 -0.017428
   vertex -0.034933 0.408971 -0.016832
   vertex -0.043194 0.411512 -0.016925
  endloop
 endfacet
 facet normal -0.856431 -0.51623 0.00564173
  outer loop
   vertex -0.046633 0.411328 -0.003524
   vertex -0.048855 0.415013 -0.003645
   vertex -0.046863 0.411622 -0.011537
  endloop
 endfacet
 facet normal -0.0469975 -0.793282 -0.607037
  outer loop
   vertex -0.046863 0.411622 -0.011537
   vertex -0.049003 0.412892 -0.013031
   vertex -0.043017 0.416 -0.017556
  endloop
 endfacet
 facet normal -0.826109 -0.0463786 -0.561599
  outer loop
   vertex -0.043194 0.411512 -0.016925
   vertex -0.046863 0.411622 -0.011537
   vertex -0.043017 0.416 -0.017556
  endloop
 endfacet
 facet normal -0.653632 -0.654631 0.379768
  outer loop
   vertex -0.049271 0.416388 -0.007466
   vertex -0.049003 0.412892 -0.013031
   vertex -0.046863 0.411622 -0.011537
  endloop
 endfacet
 facet normal -0.908154 -0.415558 -0.0506697
  outer loop
   vertex -0.048855 0.415013 -0.003645
   vertex -0.049271 0.416388 -0.007466
   vertex -0.046863 0.411622 -0.011537
  endloop
 endfacet
 facet normal -0.033035 -0.137874 -0.989899
  outer loop
   vertex -0.043017 0.416 -0.017556
   vertex -0.034695 0.413087 -0.017428
   vertex -0.043194 0.411512 -0.016925
  endloop
 endfacet
 facet normal 0.948287 -0.292434 0.123429
  outer loop
   vertex -0.022451 0.4172 0.000623
   vertex -0.025657 0.41051 0.009404
   vertex -0.024738 0.409783 0.000621
  endloop
 endfacet
 facet normal 0.948379 -0.292396 -0.122806
  outer loop
   vertex -0.024738 0.409783 0.000621
   vertex -0.025657 0.41051 -0.008207
   vertex -0.022451 0.4172 0.000623
  endloop
 endfacet
 facet normal 0.950555 -0.280455 0.133383
  outer loop
   vertex -0.022451 0.4172 0.000623
   vertex -0.023764 0.41678 0.009097
   vertex -0.025657 0.41051 0.009404
  endloop
 endfacet
 facet normal 0.766845 -0.201687 0.60932
  outer loop
   vertex -0.02949 0.413054 0.01507
   vertex -0.025657 0.41051 0.009404
   vertex -0.023764 0.41678 0.009097
  endloop
 endfacet
 facet normal 0.846014 0.312377 0.432066
  outer loop
   vertex -0.028668 0.410316 0.01544
   vertex -0.025657 0.41051 0.009404
   vertex -0.02949 0.413054 0.01507
  endloop
 endfacet
 facet normal 0.544118 0.270672 0.794148
  outer loop
   vertex -0.034695 0.413087 0.018625
   vertex -0.028668 0.410316 0.01544
   vertex -0.02949 0.413054 0.01507
  endloop
 endfacet
 facet normal 0.950642 -0.280519 -0.132626
  outer loop
   vertex -0.025657 0.41051 -0.008207
   vertex -0.023764 0.41678 -0.0079
   vertex -0.022451 0.4172 0.000623
  endloop
 endfacet
 facet normal 0.766845 -0.201687 -0.60932
  outer loop
   vertex -0.023764 0.41678 -0.0079
   vertex -0.025657 0.41051 -0.008207
   vertex -0.02949 0.413054 -0.013873
  endloop
 endfacet
 facet normal 0.846014 0.312377 -0.432066
  outer loop
   vertex -0.02949 0.413054 -0.013873
   vertex -0.025657 0.41051 -0.008207
   vertex -0.028668 0.410316 -0.014243
  endloop
 endfacet
 facet normal 0.544118 0.270672 -0.794148
  outer loop
   vertex -0.02949 0.413054 -0.013873
   vertex -0.028668 0.410316 -0.014243
   vertex -0.034695 0.413087 -0.017428
  endloop
 endfacet
 facet normal 0.546328 0.255906 0.79752
  outer loop
   vertex -0.034695 0.413087 0.018625
   vertex -0.02949 0.413054 0.01507
   vertex -0.033861 0.416377 0.016998
  endloop
 endfacet
 facet normal 0.155906 0.405829 0.900553
  outer loop
   vertex -0.043017 0.416 0.018753
   vertex -0.034695 0.413087 0.018625
   vertex -0.033861 0.416377 0.016998
  endloop
 endfacet
 facet normal -0.953079 0.302622 -0.00770462
  outer loop
   vertex -0.047111 0.420536 0.006039
   vertex -0.048855 0.414905 0.000601
   vertex -0.048855 0.415013 0.004842
  endloop
 endfacet
 facet normal -0.915271 0.336885 -0.220878
  outer loop
   vertex -0.047111 0.420536 0.006039
   vertex -0.048855 0.415013 0.004842
   vertex -0.049271 0.416388 0.008663
  endloop
 endfacet
 facet normal -0.930089 0.359754 -0.074237
  outer loop
   vertex -0.048855 0.414905 0.000601
   vertex -0.047111 0.420536 0.006039
   vertex -0.046725 0.420412 0.000602
  endloop
 endfacet
 facet normal -0.930105 0.359733 0.0741421
  outer loop
   vertex -0.046725 0.420412 0.000602
   vertex -0.047111 0.420536 -0.004842
   vertex -0.048855 0.414905 0.000601
  endloop
 endfacet
 facet normal -0.95308 0.302621 0.0076955
  outer loop
   vertex -0.048855 0.415013 -0.003645
   vertex -0.048855 0.414905 0.000601
   vertex -0.047111 0.420536 -0.004842
  endloop
 endfacet
 facet normal -0.915271 0.336885 0.220878
  outer loop
   vertex -0.049271 0.416388 -0.007466
   vertex -0.048855 0.415013 -0.003645
   vertex -0.047111 0.420536 -0.004842
  endloop
 endfacet
 facet normal 0.17025 0.272953 0.946843
  outer loop
   vertex -0.043017 0.416 0.018753
   vertex -0.033861 0.416377 0.016998
   vertex -0.042134 0.418821 0.017781
  endloop
 endfacet
 facet normal -0.67588 0.420187 0.605499
  outer loop
   vertex -0.042134 0.418821 0.017781
   vertex -0.049003 0.412892 0.014228
   vertex -0.043017 0.416 0.018753
  endloop
 endfacet
 facet normal -0.221487 -0.299524 0.928024
  outer loop
   vertex -0.042134 0.418821 0.017781
   vertex -0.046506 0.419157 0.016846
   vertex -0.049003 0.412892 0.014228
  endloop
 endfacet
 facet normal -0.976932 0.156462 0.145338
  outer loop
   vertex -0.049271 0.416388 0.008663
   vertex -0.049003 0.412892 0.014228
   vertex -0.048411 0.421519 0.00892
  endloop
 endfacet
 facet normal -0.923604 0.24486 0.294957
  outer loop
   vertex -0.049003 0.412892 0.014228
   vertex -0.046506 0.419157 0.016846
   vertex -0.048411 0.421519 0.00892
  endloop
 endfacet
 facet normal -0.875374 0.169399 -0.452796
  outer loop
   vertex -0.047111 0.420536 0.006039
   vertex -0.049271 0.416388 0.008663
   vertex -0.048411 0.421519 0.00892
  endloop
 endfacet
 facet normal 0.546328 0.255906 -0.79752
  outer loop
   vertex -0.033861 0.416377 -0.015801
   vertex -0.02949 0.413054 -0.013873
   vertex -0.034695 0.413087 -0.017428
  endloop
 endfacet
 facet normal 0.155906 0.405829 -0.900553
  outer loop
   vertex -0.033861 0.416377 -0.015801
   vertex -0.034695 0.413087 -0.017428
   vertex -0.043017 0.416 -0.017556
  endloop
 endfacet
 facet normal -0.221487 -0.299524 -0.928024
  outer loop
   vertex -0.049003 0.412892 -0.013031
   vertex -0.046506 0.419157 -0.015649
   vertex -0.042134 0.418821 -0.016584
  endloop
 endfacet
 facet normal -0.67588 0.420187 -0.605499
  outer loop
   vertex -0.043017 0.416 -0.017556
   vertex -0.049003 0.412892 -0.013031
   vertex -0.042134 0.418821 -0.016584
  endloop
 endfacet
 facet normal -0.976932 0.156462 -0.145338
  outer loop
   vertex -0.048411 0.421519 -0.007723
   vertex -0.049003 0.412892 -0.013031
   vertex -0.049271 0.416388 -0.007466
  endloop
 endfacet
 facet normal -0.923604 0.24486 -0.294957
  outer loop
   vertex -0.048411 0.421519 -0.007723
   vertex -0.046506 0.419157 -0.015649
   vertex -0.049003 0.412892 -0.013031
  endloop
 endfacet
 facet normal 0.17025 0.272954 -0.946843
  outer loop
   vertex -0.042134 0.418821 -0.016584
   vertex -0.033861 0.416377 -0.015801
   vertex -0.043017 0.416 -0.017556
  endloop
 endfacet
 facet normal -0.875374 0.169399 0.452796
  outer loop
   vertex -0.048411 0.421519 -0.007723
   vertex -0.049271 0.416388 -0.007466
   vertex -0.047111 0.420536 -0.004842
  endloop
 endfacet
 facet normal 0.905829 -0.406227 0.120219
  outer loop
   vertex -0.021195 0.420001 0.000624
   vertex -0.023764 0.41678 0.009097
   vertex -0.022451 0.4172 0.000623
  endloop
 endfacet
 facet normal 0.905936 -0.406189 -0.119546
  outer loop
   vertex -0.022451 0.4172 0.000623
   vertex -0.023764 0.41678 -0.0079
   vertex -0.021195 0.420001 0.000624
  endloop
 endfacet
 facet normal 0.833039 -0.551548 0.0429053
  outer loop
   vertex -0.021195 0.420001 0.000624
   vertex -0.021754 0.419886 0.009999
   vertex -0.023764 0.41678 0.009097
  endloop
 endfacet
 facet normal 0.595782 -0.554328 0.581175
  outer loop
   vertex -0.028126 0.418937 0.015626
   vertex -0.023764 0.41678 0.009097
   vertex -0.021754 0.419886 0.009999
  endloop
 endfacet
 facet normal 0.770688 -0.234677 0.592424
  outer loop
   vertex -0.02949 0.413054 0.01507
   vertex -0.023764 0.41678 0.009097
   vertex -0.028126 0.418937 0.015626
  endloop
 endfacet
 facet normal 0.295755 -0.157616 0.942171
  outer loop
   vertex -0.033861 0.416377 0.016998
   vertex -0.02949 0.413054 0.01507
   vertex -0.028126 0.418937 0.015626
  endloop
 endfacet
 facet normal 0.833078 -0.551507 -0.042676
  outer loop
   vertex -0.023764 0.41678 -0.0079
   vertex -0.021754 0.419886 -0.008802
   vertex -0.021195 0.420001 0.000624
  endloop
 endfacet
 facet normal 0.595782 -0.554328 -0.581175
  outer loop
   vertex -0.021754 0.419886 -0.008802
   vertex -0.023764 0.41678 -0.0079
   vertex -0.028126 0.418937 -0.014429
  endloop
 endfacet
 facet normal 0.770688 -0.234677 -0.592424
  outer loop
   vertex -0.028126 0.418937 -0.014429
   vertex -0.023764 0.41678 -0.0079
   vertex -0.02949 0.413054 -0.013873
  endloop
 endfacet
 facet normal 0.295755 -0.157616 -0.942171
  outer loop
   vertex -0.028126 0.418937 -0.014429
   vertex -0.02949 0.413054 -0.013873
   vertex -0.033861 0.416377 -0.015801
  endloop
 endfacet
 facet normal 0.297092 -0.161159 0.94115
  outer loop
   vertex -0.033861 0.416377 0.016998
   vertex -0.028126 0.418937 0.015626
   vertex -0.031855 0.420513 0.017073
  endloop
 endfacet
 facet normal 0.0777401 -0.0557549 0.995413
  outer loop
   vertex -0.042134 0.418821 0.017781
   vertex -0.033861 0.416377 0.016998
   vertex -0.031855 0.420513 0.017073
  endloop
 endfacet
 facet normal -0.870868 0.486079 -0.0729138
  outer loop
   vertex -0.046725 0.420412 0.000602
   vertex -0.047111 0.420536 0.006039
   vertex -0.043679 0.426712 0.00622
  endloop
 endfacet
 facet normal -0.760331 0.43661 -0.480904
  outer loop
   vertex -0.047111 0.420536 0.006039
   vertex -0.045097 0.427634 0.009299
   vertex -0.043679 0.426712 0.00622
  endloop
 endfacet
 facet normal -0.753491 0.438702 -0.489685
  outer loop
   vertex -0.047111 0.420536 0.006039
   vertex -0.048411 0.421519 0.00892
   vertex -0.045097 0.427634 0.009299
  endloop
 endfacet
 facet normal -0.857416 0.504617 -0.100996
  outer loop
   vertex -0.046725 0.420412 0.000602
   vertex -0.043679 0.426712 0.00622
   vertex -0.0431 0.426572 0.000605
  endloop
 endfacet
 facet normal -0.870875 0.48608 0.0728205
  outer loop
   vertex -0.043679 0.426712 -0.005023
   vertex -0.047111 0.420536 -0.004842
   vertex -0.046725 0.420412 0.000602
  endloop
 endfacet
 facet normal -0.857478 0.504556 0.100768
  outer loop
   vertex -0.0431 0.426572 0.000605
   vertex -0.043679 0.426712 -0.005023
   vertex -0.046725 0.420412 0.000602
  endloop
 endfacet
 facet normal -0.760331 0.43661 0.480904
  outer loop
   vertex -0.043679 0.426712 -0.005023
   vertex -0.045097 0.427634 -0.008102
   vertex -0.047111 0.420536 -0.004842
  endloop
 endfacet
 facet normal -0.753491 0.438702 0.489685
  outer loop
   vertex -0.045097 0.427634 -0.008102
   vertex -0.048411 0.421519 -0.007723
   vertex -0.047111 0.420536 -0.004842
  endloop
 endfacet
 facet normal 0.0793701 -0.0659727 0.99466
  outer loop
   vertex -0.042134 0.418821 0.017781
   vertex -0.031855 0.420513 0.017073
   vertex -0.039507 0.423851 0.017905
  endloop
 endfacet
 facet normal -0.202428 0.0816638 0.975886
  outer loop
   vertex -0.039507 0.423851 0.017905
   vertex -0.046506 0.419157 0.016846
   vertex -0.042134 0.418821 0.017781
  endloop
 endfacet
 facet normal -0.0229156 -0.187382 0.98202
  outer loop
   vertex -0.039507 0.423851 0.017905
   vertex -0.042934 0.426031 0.018241
   vertex -0.046506 0.419157 0.016846
  endloop
 endfacet
 facet normal -0.430767 -0.673637 0.600544
  outer loop
   vertex -0.050555 0.42031 0.015235
   vertex -0.046506 0.419157 0.016846
   vertex -0.048486 0.421936 0.018543
  endloop
 endfacet
 facet normal -0.143378 -0.588182 0.795918
  outer loop
   vertex -0.0458 0.426035 0.022056
   vertex -0.048486 0.421936 0.018543
   vertex -0.046506 0.419157 0.016846
  endloop
 endfacet
 facet normal 0.704063 -0.473298 0.529419
  outer loop
   vertex -0.0458 0.426035 0.022056
   vertex -0.046506 0.419157 0.016846
   vertex -0.042934 0.426031 0.018241
  endloop
 endfacet
 facet normal -0.175354 -0.954242 -0.242226
  outer loop
   vertex -0.046506 0.419157 0.016846
   vertex -0.050555 0.42031 0.015235
   vertex -0.048411 0.421519 0.00892
  endloop
 endfacet
 facet normal 0.586951 -0.270807 -0.762989
  outer loop
   vertex -0.045097 0.427634 0.009299
   vertex -0.048411 0.421519 0.00892
   vertex -0.05347 0.425002 0.003792
  endloop
 endfacet
 facet normal -0.330939 -0.89971 -0.284608
  outer loop
   vertex -0.05347 0.425002 0.003792
   vertex -0.048411 0.421519 0.00892
   vertex -0.050555 0.42031 0.015235
  endloop
 endfacet
 facet normal 0.297092 -0.161159 -0.94115
  outer loop
   vertex -0.031855 0.420513 -0.015876
   vertex -0.028126 0.418937 -0.014429
   vertex -0.033861 0.416377 -0.015801
  endloop
 endfacet
 facet normal 0.07774 -0.0557553 -0.995413
  outer loop
   vertex -0.031855 0.420513 -0.015876
   vertex -0.033861 0.416377 -0.015801
   vertex -0.042134 0.418821 -0.016584
  endloop
 endfacet
 facet normal -0.0229152 -0.187382 -0.98202
  outer loop
   vertex -0.046506 0.419157 -0.015649
   vertex -0.042934 0.426031 -0.017044
   vertex -0.039507 0.423851 -0.016708
  endloop
 endfacet
 facet normal -0.202428 0.0816636 -0.975886
  outer loop
   vertex -0.042134 0.418821 -0.016584
   vertex -0.046506 0.419157 -0.015649
   vertex -0.039507 0.423851 -0.016708
  endloop
 endfacet
 facet normal -0.430767 -0.673637 -0.600544
  outer loop
   vertex -0.048486 0.421936 -0.017346
   vertex -0.046506 0.419157 -0.015649
   vertex -0.050555 0.42031 -0.014038
  endloop
 endfacet
 facet normal -0.143378 -0.588182 -0.795918
  outer loop
   vertex -0.046506 0.419157 -0.015649
   vertex -0.048486 0.421936 -0.017346
   vertex -0.0458 0.426035 -0.020859
  endloop
 endfacet
 facet normal 0.704063 -0.473298 -0.529419
  outer loop
   vertex -0.042934 0.426031 -0.017044
   vertex -0.046506 0.419157 -0.015649
   vertex -0.0458 0.426035 -0.020859
  endloop
 endfacet
 facet normal -0.175354 -0.954242 0.242226
  outer loop
   vertex -0.048411 0.421519 -0.007723
   vertex -0.050555 0.42031 -0.014038
   vertex -0.046506 0.419157 -0.015649
  endloop
 endfacet
 facet normal 0.0793699 -0.0659726 -0.99466
  outer loop
   vertex -0.039507 0.423851 -0.016708
   vertex -0.031855 0.420513 -0.015876
   vertex -0.042134 0.418821 -0.016584
  endloop
 endfacet
 facet normal 0.586951 -0.270807 0.762989
  outer loop
   vertex -0.05347 0.425002 -0.002595
   vertex -0.048411 0.421519 -0.007723
   vertex -0.045097 0.427634 -0.008102
  endloop
 endfacet
 facet normal -0.330939 -0.89971 0.284608
  outer loop
   vertex -0.050555 0.42031 -0.014038
   vertex -0.048411 0.421519 -0.007723
   vertex -0.05347 0.425002 -0.002595
  endloop
 endfacet
 facet normal 0.968478 -0.243003 0.0547661
  outer loop
   vertex -0.020354 0.423353 0.000625
   vertex -0.021754 0.419886 0.009999
   vertex -0.021195 0.420001 0.000624
  endloop
 endfacet
 facet normal 0.968502 -0.242977 -0.0544715
  outer loop
   vertex -0.021195 0.420001 0.000624
   vertex -0.021754 0.419886 -0.008802
   vertex -0.020354 0.423353 0.000625
  endloop
 endfacet
 facet normal 0.977269 -0.199317 0.0722366
  outer loop
   vertex -0.020354 0.423353 0.000625
   vertex -0.021045 0.423425 0.010172
   vertex -0.021754 0.419886 0.009999
  endloop
 endfacet
 facet normal 0.815039 -0.190041 0.547354
  outer loop
   vertex -0.025825 0.421165 0.016505
   vertex -0.021754 0.419886 0.009999
   vertex -0.021045 0.423425 0.010172
  endloop
 endfacet
 facet normal 0.51767 -0.718125 0.465096
  outer loop
   vertex -0.028126 0.418937 0.015626
   vertex -0.021754 0.419886 0.009999
   vertex -0.025825 0.421165 0.016505
  endloop
 endfacet
 facet normal 0.133572 -0.480015 0.867032
  outer loop
   vertex -0.031855 0.420513 0.017073
   vertex -0.028126 0.418937 0.015626
   vertex -0.025825 0.421165 0.016505
  endloop
 endfacet
 facet normal 0.977301 -0.199304 -0.07184
  outer loop
   vertex -0.021754 0.419886 -0.008802
   vertex -0.021045 0.423425 -0.008975
   vertex -0.020354 0.423353 0.000625
  endloop
 endfacet
 facet normal 0.815039 -0.190041 -0.547354
  outer loop
   vertex -0.021045 0.423425 -0.008975
   vertex -0.021754 0.419886 -0.008802
   vertex -0.025825 0.421165 -0.015308
  endloop
 endfacet
 facet normal 0.51767 -0.718125 -0.465096
  outer loop
   vertex -0.025825 0.421165 -0.015308
   vertex -0.021754 0.419886 -0.008802
   vertex -0.028126 0.418937 -0.014429
  endloop
 endfacet
 facet normal 0.133572 -0.480015 -0.867032
  outer loop
   vertex -0.025825 0.421165 -0.015308
   vertex -0.028126 0.418937 -0.014429
   vertex -0.031855 0.420513 -0.015876
  endloop
 endfacet
 facet normal 0.141231 -0.676652 0.722631
  outer loop
   vertex -0.031855 0.420513 0.017073
   vertex -0.025825 0.421165 0.016505
   vertex -0.03063 0.422628 0.018814
  endloop
 endfacet
 facet normal -0.161034 -0.56998 0.805724
  outer loop
   vertex -0.039507 0.423851 0.017905
   vertex -0.031855 0.420513 0.017073
   vertex -0.03063 0.422628 0.018814
  endloop
 endfacet
 facet normal -0.967375 0.23034 -0.105496
  outer loop
   vertex -0.0431 0.426572 0.000605
   vertex -0.043679 0.426712 0.00622
   vertex -0.042523 0.432275 0.007766
  endloop
 endfacet
 facet normal -0.763275 0.431603 -0.48076
  outer loop
   vertex -0.043679 0.426712 0.00622
   vertex -0.045097 0.427634 0.009299
   vertex -0.043473 0.43122 0.00994
  endloop
 endfacet
 facet normal -0.923751 0.267995 -0.27361
  outer loop
   vertex -0.043679 0.426712 0.00622
   vertex -0.043473 0.43122 0.00994
   vertex -0.042523 0.432275 0.007766
  endloop
 endfacet
 facet normal 0.570536 -0.112972 -0.813465
  outer loop
   vertex -0.05347 0.425002 0.003792
   vertex -0.043473 0.43122 0.00994
   vertex -0.045097 0.427634 0.009299
  endloop
 endfacet
 facet normal -0.921731 0.336146 -0.193437
  outer loop
   vertex -0.0431 0.426572 0.000605
   vertex -0.042523 0.432275 0.007766
   vertex -0.041454 0.431086 0.000606
  endloop
 endfacet
 facet normal -0.967415 0.230282 0.105255
  outer loop
   vertex -0.042523 0.432275 -0.006569
   vertex -0.043679 0.426712 -0.005023
   vertex -0.0431 0.426572 0.000605
  endloop
 endfacet
 facet normal -0.921832 0.336097 0.193039
  outer loop
   vertex -0.041454 0.431086 0.000606
   vertex -0.042523 0.432275 -0.006569
   vertex -0.0431 0.426572 0.000605
  endloop
 endfacet
 facet normal -0.763275 0.431603 0.48076
  outer loop
   vertex -0.043473 0.43122 -0.008743
   vertex -0.045097 0.427634 -0.008102
   vertex -0.043679 0.426712 -0.005023
  endloop
 endfacet
 facet normal -0.923751 0.267995 0.27361
  outer loop
   vertex -0.042523 0.432275 -0.006569
   vertex -0.043473 0.43122 -0.008743
   vertex -0.043679 0.426712 -0.005023
  endloop
 endfacet
 facet normal 0.570536 -0.112972 0.813465
  outer loop
   vertex -0.045097 0.427634 -0.008102
   vertex -0.043473 0.43122 -0.008743
   vertex -0.05347 0.425002 -0.002595
  endloop
 endfacet
 facet normal -0.15295 -0.460119 0.874584
  outer loop
   vertex -0.039507 0.423851 0.017905
   vertex -0.03063 0.422628 0.018814
   vertex -0.036897 0.426382 0.019693
  endloop
 endfacet
 facet normal -0.187321 -0.430557 0.882911
  outer loop
   vertex -0.036897 0.426382 0.019693
   vertex -0.042934 0.426031 0.018241
   vertex -0.039507 0.423851 0.017905
  endloop
 endfacet
 facet normal -0.223086 0.572171 0.78921
  outer loop
   vertex -0.036897 0.426382 0.019693
   vertex -0.040605 0.427757 0.017648
   vertex -0.042934 0.426031 0.018241
  endloop
 endfacet
 facet normal 0.726119 0.419127 0.545054
  outer loop
   vertex -0.045151 0.430591 0.017688
   vertex -0.0458 0.426035 0.022056
   vertex -0.042934 0.426031 0.018241
  endloop
 endfacet
 facet normal 0.11835 0.176052 0.977241
  outer loop
   vertex -0.045151 0.430591 0.017688
   vertex -0.042934 0.426031 0.018241
   vertex -0.040605 0.427757 0.017648
  endloop
 endfacet
 facet normal -0.695563 -0.613765 0.373477
  outer loop
   vertex -0.055143 0.428656 0.020406
   vertex -0.054651 0.425003 0.015319
   vertex -0.050555 0.42031 0.015235
  endloop
 endfacet
 facet normal -0.86282 -0.182148 -0.471554
  outer loop
   vertex -0.055143 0.428656 0.020406
   vertex -0.050555 0.42031 0.015235
   vertex -0.053989 0.419617 0.021786
  endloop
 endfacet
 facet normal -0.871309 0.179531 0.456716
  outer loop
   vertex -0.050555 0.42031 0.015235
   vertex -0.048486 0.421936 0.018543
   vertex -0.0458 0.426035 0.022056
  endloop
 endfacet
 facet normal 0.595486 -0.769514 0.230748
  outer loop
   vertex -0.050555 0.42031 0.015235
   vertex -0.0458 0.426035 0.022056
   vertex -0.053989 0.419617 0.021786
  endloop
 endfacet
 facet normal -0.684742 -0.60491 0.406463
  outer loop
   vertex -0.050555 0.42031 0.015235
   vertex -0.054651 0.425003 0.015319
   vertex -0.052646 0.418904 0.00962
  endloop
 endfacet
 facet normal 0.936922 -0.166911 -0.307112
  outer loop
   vertex -0.050555 0.42031 0.015235
   vertex -0.052646 0.418904 0.00962
   vertex -0.05347 0.425002 0.003792
  endloop
 endfacet
 facet normal -0.198367 -0.252448 0.947059
  outer loop
   vertex -0.0458 0.426035 0.022056
   vertex -0.051296 0.426302 0.020976
   vertex -0.054085 0.421542 0.019123
  endloop
 endfacet
 facet normal -0.542741 0.671271 0.504804
  outer loop
   vertex -0.0458 0.426035 0.022056
   vertex -0.054085 0.421542 0.019123
   vertex -0.053989 0.419617 0.021786
  endloop
 endfacet
 facet normal -0.105753 0.695984 0.710227
  outer loop
   vertex -0.045151 0.430591 0.017688
   vertex -0.051296 0.426302 0.020976
   vertex -0.0458 0.426035 0.022056
  endloop
 endfacet
 facet normal 0.863276 -0.495015 0.0985637
  outer loop
   vertex -0.055353 0.421083 0.000602
   vertex -0.05347 0.425002 0.003792
   vertex -0.060474 0.413024 0.00498
  endloop
 endfacet
 facet normal 0.560887 0.343612 -0.753218
  outer loop
   vertex -0.05347 0.425002 0.003792
   vertex -0.055353 0.421083 0.000602
   vertex -0.059795 0.428336 0.000603
  endloop
 endfacet
 facet normal 0.584113 0.487126 -0.649246
  outer loop
   vertex -0.05347 0.425002 0.003792
   vertex -0.059795 0.428336 0.000603
   vertex -0.053921 0.430097 0.007209
  endloop
 endfacet
 facet normal 0.68157 -0.455353 -0.572814
  outer loop
   vertex -0.052646 0.418904 0.00962
   vertex -0.060474 0.413024 0.00498
   vertex -0.05347 0.425002 0.003792
  endloop
 endfacet
 facet normal 0.15273 0.559747 -0.814467
  outer loop
   vertex -0.05347 0.425002 0.003792
   vertex -0.053921 0.430097 0.007209
   vertex -0.043473 0.43122 0.00994
  endloop
 endfacet
 facet normal 0.141231 -0.676652 -0.722631
  outer loop
   vertex -0.03063 0.422628 -0.017617
   vertex -0.025825 0.421165 -0.015308
   vertex -0.031855 0.420513 -0.015876
  endloop
 endfacet
 facet normal -0.161035 -0.56998 -0.805724
  outer loop
   vertex -0.03063 0.422628 -0.017617
   vertex -0.031855 0.420513 -0.015876
   vertex -0.039507 0.423851 -0.016708
  endloop
 endfacet
 facet normal -0.223086 0.572172 -0.78921
  outer loop
   vertex -0.042934 0.426031 -0.017044
   vertex -0.040605 0.427757 -0.016451
   vertex -0.036897 0.426382 -0.018496
  endloop
 endfacet
 facet normal -0.187321 -0.430557 -0.882911
  outer loop
   vertex -0.039507 0.423851 -0.016708
   vertex -0.042934 0.426031 -0.017044
   vertex -0.036897 0.426382 -0.018496
  endloop
 endfacet
 facet normal 0.726118 0.419128 -0.545054
  outer loop
   vertex -0.042934 0.426031 -0.017044
   vertex -0.0458 0.426035 -0.020859
   vertex -0.045151 0.430591 -0.016491
  endloop
 endfacet
 facet normal 0.11835 0.176052 -0.97724
  outer loop
   vertex -0.040605 0.427757 -0.016451
   vertex -0.042934 0.426031 -0.017044
   vertex -0.045151 0.430591 -0.016491
  endloop
 endfacet
 facet normal -0.15295 -0.460119 -0.874584
  outer loop
   vertex -0.036897 0.426382 -0.018496
   vertex -0.03063 0.422628 -0.017617
   vertex -0.039507 0.423851 -0.016708
  endloop
 endfacet
 facet normal -0.871309 0.179532 -0.456715
  outer loop
   vertex -0.0458 0.426035 -0.020859
   vertex -0.048486 0.421936 -0.017346
   vertex -0.050555 0.42031 -0.014038
  endloop
 endfacet
 facet normal -0.695563 -0.613765 -0.373477
  outer loop
   vertex -0.050555 0.42031 -0.014038
   vertex -0.054651 0.425003 -0.014122
   vertex -0.055143 0.428656 -0.019209
  endloop
 endfacet
 facet normal -0.862799 -0.182102 0.471611
  outer loop
   vertex -0.053989 0.419617 -0.020588
   vertex -0.050555 0.42031 -0.014038
   vertex -0.055143 0.428656 -0.019209
  endloop
 endfacet
 facet normal 0.595464 -0.769524 -0.230771
  outer loop
   vertex -0.053989 0.419617 -0.020588
   vertex -0.0458 0.426035 -0.020859
   vertex -0.050555 0.42031 -0.014038
  endloop
 endfacet
 facet normal -0.684742 -0.60491 -0.406463
  outer loop
   vertex -0.052646 0.418904 -0.008423
   vertex -0.054651 0.425003 -0.014122
   vertex -0.050555 0.42031 -0.014038
  endloop
 endfacet
 facet normal 0.936922 -0.166911 0.307112
  outer loop
   vertex -0.05347 0.425002 -0.002595
   vertex -0.052646 0.418904 -0.008423
   vertex -0.050555 0.42031 -0.014038
  endloop
 endfacet
 facet normal -0.198367 -0.252448 -0.947059
  outer loop
   vertex -0.054085 0.421542 -0.017926
   vertex -0.051296 0.426302 -0.019779
   vertex -0.0458 0.426035 -0.020859
  endloop
 endfacet
 facet normal -0.542736 0.671181 -0.504929
  outer loop
   vertex -0.053989 0.419617 -0.020588
   vertex -0.054085 0.421542 -0.017926
   vertex -0.0458 0.426035 -0.020859
  endloop
 endfacet
 facet normal -0.105753 0.695984 -0.710227
  outer loop
   vertex -0.0458 0.426035 -0.020859
   vertex -0.051296 0.426302 -0.019779
   vertex -0.045151 0.430591 -0.016491
  endloop
 endfacet
 facet normal 0.86328 -0.495044 -0.0983807
  outer loop
   vertex -0.060474 0.413024 -0.003782
   vertex -0.05347 0.425002 -0.002595
   vertex -0.055353 0.421083 0.000602
  endloop
 endfacet
 facet normal 0.561732 0.343921 0.752446
  outer loop
   vertex -0.059795 0.428336 0.000603
   vertex -0.055353 0.421083 0.000602
   vertex -0.05347 0.425002 -0.002595
  endloop
 endfacet
 facet normal 0.584727 0.486915 0.648851
  outer loop
   vertex -0.053921 0.430097 -0.006012
   vertex -0.059795 0.428336 0.000603
   vertex -0.05347 0.425002 -0.002595
  endloop
 endfacet
 facet normal 0.681608 -0.455325 0.57279
  outer loop
   vertex -0.05347 0.425002 -0.002595
   vertex -0.060474 0.413024 -0.003782
   vertex -0.052646 0.418904 -0.008423
  endloop
 endfacet
 facet normal 0.15273 0.559747 0.814467
  outer loop
   vertex -0.043473 0.43122 -0.008743
   vertex -0.053921 0.430097 -0.006012
   vertex -0.05347 0.425002 -0.002595
  endloop
 endfacet
 facet normal 0.380535 0.924538 0.0205698
  outer loop
   vertex -0.021045 0.423425 0.010172
   vertex -0.020354 0.423353 0.000625
   vertex -0.031981 0.428139 0.000607
  endloop
 endfacet
 facet normal 0.38059 0.924517 -0.0204604
  outer loop
   vertex -0.031981 0.428139 0.000607
   vertex -0.020354 0.423353 0.000625
   vertex -0.021045 0.423425 -0.008975
  endloop
 endfacet
 facet normal 0.814339 -0.233867 0.531186
  outer loop
   vertex -0.025825 0.421165 0.016505
   vertex -0.021045 0.423425 0.010172
   vertex -0.024924 0.424802 0.016725
  endloop
 endfacet
 facet normal 0.375327 0.926485 0.0274847
  outer loop
   vertex -0.024924 0.424802 0.016725
   vertex -0.021045 0.423425 0.010172
   vertex -0.031981 0.428139 0.000607
  endloop
 endfacet
 facet normal 0.369035 -0.215027 0.904199
  outer loop
   vertex -0.030202 0.427063 0.019694
   vertex -0.03063 0.422628 0.018814
   vertex -0.025825 0.421165 0.016505
  endloop
 endfacet
 facet normal 0.430823 -0.160446 0.888059
  outer loop
   vertex -0.030202 0.427063 0.019694
   vertex -0.025825 0.421165 0.016505
   vertex -0.024924 0.424802 0.016725
  endloop
 endfacet
 facet normal 0.814339 -0.233867 -0.531186
  outer loop
   vertex -0.024924 0.424802 -0.015528
   vertex -0.021045 0.423425 -0.008975
   vertex -0.025825 0.421165 -0.015308
  endloop
 endfacet
 facet normal 0.375303 0.926495 -0.0274683
  outer loop
   vertex -0.031981 0.428139 0.000607
   vertex -0.021045 0.423425 -0.008975
   vertex -0.024924 0.424802 -0.015528
  endloop
 endfacet
 facet normal 0.369035 -0.215026 -0.9042
  outer loop
   vertex -0.025825 0.421165 -0.015308
   vertex -0.03063 0.422628 -0.017617
   vertex -0.030202 0.427063 -0.018497
  endloop
 endfacet
 facet normal 0.430823 -0.160446 -0.888059
  outer loop
   vertex -0.024924 0.424802 -0.015528
   vertex -0.025825 0.421165 -0.015308
   vertex -0.030202 0.427063 -0.018497
  endloop
 endfacet
 facet normal 0.123122 -0.0267424 0.992031
  outer loop
   vertex -0.037174 0.429484 0.019811
   vertex -0.036897 0.426382 0.019693
   vertex -0.03063 0.422628 0.018814
  endloop
 endfacet
 facet normal -0.0494509 -0.189796 0.980577
  outer loop
   vertex -0.037174 0.429484 0.019811
   vertex -0.03063 0.422628 0.018814
   vertex -0.030202 0.427063 0.019694
  endloop
 endfacet
 facet normal 0.602774 0.73519 0.310094
  outer loop
   vertex -0.051122 0.436568 0.014303
   vertex -0.044537 0.431854 0.012679
   vertex -0.042523 0.432275 0.007766
  endloop
 endfacet
 facet normal 0.16397 0.909632 -0.381685
  outer loop
   vertex -0.042523 0.432275 0.007766
   vertex -0.051503 0.434503 0.009218
   vertex -0.051122 0.436568 0.014303
  endloop
 endfacet
 facet normal -0.0385141 0.431992 -0.901055
  outer loop
   vertex -0.042523 0.432275 0.007766
   vertex -0.053921 0.430097 0.007209
   vertex -0.051503 0.434503 0.009218
  endloop
 endfacet
 facet normal 0.192066 -0.91326 -0.359258
  outer loop
   vertex -0.053921 0.430097 0.007209
   vertex -0.042523 0.432275 0.007766
   vertex -0.043473 0.43122 0.00994
  endloop
 endfacet
 facet normal 0.295145 0.94869 -0.113474
  outer loop
   vertex -0.041454 0.431086 0.000606
   vertex -0.042523 0.432275 0.007766
   vertex -0.031981 0.428139 0.000607
  endloop
 endfacet
 facet normal 0.391289 0.919159 0.045164
  outer loop
   vertex -0.042523 0.432275 0.007766
   vertex -0.04118 0.431335 0.015261
   vertex -0.031981 0.428139 0.000607
  endloop
 endfacet
 facet normal 0.0668571 0.991416 0.11236
  outer loop
   vertex -0.044537 0.431854 0.012679
   vertex -0.04118 0.431335 0.015261
   vertex -0.042523 0.432275 0.007766
  endloop
 endfacet
 facet normal 0.295131 0.948722 0.113244
  outer loop
   vertex -0.031981 0.428139 0.000607
   vertex -0.042523 0.432275 -0.006569
   vertex -0.041454 0.431086 0.000606
  endloop
 endfacet
 facet normal 0.602774 0.73519 -0.310094
  outer loop
   vertex -0.042523 0.432275 -0.006569
   vertex -0.044537 0.431854 -0.011482
   vertex -0.051122 0.436568 -0.013106
  endloop
 endfacet
 facet normal 0.16397 0.909632 0.381685
  outer loop
   vertex -0.051122 0.436568 -0.013106
   vertex -0.051503 0.434503 -0.008021
   vertex -0.042523 0.432275 -0.006569
  endloop
 endfacet
 facet normal -0.0385141 0.431992 0.901055
  outer loop
   vertex -0.051503 0.434503 -0.008021
   vertex -0.053921 0.430097 -0.006012
   vertex -0.042523 0.432275 -0.006569
  endloop
 endfacet
 facet normal 0.192066 -0.91326 0.359258
  outer loop
   vertex -0.043473 0.43122 -0.008743
   vertex -0.042523 0.432275 -0.006569
   vertex -0.053921 0.430097 -0.006012
  endloop
 endfacet
 facet normal 0.391344 0.919136 -0.0451512
  outer loop
   vertex -0.031981 0.428139 0.000607
   vertex -0.04118 0.431335 -0.014064
   vertex -0.042523 0.432275 -0.006569
  endloop
 endfacet
 facet normal 0.0668571 0.991416 -0.11236
  outer loop
   vertex -0.042523 0.432275 -0.006569
   vertex -0.04118 0.431335 -0.014064
   vertex -0.044537 0.431854 -0.011482
  endloop
 endfacet
 facet normal -0.503409 -0.0776885 0.860548
  outer loop
   vertex -0.037174 0.429484 0.019811
   vertex -0.040605 0.427757 0.017648
   vertex -0.036897 0.426382 0.019693
  endloop
 endfacet
 facet normal 0.35428 0.557705 0.750633
  outer loop
   vertex -0.04118 0.431335 0.015261
   vertex -0.045151 0.430591 0.017688
   vertex -0.040605 0.427757 0.017648
  endloop
 endfacet
 facet normal -0.620851 0.363566 0.694524
  outer loop
   vertex -0.037174 0.429484 0.019811
   vertex -0.04118 0.431335 0.015261
   vertex -0.040605 0.427757 0.017648
  endloop
 endfacet
 facet normal -0.0348694 0.970065 0.240328
  outer loop
   vertex -0.04118 0.431335 0.015261
   vertex -0.044537 0.431854 0.012679
   vertex -0.045151 0.430591 0.017688
  endloop
 endfacet
 facet normal 0.16996 0.434538 0.884472
  outer loop
   vertex -0.045151 0.430591 0.017688
   vertex -0.051921 0.431002 0.018787
   vertex -0.051296 0.426302 0.020976
  endloop
 endfacet
 facet normal 0.154329 0.712895 0.684078
  outer loop
   vertex -0.051921 0.431002 0.018787
   vertex -0.045151 0.430591 0.017688
   vertex -0.050523 0.433034 0.016354
  endloop
 endfacet
 facet normal 0.342575 0.900165 0.26897
  outer loop
   vertex -0.050523 0.433034 0.016354
   vertex -0.045151 0.430591 0.017688
   vertex -0.044537 0.431854 0.012679
  endloop
 endfacet
 facet normal -0.639952 -0.676062 0.365242
  outer loop
   vertex -0.061316 0.441012 0.032461
   vertex -0.058867 0.43124 0.018664
   vertex -0.055143 0.428656 0.020406
  endloop
 endfacet
 facet normal -0.641516 -0.651144 0.405547
  outer loop
   vertex -0.058867 0.43124 0.018664
   vertex -0.054651 0.425003 0.015319
   vertex -0.055143 0.428656 0.020406
  endloop
 endfacet
 facet normal 0.331354 0.183597 0.925471
  outer loop
   vertex -0.055143 0.428656 0.020406
   vertex -0.053989 0.419617 0.021786
   vertex -0.051921 0.431002 0.018787
  endloop
 endfacet
 facet normal 0.279267 0.255266 0.925662
  outer loop
   vertex -0.053832 0.432973 0.01882
   vertex -0.055143 0.428656 0.020406
   vertex -0.051921 0.431002 0.018787
  endloop
 endfacet
 facet normal 0.855988 -0.0718571 0.511977
  outer loop
   vertex -0.061316 0.441012 0.032461
   vertex -0.055143 0.428656 0.020406
   vertex -0.053832 0.432973 0.01882
  endloop
 endfacet
 facet normal -0.510361 0.634004 0.581008
  outer loop
   vertex -0.065467 0.419863 0.011427
   vertex -0.062063 0.420379 0.013854
   vertex -0.054651 0.425003 0.015319
  endloop
 endfacet
 facet normal 0.570272 -0.0541179 0.819671
  outer loop
   vertex -0.058867 0.43124 0.018664
   vertex -0.063826 0.433949 0.022293
   vertex -0.054651 0.425003 0.015319
  endloop
 endfacet
 facet normal 0.238968 -0.619862 0.74744
  outer loop
   vertex -0.054651 0.425003 0.015319
   vertex -0.062063 0.420379 0.013854
   vertex -0.052646 0.418904 0.00962
  endloop
 endfacet
 facet normal -0.468705 0.383869 0.795588
  outer loop
   vertex -0.054651 0.425003 0.015319
   vertex -0.058099 0.428793 0.011459
   vertex -0.065467 0.419863 0.011427
  endloop
 endfacet
 facet normal -0.715106 -0.697496 -0.0460715
  outer loop
   vertex -0.054651 0.425003 0.015319
   vertex -0.063826 0.433949 0.022293
   vertex -0.058099 0.428793 0.011459
  endloop
 endfacet
 facet normal 0.954126 -0.225264 -0.197232
  outer loop
   vertex -0.053989 0.419617 0.021786
   vertex -0.054085 0.421542 0.019123
   vertex -0.051921 0.431002 0.018787
  endloop
 endfacet
 facet normal 0.678696 -0.674783 -0.289895
  outer loop
   vertex -0.060474 0.413024 0.00498
   vertex -0.052646 0.418904 0.00962
   vertex -0.05348 0.417526 0.010875
  endloop
 endfacet
 facet normal 0.236427 0.572146 0.785336
  outer loop
   vertex -0.066178 0.416838 0.015199
   vertex -0.05348 0.417526 0.010875
   vertex -0.052646 0.418904 0.00962
  endloop
 endfacet
 facet normal 0.393169 -0.110171 0.912842
  outer loop
   vertex -0.066178 0.416838 0.015199
   vertex -0.052646 0.418904 0.00962
   vertex -0.062063 0.420379 0.013854
  endloop
 endfacet
 facet normal 0.659669 0.38761 0.643891
  outer loop
   vertex -0.051921 0.431002 0.018787
   vertex -0.054178 0.427617 0.023137
   vertex -0.051296 0.426302 0.020976
  endloop
 endfacet
 facet normal 0.353491 -0.511907 0.78294
  outer loop
   vertex -0.054178 0.427617 0.023137
   vertex -0.054085 0.421542 0.019123
   vertex -0.051296 0.426302 0.020976
  endloop
 endfacet
 facet normal -0.507362 -0.480442 0.715374
  outer loop
   vertex -0.054178 0.427617 0.023137
   vertex -0.055867 0.426445 0.021152
   vertex -0.054085 0.421542 0.019123
  endloop
 endfacet
 facet normal -0.593528 0.113979 -0.796701
  outer loop
   vertex -0.055867 0.426445 0.021152
   vertex -0.055197 0.431961 0.021442
   vertex -0.054085 0.421542 0.019123
  endloop
 endfacet
 facet normal -0.606011 0.110648 -0.787723
  outer loop
   vertex -0.054085 0.421542 0.019123
   vertex -0.055197 0.431961 0.021442
   vertex -0.051921 0.431002 0.018787
  endloop
 endfacet
 facet normal 0.353006 -0.609799 -0.7096
  outer loop
   vertex -0.055353 0.421083 0.000602
   vertex -0.060474 0.413024 0.00498
   vertex -0.061465 0.417546 0.000601
  endloop
 endfacet
 facet normal 0.352978 -0.610152 0.70931
  outer loop
   vertex -0.061465 0.417546 0.000601
   vertex -0.060474 0.413024 -0.003782
   vertex -0.055353 0.421083 0.000602
  endloop
 endfacet
 facet normal -0.846662 -0.454132 -0.277357
  outer loop
   vertex -0.061465 0.417546 0.000601
   vertex -0.060474 0.413024 0.00498
   vertex -0.060474 0.412194 0.006339
  endloop
 endfacet
 facet normal 0.703063 -0.606892 -0.370653
  outer loop
   vertex -0.060474 0.413024 0.00498
   vertex -0.05348 0.417526 0.010875
   vertex -0.060474 0.412194 0.006339
  endloop
 endfacet
 facet normal -0.525642 0.812541 0.251949
  outer loop
   vertex -0.070528 0.421393 0.000602
   vertex -0.061348 0.426016 0.004845
   vertex -0.059795 0.428336 0.000603
  endloop
 endfacet
 facet normal 0.0667167 0.864919 0.497458
  outer loop
   vertex -0.059795 0.428336 0.000603
   vertex -0.061348 0.426016 0.004845
   vertex -0.058595 0.424157 0.007708
  endloop
 endfacet
 facet normal -0.959646 0.139534 0.24415
  outer loop
   vertex -0.059795 0.428336 0.000603
   vertex -0.058595 0.424157 0.007708
   vertex -0.057675 0.427333 0.009509
  endloop
 endfacet
 facet normal -0.491782 0.844473 0.212169
  outer loop
   vertex -0.057675 0.427333 0.009509
   vertex -0.053921 0.430097 0.007209
   vertex -0.059795 0.428336 0.000603
  endloop
 endfacet
 facet normal -0.525676 0.812666 -0.251471
  outer loop
   vertex -0.059795 0.428336 0.000603
   vertex -0.061348 0.426016 -0.003648
   vertex -0.070528 0.421393 0.000602
  endloop
 endfacet
 facet normal 0.0675325 0.865201 -0.496857
  outer loop
   vertex -0.058595 0.424157 -0.006511
   vertex -0.061348 0.426016 -0.003648
   vertex -0.059795 0.428336 0.000603
  endloop
 endfacet
 facet normal -0.959683 0.139671 -0.243928
  outer loop
   vertex -0.057675 0.427333 -0.008312
   vertex -0.058595 0.424157 -0.006511
   vertex -0.059795 0.428336 0.000603
  endloop
 endfacet
 facet normal -0.491888 0.844459 -0.211979
  outer loop
   vertex -0.059795 0.428336 0.000603
   vertex -0.053921 0.430097 -0.006012
   vertex -0.057675 0.427333 -0.008312
  endloop
 endfacet
 facet normal -0.678733 0.668075 -0.304954
  outer loop
   vertex -0.057675 0.427333 0.009509
   vertex -0.054645 0.430782 0.010321
   vertex -0.053921 0.430097 0.007209
  endloop
 endfacet
 facet normal -0.770544 0.560909 -0.302726
  outer loop
   vertex -0.053921 0.430097 0.007209
   vertex -0.054645 0.430782 0.010321
   vertex -0.051503 0.434503 0.009218
  endloop
 endfacet
 facet normal 0.123122 -0.0267425 -0.992031
  outer loop
   vertex -0.03063 0.422628 -0.017617
   vertex -0.036897 0.426382 -0.018496
   vertex -0.037174 0.429484 -0.018614
  endloop
 endfacet
 facet normal -0.0494507 -0.189795 -0.980578
  outer loop
   vertex -0.030202 0.427063 -0.018497
   vertex -0.03063 0.422628 -0.017617
   vertex -0.037174 0.429484 -0.018614
  endloop
 endfacet
 facet normal -0.503409 -0.0776885 -0.860548
  outer loop
   vertex -0.036897 0.426382 -0.018496
   vertex -0.040605 0.427757 -0.016451
   vertex -0.037174 0.429484 -0.018614
  endloop
 endfacet
 facet normal 0.35428 0.557705 -0.750634
  outer loop
   vertex -0.040605 0.427757 -0.016451
   vertex -0.045151 0.430591 -0.016491
   vertex -0.04118 0.431335 -0.014064
  endloop
 endfacet
 facet normal -0.620851 0.363566 -0.694524
  outer loop
   vertex -0.040605 0.427757 -0.016451
   vertex -0.04118 0.431335 -0.014064
   vertex -0.037174 0.429484 -0.018614
  endloop
 endfacet
 facet normal -0.0348694 0.970065 -0.240328
  outer loop
   vertex -0.045151 0.430591 -0.016491
   vertex -0.044537 0.431854 -0.011482
   vertex -0.04118 0.431335 -0.014064
  endloop
 endfacet
 facet normal 0.16996 0.434539 -0.884471
  outer loop
   vertex -0.051296 0.426302 -0.019779
   vertex -0.051921 0.431002 -0.01759
   vertex -0.045151 0.430591 -0.016491
  endloop
 endfacet
 facet normal 0.154329 0.712895 -0.684078
  outer loop
   vertex -0.050523 0.433034 -0.015157
   vertex -0.045151 0.430591 -0.016491
   vertex -0.051921 0.431002 -0.01759
  endloop
 endfacet
 facet normal 0.342575 0.900165 -0.26897
  outer loop
   vertex -0.044537 0.431854 -0.011482
   vertex -0.045151 0.430591 -0.016491
   vertex -0.050523 0.433034 -0.015157
  endloop
 endfacet
 facet normal -0.510361 0.634004 -0.581008
  outer loop
   vertex -0.054651 0.425003 -0.014122
   vertex -0.062063 0.420379 -0.012657
   vertex -0.065467 0.419863 -0.01023
  endloop
 endfacet
 facet normal -0.641516 -0.651144 -0.405547
  outer loop
   vertex -0.055143 0.428656 -0.019209
   vertex -0.054651 0.425003 -0.014122
   vertex -0.058867 0.43124 -0.017467
  endloop
 endfacet
 facet normal 0.570273 -0.0541173 -0.819671
  outer loop
   vertex -0.054651 0.425003 -0.014122
   vertex -0.063826 0.433949 -0.021096
   vertex -0.058867 0.43124 -0.017467
  endloop
 endfacet
 facet normal 0.238968 -0.619862 -0.74744
  outer loop
   vertex -0.052646 0.418904 -0.008423
   vertex -0.062063 0.420379 -0.012657
   vertex -0.054651 0.425003 -0.014122
  endloop
 endfacet
 facet normal -0.468705 0.383869 -0.795588
  outer loop
   vertex -0.065467 0.419863 -0.01023
   vertex -0.058099 0.428793 -0.010262
   vertex -0.054651 0.425003 -0.014122
  endloop
 endfacet
 facet normal -0.715106 -0.697496 0.0460715
  outer loop
   vertex -0.058099 0.428793 -0.010262
   vertex -0.063826 0.433949 -0.021096
   vertex -0.054651 0.425003 -0.014122
  endloop
 endfacet
 facet normal -0.640036 -0.675157 -0.366765
  outer loop
   vertex -0.055143 0.428656 -0.019209
   vertex -0.058867 0.43124 -0.017467
   vertex -0.061316 0.441012 -0.031182
  endloop
 endfacet
 facet normal 0.331421 0.183502 -0.925466
  outer loop
   vertex -0.051921 0.431002 -0.01759
   vertex -0.053989 0.419617 -0.020588
   vertex -0.055143 0.428656 -0.019209
  endloop
 endfacet
 facet normal 0.279267 0.255266 -0.925662
  outer loop
   vertex -0.051921 0.431002 -0.01759
   vertex -0.055143 0.428656 -0.019209
   vertex -0.053832 0.432973 -0.017623
  endloop
 endfacet
 facet normal 0.854931 -0.0708354 -0.513883
  outer loop
   vertex -0.053832 0.432973 -0.017623
   vertex -0.055143 0.428656 -0.019209
   vertex -0.061316 0.441012 -0.031182
  endloop
 endfacet
 facet normal 0.954111 -0.225263 0.197305
  outer loop
   vertex -0.051921 0.431002 -0.01759
   vertex -0.054085 0.421542 -0.017926
   vertex -0.053989 0.419617 -0.020588
  endloop
 endfacet
 facet normal 0.678714 -0.674774 0.289874
  outer loop
   vertex -0.05348 0.417526 -0.009678
   vertex -0.052646 0.418904 -0.008423
   vertex -0.060474 0.413024 -0.003782
  endloop
 endfacet
 facet normal 0.236427 0.572146 -0.785336
  outer loop
   vertex -0.052646 0.418904 -0.008423
   vertex -0.05348 0.417526 -0.009678
   vertex -0.066178 0.416838 -0.014002
  endloop
 endfacet
 facet normal 0.393169 -0.110171 -0.912842
  outer loop
   vertex -0.062063 0.420379 -0.012657
   vertex -0.052646 0.418904 -0.008423
   vertex -0.066178 0.416838 -0.014002
  endloop
 endfacet
 facet normal -0.507363 -0.480441 -0.715373
  outer loop
   vertex -0.054085 0.421542 -0.017926
   vertex -0.055867 0.426445 -0.019955
   vertex -0.054178 0.427617 -0.02194
  endloop
 endfacet
 facet normal 0.353491 -0.511907 -0.78294
  outer loop
   vertex -0.051296 0.426302 -0.019779
   vertex -0.054085 0.421542 -0.017926
   vertex -0.054178 0.427617 -0.02194
  endloop
 endfacet
 facet normal -0.593528 0.113979 0.796702
  outer loop
   vertex -0.054085 0.421542 -0.017926
   vertex -0.055197 0.431961 -0.020245
   vertex -0.055867 0.426445 -0.019955
  endloop
 endfacet
 facet normal -0.606011 0.110648 0.787723
  outer loop
   vertex -0.051921 0.431002 -0.01759
   vertex -0.055197 0.431961 -0.020245
   vertex -0.054085 0.421542 -0.017926
  endloop
 endfacet
 facet normal 0.659669 0.38761 -0.643891
  outer loop
   vertex -0.051296 0.426302 -0.019779
   vertex -0.054178 0.427617 -0.02194
   vertex -0.051921 0.431002 -0.01759
  endloop
 endfacet
 facet normal -0.846649 -0.454242 0.277219
  outer loop
   vertex -0.060474 0.412194 -0.005142
   vertex -0.060474 0.413024 -0.003782
   vertex -0.061465 0.417546 0.000601
  endloop
 endfacet
 facet normal 0.703045 -0.607029 0.370464
  outer loop
   vertex -0.060474 0.412194 -0.005142
   vertex -0.05348 0.417526 -0.009678
   vertex -0.060474 0.413024 -0.003782
  endloop
 endfacet
 facet normal -0.678733 0.668075 0.304954
  outer loop
   vertex -0.053921 0.430097 -0.006012
   vertex -0.054645 0.430782 -0.009124
   vertex -0.057675 0.427333 -0.008312
  endloop
 endfacet
 facet normal -0.770544 0.560909 0.302726
  outer loop
   vertex -0.051503 0.434503 -0.008021
   vertex -0.054645 0.430782 -0.009124
   vertex -0.053921 0.430097 -0.006012
  endloop
 endfacet
 facet normal 0.400524 0.916174 0.0143178
  outer loop
   vertex -0.030202 0.427063 0.019694
   vertex -0.024924 0.424802 0.016725
   vertex -0.031981 0.428139 0.000607
  endloop
 endfacet
 facet normal 0.328289 0.944306 0.0226363
  outer loop
   vertex -0.037174 0.429484 0.019811
   vertex -0.030202 0.427063 0.019694
   vertex -0.031981 0.428139 0.000607
  endloop
 endfacet
 facet normal 0.382499 0.923142 0.0387776
  outer loop
   vertex -0.04118 0.431335 0.015261
   vertex -0.037174 0.429484 0.019811
   vertex -0.031981 0.428139 0.000607
  endloop
 endfacet
 facet normal 0.400518 0.916177 -0.0143057
  outer loop
   vertex -0.031981 0.428139 0.000607
   vertex -0.024924 0.424802 -0.015528
   vertex -0.030202 0.427063 -0.018497
  endloop
 endfacet
 facet normal 0.328289 0.944306 -0.0226162
  outer loop
   vertex -0.031981 0.428139 0.000607
   vertex -0.030202 0.427063 -0.018497
   vertex -0.037174 0.429484 -0.018614
  endloop
 endfacet
 facet normal 0.382525 0.923132 -0.0387509
  outer loop
   vertex -0.031981 0.428139 0.000607
   vertex -0.037174 0.429484 -0.018614
   vertex -0.04118 0.431335 -0.014064
  endloop
 endfacet
 facet normal 0.523834 0.49225 0.695189
  outer loop
   vertex -0.044537 0.431854 0.012679
   vertex -0.051122 0.436568 0.014303
   vertex -0.050523 0.433034 0.016354
  endloop
 endfacet
 facet normal 0.846556 0.367161 0.385402
  outer loop
   vertex -0.061316 0.441012 0.032461
   vertex -0.050523 0.433034 0.016354
   vertex -0.051122 0.436568 0.014303
  endloop
 endfacet
 facet normal 0.0625657 0.976974 -0.203981
  outer loop
   vertex -0.066239 0.440252 0.027311
   vertex -0.061316 0.441012 0.032461
   vertex -0.051122 0.436568 0.014303
  endloop
 endfacet
 facet normal -0.275042 0.792644 -0.544121
  outer loop
   vertex -0.066239 0.440252 0.027311
   vertex -0.051122 0.436568 0.014303
   vertex -0.05728 0.43321 0.012524
  endloop
 endfacet
 facet normal -0.102094 0.605401 -0.789346
  outer loop
   vertex -0.051122 0.436568 0.014303
   vertex -0.054645 0.430782 0.010321
   vertex -0.05728 0.43321 0.012524
  endloop
 endfacet
 facet normal -0.777203 0.601163 -0.185898
  outer loop
   vertex -0.054645 0.430782 0.010321
   vertex -0.051122 0.436568 0.014303
   vertex -0.051503 0.434503 0.009218
  endloop
 endfacet
 facet normal 0.523834 0.49225 -0.695189
  outer loop
   vertex -0.050523 0.433034 -0.015157
   vertex -0.051122 0.436568 -0.013106
   vertex -0.044537 0.431854 -0.011482
  endloop
 endfacet
 facet normal 0.845781 0.367712 -0.386578
  outer loop
   vertex -0.051122 0.436568 -0.013106
   vertex -0.050523 0.433034 -0.015157
   vertex -0.061316 0.441012 -0.031182
  endloop
 endfacet
 facet normal 0.0631384 0.976819 0.204545
  outer loop
   vertex -0.051122 0.436568 -0.013106
   vertex -0.061316 0.441012 -0.031182
   vertex -0.066239 0.440252 -0.026033
  endloop
 endfacet
 facet normal -0.273981 0.791704 0.546021
  outer loop
   vertex -0.05728 0.43321 -0.011327
   vertex -0.051122 0.436568 -0.013106
   vertex -0.066239 0.440252 -0.026033
  endloop
 endfacet
 facet normal -0.102094 0.605401 0.789346
  outer loop
   vertex -0.05728 0.43321 -0.011327
   vertex -0.054645 0.430782 -0.009124
   vertex -0.051122 0.436568 -0.013106
  endloop
 endfacet
 facet normal -0.777203 0.601163 0.185898
  outer loop
   vertex -0.051503 0.434503 -0.008021
   vertex -0.051122 0.436568 -0.013106
   vertex -0.054645 0.430782 -0.009124
  endloop
 endfacet
 facet normal 0.644379 0.404403 0.649025
  outer loop
   vertex -0.051921 0.431002 0.018787
   vertex -0.055197 0.431961 0.021442
   vertex -0.054178 0.427617 0.023137
  endloop
 endfacet
 facet normal 0.515698 0.488209 0.704065
  outer loop
   vertex -0.051921 0.431002 0.018787
   vertex -0.050523 0.433034 0.016354
   vertex -0.053832 0.432973 0.01882
  endloop
 endfacet
 facet normal 0.477579 -0.616905 0.625577
  outer loop
   vertex -0.061316 0.441012 0.032461
   vertex -0.053832 0.432973 0.01882
   vertex -0.050523 0.433034 0.016354
  endloop
 endfacet
 facet normal 0.72869 -0.491181 0.477233
  outer loop
   vertex -0.061316 0.441012 0.032461
   vertex -0.065151 0.438662 0.035898
   vertex -0.058867 0.43124 0.018664
  endloop
 endfacet
 facet normal -0.363778 0.90658 0.213959
  outer loop
   vertex -0.065151 0.438662 0.035898
   vertex -0.061316 0.441012 0.032461
   vertex -0.066239 0.440252 0.027311
  endloop
 endfacet
 facet normal -0.412738 -0.881553 0.229154
  outer loop
   vertex -0.058867 0.43124 0.018664
   vertex -0.065151 0.438662 0.035898
   vertex -0.066993 0.437481 0.028037
  endloop
 endfacet
 facet normal -0.141439 -0.876173 0.460776
  outer loop
   vertex -0.063826 0.433949 0.022293
   vertex -0.058867 0.43124 0.018664
   vertex -0.066993 0.437481 0.028037
  endloop
 endfacet
 facet normal -0.466139 0.730992 0.498362
  outer loop
   vertex -0.066178 0.416838 0.015199
   vertex -0.062063 0.420379 0.013854
   vertex -0.065467 0.419863 0.011427
  endloop
 endfacet
 facet normal -0.678298 0.119057 0.725077
  outer loop
   vertex -0.065467 0.419863 0.011427
   vertex -0.067892 0.418465 0.009388
   vertex -0.068967 0.415215 0.008916
  endloop
 endfacet
 facet normal -0.821282 0.397169 0.409575
  outer loop
   vertex -0.065467 0.419863 0.011427
   vertex -0.068967 0.415215 0.008916
   vertex -0.067496 0.411992 0.014991
  endloop
 endfacet
 facet normal -0.964878 0.26124 0.0276299
  outer loop
   vertex -0.065467 0.419863 0.011427
   vertex -0.067496 0.411992 0.014991
   vertex -0.066178 0.416838 0.015199
  endloop
 endfacet
 facet normal -0.625978 0.74373 0.234558
  outer loop
   vertex -0.067892 0.418465 0.009388
   vertex -0.065467 0.419863 0.011427
   vertex -0.064928 0.421341 0.008179
  endloop
 endfacet
 facet normal -0.761768 0.62795 0.159338
  outer loop
   vertex -0.058099 0.428793 0.011459
   vertex -0.064928 0.421341 0.008179
   vertex -0.065467 0.419863 0.011427
  endloop
 endfacet
 facet normal -0.846609 0.0930729 -0.524014
  outer loop
   vertex -0.063826 0.433949 0.022293
   vertex -0.066993 0.437481 0.028037
   vertex -0.066239 0.440252 0.027311
  endloop
 endfacet
 facet normal -0.818931 0.131266 -0.558678
  outer loop
   vertex -0.063826 0.433949 0.022293
   vertex -0.066239 0.440252 0.027311
   vertex -0.05728 0.43321 0.012524
  endloop
 endfacet
 facet normal -0.541934 0.610867 -0.57719
  outer loop
   vertex -0.054645 0.430782 0.010321
   vertex -0.058099 0.428793 0.011459
   vertex -0.063826 0.433949 0.022293
  endloop
 endfacet
 facet normal -0.77588 -0.397597 -0.489823
  outer loop
   vertex -0.054645 0.430782 0.010321
   vertex -0.063826 0.433949 0.022293
   vertex -0.05728 0.43321 0.012524
  endloop
 endfacet
 facet normal -0.542105 0.611853 -0.575984
  outer loop
   vertex -0.057675 0.427333 0.009509
   vertex -0.058099 0.428793 0.011459
   vertex -0.054645 0.430782 0.010321
  endloop
 endfacet
 facet normal -0.326951 0.615324 -0.717272
  outer loop
   vertex -0.064928 0.421341 0.008179
   vertex -0.058099 0.428793 0.011459
   vertex -0.058595 0.424157 0.007708
  endloop
 endfacet
 facet normal -0.692581 0.497055 -0.52275
  outer loop
   vertex -0.058595 0.424157 0.007708
   vertex -0.058099 0.428793 0.011459
   vertex -0.057675 0.427333 0.009509
  endloop
 endfacet
 facet normal 0.324165 -0.251683 0.911906
  outer loop
   vertex -0.066178 0.416838 0.015199
   vertex -0.061835 0.41087 0.012008
   vertex -0.05348 0.417526 0.010875
  endloop
 endfacet
 facet normal 0.619883 -0.783945 -0.0342752
  outer loop
   vertex -0.05348 0.417526 0.010875
   vertex -0.061835 0.41087 0.012008
   vertex -0.060474 0.412194 0.006339
  endloop
 endfacet
 facet normal 0.435953 -0.156609 0.886239
  outer loop
   vertex -0.066178 0.416838 0.015199
   vertex -0.067496 0.411992 0.014991
   vertex -0.061835 0.41087 0.012008
  endloop
 endfacet
 facet normal -0.777818 0.0615944 0.625465
  outer loop
   vertex -0.054178 0.427617 0.023137
   vertex -0.055197 0.431961 0.021442
   vertex -0.055867 0.426445 0.021152
  endloop
 endfacet
 facet normal -0.850845 -0.449399 -0.272219
  outer loop
   vertex -0.061465 0.417546 0.000601
   vertex -0.060474 0.412194 0.006339
   vertex -0.061662 0.415155 0.005164
  endloop
 endfacet
 facet normal 0.765155 -0.583286 -0.272607
  outer loop
   vertex -0.061465 0.417546 0.000601
   vertex -0.061662 0.415155 0.005164
   vertex -0.06426 0.41388 0.0006
  endloop
 endfacet
 facet normal -0.85099 -0.449325 0.271889
  outer loop
   vertex -0.061662 0.415155 -0.003967
   vertex -0.060474 0.412194 -0.005142
   vertex -0.061465 0.417546 0.000601
  endloop
 endfacet
 facet normal 0.765135 -0.583419 0.27238
  outer loop
   vertex -0.06426 0.41388 0.0006
   vertex -0.061662 0.415155 -0.003967
   vertex -0.061465 0.417546 0.000601
  endloop
 endfacet
 facet normal -0.834852 -0.456833 -0.307125
  outer loop
   vertex -0.060474 0.412194 0.006339
   vertex -0.061835 0.41087 0.012008
   vertex -0.061662 0.415155 0.005164
  endloop
 endfacet
 facet normal -0.377709 0.909479 -0.173733
  outer loop
   vertex -0.068819 0.422787 0.004184
   vertex -0.061348 0.426016 0.004845
   vertex -0.070528 0.421393 0.000602
  endloop
 endfacet
 facet normal -0.570717 0.631716 0.524611
  outer loop
   vertex -0.070528 0.421393 0.000602
   vertex -0.078387 0.414307 0.000585
   vertex -0.069504 0.419424 0.004087
  endloop
 endfacet
 facet normal -0.913333 0.175434 0.367485
  outer loop
   vertex -0.070528 0.421393 0.000602
   vertex -0.069504 0.419424 0.004087
   vertex -0.068819 0.422787 0.004184
  endloop
 endfacet
 facet normal -0.377759 0.909524 0.173388
  outer loop
   vertex -0.070528 0.421393 0.000602
   vertex -0.061348 0.426016 -0.003648
   vertex -0.068819 0.422787 -0.002987
  endloop
 endfacet
 facet normal -0.5697 0.633104 -0.524044
  outer loop
   vertex -0.069504 0.419424 -0.00289
   vertex -0.078387 0.414307 0.000585
   vertex -0.070528 0.421393 0.000602
  endloop
 endfacet
 facet normal -0.913573 0.175501 -0.366856
  outer loop
   vertex -0.068819 0.422787 -0.002987
   vertex -0.069504 0.419424 -0.00289
   vertex -0.070528 0.421393 0.000602
  endloop
 endfacet
 facet normal -0.329309 0.615319 0.716197
  outer loop
   vertex -0.068819 0.422787 0.004184
   vertex -0.058595 0.424157 0.007708
   vertex -0.061348 0.426016 0.004845
  endloop
 endfacet
 facet normal -0.298633 0.766672 0.568359
  outer loop
   vertex -0.068819 0.422787 0.004184
   vertex -0.064928 0.421341 0.008179
   vertex -0.058595 0.424157 0.007708
  endloop
 endfacet
 facet normal -0.329309 0.615319 -0.716197
  outer loop
   vertex -0.061348 0.426016 -0.003648
   vertex -0.058595 0.424157 -0.006511
   vertex -0.068819 0.422787 -0.002987
  endloop
 endfacet
 facet normal -0.298633 0.766672 -0.568359
  outer loop
   vertex -0.058595 0.424157 -0.006511
   vertex -0.064928 0.421341 -0.006982
   vertex -0.068819 0.422787 -0.002987
  endloop
 endfacet
 facet normal -0.326951 0.615324 0.717272
  outer loop
   vertex -0.058595 0.424157 -0.006511
   vertex -0.058099 0.428793 -0.010262
   vertex -0.064928 0.421341 -0.006982
  endloop
 endfacet
 facet normal -0.692581 0.497055 0.52275
  outer loop
   vertex -0.057675 0.427333 -0.008312
   vertex -0.058099 0.428793 -0.010262
   vertex -0.058595 0.424157 -0.006511
  endloop
 endfacet
 facet normal -0.542105 0.611853 0.575984
  outer loop
   vertex -0.054645 0.430782 -0.009124
   vertex -0.058099 0.428793 -0.010262
   vertex -0.057675 0.427333 -0.008312
  endloop
 endfacet
 facet normal 0.644379 0.404403 -0.649025
  outer loop
   vertex -0.054178 0.427617 -0.02194
   vertex -0.055197 0.431961 -0.020245
   vertex -0.051921 0.431002 -0.01759
  endloop
 endfacet
 facet normal 0.515698 0.488209 -0.704065
  outer loop
   vertex -0.053832 0.432973 -0.017623
   vertex -0.050523 0.433034 -0.015157
   vertex -0.051921 0.431002 -0.01759
  endloop
 endfacet
 facet normal 0.479339 -0.61303 -0.628035
  outer loop
   vertex -0.050523 0.433034 -0.015157
   vertex -0.053832 0.432973 -0.017623
   vertex -0.061316 0.441012 -0.031182
  endloop
 endfacet
 facet normal -0.466139 0.730992 -0.498362
  outer loop
   vertex -0.065467 0.419863 -0.01023
   vertex -0.062063 0.420379 -0.012657
   vertex -0.066178 0.416838 -0.014002
  endloop
 endfacet
 facet normal -0.678045 0.118707 -0.725372
  outer loop
   vertex -0.068967 0.415215 -0.007719
   vertex -0.067892 0.418465 -0.008192
   vertex -0.065467 0.419863 -0.01023
  endloop
 endfacet
 facet normal -0.821282 0.397169 -0.409575
  outer loop
   vertex -0.067496 0.411992 -0.013794
   vertex -0.068967 0.415215 -0.007719
   vertex -0.065467 0.419863 -0.01023
  endloop
 endfacet
 facet normal -0.964878 0.26124 -0.0276299
  outer loop
   vertex -0.066178 0.416838 -0.014002
   vertex -0.067496 0.411992 -0.013794
   vertex -0.065467 0.419863 -0.01023
  endloop
 endfacet
 facet normal -0.625924 0.743767 -0.234584
  outer loop
   vertex -0.064928 0.421341 -0.006982
   vertex -0.065467 0.419863 -0.01023
   vertex -0.067892 0.418465 -0.008192
  endloop
 endfacet
 facet normal -0.761768 0.62795 -0.159338
  outer loop
   vertex -0.065467 0.419863 -0.01023
   vertex -0.064928 0.421341 -0.006982
   vertex -0.058099 0.428793 -0.010262
  endloop
 endfacet
 facet normal 0.728994 -0.489242 -0.478759
  outer loop
   vertex -0.058867 0.43124 -0.017467
   vertex -0.065151 0.438662 -0.03462
   vertex -0.061316 0.441012 -0.031182
  endloop
 endfacet
 facet normal -0.41419 -0.880812 -0.229383
  outer loop
   vertex -0.066993 0.437481 -0.026759
   vertex -0.065151 0.438662 -0.03462
   vertex -0.058867 0.43124 -0.017467
  endloop
 endfacet
 facet normal -0.132734 -0.872619 -0.470019
  outer loop
   vertex -0.066993 0.437481 -0.026759
   vertex -0.058867 0.43124 -0.017467
   vertex -0.063826 0.433949 -0.021096
  endloop
 endfacet
 facet normal -0.843878 0.0910902 0.528746
  outer loop
   vertex -0.066239 0.440252 -0.026033
   vertex -0.066993 0.437481 -0.026759
   vertex -0.063826 0.433949 -0.021096
  endloop
 endfacet
 facet normal -0.819993 0.123794 0.558825
  outer loop
   vertex -0.05728 0.43321 -0.011327
   vertex -0.066239 0.440252 -0.026033
   vertex -0.063826 0.433949 -0.021096
  endloop
 endfacet
 facet normal -0.541934 0.610867 0.57719
  outer loop
   vertex -0.063826 0.433949 -0.021096
   vertex -0.058099 0.428793 -0.010262
   vertex -0.054645 0.430782 -0.009124
  endloop
 endfacet
 facet normal -0.77588 -0.397597 0.489823
  outer loop
   vertex -0.05728 0.43321 -0.011327
   vertex -0.063826 0.433949 -0.021096
   vertex -0.054645 0.430782 -0.009124
  endloop
 endfacet
 facet normal -0.363735 0.906598 -0.213957
  outer loop
   vertex -0.066239 0.440252 -0.026033
   vertex -0.061316 0.441012 -0.031182
   vertex -0.065151 0.438662 -0.03462
  endloop
 endfacet
 facet normal 0.324165 -0.251683 -0.911906
  outer loop
   vertex -0.05348 0.417526 -0.009678
   vertex -0.061835 0.41087 -0.010811
   vertex -0.066178 0.416838 -0.014002
  endloop
 endfacet
 facet normal 0.619883 -0.783945 0.0342752
  outer loop
   vertex -0.060474 0.412194 -0.005142
   vertex -0.061835 0.41087 -0.010811
   vertex -0.05348 0.417526 -0.009678
  endloop
 endfacet
 facet normal 0.435953 -0.156609 -0.886239
  outer loop
   vertex -0.061835 0.41087 -0.010811
   vertex -0.067496 0.411992 -0.013794
   vertex -0.066178 0.416838 -0.014002
  endloop
 endfacet
 facet normal -0.777818 0.0615943 -0.625464
  outer loop
   vertex -0.055867 0.426445 -0.019955
   vertex -0.055197 0.431961 -0.020245
   vertex -0.054178 0.427617 -0.02194
  endloop
 endfacet
 facet normal -0.834852 -0.456833 0.307125
  outer loop
   vertex -0.061662 0.415155 -0.003967
   vertex -0.061835 0.41087 -0.010811
   vertex -0.060474 0.412194 -0.005142
  endloop
 endfacet
 facet normal -0.937576 0.300834 0.174498
  outer loop
   vertex -0.065151 0.438662 0.035898
   vertex -0.066239 0.440252 0.027311
   vertex -0.066993 0.437481 0.028037
  endloop
 endfacet
 facet normal -0.937576 0.300834 -0.174498
  outer loop
   vertex -0.066993 0.437481 -0.026759
   vertex -0.066239 0.440252 -0.026033
   vertex -0.065151 0.438662 -0.03462
  endloop
 endfacet
 facet normal -0.591952 0.742175 0.314276
  outer loop
   vertex -0.069504 0.419424 0.004087
   vertex -0.067892 0.418465 0.009388
   vertex -0.064928 0.421341 0.008179
  endloop
 endfacet
 facet normal -0.899815 0.245228 0.360826
  outer loop
   vertex -0.070536 0.416341 0.004238
   vertex -0.068967 0.415215 0.008916
   vertex -0.067892 0.418465 0.009388
  endloop
 endfacet
 facet normal -0.890942 0.314289 0.327788
  outer loop
   vertex -0.070536 0.416341 0.004238
   vertex -0.067892 0.418465 0.009388
   vertex -0.069504 0.419424 0.004087
  endloop
 endfacet
 facet normal -0.652764 -0.686179 0.321027
  outer loop
   vertex -0.070235 0.414526 0.004865
   vertex -0.066606 0.412139 0.007142
   vertex -0.068967 0.415215 0.008916
  endloop
 endfacet
 facet normal -0.950514 -0.0518111 0.306331
  outer loop
   vertex -0.070235 0.414526 0.004865
   vertex -0.068967 0.415215 0.008916
   vertex -0.070536 0.416341 0.004238
  endloop
 endfacet
 facet normal -0.816897 -0.567466 -0.103255
  outer loop
   vertex -0.066606 0.412139 0.007142
   vertex -0.067496 0.411992 0.014991
   vertex -0.068967 0.415215 0.008916
  endloop
 endfacet
 facet normal -0.215868 -0.975486 -0.0427449
  outer loop
   vertex -0.066606 0.412139 0.007142
   vertex -0.061835 0.41087 0.012008
   vertex -0.067496 0.411992 0.014991
  endloop
 endfacet
 facet normal -0.689197 0.119768 0.714606
  outer loop
   vertex -0.069504 0.419424 0.004087
   vertex -0.064928 0.421341 0.008179
   vertex -0.068819 0.422787 0.004184
  endloop
 endfacet
 facet normal 0.295335 -0.813113 -0.501622
  outer loop
   vertex -0.061662 0.415155 0.005164
   vertex -0.061835 0.41087 0.012008
   vertex -0.066606 0.412139 0.007142
  endloop
 endfacet
 facet normal 0.0730971 -0.627967 -0.7748
  outer loop
   vertex -0.061662 0.415155 0.005164
   vertex -0.066606 0.412139 0.007142
   vertex -0.070235 0.414526 0.004865
  endloop
 endfacet
 facet normal 0.0335951 -0.764109 0.644212
  outer loop
   vertex -0.061662 0.415155 0.005164
   vertex -0.070235 0.414526 0.004865
   vertex -0.071134 0.410889 0.000598
  endloop
 endfacet
 facet normal 0.398808 -0.916575 0.0290386
  outer loop
   vertex -0.06426 0.41388 0.0006
   vertex -0.061662 0.415155 0.005164
   vertex -0.071134 0.410889 0.000598
  endloop
 endfacet
 facet normal 0.398823 -0.916569 -0.0290098
  outer loop
   vertex -0.071134 0.410889 0.000598
   vertex -0.061662 0.415155 -0.003967
   vertex -0.06426 0.41388 0.0006
  endloop
 endfacet
 facet normal 0.295335 -0.813113 0.501622
  outer loop
   vertex -0.066606 0.412139 -0.005945
   vertex -0.061835 0.41087 -0.010811
   vertex -0.061662 0.415155 -0.003967
  endloop
 endfacet
 facet normal 0.0730971 -0.627967 0.7748
  outer loop
   vertex -0.070235 0.414526 -0.003668
   vertex -0.066606 0.412139 -0.005945
   vertex -0.061662 0.415155 -0.003967
  endloop
 endfacet
 facet normal 0.0335865 -0.764034 -0.644301
  outer loop
   vertex -0.071134 0.410889 0.000598
   vertex -0.070235 0.414526 -0.003668
   vertex -0.061662 0.415155 -0.003967
  endloop
 endfacet
 facet normal -0.469236 0.480164 0.741121
  outer loop
   vertex -0.078387 0.414307 0.000585
   vertex -0.084607 0.408173 0.000621
   vertex -0.070536 0.416341 0.004238
  endloop
 endfacet
 facet normal -0.454817 0.194809 0.869018
  outer loop
   vertex -0.078387 0.414307 0.000585
   vertex -0.070536 0.416341 0.004238
   vertex -0.069504 0.419424 0.004087
  endloop
 endfacet
 facet normal -0.467548 0.469707 -0.748849
  outer loop
   vertex -0.070536 0.416341 -0.003041
   vertex -0.084607 0.408173 0.000621
   vertex -0.078387 0.414307 0.000585
  endloop
 endfacet
 facet normal -0.452312 0.194043 -0.870495
  outer loop
   vertex -0.069504 0.419424 -0.00289
   vertex -0.070536 0.416341 -0.003041
   vertex -0.078387 0.414307 0.000585
  endloop
 endfacet
 facet normal -0.689198 0.119768 -0.714606
  outer loop
   vertex -0.068819 0.422787 -0.002987
   vertex -0.064928 0.421341 -0.006982
   vertex -0.069504 0.419424 -0.00289
  endloop
 endfacet
 facet normal -0.59192 0.742226 -0.314217
  outer loop
   vertex -0.064928 0.421341 -0.006982
   vertex -0.067892 0.418465 -0.008192
   vertex -0.069504 0.419424 -0.00289
  endloop
 endfacet
 facet normal -0.890961 0.314293 -0.327733
  outer loop
   vertex -0.069504 0.419424 -0.00289
   vertex -0.067892 0.418465 -0.008192
   vertex -0.070536 0.416341 -0.003041
  endloop
 endfacet
 facet normal -0.899847 0.245129 -0.360813
  outer loop
   vertex -0.067892 0.418465 -0.008192
   vertex -0.068967 0.415215 -0.007719
   vertex -0.070536 0.416341 -0.003041
  endloop
 endfacet
 facet normal -0.652764 -0.686179 -0.321027
  outer loop
   vertex -0.068967 0.415215 -0.007719
   vertex -0.066606 0.412139 -0.005945
   vertex -0.070235 0.414526 -0.003668
  endloop
 endfacet
 facet normal -0.950514 -0.0518111 -0.306331
  outer loop
   vertex -0.070536 0.416341 -0.003041
   vertex -0.068967 0.415215 -0.007719
   vertex -0.070235 0.414526 -0.003668
  endloop
 endfacet
 facet normal -0.816897 -0.567466 0.103255
  outer loop
   vertex -0.068967 0.415215 -0.007719
   vertex -0.067496 0.411992 -0.013794
   vertex -0.066606 0.412139 -0.005945
  endloop
 endfacet
 facet normal -0.215868 -0.975486 0.0427449
  outer loop
   vertex -0.067496 0.411992 -0.013794
   vertex -0.061835 0.41087 -0.010811
   vertex -0.066606 0.412139 -0.005945
  endloop
 endfacet
 facet normal -0.391477 0.287281 0.874194
  outer loop
   vertex -0.084607 0.408173 0.000621
   vertex -0.080057 0.405932 0.003395
   vertex -0.070536 0.416341 0.004238
  endloop
 endfacet
 facet normal -0.386299 0.243287 0.88971
  outer loop
   vertex -0.073848 0.409857 0.004573
   vertex -0.070235 0.414526 0.004865
   vertex -0.070536 0.416341 0.004238
  endloop
 endfacet
 facet normal -0.30547 0.204085 0.930074
  outer loop
   vertex -0.073848 0.409857 0.004573
   vertex -0.070536 0.416341 0.004238
   vertex -0.080057 0.405932 0.003395
  endloop
 endfacet
 facet normal 0.675008 -0.62565 0.391058
  outer loop
   vertex -0.082152 0.40037 0.002787
   vertex -0.071134 0.410889 0.000598
   vertex -0.070235 0.414526 0.004865
  endloop
 endfacet
 facet normal 0.678108 -0.490511 -0.547329
  outer loop
   vertex -0.082152 0.40037 0.002787
   vertex -0.070235 0.414526 0.004865
   vertex -0.073848 0.409857 0.004573
  endloop
 endfacet
 facet normal 0.666432 -0.729792 -0.152551
  outer loop
   vertex -0.071134 0.410889 0.000598
   vertex -0.082152 0.40037 0.002787
   vertex -0.082709 0.400311 0.000636
  endloop
 endfacet
 facet normal 0.666919 -0.729227 0.15312
  outer loop
   vertex -0.082709 0.400311 0.000636
   vertex -0.082152 0.40037 -0.001509
   vertex -0.071134 0.410889 0.000598
  endloop
 endfacet
 facet normal 0.673311 -0.626658 -0.392368
  outer loop
   vertex -0.070235 0.414526 -0.003668
   vertex -0.071134 0.410889 0.000598
   vertex -0.082152 0.40037 -0.001509
  endloop
 endfacet
 facet normal -0.386299 0.243287 -0.88971
  outer loop
   vertex -0.070536 0.416341 -0.003041
   vertex -0.070235 0.414526 -0.003668
   vertex -0.073848 0.409857 -0.003376
  endloop
 endfacet
 facet normal 0.690206 -0.501478 0.521666
  outer loop
   vertex -0.073848 0.409857 -0.003376
   vertex -0.070235 0.414526 -0.003668
   vertex -0.082152 0.40037 -0.001509
  endloop
 endfacet
 facet normal 0.0217803 0.794858 0.606404
  outer loop
   vertex -0.084607 0.408173 0.000621
   vertex -0.087051 0.4061 0.003426
   vertex -0.080057 0.405932 0.003395
  endloop
 endfacet
 facet normal -0.654651 0.755839 -0.011807
  outer loop
   vertex -0.087923 0.405301 0.000626
   vertex -0.087051 0.4061 0.003426
   vertex -0.084607 0.408173 0.000621
  endloop
 endfacet
 facet normal 0.0217088 0.790938 -0.611511
  outer loop
   vertex -0.080057 0.405932 -0.002116
   vertex -0.087051 0.4061 -0.002147
   vertex -0.084607 0.408173 0.000621
  endloop
 endfacet
 facet normal -0.390326 0.27906 -0.877366
  outer loop
   vertex -0.070536 0.416341 -0.003041
   vertex -0.080057 0.405932 -0.002116
   vertex -0.084607 0.408173 0.000621
  endloop
 endfacet
 facet normal -0.654629 0.755856 0.0119335
  outer loop
   vertex -0.084607 0.408173 0.000621
   vertex -0.087051 0.4061 -0.002147
   vertex -0.087923 0.405301 0.000626
  endloop
 endfacet
 facet normal -0.321166 0.21174 -0.923049
  outer loop
   vertex -0.080057 0.405932 -0.002116
   vertex -0.070536 0.416341 -0.003041
   vertex -0.073848 0.409857 -0.003376
  endloop
 endfacet
 facet normal -0.156184 -0.0490099 0.986511
  outer loop
   vertex -0.082152 0.40037 0.002787
   vertex -0.073848 0.409857 0.004573
   vertex -0.080057 0.405932 0.003395
  endloop
 endfacet
 facet normal 0.1469 -0.161999 0.975796
  outer loop
   vertex -0.082152 0.40037 0.002787
   vertex -0.080057 0.405932 0.003395
   vertex -0.0865 0.403035 0.003884
  endloop
 endfacet
 facet normal 0.00796604 0.149185 0.988777
  outer loop
   vertex -0.087051 0.4061 0.003426
   vertex -0.0865 0.403035 0.003884
   vertex -0.080057 0.405932 0.003395
  endloop
 endfacet
 facet normal -0.488838 -0.859354 0.150159
  outer loop
   vertex -0.082709 0.400311 0.000636
   vertex -0.082152 0.40037 0.002787
   vertex -0.0865 0.403035 0.003884
  endloop
 endfacet
 facet normal -0.336577 -0.877069 0.342733
  outer loop
   vertex -0.082709 0.400311 0.000636
   vertex -0.0865 0.403035 0.003884
   vertex -0.085352 0.401319 0.00062
  endloop
 endfacet
 facet normal -0.488734 -0.859345 -0.150551
  outer loop
   vertex -0.0865 0.403035 -0.002606
   vertex -0.082152 0.40037 -0.001509
   vertex -0.082709 0.400311 0.000636
  endloop
 endfacet
 facet normal -0.332224 -0.876622 -0.348081
  outer loop
   vertex -0.085352 0.401319 0.00062
   vertex -0.0865 0.403035 -0.002606
   vertex -0.082709 0.400311 0.000636
  endloop
 endfacet
 facet normal -0.172993 -0.0422291 -0.984017
  outer loop
   vertex -0.080057 0.405932 -0.002116
   vertex -0.073848 0.409857 -0.003376
   vertex -0.082152 0.40037 -0.001509
  endloop
 endfacet
 facet normal 0.146989 -0.161858 -0.975806
  outer loop
   vertex -0.0865 0.403035 -0.002606
   vertex -0.080057 0.405932 -0.002116
   vertex -0.082152 0.40037 -0.001509
  endloop
 endfacet
 facet normal -0.95205 -0.205077 -0.227031
  outer loop
   vertex -0.085352 0.401319 0.00062
   vertex -0.0865 0.403035 0.003884
   vertex -0.087051 0.4061 0.003426
  endloop
 endfacet
 facet normal -0.775279 -0.50114 0.384448
  outer loop
   vertex -0.085352 0.401319 0.00062
   vertex -0.087051 0.4061 0.003426
   vertex -0.087923 0.405301 0.000626
  endloop
 endfacet
 facet normal -0.774711 -0.49961 -0.387572
  outer loop
   vertex -0.087923 0.405301 0.000626
   vertex -0.087051 0.4061 -0.002147
   vertex -0.085352 0.401319 0.00062
  endloop
 endfacet
 facet normal 0.00797344 0.149501 -0.988729
  outer loop
   vertex -0.080057 0.405932 -0.002116
   vertex -0.0865 0.403035 -0.002606
   vertex -0.087051 0.4061 -0.002147
  endloop
 endfacet
 facet normal -0.951435 -0.205384 0.229323
  outer loop
   vertex -0.087051 0.4061 -0.002147
   vertex -0.0865 0.403035 -0.002606
   vertex -0.085352 0.401319 0.00062
  endloop
 endfacet
endsolid
