solid ascii
 facet normal -0.337316 -0.94081 0.0330668
  outer loop
   vertex -0.042232 0.338949 0.000106
   vertex -0.042708 0.339371 0.007257
   vertex -0.052495 0.342628 8.7e-05
  endloop
 endfacet
 facet normal 0.791876 -0.604255 0.0883692
  outer loop
   vertex -0.040851 0.342014 0.008689
   vertex -0.042708 0.339371 0.007257
   vertex -0.042232 0.338949 0.000106
  endloop
 endfacet
 facet normal 0.686163 -0.713009 0.144215
  outer loop
   vertex -0.040851 0.342014 0.008689
   vertex -0.042232 0.338949 0.000106
   vertex -0.041265 0.33988 0.000108
  endloop
 endfacet
 facet normal -0.33721 -0.940855 -0.0328788
  outer loop
   vertex -0.052495 0.342628 8.7e-05
   vertex -0.042708 0.339371 -0.007088
   vertex -0.042232 0.338949 0.000106
  endloop
 endfacet
 facet normal 0.792055 -0.604096 -0.0878436
  outer loop
   vertex -0.042232 0.338949 0.000106
   vertex -0.042708 0.339371 -0.007088
   vertex -0.040851 0.342014 -0.00852
  endloop
 endfacet
 facet normal 0.686558 -0.712802 -0.143359
  outer loop
   vertex -0.041265 0.33988 0.000108
   vertex -0.042232 0.338949 0.000106
   vertex -0.040851 0.342014 -0.00852
  endloop
 endfacet
 facet normal -0.349855 -0.935322 0.0526761
  outer loop
   vertex -0.042708 0.339371 0.007257
   vertex -0.045678 0.340901 0.014698
   vertex -0.052495 0.342628 8.7e-05
  endloop
 endfacet
 facet normal 0.639722 -0.66151 0.391356
  outer loop
   vertex -0.045678 0.340901 0.014698
   vertex -0.042708 0.339371 0.007257
   vertex -0.040851 0.342014 0.008689
  endloop
 endfacet
 facet normal -0.339578 -0.939383 0.0474007
  outer loop
   vertex -0.045678 0.340901 0.014698
   vertex -0.050592 0.34286 0.018318
   vertex -0.052495 0.342628 8.7e-05
  endloop
 endfacet
 facet normal -0.296784 -0.953503 -0.0524581
  outer loop
   vertex -0.061851 0.345303 0.004397
   vertex -0.061886 0.345551 8.7e-05
   vertex -0.052495 0.342628 8.7e-05
  endloop
 endfacet
 facet normal -0.263646 -0.964265 0.026156
  outer loop
   vertex -0.052495 0.342628 8.7e-05
   vertex -0.062069 0.34559 0.01278
   vertex -0.061851 0.345303 0.004397
  endloop
 endfacet
 facet normal -0.185207 -0.978689 0.0886869
  outer loop
   vertex -0.05853 0.345431 0.018416
   vertex -0.062069 0.34559 0.01278
   vertex -0.052495 0.342628 8.7e-05
  endloop
 endfacet
 facet normal -0.307331 -0.950577 0.0441772
  outer loop
   vertex -0.052495 0.342628 8.7e-05
   vertex -0.050592 0.34286 0.018318
   vertex -0.05853 0.345431 0.018416
  endloop
 endfacet
 facet normal -0.349874 -0.935315 -0.0526674
  outer loop
   vertex -0.052495 0.342628 8.7e-05
   vertex -0.045678 0.340901 -0.014529
   vertex -0.042708 0.339371 -0.007088
  endloop
 endfacet
 facet normal -0.339586 -0.939381 -0.0473885
  outer loop
   vertex -0.052495 0.342628 8.7e-05
   vertex -0.050592 0.34286 -0.018149
   vertex -0.045678 0.340901 -0.014529
  endloop
 endfacet
 facet normal -0.296785 -0.953506 0.0523975
  outer loop
   vertex -0.052495 0.342628 8.7e-05
   vertex -0.061886 0.345551 8.7e-05
   vertex -0.061851 0.345303 -0.004228
  endloop
 endfacet
 facet normal -0.263633 -0.964268 -0.0261564
  outer loop
   vertex -0.061851 0.345303 -0.004228
   vertex -0.062069 0.34559 -0.012611
   vertex -0.052495 0.342628 8.7e-05
  endloop
 endfacet
 facet normal -0.185183 -0.978695 -0.0886716
  outer loop
   vertex -0.052495 0.342628 8.7e-05
   vertex -0.062069 0.34559 -0.012611
   vertex -0.05853 0.345431 -0.018247
  endloop
 endfacet
 facet normal -0.307331 -0.950577 -0.0441651
  outer loop
   vertex -0.05853 0.345431 -0.018247
   vertex -0.050592 0.34286 -0.018149
   vertex -0.052495 0.342628 8.7e-05
  endloop
 endfacet
 facet normal 0.947212 0.313743 0.0659962
  outer loop
   vertex -0.040744 0.343496 0.000108
   vertex -0.041621 0.344211 0.009296
   vertex -0.040851 0.342014 0.008689
  endloop
 endfacet
 facet normal 0.989704 -0.142598 -0.0122862
  outer loop
   vertex -0.040744 0.343496 0.000108
   vertex -0.040851 0.342014 0.008689
   vertex -0.041265 0.33988 0.000108
  endloop
 endfacet
 facet normal 0.888707 0.197106 0.413943
  outer loop
   vertex -0.04453 0.344067 0.01561
   vertex -0.040851 0.342014 0.008689
   vertex -0.041621 0.344211 0.009296
  endloop
 endfacet
 facet normal 0.744039 -0.41957 0.519968
  outer loop
   vertex -0.045678 0.340901 0.014698
   vertex -0.040851 0.342014 0.008689
   vertex -0.04453 0.344067 0.01561
  endloop
 endfacet
 facet normal 0.989705 -0.142598 0.0122193
  outer loop
   vertex -0.041265 0.33988 0.000108
   vertex -0.040851 0.342014 -0.00852
   vertex -0.040744 0.343496 0.000108
  endloop
 endfacet
 facet normal 0.639722 -0.66151 -0.391356
  outer loop
   vertex -0.040851 0.342014 -0.00852
   vertex -0.042708 0.339371 -0.007088
   vertex -0.045678 0.340901 -0.014529
  endloop
 endfacet
 facet normal 0.947205 0.313835 -0.0656525
  outer loop
   vertex -0.040851 0.342014 -0.00852
   vertex -0.041621 0.344211 -0.009127
   vertex -0.040744 0.343496 0.000108
  endloop
 endfacet
 facet normal 0.888707 0.197105 -0.413943
  outer loop
   vertex -0.041621 0.344211 -0.009127
   vertex -0.040851 0.342014 -0.00852
   vertex -0.04453 0.344067 -0.015441
  endloop
 endfacet
 facet normal 0.744039 -0.41957 -0.519967
  outer loop
   vertex -0.04453 0.344067 -0.015441
   vertex -0.040851 0.342014 -0.00852
   vertex -0.045678 0.340901 -0.014529
  endloop
 endfacet
 facet normal 0.439164 -0.392089 0.808333
  outer loop
   vertex -0.050592 0.34286 0.018318
   vertex -0.045678 0.340901 0.014698
   vertex -0.04453 0.344067 0.01561
  endloop
 endfacet
 facet normal 0.429977 -0.17025 0.886643
  outer loop
   vertex -0.050592 0.34286 0.018318
   vertex -0.04453 0.344067 0.01561
   vertex -0.050308 0.346827 0.018942
  endloop
 endfacet
 facet normal -0.037257 -0.152677 0.987574
  outer loop
   vertex -0.05853 0.345431 0.018416
   vertex -0.050592 0.34286 0.018318
   vertex -0.050308 0.346827 0.018942
  endloop
 endfacet
 facet normal -0.863696 -0.503535 -0.0219611
  outer loop
   vertex -0.061886 0.345551 8.7e-05
   vertex -0.061851 0.345303 0.004397
   vertex -0.063946 0.348891 0.004523
  endloop
 endfacet
 facet normal -0.863636 -0.504089 -0.00520117
  outer loop
   vertex -0.062069 0.34559 0.01278
   vertex -0.063946 0.348891 0.004523
   vertex -0.061851 0.345303 0.004397
  endloop
 endfacet
 facet normal -0.843191 -0.537455 0.0131003
  outer loop
   vertex -0.061886 0.345551 8.7e-05
   vertex -0.063946 0.348891 0.004523
   vertex -0.063948 0.348786 8.7e-05
  endloop
 endfacet
 facet normal -0.863696 -0.503536 0.0219357
  outer loop
   vertex -0.063946 0.348891 -0.004354
   vertex -0.061851 0.345303 -0.004228
   vertex -0.061886 0.345551 8.7e-05
  endloop
 endfacet
 facet normal -0.843191 -0.537455 -0.0130856
  outer loop
   vertex -0.063948 0.348786 8.7e-05
   vertex -0.063946 0.348891 -0.004354
   vertex -0.061886 0.345551 8.7e-05
  endloop
 endfacet
 facet normal -0.060848 -0.815079 0.576146
  outer loop
   vertex -0.0583 0.349759 0.019076
   vertex -0.064117 0.346847 0.014342
   vertex -0.062069 0.34559 0.01278
  endloop
 endfacet
 facet normal -0.846791 -0.0359304 0.53071
  outer loop
   vertex -0.0583 0.349759 0.019076
   vertex -0.062069 0.34559 0.01278
   vertex -0.05853 0.345431 0.018416
  endloop
 endfacet
 facet normal -0.670264 -0.652329 -0.353855
  outer loop
   vertex -0.062069 0.34559 0.01278
   vertex -0.064117 0.346847 0.014342
   vertex -0.06433 0.350224 0.00852
  endloop
 endfacet
 facet normal -0.913975 -0.403084 0.0466218
  outer loop
   vertex -0.062069 0.34559 0.01278
   vertex -0.06433 0.350224 0.00852
   vertex -0.063946 0.348891 0.004523
  endloop
 endfacet
 facet normal -0.0379744 -0.148671 0.988157
  outer loop
   vertex -0.05853 0.345431 0.018416
   vertex -0.050308 0.346827 0.018942
   vertex -0.0583 0.349759 0.019076
  endloop
 endfacet
 facet normal 0.439164 -0.392089 -0.808333
  outer loop
   vertex -0.04453 0.344067 -0.015441
   vertex -0.045678 0.340901 -0.014529
   vertex -0.050592 0.34286 -0.018149
  endloop
 endfacet
 facet normal 0.429977 -0.17025 -0.886643
  outer loop
   vertex -0.050308 0.346827 -0.018773
   vertex -0.04453 0.344067 -0.015441
   vertex -0.050592 0.34286 -0.018149
  endloop
 endfacet
 facet normal -0.037257 -0.152677 -0.987574
  outer loop
   vertex -0.050308 0.346827 -0.018773
   vertex -0.050592 0.34286 -0.018149
   vertex -0.05853 0.345431 -0.018247
  endloop
 endfacet
 facet normal -0.863636 -0.504089 0.00520117
  outer loop
   vertex -0.061851 0.345303 -0.004228
   vertex -0.063946 0.348891 -0.004354
   vertex -0.062069 0.34559 -0.012611
  endloop
 endfacet
 facet normal -0.0608478 -0.815079 -0.576146
  outer loop
   vertex -0.062069 0.34559 -0.012611
   vertex -0.064117 0.346847 -0.014173
   vertex -0.0583 0.349759 -0.018907
  endloop
 endfacet
 facet normal -0.846792 -0.0359302 -0.53071
  outer loop
   vertex -0.05853 0.345431 -0.018247
   vertex -0.062069 0.34559 -0.012611
   vertex -0.0583 0.349759 -0.018907
  endloop
 endfacet
 facet normal -0.670264 -0.652329 0.353855
  outer loop
   vertex -0.06433 0.350224 -0.008351
   vertex -0.064117 0.346847 -0.014173
   vertex -0.062069 0.34559 -0.012611
  endloop
 endfacet
 facet normal -0.913975 -0.403084 -0.0466218
  outer loop
   vertex -0.063946 0.348891 -0.004354
   vertex -0.06433 0.350224 -0.008351
   vertex -0.062069 0.34559 -0.012611
  endloop
 endfacet
 facet normal -0.0379745 -0.148671 -0.988157
  outer loop
   vertex -0.0583 0.349759 -0.018907
   vertex -0.050308 0.346827 -0.018773
   vertex -0.05853 0.345431 -0.018247
  endloop
 endfacet
 facet normal 0.94525 -0.305782 0.114021
  outer loop
   vertex -0.03844 0.350619 0.00011
   vertex -0.041621 0.344211 0.009296
   vertex -0.040744 0.343496 0.000108
  endloop
 endfacet
 facet normal 0.945331 -0.305744 -0.113445
  outer loop
   vertex -0.040744 0.343496 0.000108
   vertex -0.041621 0.344211 -0.009127
   vertex -0.03844 0.350619 0.00011
  endloop
 endfacet
 facet normal 0.94785 -0.293956 0.123171
  outer loop
   vertex -0.03844 0.350619 0.00011
   vertex -0.039712 0.350232 0.008975
   vertex -0.041621 0.344211 0.009296
  endloop
 endfacet
 facet normal 0.785959 -0.218356 0.578437
  outer loop
   vertex -0.045286 0.34672 0.015223
   vertex -0.041621 0.344211 0.009296
   vertex -0.039712 0.350232 0.008975
  endloop
 endfacet
 facet normal 0.862387 0.304718 0.404271
  outer loop
   vertex -0.04453 0.344067 0.01561
   vertex -0.041621 0.344211 0.009296
   vertex -0.045286 0.34672 0.015223
  endloop
 endfacet
 facet normal 0.575749 0.276317 0.769521
  outer loop
   vertex -0.050308 0.346827 0.018942
   vertex -0.04453 0.344067 0.01561
   vertex -0.045286 0.34672 0.015223
  endloop
 endfacet
 facet normal 0.947921 -0.294016 -0.122474
  outer loop
   vertex -0.041621 0.344211 -0.009127
   vertex -0.039712 0.350232 -0.008806
   vertex -0.03844 0.350619 0.00011
  endloop
 endfacet
 facet normal 0.785917 -0.218339 -0.578501
  outer loop
   vertex -0.039712 0.350232 -0.008806
   vertex -0.041621 0.344211 -0.009127
   vertex -0.045286 0.34672 -0.015053
  endloop
 endfacet
 facet normal 0.862346 0.304856 -0.404255
  outer loop
   vertex -0.045286 0.34672 -0.015053
   vertex -0.041621 0.344211 -0.009127
   vertex -0.04453 0.344067 -0.015441
  endloop
 endfacet
 facet normal 0.575803 0.276602 -0.769378
  outer loop
   vertex -0.045286 0.34672 -0.015053
   vertex -0.04453 0.344067 -0.015441
   vertex -0.050308 0.346827 -0.018773
  endloop
 endfacet
 facet normal 0.578078 0.261022 0.773106
  outer loop
   vertex -0.050308 0.346827 0.018942
   vertex -0.045286 0.34672 0.015223
   vertex -0.04946 0.34999 0.01724
  endloop
 endfacet
 facet normal 0.172758 0.430408 0.885948
  outer loop
   vertex -0.0583 0.349759 0.019076
   vertex -0.050308 0.346827 0.018942
   vertex -0.04946 0.34999 0.01724
  endloop
 endfacet
 facet normal -0.94884 0.315679 -0.00704456
  outer loop
   vertex -0.062191 0.354194 0.005776
   vertex -0.063948 0.348786 8.7e-05
   vertex -0.063946 0.348891 0.004523
  endloop
 endfacet
 facet normal -0.913786 0.350799 -0.20478
  outer loop
   vertex -0.062191 0.354194 0.005776
   vertex -0.063946 0.348891 0.004523
   vertex -0.06433 0.350224 0.00852
  endloop
 endfacet
 facet normal -0.925386 0.372773 -0.0685616
  outer loop
   vertex -0.063948 0.348786 8.7e-05
   vertex -0.062191 0.354194 0.005776
   vertex -0.06182 0.354069 8.9e-05
  endloop
 endfacet
 facet normal -0.925411 0.372731 0.0684539
  outer loop
   vertex -0.06182 0.354069 8.9e-05
   vertex -0.062191 0.354194 -0.005607
   vertex -0.063948 0.348786 8.7e-05
  endloop
 endfacet
 facet normal -0.948841 0.315677 0.00703659
  outer loop
   vertex -0.063946 0.348891 -0.004354
   vertex -0.063948 0.348786 8.7e-05
   vertex -0.062191 0.354194 -0.005607
  endloop
 endfacet
 facet normal -0.913786 0.350799 0.20478
  outer loop
   vertex -0.06433 0.350224 -0.008351
   vertex -0.063946 0.348891 -0.004354
   vertex -0.062191 0.354194 -0.005607
  endloop
 endfacet
 facet normal 0.187266 0.290888 0.938251
  outer loop
   vertex -0.0583 0.349759 0.019076
   vertex -0.04946 0.34999 0.01724
   vertex -0.057411 0.352467 0.018059
  endloop
 endfacet
 facet normal -0.688858 0.441938 0.5746
  outer loop
   vertex -0.057411 0.352467 0.018059
   vertex -0.064117 0.346847 0.014342
   vertex -0.0583 0.349759 0.019076
  endloop
 endfacet
 facet normal -0.24217 -0.317421 0.916841
  outer loop
   vertex -0.057411 0.352467 0.018059
   vertex -0.061626 0.352855 0.01708
   vertex -0.064117 0.346847 0.014342
  endloop
 endfacet
 facet normal -0.976234 0.17005 0.134351
  outer loop
   vertex -0.06433 0.350224 0.00852
   vertex -0.064117 0.346847 0.014342
   vertex -0.063433 0.355161 0.008789
  endloop
 endfacet
 facet normal -0.926171 0.259163 0.273938
  outer loop
   vertex -0.064117 0.346847 0.014342
   vertex -0.061626 0.352855 0.01708
   vertex -0.063433 0.355161 0.008789
  endloop
 endfacet
 facet normal -0.886477 0.184194 -0.424536
  outer loop
   vertex -0.062191 0.354194 0.005776
   vertex -0.06433 0.350224 0.00852
   vertex -0.063433 0.355161 0.008789
  endloop
 endfacet
 facet normal 0.578186 0.260961 -0.773046
  outer loop
   vertex -0.04946 0.34999 -0.017071
   vertex -0.045286 0.34672 -0.015053
   vertex -0.050308 0.346827 -0.018773
  endloop
 endfacet
 facet normal 0.172758 0.430408 -0.885948
  outer loop
   vertex -0.04946 0.34999 -0.017071
   vertex -0.050308 0.346827 -0.018773
   vertex -0.0583 0.349759 -0.018907
  endloop
 endfacet
 facet normal -0.24217 -0.317421 -0.916841
  outer loop
   vertex -0.064117 0.346847 -0.014173
   vertex -0.061626 0.352855 -0.016911
   vertex -0.057411 0.352467 -0.01789
  endloop
 endfacet
 facet normal -0.688858 0.441938 -0.5746
  outer loop
   vertex -0.0583 0.349759 -0.018907
   vertex -0.064117 0.346847 -0.014173
   vertex -0.057411 0.352467 -0.01789
  endloop
 endfacet
 facet normal -0.976234 0.17005 -0.134351
  outer loop
   vertex -0.063433 0.355161 -0.00862
   vertex -0.064117 0.346847 -0.014173
   vertex -0.06433 0.350224 -0.008351
  endloop
 endfacet
 facet normal -0.926171 0.259163 -0.273938
  outer loop
   vertex -0.063433 0.355161 -0.00862
   vertex -0.061626 0.352855 -0.016911
   vertex -0.064117 0.346847 -0.014173
  endloop
 endfacet
 facet normal 0.187266 0.290888 -0.938251
  outer loop
   vertex -0.057411 0.352467 -0.01789
   vertex -0.04946 0.34999 -0.017071
   vertex -0.0583 0.349759 -0.018907
  endloop
 endfacet
 facet normal -0.886477 0.184194 0.424535
  outer loop
   vertex -0.063433 0.355161 -0.00862
   vertex -0.06433 0.350224 -0.008351
   vertex -0.062191 0.354194 -0.005607
  endloop
 endfacet
 facet normal 0.901023 -0.419333 0.110979
  outer loop
   vertex -0.037191 0.353303 0.000111
   vertex -0.039712 0.350232 0.008975
   vertex -0.03844 0.350619 0.00011
  endloop
 endfacet
 facet normal 0.901118 -0.419295 -0.110359
  outer loop
   vertex -0.03844 0.350619 0.00011
   vertex -0.039712 0.350232 -0.008806
   vertex -0.037191 0.353303 0.000111
  endloop
 endfacet
 facet normal 0.825361 -0.563214 0.0396118
  outer loop
   vertex -0.037191 0.353303 0.000111
   vertex -0.037732 0.3532 0.009919
   vertex -0.039712 0.350232 0.008975
  endloop
 endfacet
 facet normal 0.603022 -0.577369 0.550464
  outer loop
   vertex -0.043893 0.352376 0.015804
   vertex -0.039712 0.350232 0.008975
   vertex -0.037732 0.3532 0.009919
  endloop
 endfacet
 facet normal 0.788162 -0.251803 0.561601
  outer loop
   vertex -0.045286 0.34672 0.015223
   vertex -0.039712 0.350232 0.008975
   vertex -0.043893 0.352376 0.015804
  endloop
 endfacet
 facet normal 0.315027 -0.173438 0.933101
  outer loop
   vertex -0.04946 0.34999 0.01724
   vertex -0.045286 0.34672 0.015223
   vertex -0.043893 0.352376 0.015804
  endloop
 endfacet
 facet normal 0.8254 -0.563172 -0.0394014
  outer loop
   vertex -0.039712 0.350232 -0.008806
   vertex -0.037732 0.3532 -0.00975
   vertex -0.037191 0.353303 0.000111
  endloop
 endfacet
 facet normal 0.603022 -0.577369 -0.550464
  outer loop
   vertex -0.037732 0.3532 -0.00975
   vertex -0.039712 0.350232 -0.008806
   vertex -0.043893 0.352376 -0.015635
  endloop
 endfacet
 facet normal 0.788127 -0.251895 -0.561608
  outer loop
   vertex -0.043893 0.352376 -0.015635
   vertex -0.039712 0.350232 -0.008806
   vertex -0.045286 0.34672 -0.015053
  endloop
 endfacet
 facet normal 0.315088 -0.173612 -0.933048
  outer loop
   vertex -0.043893 0.352376 -0.015635
   vertex -0.045286 0.34672 -0.015053
   vertex -0.04946 0.34999 -0.017071
  endloop
 endfacet
 facet normal 0.316475 -0.177581 0.931831
  outer loop
   vertex -0.04946 0.34999 0.01724
   vertex -0.043893 0.352376 0.015804
   vertex -0.04747 0.353951 0.017319
  endloop
 endfacet
 facet normal 0.0832432 -0.0616581 0.99462
  outer loop
   vertex -0.057411 0.352467 0.018059
   vertex -0.04946 0.34999 0.01724
   vertex -0.04747 0.353951 0.017319
  endloop
 endfacet
 facet normal -0.864367 0.498332 -0.0673405
  outer loop
   vertex -0.06182 0.354069 8.9e-05
   vertex -0.062191 0.354194 0.005776
   vertex -0.058799 0.360103 0.005965
  endloop
 endfacet
 facet normal -0.767464 0.454998 -0.451637
  outer loop
   vertex -0.062191 0.354194 0.005776
   vertex -0.060155 0.361013 0.009186
   vertex -0.058799 0.360103 0.005965
  endloop
 endfacet
 facet normal -0.760796 0.457395 -0.460412
  outer loop
   vertex -0.062191 0.354194 0.005776
   vertex -0.063433 0.355161 0.008789
   vertex -0.060155 0.361013 0.009186
  endloop
 endfacet
 facet normal -0.850962 0.516878 -0.0932769
  outer loop
   vertex -0.06182 0.354069 8.9e-05
   vertex -0.058799 0.360103 0.005965
   vertex -0.058242 0.35996 9.1e-05
  endloop
 endfacet
 facet normal -0.864374 0.498333 0.0672346
  outer loop
   vertex -0.058799 0.360103 -0.005796
   vertex -0.062191 0.354194 -0.005607
   vertex -0.06182 0.354069 8.9e-05
  endloop
 endfacet
 facet normal -0.851006 0.516842 0.0930743
  outer loop
   vertex -0.058242 0.35996 9.1e-05
   vertex -0.058799 0.360103 -0.005796
   vertex -0.06182 0.354069 8.9e-05
  endloop
 endfacet
 facet normal -0.767464 0.454998 0.451637
  outer loop
   vertex -0.058799 0.360103 -0.005796
   vertex -0.060155 0.361013 -0.009017
   vertex -0.062191 0.354194 -0.005607
  endloop
 endfacet
 facet normal -0.760796 0.457395 0.460412
  outer loop
   vertex -0.060155 0.361013 -0.009017
   vertex -0.063433 0.355161 -0.00862
   vertex -0.062191 0.354194 -0.005607
  endloop
 endfacet
 facet normal 0.0847817 -0.0723895 0.993766
  outer loop
   vertex -0.057411 0.352467 0.018059
   vertex -0.04747 0.353951 0.017319
   vertex -0.054811 0.357283 0.018188
  endloop
 endfacet
 facet normal -0.217318 0.0912919 0.971822
  outer loop
   vertex -0.054811 0.357283 0.018188
   vertex -0.061626 0.352855 0.01708
   vertex -0.057411 0.352467 0.018059
  endloop
 endfacet
 facet normal -0.0277057 -0.202312 0.978929
  outer loop
   vertex -0.054811 0.357283 0.018188
   vertex -0.058088 0.359435 0.01854
   vertex -0.061626 0.352855 0.01708
  endloop
 endfacet
 facet normal -0.452888 -0.686118 0.569328
  outer loop
   vertex -0.065517 0.354026 0.015396
   vertex -0.061626 0.352855 0.01708
   vertex -0.063499 0.355565 0.018856
  endloop
 endfacet
 facet normal -0.159807 -0.615975 0.771386
  outer loop
   vertex -0.060854 0.359481 0.022531
   vertex -0.063499 0.355565 0.018856
   vertex -0.061626 0.352855 0.01708
  endloop
 endfacet
 facet normal 0.712098 -0.493657 0.499218
  outer loop
   vertex -0.060854 0.359481 0.022531
   vertex -0.061626 0.352855 0.01708
   vertex -0.058088 0.359435 0.01854
  endloop
 endfacet
 facet normal -0.190551 -0.955712 -0.224287
  outer loop
   vertex -0.061626 0.352855 0.01708
   vertex -0.065517 0.354026 0.015396
   vertex -0.063433 0.355161 0.008789
  endloop
 endfacet
 facet normal 0.610019 -0.291723 -0.736732
  outer loop
   vertex -0.060155 0.361013 0.009186
   vertex -0.063433 0.355161 0.008789
   vertex -0.068269 0.358595 0.003425
  endloop
 endfacet
 facet normal -0.346464 -0.90017 -0.263924
  outer loop
   vertex -0.068269 0.358595 0.003425
   vertex -0.063433 0.355161 0.008789
   vertex -0.065517 0.354026 0.015396
  endloop
 endfacet
 facet normal 0.316475 -0.177582 -0.931831
  outer loop
   vertex -0.04747 0.353951 -0.01715
   vertex -0.043893 0.352376 -0.015635
   vertex -0.04946 0.34999 -0.017071
  endloop
 endfacet
 facet normal 0.0832433 -0.0616586 -0.99462
  outer loop
   vertex -0.04747 0.353951 -0.01715
   vertex -0.04946 0.34999 -0.017071
   vertex -0.057411 0.352467 -0.01789
  endloop
 endfacet
 facet normal -0.0277057 -0.202312 -0.978929
  outer loop
   vertex -0.061626 0.352855 -0.016911
   vertex -0.058088 0.359435 -0.018371
   vertex -0.054811 0.357283 -0.018019
  endloop
 endfacet
 facet normal -0.217318 0.0912919 -0.971822
  outer loop
   vertex -0.057411 0.352467 -0.01789
   vertex -0.061626 0.352855 -0.016911
   vertex -0.054811 0.357283 -0.018019
  endloop
 endfacet
 facet normal -0.452888 -0.686118 -0.569328
  outer loop
   vertex -0.063499 0.355565 -0.018687
   vertex -0.061626 0.352855 -0.016911
   vertex -0.065517 0.354026 -0.015227
  endloop
 endfacet
 facet normal -0.159807 -0.615975 -0.771386
  outer loop
   vertex -0.061626 0.352855 -0.016911
   vertex -0.063499 0.355565 -0.018687
   vertex -0.060854 0.359481 -0.022362
  endloop
 endfacet
 facet normal 0.712098 -0.493657 -0.499218
  outer loop
   vertex -0.058088 0.359435 -0.018371
   vertex -0.061626 0.352855 -0.016911
   vertex -0.060854 0.359481 -0.022362
  endloop
 endfacet
 facet normal -0.190551 -0.955712 0.224287
  outer loop
   vertex -0.063433 0.355161 -0.00862
   vertex -0.065517 0.354026 -0.015227
   vertex -0.061626 0.352855 -0.016911
  endloop
 endfacet
 facet normal 0.0847817 -0.0723895 -0.993766
  outer loop
   vertex -0.054811 0.357283 -0.018019
   vertex -0.04747 0.353951 -0.01715
   vertex -0.057411 0.352467 -0.01789
  endloop
 endfacet
 facet normal 0.610019 -0.291723 0.736732
  outer loop
   vertex -0.068269 0.358595 -0.003256
   vertex -0.063433 0.355161 -0.00862
   vertex -0.060155 0.361013 -0.009017
  endloop
 endfacet
 facet normal -0.346464 -0.90017 0.263924
  outer loop
   vertex -0.065517 0.354026 -0.015227
   vertex -0.063433 0.355161 -0.00862
   vertex -0.068269 0.358595 -0.003256
  endloop
 endfacet
 facet normal 0.965308 -0.256171 0.0505555
  outer loop
   vertex -0.036336 0.356525 0.000112
   vertex -0.037732 0.3532 0.009919
   vertex -0.037191 0.353303 0.000111
  endloop
 endfacet
 facet normal 0.965329 -0.256145 -0.0502852
  outer loop
   vertex -0.037191 0.353303 0.000111
   vertex -0.037732 0.3532 -0.00975
   vertex -0.036336 0.356525 0.000112
  endloop
 endfacet
 facet normal 0.974811 -0.212859 0.066593
  outer loop
   vertex -0.036336 0.356525 0.000112
   vertex -0.037001 0.356604 0.010099
   vertex -0.037732 0.3532 0.009919
  endloop
 endfacet
 facet normal 0.831063 -0.205791 0.516705
  outer loop
   vertex -0.041643 0.354492 0.016724
   vertex -0.037732 0.3532 0.009919
   vertex -0.037001 0.356604 0.010099
  endloop
 endfacet
 facet normal 0.515344 -0.737646 0.436233
  outer loop
   vertex -0.043893 0.352376 0.015804
   vertex -0.037732 0.3532 0.009919
   vertex -0.041643 0.354492 0.016724
  endloop
 endfacet
 facet normal 0.13416 -0.51164 0.848661
  outer loop
   vertex -0.04747 0.353951 0.017319
   vertex -0.043893 0.352376 0.015804
   vertex -0.041643 0.354492 0.016724
  endloop
 endfacet
 facet normal 0.974839 -0.212846 -0.06623
  outer loop
   vertex -0.037732 0.3532 -0.00975
   vertex -0.037001 0.356604 -0.00993
   vertex -0.036336 0.356525 0.000112
  endloop
 endfacet
 facet normal 0.831063 -0.205791 -0.516705
  outer loop
   vertex -0.037001 0.356604 -0.00993
   vertex -0.037732 0.3532 -0.00975
   vertex -0.041643 0.354492 -0.016555
  endloop
 endfacet
 facet normal 0.515344 -0.737646 -0.436233
  outer loop
   vertex -0.041643 0.354492 -0.016555
   vertex -0.037732 0.3532 -0.00975
   vertex -0.043893 0.352376 -0.015635
  endloop
 endfacet
 facet normal 0.13416 -0.51164 -0.848661
  outer loop
   vertex -0.041643 0.354492 -0.016555
   vertex -0.043893 0.352376 -0.015635
   vertex -0.04747 0.353951 -0.01715
  endloop
 endfacet
 facet normal 0.136502 -0.706588 0.694335
  outer loop
   vertex -0.04747 0.353951 0.017319
   vertex -0.041643 0.354492 0.016724
   vertex -0.046261 0.355974 0.01914
  endloop
 endfacet
 facet normal -0.178502 -0.597214 0.781967
  outer loop
   vertex -0.054811 0.357283 0.018188
   vertex -0.04747 0.353951 0.017319
   vertex -0.046261 0.355974 0.01914
  endloop
 endfacet
 facet normal -0.964896 0.24389 -0.0974339
  outer loop
   vertex -0.058242 0.35996 9.1e-05
   vertex -0.058799 0.360103 0.005965
   vertex -0.05761 0.365453 0.007582
  endloop
 endfacet
 facet normal -0.770443 0.450073 -0.4515
  outer loop
   vertex -0.058799 0.360103 0.005965
   vertex -0.060155 0.361013 0.009186
   vertex -0.058541 0.364449 0.009857
  endloop
 endfacet
 facet normal -0.925084 0.282352 -0.253964
  outer loop
   vertex -0.058799 0.360103 0.005965
   vertex -0.058541 0.364449 0.009857
   vertex -0.05761 0.365453 0.007582
  endloop
 endfacet
 facet normal 0.599129 -0.127056 -0.790507
  outer loop
   vertex -0.068269 0.358595 0.003425
   vertex -0.058541 0.364449 0.009857
   vertex -0.060155 0.361013 0.009186
  endloop
 endfacet
 facet normal -0.919495 0.349961 -0.179044
  outer loop
   vertex -0.058242 0.35996 9.1e-05
   vertex -0.05761 0.365453 0.007582
   vertex -0.056594 0.364291 9.3e-05
  endloop
 endfacet
 facet normal -0.964932 0.243833 0.0972207
  outer loop
   vertex -0.05761 0.365453 -0.007413
   vertex -0.058799 0.360103 -0.005796
   vertex -0.058242 0.35996 9.1e-05
  endloop
 endfacet
 facet normal -0.919619 0.349843 0.178637
  outer loop
   vertex -0.056594 0.364291 9.3e-05
   vertex -0.05761 0.365453 -0.007413
   vertex -0.058242 0.35996 9.1e-05
  endloop
 endfacet
 facet normal -0.770443 0.450073 0.4515
  outer loop
   vertex -0.058541 0.364449 -0.009688
   vertex -0.060155 0.361013 -0.009017
   vertex -0.058799 0.360103 -0.005796
  endloop
 endfacet
 facet normal -0.925084 0.282352 0.253964
  outer loop
   vertex -0.05761 0.365453 -0.007413
   vertex -0.058541 0.364449 -0.009688
   vertex -0.058799 0.360103 -0.005796
  endloop
 endfacet
 facet normal 0.599129 -0.127056 0.790507
  outer loop
   vertex -0.060155 0.361013 -0.009017
   vertex -0.058541 0.364449 -0.009688
   vertex -0.068269 0.358595 -0.003256
  endloop
 endfacet
 facet normal -0.169909 -0.486535 0.85698
  outer loop
   vertex -0.054811 0.357283 0.018188
   vertex -0.046261 0.355974 0.01914
   vertex -0.052258 0.359687 0.020059
  endloop
 endfacet
 facet normal -0.205992 -0.455355 0.866152
  outer loop
   vertex -0.052258 0.359687 0.020059
   vertex -0.058088 0.359435 0.01854
   vertex -0.054811 0.357283 0.018188
  endloop
 endfacet
 facet normal -0.22528 0.604082 0.764418
  outer loop
   vertex -0.052258 0.359687 0.020059
   vertex -0.055819 0.361067 0.017919
   vertex -0.058088 0.359435 0.01854
  endloop
 endfacet
 facet normal 0.748705 0.418535 0.514071
  outer loop
   vertex -0.060168 0.363867 0.017961
   vertex -0.060854 0.359481 0.022531
   vertex -0.058088 0.359435 0.01854
  endloop
 endfacet
 facet normal 0.130783 0.188533 0.97332
  outer loop
   vertex -0.060168 0.363867 0.017961
   vertex -0.058088 0.359435 0.01854
   vertex -0.055819 0.361067 0.017919
  endloop
 endfacet
 facet normal -0.711584 -0.610365 0.347999
  outer loop
   vertex -0.069835 0.362144 0.020805
   vertex -0.069409 0.358613 0.015483
   vertex -0.065517 0.354026 0.015396
  endloop
 endfacet
 facet normal -0.879925 -0.173274 -0.442388
  outer loop
   vertex -0.069835 0.362144 0.020805
   vertex -0.065517 0.354026 0.015396
   vertex -0.06884 0.353407 0.022248
  endloop
 endfacet
 facet normal -0.882508 0.194042 0.4284
  outer loop
   vertex -0.065517 0.354026 0.015396
   vertex -0.063499 0.355565 0.018856
   vertex -0.060854 0.359481 0.022531
  endloop
 endfacet
 facet normal 0.586554 -0.781156 0.213892
  outer loop
   vertex -0.065517 0.354026 0.015396
   vertex -0.060854 0.359481 0.022531
   vertex -0.06884 0.353407 0.022248
  endloop
 endfacet
 facet normal -0.701913 -0.602756 0.379477
  outer loop
   vertex -0.065517 0.354026 0.015396
   vertex -0.069409 0.358613 0.015483
   vertex -0.067554 0.3527 0.009522
  endloop
 endfacet
 facet normal 0.941117 -0.181112 -0.285478
  outer loop
   vertex -0.065517 0.354026 0.015396
   vertex -0.067554 0.3527 0.009522
   vertex -0.068269 0.358595 0.003425
  endloop
 endfacet
 facet normal -0.217164 -0.268248 0.938554
  outer loop
   vertex -0.060854 0.359481 0.022531
   vertex -0.066154 0.359818 0.021401
   vertex -0.068907 0.355266 0.019463
  endloop
 endfacet
 facet normal -0.543294 0.692176 0.475104
  outer loop
   vertex -0.060854 0.359481 0.022531
   vertex -0.068907 0.355266 0.019463
   vertex -0.06884 0.353407 0.022248
  endloop
 endfacet
 facet normal -0.0991252 0.72532 0.681238
  outer loop
   vertex -0.060168 0.363867 0.017961
   vertex -0.066154 0.359818 0.021401
   vertex -0.060854 0.359481 0.022531
  endloop
 endfacet
 facet normal 0.856883 -0.507392 0.0911291
  outer loop
   vertex -0.070137 0.354841 8.8e-05
   vertex -0.068269 0.358595 0.003425
   vertex -0.075184 0.34714 0.004667
  endloop
 endfacet
 facet normal 0.591408 0.351029 -0.725958
  outer loop
   vertex -0.068269 0.358595 0.003425
   vertex -0.070137 0.354841 8.8e-05
   vertex -0.074328 0.361904 8.9e-05
  endloop
 endfacet
 facet normal 0.610644 0.494765 -0.618322
  outer loop
   vertex -0.068269 0.358595 0.003425
   vertex -0.074328 0.361904 8.9e-05
   vertex -0.068637 0.363517 0.007
  endloop
 endfacet
 facet normal 0.692169 -0.476604 -0.541987
  outer loop
   vertex -0.067554 0.3527 0.009522
   vertex -0.075184 0.34714 0.004667
   vertex -0.068269 0.358595 0.003425
  endloop
 endfacet
 facet normal 0.169693 0.587426 -0.791287
  outer loop
   vertex -0.068269 0.358595 0.003425
   vertex -0.068637 0.363517 0.007
   vertex -0.058541 0.364449 0.009857
  endloop
 endfacet
 facet normal 0.136502 -0.706588 -0.694335
  outer loop
   vertex -0.046261 0.355974 -0.018971
   vertex -0.041643 0.354492 -0.016555
   vertex -0.04747 0.353951 -0.01715
  endloop
 endfacet
 facet normal -0.178502 -0.597214 -0.781967
  outer loop
   vertex -0.046261 0.355974 -0.018971
   vertex -0.04747 0.353951 -0.01715
   vertex -0.054811 0.357283 -0.018019
  endloop
 endfacet
 facet normal -0.22528 0.604081 -0.764418
  outer loop
   vertex -0.058088 0.359435 -0.018371
   vertex -0.055819 0.361067 -0.01775
   vertex -0.052258 0.359687 -0.01989
  endloop
 endfacet
 facet normal -0.205992 -0.455354 -0.866152
  outer loop
   vertex -0.054811 0.357283 -0.018019
   vertex -0.058088 0.359435 -0.018371
   vertex -0.052258 0.359687 -0.01989
  endloop
 endfacet
 facet normal 0.748705 0.418535 -0.514071
  outer loop
   vertex -0.058088 0.359435 -0.018371
   vertex -0.060854 0.359481 -0.022362
   vertex -0.060168 0.363867 -0.017792
  endloop
 endfacet
 facet normal 0.130783 0.188533 -0.97332
  outer loop
   vertex -0.055819 0.361067 -0.01775
   vertex -0.058088 0.359435 -0.018371
   vertex -0.060168 0.363867 -0.017792
  endloop
 endfacet
 facet normal -0.169909 -0.486535 -0.85698
  outer loop
   vertex -0.052258 0.359687 -0.01989
   vertex -0.046261 0.355974 -0.018971
   vertex -0.054811 0.357283 -0.018019
  endloop
 endfacet
 facet normal -0.882508 0.194042 -0.4284
  outer loop
   vertex -0.060854 0.359481 -0.022362
   vertex -0.063499 0.355565 -0.018687
   vertex -0.065517 0.354026 -0.015227
  endloop
 endfacet
 facet normal -0.711584 -0.610365 -0.347999
  outer loop
   vertex -0.065517 0.354026 -0.015227
   vertex -0.069409 0.358613 -0.015314
   vertex -0.069835 0.362144 -0.020636
  endloop
 endfacet
 facet normal -0.879925 -0.173274 0.442388
  outer loop
   vertex -0.06884 0.353407 -0.022079
   vertex -0.065517 0.354026 -0.015227
   vertex -0.069835 0.362144 -0.020636
  endloop
 endfacet
 facet normal 0.586554 -0.781156 -0.213892
  outer loop
   vertex -0.06884 0.353407 -0.022079
   vertex -0.060854 0.359481 -0.022362
   vertex -0.065517 0.354026 -0.015227
  endloop
 endfacet
 facet normal -0.701913 -0.602756 -0.379477
  outer loop
   vertex -0.067554 0.3527 -0.009353
   vertex -0.069409 0.358613 -0.015314
   vertex -0.065517 0.354026 -0.015227
  endloop
 endfacet
 facet normal 0.941117 -0.181112 0.285478
  outer loop
   vertex -0.068269 0.358595 -0.003256
   vertex -0.067554 0.3527 -0.009353
   vertex -0.065517 0.354026 -0.015227
  endloop
 endfacet
 facet normal -0.217163 -0.268248 -0.938554
  outer loop
   vertex -0.068907 0.355266 -0.019294
   vertex -0.066154 0.359818 -0.021232
   vertex -0.060854 0.359481 -0.022362
  endloop
 endfacet
 facet normal -0.543294 0.692176 -0.475104
  outer loop
   vertex -0.06884 0.353407 -0.022079
   vertex -0.068907 0.355266 -0.019294
   vertex -0.060854 0.359481 -0.022362
  endloop
 endfacet
 facet normal -0.099125 0.72532 -0.681238
  outer loop
   vertex -0.060854 0.359481 -0.022362
   vertex -0.066154 0.359818 -0.021232
   vertex -0.060168 0.363867 -0.017792
  endloop
 endfacet
 facet normal 0.856889 -0.507413 -0.0909595
  outer loop
   vertex -0.075184 0.34714 -0.004498
   vertex -0.068269 0.358595 -0.003256
   vertex -0.070137 0.354841 8.8e-05
  endloop
 endfacet
 facet normal 0.592203 0.351295 0.725181
  outer loop
   vertex -0.074328 0.361904 8.9e-05
   vertex -0.070137 0.354841 8.8e-05
   vertex -0.068269 0.358595 -0.003256
  endloop
 endfacet
 facet normal 0.611222 0.494529 0.617939
  outer loop
   vertex -0.068637 0.363517 -0.006831
   vertex -0.074328 0.361904 8.9e-05
   vertex -0.068269 0.358595 -0.003256
  endloop
 endfacet
 facet normal 0.692169 -0.476604 0.541987
  outer loop
   vertex -0.068269 0.358595 -0.003256
   vertex -0.075184 0.34714 -0.004498
   vertex -0.067554 0.3527 -0.009353
  endloop
 endfacet
 facet normal 0.169693 0.587426 0.791287
  outer loop
   vertex -0.058541 0.364449 -0.009688
   vertex -0.068637 0.363517 -0.006831
   vertex -0.068269 0.358595 -0.003256
  endloop
 endfacet
 facet normal 0.394119 0.918863 0.018974
  outer loop
   vertex -0.037001 0.356604 0.010099
   vertex -0.036336 0.356525 0.000112
   vertex -0.047491 0.36131 9.3e-05
  endloop
 endfacet
 facet normal 0.394175 0.918842 -0.0188739
  outer loop
   vertex -0.047491 0.36131 9.3e-05
   vertex -0.036336 0.356525 0.000112
   vertex -0.037001 0.356604 -0.00993
  endloop
 endfacet
 facet normal 0.828599 -0.250218 0.500814
  outer loop
   vertex -0.041643 0.354492 0.016724
   vertex -0.037001 0.356604 0.010099
   vertex -0.040726 0.357989 0.016954
  endloop
 endfacet
 facet normal 0.388985 0.920896 0.0253134
  outer loop
   vertex -0.040726 0.357989 0.016954
   vertex -0.037001 0.356604 0.010099
   vertex -0.047491 0.36131 9.3e-05
  endloop
 endfacet
 facet normal 0.390384 -0.23479 0.89021
  outer loop
   vertex -0.045789 0.360247 0.02006
   vertex -0.046261 0.355974 0.01914
   vertex -0.041643 0.354492 0.016724
  endloop
 endfacet
 facet normal 0.456114 -0.176966 0.872148
  outer loop
   vertex -0.045789 0.360247 0.02006
   vertex -0.041643 0.354492 0.016724
   vertex -0.040726 0.357989 0.016954
  endloop
 endfacet
 facet normal 0.828599 -0.250218 -0.500814
  outer loop
   vertex -0.040726 0.357989 -0.016785
   vertex -0.037001 0.356604 -0.00993
   vertex -0.041643 0.354492 -0.016555
  endloop
 endfacet
 facet normal 0.388962 0.920906 -0.025299
  outer loop
   vertex -0.047491 0.36131 9.3e-05
   vertex -0.037001 0.356604 -0.00993
   vertex -0.040726 0.357989 -0.016785
  endloop
 endfacet
 facet normal 0.390384 -0.23479 -0.89021
  outer loop
   vertex -0.041643 0.354492 -0.016555
   vertex -0.046261 0.355974 -0.018971
   vertex -0.045789 0.360247 -0.019891
  endloop
 endfacet
 facet normal 0.456114 -0.176966 -0.872148
  outer loop
   vertex -0.040726 0.357989 -0.016785
   vertex -0.041643 0.354492 -0.016555
   vertex -0.045789 0.360247 -0.019891
  endloop
 endfacet
 facet normal 0.132651 -0.0309521 0.990679
  outer loop
   vertex -0.052485 0.362683 0.020183
   vertex -0.052258 0.359687 0.020059
   vertex -0.046261 0.355974 0.01914
  endloop
 endfacet
 facet normal -0.0563345 -0.204197 0.977308
  outer loop
   vertex -0.052485 0.362683 0.020183
   vertex -0.046261 0.355974 0.01914
   vertex -0.045789 0.360247 0.02006
  endloop
 endfacet
 facet normal 0.617715 0.73186 0.287766
  outer loop
   vertex -0.065851 0.36972 0.01442
   vertex -0.059559 0.365077 0.012722
   vertex -0.05761 0.365453 0.007582
  endloop
 endfacet
 facet normal 0.179493 0.9171 -0.355962
  outer loop
   vertex -0.05761 0.365453 0.007582
   vertex -0.066245 0.367733 0.009102
   vertex -0.065851 0.36972 0.01442
  endloop
 endfacet
 facet normal -0.0342205 0.461414 -0.886525
  outer loop
   vertex -0.05761 0.365453 0.007582
   vertex -0.068637 0.363517 0.007
   vertex -0.066245 0.367733 0.009102
  endloop
 endfacet
 facet normal 0.180063 -0.925017 -0.334544
  outer loop
   vertex -0.068637 0.363517 0.007
   vertex -0.05761 0.365453 0.007582
   vertex -0.058541 0.364449 0.009857
  endloop
 endfacet
 facet normal 0.309504 0.945121 -0.104656
  outer loop
   vertex -0.056594 0.364291 9.3e-05
   vertex -0.05761 0.365453 0.007582
   vertex -0.047491 0.36131 9.3e-05
  endloop
 endfacet
 facet normal 0.404782 0.913467 0.0415947
  outer loop
   vertex -0.05761 0.365453 0.007582
   vertex -0.056326 0.364527 0.015423
   vertex -0.047491 0.36131 9.3e-05
  endloop
 endfacet
 facet normal 0.0820541 0.991226 0.103626
  outer loop
   vertex -0.059559 0.365077 0.012722
   vertex -0.056326 0.364527 0.015423
   vertex -0.05761 0.365453 0.007582
  endloop
 endfacet
 facet normal 0.309512 0.945145 0.104421
  outer loop
   vertex -0.047491 0.36131 9.3e-05
   vertex -0.05761 0.365453 -0.007413
   vertex -0.056594 0.364291 9.3e-05
  endloop
 endfacet
 facet normal 0.617743 0.731833 -0.287775
  outer loop
   vertex -0.05761 0.365453 -0.007413
   vertex -0.059559 0.365077 -0.012553
   vertex -0.065851 0.36972 -0.014252
  endloop
 endfacet
 facet normal 0.179563 0.917132 0.355845
  outer loop
   vertex -0.065851 0.36972 -0.014252
   vertex -0.066245 0.367733 -0.008932
   vertex -0.05761 0.365453 -0.007413
  endloop
 endfacet
 facet normal -0.0341833 0.461231 0.886621
  outer loop
   vertex -0.066245 0.367733 -0.008932
   vertex -0.068637 0.363517 -0.006831
   vertex -0.05761 0.365453 -0.007413
  endloop
 endfacet
 facet normal 0.180063 -0.925017 0.334544
  outer loop
   vertex -0.058541 0.364449 -0.009688
   vertex -0.05761 0.365453 -0.007413
   vertex -0.068637 0.363517 -0.006831
  endloop
 endfacet
 facet normal 0.404835 0.913444 -0.0415835
  outer loop
   vertex -0.047491 0.36131 9.3e-05
   vertex -0.056326 0.364527 -0.015254
   vertex -0.05761 0.365453 -0.007413
  endloop
 endfacet
 facet normal 0.0820541 0.991226 -0.103626
  outer loop
   vertex -0.05761 0.365453 -0.007413
   vertex -0.056326 0.364527 -0.015254
   vertex -0.059559 0.365077 -0.012553
  endloop
 endfacet
 facet normal -0.534926 -0.07536 0.841531
  outer loop
   vertex -0.052485 0.362683 0.020183
   vertex -0.055819 0.361067 0.017919
   vertex -0.052258 0.359687 0.020059
  endloop
 endfacet
 facet normal 0.378689 0.577331 0.723383
  outer loop
   vertex -0.056326 0.364527 0.015423
   vertex -0.060168 0.363867 0.017961
   vertex -0.055819 0.361067 0.017919
  endloop
 endfacet
 facet normal -0.638958 0.386264 0.665232
  outer loop
   vertex -0.052485 0.362683 0.020183
   vertex -0.056326 0.364527 0.015423
   vertex -0.055819 0.361067 0.017919
  endloop
 endfacet
 facet normal -0.0202816 0.974665 0.222746
  outer loop
   vertex -0.056326 0.364527 0.015423
   vertex -0.059559 0.365077 0.012722
   vertex -0.060168 0.363867 0.017961
  endloop
 endfacet
 facet normal 0.187794 0.459774 0.867953
  outer loop
   vertex -0.060168 0.363867 0.017961
   vertex -0.066695 0.364362 0.019111
   vertex -0.066154 0.359818 0.021401
  endloop
 endfacet
 facet normal 0.171128 0.736759 0.654142
  outer loop
   vertex -0.066695 0.364362 0.019111
   vertex -0.060168 0.363867 0.017961
   vertex -0.065319 0.366302 0.016566
  endloop
 endfacet
 facet normal 0.357835 0.899857 0.249423
  outer loop
   vertex -0.065319 0.366302 0.016566
   vertex -0.060168 0.363867 0.017961
   vertex -0.059559 0.365077 0.012722
  endloop
 endfacet
 facet normal -0.641111 -0.73287 0.227769
  outer loop
   vertex -0.080633 0.377983 0.041375
   vertex -0.073395 0.364692 0.018983
   vertex -0.069835 0.362144 0.020805
  endloop
 endfacet
 facet normal -0.658953 -0.650007 0.378513
  outer loop
   vertex -0.073395 0.364692 0.018983
   vertex -0.069409 0.358613 0.015483
   vertex -0.069835 0.362144 0.020805
  endloop
 endfacet
 facet normal 0.357674 0.191683 0.913962
  outer loop
   vertex -0.069835 0.362144 0.020805
   vertex -0.06884 0.353407 0.022248
   vertex -0.066695 0.364362 0.019111
  endloop
 endfacet
 facet normal 0.303113 0.269087 0.914175
  outer loop
   vertex -0.068513 0.366291 0.019146
   vertex -0.069835 0.362144 0.020805
   vertex -0.066695 0.364362 0.019111
  endloop
 endfacet
 facet normal 0.859451 -0.0714769 0.506197
  outer loop
   vertex -0.080633 0.377983 0.041375
   vertex -0.069835 0.362144 0.020805
   vertex -0.068513 0.366291 0.019146
  endloop
 endfacet
 facet normal -0.514105 0.657948 0.550273
  outer loop
   vertex -0.079912 0.353811 0.011412
   vertex -0.076621 0.354259 0.013951
   vertex -0.069409 0.358613 0.015483
  endloop
 endfacet
 facet normal 0.600211 -0.0654102 0.797163
  outer loop
   vertex -0.073395 0.364692 0.018983
   vertex -0.078144 0.367377 0.022779
   vertex -0.069409 0.358613 0.015483
  endloop
 endfacet
 facet normal 0.23993 -0.650862 0.720287
  outer loop
   vertex -0.069409 0.358613 0.015483
   vertex -0.076621 0.354259 0.013951
   vertex -0.067554 0.3527 0.009522
  endloop
 endfacet
 facet normal -0.486543 0.410246 0.771346
  outer loop
   vertex -0.069409 0.358613 0.015483
   vertex -0.072685 0.36232 0.011445
   vertex -0.079912 0.353811 0.011412
  endloop
 endfacet
 facet normal -0.725151 -0.68727 -0.0426212
  outer loop
   vertex -0.069409 0.358613 0.015483
   vertex -0.078144 0.367377 0.022779
   vertex -0.072685 0.36232 0.011445
  endloop
 endfacet
 facet normal 0.953722 -0.238992 -0.182474
  outer loop
   vertex -0.06884 0.353407 0.022248
   vertex -0.068907 0.355266 0.019463
   vertex -0.066695 0.364362 0.019111
  endloop
 endfacet
 facet normal 0.673264 -0.688491 -0.269622
  outer loop
   vertex -0.075184 0.34714 0.004667
   vertex -0.067554 0.3527 0.009522
   vertex -0.068376 0.351382 0.010835
  endloop
 endfacet
 facet normal 0.25699 0.596888 0.760053
  outer loop
   vertex -0.080638 0.350902 0.015358
   vertex -0.068376 0.351382 0.010835
   vertex -0.067554 0.3527 0.009522
  endloop
 endfacet
 facet normal 0.418338 -0.123429 0.899866
  outer loop
   vertex -0.080638 0.350902 0.015358
   vertex -0.067554 0.3527 0.009522
   vertex -0.076621 0.354259 0.013951
  endloop
 endfacet
 facet normal 0.686753 0.390679 0.612976
  outer loop
   vertex -0.066695 0.364362 0.019111
   vertex -0.068917 0.361129 0.023661
   vertex -0.066154 0.359818 0.021401
  endloop
 endfacet
 facet normal 0.362771 -0.542103 0.757972
  outer loop
   vertex -0.068917 0.361129 0.023661
   vertex -0.068907 0.355266 0.019463
   vertex -0.066154 0.359818 0.021401
  endloop
 endfacet
 facet normal -0.534743 -0.492545 0.686621
  outer loop
   vertex -0.068917 0.361129 0.023661
   vertex -0.070563 0.360022 0.021585
   vertex -0.068907 0.355266 0.019463
  endloop
 endfacet
 facet normal -0.621578 0.128358 -0.772764
  outer loop
   vertex -0.070563 0.360022 0.021585
   vertex -0.069844 0.365334 0.021889
   vertex -0.068907 0.355266 0.019463
  endloop
 endfacet
 facet normal -0.634446 0.124767 -0.762831
  outer loop
   vertex -0.068907 0.355266 0.019463
   vertex -0.069844 0.365334 0.021889
   vertex -0.066695 0.364362 0.019111
  endloop
 endfacet
 facet normal 0.357559 -0.639184 -0.680878
  outer loop
   vertex -0.070137 0.354841 8.8e-05
   vertex -0.075184 0.34714 0.004667
   vertex -0.076081 0.351517 8.7e-05
  endloop
 endfacet
 facet normal 0.357551 -0.639579 0.680512
  outer loop
   vertex -0.076081 0.351517 8.7e-05
   vertex -0.075184 0.34714 -0.004498
   vertex -0.070137 0.354841 8.8e-05
  endloop
 endfacet
 facet normal -0.858007 -0.444733 -0.256977
  outer loop
   vertex -0.076081 0.351517 8.7e-05
   vertex -0.075184 0.34714 0.004667
   vertex -0.075195 0.346339 0.00609
  endloop
 endfacet
 facet normal 0.701441 -0.62339 -0.345494
  outer loop
   vertex -0.075184 0.34714 0.004667
   vertex -0.068376 0.351382 0.010835
   vertex -0.075195 0.346339 0.00609
  endloop
 endfacet
 facet normal -0.516141 0.824024 0.233628
  outer loop
   vertex -0.084776 0.35536 8.8e-05
   vertex -0.075857 0.359688 0.004527
   vertex -0.074328 0.361904 8.9e-05
  endloop
 endfacet
 facet normal 0.0813333 0.880225 0.467535
  outer loop
   vertex -0.074328 0.361904 8.9e-05
   vertex -0.075857 0.359688 0.004527
   vertex -0.073225 0.357854 0.007522
  endloop
 endfacet
 facet normal -0.961951 0.15321 0.226225
  outer loop
   vertex -0.074328 0.361904 8.9e-05
   vertex -0.073225 0.357854 0.007522
   vertex -0.072296 0.360905 0.009406
  endloop
 endfacet
 facet normal -0.480807 0.854528 0.196487
  outer loop
   vertex -0.072296 0.360905 0.009406
   vertex -0.068637 0.363517 0.007
   vertex -0.074328 0.361904 8.9e-05
  endloop
 endfacet
 facet normal -0.516164 0.824131 -0.233201
  outer loop
   vertex -0.074328 0.361904 8.9e-05
   vertex -0.075857 0.359688 -0.004358
   vertex -0.084776 0.35536 8.8e-05
  endloop
 endfacet
 facet normal 0.0821282 0.880449 -0.466974
  outer loop
   vertex -0.073225 0.357854 -0.007353
   vertex -0.075857 0.359688 -0.004358
   vertex -0.074328 0.361904 8.9e-05
  endloop
 endfacet
 facet normal -0.961976 0.153341 -0.226026
  outer loop
   vertex -0.072296 0.360905 -0.009237
   vertex -0.073225 0.357854 -0.007353
   vertex -0.074328 0.361904 8.9e-05
  endloop
 endfacet
 facet normal -0.480906 0.854511 -0.196318
  outer loop
   vertex -0.074328 0.361904 8.9e-05
   vertex -0.068637 0.363517 -0.006831
   vertex -0.072296 0.360905 -0.009237
  endloop
 endfacet
 facet normal -0.673622 0.682575 -0.283417
  outer loop
   vertex -0.072296 0.360905 0.009406
   vertex -0.069327 0.364188 0.010256
   vertex -0.068637 0.363517 0.007
  endloop
 endfacet
 facet normal -0.767655 0.575807 -0.281341
  outer loop
   vertex -0.068637 0.363517 0.007
   vertex -0.069327 0.364188 0.010256
   vertex -0.066245 0.367733 0.009102
  endloop
 endfacet
 facet normal 0.132651 -0.0309521 -0.990679
  outer loop
   vertex -0.046261 0.355974 -0.018971
   vertex -0.052258 0.359687 -0.01989
   vertex -0.052485 0.362683 -0.020014
  endloop
 endfacet
 facet normal -0.0563347 -0.204197 -0.977308
  outer loop
   vertex -0.045789 0.360247 -0.019891
   vertex -0.046261 0.355974 -0.018971
   vertex -0.052485 0.362683 -0.020014
  endloop
 endfacet
 facet normal -0.534926 -0.07536 -0.841531
  outer loop
   vertex -0.052258 0.359687 -0.01989
   vertex -0.055819 0.361067 -0.01775
   vertex -0.052485 0.362683 -0.020014
  endloop
 endfacet
 facet normal 0.378689 0.577331 -0.723383
  outer loop
   vertex -0.055819 0.361067 -0.01775
   vertex -0.060168 0.363867 -0.017792
   vertex -0.056326 0.364527 -0.015254
  endloop
 endfacet
 facet normal -0.638958 0.386264 -0.665232
  outer loop
   vertex -0.055819 0.361067 -0.01775
   vertex -0.056326 0.364527 -0.015254
   vertex -0.052485 0.362683 -0.020014
  endloop
 endfacet
 facet normal -0.0202816 0.974665 -0.222746
  outer loop
   vertex -0.060168 0.363867 -0.017792
   vertex -0.059559 0.365077 -0.012553
   vertex -0.056326 0.364527 -0.015254
  endloop
 endfacet
 facet normal 0.187794 0.459774 -0.867953
  outer loop
   vertex -0.066154 0.359818 -0.021232
   vertex -0.066695 0.364362 -0.018942
   vertex -0.060168 0.363867 -0.017792
  endloop
 endfacet
 facet normal 0.171128 0.736759 -0.654142
  outer loop
   vertex -0.065319 0.366302 -0.016397
   vertex -0.060168 0.363867 -0.017792
   vertex -0.066695 0.364362 -0.018942
  endloop
 endfacet
 facet normal 0.357835 0.899857 -0.249423
  outer loop
   vertex -0.059559 0.365077 -0.012553
   vertex -0.060168 0.363867 -0.017792
   vertex -0.065319 0.366302 -0.016397
  endloop
 endfacet
 facet normal -0.514105 0.657948 -0.550273
  outer loop
   vertex -0.069409 0.358613 -0.015314
   vertex -0.076621 0.354259 -0.013782
   vertex -0.079912 0.353811 -0.011243
  endloop
 endfacet
 facet normal -0.658953 -0.650007 -0.378513
  outer loop
   vertex -0.069835 0.362144 -0.020636
   vertex -0.069409 0.358613 -0.015314
   vertex -0.073395 0.364692 -0.018814
  endloop
 endfacet
 facet normal 0.600211 -0.06541 -0.797163
  outer loop
   vertex -0.069409 0.358613 -0.015314
   vertex -0.078144 0.367377 -0.02261
   vertex -0.073395 0.364692 -0.018814
  endloop
 endfacet
 facet normal 0.23993 -0.650862 -0.720287
  outer loop
   vertex -0.067554 0.3527 -0.009353
   vertex -0.076621 0.354259 -0.013782
   vertex -0.069409 0.358613 -0.015314
  endloop
 endfacet
 facet normal -0.486543 0.410246 -0.771346
  outer loop
   vertex -0.079912 0.353811 -0.011243
   vertex -0.072685 0.36232 -0.011276
   vertex -0.069409 0.358613 -0.015314
  endloop
 endfacet
 facet normal -0.725151 -0.68727 0.0426212
  outer loop
   vertex -0.072685 0.36232 -0.011276
   vertex -0.078144 0.367377 -0.02261
   vertex -0.069409 0.358613 -0.015314
  endloop
 endfacet
 facet normal -0.641309 -0.732347 -0.228888
  outer loop
   vertex -0.069835 0.362144 -0.020636
   vertex -0.073395 0.364692 -0.018814
   vertex -0.080633 0.377983 -0.04106
  endloop
 endfacet
 facet normal 0.357674 0.191683 -0.913962
  outer loop
   vertex -0.066695 0.364362 -0.018942
   vertex -0.06884 0.353407 -0.022079
   vertex -0.069835 0.362144 -0.020636
  endloop
 endfacet
 facet normal 0.303113 0.269087 -0.914175
  outer loop
   vertex -0.066695 0.364362 -0.018942
   vertex -0.069835 0.362144 -0.020636
   vertex -0.068513 0.366291 -0.018977
  endloop
 endfacet
 facet normal 0.858316 -0.0702791 -0.508286
  outer loop
   vertex -0.068513 0.366291 -0.018977
   vertex -0.069835 0.362144 -0.020636
   vertex -0.080633 0.377983 -0.04106
  endloop
 endfacet
 facet normal 0.953722 -0.238992 0.182474
  outer loop
   vertex -0.066695 0.364362 -0.018942
   vertex -0.068907 0.355266 -0.019294
   vertex -0.06884 0.353407 -0.022079
  endloop
 endfacet
 facet normal 0.673264 -0.688491 0.269622
  outer loop
   vertex -0.068376 0.351382 -0.010666
   vertex -0.067554 0.3527 -0.009353
   vertex -0.075184 0.34714 -0.004498
  endloop
 endfacet
 facet normal 0.25699 0.596888 -0.760053
  outer loop
   vertex -0.067554 0.3527 -0.009353
   vertex -0.068376 0.351382 -0.010666
   vertex -0.080638 0.350902 -0.015189
  endloop
 endfacet
 facet normal 0.418339 -0.123429 -0.899866
  outer loop
   vertex -0.076621 0.354259 -0.013782
   vertex -0.067554 0.3527 -0.009353
   vertex -0.080638 0.350902 -0.015189
  endloop
 endfacet
 facet normal -0.534743 -0.492545 -0.686621
  outer loop
   vertex -0.068907 0.355266 -0.019294
   vertex -0.070563 0.360022 -0.021416
   vertex -0.068917 0.361129 -0.023492
  endloop
 endfacet
 facet normal 0.362771 -0.542103 -0.757972
  outer loop
   vertex -0.066154 0.359818 -0.021232
   vertex -0.068907 0.355266 -0.019294
   vertex -0.068917 0.361129 -0.023492
  endloop
 endfacet
 facet normal -0.621578 0.128358 0.772765
  outer loop
   vertex -0.068907 0.355266 -0.019294
   vertex -0.069844 0.365334 -0.02172
   vertex -0.070563 0.360022 -0.021416
  endloop
 endfacet
 facet normal -0.634446 0.124767 0.762831
  outer loop
   vertex -0.066695 0.364362 -0.018942
   vertex -0.069844 0.365334 -0.02172
   vertex -0.068907 0.355266 -0.019294
  endloop
 endfacet
 facet normal 0.686753 0.39068 -0.612976
  outer loop
   vertex -0.066154 0.359818 -0.021232
   vertex -0.068917 0.361129 -0.023492
   vertex -0.066695 0.364362 -0.018942
  endloop
 endfacet
 facet normal -0.857645 -0.44526 0.257271
  outer loop
   vertex -0.075195 0.346339 -0.005921
   vertex -0.075184 0.34714 -0.004498
   vertex -0.076081 0.351517 8.7e-05
  endloop
 endfacet
 facet normal 0.701441 -0.62339 0.345494
  outer loop
   vertex -0.075195 0.346339 -0.005921
   vertex -0.068376 0.351382 -0.010666
   vertex -0.075184 0.34714 -0.004498
  endloop
 endfacet
 facet normal -0.673622 0.682575 0.283417
  outer loop
   vertex -0.068637 0.363517 -0.006831
   vertex -0.069327 0.364188 -0.010087
   vertex -0.072296 0.360905 -0.009237
  endloop
 endfacet
 facet normal -0.767691 0.57576 0.281339
  outer loop
   vertex -0.066245 0.367733 -0.008932
   vertex -0.069327 0.364188 -0.010087
   vertex -0.068637 0.363517 -0.006831
  endloop
 endfacet
 facet normal 0.413997 0.910183 0.0131677
  outer loop
   vertex -0.045789 0.360247 0.02006
   vertex -0.040726 0.357989 0.016954
   vertex -0.047491 0.36131 9.3e-05
  endloop
 endfacet
 facet normal 0.342144 0.939416 0.0208489
  outer loop
   vertex -0.052485 0.362683 0.020183
   vertex -0.045789 0.360247 0.02006
   vertex -0.047491 0.36131 9.3e-05
  endloop
 endfacet
 facet normal 0.396142 0.917492 0.0357701
  outer loop
   vertex -0.056326 0.364527 0.015423
   vertex -0.052485 0.362683 0.020183
   vertex -0.047491 0.36131 9.3e-05
  endloop
 endfacet
 facet normal 0.413992 0.910186 -0.0131571
  outer loop
   vertex -0.047491 0.36131 9.3e-05
   vertex -0.040726 0.357989 -0.016785
   vertex -0.045789 0.360247 -0.019891
  endloop
 endfacet
 facet normal 0.342143 0.939417 -0.0208312
  outer loop
   vertex -0.047491 0.36131 9.3e-05
   vertex -0.045789 0.360247 -0.019891
   vertex -0.052485 0.362683 -0.020014
  endloop
 endfacet
 facet normal 0.396166 0.917483 -0.0357466
  outer loop
   vertex -0.047491 0.36131 9.3e-05
   vertex -0.052485 0.362683 -0.020014
   vertex -0.056326 0.364527 -0.015254
  endloop
 endfacet
 facet normal 0.551129 0.503533 0.665365
  outer loop
   vertex -0.059559 0.365077 0.012722
   vertex -0.065851 0.36972 0.01442
   vertex -0.065319 0.366302 0.016566
  endloop
 endfacet
 facet normal 0.860003 0.360568 0.36109
  outer loop
   vertex -0.080633 0.377983 0.041375
   vertex -0.065319 0.366302 0.016566
   vertex -0.065851 0.36972 0.01442
  endloop
 endfacet
 facet normal 0.158508 0.965007 -0.208895
  outer loop
   vertex -0.085393 0.377321 0.034705
   vertex -0.080633 0.377983 0.041375
   vertex -0.065851 0.36972 0.01442
  endloop
 endfacet
 facet normal -0.252577 0.800625 -0.543328
  outer loop
   vertex -0.085393 0.377321 0.034705
   vertex -0.065851 0.36972 0.01442
   vertex -0.071838 0.366569 0.01256
  endloop
 endfacet
 facet normal -0.0976653 0.636955 -0.764689
  outer loop
   vertex -0.065851 0.36972 0.01442
   vertex -0.069327 0.364188 0.010256
   vertex -0.071838 0.366569 0.01256
  endloop
 endfacet
 facet normal -0.770469 0.613767 -0.172245
  outer loop
   vertex -0.069327 0.364188 0.010256
   vertex -0.065851 0.36972 0.01442
   vertex -0.066245 0.367733 0.009102
  endloop
 endfacet
 facet normal 0.551155 0.503395 -0.665449
  outer loop
   vertex -0.065319 0.366302 -0.016397
   vertex -0.065851 0.36972 -0.014252
   vertex -0.059559 0.365077 -0.012553
  endloop
 endfacet
 facet normal 0.859183 0.361176 -0.362431
  outer loop
   vertex -0.065851 0.36972 -0.014252
   vertex -0.065319 0.366302 -0.016397
   vertex -0.080633 0.377983 -0.04106
  endloop
 endfacet
 facet normal 0.159369 0.964737 0.209483
  outer loop
   vertex -0.065851 0.36972 -0.014252
   vertex -0.080633 0.377983 -0.04106
   vertex -0.085393 0.377321 -0.03439
  endloop
 endfacet
 facet normal -0.251217 0.799532 0.545562
  outer loop
   vertex -0.071838 0.366569 -0.012391
   vertex -0.065851 0.36972 -0.014252
   vertex -0.085393 0.377321 -0.03439
  endloop
 endfacet
 facet normal -0.0975787 0.637011 0.764653
  outer loop
   vertex -0.071838 0.366569 -0.012391
   vertex -0.069327 0.364188 -0.010087
   vertex -0.065851 0.36972 -0.014252
  endloop
 endfacet
 facet normal -0.77049 0.613759 0.172176
  outer loop
   vertex -0.066245 0.367733 -0.008932
   vertex -0.065851 0.36972 -0.014252
   vertex -0.069327 0.364188 -0.010087
  endloop
 endfacet
 facet normal 0.671488 0.408548 0.618217
  outer loop
   vertex -0.066695 0.364362 0.019111
   vertex -0.069844 0.365334 0.021889
   vertex -0.068917 0.361129 0.023661
  endloop
 endfacet
 facet normal 0.543235 0.49974 0.674652
  outer loop
   vertex -0.066695 0.364362 0.019111
   vertex -0.065319 0.366302 0.016566
   vertex -0.068513 0.366291 0.019146
  endloop
 endfacet
 facet normal 0.486469 -0.635546 0.599524
  outer loop
   vertex -0.080633 0.377983 0.041375
   vertex -0.068513 0.366291 0.019146
   vertex -0.065319 0.366302 0.016566
  endloop
 endfacet
 facet normal 0.793782 -0.37476 0.479025
  outer loop
   vertex -0.080633 0.377983 0.041375
   vertex -0.084364 0.375771 0.045827
   vertex -0.073395 0.364692 0.018983
  endloop
 endfacet
 facet normal -0.353928 0.921286 0.16114
  outer loop
   vertex -0.084364 0.375771 0.045827
   vertex -0.080633 0.377983 0.041375
   vertex -0.085393 0.377321 0.034705
  endloop
 endfacet
 facet normal -0.453444 -0.873861 0.175371
  outer loop
   vertex -0.073395 0.364692 0.018983
   vertex -0.084364 0.375771 0.045827
   vertex -0.086157 0.374658 0.035645
  endloop
 endfacet
 facet normal -0.202808 -0.900973 0.383558
  outer loop
   vertex -0.078144 0.367377 0.022779
   vertex -0.073395 0.364692 0.018983
   vertex -0.086157 0.374658 0.035645
  endloop
 endfacet
 facet normal -0.463975 0.751658 0.468761
  outer loop
   vertex -0.080638 0.350902 0.015358
   vertex -0.076621 0.354259 0.013951
   vertex -0.079912 0.353811 0.011412
  endloop
 endfacet
 facet normal -0.704344 0.133189 0.697252
  outer loop
   vertex -0.079912 0.353811 0.011412
   vertex -0.082271 0.352497 0.00928
   vertex -0.083351 0.349377 0.008785
  endloop
 endfacet
 facet normal -0.825959 0.413794 0.382838
  outer loop
   vertex -0.079912 0.353811 0.011412
   vertex -0.083351 0.349377 0.008785
   vertex -0.081974 0.346246 0.01514
  endloop
 endfacet
 facet normal -0.961214 0.274615 0.0255992
  outer loop
   vertex -0.079912 0.353811 0.011412
   vertex -0.081974 0.346246 0.01514
   vertex -0.080638 0.350902 0.015358
  endloop
 endfacet
 facet normal -0.617584 0.75583 0.217511
  outer loop
   vertex -0.082271 0.352497 0.00928
   vertex -0.079912 0.353811 0.011412
   vertex -0.079373 0.355229 0.008015
  endloop
 endfacet
 facet normal -0.754138 0.639944 0.147471
  outer loop
   vertex -0.072685 0.36232 0.011445
   vertex -0.079373 0.355229 0.008015
   vertex -0.079912 0.353811 0.011412
  endloop
 endfacet
 facet normal -0.835831 0.0467153 -0.546996
  outer loop
   vertex -0.078144 0.367377 0.022779
   vertex -0.086157 0.374658 0.035645
   vertex -0.085393 0.377321 0.034705
  endloop
 endfacet
 facet normal -0.850596 0.0104297 -0.525716
  outer loop
   vertex -0.078144 0.367377 0.022779
   vertex -0.085393 0.377321 0.034705
   vertex -0.071838 0.366569 0.01256
  endloop
 endfacet
 facet normal -0.546508 0.634652 -0.546394
  outer loop
   vertex -0.069327 0.364188 0.010256
   vertex -0.072685 0.36232 0.011445
   vertex -0.078144 0.367377 0.022779
  endloop
 endfacet
 facet normal -0.795714 -0.39417 -0.459858
  outer loop
   vertex -0.069327 0.364188 0.010256
   vertex -0.078144 0.367377 0.022779
   vertex -0.071838 0.366569 0.01256
  endloop
 endfacet
 facet normal -0.546599 0.635507 -0.545307
  outer loop
   vertex -0.072296 0.360905 0.009406
   vertex -0.072685 0.36232 0.011445
   vertex -0.069327 0.364188 0.010256
  endloop
 endfacet
 facet normal -0.330671 0.645084 -0.688856
  outer loop
   vertex -0.079373 0.355229 0.008015
   vertex -0.072685 0.36232 0.011445
   vertex -0.073225 0.357854 0.007522
  endloop
 endfacet
 facet normal -0.699942 0.51724 -0.492487
  outer loop
   vertex -0.073225 0.357854 0.007522
   vertex -0.072685 0.36232 0.011445
   vertex -0.072296 0.360905 0.009406
  endloop
 endfacet
 facet normal 0.342262 -0.273802 0.898826
  outer loop
   vertex -0.080638 0.350902 0.015358
   vertex -0.076526 0.345081 0.012019
   vertex -0.068376 0.351382 0.010835
  endloop
 endfacet
 facet normal 0.608457 -0.792956 -0.0316529
  outer loop
   vertex -0.068376 0.351382 0.010835
   vertex -0.076526 0.345081 0.012019
   vertex -0.075195 0.346339 0.00609
  endloop
 endfacet
 facet normal 0.461437 -0.173146 0.870113
  outer loop
   vertex -0.080638 0.350902 0.015358
   vertex -0.081974 0.346246 0.01514
   vertex -0.076526 0.345081 0.012019
  endloop
 endfacet
 facet normal -0.800325 0.0742796 0.594948
  outer loop
   vertex -0.068917 0.361129 0.023661
   vertex -0.069844 0.365334 0.021889
   vertex -0.070563 0.360022 0.021585
  endloop
 endfacet
 facet normal -0.8616 -0.440272 -0.252599
  outer loop
   vertex -0.076081 0.351517 8.7e-05
   vertex -0.075195 0.346339 0.00609
   vertex -0.076303 0.349213 0.00486
  endloop
 endfacet
 facet normal 0.760968 -0.597429 -0.252993
  outer loop
   vertex -0.076081 0.351517 8.7e-05
   vertex -0.076303 0.349213 0.00486
   vertex -0.078826 0.348021 8.6e-05
  endloop
 endfacet
 facet normal -0.861727 -0.440194 0.252303
  outer loop
   vertex -0.076303 0.349213 -0.004691
   vertex -0.075195 0.346339 -0.005921
   vertex -0.076081 0.351517 8.7e-05
  endloop
 endfacet
 facet normal 0.76094 -0.597552 0.252789
  outer loop
   vertex -0.078826 0.348021 8.6e-05
   vertex -0.076303 0.349213 -0.004691
   vertex -0.076081 0.351517 8.7e-05
  endloop
 endfacet
 facet normal -0.846951 -0.448628 -0.28532
  outer loop
   vertex -0.075195 0.346339 0.00609
   vertex -0.076526 0.345081 0.012019
   vertex -0.076303 0.349213 0.00486
  endloop
 endfacet
 facet normal -0.364913 0.917032 -0.160906
  outer loop
   vertex -0.083109 0.356681 0.003836
   vertex -0.075857 0.359688 0.004527
   vertex -0.084776 0.35536 8.8e-05
  endloop
 endfacet
 facet normal -0.573267 0.653291 0.494546
  outer loop
   vertex -0.084776 0.35536 8.8e-05
   vertex -0.092453 0.348637 7e-05
   vertex -0.083813 0.353445 0.003734
  endloop
 endfacet
 facet normal -0.920217 0.189399 0.342532
  outer loop
   vertex -0.084776 0.35536 8.8e-05
   vertex -0.083813 0.353445 0.003734
   vertex -0.083109 0.356681 0.003836
  endloop
 endfacet
 facet normal -0.364957 0.917068 0.1606
  outer loop
   vertex -0.084776 0.35536 8.8e-05
   vertex -0.075857 0.359688 -0.004358
   vertex -0.083109 0.356681 -0.003667
  endloop
 endfacet
 facet normal -0.572151 0.654664 -0.494024
  outer loop
   vertex -0.083813 0.353445 -0.003565
   vertex -0.092453 0.348637 7e-05
   vertex -0.084776 0.35536 8.8e-05
  endloop
 endfacet
 facet normal -0.920417 0.18946 -0.34196
  outer loop
   vertex -0.083109 0.356681 -0.003667
   vertex -0.083813 0.353445 -0.003565
   vertex -0.084776 0.35536 8.8e-05
  endloop
 endfacet
 facet normal -0.333021 0.645113 0.687697
  outer loop
   vertex -0.083109 0.356681 0.003836
   vertex -0.073225 0.357854 0.007522
   vertex -0.075857 0.359688 0.004527
  endloop
 endfacet
 facet normal -0.294269 0.790171 0.53762
  outer loop
   vertex -0.083109 0.356681 0.003836
   vertex -0.079373 0.355229 0.008015
   vertex -0.073225 0.357854 0.007522
  endloop
 endfacet
 facet normal -0.333021 0.645113 -0.687697
  outer loop
   vertex -0.075857 0.359688 -0.004358
   vertex -0.073225 0.357854 -0.007353
   vertex -0.083109 0.356681 -0.003667
  endloop
 endfacet
 facet normal -0.294269 0.790171 -0.53762
  outer loop
   vertex -0.073225 0.357854 -0.007353
   vertex -0.079373 0.355229 -0.007846
   vertex -0.083109 0.356681 -0.003667
  endloop
 endfacet
 facet normal -0.330671 0.645084 0.688856
  outer loop
   vertex -0.073225 0.357854 -0.007353
   vertex -0.072685 0.36232 -0.011276
   vertex -0.079373 0.355229 -0.007846
  endloop
 endfacet
 facet normal -0.699942 0.51724 0.492487
  outer loop
   vertex -0.072296 0.360905 -0.009237
   vertex -0.072685 0.36232 -0.011276
   vertex -0.073225 0.357854 -0.007353
  endloop
 endfacet
 facet normal -0.546599 0.635507 0.545307
  outer loop
   vertex -0.069327 0.364188 -0.010087
   vertex -0.072685 0.36232 -0.011276
   vertex -0.072296 0.360905 -0.009237
  endloop
 endfacet
 facet normal 0.671488 0.408548 -0.618217
  outer loop
   vertex -0.068917 0.361129 -0.023492
   vertex -0.069844 0.365334 -0.02172
   vertex -0.066695 0.364362 -0.018942
  endloop
 endfacet
 facet normal 0.543235 0.49974 -0.674652
  outer loop
   vertex -0.068513 0.366291 -0.018977
   vertex -0.065319 0.366302 -0.016397
   vertex -0.066695 0.364362 -0.018942
  endloop
 endfacet
 facet normal 0.488758 -0.631076 -0.602377
  outer loop
   vertex -0.065319 0.366302 -0.016397
   vertex -0.068513 0.366291 -0.018977
   vertex -0.080633 0.377983 -0.04106
  endloop
 endfacet
 facet normal -0.463975 0.751658 -0.468761
  outer loop
   vertex -0.079912 0.353811 -0.011243
   vertex -0.076621 0.354259 -0.013782
   vertex -0.080638 0.350902 -0.015189
  endloop
 endfacet
 facet normal -0.704344 0.133189 -0.697252
  outer loop
   vertex -0.083351 0.349377 -0.008616
   vertex -0.082271 0.352497 -0.009111
   vertex -0.079912 0.353811 -0.011243
  endloop
 endfacet
 facet normal -0.825965 0.413825 -0.382794
  outer loop
   vertex -0.081974 0.346246 -0.014972
   vertex -0.083351 0.349377 -0.008616
   vertex -0.079912 0.353811 -0.011243
  endloop
 endfacet
 facet normal -0.961212 0.274619 -0.025603
  outer loop
   vertex -0.080638 0.350902 -0.015189
   vertex -0.081974 0.346246 -0.014972
   vertex -0.079912 0.353811 -0.011243
  endloop
 endfacet
 facet normal -0.617584 0.75583 -0.217511
  outer loop
   vertex -0.079373 0.355229 -0.007846
   vertex -0.079912 0.353811 -0.011243
   vertex -0.082271 0.352497 -0.009111
  endloop
 endfacet
 facet normal -0.754138 0.639944 -0.147471
  outer loop
   vertex -0.079912 0.353811 -0.011243
   vertex -0.079373 0.355229 -0.007846
   vertex -0.072685 0.36232 -0.011276
  endloop
 endfacet
 facet normal 0.79409 -0.372032 -0.480639
  outer loop
   vertex -0.073395 0.364692 -0.018814
   vertex -0.084364 0.375771 -0.045512
   vertex -0.080633 0.377983 -0.04106
  endloop
 endfacet
 facet normal -0.454717 -0.873169 -0.17552
  outer loop
   vertex -0.086157 0.374658 -0.03533
   vertex -0.084364 0.375771 -0.045512
   vertex -0.073395 0.364692 -0.018814
  endloop
 endfacet
 facet normal -0.195324 -0.899151 -0.391633
  outer loop
   vertex -0.086157 0.374658 -0.03533
   vertex -0.073395 0.364692 -0.018814
   vertex -0.078144 0.367377 -0.02261
  endloop
 endfacet
 facet normal -0.833512 0.0447465 0.550686
  outer loop
   vertex -0.085393 0.377321 -0.03439
   vertex -0.086157 0.374658 -0.03533
   vertex -0.078144 0.367377 -0.02261
  endloop
 endfacet
 facet normal -0.850942 0.00191416 0.525256
  outer loop
   vertex -0.071838 0.366569 -0.012391
   vertex -0.085393 0.377321 -0.03439
   vertex -0.078144 0.367377 -0.02261
  endloop
 endfacet
 facet normal -0.546508 0.634652 0.546394
  outer loop
   vertex -0.078144 0.367377 -0.02261
   vertex -0.072685 0.36232 -0.011276
   vertex -0.069327 0.364188 -0.010087
  endloop
 endfacet
 facet normal -0.795714 -0.39417 0.459858
  outer loop
   vertex -0.071838 0.366569 -0.012391
   vertex -0.078144 0.367377 -0.02261
   vertex -0.069327 0.364188 -0.010087
  endloop
 endfacet
 facet normal -0.353928 0.921286 -0.16114
  outer loop
   vertex -0.085393 0.377321 -0.03439
   vertex -0.080633 0.377983 -0.04106
   vertex -0.084364 0.375771 -0.045512
  endloop
 endfacet
 facet normal 0.342262 -0.273802 -0.898826
  outer loop
   vertex -0.068376 0.351382 -0.010666
   vertex -0.076526 0.345081 -0.01185
   vertex -0.080638 0.350902 -0.015189
  endloop
 endfacet
 facet normal 0.608457 -0.792956 0.0316529
  outer loop
   vertex -0.075195 0.346339 -0.005921
   vertex -0.076526 0.345081 -0.01185
   vertex -0.068376 0.351382 -0.010666
  endloop
 endfacet
 facet normal 0.461596 -0.173002 -0.870057
  outer loop
   vertex -0.076526 0.345081 -0.01185
   vertex -0.081974 0.346246 -0.014972
   vertex -0.080638 0.350902 -0.015189
  endloop
 endfacet
 facet normal -0.800325 0.0742793 -0.594948
  outer loop
   vertex -0.070563 0.360022 -0.021416
   vertex -0.069844 0.365334 -0.02172
   vertex -0.068917 0.361129 -0.023492
  endloop
 endfacet
 facet normal -0.846951 -0.448628 0.28532
  outer loop
   vertex -0.076303 0.349213 -0.004691
   vertex -0.076526 0.345081 -0.01185
   vertex -0.075195 0.346339 -0.005921
  endloop
 endfacet
 facet normal -0.939734 0.315831 0.130959
  outer loop
   vertex -0.084364 0.375771 0.045827
   vertex -0.085393 0.377321 0.034705
   vertex -0.086157 0.374658 0.035645
  endloop
 endfacet
 facet normal -0.939734 0.315831 -0.130959
  outer loop
   vertex -0.086157 0.374658 -0.03533
   vertex -0.085393 0.377321 -0.03439
   vertex -0.084364 0.375771 -0.045512
  endloop
 endfacet
 facet normal -0.585461 0.756269 0.29205
  outer loop
   vertex -0.083813 0.353445 0.003734
   vertex -0.082271 0.352497 0.00928
   vertex -0.079373 0.355229 0.008015
  endloop
 endfacet
 facet normal -0.905182 0.259987 0.336234
  outer loop
   vertex -0.08485 0.350486 0.003892
   vertex -0.083351 0.349377 0.008785
   vertex -0.082271 0.352497 0.00928
  endloop
 endfacet
 facet normal -0.893628 0.329454 0.304776
  outer loop
   vertex -0.08485 0.350486 0.003892
   vertex -0.082271 0.352497 0.00928
   vertex -0.083813 0.353445 0.003734
  endloop
 endfacet
 facet normal -0.66766 -0.682028 0.298442
  outer loop
   vertex -0.084584 0.34873 0.004548
   vertex -0.081113 0.346374 0.006929
   vertex -0.083351 0.349377 0.008785
  endloop
 endfacet
 facet normal -0.957846 -0.0387538 0.284658
  outer loop
   vertex -0.084584 0.34873 0.004548
   vertex -0.083351 0.349377 0.008785
   vertex -0.08485 0.350486 0.003892
  endloop
 endfacet
 facet normal -0.825482 -0.556336 -0.0952319
  outer loop
   vertex -0.081113 0.346374 0.006929
   vertex -0.081974 0.346246 0.01514
   vertex -0.083351 0.349377 0.008785
  endloop
 endfacet
 facet normal -0.230441 -0.972292 -0.0393208
  outer loop
   vertex -0.081113 0.346374 0.006929
   vertex -0.076526 0.345081 0.012019
   vertex -0.081974 0.346246 0.01514
  endloop
 endfacet
 facet normal -0.715213 0.133975 0.685945
  outer loop
   vertex -0.083813 0.353445 0.003734
   vertex -0.079373 0.355229 0.008015
   vertex -0.083109 0.356681 0.003836
  endloop
 endfacet
 facet normal 0.288743 -0.833068 -0.471832
  outer loop
   vertex -0.076303 0.349213 0.00486
   vertex -0.076526 0.345081 0.012019
   vertex -0.081113 0.346374 0.006929
  endloop
 endfacet
 facet normal 0.0666632 -0.658959 -0.749219
  outer loop
   vertex -0.076303 0.349213 0.00486
   vertex -0.081113 0.346374 0.006929
   vertex -0.084584 0.34873 0.004548
  endloop
 endfacet
 facet normal 0.0229361 -0.789451 0.613385
  outer loop
   vertex -0.076303 0.349213 0.00486
   vertex -0.084584 0.34873 0.004548
   vertex -0.085499 0.345235 8.4e-05
  endloop
 endfacet
 facet normal 0.385129 -0.922474 0.0267928
  outer loop
   vertex -0.078826 0.348021 8.6e-05
   vertex -0.076303 0.349213 0.00486
   vertex -0.085499 0.345235 8.4e-05
  endloop
 endfacet
 facet normal 0.385143 -0.922469 -0.0267673
  outer loop
   vertex -0.085499 0.345235 8.4e-05
   vertex -0.076303 0.349213 -0.004691
   vertex -0.078826 0.348021 8.6e-05
  endloop
 endfacet
 facet normal 0.288743 -0.833068 0.471832
  outer loop
   vertex -0.081113 0.346374 -0.00676
   vertex -0.076526 0.345081 -0.01185
   vertex -0.076303 0.349213 -0.004691
  endloop
 endfacet
 facet normal 0.0666632 -0.658959 0.749219
  outer loop
   vertex -0.084584 0.34873 -0.004379
   vertex -0.081113 0.346374 -0.00676
   vertex -0.076303 0.349213 -0.004691
  endloop
 endfacet
 facet normal 0.0229289 -0.789384 -0.613471
  outer loop
   vertex -0.085499 0.345235 8.4e-05
   vertex -0.084584 0.34873 -0.004379
   vertex -0.076303 0.349213 -0.004691
  endloop
 endfacet
 facet normal -0.482302 0.507974 0.713686
  outer loop
   vertex -0.092453 0.348637 7e-05
   vertex -0.098535 0.342809 0.000108
   vertex -0.08485 0.350486 0.003892
  endloop
 endfacet
 facet normal -0.479743 0.213572 0.851019
  outer loop
   vertex -0.092453 0.348637 7e-05
   vertex -0.08485 0.350486 0.003892
   vertex -0.083813 0.353445 0.003734
  endloop
 endfacet
 facet normal -0.481107 0.497366 -0.721917
  outer loop
   vertex -0.08485 0.350486 -0.003723
   vertex -0.098535 0.342809 0.000108
   vertex -0.092453 0.348637 7e-05
  endloop
 endfacet
 facet normal -0.477131 0.212746 -0.852693
  outer loop
   vertex -0.083813 0.353445 -0.003565
   vertex -0.08485 0.350486 -0.003723
   vertex -0.092453 0.348637 7e-05
  endloop
 endfacet
 facet normal -0.715213 0.133975 -0.685945
  outer loop
   vertex -0.083109 0.356681 -0.003667
   vertex -0.079373 0.355229 -0.007846
   vertex -0.083813 0.353445 -0.003565
  endloop
 endfacet
 facet normal -0.585461 0.756269 -0.29205
  outer loop
   vertex -0.079373 0.355229 -0.007846
   vertex -0.082271 0.352497 -0.009111
   vertex -0.083813 0.353445 -0.003565
  endloop
 endfacet
 facet normal -0.893628 0.329454 -0.304776
  outer loop
   vertex -0.083813 0.353445 -0.003565
   vertex -0.082271 0.352497 -0.009111
   vertex -0.08485 0.350486 -0.003723
  endloop
 endfacet
 facet normal -0.905182 0.259987 -0.336234
  outer loop
   vertex -0.082271 0.352497 -0.009111
   vertex -0.083351 0.349377 -0.008616
   vertex -0.08485 0.350486 -0.003723
  endloop
 endfacet
 facet normal -0.66766 -0.682028 -0.298442
  outer loop
   vertex -0.083351 0.349377 -0.008616
   vertex -0.081113 0.346374 -0.00676
   vertex -0.084584 0.34873 -0.004379
  endloop
 endfacet
 facet normal -0.957846 -0.0387538 -0.284658
  outer loop
   vertex -0.08485 0.350486 -0.003723
   vertex -0.083351 0.349377 -0.008616
   vertex -0.084584 0.34873 -0.004379
  endloop
 endfacet
 facet normal -0.82548 -0.556341 0.0952201
  outer loop
   vertex -0.083351 0.349377 -0.008616
   vertex -0.081974 0.346246 -0.014972
   vertex -0.081113 0.346374 -0.00676
  endloop
 endfacet
 facet normal -0.230446 -0.972291 0.0393165
  outer loop
   vertex -0.081974 0.346246 -0.014972
   vertex -0.076526 0.345081 -0.01185
   vertex -0.081113 0.346374 -0.00676
  endloop
 endfacet
 facet normal -0.411329 0.310905 0.856823
  outer loop
   vertex -0.098535 0.342809 0.000108
   vertex -0.094174 0.340581 0.00301
   vertex -0.08485 0.350486 0.003892
  endloop
 endfacet
 facet normal -0.407657 0.264722 0.873921
  outer loop
   vertex -0.088131 0.344278 0.004242
   vertex -0.084584 0.34873 0.004548
   vertex -0.08485 0.350486 0.003892
  endloop
 endfacet
 facet normal -0.323884 0.223013 0.919437
  outer loop
   vertex -0.088131 0.344278 0.004242
   vertex -0.08485 0.350486 0.003892
   vertex -0.094174 0.340581 0.00301
  endloop
 endfacet
 facet normal 0.673635 -0.642617 0.365047
  outer loop
   vertex -0.096269 0.335246 0.002374
   vertex -0.085499 0.345235 8.4e-05
   vertex -0.084584 0.34873 0.004548
  endloop
 endfacet
 facet normal 0.685965 -0.510914 -0.518091
  outer loop
   vertex -0.096269 0.335246 0.002374
   vertex -0.084584 0.34873 0.004548
   vertex -0.088131 0.344278 0.004242
  endloop
 endfacet
 facet normal 0.657023 -0.740635 -0.140642
  outer loop
   vertex -0.085499 0.345235 8.4e-05
   vertex -0.096269 0.335246 0.002374
   vertex -0.096807 0.335196 0.000124
  endloop
 endfacet
 facet normal 0.657532 -0.740086 0.141152
  outer loop
   vertex -0.096807 0.335196 0.000124
   vertex -0.096269 0.335246 -0.00212
   vertex -0.085499 0.345235 8.4e-05
  endloop
 endfacet
 facet normal 0.671951 -0.643668 -0.366297
  outer loop
   vertex -0.084584 0.34873 -0.004379
   vertex -0.085499 0.345235 8.4e-05
   vertex -0.096269 0.335246 -0.00212
  endloop
 endfacet
 facet normal -0.407657 0.264722 -0.873921
  outer loop
   vertex -0.08485 0.350486 -0.003723
   vertex -0.084584 0.34873 -0.004379
   vertex -0.088131 0.344278 -0.004073
  endloop
 endfacet
 facet normal 0.696791 -0.521286 0.49269
  outer loop
   vertex -0.088131 0.344278 -0.004073
   vertex -0.084584 0.34873 -0.004379
   vertex -0.096269 0.335246 -0.00212
  endloop
 endfacet
 facet normal 0.0347092 0.817231 0.575264
  outer loop
   vertex -0.098535 0.342809 0.000108
   vertex -0.10092 0.340845 0.003042
   vertex -0.094174 0.340581 0.00301
  endloop
 endfacet
 facet normal -0.643703 0.765196 -0.0110372
  outer loop
   vertex -0.101772 0.340086 0.000113
   vertex -0.10092 0.340845 0.003042
   vertex -0.098535 0.342809 0.000108
  endloop
 endfacet
 facet normal 0.0345937 0.813667 -0.580301
  outer loop
   vertex -0.094174 0.340581 -0.002756
   vertex -0.10092 0.340845 -0.002788
   vertex -0.098535 0.342809 0.000108
  endloop
 endfacet
 facet normal -0.410469 0.302406 -0.860271
  outer loop
   vertex -0.08485 0.350486 -0.003723
   vertex -0.094174 0.340581 -0.002756
   vertex -0.098535 0.342809 0.000108
  endloop
 endfacet
 facet normal -0.643682 0.765212 0.011154
  outer loop
   vertex -0.098535 0.342809 0.000108
   vertex -0.10092 0.340845 -0.002788
   vertex -0.101772 0.340086 0.000113
  endloop
 endfacet
 facet normal -0.340058 0.231118 -0.911562
  outer loop
   vertex -0.094174 0.340581 -0.002756
   vertex -0.08485 0.350486 -0.003723
   vertex -0.088131 0.344278 -0.004073
  endloop
 endfacet
 facet normal -0.169622 -0.0507209 0.984203
  outer loop
   vertex -0.096269 0.335246 0.002374
   vertex -0.088131 0.344278 0.004242
   vertex -0.094174 0.340581 0.00301
  endloop
 endfacet
 facet normal 0.155841 -0.177046 0.971786
  outer loop
   vertex -0.096269 0.335246 0.002374
   vertex -0.094174 0.340581 0.00301
   vertex -0.100429 0.33788 0.003521
  endloop
 endfacet
 facet normal 0.0109912 0.161247 0.986853
  outer loop
   vertex -0.10092 0.340845 0.003042
   vertex -0.100429 0.33788 0.003521
   vertex -0.094174 0.340581 0.00301
  endloop
 endfacet
 facet normal -0.502111 -0.853554 0.139033
  outer loop
   vertex -0.096807 0.335196 0.000124
   vertex -0.096269 0.335246 0.002374
   vertex -0.100429 0.33788 0.003521
  endloop
 endfacet
 facet normal -0.352576 -0.879689 0.319121
  outer loop
   vertex -0.096807 0.335196 0.000124
   vertex -0.100429 0.33788 0.003521
   vertex -0.099344 0.336207 0.000108
  endloop
 endfacet
 facet normal -0.502014 -0.853554 -0.139381
  outer loop
   vertex -0.100429 0.33788 -0.003267
   vertex -0.096269 0.335246 -0.00212
   vertex -0.096807 0.335196 0.000124
  endloop
 endfacet
 facet normal -0.348466 -0.879554 -0.323969
  outer loop
   vertex -0.099344 0.336207 0.000108
   vertex -0.100429 0.33788 -0.003267
   vertex -0.096807 0.335196 0.000124
  endloop
 endfacet
 facet normal -0.187297 -0.043439 -0.981342
  outer loop
   vertex -0.094174 0.340581 -0.002756
   vertex -0.088131 0.344278 -0.004073
   vertex -0.096269 0.335246 -0.00212
  endloop
 endfacet
 facet normal 0.155841 -0.177046 -0.971786
  outer loop
   vertex -0.100429 0.33788 -0.003267
   vertex -0.094174 0.340581 -0.002756
   vertex -0.096269 0.335246 -0.00212
  endloop
 endfacet
 facet normal -0.958471 -0.192687 -0.210248
  outer loop
   vertex -0.099344 0.336207 0.000108
   vertex -0.100429 0.33788 0.003521
   vertex -0.10092 0.340845 0.003042
  endloop
 endfacet
 facet normal -0.791078 -0.495624 0.358542
  outer loop
   vertex -0.099344 0.336207 0.000108
   vertex -0.10092 0.340845 0.003042
   vertex -0.101772 0.340086 0.000113
  endloop
 endfacet
 facet normal -0.790526 -0.49435 -0.361507
  outer loop
   vertex -0.101772 0.340086 0.000113
   vertex -0.10092 0.340845 -0.002788
   vertex -0.099344 0.336207 0.000108
  endloop
 endfacet
 facet normal 0.0109912 0.161247 -0.986853
  outer loop
   vertex -0.094174 0.340581 -0.002756
   vertex -0.100429 0.33788 -0.003267
   vertex -0.10092 0.340845 -0.002788
  endloop
 endfacet
 facet normal -0.957962 -0.192939 0.212327
  outer loop
   vertex -0.10092 0.340845 -0.002788
   vertex -0.100429 0.33788 -0.003267
   vertex -0.099344 0.336207 0.000108
  endloop
 endfacet
endsolid
