solid ascii
 facet normal 0.463071 -0.885316 0.0421988
  outer loop
   vertex -0.000728 0.147993 2.5e-05
   vertex -0.001628 0.147914 0.008244
   vertex -0.015038 0.140507 3e-06
  endloop
 endfacet
 facet normal 0.991629 0.0688253 0.109247
  outer loop
   vertex -0.002147 0.152779 0.00989
   vertex -0.001628 0.147914 0.008244
   vertex -0.000728 0.147993 2.5e-05
  endloop
 endfacet
 facet normal 0.981938 -0.0706485 0.175519
  outer loop
   vertex -0.002147 0.152779 0.00989
   vertex -0.000728 0.147993 2.5e-05
   vertex -0.00058 0.150055 2.7e-05
  endloop
 endfacet
 facet normal 0.463177 -0.885272 -0.0419556
  outer loop
   vertex -0.015038 0.140507 3e-06
   vertex -0.001628 0.147914 -0.008244
   vertex -0.000728 0.147993 2.5e-05
  endloop
 endfacet
 facet normal 0.991685 0.069052 -0.108595
  outer loop
   vertex -0.000728 0.147993 2.5e-05
   vertex -0.001628 0.147914 -0.008244
   vertex -0.002147 0.152779 -0.00989
  endloop
 endfacet
 facet normal 0.982142 -0.0703237 -0.174506
  outer loop
   vertex -0.00058 0.150055 2.7e-05
   vertex -0.000728 0.147993 2.5e-05
   vertex -0.002147 0.152779 -0.00989
  endloop
 endfacet
 facet normal 0.450582 -0.890222 0.0669306
  outer loop
   vertex -0.001628 0.147914 0.008244
   vertex -0.006206 0.14624 0.016798
   vertex -0.015038 0.140507 3e-06
  endloop
 endfacet
 facet normal 0.884968 -0.0617468 0.46154
  outer loop
   vertex -0.006206 0.14624 0.016798
   vertex -0.001628 0.147914 0.008244
   vertex -0.002147 0.152779 0.00989
  endloop
 endfacet
 facet normal 0.460417 -0.885659 0.0602012
  outer loop
   vertex -0.006206 0.14624 0.016798
   vertex -0.013244 0.142864 0.020958
   vertex -0.015038 0.140507 3e-06
  endloop
 endfacet
 facet normal 0.443336 -0.894026 -0.0645883
  outer loop
   vertex -0.026926 0.134254 0.004957
   vertex -0.027196 0.134478 3e-06
   vertex -0.015038 0.140507 3e-06
  endloop
 endfacet
 facet normal 0.475189 -0.87936 0.0303603
  outer loop
   vertex -0.015038 0.140507 3e-06
   vertex -0.027425 0.134317 0.014592
   vertex -0.026926 0.134254 0.004957
  endloop
 endfacet
 facet normal 0.505621 -0.860359 0.0642608
  outer loop
   vertex -0.024054 0.136782 0.021071
   vertex -0.027425 0.134317 0.014592
   vertex -0.015038 0.140507 3e-06
  endloop
 endfacet
 facet normal 0.490022 -0.869916 0.0558958
  outer loop
   vertex -0.015038 0.140507 3e-06
   vertex -0.013244 0.142864 0.020958
   vertex -0.024054 0.136782 0.021071
  endloop
 endfacet
 facet normal 0.450565 -0.890232 -0.0669192
  outer loop
   vertex -0.015038 0.140507 3e-06
   vertex -0.006206 0.14624 -0.016798
   vertex -0.001628 0.147914 -0.008244
  endloop
 endfacet
 facet normal 0.46041 -0.885664 -0.0601851
  outer loop
   vertex -0.015038 0.140507 3e-06
   vertex -0.013244 0.142864 -0.020958
   vertex -0.006206 0.14624 -0.016798
  endloop
 endfacet
 facet normal 0.443338 -0.89403 0.0645105
  outer loop
   vertex -0.015038 0.140507 3e-06
   vertex -0.027196 0.134478 3e-06
   vertex -0.026926 0.134254 -0.004957
  endloop
 endfacet
 facet normal 0.475201 -0.879353 -0.0303608
  outer loop
   vertex -0.026926 0.134254 -0.004957
   vertex -0.027425 0.134317 -0.014592
   vertex -0.015038 0.140507 3e-06
  endloop
 endfacet
 facet normal 0.505636 -0.860351 -0.0642502
  outer loop
   vertex -0.015038 0.140507 3e-06
   vertex -0.027425 0.134317 -0.014592
   vertex -0.024054 0.136782 -0.021071
  endloop
 endfacet
 facet normal 0.490023 -0.869917 -0.0558799
  outer loop
   vertex -0.024054 0.136782 -0.021071
   vertex -0.013244 0.142864 -0.020958
   vertex -0.015038 0.140507 3e-06
  endloop
 endfacet
 facet normal 0.471676 0.87725 0.0891902
  outer loop
   vertex -0.003427 0.15447 2.7e-05
   vertex -0.005026 0.154256 0.010588
   vertex -0.002147 0.152779 0.00989
  endloop
 endfacet
 facet normal 0.840307 0.541871 -0.0161503
  outer loop
   vertex -0.003427 0.15447 2.7e-05
   vertex -0.002147 0.152779 0.00989
   vertex -0.00058 0.150055 2.7e-05
  endloop
 endfacet
 facet normal 0.486003 0.70012 0.523099
  outer loop
   vertex -0.007966 0.150874 0.017846
   vertex -0.002147 0.152779 0.00989
   vertex -0.005026 0.154256 0.010588
  endloop
 endfacet
 facet normal 0.77852 0.158335 0.607319
  outer loop
   vertex -0.006206 0.14624 0.016798
   vertex -0.002147 0.152779 0.00989
   vertex -0.007966 0.150874 0.017846
  endloop
 endfacet
 facet normal 0.840308 0.541871 0.0160624
  outer loop
   vertex -0.00058 0.150055 2.7e-05
   vertex -0.002147 0.152779 -0.00989
   vertex -0.003427 0.15447 2.7e-05
  endloop
 endfacet
 facet normal 0.884968 -0.0617468 -0.46154
  outer loop
   vertex -0.002147 0.152779 -0.00989
   vertex -0.001628 0.147914 -0.008244
   vertex -0.006206 0.14624 -0.016798
  endloop
 endfacet
 facet normal 0.471607 0.877334 -0.0887278
  outer loop
   vertex -0.002147 0.152779 -0.00989
   vertex -0.005026 0.154256 -0.010588
   vertex -0.003427 0.15447 2.7e-05
  endloop
 endfacet
 facet normal 0.486003 0.70012 -0.523099
  outer loop
   vertex -0.005026 0.154256 -0.010588
   vertex -0.002147 0.152779 -0.00989
   vertex -0.007966 0.150874 -0.017846
  endloop
 endfacet
 facet normal 0.77852 0.158335 -0.607319
  outer loop
   vertex -0.007966 0.150874 -0.017846
   vertex -0.002147 0.152779 -0.00989
   vertex -0.006206 0.14624 -0.016798
  endloop
 endfacet
 facet normal 0.509266 -0.00121018 0.860608
  outer loop
   vertex -0.013244 0.142864 0.020958
   vertex -0.006206 0.14624 0.016798
   vertex -0.007966 0.150874 0.017846
  endloop
 endfacet
 facet normal 0.357632 0.123956 0.9256
  outer loop
   vertex -0.013244 0.142864 0.020958
   vertex -0.007966 0.150874 0.017846
   vertex -0.016671 0.14739 0.021676
  endloop
 endfacet
 facet normal 0.069366 -0.104858 0.992065
  outer loop
   vertex -0.024054 0.136782 0.021071
   vertex -0.013244 0.142864 0.020958
   vertex -0.016671 0.14739 0.021676
  endloop
 endfacet
 facet normal -0.687887 -0.725803 0.00467152
  outer loop
   vertex -0.027196 0.134478 3e-06
   vertex -0.026926 0.134254 0.004957
   vertex -0.030485 0.137628 0.005102
  endloop
 endfacet
 facet normal -0.688329 -0.72474 -0.0309098
  outer loop
   vertex -0.027425 0.134317 0.014592
   vertex -0.030485 0.137628 0.005102
   vertex -0.026926 0.134254 0.004957
  endloop
 endfacet
 facet normal -0.19426 -0.885629 0.421811
  outer loop
   vertex -0.027196 0.134478 3e-06
   vertex -0.030485 0.137628 0.005102
   vertex -0.032416 0.135623 3e-06
  endloop
 endfacet
 facet normal -0.687887 -0.725803 -0.00466588
  outer loop
   vertex -0.030485 0.137628 -0.005102
   vertex -0.026926 0.134254 -0.004957
   vertex -0.027196 0.134478 3e-06
  endloop
 endfacet
 facet normal -0.1943 -0.885814 -0.421403
  outer loop
   vertex -0.032416 0.135623 3e-06
   vertex -0.030485 0.137628 -0.005102
   vertex -0.027196 0.134478 3e-06
  endloop
 endfacet
 facet normal 0.503746 -0.591749 0.629344
  outer loop
   vertex -0.027877 0.141629 0.021829
   vertex -0.030773 0.133377 0.016388
   vertex -0.027425 0.134317 0.014592
  endloop
 endfacet
 facet normal -0.618183 -0.571911 0.539229
  outer loop
   vertex -0.027877 0.141629 0.021829
   vertex -0.027425 0.134317 0.014592
   vertex -0.024054 0.136782 0.021071
  endloop
 endfacet
 facet normal -0.10673 -0.78523 -0.609936
  outer loop
   vertex -0.027425 0.134317 0.014592
   vertex -0.030773 0.133377 0.016388
   vertex -0.032001 0.138742 0.009696
  endloop
 endfacet
 facet normal -0.670998 -0.740274 -0.0419178
  outer loop
   vertex -0.027425 0.134317 0.014592
   vertex -0.032001 0.138742 0.009696
   vertex -0.030485 0.137628 0.005102
  endloop
 endfacet
 facet normal 0.0664138 -0.102827 0.99248
  outer loop
   vertex -0.024054 0.136782 0.021071
   vertex -0.016671 0.14739 0.021676
   vertex -0.027877 0.141629 0.021829
  endloop
 endfacet
 facet normal 0.509266 -0.00121018 -0.860608
  outer loop
   vertex -0.007966 0.150874 -0.017846
   vertex -0.006206 0.14624 -0.016798
   vertex -0.013244 0.142864 -0.020958
  endloop
 endfacet
 facet normal 0.357632 0.123956 -0.9256
  outer loop
   vertex -0.016671 0.14739 -0.021676
   vertex -0.007966 0.150874 -0.017846
   vertex -0.013244 0.142864 -0.020958
  endloop
 endfacet
 facet normal 0.069366 -0.104858 -0.992065
  outer loop
   vertex -0.016671 0.14739 -0.021676
   vertex -0.013244 0.142864 -0.020958
   vertex -0.024054 0.136782 -0.021071
  endloop
 endfacet
 facet normal -0.688329 -0.72474 0.0309098
  outer loop
   vertex -0.026926 0.134254 -0.004957
   vertex -0.030485 0.137628 -0.005102
   vertex -0.027425 0.134317 -0.014592
  endloop
 endfacet
 facet normal 0.503746 -0.591749 -0.629344
  outer loop
   vertex -0.027425 0.134317 -0.014592
   vertex -0.030773 0.133377 -0.016388
   vertex -0.027877 0.141629 -0.021829
  endloop
 endfacet
 facet normal -0.618183 -0.571911 -0.539229
  outer loop
   vertex -0.024054 0.136782 -0.021071
   vertex -0.027425 0.134317 -0.014592
   vertex -0.027877 0.141629 -0.021829
  endloop
 endfacet
 facet normal -0.10673 -0.78523 0.609936
  outer loop
   vertex -0.032001 0.138742 -0.009696
   vertex -0.030773 0.133377 -0.016388
   vertex -0.027425 0.134317 -0.014592
  endloop
 endfacet
 facet normal -0.670998 -0.740274 0.0419178
  outer loop
   vertex -0.030485 0.137628 -0.005102
   vertex -0.032001 0.138742 -0.009696
   vertex -0.027425 0.134317 -0.014592
  endloop
 endfacet
 facet normal 0.0664138 -0.102827 -0.99248
  outer loop
   vertex -0.027877 0.141629 -0.021829
   vertex -0.016671 0.14739 -0.021676
   vertex -0.024054 0.136782 -0.021071
  endloop
 endfacet
 facet normal 0.922545 0.356831 0.146909
  outer loop
   vertex -0.007283 0.164438 3e-05
   vertex -0.005026 0.154256 0.010588
   vertex -0.003427 0.15447 2.7e-05
  endloop
 endfacet
 facet normal 0.922617 0.356947 -0.146175
  outer loop
   vertex -0.003427 0.15447 2.7e-05
   vertex -0.005026 0.154256 -0.010588
   vertex -0.007283 0.164438 3e-05
  endloop
 endfacet
 facet normal 0.924118 0.354 0.143843
  outer loop
   vertex -0.007283 0.164438 3e-05
   vertex -0.008212 0.162723 0.010219
   vertex -0.005026 0.154256 0.010588
  endloop
 endfacet
 facet normal 0.677284 0.284422 0.678521
  outer loop
   vertex -0.01126 0.15285 0.0174
   vertex -0.005026 0.154256 0.010588
   vertex -0.008212 0.162723 0.010219
  endloop
 endfacet
 facet normal 0.389072 0.764569 0.513866
  outer loop
   vertex -0.007966 0.150874 0.017846
   vertex -0.005026 0.154256 0.010588
   vertex -0.01126 0.15285 0.0174
  endloop
 endfacet
 facet normal 0.178852 0.490634 0.852813
  outer loop
   vertex -0.016671 0.14739 0.021676
   vertex -0.007966 0.150874 0.017846
   vertex -0.01126 0.15285 0.0174
  endloop
 endfacet
 facet normal 0.924242 0.35401 -0.143014
  outer loop
   vertex -0.005026 0.154256 -0.010588
   vertex -0.008212 0.162723 -0.010219
   vertex -0.007283 0.164438 3e-05
  endloop
 endfacet
 facet normal 0.677284 0.284422 -0.678521
  outer loop
   vertex -0.008212 0.162723 -0.010219
   vertex -0.005026 0.154256 -0.010588
   vertex -0.01126 0.15285 -0.0174
  endloop
 endfacet
 facet normal 0.389072 0.764569 -0.513866
  outer loop
   vertex -0.01126 0.15285 -0.0174
   vertex -0.005026 0.154256 -0.010588
   vertex -0.007966 0.150874 -0.017846
  endloop
 endfacet
 facet normal 0.178852 0.490634 -0.852813
  outer loop
   vertex -0.01126 0.15285 -0.0174
   vertex -0.007966 0.150874 -0.017846
   vertex -0.016671 0.14739 -0.021676
  endloop
 endfacet
 facet normal 0.190226 0.481505 0.855551
  outer loop
   vertex -0.016671 0.14739 0.021676
   vertex -0.01126 0.15285 0.0174
   vertex -0.018746 0.151687 0.019719
  endloop
 endfacet
 facet normal -0.163424 0.342456 0.925212
  outer loop
   vertex -0.027877 0.141629 0.021829
   vertex -0.016671 0.14739 0.021676
   vertex -0.018746 0.151687 0.019719
  endloop
 endfacet
 facet normal -0.69696 -0.53711 0.475141
  outer loop
   vertex -0.035324 0.145181 0.006542
   vertex -0.032416 0.135623 3e-06
   vertex -0.030485 0.137628 0.005102
  endloop
 endfacet
 facet normal -0.84501 -0.511876 -0.154725
  outer loop
   vertex -0.035324 0.145181 0.006542
   vertex -0.030485 0.137628 0.005102
   vertex -0.032001 0.138742 0.009696
  endloop
 endfacet
 facet normal -0.967451 -0.240513 -0.0786857
  outer loop
   vertex -0.032416 0.135623 3e-06
   vertex -0.035324 0.145181 0.006542
   vertex -0.03485 0.145413 5e-06
  endloop
 endfacet
 facet normal -0.967453 -0.240545 0.0785668
  outer loop
   vertex -0.03485 0.145413 5e-06
   vertex -0.035324 0.145181 -0.006542
   vertex -0.032416 0.135623 3e-06
  endloop
 endfacet
 facet normal -0.697203 -0.537183 -0.474703
  outer loop
   vertex -0.030485 0.137628 -0.005102
   vertex -0.032416 0.135623 3e-06
   vertex -0.035324 0.145181 -0.006542
  endloop
 endfacet
 facet normal -0.84501 -0.511876 0.154725
  outer loop
   vertex -0.032001 0.138742 -0.009696
   vertex -0.030485 0.137628 -0.005102
   vertex -0.035324 0.145181 -0.006542
  endloop
 endfacet
 facet normal 0.0406287 0.169681 0.984661
  outer loop
   vertex -0.027877 0.141629 0.021829
   vertex -0.018746 0.151687 0.019719
   vertex -0.027068 0.148219 0.02066
  endloop
 endfacet
 facet normal -0.951882 0.162902 0.259583
  outer loop
   vertex -0.027068 0.148219 0.02066
   vertex -0.030773 0.133377 0.016388
   vertex -0.027877 0.141629 0.021829
  endloop
 endfacet
 facet normal 0.00357722 -0.277425 0.960741
  outer loop
   vertex -0.027068 0.148219 0.02066
   vertex -0.033622 0.144242 0.019536
   vertex -0.030773 0.133377 0.016388
  endloop
 endfacet
 facet normal -0.72033 -0.599679 -0.348582
  outer loop
   vertex -0.032001 0.138742 0.009696
   vertex -0.030773 0.133377 0.016388
   vertex -0.037377 0.14502 0.010005
  endloop
 endfacet
 facet normal -0.888177 -0.326558 0.323266
  outer loop
   vertex -0.030773 0.133377 0.016388
   vertex -0.033622 0.144242 0.019536
   vertex -0.037377 0.14502 0.010005
  endloop
 endfacet
 facet normal -0.693463 -0.572285 -0.437719
  outer loop
   vertex -0.035324 0.145181 0.006542
   vertex -0.032001 0.138742 0.009696
   vertex -0.037377 0.14502 0.010005
  endloop
 endfacet
 facet normal 0.190226 0.481505 -0.855551
  outer loop
   vertex -0.018746 0.151687 -0.019719
   vertex -0.01126 0.15285 -0.0174
   vertex -0.016671 0.14739 -0.021676
  endloop
 endfacet
 facet normal -0.163424 0.342456 -0.925212
  outer loop
   vertex -0.018746 0.151687 -0.019719
   vertex -0.016671 0.14739 -0.021676
   vertex -0.027877 0.141629 -0.021829
  endloop
 endfacet
 facet normal 0.00357722 -0.277425 -0.960741
  outer loop
   vertex -0.030773 0.133377 -0.016388
   vertex -0.033622 0.144242 -0.019536
   vertex -0.027068 0.148219 -0.02066
  endloop
 endfacet
 facet normal -0.951882 0.162902 -0.259583
  outer loop
   vertex -0.027877 0.141629 -0.021829
   vertex -0.030773 0.133377 -0.016388
   vertex -0.027068 0.148219 -0.02066
  endloop
 endfacet
 facet normal -0.72033 -0.599679 0.348582
  outer loop
   vertex -0.037377 0.14502 -0.010005
   vertex -0.030773 0.133377 -0.016388
   vertex -0.032001 0.138742 -0.009696
  endloop
 endfacet
 facet normal -0.888177 -0.326558 -0.323266
  outer loop
   vertex -0.037377 0.14502 -0.010005
   vertex -0.033622 0.144242 -0.019536
   vertex -0.030773 0.133377 -0.016388
  endloop
 endfacet
 facet normal 0.0406287 0.169681 -0.984661
  outer loop
   vertex -0.027068 0.148219 -0.02066
   vertex -0.018746 0.151687 -0.019719
   vertex -0.027877 0.141629 -0.021829
  endloop
 endfacet
 facet normal -0.693463 -0.572285 0.437719
  outer loop
   vertex -0.037377 0.14502 -0.010005
   vertex -0.032001 0.138742 -0.009696
   vertex -0.035324 0.145181 -0.006542
  endloop
 endfacet
 facet normal 0.963005 0.237284 0.127743
  outer loop
   vertex -0.008336 0.168711 3.1e-05
   vertex -0.008212 0.162723 0.010219
   vertex -0.007283 0.164438 3e-05
  endloop
 endfacet
 facet normal 0.963082 0.237362 -0.127015
  outer loop
   vertex -0.007283 0.164438 3e-05
   vertex -0.008212 0.162723 -0.010219
   vertex -0.008336 0.168711 3.1e-05
  endloop
 endfacet
 facet normal 0.994228 0.0973456 0.045114
  outer loop
   vertex -0.008336 0.168711 3.1e-05
   vertex -0.008783 0.168052 0.011304
   vertex -0.008212 0.162723 0.010219
  endloop
 endfacet
 facet normal 0.79966 -0.0363467 0.599352
  outer loop
   vertex -0.014177 0.160933 0.018069
   vertex -0.008212 0.162723 0.010219
   vertex -0.008783 0.168052 0.011304
  endloop
 endfacet
 facet normal 0.751913 0.219911 0.621503
  outer loop
   vertex -0.01126 0.15285 0.0174
   vertex -0.008212 0.162723 0.010219
   vertex -0.014177 0.160933 0.018069
  endloop
 endfacet
 facet normal 0.292076 0.0262773 0.956034
  outer loop
   vertex -0.018746 0.151687 0.019719
   vertex -0.01126 0.15285 0.0174
   vertex -0.014177 0.160933 0.018069
  endloop
 endfacet
 facet normal 0.994234 0.0973959 -0.0448704
  outer loop
   vertex -0.008212 0.162723 -0.010219
   vertex -0.008783 0.168052 -0.011304
   vertex -0.008336 0.168711 3.1e-05
  endloop
 endfacet
 facet normal 0.79966 -0.0363467 -0.599352
  outer loop
   vertex -0.008783 0.168052 -0.011304
   vertex -0.008212 0.162723 -0.010219
   vertex -0.014177 0.160933 -0.018069
  endloop
 endfacet
 facet normal 0.751913 0.219911 -0.621503
  outer loop
   vertex -0.014177 0.160933 -0.018069
   vertex -0.008212 0.162723 -0.010219
   vertex -0.01126 0.15285 -0.0174
  endloop
 endfacet
 facet normal 0.292076 0.0262773 -0.956034
  outer loop
   vertex -0.014177 0.160933 -0.018069
   vertex -0.01126 0.15285 -0.0174
   vertex -0.018746 0.151687 -0.019719
  endloop
 endfacet
 facet normal 0.334756 0.00273608 0.942301
  outer loop
   vertex -0.018746 0.151687 0.019719
   vertex -0.014177 0.160933 0.018069
   vertex -0.01906 0.159109 0.019809
  endloop
 endfacet
 facet normal 0.115303 -0.00716672 0.993304
  outer loop
   vertex -0.027068 0.148219 0.02066
   vertex -0.018746 0.151687 0.019719
   vertex -0.01906 0.159109 0.019809
  endloop
 endfacet
 facet normal -0.920499 -0.382402 -0.0803168
  outer loop
   vertex -0.03485 0.145413 5e-06
   vertex -0.035324 0.145181 0.006542
   vertex -0.039042 0.154085 0.00676
  endloop
 endfacet
 facet normal -0.807573 -0.325168 -0.492028
  outer loop
   vertex -0.035324 0.145181 0.006542
   vertex -0.04116 0.153745 0.010461
   vertex -0.039042 0.154085 0.00676
  endloop
 endfacet
 facet normal -0.80707 -0.324137 -0.493532
  outer loop
   vertex -0.035324 0.145181 0.006542
   vertex -0.037377 0.14502 0.010005
   vertex -0.04116 0.153745 0.010461
  endloop
 endfacet
 facet normal -0.926305 -0.359211 -0.113693
  outer loop
   vertex -0.03485 0.145413 5e-06
   vertex -0.039042 0.154085 0.00676
   vertex -0.038368 0.154484 8e-06
  endloop
 endfacet
 facet normal -0.920507 -0.382408 0.0801949
  outer loop
   vertex -0.039042 0.154085 -0.00676
   vertex -0.035324 0.145181 -0.006542
   vertex -0.03485 0.145413 5e-06
  endloop
 endfacet
 facet normal -0.926308 -0.359287 0.113429
  outer loop
   vertex -0.038368 0.154484 8e-06
   vertex -0.039042 0.154085 -0.00676
   vertex -0.03485 0.145413 5e-06
  endloop
 endfacet
 facet normal -0.807573 -0.325168 0.492028
  outer loop
   vertex -0.039042 0.154085 -0.00676
   vertex -0.04116 0.153745 -0.010461
   vertex -0.035324 0.145181 -0.006542
  endloop
 endfacet
 facet normal -0.80707 -0.324137 0.493532
  outer loop
   vertex -0.04116 0.153745 -0.010461
   vertex -0.037377 0.14502 -0.010005
   vertex -0.035324 0.145181 -0.006542
  endloop
 endfacet
 facet normal 0.0959491 0.007226 0.99536
  outer loop
   vertex -0.027068 0.148219 0.02066
   vertex -0.01906 0.159109 0.019809
   vertex -0.029121 0.154955 0.020809
  endloop
 endfacet
 facet normal -0.131977 -0.0621075 0.989305
  outer loop
   vertex -0.029121 0.154955 0.020809
   vertex -0.033622 0.144242 0.019536
   vertex -0.027068 0.148219 0.02066
  endloop
 endfacet
 facet normal 0.105991 -0.161128 0.981226
  outer loop
   vertex -0.029121 0.154955 0.020809
   vertex -0.034199 0.154081 0.021214
   vertex -0.033622 0.144242 0.019536
  endloop
 endfacet
 facet normal 0.130423 -0.722532 0.678923
  outer loop
   vertex -0.039444 0.141371 0.017599
   vertex -0.033622 0.144242 0.019536
   vertex -0.037787 0.145408 0.021577
  endloop
 endfacet
 facet normal 0.279609 -0.468333 0.838142
  outer loop
   vertex -0.040545 0.151319 0.0258
   vertex -0.037787 0.145408 0.021577
   vertex -0.033622 0.144242 0.019536
  endloop
 endfacet
 facet normal 0.610618 -0.0982079 0.785812
  outer loop
   vertex -0.040545 0.151319 0.0258
   vertex -0.033622 0.144242 0.019536
   vertex -0.034199 0.154081 0.021214
  endloop
 endfacet
 facet normal 0.495658 -0.827788 -0.262848
  outer loop
   vertex -0.033622 0.144242 0.019536
   vertex -0.039444 0.141371 0.017599
   vertex -0.037377 0.14502 0.010005
  endloop
 endfacet
 facet normal 0.611808 0.303446 -0.730487
  outer loop
   vertex -0.04116 0.153745 0.010461
   vertex -0.037377 0.14502 0.010005
   vertex -0.045899 0.147361 0.00384
  endloop
 endfacet
 facet normal 0.0551746 -0.90575 -0.420205
  outer loop
   vertex -0.045899 0.147361 0.00384
   vertex -0.037377 0.14502 0.010005
   vertex -0.039444 0.141371 0.017599
  endloop
 endfacet
 facet normal 0.334756 0.00273608 -0.942301
  outer loop
   vertex -0.01906 0.159109 -0.019809
   vertex -0.014177 0.160933 -0.018069
   vertex -0.018746 0.151687 -0.019719
  endloop
 endfacet
 facet normal 0.115303 -0.00716672 -0.993304
  outer loop
   vertex -0.01906 0.159109 -0.019809
   vertex -0.018746 0.151687 -0.019719
   vertex -0.027068 0.148219 -0.02066
  endloop
 endfacet
 facet normal 0.105991 -0.161128 -0.981226
  outer loop
   vertex -0.033622 0.144242 -0.019536
   vertex -0.034199 0.154081 -0.021214
   vertex -0.029121 0.154955 -0.020809
  endloop
 endfacet
 facet normal -0.131977 -0.0621075 -0.989305
  outer loop
   vertex -0.027068 0.148219 -0.02066
   vertex -0.033622 0.144242 -0.019536
   vertex -0.029121 0.154955 -0.020809
  endloop
 endfacet
 facet normal 0.130423 -0.722532 -0.678923
  outer loop
   vertex -0.037787 0.145408 -0.021577
   vertex -0.033622 0.144242 -0.019536
   vertex -0.039444 0.141371 -0.017599
  endloop
 endfacet
 facet normal 0.279609 -0.468333 -0.838142
  outer loop
   vertex -0.033622 0.144242 -0.019536
   vertex -0.037787 0.145408 -0.021577
   vertex -0.040545 0.151319 -0.0258
  endloop
 endfacet
 facet normal 0.610618 -0.0982079 -0.785812
  outer loop
   vertex -0.034199 0.154081 -0.021214
   vertex -0.033622 0.144242 -0.019536
   vertex -0.040545 0.151319 -0.0258
  endloop
 endfacet
 facet normal 0.495658 -0.827788 0.262848
  outer loop
   vertex -0.037377 0.14502 -0.010005
   vertex -0.039444 0.141371 -0.017599
   vertex -0.033622 0.144242 -0.019536
  endloop
 endfacet
 facet normal 0.0959491 0.007226 -0.99536
  outer loop
   vertex -0.029121 0.154955 -0.020809
   vertex -0.01906 0.159109 -0.019809
   vertex -0.027068 0.148219 -0.02066
  endloop
 endfacet
 facet normal 0.611808 0.303446 0.730487
  outer loop
   vertex -0.045899 0.147361 -0.00384
   vertex -0.037377 0.14502 -0.010005
   vertex -0.04116 0.153745 -0.010461
  endloop
 endfacet
 facet normal 0.0551746 -0.90575 0.420205
  outer loop
   vertex -0.039444 0.141371 -0.017599
   vertex -0.037377 0.14502 -0.010005
   vertex -0.045899 0.147361 -0.00384
  endloop
 endfacet
 facet normal 0.919067 0.389627 0.0592201
  outer loop
   vertex -0.010237 0.173195 3.2e-05
   vertex -0.008783 0.168052 0.011304
   vertex -0.008336 0.168711 3.1e-05
  endloop
 endfacet
 facet normal 0.919075 0.389657 -0.0588982
  outer loop
   vertex -0.008336 0.168711 3.1e-05
   vertex -0.008783 0.168052 -0.011304
   vertex -0.010237 0.173195 3.2e-05
  endloop
 endfacet
 facet normal 0.900981 0.426703 0.0784692
  outer loop
   vertex -0.010237 0.173195 3.2e-05
   vertex -0.010963 0.172617 0.011511
   vertex -0.008783 0.168052 0.011304
  endloop
 endfacet
 facet normal 0.745885 0.329958 0.578605
  outer loop
   vertex -0.013755 0.165575 0.019126
   vertex -0.008783 0.168052 0.011304
   vertex -0.010963 0.172617 0.011511
  endloop
 endfacet
 facet normal 0.85476 -0.187875 0.483828
  outer loop
   vertex -0.014177 0.160933 0.018069
   vertex -0.008783 0.168052 0.011304
   vertex -0.013755 0.165575 0.019126
  endloop
 endfacet
 facet normal 0.403658 -0.237861 0.883449
  outer loop
   vertex -0.01906 0.159109 0.019809
   vertex -0.014177 0.160933 0.018069
   vertex -0.013755 0.165575 0.019126
  endloop
 endfacet
 facet normal 0.901004 0.426733 -0.0780371
  outer loop
   vertex -0.008783 0.168052 -0.011304
   vertex -0.010963 0.172617 -0.011511
   vertex -0.010237 0.173195 3.2e-05
  endloop
 endfacet
 facet normal 0.745885 0.329958 -0.578605
  outer loop
   vertex -0.010963 0.172617 -0.011511
   vertex -0.008783 0.168052 -0.011304
   vertex -0.013755 0.165575 -0.019126
  endloop
 endfacet
 facet normal 0.85476 -0.187875 -0.483828
  outer loop
   vertex -0.013755 0.165575 -0.019126
   vertex -0.008783 0.168052 -0.011304
   vertex -0.014177 0.160933 -0.018069
  endloop
 endfacet
 facet normal 0.403658 -0.237861 -0.883449
  outer loop
   vertex -0.013755 0.165575 -0.019126
   vertex -0.014177 0.160933 -0.018069
   vertex -0.01906 0.159109 -0.019809
  endloop
 endfacet
 facet normal 0.546278 -0.36875 0.752066
  outer loop
   vertex -0.01906 0.159109 0.019809
   vertex -0.013755 0.165575 0.019126
   vertex -0.019587 0.162599 0.021903
  endloop
 endfacet
 facet normal 0.275175 -0.46374 0.842154
  outer loop
   vertex -0.029121 0.154955 0.020809
   vertex -0.01906 0.159109 0.019809
   vertex -0.019587 0.162599 0.021903
  endloop
 endfacet
 facet normal -0.910337 -0.39775 -0.114377
  outer loop
   vertex -0.038368 0.154484 8e-06
   vertex -0.039042 0.154085 0.00676
   vertex -0.042427 0.161298 0.008618
  endloop
 endfacet
 facet normal -0.854295 -0.136806 -0.501462
  outer loop
   vertex -0.039042 0.154085 0.00676
   vertex -0.04116 0.153745 0.010461
   vertex -0.042492 0.159233 0.011233
  endloop
 endfacet
 facet normal -0.892312 -0.343225 -0.293216
  outer loop
   vertex -0.039042 0.154085 0.00676
   vertex -0.042492 0.159233 0.011233
   vertex -0.042427 0.161298 0.008618
  endloop
 endfacet
 facet normal 0.650225 0.258322 -0.714477
  outer loop
   vertex -0.045899 0.147361 0.00384
   vertex -0.042492 0.159233 0.011233
   vertex -0.04116 0.153745 0.010461
  endloop
 endfacet
 facet normal -0.932973 -0.29481 -0.206516
  outer loop
   vertex -0.038368 0.154484 8e-06
   vertex -0.042427 0.161298 0.008618
   vertex -0.040431 0.161012 9e-06
  endloop
 endfacet
 facet normal -0.910339 -0.39782 0.114111
  outer loop
   vertex -0.042427 0.161298 -0.008618
   vertex -0.039042 0.154085 -0.00676
   vertex -0.038368 0.154484 8e-06
  endloop
 endfacet
 facet normal -0.933039 -0.294894 0.206097
  outer loop
   vertex -0.040431 0.161012 9e-06
   vertex -0.042427 0.161298 -0.008618
   vertex -0.038368 0.154484 8e-06
  endloop
 endfacet
 facet normal -0.854295 -0.136806 0.501462
  outer loop
   vertex -0.042492 0.159233 -0.011233
   vertex -0.04116 0.153745 -0.010461
   vertex -0.039042 0.154085 -0.00676
  endloop
 endfacet
 facet normal -0.892312 -0.343225 0.293216
  outer loop
   vertex -0.042427 0.161298 -0.008618
   vertex -0.042492 0.159233 -0.011233
   vertex -0.039042 0.154085 -0.00676
  endloop
 endfacet
 facet normal 0.650225 0.258322 0.714477
  outer loop
   vertex -0.04116 0.153745 -0.010461
   vertex -0.042492 0.159233 -0.011233
   vertex -0.045899 0.147361 -0.00384
  endloop
 endfacet
 facet normal 0.20593 -0.385569 0.899405
  outer loop
   vertex -0.029121 0.154955 0.020809
   vertex -0.019587 0.162599 0.021903
   vertex -0.028644 0.160225 0.022959
  endloop
 endfacet
 facet normal 0.13901 -0.384836 0.912457
  outer loop
   vertex -0.028644 0.160225 0.022959
   vertex -0.034199 0.154081 0.021214
   vertex -0.029121 0.154955 0.020809
  endloop
 endfacet
 facet normal -0.280608 -0.0188462 0.959638
  outer loop
   vertex -0.028644 0.160225 0.022959
   vertex -0.036915 0.158164 0.0205
   vertex -0.034199 0.154081 0.021214
  endloop
 endfacet
 facet normal 0.171667 0.720731 0.671623
  outer loop
   vertex -0.043605 0.156942 0.020548
   vertex -0.040545 0.151319 0.0258
   vertex -0.034199 0.154081 0.021214
  endloop
 endfacet
 facet normal -0.021801 0.158128 0.987178
  outer loop
   vertex -0.043605 0.156942 0.020548
   vertex -0.034199 0.154081 0.021214
   vertex -0.036915 0.158164 0.0205
  endloop
 endfacet
 facet normal -0.527998 -0.825311 0.200199
  outer loop
   vertex -0.050434 0.14991 0.023816
   vertex -0.047068 0.146273 0.0177
   vertex -0.039444 0.141371 0.017599
  endloop
 endfacet
 facet normal -0.69291 -0.577065 -0.432286
  outer loop
   vertex -0.050434 0.14991 0.023816
   vertex -0.039444 0.141371 0.017599
   vertex -0.043982 0.14092 0.025475
  endloop
 endfacet
 facet normal -0.228212 -0.634229 0.738696
  outer loop
   vertex -0.039444 0.141371 0.017599
   vertex -0.037787 0.145408 0.021577
   vertex -0.040545 0.151319 0.0258
  endloop
 endfacet
 facet normal 0.836108 -0.29088 0.465093
  outer loop
   vertex -0.039444 0.141371 0.017599
   vertex -0.040545 0.151319 0.0258
   vertex -0.043982 0.14092 0.025475
  endloop
 endfacet
 facet normal -0.487563 -0.766896 0.417317
  outer loop
   vertex -0.039444 0.141371 0.017599
   vertex -0.047068 0.146273 0.0177
   vertex -0.039736 0.137883 0.010848
  endloop
 endfacet
 facet normal 0.885469 0.396124 -0.242962
  outer loop
   vertex -0.039444 0.141371 0.017599
   vertex -0.039736 0.137883 0.010848
   vertex -0.045899 0.147361 0.00384
  endloop
 endfacet
 facet normal -0.261651 -0.224624 0.93866
  outer loop
   vertex -0.040545 0.151319 0.0258
   vertex -0.044774 0.150821 0.024502
   vertex -0.045832 0.142743 0.022274
  endloop
 endfacet
 facet normal -0.775937 0.238202 0.584108
  outer loop
   vertex -0.040545 0.151319 0.0258
   vertex -0.045832 0.142743 0.022274
   vertex -0.043982 0.14092 0.025475
  endloop
 endfacet
 facet normal -0.302912 0.557261 0.773113
  outer loop
   vertex -0.043605 0.156942 0.020548
   vertex -0.044774 0.150821 0.024502
   vertex -0.040545 0.151319 0.0258
  endloop
 endfacet
 facet normal 0.866623 0.20431 -0.455217
  outer loop
   vertex -0.046486 0.141304 4e-06
   vertex -0.045899 0.147361 0.00384
   vertex -0.039707 0.124278 0.005268
  endloop
 endfacet
 facet normal 0.314013 0.486073 -0.815555
  outer loop
   vertex -0.045899 0.147361 0.00384
   vertex -0.046486 0.141304 4e-06
   vertex -0.055285 0.14699 5e-06
  endloop
 endfacet
 facet normal 0.240527 0.713817 -0.657733
  outer loop
   vertex -0.045899 0.147361 0.00384
   vertex -0.055285 0.14699 5e-06
   vertex -0.050362 0.152651 0.007949
  endloop
 endfacet
 facet normal 0.853631 0.199212 -0.481278
  outer loop
   vertex -0.039736 0.137883 0.010848
   vertex -0.039707 0.124278 0.005268
   vertex -0.045899 0.147361 0.00384
  endloop
 endfacet
 facet normal -0.112874 0.548371 -0.828582
  outer loop
   vertex -0.045899 0.147361 0.00384
   vertex -0.050362 0.152651 0.007949
   vertex -0.042492 0.159233 0.011233
  endloop
 endfacet
 facet normal 0.546278 -0.36875 -0.752066
  outer loop
   vertex -0.019587 0.162599 -0.021903
   vertex -0.013755 0.165575 -0.019126
   vertex -0.01906 0.159109 -0.019809
  endloop
 endfacet
 facet normal 0.275175 -0.46374 -0.842154
  outer loop
   vertex -0.019587 0.162599 -0.021903
   vertex -0.01906 0.159109 -0.019809
   vertex -0.029121 0.154955 -0.020809
  endloop
 endfacet
 facet normal -0.280608 -0.0188462 -0.959638
  outer loop
   vertex -0.034199 0.154081 -0.021214
   vertex -0.036915 0.158164 -0.0205
   vertex -0.028644 0.160225 -0.022959
  endloop
 endfacet
 facet normal 0.13901 -0.384836 -0.912457
  outer loop
   vertex -0.029121 0.154955 -0.020809
   vertex -0.034199 0.154081 -0.021214
   vertex -0.028644 0.160225 -0.022959
  endloop
 endfacet
 facet normal 0.171667 0.720731 -0.671623
  outer loop
   vertex -0.034199 0.154081 -0.021214
   vertex -0.040545 0.151319 -0.0258
   vertex -0.043605 0.156942 -0.020548
  endloop
 endfacet
 facet normal -0.021801 0.158128 -0.987178
  outer loop
   vertex -0.036915 0.158164 -0.0205
   vertex -0.034199 0.154081 -0.021214
   vertex -0.043605 0.156942 -0.020548
  endloop
 endfacet
 facet normal 0.20593 -0.385569 -0.899405
  outer loop
   vertex -0.028644 0.160225 -0.022959
   vertex -0.019587 0.162599 -0.021903
   vertex -0.029121 0.154955 -0.020809
  endloop
 endfacet
 facet normal -0.228212 -0.634229 -0.738696
  outer loop
   vertex -0.040545 0.151319 -0.0258
   vertex -0.037787 0.145408 -0.021577
   vertex -0.039444 0.141371 -0.017599
  endloop
 endfacet
 facet normal -0.527998 -0.825311 -0.200199
  outer loop
   vertex -0.039444 0.141371 -0.017599
   vertex -0.047068 0.146273 -0.0177
   vertex -0.050434 0.14991 -0.023816
  endloop
 endfacet
 facet normal -0.69291 -0.577065 0.432286
  outer loop
   vertex -0.043982 0.14092 -0.025475
   vertex -0.039444 0.141371 -0.017599
   vertex -0.050434 0.14991 -0.023816
  endloop
 endfacet
 facet normal 0.836108 -0.29088 -0.465093
  outer loop
   vertex -0.043982 0.14092 -0.025475
   vertex -0.040545 0.151319 -0.0258
   vertex -0.039444 0.141371 -0.017599
  endloop
 endfacet
 facet normal -0.487563 -0.766896 -0.417317
  outer loop
   vertex -0.039736 0.137883 -0.010848
   vertex -0.047068 0.146273 -0.0177
   vertex -0.039444 0.141371 -0.017599
  endloop
 endfacet
 facet normal 0.885469 0.396124 0.242962
  outer loop
   vertex -0.045899 0.147361 -0.00384
   vertex -0.039736 0.137883 -0.010848
   vertex -0.039444 0.141371 -0.017599
  endloop
 endfacet
 facet normal -0.261651 -0.224624 -0.93866
  outer loop
   vertex -0.045832 0.142743 -0.022274
   vertex -0.044774 0.150821 -0.024502
   vertex -0.040545 0.151319 -0.0258
  endloop
 endfacet
 facet normal -0.775937 0.238202 -0.584108
  outer loop
   vertex -0.043982 0.14092 -0.025475
   vertex -0.045832 0.142743 -0.022274
   vertex -0.040545 0.151319 -0.0258
  endloop
 endfacet
 facet normal -0.302912 0.557261 -0.773113
  outer loop
   vertex -0.040545 0.151319 -0.0258
   vertex -0.044774 0.150821 -0.024502
   vertex -0.043605 0.156942 -0.020548
  endloop
 endfacet
 facet normal 0.866954 0.204441 0.454527
  outer loop
   vertex -0.039707 0.124278 -0.005268
   vertex -0.045899 0.147361 -0.00384
   vertex -0.046486 0.141304 4e-06
  endloop
 endfacet
 facet normal 0.314607 0.486707 0.814947
  outer loop
   vertex -0.055285 0.14699 5e-06
   vertex -0.046486 0.141304 4e-06
   vertex -0.045899 0.147361 -0.00384
  endloop
 endfacet
 facet normal 0.241067 0.713981 0.657357
  outer loop
   vertex -0.050362 0.152651 -0.007949
   vertex -0.055285 0.14699 5e-06
   vertex -0.045899 0.147361 -0.00384
  endloop
 endfacet
 facet normal 0.853631 0.199212 0.481278
  outer loop
   vertex -0.045899 0.147361 -0.00384
   vertex -0.039707 0.124278 -0.005268
   vertex -0.039736 0.137883 -0.010848
  endloop
 endfacet
 facet normal -0.112874 0.548371 0.828582
  outer loop
   vertex -0.042492 0.159233 -0.011233
   vertex -0.050362 0.152651 -0.007949
   vertex -0.045899 0.147361 -0.00384
  endloop
 endfacet
 facet normal -0.359731 0.932742 0.0242147
  outer loop
   vertex -0.010963 0.172617 0.011511
   vertex -0.010237 0.173195 3.2e-05
   vertex -0.025355 0.167365 1e-05
  endloop
 endfacet
 facet normal -0.359671 0.932768 -0.0240855
  outer loop
   vertex -0.025355 0.167365 1e-05
   vertex -0.010237 0.173195 3.2e-05
   vertex -0.010963 0.172617 -0.011511
  endloop
 endfacet
 facet normal 0.772368 0.299488 0.560138
  outer loop
   vertex -0.013755 0.165575 0.019126
   vertex -0.010963 0.172617 0.011511
   vertex -0.015829 0.17043 0.01939
  endloop
 endfacet
 facet normal -0.365457 0.93026 0.0325124
  outer loop
   vertex -0.015829 0.17043 0.01939
   vertex -0.010963 0.172617 0.011511
   vertex -0.025355 0.167365 1e-05
  endloop
 endfacet
 facet normal 0.403954 0.0601437 0.9128
  outer loop
   vertex -0.022764 0.16788 0.022961
   vertex -0.019587 0.162599 0.021903
   vertex -0.013755 0.165575 0.019126
  endloop
 endfacet
 facet normal 0.416133 0.128821 0.900133
  outer loop
   vertex -0.022764 0.16788 0.022961
   vertex -0.013755 0.165575 0.019126
   vertex -0.015829 0.17043 0.01939
  endloop
 endfacet
 facet normal 0.772368 0.299488 -0.560138
  outer loop
   vertex -0.015829 0.17043 -0.01939
   vertex -0.010963 0.172617 -0.011511
   vertex -0.013755 0.165575 -0.019126
  endloop
 endfacet
 facet normal -0.365483 0.930251 -0.0324933
  outer loop
   vertex -0.025355 0.167365 1e-05
   vertex -0.010963 0.172617 -0.011511
   vertex -0.015829 0.17043 -0.01939
  endloop
 endfacet
 facet normal 0.403954 0.0601437 -0.9128
  outer loop
   vertex -0.013755 0.165575 -0.019126
   vertex -0.019587 0.162599 -0.021903
   vertex -0.022764 0.16788 -0.022961
  endloop
 endfacet
 facet normal 0.416133 0.128821 -0.900133
  outer loop
   vertex -0.015829 0.17043 -0.01939
   vertex -0.013755 0.165575 -0.019126
   vertex -0.022764 0.16788 -0.022961
  endloop
 endfacet
 facet normal 0.103586 0.0467496 0.993521
  outer loop
   vertex -0.031424 0.163367 0.023101
   vertex -0.028644 0.160225 0.022959
   vertex -0.019587 0.162599 0.021903
  endloop
 endfacet
 facet normal 0.0904684 -0.143026 0.985575
  outer loop
   vertex -0.031424 0.163367 0.023101
   vertex -0.019587 0.162599 0.021903
   vertex -0.022764 0.16788 0.022961
  endloop
 endfacet
 facet normal 0.424676 0.793614 0.435692
  outer loop
   vertex -0.052696 0.162478 0.016478
   vertex -0.044035 0.158915 0.014526
   vertex -0.042427 0.161298 0.008618
  endloop
 endfacet
 facet normal -0.226796 0.875021 -0.42767
  outer loop
   vertex -0.042427 0.161298 0.008618
   vertex -0.051445 0.159814 0.010364
   vertex -0.052696 0.162478 0.016478
  endloop
 endfacet
 facet normal -0.22671 0.28021 -0.932783
  outer loop
   vertex -0.042427 0.161298 0.008618
   vertex -0.050362 0.152651 0.007949
   vertex -0.051445 0.159814 0.010364
  endloop
 endfacet
 facet normal 0.676355 -0.586152 -0.446059
  outer loop
   vertex -0.050362 0.152651 0.007949
   vertex -0.042427 0.161298 0.008618
   vertex -0.042492 0.159233 0.011233
  endloop
 endfacet
 facet normal -0.385525 0.91489 -0.119779
  outer loop
   vertex -0.040431 0.161012 9e-06
   vertex -0.042427 0.161298 0.008618
   vertex -0.025355 0.167365 1e-05
  endloop
 endfacet
 facet normal -0.314001 0.948325 0.0456389
  outer loop
   vertex -0.042427 0.161298 0.008618
   vertex -0.040368 0.161546 0.017631
   vertex -0.025355 0.167365 1e-05
  endloop
 endfacet
 facet normal -0.647037 0.751785 0.127128
  outer loop
   vertex -0.044035 0.158915 0.014526
   vertex -0.040368 0.161546 0.017631
   vertex -0.042427 0.161298 0.008618
  endloop
 endfacet
 facet normal -0.38555 0.914911 0.119536
  outer loop
   vertex -0.025355 0.167365 1e-05
   vertex -0.042427 0.161298 -0.008618
   vertex -0.040431 0.161012 9e-06
  endloop
 endfacet
 facet normal 0.424676 0.793614 -0.435692
  outer loop
   vertex -0.042427 0.161298 -0.008618
   vertex -0.044035 0.158915 -0.014526
   vertex -0.052696 0.162478 -0.016478
  endloop
 endfacet
 facet normal -0.226796 0.875021 0.42767
  outer loop
   vertex -0.052696 0.162478 -0.016478
   vertex -0.051445 0.159814 -0.010364
   vertex -0.042427 0.161298 -0.008618
  endloop
 endfacet
 facet normal -0.22671 0.28021 0.932783
  outer loop
   vertex -0.051445 0.159814 -0.010364
   vertex -0.050362 0.152651 -0.007949
   vertex -0.042427 0.161298 -0.008618
  endloop
 endfacet
 facet normal 0.676355 -0.586152 0.446059
  outer loop
   vertex -0.042492 0.159233 -0.011233
   vertex -0.042427 0.161298 -0.008618
   vertex -0.050362 0.152651 -0.007949
  endloop
 endfacet
 facet normal -0.313958 0.94834 -0.0456287
  outer loop
   vertex -0.025355 0.167365 1e-05
   vertex -0.040368 0.161546 -0.017631
   vertex -0.042427 0.161298 -0.008618
  endloop
 endfacet
 facet normal -0.647037 0.751785 -0.127128
  outer loop
   vertex -0.042427 0.161298 -0.008618
   vertex -0.040368 0.161546 -0.017631
   vertex -0.044035 0.158915 -0.014526
  endloop
 endfacet
 facet normal -0.221585 -0.238785 0.945453
  outer loop
   vertex -0.031424 0.163367 0.023101
   vertex -0.036915 0.158164 0.0205
   vertex -0.028644 0.160225 0.022959
  endloop
 endfacet
 facet normal -0.10051 0.581955 0.806986
  outer loop
   vertex -0.040368 0.161546 0.017631
   vertex -0.043605 0.156942 0.020548
   vertex -0.036915 0.158164 0.0205
  endloop
 endfacet
 facet normal -0.538125 0.153617 0.828748
  outer loop
   vertex -0.031424 0.163367 0.023101
   vertex -0.040368 0.161546 0.017631
   vertex -0.036915 0.158164 0.0205
  endloop
 endfacet
 facet normal -0.700687 0.661696 0.266826
  outer loop
   vertex -0.040368 0.161546 0.017631
   vertex -0.044035 0.158915 0.014526
   vertex -0.043605 0.156942 0.020548
  endloop
 endfacet
 facet normal 0.0639699 0.532848 0.843789
  outer loop
   vertex -0.043605 0.156942 0.020548
   vertex -0.049098 0.155508 0.02187
   vertex -0.044774 0.150821 0.024502
  endloop
 endfacet
 facet normal 0.0200662 0.635042 0.772217
  outer loop
   vertex -0.049098 0.155508 0.02187
   vertex -0.043605 0.156942 0.020548
   vertex -0.049318 0.159073 0.018944
  endloop
 endfacet
 facet normal 0.264377 0.921911 0.28317
  outer loop
   vertex -0.049318 0.159073 0.018944
   vertex -0.043605 0.156942 0.020548
   vertex -0.044035 0.158915 0.014526
  endloop
 endfacet
 facet normal -0.775961 -0.456931 0.434855
  outer loop
   vertex -0.058578 0.159961 0.019845
   vertex -0.05619 0.150936 0.014623
   vertex -0.050434 0.14991 0.023816
  endloop
 endfacet
 facet normal -0.501976 -0.836174 0.22098
  outer loop
   vertex -0.05619 0.150936 0.014623
   vertex -0.047068 0.146273 0.0177
   vertex -0.050434 0.14991 0.023816
  endloop
 endfacet
 facet normal 0.160901 0.289594 0.943529
  outer loop
   vertex -0.050434 0.14991 0.023816
   vertex -0.043982 0.14092 0.025475
   vertex -0.049098 0.155508 0.02187
  endloop
 endfacet
 facet normal 0.0520268 0.316806 0.947063
  outer loop
   vertex -0.052542 0.155954 0.02191
   vertex -0.050434 0.14991 0.023816
   vertex -0.049098 0.155508 0.02187
  endloop
 endfacet
 facet normal -0.16511 0.243788 0.95567
  outer loop
   vertex -0.058578 0.159961 0.019845
   vertex -0.050434 0.14991 0.023816
   vertex -0.052542 0.155954 0.02191
  endloop
 endfacet
 facet normal -0.590807 0.0121844 0.806721
  outer loop
   vertex -0.05369 0.13504 0.01302
   vertex -0.049635 0.138397 0.015939
   vertex -0.047068 0.146273 0.0177
  endloop
 endfacet
 facet normal 0.0589271 0.627561 0.776334
  outer loop
   vertex -0.05619 0.150936 0.014623
   vertex -0.062138 0.14786 0.017561
   vertex -0.047068 0.146273 0.0177
  endloop
 endfacet
 facet normal 0.418922 -0.326025 0.847474
  outer loop
   vertex -0.047068 0.146273 0.0177
   vertex -0.049635 0.138397 0.015939
   vertex -0.039736 0.137883 0.010848
  endloop
 endfacet
 facet normal -0.561863 -0.0133781 0.827122
  outer loop
   vertex -0.047068 0.146273 0.0177
   vertex -0.053968 0.149065 0.013058
   vertex -0.05369 0.13504 0.01302
  endloop
 endfacet
 facet normal -0.091811 -0.90769 -0.409474
  outer loop
   vertex -0.047068 0.146273 0.0177
   vertex -0.062138 0.14786 0.017561
   vertex -0.053968 0.149065 0.013058
  endloop
 endfacet
 facet normal 0.893615 0.216188 -0.393339
  outer loop
   vertex -0.043982 0.14092 0.025475
   vertex -0.045832 0.142743 0.022274
   vertex -0.049098 0.155508 0.02187
  endloop
 endfacet
 facet normal 0.499885 -0.327741 0.801686
  outer loop
   vertex -0.039707 0.124278 0.005268
   vertex -0.039736 0.137883 0.010848
   vertex -0.041366 0.139088 0.012357
  endloop
 endfacet
 facet normal -0.566048 0.22681 -0.792557
  outer loop
   vertex -0.051883 0.131008 0.017556
   vertex -0.041366 0.139088 0.012357
   vertex -0.039736 0.137883 0.010848
  endloop
 endfacet
 facet normal 0.45891 0.0544522 0.886813
  outer loop
   vertex -0.051883 0.131008 0.017556
   vertex -0.039736 0.137883 0.010848
   vertex -0.049635 0.138397 0.015939
  endloop
 endfacet
 facet normal 0.274853 0.650937 0.707627
  outer loop
   vertex -0.049098 0.155508 0.02187
   vertex -0.048661 0.149638 0.0271
   vertex -0.044774 0.150821 0.024502
  endloop
 endfacet
 facet normal 0.591103 -0.285486 0.754384
  outer loop
   vertex -0.048661 0.149638 0.0271
   vertex -0.045832 0.142743 0.022274
   vertex -0.044774 0.150821 0.024502
  endloop
 endfacet
 facet normal -0.152486 -0.607947 0.779197
  outer loop
   vertex -0.048661 0.149638 0.0271
   vertex -0.049407 0.146767 0.024714
   vertex -0.045832 0.142743 0.022274
  endloop
 endfacet
 facet normal -0.77877 -0.39772 -0.485114
  outer loop
   vertex -0.049407 0.146767 0.024714
   vertex -0.053094 0.153562 0.025062
   vertex -0.045832 0.142743 0.022274
  endloop
 endfacet
 facet normal -0.563292 -0.169714 -0.80864
  outer loop
   vertex -0.045832 0.142743 0.022274
   vertex -0.053094 0.153562 0.025062
   vertex -0.049098 0.155508 0.02187
  endloop
 endfacet
 facet normal 0.776552 0.117829 -0.618938
  outer loop
   vertex -0.046486 0.141304 4e-06
   vertex -0.039707 0.124278 0.005268
   vertex -0.044776 0.130029 3e-06
  endloop
 endfacet
 facet normal 0.776843 0.117763 0.618585
  outer loop
   vertex -0.044776 0.130029 3e-06
   vertex -0.039707 0.124278 -0.005268
   vertex -0.046486 0.141304 4e-06
  endloop
 endfacet
 facet normal -0.701279 -0.706343 -0.0963707
  outer loop
   vertex -0.044776 0.130029 3e-06
   vertex -0.039707 0.124278 0.005268
   vertex -0.039 0.123353 0.006903
  endloop
 endfacet
 facet normal 0.933583 0.23435 -0.271112
  outer loop
   vertex -0.039707 0.124278 0.005268
   vertex -0.041366 0.139088 0.012357
   vertex -0.039 0.123353 0.006903
  endloop
 endfacet
 facet normal -0.933808 0.32558 0.148326
  outer loop
   vertex -0.060499 0.132036 4e-06
   vertex -0.056543 0.141058 0.005106
   vertex -0.055285 0.14699 5e-06
  endloop
 endfacet
 facet normal -0.541062 0.611345 0.577503
  outer loop
   vertex -0.055285 0.14699 5e-06
   vertex -0.056543 0.141058 0.005106
   vertex -0.052354 0.141513 0.008549
  endloop
 endfacet
 facet normal -0.958942 -0.0980395 0.266116
  outer loop
   vertex -0.055285 0.14699 5e-06
   vertex -0.052354 0.141513 0.008549
   vertex -0.052398 0.14782 0.010714
  endloop
 endfacet
 facet normal -0.858952 0.473529 0.194861
  outer loop
   vertex -0.052398 0.14782 0.010714
   vertex -0.050362 0.152651 0.007949
   vertex -0.055285 0.14699 5e-06
  endloop
 endfacet
 facet normal -0.933839 0.325611 -0.148064
  outer loop
   vertex -0.055285 0.14699 5e-06
   vertex -0.056543 0.141058 -0.005106
   vertex -0.060499 0.132036 4e-06
  endloop
 endfacet
 facet normal -0.540809 0.611932 -0.577117
  outer loop
   vertex -0.052354 0.141513 -0.008549
   vertex -0.056543 0.141058 -0.005106
   vertex -0.055285 0.14699 5e-06
  endloop
 endfacet
 facet normal -0.959016 -0.0979595 -0.265881
  outer loop
   vertex -0.052398 0.14782 -0.010714
   vertex -0.052354 0.141513 -0.008549
   vertex -0.055285 0.14699 5e-06
  endloop
 endfacet
 facet normal -0.859022 0.473468 -0.194703
  outer loop
   vertex -0.055285 0.14699 5e-06
   vertex -0.050362 0.152651 -0.007949
   vertex -0.052398 0.14782 -0.010714
  endloop
 endfacet
 facet normal -0.925392 0.209061 -0.316138
  outer loop
   vertex -0.052398 0.14782 0.010714
   vertex -0.051618 0.15275 0.011691
   vertex -0.050362 0.152651 0.007949
  endloop
 endfacet
 facet normal -0.947685 -0.0363647 -0.317128
  outer loop
   vertex -0.050362 0.152651 0.007949
   vertex -0.051618 0.15275 0.011691
   vertex -0.051445 0.159814 0.010364
  endloop
 endfacet
 facet normal 0.103586 0.0467496 -0.993521
  outer loop
   vertex -0.019587 0.162599 -0.021903
   vertex -0.028644 0.160225 -0.022959
   vertex -0.031424 0.163367 -0.023101
  endloop
 endfacet
 facet normal 0.0904684 -0.143026 -0.985575
  outer loop
   vertex -0.022764 0.16788 -0.022961
   vertex -0.019587 0.162599 -0.021903
   vertex -0.031424 0.163367 -0.023101
  endloop
 endfacet
 facet normal -0.221585 -0.238785 -0.945453
  outer loop
   vertex -0.028644 0.160225 -0.022959
   vertex -0.036915 0.158164 -0.0205
   vertex -0.031424 0.163367 -0.023101
  endloop
 endfacet
 facet normal -0.10051 0.581955 -0.806986
  outer loop
   vertex -0.036915 0.158164 -0.0205
   vertex -0.043605 0.156942 -0.020548
   vertex -0.040368 0.161546 -0.017631
  endloop
 endfacet
 facet normal -0.538125 0.153617 -0.828748
  outer loop
   vertex -0.036915 0.158164 -0.0205
   vertex -0.040368 0.161546 -0.017631
   vertex -0.031424 0.163367 -0.023101
  endloop
 endfacet
 facet normal -0.700687 0.661696 -0.266826
  outer loop
   vertex -0.043605 0.156942 -0.020548
   vertex -0.044035 0.158915 -0.014526
   vertex -0.040368 0.161546 -0.017631
  endloop
 endfacet
 facet normal 0.0639699 0.532848 -0.843789
  outer loop
   vertex -0.044774 0.150821 -0.024502
   vertex -0.049098 0.155508 -0.02187
   vertex -0.043605 0.156942 -0.020548
  endloop
 endfacet
 facet normal 0.0200662 0.635042 -0.772217
  outer loop
   vertex -0.049318 0.159073 -0.018944
   vertex -0.043605 0.156942 -0.020548
   vertex -0.049098 0.155508 -0.02187
  endloop
 endfacet
 facet normal 0.264377 0.921911 -0.28317
  outer loop
   vertex -0.044035 0.158915 -0.014526
   vertex -0.043605 0.156942 -0.020548
   vertex -0.049318 0.159073 -0.018944
  endloop
 endfacet
 facet normal -0.590807 0.0121844 -0.806721
  outer loop
   vertex -0.047068 0.146273 -0.0177
   vertex -0.049635 0.138397 -0.015939
   vertex -0.05369 0.13504 -0.01302
  endloop
 endfacet
 facet normal -0.501976 -0.836174 -0.22098
  outer loop
   vertex -0.050434 0.14991 -0.023816
   vertex -0.047068 0.146273 -0.0177
   vertex -0.05619 0.150936 -0.014623
  endloop
 endfacet
 facet normal 0.0589271 0.627561 -0.776334
  outer loop
   vertex -0.047068 0.146273 -0.0177
   vertex -0.062138 0.14786 -0.017561
   vertex -0.05619 0.150936 -0.014623
  endloop
 endfacet
 facet normal 0.418922 -0.326025 -0.847474
  outer loop
   vertex -0.039736 0.137883 -0.010848
   vertex -0.049635 0.138397 -0.015939
   vertex -0.047068 0.146273 -0.0177
  endloop
 endfacet
 facet normal -0.561863 -0.0133781 -0.827122
  outer loop
   vertex -0.05369 0.13504 -0.01302
   vertex -0.053968 0.149065 -0.013058
   vertex -0.047068 0.146273 -0.0177
  endloop
 endfacet
 facet normal -0.091811 -0.90769 0.409474
  outer loop
   vertex -0.053968 0.149065 -0.013058
   vertex -0.062138 0.14786 -0.017561
   vertex -0.047068 0.146273 -0.0177
  endloop
 endfacet
 facet normal -0.775975 -0.456894 -0.434868
  outer loop
   vertex -0.050434 0.14991 -0.023816
   vertex -0.05619 0.150936 -0.014623
   vertex -0.058578 0.159961 -0.019844
  endloop
 endfacet
 facet normal 0.160901 0.289594 -0.943529
  outer loop
   vertex -0.049098 0.155508 -0.02187
   vertex -0.043982 0.14092 -0.025475
   vertex -0.050434 0.14991 -0.023816
  endloop
 endfacet
 facet normal 0.0520268 0.316806 -0.947063
  outer loop
   vertex -0.049098 0.155508 -0.02187
   vertex -0.050434 0.14991 -0.023816
   vertex -0.052542 0.155954 -0.02191
  endloop
 endfacet
 facet normal -0.165313 0.243712 -0.955655
  outer loop
   vertex -0.052542 0.155954 -0.02191
   vertex -0.050434 0.14991 -0.023816
   vertex -0.058578 0.159961 -0.019844
  endloop
 endfacet
 facet normal 0.893615 0.216188 0.393339
  outer loop
   vertex -0.049098 0.155508 -0.02187
   vertex -0.045832 0.142743 -0.022274
   vertex -0.043982 0.14092 -0.025475
  endloop
 endfacet
 facet normal 0.499885 -0.327741 -0.801686
  outer loop
   vertex -0.041366 0.139088 -0.012357
   vertex -0.039736 0.137883 -0.010848
   vertex -0.039707 0.124278 -0.005268
  endloop
 endfacet
 facet normal -0.566048 0.22681 0.792557
  outer loop
   vertex -0.039736 0.137883 -0.010848
   vertex -0.041366 0.139088 -0.012357
   vertex -0.051883 0.131008 -0.017556
  endloop
 endfacet
 facet normal 0.45891 0.0544522 -0.886813
  outer loop
   vertex -0.049635 0.138397 -0.015939
   vertex -0.039736 0.137883 -0.010848
   vertex -0.051883 0.131008 -0.017556
  endloop
 endfacet
 facet normal -0.152486 -0.607947 -0.779197
  outer loop
   vertex -0.045832 0.142743 -0.022274
   vertex -0.049407 0.146767 -0.024714
   vertex -0.048661 0.149638 -0.0271
  endloop
 endfacet
 facet normal 0.591103 -0.285486 -0.754384
  outer loop
   vertex -0.044774 0.150821 -0.024502
   vertex -0.045832 0.142743 -0.022274
   vertex -0.048661 0.149638 -0.0271
  endloop
 endfacet
 facet normal -0.77877 -0.39772 0.485114
  outer loop
   vertex -0.045832 0.142743 -0.022274
   vertex -0.053094 0.153562 -0.025062
   vertex -0.049407 0.146767 -0.024714
  endloop
 endfacet
 facet normal -0.563292 -0.169714 0.80864
  outer loop
   vertex -0.049098 0.155508 -0.02187
   vertex -0.053094 0.153562 -0.025062
   vertex -0.045832 0.142743 -0.022274
  endloop
 endfacet
 facet normal 0.274853 0.650937 -0.707627
  outer loop
   vertex -0.044774 0.150821 -0.024502
   vertex -0.048661 0.149638 -0.0271
   vertex -0.049098 0.155508 -0.02187
  endloop
 endfacet
 facet normal -0.701167 -0.70644 0.0964735
  outer loop
   vertex -0.039 0.123353 -0.006903
   vertex -0.039707 0.124278 -0.005268
   vertex -0.044776 0.130029 3e-06
  endloop
 endfacet
 facet normal 0.933583 0.23435 0.271112
  outer loop
   vertex -0.039 0.123353 -0.006903
   vertex -0.041366 0.139088 -0.012357
   vertex -0.039707 0.124278 -0.005268
  endloop
 endfacet
 facet normal -0.925392 0.209061 0.316138
  outer loop
   vertex -0.050362 0.152651 -0.007949
   vertex -0.051618 0.15275 -0.011691
   vertex -0.052398 0.14782 -0.010714
  endloop
 endfacet
 facet normal -0.947685 -0.0363647 0.317128
  outer loop
   vertex -0.051445 0.159814 -0.010364
   vertex -0.051618 0.15275 -0.011691
   vertex -0.050362 0.152651 -0.007949
  endloop
 endfacet
 facet normal -0.337354 0.941225 0.0169646
  outer loop
   vertex -0.022764 0.16788 0.022961
   vertex -0.015829 0.17043 0.01939
   vertex -0.025355 0.167365 1e-05
  endloop
 endfacet
 facet normal -0.461493 0.886559 0.0322056
  outer loop
   vertex -0.031424 0.163367 0.023101
   vertex -0.022764 0.16788 0.022961
   vertex -0.025355 0.167365 1e-05
  endloop
 endfacet
 facet normal -0.256363 0.961488 0.0990932
  outer loop
   vertex -0.040368 0.161546 0.017631
   vertex -0.031424 0.163367 0.023101
   vertex -0.025355 0.167365 1e-05
  endloop
 endfacet
 facet normal -0.33736 0.941223 -0.0169506
  outer loop
   vertex -0.025355 0.167365 1e-05
   vertex -0.015829 0.17043 -0.01939
   vertex -0.022764 0.16788 -0.022961
  endloop
 endfacet
 facet normal -0.461494 0.88656 -0.0321777
  outer loop
   vertex -0.025355 0.167365 1e-05
   vertex -0.022764 0.16788 -0.022961
   vertex -0.031424 0.163367 -0.023101
  endloop
 endfacet
 facet normal -0.256322 0.961506 -0.0990212
  outer loop
   vertex -0.025355 0.167365 1e-05
   vertex -0.031424 0.163367 -0.023101
   vertex -0.040368 0.161546 -0.017631
  endloop
 endfacet
 facet normal 0.42411 0.768142 0.479676
  outer loop
   vertex -0.044035 0.158915 0.014526
   vertex -0.052696 0.162478 0.016478
   vertex -0.049318 0.159073 0.018944
  endloop
 endfacet
 facet normal 0.135243 0.665672 0.733887
  outer loop
   vertex -0.058578 0.159961 0.019845
   vertex -0.049318 0.159073 0.018944
   vertex -0.052696 0.162478 0.016478
  endloop
 endfacet
 facet normal -0.554969 0.703919 -0.443292
  outer loop
   vertex -0.062849 0.154571 0.016633
   vertex -0.058578 0.159961 0.019845
   vertex -0.052696 0.162478 0.016478
  endloop
 endfacet
 facet normal -0.328083 0.404542 -0.853644
  outer loop
   vertex -0.062849 0.154571 0.016633
   vertex -0.052696 0.162478 0.016478
   vertex -0.056641 0.154765 0.014339
  endloop
 endfacet
 facet normal -0.299808 0.394261 -0.86872
  outer loop
   vertex -0.052696 0.162478 0.016478
   vertex -0.051618 0.15275 0.011691
   vertex -0.056641 0.154765 0.014339
  endloop
 endfacet
 facet normal -0.980691 -0.0126429 -0.195153
  outer loop
   vertex -0.051618 0.15275 0.011691
   vertex -0.052696 0.162478 0.016478
   vertex -0.051445 0.159814 0.010364
  endloop
 endfacet
 facet normal 0.42411 0.768142 -0.479676
  outer loop
   vertex -0.049318 0.159073 -0.018944
   vertex -0.052696 0.162478 -0.016478
   vertex -0.044035 0.158915 -0.014526
  endloop
 endfacet
 facet normal 0.135165 0.665632 -0.733938
  outer loop
   vertex -0.052696 0.162478 -0.016478
   vertex -0.049318 0.159073 -0.018944
   vertex -0.058578 0.159961 -0.019844
  endloop
 endfacet
 facet normal -0.554937 0.703876 0.4434
  outer loop
   vertex -0.052696 0.162478 -0.016478
   vertex -0.058578 0.159961 -0.019844
   vertex -0.062849 0.154571 -0.016633
  endloop
 endfacet
 facet normal -0.328083 0.404542 0.853644
  outer loop
   vertex -0.056641 0.154765 -0.014339
   vertex -0.052696 0.162478 -0.016478
   vertex -0.062849 0.154571 -0.016633
  endloop
 endfacet
 facet normal -0.299808 0.394261 0.86872
  outer loop
   vertex -0.056641 0.154765 -0.014339
   vertex -0.051618 0.15275 -0.011691
   vertex -0.052696 0.162478 -0.016478
  endloop
 endfacet
 facet normal -0.980691 -0.0126429 0.195153
  outer loop
   vertex -0.051445 0.159814 -0.010364
   vertex -0.052696 0.162478 -0.016478
   vertex -0.051618 0.15275 -0.011691
  endloop
 endfacet
 facet normal 0.251194 0.65426 0.713334
  outer loop
   vertex -0.049098 0.155508 0.02187
   vertex -0.053094 0.153562 0.025062
   vertex -0.048661 0.149638 0.0271
  endloop
 endfacet
 facet normal 0.0911609 0.635143 0.766996
  outer loop
   vertex -0.049098 0.155508 0.02187
   vertex -0.049318 0.159073 0.018944
   vertex -0.052542 0.155954 0.02191
  endloop
 endfacet
 facet normal 0.134407 0.606367 0.783743
  outer loop
   vertex -0.058578 0.159961 0.019845
   vertex -0.052542 0.155954 0.02191
   vertex -0.049318 0.159073 0.018944
  endloop
 endfacet
 facet normal 0.844983 -0.0821824 0.528441
  outer loop
   vertex -0.058578 0.159961 0.019845
   vertex -0.060518 0.153794 0.021988
   vertex -0.05619 0.150936 0.014623
  endloop
 endfacet
 facet normal -0.817265 0.40093 0.413924
  outer loop
   vertex -0.060518 0.153794 0.021988
   vertex -0.058578 0.159961 0.019845
   vertex -0.062849 0.154571 0.016633
  endloop
 endfacet
 facet normal 0.250374 -0.843848 0.474588
  outer loop
   vertex -0.05619 0.150936 0.014623
   vertex -0.060518 0.153794 0.021988
   vertex -0.061408 0.150773 0.017086
  endloop
 endfacet
 facet normal 0.425459 0.0407974 0.904058
  outer loop
   vertex -0.062138 0.14786 0.017561
   vertex -0.05619 0.150936 0.014623
   vertex -0.061408 0.150773 0.017086
  endloop
 endfacet
 facet normal -0.720644 0.350191 0.598363
  outer loop
   vertex -0.051883 0.131008 0.017556
   vertex -0.049635 0.138397 0.015939
   vertex -0.05369 0.13504 0.01302
  endloop
 endfacet
 facet normal -0.761054 -0.12119 0.637267
  outer loop
   vertex -0.05369 0.13504 0.01302
   vertex -0.055135 0.131226 0.010569
   vertex -0.054691 0.125451 0.010001
  endloop
 endfacet
 facet normal -0.759956 -0.121688 0.638482
  outer loop
   vertex -0.05369 0.13504 0.01302
   vertex -0.054691 0.125451 0.010001
   vertex -0.048227 0.123411 0.017306
  endloop
 endfacet
 facet normal -0.901118 -0.432809 -0.0257422
  outer loop
   vertex -0.05369 0.13504 0.01302
   vertex -0.048227 0.123411 0.017306
   vertex -0.051883 0.131008 0.017556
  endloop
 endfacet
 facet normal -0.945549 0.187075 0.266346
  outer loop
   vertex -0.055135 0.131226 0.010569
   vertex -0.05369 0.13504 0.01302
   vertex -0.054365 0.137188 0.009115
  endloop
 endfacet
 facet normal -0.986978 -0.0199961 0.159605
  outer loop
   vertex -0.053968 0.149065 0.013058
   vertex -0.054365 0.137188 0.009115
   vertex -0.05369 0.13504 0.01302
  endloop
 endfacet
 facet normal 0.0686175 0.143784 0.987227
  outer loop
   vertex -0.062138 0.14786 0.017561
   vertex -0.061408 0.150773 0.017086
   vertex -0.062849 0.154571 0.016633
  endloop
 endfacet
 facet normal -0.337415 -0.16393 -0.926972
  outer loop
   vertex -0.062138 0.14786 0.017561
   vertex -0.062849 0.154571 0.016633
   vertex -0.056641 0.154765 0.014339
  endloop
 endfacet
 facet normal -0.480481 -0.0188487 -0.876803
  outer loop
   vertex -0.051618 0.15275 0.011691
   vertex -0.053968 0.149065 0.013058
   vertex -0.062138 0.14786 0.017561
  endloop
 endfacet
 facet normal -0.475901 -0.0312712 -0.878943
  outer loop
   vertex -0.051618 0.15275 0.011691
   vertex -0.062138 0.14786 0.017561
   vertex -0.056641 0.154765 0.014339
  endloop
 endfacet
 facet normal -0.742153 0.241333 -0.625274
  outer loop
   vertex -0.052398 0.14782 0.010714
   vertex -0.053968 0.149065 0.013058
   vertex -0.051618 0.15275 0.011691
  endloop
 endfacet
 facet normal -0.709432 0.243304 -0.661445
  outer loop
   vertex -0.054365 0.137188 0.009115
   vertex -0.053968 0.149065 0.013058
   vertex -0.052354 0.141513 0.008549
  endloop
 endfacet
 facet normal -0.758547 0.206823 -0.617925
  outer loop
   vertex -0.052354 0.141513 0.008549
   vertex -0.053968 0.149065 0.013058
   vertex -0.052398 0.14782 0.010714
  endloop
 endfacet
 facet normal 0.372286 0.108521 0.921752
  outer loop
   vertex -0.051883 0.131008 0.017556
   vertex -0.03935 0.120612 0.013718
   vertex -0.041366 0.139088 0.012357
  endloop
 endfacet
 facet normal 0.988613 0.11502 0.0970332
  outer loop
   vertex -0.041366 0.139088 0.012357
   vertex -0.03935 0.120612 0.013718
   vertex -0.039 0.123353 0.006903
  endloop
 endfacet
 facet normal 0.414944 0.170277 0.893772
  outer loop
   vertex -0.051883 0.131008 0.017556
   vertex -0.048227 0.123411 0.017306
   vertex -0.03935 0.120612 0.013718
  endloop
 endfacet
 facet normal -0.643735 -0.383218 0.662381
  outer loop
   vertex -0.048661 0.149638 0.0271
   vertex -0.053094 0.153562 0.025062
   vertex -0.049407 0.146767 0.024714
  endloop
 endfacet
 facet normal -0.248311 -0.791714 -0.558149
  outer loop
   vertex -0.044776 0.130029 3e-06
   vertex -0.039 0.123353 0.006903
   vertex -0.042817 0.125547 0.005489
  endloop
 endfacet
 facet normal 0.157534 -0.736435 -0.657911
  outer loop
   vertex -0.044776 0.130029 3e-06
   vertex -0.042817 0.125547 0.005489
   vertex -0.047276 0.129496 1e-06
  endloop
 endfacet
 facet normal -0.248653 -0.791973 0.557629
  outer loop
   vertex -0.042817 0.125547 -0.005489
   vertex -0.039 0.123353 -0.006903
   vertex -0.044776 0.130029 3e-06
  endloop
 endfacet
 facet normal 0.156621 -0.737087 0.657399
  outer loop
   vertex -0.047276 0.129496 1e-06
   vertex -0.042817 0.125547 -0.005489
   vertex -0.044776 0.130029 3e-06
  endloop
 endfacet
 facet normal -0.359089 -0.859362 -0.364077
  outer loop
   vertex -0.039 0.123353 0.006903
   vertex -0.03935 0.120612 0.013718
   vertex -0.042817 0.125547 0.005489
  endloop
 endfacet
 facet normal -0.834733 0.49841 -0.234113
  outer loop
   vertex -0.05983 0.13518 0.004312
   vertex -0.056543 0.141058 0.005106
   vertex -0.060499 0.132036 4e-06
  endloop
 endfacet
 facet normal -0.746361 0.309474 0.589213
  outer loop
   vertex -0.060499 0.132036 4e-06
   vertex -0.064077 0.123445 -1.6e-05
   vertex -0.057705 0.130795 0.004195
  endloop
 endfacet
 facet normal -0.81167 -0.404582 0.421313
  outer loop
   vertex -0.060499 0.132036 4e-06
   vertex -0.057705 0.130795 0.004195
   vertex -0.05983 0.13518 0.004312
  endloop
 endfacet
 facet normal -0.834854 0.498417 0.233666
  outer loop
   vertex -0.060499 0.132036 4e-06
   vertex -0.056543 0.141058 -0.005106
   vertex -0.05983 0.13518 -0.004312
  endloop
 endfacet
 facet normal -0.745862 0.312008 -0.588507
  outer loop
   vertex -0.057705 0.130795 -0.004195
   vertex -0.064077 0.123445 -1.6e-05
   vertex -0.060499 0.132036 4e-06
  endloop
 endfacet
 facet normal -0.811949 -0.4047 -0.420661
  outer loop
   vertex -0.05983 0.13518 -0.004312
   vertex -0.057705 0.130795 -0.004195
   vertex -0.060499 0.132036 4e-06
  endloop
 endfacet
 facet normal -0.630509 0.253485 0.733623
  outer loop
   vertex -0.05983 0.13518 0.004312
   vertex -0.052354 0.141513 0.008549
   vertex -0.056543 0.141058 0.005106
  endloop
 endfacet
 facet normal -0.683764 0.397972 0.611625
  outer loop
   vertex -0.05983 0.13518 0.004312
   vertex -0.054365 0.137188 0.009115
   vertex -0.052354 0.141513 0.008549
  endloop
 endfacet
 facet normal -0.630509 0.253485 -0.733623
  outer loop
   vertex -0.056543 0.141058 -0.005106
   vertex -0.052354 0.141513 -0.008549
   vertex -0.05983 0.13518 -0.004312
  endloop
 endfacet
 facet normal -0.683764 0.397972 -0.611625
  outer loop
   vertex -0.052354 0.141513 -0.008549
   vertex -0.054365 0.137188 -0.009115
   vertex -0.05983 0.13518 -0.004312
  endloop
 endfacet
 facet normal -0.709432 0.243304 0.661445
  outer loop
   vertex -0.052354 0.141513 -0.008549
   vertex -0.053968 0.149065 -0.013058
   vertex -0.054365 0.137188 -0.009115
  endloop
 endfacet
 facet normal -0.758547 0.206823 0.617925
  outer loop
   vertex -0.052398 0.14782 -0.010714
   vertex -0.053968 0.149065 -0.013058
   vertex -0.052354 0.141513 -0.008549
  endloop
 endfacet
 facet normal -0.742153 0.241333 0.625274
  outer loop
   vertex -0.051618 0.15275 -0.011691
   vertex -0.053968 0.149065 -0.013058
   vertex -0.052398 0.14782 -0.010714
  endloop
 endfacet
 facet normal 0.251194 0.65426 -0.713334
  outer loop
   vertex -0.048661 0.149638 -0.0271
   vertex -0.053094 0.153562 -0.025062
   vertex -0.049098 0.155508 -0.02187
  endloop
 endfacet
 facet normal 0.0911609 0.635143 -0.766996
  outer loop
   vertex -0.052542 0.155954 -0.02191
   vertex -0.049318 0.159073 -0.018944
   vertex -0.049098 0.155508 -0.02187
  endloop
 endfacet
 facet normal 0.134325 0.606424 -0.783714
  outer loop
   vertex -0.049318 0.159073 -0.018944
   vertex -0.052542 0.155954 -0.02191
   vertex -0.058578 0.159961 -0.019844
  endloop
 endfacet
 facet normal -0.720644 0.350191 -0.598363
  outer loop
   vertex -0.05369 0.13504 -0.01302
   vertex -0.049635 0.138397 -0.015939
   vertex -0.051883 0.131008 -0.017556
  endloop
 endfacet
 facet normal -0.761054 -0.12119 -0.637267
  outer loop
   vertex -0.054691 0.125451 -0.010001
   vertex -0.055135 0.131226 -0.010569
   vertex -0.05369 0.13504 -0.01302
  endloop
 endfacet
 facet normal -0.759956 -0.121688 -0.638482
  outer loop
   vertex -0.048227 0.123411 -0.017306
   vertex -0.054691 0.125451 -0.010001
   vertex -0.05369 0.13504 -0.01302
  endloop
 endfacet
 facet normal -0.901118 -0.432809 0.0257422
  outer loop
   vertex -0.051883 0.131008 -0.017556
   vertex -0.048227 0.123411 -0.017306
   vertex -0.05369 0.13504 -0.01302
  endloop
 endfacet
 facet normal -0.945549 0.187075 -0.266346
  outer loop
   vertex -0.054365 0.137188 -0.009115
   vertex -0.05369 0.13504 -0.01302
   vertex -0.055135 0.131226 -0.010569
  endloop
 endfacet
 facet normal -0.986978 -0.0199961 -0.159605
  outer loop
   vertex -0.05369 0.13504 -0.01302
   vertex -0.054365 0.137188 -0.009115
   vertex -0.053968 0.149065 -0.013058
  endloop
 endfacet
 facet normal 0.845001 -0.0821087 -0.528423
  outer loop
   vertex -0.05619 0.150936 -0.014623
   vertex -0.060518 0.153794 -0.021988
   vertex -0.058578 0.159961 -0.019844
  endloop
 endfacet
 facet normal 0.250374 -0.843848 -0.474588
  outer loop
   vertex -0.061408 0.150773 -0.017086
   vertex -0.060518 0.153794 -0.021988
   vertex -0.05619 0.150936 -0.014623
  endloop
 endfacet
 facet normal 0.425459 0.0407974 -0.904058
  outer loop
   vertex -0.061408 0.150773 -0.017086
   vertex -0.05619 0.150936 -0.014623
   vertex -0.062138 0.14786 -0.017561
  endloop
 endfacet
 facet normal 0.0686175 0.143784 -0.987227
  outer loop
   vertex -0.062849 0.154571 -0.016633
   vertex -0.061408 0.150773 -0.017086
   vertex -0.062138 0.14786 -0.017561
  endloop
 endfacet
 facet normal -0.337415 -0.16393 0.926972
  outer loop
   vertex -0.056641 0.154765 -0.014339
   vertex -0.062849 0.154571 -0.016633
   vertex -0.062138 0.14786 -0.017561
  endloop
 endfacet
 facet normal -0.480481 -0.0188487 0.876803
  outer loop
   vertex -0.062138 0.14786 -0.017561
   vertex -0.053968 0.149065 -0.013058
   vertex -0.051618 0.15275 -0.011691
  endloop
 endfacet
 facet normal -0.475901 -0.0312712 0.878943
  outer loop
   vertex -0.056641 0.154765 -0.014339
   vertex -0.062138 0.14786 -0.017561
   vertex -0.051618 0.15275 -0.011691
  endloop
 endfacet
 facet normal -0.817238 0.400988 -0.413921
  outer loop
   vertex -0.062849 0.154571 -0.016633
   vertex -0.058578 0.159961 -0.019844
   vertex -0.060518 0.153794 -0.021988
  endloop
 endfacet
 facet normal 0.372286 0.108521 -0.921752
  outer loop
   vertex -0.041366 0.139088 -0.012357
   vertex -0.03935 0.120612 -0.013718
   vertex -0.051883 0.131008 -0.017556
  endloop
 endfacet
 facet normal 0.988613 0.11502 -0.0970332
  outer loop
   vertex -0.039 0.123353 -0.006903
   vertex -0.03935 0.120612 -0.013718
   vertex -0.041366 0.139088 -0.012357
  endloop
 endfacet
 facet normal 0.414944 0.170277 -0.893772
  outer loop
   vertex -0.03935 0.120612 -0.013718
   vertex -0.048227 0.123411 -0.017306
   vertex -0.051883 0.131008 -0.017556
  endloop
 endfacet
 facet normal -0.643735 -0.383218 -0.662381
  outer loop
   vertex -0.049407 0.146767 -0.024714
   vertex -0.053094 0.153562 -0.025062
   vertex -0.048661 0.149638 -0.0271
  endloop
 endfacet
 facet normal -0.359089 -0.859362 0.364077
  outer loop
   vertex -0.042817 0.125547 -0.005489
   vertex -0.03935 0.120612 -0.013718
   vertex -0.039 0.123353 -0.006903
  endloop
 endfacet
 facet normal -0.890594 -0.296799 0.344606
  outer loop
   vertex -0.060518 0.153794 0.021988
   vertex -0.062849 0.154571 0.016633
   vertex -0.061408 0.150773 0.017086
  endloop
 endfacet
 facet normal -0.890594 -0.296799 -0.344606
  outer loop
   vertex -0.061408 0.150773 -0.017086
   vertex -0.062849 0.154571 -0.016633
   vertex -0.060518 0.153794 -0.021988
  endloop
 endfacet
 facet normal -0.912613 0.204236 0.354156
  outer loop
   vertex -0.057705 0.130795 0.004195
   vertex -0.055135 0.131226 0.010569
   vertex -0.054365 0.137188 0.009115
  endloop
 endfacet
 facet normal -0.896537 -0.111104 0.428808
  outer loop
   vertex -0.057356 0.125246 0.004376
   vertex -0.054691 0.125451 0.010001
   vertex -0.055135 0.131226 0.010569
  endloop
 endfacet
 facet normal -0.92539 -0.0459299 0.376223
  outer loop
   vertex -0.057356 0.125246 0.004376
   vertex -0.055135 0.131226 0.010569
   vertex -0.057705 0.130795 0.004195
  endloop
 endfacet
 facet normal -0.0237432 -0.926972 0.374378
  outer loop
   vertex -0.055482 0.123504 0.00513
   vertex -0.047385 0.124402 0.007867
   vertex -0.054691 0.125451 0.010001
  endloop
 endfacet
 facet normal -0.708916 -0.607671 0.358014
  outer loop
   vertex -0.055482 0.123504 0.00513
   vertex -0.054691 0.125451 0.010001
   vertex -0.057356 0.125246 0.004376
  endloop
 endfacet
 facet normal -0.174877 -0.977467 -0.118224
  outer loop
   vertex -0.047385 0.124402 0.007867
   vertex -0.048227 0.123411 0.017306
   vertex -0.054691 0.125451 0.010001
  endloop
 endfacet
 facet normal -0.345057 -0.929758 -0.128396
  outer loop
   vertex -0.047385 0.124402 0.007867
   vertex -0.03935 0.120612 0.013718
   vertex -0.048227 0.123411 0.017306
  endloop
 endfacet
 facet normal -0.567164 -0.295365 0.76882
  outer loop
   vertex -0.057705 0.130795 0.004195
   vertex -0.054365 0.137188 0.009115
   vertex -0.05983 0.13518 0.004312
  endloop
 endfacet
 facet normal -0.0436444 -0.86479 -0.500234
  outer loop
   vertex -0.042817 0.125547 0.005489
   vertex -0.03935 0.120612 0.013718
   vertex -0.047385 0.124402 0.007867
  endloop
 endfacet
 facet normal 0.161617 -0.974035 -0.158541
  outer loop
   vertex -0.042817 0.125547 0.005489
   vertex -0.047385 0.124402 0.007867
   vertex -0.055482 0.123504 0.00513
  endloop
 endfacet
 facet normal 0.0918487 -0.694742 0.71337
  outer loop
   vertex -0.042817 0.125547 0.005489
   vertex -0.055482 0.123504 0.00513
   vertex -0.051242 0.118797 -0
  endloop
 endfacet
 facet normal 0.659104 -0.244256 -0.711281
  outer loop
   vertex -0.047276 0.129496 1e-06
   vertex -0.042817 0.125547 0.005489
   vertex -0.051242 0.118797 -0
  endloop
 endfacet
 facet normal 0.659159 -0.24441 0.711177
  outer loop
   vertex -0.051242 0.118797 -0
   vertex -0.042817 0.125547 -0.005489
   vertex -0.047276 0.129496 1e-06
  endloop
 endfacet
 facet normal -0.0436444 -0.86479 0.500234
  outer loop
   vertex -0.047385 0.124402 -0.007867
   vertex -0.03935 0.120612 -0.013718
   vertex -0.042817 0.125547 -0.005489
  endloop
 endfacet
 facet normal 0.161617 -0.974035 0.158541
  outer loop
   vertex -0.055482 0.123504 -0.00513
   vertex -0.047385 0.124402 -0.007867
   vertex -0.042817 0.125547 -0.005489
  endloop
 endfacet
 facet normal 0.0918487 -0.694742 -0.71337
  outer loop
   vertex -0.051242 0.118797 -0
   vertex -0.055482 0.123504 -0.00513
   vertex -0.042817 0.125547 -0.005489
  endloop
 endfacet
 facet normal -0.566536 0.478935 0.670565
  outer loop
   vertex -0.064077 0.123445 -1.6e-05
   vertex -0.069413 0.11714 -2.1e-05
   vertex -0.057356 0.125246 0.004376
  endloop
 endfacet
 facet normal -0.545705 -0.00698912 0.837948
  outer loop
   vertex -0.064077 0.123445 -1.6e-05
   vertex -0.057356 0.125246 0.004376
   vertex -0.057705 0.130795 0.004195
  endloop
 endfacet
 facet normal -0.564549 0.478319 -0.672678
  outer loop
   vertex -0.057356 0.125246 -0.004376
   vertex -0.069413 0.11714 -2.1e-05
   vertex -0.064077 0.123445 -1.6e-05
  endloop
 endfacet
 facet normal -0.542942 -0.0067568 -0.839743
  outer loop
   vertex -0.057705 0.130795 -0.004195
   vertex -0.057356 0.125246 -0.004376
   vertex -0.064077 0.123445 -1.6e-05
  endloop
 endfacet
 facet normal -0.567164 -0.295365 -0.76882
  outer loop
   vertex -0.05983 0.13518 -0.004312
   vertex -0.054365 0.137188 -0.009115
   vertex -0.057705 0.130795 -0.004195
  endloop
 endfacet
 facet normal -0.912613 0.204236 -0.354156
  outer loop
   vertex -0.054365 0.137188 -0.009115
   vertex -0.055135 0.131226 -0.010569
   vertex -0.057705 0.130795 -0.004195
  endloop
 endfacet
 facet normal -0.92539 -0.0459299 -0.376223
  outer loop
   vertex -0.057705 0.130795 -0.004195
   vertex -0.055135 0.131226 -0.010569
   vertex -0.057356 0.125246 -0.004376
  endloop
 endfacet
 facet normal -0.896537 -0.111104 -0.428808
  outer loop
   vertex -0.055135 0.131226 -0.010569
   vertex -0.054691 0.125451 -0.010001
   vertex -0.057356 0.125246 -0.004376
  endloop
 endfacet
 facet normal -0.0237432 -0.926972 -0.374378
  outer loop
   vertex -0.054691 0.125451 -0.010001
   vertex -0.047385 0.124402 -0.007867
   vertex -0.055482 0.123504 -0.00513
  endloop
 endfacet
 facet normal -0.708916 -0.607671 -0.358014
  outer loop
   vertex -0.057356 0.125246 -0.004376
   vertex -0.054691 0.125451 -0.010001
   vertex -0.055482 0.123504 -0.00513
  endloop
 endfacet
 facet normal -0.174877 -0.977467 0.118224
  outer loop
   vertex -0.054691 0.125451 -0.010001
   vertex -0.048227 0.123411 -0.017306
   vertex -0.047385 0.124402 -0.007867
  endloop
 endfacet
 facet normal -0.345057 -0.929758 0.128396
  outer loop
   vertex -0.048227 0.123411 -0.017306
   vertex -0.03935 0.120612 -0.013718
   vertex -0.047385 0.124402 -0.007867
  endloop
 endfacet
 facet normal -0.551052 0.432557 0.713608
  outer loop
   vertex -0.069413 0.11714 -2.1e-05
   vertex -0.060973 0.120003 0.004761
   vertex -0.057356 0.125246 0.004376
  endloop
 endfacet
 facet normal -0.357868 0.0190996 0.933577
  outer loop
   vertex -0.056639 0.118982 0.004779
   vertex -0.055482 0.123504 0.00513
   vertex -0.057356 0.125246 0.004376
  endloop
 endfacet
 facet normal 0.011283 0.0654852 0.99779
  outer loop
   vertex -0.056639 0.118982 0.004779
   vertex -0.057356 0.125246 0.004376
   vertex -0.060973 0.120003 0.004761
  endloop
 endfacet
 facet normal 0.644154 -0.218615 0.732989
  outer loop
   vertex -0.058151 0.110882 0.003711
   vertex -0.051242 0.118797 -0
   vertex -0.055482 0.123504 0.00513
  endloop
 endfacet
 facet normal 0.602595 -0.21386 0.768859
  outer loop
   vertex -0.058151 0.110882 0.003711
   vertex -0.055482 0.123504 0.00513
   vertex -0.056639 0.118982 0.004779
  endloop
 endfacet
 facet normal 0.731662 -0.676799 -0.0813276
  outer loop
   vertex -0.051242 0.118797 -0
   vertex -0.058151 0.110882 0.003711
   vertex -0.05982 0.109524 -3e-06
  endloop
 endfacet
 facet normal 0.731629 -0.676821 0.0814363
  outer loop
   vertex -0.05982 0.109524 -3e-06
   vertex -0.058151 0.110882 -0.003711
   vertex -0.051242 0.118797 -0
  endloop
 endfacet
 facet normal 0.644154 -0.218615 -0.732989
  outer loop
   vertex -0.055482 0.123504 -0.00513
   vertex -0.051242 0.118797 -0
   vertex -0.058151 0.110882 -0.003711
  endloop
 endfacet
 facet normal -0.357868 0.0190996 -0.933577
  outer loop
   vertex -0.057356 0.125246 -0.004376
   vertex -0.055482 0.123504 -0.00513
   vertex -0.056639 0.118982 -0.004779
  endloop
 endfacet
 facet normal 0.602595 -0.21386 -0.768859
  outer loop
   vertex -0.056639 0.118982 -0.004779
   vertex -0.055482 0.123504 -0.00513
   vertex -0.058151 0.110882 -0.003711
  endloop
 endfacet
 facet normal -0.528096 0.655878 0.539388
  outer loop
   vertex -0.069413 0.11714 -2.1e-05
   vertex -0.069517 0.11308 0.004814
   vertex -0.060973 0.120003 0.004761
  endloop
 endfacet
 facet normal -0.995822 0.0793427 0.0452044
  outer loop
   vertex -0.069878 0.111305 -2.3e-05
   vertex -0.069517 0.11308 0.004814
   vertex -0.069413 0.11714 -2.1e-05
  endloop
 endfacet
 facet normal -0.526727 0.654215 -0.542735
  outer loop
   vertex -0.060973 0.120003 -0.004761
   vertex -0.069517 0.11308 -0.004814
   vertex -0.069413 0.11714 -2.1e-05
  endloop
 endfacet
 facet normal -0.548572 0.431052 -0.716423
  outer loop
   vertex -0.057356 0.125246 -0.004376
   vertex -0.060973 0.120003 -0.004761
   vertex -0.069413 0.11714 -2.1e-05
  endloop
 endfacet
 facet normal -0.9958 0.0793721 -0.0456259
  outer loop
   vertex -0.069413 0.11714 -2.1e-05
   vertex -0.069517 0.11308 -0.004814
   vertex -0.069878 0.111305 -2.3e-05
  endloop
 endfacet
 facet normal 0.011283 0.0654852 -0.99779
  outer loop
   vertex -0.060973 0.120003 -0.004761
   vertex -0.057356 0.125246 -0.004376
   vertex -0.056639 0.118982 -0.004779
  endloop
 endfacet
 facet normal -0.0334498 -0.124507 0.991655
  outer loop
   vertex -0.058151 0.110882 0.003711
   vertex -0.056639 0.118982 0.004779
   vertex -0.060973 0.120003 0.004761
  endloop
 endfacet
 facet normal 0.231382 -0.04031 0.972027
  outer loop
   vertex -0.058151 0.110882 0.003711
   vertex -0.060973 0.120003 0.004761
   vertex -0.066224 0.110238 0.005606
  endloop
 endfacet
 facet normal -0.111355 0.144955 0.983152
  outer loop
   vertex -0.069517 0.11308 0.004814
   vertex -0.066224 0.110238 0.005606
   vertex -0.060973 0.120003 0.004761
  endloop
 endfacet
 facet normal 0.142091 -0.948543 0.282976
  outer loop
   vertex -0.05982 0.109524 -3e-06
   vertex -0.058151 0.110882 0.003711
   vertex -0.066224 0.110238 0.005606
  endloop
 endfacet
 facet normal 0.152384 -0.943551 0.294093
  outer loop
   vertex -0.05982 0.109524 -3e-06
   vertex -0.066224 0.110238 0.005606
   vertex -0.064423 0.108775 -2.1e-05
  endloop
 endfacet
 facet normal 0.14217 -0.948419 -0.283353
  outer loop
   vertex -0.066224 0.110238 -0.005606
   vertex -0.058151 0.110882 -0.003711
   vertex -0.05982 0.109524 -3e-06
  endloop
 endfacet
 facet normal 0.154506 -0.942393 -0.296686
  outer loop
   vertex -0.064423 0.108775 -2.1e-05
   vertex -0.066224 0.110238 -0.005606
   vertex -0.05982 0.109524 -3e-06
  endloop
 endfacet
 facet normal -0.0334498 -0.124507 -0.991655
  outer loop
   vertex -0.060973 0.120003 -0.004761
   vertex -0.056639 0.118982 -0.004779
   vertex -0.058151 0.110882 -0.003711
  endloop
 endfacet
 facet normal 0.231382 -0.04031 -0.972027
  outer loop
   vertex -0.066224 0.110238 -0.005606
   vertex -0.060973 0.120003 -0.004761
   vertex -0.058151 0.110882 -0.003711
  endloop
 endfacet
 facet normal -0.651743 -0.758354 -0.0114296
  outer loop
   vertex -0.064423 0.108775 -2.1e-05
   vertex -0.066224 0.110238 0.005606
   vertex -0.069517 0.11308 0.004814
  endloop
 endfacet
 facet normal -0.395434 -0.852333 0.342287
  outer loop
   vertex -0.064423 0.108775 -2.1e-05
   vertex -0.069517 0.11308 0.004814
   vertex -0.069878 0.111305 -2.3e-05
  endloop
 endfacet
 facet normal -0.394777 -0.851462 -0.345202
  outer loop
   vertex -0.069878 0.111305 -2.3e-05
   vertex -0.069517 0.11308 -0.004814
   vertex -0.064423 0.108775 -2.1e-05
  endloop
 endfacet
 facet normal -0.111355 0.144955 -0.983152
  outer loop
   vertex -0.060973 0.120003 -0.004761
   vertex -0.066224 0.110238 -0.005606
   vertex -0.069517 0.11308 -0.004814
  endloop
 endfacet
 facet normal -0.651731 -0.758362 0.0115095
  outer loop
   vertex -0.069517 0.11308 -0.004814
   vertex -0.066224 0.110238 -0.005606
   vertex -0.064423 0.108775 -2.1e-05
  endloop
 endfacet
endsolid
