solid ascii
 facet normal -0.0652628 -0.997213 0.0361441
  outer loop
   vertex -0.062459 0.222164 2.3e-05
   vertex -0.063159 0.222486 0.007643
   vertex -0.075947 0.223046 3e-06
  endloop
 endfacet
 facet normal 0.904798 -0.413787 0.100603
  outer loop
   vertex -0.061711 0.226023 0.009168
   vertex -0.063159 0.222486 0.007643
   vertex -0.062459 0.222164 2.3e-05
  endloop
 endfacet
 facet normal 0.823164 -0.54412 0.162278
  outer loop
   vertex -0.061711 0.226023 0.009168
   vertex -0.062459 0.222164 2.3e-05
   vertex -0.061571 0.223508 2.5e-05
  endloop
 endfacet
 facet normal -0.0651569 -0.997228 -0.0359375
  outer loop
   vertex -0.075947 0.223046 3e-06
   vertex -0.063159 0.222486 -0.007643
   vertex -0.062459 0.222164 2.3e-05
  endloop
 endfacet
 facet normal 0.904953 -0.413593 -0.100005
  outer loop
   vertex -0.062459 0.222164 2.3e-05
   vertex -0.063159 0.222486 -0.007643
   vertex -0.061711 0.226023 -0.009168
  endloop
 endfacet
 facet normal 0.823515 -0.543871 -0.161332
  outer loop
   vertex -0.061571 0.223508 2.5e-05
   vertex -0.062459 0.222164 2.3e-05
   vertex -0.061711 0.226023 -0.009168
  endloop
 endfacet
 facet normal -0.0779521 -0.995296 0.0575243
  outer loop
   vertex -0.063159 0.222486 0.007643
   vertex -0.067203 0.223261 0.015572
   vertex -0.075947 0.223046 3e-06
  endloop
 endfacet
 facet normal 0.753486 -0.49502 0.432682
  outer loop
   vertex -0.067203 0.223261 0.015572
   vertex -0.063159 0.222486 0.007643
   vertex -0.061711 0.226023 0.009168
  endloop
 endfacet
 facet normal -0.0675487 -0.996376 0.0516963
  outer loop
   vertex -0.067203 0.223261 0.015572
   vertex -0.073721 0.223903 0.019429
   vertex -0.075947 0.223046 3e-06
  endloop
 endfacet
 facet normal -0.0254192 -0.998042 -0.0571534
  outer loop
   vertex -0.088041 0.223091 0.004596
   vertex -0.088158 0.223357 3e-06
   vertex -0.075947 0.223046 3e-06
  endloop
 endfacet
 facet normal 0.00709538 -0.999569 0.0284767
  outer loop
   vertex -0.075947 0.223046 3e-06
   vertex -0.088389 0.223343 0.013528
   vertex -0.088041 0.223091 0.004596
  endloop
 endfacet
 facet normal 0.0810532 -0.992042 0.0963472
  outer loop
   vertex -0.084071 0.224279 0.019533
   vertex -0.088389 0.223343 0.013528
   vertex -0.075947 0.223046 3e-06
  endloop
 endfacet
 facet normal -0.0357795 -0.9982 0.0481364
  outer loop
   vertex -0.075947 0.223046 3e-06
   vertex -0.073721 0.223903 0.019429
   vertex -0.084071 0.224279 0.019533
  endloop
 endfacet
 facet normal -0.0779727 -0.995295 -0.0575137
  outer loop
   vertex -0.075947 0.223046 3e-06
   vertex -0.067203 0.223261 -0.015572
   vertex -0.063159 0.222486 -0.007643
  endloop
 endfacet
 facet normal -0.0675575 -0.996376 -0.0516814
  outer loop
   vertex -0.075947 0.223046 3e-06
   vertex -0.073721 0.223903 -0.019429
   vertex -0.067203 0.223261 -0.015572
  endloop
 endfacet
 facet normal -0.0254193 -0.998046 0.0570791
  outer loop
   vertex -0.075947 0.223046 3e-06
   vertex -0.088158 0.223357 3e-06
   vertex -0.088041 0.223091 -0.004596
  endloop
 endfacet
 facet normal 0.00710972 -0.999569 -0.0284773
  outer loop
   vertex -0.088041 0.223091 -0.004596
   vertex -0.088389 0.223343 -0.013528
   vertex -0.075947 0.223046 3e-06
  endloop
 endfacet
 facet normal 0.0810793 -0.992042 -0.0963284
  outer loop
   vertex -0.075947 0.223046 3e-06
   vertex -0.088389 0.223343 -0.013528
   vertex -0.084071 0.224279 -0.019533
  endloop
 endfacet
 facet normal -0.0357797 -0.9982 -0.0481216
  outer loop
   vertex -0.084071 0.224279 -0.019533
   vertex -0.073721 0.223903 -0.019429
   vertex -0.075947 0.223046 3e-06
  endloop
 endfacet
 facet normal 0.820603 0.566375 0.0763551
  outer loop
   vertex -0.062026 0.227712 2.5e-05
   vertex -0.063298 0.228235 0.009816
   vertex -0.061711 0.226023 0.009168
  endloop
 endfacet
 facet normal 0.994091 0.107591 -0.0143738
  outer loop
   vertex -0.062026 0.227712 2.5e-05
   vertex -0.061711 0.226023 0.009168
   vertex -0.061571 0.223508 2.5e-05
  endloop
 endfacet
 facet normal 0.777261 0.420555 0.467974
  outer loop
   vertex -0.066766 0.227159 0.016543
   vertex -0.061711 0.226023 0.009168
   vertex -0.063298 0.228235 0.009816
  endloop
 endfacet
 facet normal 0.785557 -0.23106 0.574031
  outer loop
   vertex -0.067203 0.223261 0.015572
   vertex -0.061711 0.226023 0.009168
   vertex -0.066766 0.227159 0.016543
  endloop
 endfacet
 facet normal 0.994092 0.107592 0.0142957
  outer loop
   vertex -0.061571 0.223508 2.5e-05
   vertex -0.061711 0.226023 -0.009168
   vertex -0.062026 0.227712 2.5e-05
  endloop
 endfacet
 facet normal 0.753486 -0.49502 -0.432682
  outer loop
   vertex -0.061711 0.226023 -0.009168
   vertex -0.063159 0.222486 -0.007643
   vertex -0.067203 0.223261 -0.015572
  endloop
 endfacet
 facet normal 0.820574 0.56647 -0.0759584
  outer loop
   vertex -0.061711 0.226023 -0.009168
   vertex -0.063298 0.228235 -0.009816
   vertex -0.062026 0.227712 2.5e-05
  endloop
 endfacet
 facet normal 0.777261 0.420555 -0.467974
  outer loop
   vertex -0.063298 0.228235 -0.009816
   vertex -0.061711 0.226023 -0.009168
   vertex -0.066766 0.227159 -0.016543
  endloop
 endfacet
 facet normal 0.785557 -0.23106 -0.574031
  outer loop
   vertex -0.066766 0.227159 -0.016543
   vertex -0.061711 0.226023 -0.009168
   vertex -0.067203 0.223261 -0.015572
  endloop
 endfacet
 facet normal 0.472112 -0.262555 0.841531
  outer loop
   vertex -0.073721 0.223903 0.019429
   vertex -0.067203 0.223261 0.015572
   vertex -0.066766 0.227159 0.016543
  endloop
 endfacet
 facet normal 0.40575 -0.0582267 0.912128
  outer loop
   vertex -0.073721 0.223903 0.019429
   vertex -0.066766 0.227159 0.016543
   vertex -0.074567 0.228425 0.020094
  endloop
 endfacet
 facet normal 0.00468827 -0.144634 0.989474
  outer loop
   vertex -0.084071 0.224279 0.019533
   vertex -0.073721 0.223903 0.019429
   vertex -0.074567 0.228425 0.020094
  endloop
 endfacet
 facet normal -0.68111 -0.731754 -0.0250293
  outer loop
   vertex -0.088158 0.223357 3e-06
   vertex -0.088041 0.223091 0.004596
   vertex -0.091645 0.226441 0.00473
  endloop
 endfacet
 facet normal -0.680929 -0.732326 -0.00586914
  outer loop
   vertex -0.088389 0.223343 0.013528
   vertex -0.091645 0.226441 0.00473
   vertex -0.088041 0.223091 0.004596
  endloop
 endfacet
 facet normal -0.65097 -0.758956 0.0149518
  outer loop
   vertex -0.088158 0.223357 3e-06
   vertex -0.091645 0.226441 0.00473
   vertex -0.091616 0.226323 3e-06
  endloop
 endfacet
 facet normal -0.68111 -0.731755 0.0249967
  outer loop
   vertex -0.091645 0.226441 -0.00473
   vertex -0.088041 0.223091 -0.004596
   vertex -0.088158 0.223357 3e-06
  endloop
 endfacet
 facet normal -0.65097 -0.758957 -0.0149328
  outer loop
   vertex -0.091616 0.226323 3e-06
   vertex -0.091645 0.226441 -0.00473
   vertex -0.088158 0.223357 3e-06
  endloop
 endfacet
 facet normal 0.146659 -0.780524 0.607679
  outer loop
   vertex -0.085091 0.229186 0.020237
   vertex -0.091239 0.224103 0.015192
   vertex -0.088389 0.223343 0.013528
  endloop
 endfacet
 facet normal -0.768765 -0.244578 0.590916
  outer loop
   vertex -0.085091 0.229186 0.020237
   vertex -0.088389 0.223343 0.013528
   vertex -0.084071 0.224279 0.019533
  endloop
 endfacet
 facet normal -0.443439 -0.806444 -0.391165
  outer loop
   vertex -0.088389 0.223343 0.013528
   vertex -0.091239 0.224103 0.015192
   vertex -0.092507 0.227809 0.008989
  endloop
 endfacet
 facet normal -0.760753 -0.646809 0.053785
  outer loop
   vertex -0.088389 0.223343 0.013528
   vertex -0.092507 0.227809 0.008989
   vertex -0.091645 0.226441 0.00473
  endloop
 endfacet
 facet normal 0.00322996 -0.141356 0.989954
  outer loop
   vertex -0.084071 0.224279 0.019533
   vertex -0.074567 0.228425 0.020094
   vertex -0.085091 0.229186 0.020237
  endloop
 endfacet
 facet normal 0.472112 -0.262555 -0.841531
  outer loop
   vertex -0.066766 0.227159 -0.016543
   vertex -0.067203 0.223261 -0.015572
   vertex -0.073721 0.223903 -0.019429
  endloop
 endfacet
 facet normal 0.40575 -0.0582267 -0.912128
  outer loop
   vertex -0.074567 0.228425 -0.020094
   vertex -0.066766 0.227159 -0.016543
   vertex -0.073721 0.223903 -0.019429
  endloop
 endfacet
 facet normal 0.00468827 -0.144634 -0.989474
  outer loop
   vertex -0.074567 0.228425 -0.020094
   vertex -0.073721 0.223903 -0.019429
   vertex -0.084071 0.224279 -0.019533
  endloop
 endfacet
 facet normal -0.680929 -0.732326 0.00586914
  outer loop
   vertex -0.088041 0.223091 -0.004596
   vertex -0.091645 0.226441 -0.00473
   vertex -0.088389 0.223343 -0.013528
  endloop
 endfacet
 facet normal 0.146659 -0.780524 -0.607679
  outer loop
   vertex -0.088389 0.223343 -0.013528
   vertex -0.091239 0.224103 -0.015192
   vertex -0.085091 0.229186 -0.020237
  endloop
 endfacet
 facet normal -0.768765 -0.244578 -0.590916
  outer loop
   vertex -0.084071 0.224279 -0.019533
   vertex -0.088389 0.223343 -0.013528
   vertex -0.085091 0.229186 -0.020237
  endloop
 endfacet
 facet normal -0.443439 -0.806444 0.391165
  outer loop
   vertex -0.092507 0.227809 -0.008989
   vertex -0.091239 0.224103 -0.015192
   vertex -0.088389 0.223343 -0.013528
  endloop
 endfacet
 facet normal -0.760753 -0.646809 -0.053785
  outer loop
   vertex -0.091645 0.226441 -0.00473
   vertex -0.092507 0.227809 -0.008989
   vertex -0.088389 0.223343 -0.013528
  endloop
 endfacet
 facet normal 0.00322996 -0.141356 -0.989954
  outer loop
   vertex -0.085091 0.229186 -0.020237
   vertex -0.074567 0.228425 -0.020094
   vertex -0.084071 0.224279 -0.019533
  endloop
 endfacet
 facet normal 0.988468 -0.0735863 0.132348
  outer loop
   vertex -0.06138 0.236395 2.8e-05
   vertex -0.063298 0.228235 0.009816
   vertex -0.062026 0.227712 2.5e-05
  endloop
 endfacet
 facet normal 0.988563 -0.0735022 -0.131683
  outer loop
   vertex -0.062026 0.227712 2.5e-05
   vertex -0.063298 0.228235 -0.009816
   vertex -0.06138 0.236395 2.8e-05
  endloop
 endfacet
 facet normal 0.987848 -0.0604309 0.143194
  outer loop
   vertex -0.06138 0.236395 2.8e-05
   vertex -0.0628 0.235563 0.009473
   vertex -0.063298 0.228235 0.009816
  endloop
 endfacet
 facet normal 0.770317 -0.0225218 0.637264
  outer loop
   vertex -0.068474 0.229885 0.016131
   vertex -0.063298 0.228235 0.009816
   vertex -0.0628 0.235563 0.009473
  endloop
 endfacet
 facet normal 0.72181 0.521094 0.455469
  outer loop
   vertex -0.066766 0.227159 0.016543
   vertex -0.063298 0.228235 0.009816
   vertex -0.068474 0.229885 0.016131
  endloop
 endfacet
 facet normal 0.432993 0.393838 0.810807
  outer loop
   vertex -0.074567 0.228425 0.020094
   vertex -0.066766 0.227159 0.016543
   vertex -0.068474 0.229885 0.016131
  endloop
 endfacet
 facet normal 0.987965 -0.0604777 -0.142363
  outer loop
   vertex -0.063298 0.228235 -0.009816
   vertex -0.0628 0.235563 -0.009473
   vertex -0.06138 0.236395 2.8e-05
  endloop
 endfacet
 facet normal 0.770317 -0.0225218 -0.637264
  outer loop
   vertex -0.0628 0.235563 -0.009473
   vertex -0.063298 0.228235 -0.009816
   vertex -0.068474 0.229885 -0.016131
  endloop
 endfacet
 facet normal 0.72181 0.521094 -0.455469
  outer loop
   vertex -0.068474 0.229885 -0.016131
   vertex -0.063298 0.228235 -0.009816
   vertex -0.066766 0.227159 -0.016543
  endloop
 endfacet
 facet normal 0.432993 0.393838 -0.810807
  outer loop
   vertex -0.068474 0.229885 -0.016131
   vertex -0.066766 0.227159 -0.016543
   vertex -0.074567 0.228425 -0.020094
  endloop
 endfacet
 facet normal 0.438593 0.380089 0.814352
  outer loop
   vertex -0.074567 0.228425 0.020094
   vertex -0.068474 0.229885 0.016131
   vertex -0.074492 0.232225 0.01828
  endloop
 endfacet
 facet normal 0.0433275 0.429698 0.901932
  outer loop
   vertex -0.085091 0.229186 0.020237
   vertex -0.074567 0.228425 0.020094
   vertex -0.074492 0.232225 0.01828
  endloop
 endfacet
 facet normal -0.996522 0.0829215 -0.00818472
  outer loop
   vertex -0.091117 0.232918 0.006064
   vertex -0.091616 0.226323 3e-06
   vertex -0.091645 0.226441 0.00473
  endloop
 endfacet
 facet normal -0.963447 0.12711 -0.235824
  outer loop
   vertex -0.091117 0.232918 0.006064
   vertex -0.091645 0.226441 0.00473
   vertex -0.092507 0.227809 0.008989
  endloop
 endfacet
 facet normal -0.98581 0.147775 -0.079634
  outer loop
   vertex -0.091616 0.226323 3e-06
   vertex -0.091117 0.232918 0.006064
   vertex -0.090631 0.232895 5e-06
  endloop
 endfacet
 facet normal -0.985827 0.147729 0.079504
  outer loop
   vertex -0.090631 0.232895 5e-06
   vertex -0.091117 0.232918 -0.006064
   vertex -0.091616 0.226323 3e-06
  endloop
 endfacet
 facet normal -0.996523 0.0829194 0.00817429
  outer loop
   vertex -0.091645 0.226441 -0.00473
   vertex -0.091616 0.226323 3e-06
   vertex -0.091117 0.232918 -0.006064
  endloop
 endfacet
 facet normal -0.963447 0.12711 0.235824
  outer loop
   vertex -0.092507 0.227809 -0.008989
   vertex -0.091645 0.226441 -0.00473
   vertex -0.091117 0.232918 -0.006064
  endloop
 endfacet
 facet normal 0.0879569 0.304083 0.948576
  outer loop
   vertex -0.085091 0.229186 0.020237
   vertex -0.074492 0.232225 0.01828
   vertex -0.08483 0.232492 0.019153
  endloop
 endfacet
 facet normal -0.732742 0.263564 0.627394
  outer loop
   vertex -0.08483 0.232492 0.019153
   vertex -0.091239 0.224103 0.015192
   vertex -0.085091 0.229186 0.020237
  endloop
 endfacet
 facet normal -0.127963 -0.34183 0.931009
  outer loop
   vertex -0.08483 0.232492 0.019153
   vertex -0.090033 0.231599 0.01811
   vertex -0.091239 0.224103 0.015192
  endloop
 endfacet
 facet normal -0.984831 -0.0753144 0.15632
  outer loop
   vertex -0.092507 0.227809 0.008989
   vertex -0.091239 0.224103 0.015192
   vertex -0.092905 0.233607 0.009275
  endloop
 endfacet
 facet normal -0.948569 0.0299294 0.315154
  outer loop
   vertex -0.091239 0.224103 0.015192
   vertex -0.090033 0.231599 0.01811
   vertex -0.092905 0.233607 0.009275
  endloop
 endfacet
 facet normal -0.876407 -0.0364744 -0.480188
  outer loop
   vertex -0.091117 0.232918 0.006064
   vertex -0.092507 0.227809 0.008989
   vertex -0.092905 0.233607 0.009275
  endloop
 endfacet
 facet normal 0.438593 0.380089 -0.814352
  outer loop
   vertex -0.074492 0.232225 -0.01828
   vertex -0.068474 0.229885 -0.016131
   vertex -0.074567 0.228425 -0.020094
  endloop
 endfacet
 facet normal 0.0433275 0.429698 -0.901932
  outer loop
   vertex -0.074492 0.232225 -0.01828
   vertex -0.074567 0.228425 -0.020094
   vertex -0.085091 0.229186 -0.020237
  endloop
 endfacet
 facet normal -0.127963 -0.34183 -0.931009
  outer loop
   vertex -0.091239 0.224103 -0.015192
   vertex -0.090033 0.231599 -0.01811
   vertex -0.08483 0.232492 -0.019153
  endloop
 endfacet
 facet normal -0.732742 0.263564 -0.627394
  outer loop
   vertex -0.085091 0.229186 -0.020237
   vertex -0.091239 0.224103 -0.015192
   vertex -0.08483 0.232492 -0.019153
  endloop
 endfacet
 facet normal -0.984831 -0.0753144 -0.15632
  outer loop
   vertex -0.092905 0.233607 -0.009275
   vertex -0.091239 0.224103 -0.015192
   vertex -0.092507 0.227809 -0.008989
  endloop
 endfacet
 facet normal -0.948569 0.0299294 -0.315154
  outer loop
   vertex -0.092905 0.233607 -0.009275
   vertex -0.090033 0.231599 -0.01811
   vertex -0.091239 0.224103 -0.015192
  endloop
 endfacet
 facet normal 0.0879569 0.304083 -0.948576
  outer loop
   vertex -0.08483 0.232492 -0.019153
   vertex -0.074492 0.232225 -0.01828
   vertex -0.085091 0.229186 -0.020237
  endloop
 endfacet
 facet normal -0.876407 -0.0364744 0.480188
  outer loop
   vertex -0.092905 0.233607 -0.009275
   vertex -0.092507 0.227809 -0.008989
   vertex -0.091117 0.232918 -0.006064
  endloop
 endfacet
 facet normal 0.971137 -0.201081 0.128292
  outer loop
   vertex -0.060678 0.239786 2.9e-05
   vertex -0.0628 0.235563 0.009473
   vertex -0.06138 0.236395 2.8e-05
  endloop
 endfacet
 facet normal 0.971245 -0.201028 -0.127556
  outer loop
   vertex -0.06138 0.236395 2.8e-05
   vertex -0.0628 0.235563 -0.009473
   vertex -0.060678 0.239786 2.9e-05
  endloop
 endfacet
 facet normal 0.929564 -0.365872 0.0452616
  outer loop
   vertex -0.060678 0.239786 2.9e-05
   vertex -0.061299 0.239501 0.010479
   vertex -0.0628 0.235563 0.009473
  endloop
 endfacet
 facet normal 0.68627 -0.414296 0.597822
  outer loop
   vertex -0.068488 0.236643 0.016751
   vertex -0.0628 0.235563 0.009473
   vertex -0.061299 0.239501 0.010479
  endloop
 endfacet
 facet normal 0.782718 -0.0552519 0.619919
  outer loop
   vertex -0.068474 0.229885 0.016131
   vertex -0.0628 0.235563 0.009473
   vertex -0.068488 0.236643 0.016751
  endloop
 endfacet
 facet normal 0.305083 -0.0863772 0.9484
  outer loop
   vertex -0.074492 0.232225 0.01828
   vertex -0.068474 0.229885 0.016131
   vertex -0.068488 0.236643 0.016751
  endloop
 endfacet
 facet normal 0.929596 -0.365821 -0.0450151
  outer loop
   vertex -0.0628 0.235563 -0.009473
   vertex -0.061299 0.239501 -0.010479
   vertex -0.060678 0.239786 2.9e-05
  endloop
 endfacet
 facet normal 0.68627 -0.414296 -0.597822
  outer loop
   vertex -0.061299 0.239501 -0.010479
   vertex -0.0628 0.235563 -0.009473
   vertex -0.068488 0.236643 -0.016751
  endloop
 endfacet
 facet normal 0.782718 -0.0552519 -0.619919
  outer loop
   vertex -0.068488 0.236643 -0.016751
   vertex -0.0628 0.235563 -0.009473
   vertex -0.068474 0.229885 -0.016131
  endloop
 endfacet
 facet normal 0.305083 -0.0863772 -0.9484
  outer loop
   vertex -0.068488 0.236643 -0.016751
   vertex -0.068474 0.229885 -0.016131
   vertex -0.074492 0.232225 -0.01828
  endloop
 endfacet
 facet normal 0.307184 -0.0895692 0.947426
  outer loop
   vertex -0.074492 0.232225 0.01828
   vertex -0.068488 0.236643 0.016751
   vertex -0.073278 0.237277 0.018364
  endloop
 endfacet
 facet normal 0.0831531 -0.03654 0.995867
  outer loop
   vertex -0.08483 0.232492 0.019153
   vertex -0.074492 0.232225 0.01828
   vertex -0.073278 0.237277 0.018364
  endloop
 endfacet
 facet normal -0.964181 0.253426 -0.0783001
  outer loop
   vertex -0.090631 0.232895 5e-06
   vertex -0.091117 0.232918 0.006064
   vertex -0.089225 0.240179 0.006267
  endloop
 endfacet
 facet normal -0.832775 0.231061 -0.503086
  outer loop
   vertex -0.091117 0.232918 0.006064
   vertex -0.091134 0.240769 0.009698
   vertex -0.089225 0.240179 0.006267
  endloop
 endfacet
 facet normal -0.827011 0.234674 -0.510864
  outer loop
   vertex -0.091117 0.232918 0.006064
   vertex -0.092905 0.233607 0.009275
   vertex -0.091134 0.240769 0.009698
  endloop
 endfacet
 facet normal -0.954615 0.27743 -0.108369
  outer loop
   vertex -0.090631 0.232895 5e-06
   vertex -0.089225 0.240179 0.006267
   vertex -0.08851 0.240194 7e-06
  endloop
 endfacet
 facet normal -0.964191 0.253425 0.0781719
  outer loop
   vertex -0.089225 0.240179 -0.006267
   vertex -0.091117 0.232918 -0.006064
   vertex -0.090631 0.232895 5e-06
  endloop
 endfacet
 facet normal -0.954655 0.277382 0.108132
  outer loop
   vertex -0.08851 0.240194 7e-06
   vertex -0.089225 0.240179 -0.006267
   vertex -0.090631 0.232895 5e-06
  endloop
 endfacet
 facet normal -0.832671 0.231039 0.503269
  outer loop
   vertex -0.089225 0.240179 -0.006267
   vertex -0.091135 0.240769 -0.009698
   vertex -0.091117 0.232918 -0.006064
  endloop
 endfacet
 facet normal -0.827044 0.234566 0.510859
  outer loop
   vertex -0.091135 0.240769 -0.009698
   vertex -0.092905 0.233607 -0.009275
   vertex -0.091117 0.232918 -0.006064
  endloop
 endfacet
 facet normal 0.0870017 -0.0459499 0.995148
  outer loop
   vertex -0.08483 0.232492 0.019153
   vertex -0.073278 0.237277 0.018364
   vertex -0.083135 0.23869 0.019291
  endloop
 endfacet
 facet normal -0.201955 0.033436 0.978824
  outer loop
   vertex -0.083135 0.23869 0.019291
   vertex -0.090033 0.231599 0.01811
   vertex -0.08483 0.232492 0.019153
  endloop
 endfacet
 facet normal 0.0241744 -0.187076 0.982048
  outer loop
   vertex -0.083135 0.23869 0.019291
   vertex -0.087736 0.240064 0.019666
   vertex -0.090033 0.231599 0.01811
  endloop
 endfacet
 facet normal -0.219748 -0.755865 0.616749
  outer loop
   vertex -0.096003 0.23187 0.016315
   vertex -0.090033 0.231599 0.01811
   vertex -0.093106 0.234037 0.020003
  endloop
 endfacet
 facet normal -0.0191478 -0.628124 0.777877
  outer loop
   vertex -0.091519 0.238837 0.023918
   vertex -0.093106 0.234037 0.020003
   vertex -0.090033 0.231599 0.01811
  endloop
 endfacet
 facet normal 0.752867 -0.310924 0.580101
  outer loop
   vertex -0.091519 0.238837 0.023918
   vertex -0.090033 0.231599 0.01811
   vertex -0.087736 0.240064 0.019666
  endloop
 endfacet
 facet normal 0.0247434 -0.973065 -0.229199
  outer loop
   vertex -0.090033 0.231599 0.01811
   vertex -0.096003 0.23187 0.016315
   vertex -0.092905 0.233607 0.009275
  endloop
 endfacet
 facet normal 0.557402 -0.0890805 -0.82545
  outer loop
   vertex -0.091134 0.240769 0.009698
   vertex -0.092905 0.233607 0.009275
   vertex -0.100982 0.236024 0.00356
  endloop
 endfacet
 facet normal -0.0909607 -0.956814 -0.276105
  outer loop
   vertex -0.100982 0.236024 0.00356
   vertex -0.092905 0.233607 0.009275
   vertex -0.096003 0.23187 0.016315
  endloop
 endfacet
 facet normal 0.307184 -0.0895692 -0.947426
  outer loop
   vertex -0.073278 0.237277 -0.018364
   vertex -0.068488 0.236643 -0.016751
   vertex -0.074492 0.232225 -0.01828
  endloop
 endfacet
 facet normal 0.0831531 -0.03654 -0.995867
  outer loop
   vertex -0.073278 0.237277 -0.018364
   vertex -0.074492 0.232225 -0.01828
   vertex -0.08483 0.232492 -0.019153
  endloop
 endfacet
 facet normal 0.0241744 -0.187076 -0.982048
  outer loop
   vertex -0.090033 0.231599 -0.01811
   vertex -0.087736 0.240064 -0.019666
   vertex -0.083135 0.23869 -0.019291
  endloop
 endfacet
 facet normal -0.201955 0.033436 -0.978824
  outer loop
   vertex -0.08483 0.232492 -0.019153
   vertex -0.090033 0.231599 -0.01811
   vertex -0.083135 0.23869 -0.019291
  endloop
 endfacet
 facet normal -0.219748 -0.755865 -0.616749
  outer loop
   vertex -0.093106 0.234037 -0.020003
   vertex -0.090033 0.231599 -0.01811
   vertex -0.096003 0.23187 -0.016315
  endloop
 endfacet
 facet normal -0.0191478 -0.628124 -0.777877
  outer loop
   vertex -0.090033 0.231599 -0.01811
   vertex -0.093106 0.234037 -0.020003
   vertex -0.091519 0.238837 -0.023918
  endloop
 endfacet
 facet normal 0.752867 -0.310924 -0.580101
  outer loop
   vertex -0.087736 0.240064 -0.019666
   vertex -0.090033 0.231599 -0.01811
   vertex -0.091519 0.238837 -0.023918
  endloop
 endfacet
 facet normal 0.0247434 -0.973065 0.229199
  outer loop
   vertex -0.092905 0.233607 -0.009275
   vertex -0.096003 0.23187 -0.016315
   vertex -0.090033 0.231599 -0.01811
  endloop
 endfacet
 facet normal 0.0870017 -0.0459499 -0.995148
  outer loop
   vertex -0.083135 0.23869 -0.019291
   vertex -0.073278 0.237277 -0.018364
   vertex -0.08483 0.232492 -0.019153
  endloop
 endfacet
 facet normal 0.557421 -0.0890071 0.825445
  outer loop
   vertex -0.100982 0.236024 -0.00356
   vertex -0.092905 0.233607 -0.009275
   vertex -0.091135 0.240769 -0.009698
  endloop
 endfacet
 facet normal -0.0909607 -0.956814 0.276105
  outer loop
   vertex -0.096003 0.23187 -0.016315
   vertex -0.092905 0.233607 -0.009275
   vertex -0.100982 0.236024 -0.00356
  endloop
 endfacet
 facet normal 0.998118 -0.0172853 0.0588424
  outer loop
   vertex -0.060611 0.243655 2.9e-05
   vertex -0.061299 0.239501 0.010479
   vertex -0.060678 0.239786 2.9e-05
  endloop
 endfacet
 facet normal 0.998137 -0.0172857 -0.0585187
  outer loop
   vertex -0.060678 0.239786 2.9e-05
   vertex -0.061299 0.239501 -0.010479
   vertex -0.060611 0.243655 2.9e-05
  endloop
 endfacet
 facet normal 0.996501 0.0306159 0.0777772
  outer loop
   vertex -0.060611 0.243655 2.9e-05
   vertex -0.061438 0.243535 0.010672
   vertex -0.061299 0.239501 0.010479
  endloop
 endfacet
 facet normal 0.817563 0.000621205 0.575839
  outer loop
   vertex -0.066407 0.239715 0.017731
   vertex -0.061299 0.239501 0.010479
   vertex -0.061438 0.243535 0.010672
  endloop
 endfacet
 facet normal 0.650388 -0.592296 0.475584
  outer loop
   vertex -0.068488 0.236643 0.016751
   vertex -0.061299 0.239501 0.010479
   vertex -0.066407 0.239715 0.017731
  endloop
 endfacet
 facet normal 0.234794 -0.436174 0.868691
  outer loop
   vertex -0.073278 0.237277 0.018364
   vertex -0.068488 0.236643 0.016751
   vertex -0.066407 0.239715 0.017731
  endloop
 endfacet
 facet normal 0.996533 0.030637 -0.0773584
  outer loop
   vertex -0.061299 0.239501 -0.010479
   vertex -0.061438 0.243535 -0.010672
   vertex -0.060611 0.243655 2.9e-05
  endloop
 endfacet
 facet normal 0.817563 0.000621205 -0.575839
  outer loop
   vertex -0.061438 0.243535 -0.010672
   vertex -0.061299 0.239501 -0.010479
   vertex -0.066407 0.239715 -0.017731
  endloop
 endfacet
 facet normal 0.650388 -0.592296 -0.475584
  outer loop
   vertex -0.066407 0.239715 -0.017731
   vertex -0.061299 0.239501 -0.010479
   vertex -0.068488 0.236643 -0.016751
  endloop
 endfacet
 facet normal 0.234794 -0.436174 -0.868691
  outer loop
   vertex -0.066407 0.239715 -0.017731
   vertex -0.068488 0.236643 -0.016751
   vertex -0.073278 0.237277 -0.018364
  endloop
 endfacet
 facet normal 0.288853 -0.626004 0.724351
  outer loop
   vertex -0.073278 0.237277 0.018364
   vertex -0.066407 0.239715 0.017731
   vertex -0.072424 0.239917 0.020305
  endloop
 endfacet
 facet normal -0.00875369 -0.590494 0.806994
  outer loop
   vertex -0.083135 0.23869 0.019291
   vertex -0.073278 0.237277 0.018364
   vertex -0.072424 0.239917 0.020305
  endloop
 endfacet
 facet normal -0.993532 0.00432756 -0.113469
  outer loop
   vertex -0.08851 0.240194 7e-06
   vertex -0.089225 0.240179 0.006267
   vertex -0.089394 0.24653 0.007989
  endloop
 endfacet
 facet normal -0.825041 0.257006 -0.503245
  outer loop
   vertex -0.089225 0.240179 0.006267
   vertex -0.091134 0.240769 0.009698
   vertex -0.090216 0.245116 0.010413
  endloop
 endfacet
 facet normal -0.954791 0.0538624 -0.292358
  outer loop
   vertex -0.089225 0.240179 0.006267
   vertex -0.090216 0.245116 0.010413
   vertex -0.089394 0.24653 0.007989
  endloop
 endfacet
 facet normal 0.51779 0.0312749 -0.854936
  outer loop
   vertex -0.100982 0.236024 0.00356
   vertex -0.090216 0.245116 0.010413
   vertex -0.091134 0.240769 0.009698
  endloop
 endfacet
 facet normal -0.970325 0.125215 -0.206857
  outer loop
   vertex -0.08851 0.240194 7e-06
   vertex -0.089394 0.24653 0.007989
   vertex -0.087819 0.245552 9e-06
  endloop
 endfacet
 facet normal -0.993561 0.00425908 0.113219
  outer loop
   vertex -0.089394 0.24653 -0.007989
   vertex -0.089225 0.240179 -0.006267
   vertex -0.08851 0.240194 7e-06
  endloop
 endfacet
 facet normal -0.970441 0.125076 0.206398
  outer loop
   vertex -0.087819 0.245552 9e-06
   vertex -0.089394 0.24653 -0.007989
   vertex -0.08851 0.240194 7e-06
  endloop
 endfacet
 facet normal -0.824873 0.257191 0.503425
  outer loop
   vertex -0.090216 0.245116 -0.010413
   vertex -0.091135 0.240769 -0.009698
   vertex -0.089225 0.240179 -0.006267
  endloop
 endfacet
 facet normal -0.954791 0.0538624 0.292358
  outer loop
   vertex -0.089394 0.24653 -0.007989
   vertex -0.090216 0.245116 -0.010413
   vertex -0.089225 0.240179 -0.006267
  endloop
 endfacet
 facet normal 0.517882 0.0311272 0.854885
  outer loop
   vertex -0.091135 0.240769 -0.009698
   vertex -0.090216 0.245116 -0.010413
   vertex -0.100982 0.236024 -0.00356
  endloop
 endfacet
 facet normal -0.0277576 -0.481591 0.875956
  outer loop
   vertex -0.083135 0.23869 0.019291
   vertex -0.072424 0.239917 0.020305
   vertex -0.080775 0.242179 0.021284
  endloop
 endfacet
 facet normal -0.0655807 -0.461122 0.88491
  outer loop
   vertex -0.080775 0.242179 0.021284
   vertex -0.087736 0.240064 0.019666
   vertex -0.083135 0.23869 0.019291
  endloop
 endfacet
 facet normal -0.341818 0.532765 0.774159
  outer loop
   vertex -0.080775 0.242179 0.021284
   vertex -0.085917 0.242193 0.019004
   vertex -0.087736 0.240064 0.019666
  endloop
 endfacet
 facet normal 0.473704 0.639142 0.605889
  outer loop
   vertex -0.094593 0.245731 0.019049
   vertex -0.091519 0.238837 0.023918
   vertex -0.087736 0.240064 0.019666
  endloop
 endfacet
 facet normal 0.0950162 0.220656 0.970713
  outer loop
   vertex -0.094593 0.245731 0.019049
   vertex -0.087736 0.240064 0.019666
   vertex -0.085917 0.242193 0.019004
  endloop
 endfacet
 facet normal -0.466997 -0.788396 0.400431
  outer loop
   vertex -0.103935 0.239496 0.022079
   vertex -0.102363 0.235685 0.016409
   vertex -0.096003 0.23187 0.016315
  endloop
 endfacet
 facet normal -0.761279 -0.415677 -0.497661
  outer loop
   vertex -0.103935 0.239496 0.022079
   vertex -0.096003 0.23187 0.016315
   vertex -0.099828 0.230133 0.023617
  endloop
 endfacet
 facet normal -0.615039 -0.366203 0.6983
  outer loop
   vertex -0.096003 0.23187 0.016315
   vertex -0.093106 0.234037 0.020003
   vertex -0.091519 0.238837 0.023918
  endloop
 endfacet
 facet normal 0.704041 -0.679256 0.207215
  outer loop
   vertex -0.096003 0.23187 0.016315
   vertex -0.091519 0.238837 0.023918
   vertex -0.099828 0.230133 0.023617
  endloop
 endfacet
 facet normal -0.462861 -0.781923 0.417561
  outer loop
   vertex -0.096003 0.23187 0.016315
   vertex -0.102363 0.235685 0.016409
   vertex -0.098063 0.229747 0.010056
  endloop
 endfacet
 facet normal 0.937267 0.0863179 -0.337757
  outer loop
   vertex -0.096003 0.23187 0.016315
   vertex -0.098063 0.229747 0.010056
   vertex -0.100982 0.236024 0.00356
  endloop
 endfacet
 facet normal -0.126134 -0.287868 0.949327
  outer loop
   vertex -0.091519 0.238837 0.023918
   vertex -0.098796 0.238055 0.022714
   vertex -0.100754 0.232103 0.020649
  endloop
 endfacet
 facet normal -0.607927 0.560904 0.56197
  outer loop
   vertex -0.091519 0.238837 0.023918
   vertex -0.100754 0.232103 0.020649
   vertex -0.099828 0.230133 0.023617
  endloop
 endfacet
 facet normal -0.193456 0.50698 0.839968
  outer loop
   vertex -0.094593 0.245731 0.019049
   vertex -0.098796 0.238055 0.022714
   vertex -0.091519 0.238837 0.023918
  endloop
 endfacet
 facet normal 0.948208 -0.281306 0.147541
  outer loop
   vertex -0.101822 0.231327 3e-06
   vertex -0.100982 0.236024 0.00356
   vertex -0.105605 0.221135 0.004883
  endloop
 endfacet
 facet normal 0.429952 0.494939 -0.755101
  outer loop
   vertex -0.100982 0.236024 0.00356
   vertex -0.101822 0.231327 3e-06
   vertex -0.109286 0.237814 5e-06
  endloop
 endfacet
 facet normal 0.418023 0.619305 -0.664619
  outer loop
   vertex -0.100982 0.236024 0.00356
   vertex -0.109286 0.237814 5e-06
   vertex -0.102901 0.241407 0.007369
  endloop
 endfacet
 facet normal 0.741458 -0.284231 -0.607826
  outer loop
   vertex -0.098063 0.229747 0.010056
   vertex -0.105605 0.221135 0.004883
   vertex -0.100982 0.236024 0.00356
  endloop
 endfacet
 facet normal 0.0243188 0.583209 -0.811958
  outer loop
   vertex -0.100982 0.236024 0.00356
   vertex -0.102901 0.241407 0.007369
   vertex -0.090216 0.245116 0.010413
  endloop
 endfacet
 facet normal 0.288853 -0.626004 -0.724351
  outer loop
   vertex -0.072424 0.239917 -0.020305
   vertex -0.066407 0.239715 -0.017731
   vertex -0.073278 0.237277 -0.018364
  endloop
 endfacet
 facet normal -0.00875369 -0.590494 -0.806994
  outer loop
   vertex -0.072424 0.239917 -0.020305
   vertex -0.073278 0.237277 -0.018364
   vertex -0.083135 0.23869 -0.019291
  endloop
 endfacet
 facet normal -0.341818 0.532765 -0.774159
  outer loop
   vertex -0.087736 0.240064 -0.019666
   vertex -0.085917 0.242193 -0.019004
   vertex -0.080775 0.242179 -0.021284
  endloop
 endfacet
 facet normal -0.0655807 -0.461122 -0.88491
  outer loop
   vertex -0.083135 0.23869 -0.019291
   vertex -0.087736 0.240064 -0.019666
   vertex -0.080775 0.242179 -0.021284
  endloop
 endfacet
 facet normal 0.473704 0.639142 -0.605889
  outer loop
   vertex -0.087736 0.240064 -0.019666
   vertex -0.091519 0.238837 -0.023918
   vertex -0.094593 0.245731 -0.019049
  endloop
 endfacet
 facet normal 0.0950162 0.220656 -0.970713
  outer loop
   vertex -0.085917 0.242193 -0.019004
   vertex -0.087736 0.240064 -0.019666
   vertex -0.094593 0.245731 -0.019049
  endloop
 endfacet
 facet normal -0.0277576 -0.481591 -0.875956
  outer loop
   vertex -0.080775 0.242179 -0.021284
   vertex -0.072424 0.239917 -0.020305
   vertex -0.083135 0.23869 -0.019291
  endloop
 endfacet
 facet normal -0.615039 -0.366203 -0.6983
  outer loop
   vertex -0.091519 0.238837 -0.023918
   vertex -0.093106 0.234037 -0.020003
   vertex -0.096003 0.23187 -0.016315
  endloop
 endfacet
 facet normal -0.466997 -0.788396 -0.400431
  outer loop
   vertex -0.096003 0.23187 -0.016315
   vertex -0.102363 0.235685 -0.016409
   vertex -0.103935 0.239496 -0.022079
  endloop
 endfacet
 facet normal -0.761279 -0.415677 0.497661
  outer loop
   vertex -0.099828 0.230133 -0.023617
   vertex -0.096003 0.23187 -0.016315
   vertex -0.103935 0.239496 -0.022079
  endloop
 endfacet
 facet normal 0.704041 -0.679256 -0.207215
  outer loop
   vertex -0.099828 0.230133 -0.023617
   vertex -0.091519 0.238837 -0.023918
   vertex -0.096003 0.23187 -0.016315
  endloop
 endfacet
 facet normal -0.462861 -0.781923 -0.417561
  outer loop
   vertex -0.098063 0.229747 -0.010056
   vertex -0.102363 0.235685 -0.016409
   vertex -0.096003 0.23187 -0.016315
  endloop
 endfacet
 facet normal 0.937267 0.0863179 0.337757
  outer loop
   vertex -0.100982 0.236024 -0.00356
   vertex -0.098063 0.229747 -0.010056
   vertex -0.096003 0.23187 -0.016315
  endloop
 endfacet
 facet normal -0.126134 -0.287868 -0.949327
  outer loop
   vertex -0.100754 0.232103 -0.020649
   vertex -0.098796 0.238055 -0.022714
   vertex -0.091519 0.238837 -0.023918
  endloop
 endfacet
 facet normal -0.607927 0.560904 -0.56197
  outer loop
   vertex -0.099828 0.230133 -0.023617
   vertex -0.100754 0.232103 -0.020649
   vertex -0.091519 0.238837 -0.023918
  endloop
 endfacet
 facet normal -0.193456 0.50698 -0.839968
  outer loop
   vertex -0.091519 0.238837 -0.023918
   vertex -0.098796 0.238055 -0.022714
   vertex -0.094593 0.245731 -0.019049
  endloop
 endfacet
 facet normal 0.948234 -0.281333 -0.147322
  outer loop
   vertex -0.105605 0.221135 -0.004883
   vertex -0.100982 0.236024 -0.00356
   vertex -0.101822 0.231327 3e-06
  endloop
 endfacet
 facet normal 0.430663 0.495293 0.754463
  outer loop
   vertex -0.109286 0.237814 5e-06
   vertex -0.101822 0.231327 3e-06
   vertex -0.100982 0.236024 -0.00356
  endloop
 endfacet
 facet normal 0.418658 0.619271 0.664251
  outer loop
   vertex -0.102901 0.241407 -0.007369
   vertex -0.109286 0.237814 5e-06
   vertex -0.100982 0.236024 -0.00356
  endloop
 endfacet
 facet normal 0.741458 -0.284231 0.607826
  outer loop
   vertex -0.100982 0.236024 -0.00356
   vertex -0.105605 0.221135 -0.004883
   vertex -0.098063 0.229747 -0.010056
  endloop
 endfacet
 facet normal 0.0243188 0.583209 0.811958
  outer loop
   vertex -0.090216 0.245116 -0.010413
   vertex -0.102901 0.241407 -0.007369
   vertex -0.100982 0.236024 -0.00356
  endloop
 endfacet
 facet normal 0.122325 0.992274 0.0206929
  outer loop
   vertex -0.061438 0.243535 0.010672
   vertex -0.060611 0.243655 2.9e-05
   vertex -0.075509 0.245492 9e-06
  endloop
 endfacet
 facet normal 0.12238 0.99227 -0.020585
  outer loop
   vertex -0.075509 0.245492 9e-06
   vertex -0.060611 0.243655 2.9e-05
   vertex -0.061438 0.243535 -0.010672
  endloop
 endfacet
 facet normal 0.828002 -0.0440951 0.558989
  outer loop
   vertex -0.066407 0.239715 0.017731
   vertex -0.061438 0.243535 0.010672
   vertex -0.066349 0.24391 0.017976
  endloop
 endfacet
 facet normal 0.117053 0.992738 0.0277341
  outer loop
   vertex -0.066349 0.24391 0.017976
   vertex -0.061438 0.243535 0.010672
   vertex -0.075509 0.245492 9e-06
  endloop
 endfacet
 facet normal 0.386585 -0.126163 0.913584
  outer loop
   vertex -0.073136 0.244839 0.021286
   vertex -0.072424 0.239917 0.020305
   vertex -0.066407 0.239715 0.017731
  endloop
 endfacet
 facet normal 0.431108 -0.0585468 0.900399
  outer loop
   vertex -0.073136 0.244839 0.021286
   vertex -0.066407 0.239715 0.017731
   vertex -0.066349 0.24391 0.017976
  endloop
 endfacet
 facet normal 0.828002 -0.0440951 -0.558989
  outer loop
   vertex -0.066349 0.24391 -0.017976
   vertex -0.061438 0.243535 -0.010672
   vertex -0.066407 0.239715 -0.017731
  endloop
 endfacet
 facet normal 0.11703 0.992741 -0.0277184
  outer loop
   vertex -0.075509 0.245492 9e-06
   vertex -0.061438 0.243535 -0.010672
   vertex -0.066349 0.24391 -0.017976
  endloop
 endfacet
 facet normal 0.386585 -0.126163 -0.913584
  outer loop
   vertex -0.066407 0.239715 -0.017731
   vertex -0.072424 0.239917 -0.020305
   vertex -0.073136 0.244839 -0.021286
  endloop
 endfacet
 facet normal 0.431108 -0.0585468 -0.900399
  outer loop
   vertex -0.066349 0.24391 -0.017976
   vertex -0.066407 0.239715 -0.017731
   vertex -0.073136 0.244839 -0.021286
  endloop
 endfacet
 facet normal 0.116928 0.00185046 0.993139
  outer loop
   vertex -0.081948 0.245455 0.021416
   vertex -0.080775 0.242179 0.021284
   vertex -0.072424 0.239917 0.020305
  endloop
 endfacet
 facet normal 0.000812372 -0.195351 0.980733
  outer loop
   vertex -0.081948 0.245455 0.021416
   vertex -0.072424 0.239917 0.020305
   vertex -0.073136 0.244839 0.021286
  endloop
 endfacet
 facet normal 0.388411 0.863473 0.321795
  outer loop
   vertex -0.101398 0.249214 0.015276
   vertex -0.091633 0.245496 0.013466
   vertex -0.089394 0.24653 0.007989
  endloop
 endfacet
 facet normal -0.0257806 0.92354 -0.382633
  outer loop
   vertex -0.089394 0.24653 0.007989
   vertex -0.101279 0.246869 0.009608
   vertex -0.101398 0.249214 0.015276
  endloop
 endfacet
 facet normal -0.112041 0.405209 -0.907333
  outer loop
   vertex -0.089394 0.24653 0.007989
   vertex -0.102901 0.241407 0.007369
   vertex -0.101279 0.246869 0.009608
  endloop
 endfacet
 facet normal 0.342814 -0.857384 -0.38389
  outer loop
   vertex -0.102901 0.241407 0.007369
   vertex -0.089394 0.24653 0.007989
   vertex -0.090216 0.245116 0.010413
  endloop
 endfacet
 facet normal 0.00483895 0.992677 -0.120703
  outer loop
   vertex -0.087819 0.245552 9e-06
   vertex -0.089394 0.24653 0.007989
   vertex -0.075509 0.245492 9e-06
  endloop
 endfacet
 facet normal 0.104253 0.993179 0.0522101
  outer loop
   vertex -0.089394 0.24653 0.007989
   vertex -0.087567 0.245899 0.016344
   vertex -0.075509 0.245492 9e-06
  endloop
 endfacet
 facet normal -0.176513 0.977854 0.112448
  outer loop
   vertex -0.091633 0.245496 0.013466
   vertex -0.087567 0.245899 0.016344
   vertex -0.089394 0.24653 0.007989
  endloop
 endfacet
 facet normal 0.00483911 0.992709 0.120435
  outer loop
   vertex -0.075509 0.245492 9e-06
   vertex -0.089394 0.24653 -0.007989
   vertex -0.087819 0.245552 9e-06
  endloop
 endfacet
 facet normal 0.388411 0.863473 -0.321795
  outer loop
   vertex -0.089394 0.24653 -0.007989
   vertex -0.091633 0.245496 -0.013466
   vertex -0.101398 0.249214 -0.015276
  endloop
 endfacet
 facet normal -0.0257806 0.92354 0.382633
  outer loop
   vertex -0.101398 0.249214 -0.015276
   vertex -0.101279 0.246869 -0.009608
   vertex -0.089394 0.24653 -0.007989
  endloop
 endfacet
 facet normal -0.112041 0.405209 0.907333
  outer loop
   vertex -0.101279 0.246869 -0.009608
   vertex -0.102901 0.241407 -0.007369
   vertex -0.089394 0.24653 -0.007989
  endloop
 endfacet
 facet normal 0.342814 -0.857384 0.38389
  outer loop
   vertex -0.090216 0.245116 -0.010413
   vertex -0.089394 0.24653 -0.007989
   vertex -0.102901 0.241407 -0.007369
  endloop
 endfacet
 facet normal 0.104313 0.993174 -0.0521966
  outer loop
   vertex -0.075509 0.245492 9e-06
   vertex -0.087567 0.245899 -0.016344
   vertex -0.089394 0.24653 -0.007989
  endloop
 endfacet
 facet normal -0.176513 0.977854 -0.112448
  outer loop
   vertex -0.089394 0.24653 -0.007989
   vertex -0.087567 0.245899 -0.016344
   vertex -0.091633 0.245496 -0.013466
  endloop
 endfacet
 facet normal -0.399195 -0.179166 0.89919
  outer loop
   vertex -0.081948 0.245455 0.021416
   vertex -0.085917 0.242193 0.019004
   vertex -0.080775 0.242179 0.021284
  endloop
 endfacet
 facet normal 0.263593 0.637181 0.724237
  outer loop
   vertex -0.087567 0.245899 0.016344
   vertex -0.094593 0.245731 0.019049
   vertex -0.085917 0.242193 0.019004
  endloop
 endfacet
 facet normal -0.640151 0.239033 0.730116
  outer loop
   vertex -0.081948 0.245455 0.021416
   vertex -0.087567 0.245899 0.016344
   vertex -0.085917 0.242193 0.019004
  endloop
 endfacet
 facet normal -0.050224 0.996382 -0.068566
  outer loop
   vertex -0.087567 0.245899 0.016344
   vertex -0.091633 0.245496 0.013466
   vertex -0.094593 0.245731 0.019049
  endloop
 endfacet
 facet normal -0.0186418 0.439089 0.89825
  outer loop
   vertex -0.094593 0.245731 0.019049
   vertex -0.100811 0.242961 0.020274
   vertex -0.098796 0.238055 0.022714
  endloop
 endfacet
 facet normal -0.207637 0.74595 0.632807
  outer loop
   vertex -0.100811 0.242961 0.020274
   vertex -0.094593 0.245731 0.019049
   vertex -0.099732 0.245562 0.017562
  endloop
 endfacet
 facet normal -0.0179248 0.998511 -0.0515312
  outer loop
   vertex -0.099732 0.245562 0.017562
   vertex -0.094593 0.245731 0.019049
   vertex -0.091633 0.245496 0.013466
  endloop
 endfacet
 facet normal -0.422991 -0.829366 0.365007
  outer loop
   vertex -0.114146 0.249603 0.033211
   vertex -0.108995 0.241222 0.020137
   vertex -0.103935 0.239496 0.022079
  endloop
 endfacet
 facet normal -0.432724 -0.79919 0.417188
  outer loop
   vertex -0.108995 0.241222 0.020137
   vertex -0.102363 0.235685 0.016409
   vertex -0.103935 0.239496 0.022079
  endloop
 endfacet
 facet normal 0.24818 0.262054 0.932596
  outer loop
   vertex -0.103935 0.239496 0.022079
   vertex -0.099828 0.230133 0.023617
   vertex -0.100811 0.242961 0.020274
  endloop
 endfacet
 facet normal 0.191227 0.312326 0.930529
  outer loop
   vertex -0.103583 0.244545 0.020312
   vertex -0.103935 0.239496 0.022079
   vertex -0.100811 0.242961 0.020274
  endloop
 endfacet
 facet normal 0.793031 0.151233 0.590111
  outer loop
   vertex -0.114146 0.249603 0.033211
   vertex -0.103935 0.239496 0.022079
   vertex -0.103583 0.244545 0.020312
  endloop
 endfacet
 facet normal -0.551781 0.385344 0.739627
  outer loop
   vertex -0.113794 0.227645 0.01207
   vertex -0.109474 0.228637 0.014776
   vertex -0.102363 0.235685 0.016409
  endloop
 endfacet
 facet normal 0.54696 0.095128 0.831737
  outer loop
   vertex -0.108995 0.241222 0.020137
   vertex -0.115149 0.241239 0.024182
   vertex -0.102363 0.235685 0.016409
  endloop
 endfacet
 facet normal 0.365408 -0.543729 0.755536
  outer loop
   vertex -0.102363 0.235685 0.016409
   vertex -0.109474 0.228637 0.014776
   vertex -0.098063 0.229747 0.010056
  endloop
 endfacet
 facet normal -0.510629 0.288971 0.809786
  outer loop
   vertex -0.102363 0.235685 0.016409
   vertex -0.107428 0.238796 0.012105
   vertex -0.113794 0.227645 0.01207
  endloop
 endfacet
 facet normal -0.45117 -0.885723 -0.10927
  outer loop
   vertex -0.102363 0.235685 0.016409
   vertex -0.115149 0.241239 0.024182
   vertex -0.107428 0.238796 0.012105
  endloop
 endfacet
 facet normal 0.95358 -0.00539309 -0.301092
  outer loop
   vertex -0.099828 0.230133 0.023617
   vertex -0.100754 0.232103 0.020649
   vertex -0.100811 0.242961 0.020274
  endloop
 endfacet
 facet normal 0.79968 -0.519728 -0.300657
  outer loop
   vertex -0.105605 0.221135 0.004883
   vertex -0.098063 0.229747 0.010056
   vertex -0.098661 0.228017 0.011456
  endloop
 endfacet
 facet normal 0.0974952 0.605492 0.789857
  outer loop
   vertex -0.113798 0.224168 0.016275
   vertex -0.098661 0.228017 0.011456
   vertex -0.098063 0.229747 0.010056
  endloop
 endfacet
 facet normal 0.386857 -0.0657879 0.91979
  outer loop
   vertex -0.113798 0.224168 0.016275
   vertex -0.098063 0.229747 0.010056
   vertex -0.109474 0.228637 0.014776
  endloop
 endfacet
 facet normal 0.515544 0.541871 0.66377
  outer loop
   vertex -0.100811 0.242961 0.020274
   vertex -0.102523 0.23865 0.025123
   vertex -0.098796 0.238055 0.022714
  endloop
 endfacet
 facet normal 0.444185 -0.420581 0.791082
  outer loop
   vertex -0.102523 0.23865 0.025123
   vertex -0.100754 0.232103 0.020649
   vertex -0.098796 0.238055 0.022714
  endloop
 endfacet
 facet normal -0.346617 -0.591274 0.728184
  outer loop
   vertex -0.102523 0.23865 0.025123
   vertex -0.104178 0.236896 0.022911
   vertex -0.100754 0.232103 0.020649
  endloop
 endfacet
 facet normal -0.574957 -0.0247795 -0.817808
  outer loop
   vertex -0.104178 0.236896 0.022911
   vertex -0.104903 0.243058 0.023234
   vertex -0.100754 0.232103 0.020649
  endloop
 endfacet
 facet normal -0.586298 -0.0310351 -0.809501
  outer loop
   vertex -0.100754 0.232103 0.020649
   vertex -0.104903 0.243058 0.023234
   vertex -0.100811 0.242961 0.020274
  endloop
 endfacet
 facet normal 0.467258 -0.516878 -0.717292
  outer loop
   vertex -0.101822 0.231327 3e-06
   vertex -0.105605 0.221135 0.004883
   vertex -0.107999 0.225743 3e-06
  endloop
 endfacet
 facet normal 0.467553 -0.517205 0.716864
  outer loop
   vertex -0.107999 0.225743 3e-06
   vertex -0.105605 0.221135 -0.004883
   vertex -0.101822 0.231327 3e-06
  endloop
 endfacet
 facet normal -0.686323 -0.666017 -0.292202
  outer loop
   vertex -0.107999 0.225743 3e-06
   vertex -0.105605 0.221135 0.004883
   vertex -0.105379 0.220237 0.006399
  endloop
 endfacet
 facet normal 0.807446 -0.446912 -0.385099
  outer loop
   vertex -0.105605 0.221135 0.004883
   vertex -0.098661 0.228017 0.011456
   vertex -0.105379 0.220237 0.006399
  endloop
 endfacet
 facet normal -0.649811 0.706759 0.279708
  outer loop
   vertex -0.120128 0.227846 4e-06
   vertex -0.110467 0.234857 0.004733
   vertex -0.109286 0.237814 5e-06
  endloop
 endfacet
 facet normal -0.146513 0.854728 0.49797
  outer loop
   vertex -0.109286 0.237814 5e-06
   vertex -0.110467 0.234857 0.004733
   vertex -0.106741 0.233636 0.007925
  endloop
 endfacet
 facet normal -0.960969 -0.0884503 0.262136
  outer loop
   vertex -0.109286 0.237814 5e-06
   vertex -0.106741 0.233636 0.007925
   vertex -0.106534 0.237338 0.009933
  endloop
 endfacet
 facet normal -0.65645 0.722602 0.21661
  outer loop
   vertex -0.106534 0.237338 0.009933
   vertex -0.102901 0.241407 0.007369
   vertex -0.109286 0.237814 5e-06
  endloop
 endfacet
 facet normal -0.649887 0.706897 -0.279185
  outer loop
   vertex -0.109286 0.237814 5e-06
   vertex -0.110467 0.234857 -0.004733
   vertex -0.120128 0.227846 4e-06
  endloop
 endfacet
 facet normal -0.14585 0.855189 -0.497372
  outer loop
   vertex -0.106741 0.233636 -0.007925
   vertex -0.110467 0.234857 -0.004733
   vertex -0.109286 0.237814 5e-06
  endloop
 endfacet
 facet normal -0.961045 -0.0883179 -0.2619
  outer loop
   vertex -0.106534 0.237338 -0.009933
   vertex -0.106741 0.233636 -0.007925
   vertex -0.109286 0.237814 5e-06
  endloop
 endfacet
 facet normal -0.656549 0.72257 -0.216418
  outer loop
   vertex -0.109286 0.237814 5e-06
   vertex -0.102901 0.241407 -0.007369
   vertex -0.106534 0.237338 -0.009933
  endloop
 endfacet
 facet normal -0.79792 0.512896 -0.316641
  outer loop
   vertex -0.106534 0.237338 0.009933
   vertex -0.103935 0.24194 0.010838
   vertex -0.102901 0.241407 0.007369
  endloop
 endfacet
 facet normal -0.865602 0.387202 -0.317503
  outer loop
   vertex -0.102901 0.241407 0.007369
   vertex -0.103935 0.24194 0.010838
   vertex -0.101279 0.246869 0.009608
  endloop
 endfacet
 facet normal 0.116928 0.00185046 -0.993139
  outer loop
   vertex -0.072424 0.239917 -0.020305
   vertex -0.080775 0.242179 -0.021284
   vertex -0.081948 0.245455 -0.021416
  endloop
 endfacet
 facet normal 0.000812372 -0.195351 -0.980733
  outer loop
   vertex -0.073136 0.244839 -0.021286
   vertex -0.072424 0.239917 -0.020305
   vertex -0.081948 0.245455 -0.021416
  endloop
 endfacet
 facet normal -0.399195 -0.179166 -0.89919
  outer loop
   vertex -0.080775 0.242179 -0.021284
   vertex -0.085917 0.242193 -0.019004
   vertex -0.081948 0.245455 -0.021416
  endloop
 endfacet
 facet normal 0.263593 0.637181 -0.724237
  outer loop
   vertex -0.085917 0.242193 -0.019004
   vertex -0.094593 0.245731 -0.019049
   vertex -0.087567 0.245899 -0.016344
  endloop
 endfacet
 facet normal -0.640151 0.239033 -0.730116
  outer loop
   vertex -0.085917 0.242193 -0.019004
   vertex -0.087567 0.245899 -0.016344
   vertex -0.081948 0.245455 -0.021416
  endloop
 endfacet
 facet normal -0.050224 0.996382 0.068566
  outer loop
   vertex -0.094593 0.245731 -0.019049
   vertex -0.091633 0.245496 -0.013466
   vertex -0.087567 0.245899 -0.016344
  endloop
 endfacet
 facet normal -0.0186418 0.439089 -0.89825
  outer loop
   vertex -0.098796 0.238055 -0.022714
   vertex -0.100811 0.242961 -0.020274
   vertex -0.094593 0.245731 -0.019049
  endloop
 endfacet
 facet normal -0.207637 0.74595 -0.632807
  outer loop
   vertex -0.099732 0.245562 -0.017562
   vertex -0.094593 0.245731 -0.019049
   vertex -0.100811 0.242961 -0.020274
  endloop
 endfacet
 facet normal -0.0179248 0.998511 0.0515312
  outer loop
   vertex -0.091633 0.245496 -0.013466
   vertex -0.094593 0.245731 -0.019049
   vertex -0.099732 0.245562 -0.017562
  endloop
 endfacet
 facet normal -0.551781 0.385344 -0.739627
  outer loop
   vertex -0.102363 0.235685 -0.016409
   vertex -0.109474 0.228637 -0.014776
   vertex -0.113794 0.227645 -0.01207
  endloop
 endfacet
 facet normal -0.432724 -0.79919 -0.417188
  outer loop
   vertex -0.103935 0.239496 -0.022079
   vertex -0.102363 0.235685 -0.016409
   vertex -0.108995 0.241222 -0.020137
  endloop
 endfacet
 facet normal 0.54696 0.095128 -0.831737
  outer loop
   vertex -0.102363 0.235685 -0.016409
   vertex -0.115149 0.241239 -0.024182
   vertex -0.108995 0.241222 -0.020137
  endloop
 endfacet
 facet normal 0.365408 -0.543729 -0.755536
  outer loop
   vertex -0.098063 0.229747 -0.010056
   vertex -0.109474 0.228637 -0.014776
   vertex -0.102363 0.235685 -0.016409
  endloop
 endfacet
 facet normal -0.510629 0.288971 -0.809786
  outer loop
   vertex -0.113794 0.227645 -0.01207
   vertex -0.107428 0.238796 -0.012105
   vertex -0.102363 0.235685 -0.016409
  endloop
 endfacet
 facet normal -0.45117 -0.885723 0.10927
  outer loop
   vertex -0.107428 0.238796 -0.012105
   vertex -0.115149 0.241239 -0.024182
   vertex -0.102363 0.235685 -0.016409
  endloop
 endfacet
 facet normal -0.422991 -0.829366 -0.365007
  outer loop
   vertex -0.103935 0.239496 -0.022079
   vertex -0.108995 0.241222 -0.020137
   vertex -0.114146 0.249603 -0.033211
  endloop
 endfacet
 facet normal 0.24818 0.262054 -0.932596
  outer loop
   vertex -0.100811 0.242961 -0.020274
   vertex -0.099828 0.230133 -0.023617
   vertex -0.103935 0.239496 -0.022079
  endloop
 endfacet
 facet normal 0.191227 0.312326 -0.930529
  outer loop
   vertex -0.100811 0.242961 -0.020274
   vertex -0.103935 0.239496 -0.022079
   vertex -0.103583 0.244545 -0.020312
  endloop
 endfacet
 facet normal 0.793031 0.151233 -0.590111
  outer loop
   vertex -0.103583 0.244545 -0.020312
   vertex -0.103935 0.239496 -0.022079
   vertex -0.114146 0.249603 -0.033211
  endloop
 endfacet
 facet normal 0.95358 -0.00539309 0.301092
  outer loop
   vertex -0.100811 0.242961 -0.020274
   vertex -0.100754 0.232103 -0.020649
   vertex -0.099828 0.230133 -0.023617
  endloop
 endfacet
 facet normal 0.79968 -0.519728 0.300657
  outer loop
   vertex -0.098661 0.228017 -0.011456
   vertex -0.098063 0.229747 -0.010056
   vertex -0.105605 0.221135 -0.004883
  endloop
 endfacet
 facet normal 0.0974952 0.605492 -0.789857
  outer loop
   vertex -0.098063 0.229747 -0.010056
   vertex -0.098661 0.228017 -0.011456
   vertex -0.113798 0.224168 -0.016275
  endloop
 endfacet
 facet normal 0.386857 -0.0657879 -0.91979
  outer loop
   vertex -0.109474 0.228637 -0.014776
   vertex -0.098063 0.229747 -0.010056
   vertex -0.113798 0.224168 -0.016275
  endloop
 endfacet
 facet normal -0.346617 -0.591274 -0.728184
  outer loop
   vertex -0.100754 0.232103 -0.020649
   vertex -0.104178 0.236896 -0.022911
   vertex -0.102523 0.23865 -0.025123
  endloop
 endfacet
 facet normal 0.444185 -0.420581 -0.791082
  outer loop
   vertex -0.098796 0.238055 -0.022714
   vertex -0.100754 0.232103 -0.020649
   vertex -0.102523 0.23865 -0.025123
  endloop
 endfacet
 facet normal -0.574957 -0.0247795 0.817808
  outer loop
   vertex -0.100754 0.232103 -0.020649
   vertex -0.104903 0.243058 -0.023234
   vertex -0.104178 0.236896 -0.022911
  endloop
 endfacet
 facet normal -0.586298 -0.0310351 0.809501
  outer loop
   vertex -0.100811 0.242961 -0.020274
   vertex -0.104903 0.243058 -0.023234
   vertex -0.100754 0.232103 -0.020649
  endloop
 endfacet
 facet normal 0.515544 0.541871 -0.66377
  outer loop
   vertex -0.098796 0.238055 -0.022714
   vertex -0.102523 0.23865 -0.025123
   vertex -0.100811 0.242961 -0.020274
  endloop
 endfacet
 facet normal -0.685734 -0.666468 0.292557
  outer loop
   vertex -0.105379 0.220237 -0.006399
   vertex -0.105605 0.221135 -0.004883
   vertex -0.107999 0.225743 3e-06
  endloop
 endfacet
 facet normal 0.807446 -0.446912 0.385099
  outer loop
   vertex -0.105379 0.220237 -0.006399
   vertex -0.098661 0.228017 -0.011456
   vertex -0.105605 0.221135 -0.004883
  endloop
 endfacet
 facet normal -0.79792 0.512896 0.316641
  outer loop
   vertex -0.102901 0.241407 -0.007369
   vertex -0.103935 0.24194 -0.010838
   vertex -0.106534 0.237338 -0.009933
  endloop
 endfacet
 facet normal -0.865602 0.387202 0.317503
  outer loop
   vertex -0.101279 0.246869 -0.009608
   vertex -0.103935 0.24194 -0.010838
   vertex -0.102901 0.241407 -0.007369
  endloop
 endfacet
 facet normal 0.142528 0.989685 0.0144778
  outer loop
   vertex -0.073136 0.244839 0.021286
   vertex -0.066349 0.24391 0.017976
   vertex -0.075509 0.245492 9e-06
  endloop
 endfacet
 facet normal 0.070051 0.997283 0.0227943
  outer loop
   vertex -0.081948 0.245455 0.021416
   vertex -0.073136 0.244839 0.021286
   vertex -0.075509 0.245492 9e-06
  endloop
 endfacet
 facet normal 0.0607943 0.99795 0.0200111
  outer loop
   vertex -0.087567 0.245899 0.016344
   vertex -0.081948 0.245455 0.021416
   vertex -0.075509 0.245492 9e-06
  endloop
 endfacet
 facet normal 0.142522 0.989686 -0.0144662
  outer loop
   vertex -0.075509 0.245492 9e-06
   vertex -0.066349 0.24391 -0.017976
   vertex -0.073136 0.244839 -0.021286
  endloop
 endfacet
 facet normal 0.0700507 0.997283 -0.0227751
  outer loop
   vertex -0.075509 0.245492 9e-06
   vertex -0.073136 0.244839 -0.021286
   vertex -0.081948 0.245455 -0.021416
  endloop
 endfacet
 facet normal 0.0608062 0.997949 -0.0199979
  outer loop
   vertex -0.075509 0.245492 9e-06
   vertex -0.081948 0.245455 -0.021416
   vertex -0.087567 0.245899 -0.016344
  endloop
 endfacet
 facet normal 0.362361 0.607673 0.706703
  outer loop
   vertex -0.091633 0.245496 0.013466
   vertex -0.101398 0.249214 0.015276
   vertex -0.099732 0.245562 0.017562
  endloop
 endfacet
 facet normal 0.663931 0.590264 0.459112
  outer loop
   vertex -0.114146 0.249603 0.033211
   vertex -0.099732 0.245562 0.017562
   vertex -0.101398 0.249214 0.015276
  endloop
 endfacet
 facet normal -0.217372 0.960212 -0.175333
  outer loop
   vertex -0.119693 0.247366 0.027837
   vertex -0.114146 0.249603 0.033211
   vertex -0.101398 0.249214 0.015276
  endloop
 endfacet
 facet normal -0.443716 0.714312 -0.541178
  outer loop
   vertex -0.119693 0.247366 0.027837
   vertex -0.101398 0.249214 0.015276
   vertex -0.107679 0.24381 0.013293
  endloop
 endfacet
 facet normal -0.236335 0.564819 -0.790649
  outer loop
   vertex -0.101398 0.249214 0.015276
   vertex -0.103935 0.24194 0.010838
   vertex -0.107679 0.24381 0.013293
  endloop
 endfacet
 facet normal -0.882907 0.427043 -0.195215
  outer loop
   vertex -0.103935 0.24194 0.010838
   vertex -0.101398 0.249214 0.015276
   vertex -0.101279 0.246869 0.009608
  endloop
 endfacet
 facet normal 0.362361 0.607673 -0.706703
  outer loop
   vertex -0.099732 0.245562 -0.017562
   vertex -0.101398 0.249214 -0.015276
   vertex -0.091633 0.245496 -0.013466
  endloop
 endfacet
 facet normal 0.663931 0.590264 -0.459112
  outer loop
   vertex -0.101398 0.249214 -0.015276
   vertex -0.099732 0.245562 -0.017562
   vertex -0.114146 0.249603 -0.033211
  endloop
 endfacet
 facet normal -0.217372 0.960212 0.175333
  outer loop
   vertex -0.101398 0.249214 -0.015276
   vertex -0.114146 0.249603 -0.033211
   vertex -0.119693 0.247366 -0.027837
  endloop
 endfacet
 facet normal -0.443716 0.714312 0.541178
  outer loop
   vertex -0.107679 0.24381 -0.013293
   vertex -0.101398 0.249214 -0.015276
   vertex -0.119693 0.247366 -0.027837
  endloop
 endfacet
 facet normal -0.236335 0.564819 0.790649
  outer loop
   vertex -0.107679 0.24381 -0.013293
   vertex -0.103935 0.24194 -0.010838
   vertex -0.101398 0.249214 -0.015276
  endloop
 endfacet
 facet normal -0.882907 0.427043 0.195215
  outer loop
   vertex -0.101279 0.246869 -0.009608
   vertex -0.101398 0.249214 -0.015276
   vertex -0.103935 0.24194 -0.010838
  endloop
 endfacet
 facet normal 0.496399 0.554315 0.668074
  outer loop
   vertex -0.100811 0.242961 0.020274
   vertex -0.104903 0.243058 0.023234
   vertex -0.102523 0.23865 0.025123
  endloop
 endfacet
 facet normal 0.353254 0.600999 0.716946
  outer loop
   vertex -0.100811 0.242961 0.020274
   vertex -0.099732 0.245562 0.017562
   vertex -0.103583 0.244545 0.020312
  endloop
 endfacet
 facet normal 0.594164 -0.453426 0.66436
  outer loop
   vertex -0.114146 0.249603 0.033211
   vertex -0.103583 0.244545 0.020312
   vertex -0.099732 0.245562 0.017562
  endloop
 endfacet
 facet normal 0.791413 -0.323088 0.518921
  outer loop
   vertex -0.114146 0.249603 0.033211
   vertex -0.117986 0.245958 0.036798
   vertex -0.108995 0.241222 0.020137
  endloop
 endfacet
 facet normal -0.547816 0.804159 0.230708
  outer loop
   vertex -0.117986 0.245958 0.036798
   vertex -0.114146 0.249603 0.033211
   vertex -0.119693 0.247366 0.027837
  endloop
 endfacet
 facet normal -0.0811726 -0.969383 0.23175
  outer loop
   vertex -0.108995 0.241222 0.020137
   vertex -0.117986 0.245958 0.036798
   vertex -0.119817 0.24415 0.028594
  endloop
 endfacet
 facet normal 0.51143 -0.361472 0.779601
  outer loop
   vertex -0.115149 0.241239 0.024182
   vertex -0.108995 0.241222 0.020137
   vertex -0.119817 0.24415 0.028594
  endloop
 endfacet
 facet normal -0.499113 0.668043 0.55191
  outer loop
   vertex -0.113798 0.224168 0.016275
   vertex -0.109474 0.228637 0.014776
   vertex -0.113794 0.227645 0.01207
  endloop
 endfacet
 facet normal -0.659356 -0.0399926 0.750767
  outer loop
   vertex -0.113794 0.227645 0.01207
   vertex -0.116247 0.225436 0.009798
   vertex -0.116615 0.22161 0.009271
  endloop
 endfacet
 facet normal -0.877246 0.20981 0.431764
  outer loop
   vertex -0.113794 0.227645 0.01207
   vertex -0.116615 0.22161 0.009271
   vertex -0.114015 0.218545 0.016043
  endloop
 endfacet
 facet normal -0.998856 0.0373133 0.0299029
  outer loop
   vertex -0.113794 0.227645 0.01207
   vertex -0.114015 0.218545 0.016043
   vertex -0.113798 0.224168 0.016275
  endloop
 endfacet
 facet normal -0.763519 0.598581 0.242364
  outer loop
   vertex -0.116247 0.225436 0.009798
   vertex -0.113794 0.227645 0.01207
   vertex -0.113568 0.229399 0.00845
  endloop
 endfacet
 facet normal -0.854082 0.487014 0.182652
  outer loop
   vertex -0.107428 0.238796 0.012105
   vertex -0.113568 0.229399 0.00845
   vertex -0.113794 0.227645 0.01207
  endloop
 endfacet
 facet normal -0.723065 -0.131736 -0.678102
  outer loop
   vertex -0.115149 0.241239 0.024182
   vertex -0.119817 0.24415 0.028594
   vertex -0.119693 0.247366 0.027837
  endloop
 endfacet
 facet normal -0.77741 -0.226509 -0.586794
  outer loop
   vertex -0.115149 0.241239 0.024182
   vertex -0.119693 0.247366 0.027837
   vertex -0.107679 0.24381 0.013293
  endloop
 endfacet
 facet normal -0.665062 0.524762 -0.531335
  outer loop
   vertex -0.103935 0.24194 0.010838
   vertex -0.107428 0.238796 0.012105
   vertex -0.115149 0.241239 0.024182
  endloop
 endfacet
 facet normal -0.633788 -0.532935 -0.560618
  outer loop
   vertex -0.103935 0.24194 0.010838
   vertex -0.115149 0.241239 0.024182
   vertex -0.107679 0.24381 0.013293
  endloop
 endfacet
 facet normal -0.647766 0.48187 -0.590085
  outer loop
   vertex -0.106534 0.237338 0.009933
   vertex -0.107428 0.238796 0.012105
   vertex -0.103935 0.24194 0.010838
  endloop
 endfacet
 facet normal -0.395522 0.545762 -0.738719
  outer loop
   vertex -0.113568 0.229399 0.00845
   vertex -0.107428 0.238796 0.012105
   vertex -0.106741 0.233636 0.007925
  endloop
 endfacet
 facet normal -0.768865 0.33755 -0.543053
  outer loop
   vertex -0.106741 0.233636 0.007925
   vertex -0.107428 0.238796 0.012105
   vertex -0.106534 0.237338 0.009933
  endloop
 endfacet
 facet normal 0.335341 -0.155447 0.929184
  outer loop
   vertex -0.113798 0.224168 0.016275
   vertex -0.106607 0.218413 0.012717
   vertex -0.098661 0.228017 0.011456
  endloop
 endfacet
 facet normal 0.767698 -0.639827 -0.0355044
  outer loop
   vertex -0.098661 0.228017 0.011456
   vertex -0.106607 0.218413 0.012717
   vertex -0.105379 0.220237 0.006399
  endloop
 endfacet
 facet normal 0.408211 -0.0533539 0.911327
  outer loop
   vertex -0.113798 0.224168 0.016275
   vertex -0.114015 0.218545 0.016043
   vertex -0.106607 0.218413 0.012717
  endloop
 endfacet
 facet normal -0.745846 -0.122079 0.654837
  outer loop
   vertex -0.102523 0.23865 0.025123
   vertex -0.104903 0.243058 0.023234
   vertex -0.104178 0.236896 0.022911
  endloop
 endfacet
 facet normal -0.691721 -0.662648 -0.28709
  outer loop
   vertex -0.107999 0.225743 3e-06
   vertex -0.105379 0.220237 0.006399
   vertex -0.107577 0.223099 0.005089
  endloop
 endfacet
 facet normal 0.790398 -0.514238 -0.332912
  outer loop
   vertex -0.107999 0.225743 3e-06
   vertex -0.107577 0.223099 0.005089
   vertex -0.110748 0.221519 1e-06
  endloop
 endfacet
 facet normal -0.691902 -0.662618 0.286722
  outer loop
   vertex -0.107577 0.223099 -0.005089
   vertex -0.105379 0.220237 -0.006399
   vertex -0.107999 0.225743 3e-06
  endloop
 endfacet
 facet normal 0.79033 -0.514509 0.332654
  outer loop
   vertex -0.110748 0.221519 1e-06
   vertex -0.107577 0.223099 -0.005089
   vertex -0.107999 0.225743 3e-06
  endloop
 endfacet
 facet normal -0.673447 -0.664995 -0.322879
  outer loop
   vertex -0.105379 0.220237 0.006399
   vertex -0.106607 0.218413 0.012717
   vertex -0.107577 0.223099 0.005089
  endloop
 endfacet
 facet normal -0.501837 0.837463 -0.216369
  outer loop
   vertex -0.118512 0.229846 0.003997
   vertex -0.110467 0.234857 0.004733
   vertex -0.120128 0.227846 4e-06
  endloop
 endfacet
 facet normal -0.680879 0.496287 0.538612
  outer loop
   vertex -0.120128 0.227846 4e-06
   vertex -0.127378 0.21792 -1.5e-05
   vertex -0.118393 0.22601 0.003889
  endloop
 endfacet
 facet normal -0.919194 -0.0395465 0.391814
  outer loop
   vertex -0.120128 0.227846 4e-06
   vertex -0.118393 0.22601 0.003889
   vertex -0.118512 0.229846 0.003997
  endloop
 endfacet
 facet normal -0.501916 0.837527 0.215936
  outer loop
   vertex -0.120128 0.227846 4e-06
   vertex -0.110467 0.234857 -0.004733
   vertex -0.118512 0.229846 -0.003997
  endloop
 endfacet
 facet normal -0.680231 0.497874 -0.537966
  outer loop
   vertex -0.118393 0.22601 -0.003889
   vertex -0.127378 0.21792 -1.5e-05
   vertex -0.120128 0.227846 4e-06
  endloop
 endfacet
 facet normal -0.919481 -0.0395365 -0.391141
  outer loop
   vertex -0.118512 0.229846 -0.003997
   vertex -0.118393 0.22601 -0.003889
   vertex -0.120128 0.227846 4e-06
  endloop
 endfacet
 facet normal -0.419287 0.569282 0.707189
  outer loop
   vertex -0.118512 0.229846 0.003997
   vertex -0.106741 0.233636 0.007925
   vertex -0.110467 0.234857 0.004733
  endloop
 endfacet
 facet normal -0.415406 0.735632 0.535055
  outer loop
   vertex -0.118512 0.229846 0.003997
   vertex -0.113568 0.229399 0.00845
   vertex -0.106741 0.233636 0.007925
  endloop
 endfacet
 facet normal -0.419287 0.569282 -0.707189
  outer loop
   vertex -0.110467 0.234857 -0.004733
   vertex -0.106741 0.233636 -0.007925
   vertex -0.118512 0.229846 -0.003997
  endloop
 endfacet
 facet normal -0.415406 0.735632 -0.535055
  outer loop
   vertex -0.106741 0.233636 -0.007925
   vertex -0.113568 0.229399 -0.00845
   vertex -0.118512 0.229846 -0.003997
  endloop
 endfacet
 facet normal -0.395522 0.545762 0.738719
  outer loop
   vertex -0.106741 0.233636 -0.007925
   vertex -0.107428 0.238796 -0.012105
   vertex -0.113568 0.229399 -0.00845
  endloop
 endfacet
 facet normal -0.768865 0.33755 0.543053
  outer loop
   vertex -0.106534 0.237338 -0.009933
   vertex -0.107428 0.238796 -0.012105
   vertex -0.106741 0.233636 -0.007925
  endloop
 endfacet
 facet normal -0.647766 0.48187 0.590085
  outer loop
   vertex -0.103935 0.24194 -0.010838
   vertex -0.107428 0.238796 -0.012105
   vertex -0.106534 0.237338 -0.009933
  endloop
 endfacet
 facet normal 0.496399 0.554315 -0.668074
  outer loop
   vertex -0.102523 0.23865 -0.025123
   vertex -0.104903 0.243058 -0.023234
   vertex -0.100811 0.242961 -0.020274
  endloop
 endfacet
 facet normal 0.353254 0.600999 -0.716946
  outer loop
   vertex -0.103583 0.244545 -0.020312
   vertex -0.099732 0.245562 -0.017562
   vertex -0.100811 0.242961 -0.020274
  endloop
 endfacet
 facet normal 0.594164 -0.453426 -0.66436
  outer loop
   vertex -0.099732 0.245562 -0.017562
   vertex -0.103583 0.244545 -0.020312
   vertex -0.114146 0.249603 -0.033211
  endloop
 endfacet
 facet normal -0.499113 0.668043 -0.55191
  outer loop
   vertex -0.113794 0.227645 -0.01207
   vertex -0.109474 0.228637 -0.014776
   vertex -0.113798 0.224168 -0.016275
  endloop
 endfacet
 facet normal -0.659356 -0.0399926 -0.750767
  outer loop
   vertex -0.116615 0.22161 -0.009271
   vertex -0.116247 0.225436 -0.009798
   vertex -0.113794 0.227645 -0.01207
  endloop
 endfacet
 facet normal -0.877246 0.20981 -0.431764
  outer loop
   vertex -0.114015 0.218545 -0.016043
   vertex -0.116615 0.22161 -0.009271
   vertex -0.113794 0.227645 -0.01207
  endloop
 endfacet
 facet normal -0.998856 0.0373133 -0.0299029
  outer loop
   vertex -0.113798 0.224168 -0.016275
   vertex -0.114015 0.218545 -0.016043
   vertex -0.113794 0.227645 -0.01207
  endloop
 endfacet
 facet normal -0.763519 0.598581 -0.242364
  outer loop
   vertex -0.113568 0.229399 -0.00845
   vertex -0.113794 0.227645 -0.01207
   vertex -0.116247 0.225436 -0.009798
  endloop
 endfacet
 facet normal -0.854082 0.487014 -0.182652
  outer loop
   vertex -0.113794 0.227645 -0.01207
   vertex -0.113568 0.229399 -0.00845
   vertex -0.107428 0.238796 -0.012105
  endloop
 endfacet
 facet normal 0.791413 -0.323088 -0.518921
  outer loop
   vertex -0.108995 0.241222 -0.020137
   vertex -0.117986 0.245958 -0.036798
   vertex -0.114146 0.249603 -0.033211
  endloop
 endfacet
 facet normal -0.0811726 -0.969383 -0.23175
  outer loop
   vertex -0.119817 0.24415 -0.028594
   vertex -0.117986 0.245958 -0.036798
   vertex -0.108995 0.241222 -0.020137
  endloop
 endfacet
 facet normal 0.51143 -0.361472 -0.779601
  outer loop
   vertex -0.119817 0.24415 -0.028594
   vertex -0.108995 0.241222 -0.020137
   vertex -0.115149 0.241239 -0.024182
  endloop
 endfacet
 facet normal -0.723065 -0.131736 0.678102
  outer loop
   vertex -0.119693 0.247366 -0.027837
   vertex -0.119817 0.24415 -0.028594
   vertex -0.115149 0.241239 -0.024182
  endloop
 endfacet
 facet normal -0.77741 -0.226509 0.586794
  outer loop
   vertex -0.107679 0.24381 -0.013293
   vertex -0.119693 0.247366 -0.027837
   vertex -0.115149 0.241239 -0.024182
  endloop
 endfacet
 facet normal -0.665062 0.524762 0.531335
  outer loop
   vertex -0.115149 0.241239 -0.024182
   vertex -0.107428 0.238796 -0.012105
   vertex -0.103935 0.24194 -0.010838
  endloop
 endfacet
 facet normal -0.633788 -0.532935 0.560618
  outer loop
   vertex -0.107679 0.24381 -0.013293
   vertex -0.115149 0.241239 -0.024182
   vertex -0.103935 0.24194 -0.010838
  endloop
 endfacet
 facet normal -0.547816 0.804159 -0.230708
  outer loop
   vertex -0.119693 0.247366 -0.027837
   vertex -0.114146 0.249603 -0.033211
   vertex -0.117986 0.245958 -0.036798
  endloop
 endfacet
 facet normal 0.335341 -0.155447 -0.929184
  outer loop
   vertex -0.098661 0.228017 -0.011456
   vertex -0.106607 0.218413 -0.012717
   vertex -0.113798 0.224168 -0.016275
  endloop
 endfacet
 facet normal 0.767698 -0.639827 0.0355044
  outer loop
   vertex -0.105379 0.220237 -0.006399
   vertex -0.106607 0.218413 -0.012717
   vertex -0.098661 0.228017 -0.011456
  endloop
 endfacet
 facet normal 0.408211 -0.0533539 -0.911327
  outer loop
   vertex -0.106607 0.218413 -0.012717
   vertex -0.114015 0.218545 -0.016043
   vertex -0.113798 0.224168 -0.016275
  endloop
 endfacet
 facet normal -0.745846 -0.122079 -0.654837
  outer loop
   vertex -0.104178 0.236896 -0.022911
   vertex -0.104903 0.243058 -0.023234
   vertex -0.102523 0.23865 -0.025123
  endloop
 endfacet
 facet normal -0.673447 -0.664995 0.322879
  outer loop
   vertex -0.107577 0.223099 -0.005089
   vertex -0.106607 0.218413 -0.012717
   vertex -0.105379 0.220237 -0.006399
  endloop
 endfacet
 facet normal -0.976293 0.0845462 0.199261
  outer loop
   vertex -0.117986 0.245958 0.036798
   vertex -0.119693 0.247366 0.027837
   vertex -0.119817 0.24415 0.028594
  endloop
 endfacet
 facet normal -0.976293 0.0845462 -0.199261
  outer loop
   vertex -0.119817 0.24415 -0.028594
   vertex -0.119693 0.247366 -0.027837
   vertex -0.117986 0.245958 -0.036798
  endloop
 endfacet
 facet normal -0.729251 0.602986 0.323419
  outer loop
   vertex -0.118393 0.22601 0.003889
   vertex -0.116247 0.225436 0.009798
   vertex -0.113568 0.229399 0.00845
  endloop
 endfacet
 facet normal -0.922591 0.0358301 0.384111
  outer loop
   vertex -0.118756 0.222377 0.004057
   vertex -0.116615 0.22161 0.009271
   vertex -0.116247 0.225436 0.009798
  endloop
 endfacet
 facet normal -0.93087 0.109136 0.34867
  outer loop
   vertex -0.118756 0.222377 0.004057
   vertex -0.116247 0.225436 0.009798
   vertex -0.118393 0.22601 0.003889
  endloop
 endfacet
 facet normal -0.434754 -0.837626 0.330714
  outer loop
   vertex -0.117909 0.220499 0.004756
   vertex -0.113014 0.21896 0.007293
   vertex -0.116615 0.22161 0.009271
  endloop
 endfacet
 facet normal -0.900877 -0.284179 0.32812
  outer loop
   vertex -0.117909 0.220499 0.004756
   vertex -0.116615 0.22161 0.009271
   vertex -0.118756 0.222377 0.004057
  endloop
 endfacet
 facet normal -0.627136 -0.77134 -0.108328
  outer loop
   vertex -0.113014 0.21896 0.007293
   vertex -0.114015 0.218545 0.016043
   vertex -0.116615 0.22161 0.009271
  endloop
 endfacet
 facet normal -0.0411409 -0.997798 -0.0520303
  outer loop
   vertex -0.113014 0.21896 0.007293
   vertex -0.106607 0.218413 0.012717
   vertex -0.114015 0.218545 0.016043
  endloop
 endfacet
 facet normal -0.670743 -0.0416566 0.740519
  outer loop
   vertex -0.118393 0.22601 0.003889
   vertex -0.113568 0.229399 0.00845
   vertex -0.118512 0.229846 0.003997
  endloop
 endfacet
 facet normal 0.374203 -0.768181 -0.51949
  outer loop
   vertex -0.107577 0.223099 0.005089
   vertex -0.106607 0.218413 0.012717
   vertex -0.113014 0.21896 0.007293
  endloop
 endfacet
 facet normal 0.185134 -0.640203 -0.745564
  outer loop
   vertex -0.107577 0.223099 0.005089
   vertex -0.113014 0.21896 0.007293
   vertex -0.117909 0.220499 0.004756
  endloop
 endfacet
 facet normal 0.165419 -0.740741 0.651106
  outer loop
   vertex -0.107577 0.223099 0.005089
   vertex -0.117909 0.220499 0.004756
   vertex -0.117965 0.216306 -0
  endloop
 endfacet
 facet normal 0.581837 -0.805489 -0.112487
  outer loop
   vertex -0.110748 0.221519 1e-06
   vertex -0.107577 0.223099 0.005089
   vertex -0.117965 0.216306 -0
  endloop
 endfacet
 facet normal 0.581821 -0.805509 0.112426
  outer loop
   vertex -0.117965 0.216306 -0
   vertex -0.107577 0.223099 -0.005089
   vertex -0.110748 0.221519 1e-06
  endloop
 endfacet
 facet normal 0.374203 -0.768181 0.51949
  outer loop
   vertex -0.113014 0.21896 -0.007293
   vertex -0.106607 0.218413 -0.012717
   vertex -0.107577 0.223099 -0.005089
  endloop
 endfacet
 facet normal 0.185134 -0.640203 0.745564
  outer loop
   vertex -0.117909 0.220499 -0.004756
   vertex -0.113014 0.21896 -0.007293
   vertex -0.107577 0.223099 -0.005089
  endloop
 endfacet
 facet normal 0.165419 -0.740741 -0.651106
  outer loop
   vertex -0.117965 0.216306 -0
   vertex -0.117909 0.220499 -0.004756
   vertex -0.107577 0.223099 -0.005089
  endloop
 endfacet
 facet normal -0.571701 0.657164 0.491216
  outer loop
   vertex -0.127378 0.21792 -1.5e-05
   vertex -0.134191 0.211996 -1.9e-05
   vertex -0.118756 0.222377 0.004057
  endloop
 endfacet
 facet normal -0.461833 0.0869644 0.882693
  outer loop
   vertex -0.127378 0.21792 -1.5e-05
   vertex -0.118756 0.222377 0.004057
   vertex -0.118393 0.22601 0.003889
  endloop
 endfacet
 facet normal -0.570634 0.656601 -0.493206
  outer loop
   vertex -0.118756 0.222377 -0.004057
   vertex -0.134191 0.211996 -1.9e-05
   vertex -0.127378 0.21792 -1.5e-05
  endloop
 endfacet
 facet normal -0.459293 0.0867727 -0.884037
  outer loop
   vertex -0.118393 0.22601 -0.003889
   vertex -0.118756 0.222377 -0.004057
   vertex -0.127378 0.21792 -1.5e-05
  endloop
 endfacet
 facet normal -0.670743 -0.0416566 -0.740519
  outer loop
   vertex -0.118512 0.229846 -0.003997
   vertex -0.113568 0.229399 -0.00845
   vertex -0.118393 0.22601 -0.003889
  endloop
 endfacet
 facet normal -0.729251 0.602986 -0.323419
  outer loop
   vertex -0.113568 0.229399 -0.00845
   vertex -0.116247 0.225436 -0.009798
   vertex -0.118393 0.22601 -0.003889
  endloop
 endfacet
 facet normal -0.93087 0.109136 -0.34867
  outer loop
   vertex -0.118393 0.22601 -0.003889
   vertex -0.116247 0.225436 -0.009798
   vertex -0.118756 0.222377 -0.004057
  endloop
 endfacet
 facet normal -0.922591 0.0358301 -0.384111
  outer loop
   vertex -0.116247 0.225436 -0.009798
   vertex -0.116615 0.22161 -0.009271
   vertex -0.118756 0.222377 -0.004057
  endloop
 endfacet
 facet normal -0.434754 -0.837626 -0.330714
  outer loop
   vertex -0.116615 0.22161 -0.009271
   vertex -0.113014 0.21896 -0.007293
   vertex -0.117909 0.220499 -0.004756
  endloop
 endfacet
 facet normal -0.900877 -0.284179 -0.32812
  outer loop
   vertex -0.118756 0.222377 -0.004057
   vertex -0.116615 0.22161 -0.009271
   vertex -0.117909 0.220499 -0.004756
  endloop
 endfacet
 facet normal -0.627136 -0.77134 0.108328
  outer loop
   vertex -0.116615 0.22161 -0.009271
   vertex -0.114015 0.218545 -0.016043
   vertex -0.113014 0.21896 -0.007293
  endloop
 endfacet
 facet normal -0.0411409 -0.997798 0.0520303
  outer loop
   vertex -0.114015 0.218545 -0.016043
   vertex -0.106607 0.218413 -0.012717
   vertex -0.113014 0.21896 -0.007293
  endloop
 endfacet
 facet normal -0.447001 0.339706 0.82752
  outer loop
   vertex -0.134191 0.211996 -1.9e-05
   vertex -0.126639 0.211137 0.004413
   vertex -0.118756 0.222377 0.004057
  endloop
 endfacet
 facet normal -0.409767 0.150083 0.899759
  outer loop
   vertex -0.120855 0.21441 0.00443
   vertex -0.117909 0.220499 0.004756
   vertex -0.118756 0.222377 0.004057
  endloop
 endfacet
 facet normal -0.0345146 0.0558106 0.997845
  outer loop
   vertex -0.120855 0.21441 0.00443
   vertex -0.118756 0.222377 0.004057
   vertex -0.126639 0.211137 0.004413
  endloop
 endfacet
 facet normal 0.773302 -0.480087 0.41415
  outer loop
   vertex -0.127631 0.203704 0.00344
   vertex -0.117965 0.216306 -0
   vertex -0.117909 0.220499 0.004756
  endloop
 endfacet
 facet normal 0.252036 -0.0702672 -0.965163
  outer loop
   vertex -0.127631 0.203704 0.00344
   vertex -0.117909 0.220499 0.004756
   vertex -0.120855 0.21441 0.00443
  endloop
 endfacet
 facet normal 0.716971 -0.630881 -0.296549
  outer loop
   vertex -0.117965 0.216306 -0
   vertex -0.127631 0.203704 0.00344
   vertex -0.1294 0.203312 -3e-06
  endloop
 endfacet
 facet normal 0.716802 -0.63087 0.296981
  outer loop
   vertex -0.1294 0.203312 -3e-06
   vertex -0.127631 0.203704 -0.00344
   vertex -0.117965 0.216306 -0
  endloop
 endfacet
 facet normal 0.773302 -0.480087 -0.41415
  outer loop
   vertex -0.117909 0.220499 -0.004756
   vertex -0.117965 0.216306 -0
   vertex -0.127631 0.203704 -0.00344
  endloop
 endfacet
 facet normal -0.409767 0.150083 -0.899759
  outer loop
   vertex -0.118756 0.222377 -0.004057
   vertex -0.117909 0.220499 -0.004756
   vertex -0.120855 0.21441 -0.00443
  endloop
 endfacet
 facet normal 0.252036 -0.0702672 0.965163
  outer loop
   vertex -0.120855 0.21441 -0.00443
   vertex -0.117909 0.220499 -0.004756
   vertex -0.127631 0.203704 -0.00344
  endloop
 endfacet
 facet normal -0.185185 0.856614 0.481579
  outer loop
   vertex -0.134191 0.211996 -1.9e-05
   vertex -0.135689 0.209153 0.004462
   vertex -0.126639 0.211137 0.004413
  endloop
 endfacet
 facet normal -0.855749 0.515753 0.0411465
  outer loop
   vertex -0.136588 0.208019 -2.1e-05
   vertex -0.135689 0.209153 0.004462
   vertex -0.134191 0.211996 -1.9e-05
  endloop
 endfacet
 facet normal -0.184795 0.854914 -0.484741
  outer loop
   vertex -0.126639 0.211137 -0.004413
   vertex -0.135689 0.209153 -0.004462
   vertex -0.134191 0.211996 -1.9e-05
  endloop
 endfacet
 facet normal -0.444316 0.337892 -0.829706
  outer loop
   vertex -0.118756 0.222377 -0.004057
   vertex -0.126639 0.211137 -0.004413
   vertex -0.134191 0.211996 -1.9e-05
  endloop
 endfacet
 facet normal -0.855717 0.515775 -0.0415235
  outer loop
   vertex -0.134191 0.211996 -1.9e-05
   vertex -0.135689 0.209153 -0.004462
   vertex -0.136588 0.208019 -2.1e-05
  endloop
 endfacet
 facet normal -0.0345146 0.0558106 -0.997845
  outer loop
   vertex -0.126639 0.211137 -0.004413
   vertex -0.118756 0.222377 -0.004057
   vertex -0.120855 0.21441 -0.00443
  endloop
 endfacet
 facet normal 0.0759707 -0.139382 0.98732
  outer loop
   vertex -0.127631 0.203704 0.00344
   vertex -0.120855 0.21441 0.00443
   vertex -0.126639 0.211137 0.004413
  endloop
 endfacet
 facet normal 0.206576 -0.154051 0.966227
  outer loop
   vertex -0.127631 0.203704 0.00344
   vertex -0.126639 0.211137 0.004413
   vertex -0.134124 0.206011 0.005196
  endloop
 endfacet
 facet normal -0.040351 0.208197 0.977254
  outer loop
   vertex -0.135689 0.209153 0.004462
   vertex -0.134124 0.206011 0.005196
   vertex -0.126639 0.211137 0.004413
  endloop
 endfacet
 facet normal -0.265818 -0.932947 0.242798
  outer loop
   vertex -0.1294 0.203312 -3e-06
   vertex -0.127631 0.203704 0.00344
   vertex -0.134124 0.206011 0.005196
  endloop
 endfacet
 facet normal -0.255367 -0.933297 0.252475
  outer loop
   vertex -0.1294 0.203312 -3e-06
   vertex -0.134124 0.206011 0.005196
   vertex -0.133236 0.204357 -2e-05
  endloop
 endfacet
 facet normal -0.2657 -0.932888 -0.243154
  outer loop
   vertex -0.134124 0.206011 -0.005196
   vertex -0.127631 0.203704 -0.00344
   vertex -0.1294 0.203312 -3e-06
  endloop
 endfacet
 facet normal -0.253114 -0.933278 -0.254806
  outer loop
   vertex -0.133236 0.204357 -2e-05
   vertex -0.134124 0.206011 -0.005196
   vertex -0.1294 0.203312 -3e-06
  endloop
 endfacet
 facet normal 0.0759707 -0.139382 -0.98732
  outer loop
   vertex -0.126639 0.211137 -0.004413
   vertex -0.120855 0.21441 -0.00443
   vertex -0.127631 0.203704 -0.00344
  endloop
 endfacet
 facet normal 0.206576 -0.154051 -0.966227
  outer loop
   vertex -0.134124 0.206011 -0.005196
   vertex -0.126639 0.211137 -0.004413
   vertex -0.127631 0.203704 -0.00344
  endloop
 endfacet
 facet normal -0.894105 -0.44774 -0.0102369
  outer loop
   vertex -0.133236 0.204357 -2e-05
   vertex -0.134124 0.206011 0.005196
   vertex -0.135689 0.209153 0.004462
  endloop
 endfacet
 facet normal -0.702849 -0.643267 0.303663
  outer loop
   vertex -0.133236 0.204357 -2e-05
   vertex -0.135689 0.209153 0.004462
   vertex -0.136588 0.208019 -2.1e-05
  endloop
 endfacet
 facet normal -0.702149 -0.642793 -0.306273
  outer loop
   vertex -0.136588 0.208019 -2.1e-05
   vertex -0.135689 0.209153 -0.004462
   vertex -0.133236 0.204357 -2e-05
  endloop
 endfacet
 facet normal -0.040351 0.208197 -0.977254
  outer loop
   vertex -0.126639 0.211137 -0.004413
   vertex -0.134124 0.206011 -0.005196
   vertex -0.135689 0.209153 -0.004462
  endloop
 endfacet
 facet normal -0.894098 -0.447753 0.0103105
  outer loop
   vertex -0.135689 0.209153 -0.004462
   vertex -0.134124 0.206011 -0.005196
   vertex -0.133236 0.204357 -2e-05
  endloop
 endfacet
endsolid
