solid ascii
 facet normal -0.0652628 -0.997213 0.0361421
  outer loop
   vertex -0.040259 0.309814 2.3e-05
   vertex -0.040959 0.310136 0.007643
   vertex -0.053747 0.310696 3e-06
  endloop
 endfacet
 facet normal 0.904798 -0.413788 0.100603
  outer loop
   vertex -0.039511 0.313673 0.009168
   vertex -0.040959 0.310136 0.007643
   vertex -0.040259 0.309814 2.3e-05
  endloop
 endfacet
 facet normal 0.823164 -0.54412 0.162277
  outer loop
   vertex -0.039511 0.313673 0.009168
   vertex -0.040259 0.309814 2.3e-05
   vertex -0.039371 0.311158 2.5e-05
  endloop
 endfacet
 facet normal -0.0651569 -0.997228 -0.0359355
  outer loop
   vertex -0.053747 0.310696 3e-06
   vertex -0.040959 0.310136 -0.007643
   vertex -0.040259 0.309814 2.3e-05
  endloop
 endfacet
 facet normal 0.904953 -0.413594 -0.100005
  outer loop
   vertex -0.040259 0.309814 2.3e-05
   vertex -0.040959 0.310136 -0.007643
   vertex -0.039511 0.313673 -0.009168
  endloop
 endfacet
 facet normal 0.823515 -0.543871 -0.161331
  outer loop
   vertex -0.039371 0.311158 2.5e-05
   vertex -0.040259 0.309814 2.3e-05
   vertex -0.039511 0.313673 -0.009168
  endloop
 endfacet
 facet normal -0.0779539 -0.995296 0.0575253
  outer loop
   vertex -0.040959 0.310136 0.007643
   vertex -0.045003 0.310911 0.015572
   vertex -0.053747 0.310696 3e-06
  endloop
 endfacet
 facet normal 0.753485 -0.495021 0.432683
  outer loop
   vertex -0.045003 0.310911 0.015572
   vertex -0.040959 0.310136 0.007643
   vertex -0.039511 0.313673 0.009168
  endloop
 endfacet
 facet normal -0.0675487 -0.996376 0.0516963
  outer loop
   vertex -0.045003 0.310911 0.015572
   vertex -0.051521 0.311553 0.019429
   vertex -0.053747 0.310696 3e-06
  endloop
 endfacet
 facet normal -0.0254179 -0.998042 -0.0571502
  outer loop
   vertex -0.065841 0.310741 0.004596
   vertex -0.065958 0.311007 3e-06
   vertex -0.053747 0.310696 3e-06
  endloop
 endfacet
 facet normal 0.00709474 -0.999569 0.028475
  outer loop
   vertex -0.053747 0.310696 3e-06
   vertex -0.066189 0.310993 0.013528
   vertex -0.065841 0.310741 0.004596
  endloop
 endfacet
 facet normal 0.0810539 -0.992042 0.0963467
  outer loop
   vertex -0.061871 0.311929 0.019533
   vertex -0.066189 0.310993 0.013528
   vertex -0.053747 0.310696 3e-06
  endloop
 endfacet
 facet normal -0.0357781 -0.9982 0.0481362
  outer loop
   vertex -0.053747 0.310696 3e-06
   vertex -0.051521 0.311553 0.019429
   vertex -0.061871 0.311929 0.019533
  endloop
 endfacet
 facet normal -0.0779745 -0.995295 -0.0575147
  outer loop
   vertex -0.053747 0.310696 3e-06
   vertex -0.045003 0.310911 -0.015572
   vertex -0.040959 0.310136 -0.007643
  endloop
 endfacet
 facet normal -0.0675575 -0.996376 -0.0516814
  outer loop
   vertex -0.053747 0.310696 3e-06
   vertex -0.051521 0.311553 -0.019429
   vertex -0.045003 0.310911 -0.015572
  endloop
 endfacet
 facet normal -0.025418 -0.998046 0.0570759
  outer loop
   vertex -0.053747 0.310696 3e-06
   vertex -0.065958 0.311007 3e-06
   vertex -0.065841 0.310741 -0.004596
  endloop
 endfacet
 facet normal 0.00710908 -0.999569 -0.0284756
  outer loop
   vertex -0.065841 0.310741 -0.004596
   vertex -0.066189 0.310993 -0.013528
   vertex -0.053747 0.310696 3e-06
  endloop
 endfacet
 facet normal 0.08108 -0.992042 -0.096328
  outer loop
   vertex -0.053747 0.310696 3e-06
   vertex -0.066189 0.310993 -0.013528
   vertex -0.061871 0.311929 -0.019533
  endloop
 endfacet
 facet normal -0.0357782 -0.998201 -0.0481214
  outer loop
   vertex -0.061871 0.311929 -0.019533
   vertex -0.051521 0.311553 -0.019429
   vertex -0.053747 0.310696 3e-06
  endloop
 endfacet
 facet normal 0.820438 0.566608 0.0764052
  outer loop
   vertex -0.039826 0.315362 2.5e-05
   vertex -0.041099 0.315885 0.009816
   vertex -0.039511 0.313673 0.009168
  endloop
 endfacet
 facet normal 0.994091 0.107591 -0.0143734
  outer loop
   vertex -0.039826 0.315362 2.5e-05
   vertex -0.039511 0.313673 0.009168
   vertex -0.039371 0.311158 2.5e-05
  endloop
 endfacet
 facet normal 0.777162 0.420866 0.467858
  outer loop
   vertex -0.044566 0.314809 0.016543
   vertex -0.039511 0.313673 0.009168
   vertex -0.041099 0.315885 0.009816
  endloop
 endfacet
 facet normal 0.785557 -0.23106 0.574031
  outer loop
   vertex -0.045003 0.310911 0.015572
   vertex -0.039511 0.313673 0.009168
   vertex -0.044566 0.314809 0.016543
  endloop
 endfacet
 facet normal 0.994093 0.107591 0.0142952
  outer loop
   vertex -0.039371 0.311158 2.5e-05
   vertex -0.039511 0.313673 -0.009168
   vertex -0.039826 0.315362 2.5e-05
  endloop
 endfacet
 facet normal 0.753485 -0.495021 -0.432683
  outer loop
   vertex -0.039511 0.313673 -0.009168
   vertex -0.040959 0.310136 -0.007643
   vertex -0.045003 0.310911 -0.015572
  endloop
 endfacet
 facet normal 0.820409 0.566703 -0.0760081
  outer loop
   vertex -0.039511 0.313673 -0.009168
   vertex -0.041099 0.315885 -0.009816
   vertex -0.039826 0.315362 2.5e-05
  endloop
 endfacet
 facet normal 0.777162 0.420866 -0.467858
  outer loop
   vertex -0.041099 0.315885 -0.009816
   vertex -0.039511 0.313673 -0.009168
   vertex -0.044566 0.314809 -0.016543
  endloop
 endfacet
 facet normal 0.785557 -0.23106 -0.574031
  outer loop
   vertex -0.044566 0.314809 -0.016543
   vertex -0.039511 0.313673 -0.009168
   vertex -0.045003 0.310911 -0.015572
  endloop
 endfacet
 facet normal 0.472112 -0.262555 0.841531
  outer loop
   vertex -0.051521 0.311553 0.019429
   vertex -0.045003 0.310911 0.015572
   vertex -0.044566 0.314809 0.016543
  endloop
 endfacet
 facet normal 0.405749 -0.0582264 0.912128
  outer loop
   vertex -0.051521 0.311553 0.019429
   vertex -0.044566 0.314809 0.016543
   vertex -0.052367 0.316075 0.020094
  endloop
 endfacet
 facet normal 0.00468848 -0.144634 0.989474
  outer loop
   vertex -0.061871 0.311929 0.019533
   vertex -0.051521 0.311553 0.019429
   vertex -0.052367 0.316075 0.020094
  endloop
 endfacet
 facet normal -0.68111 -0.731754 -0.0250258
  outer loop
   vertex -0.065958 0.311007 3e-06
   vertex -0.065841 0.310741 0.004596
   vertex -0.069445 0.314091 0.00473
  endloop
 endfacet
 facet normal -0.680929 -0.732326 -0.00587036
  outer loop
   vertex -0.066189 0.310993 0.013528
   vertex -0.069445 0.314091 0.00473
   vertex -0.065841 0.310741 0.004596
  endloop
 endfacet
 facet normal -0.650974 -0.758953 0.0149503
  outer loop
   vertex -0.065958 0.311007 3e-06
   vertex -0.069445 0.314091 0.00473
   vertex -0.069416 0.313973 3e-06
  endloop
 endfacet
 facet normal -0.68111 -0.731755 0.0249932
  outer loop
   vertex -0.069445 0.314091 -0.00473
   vertex -0.065841 0.310741 -0.004596
   vertex -0.065958 0.311007 3e-06
  endloop
 endfacet
 facet normal -0.650974 -0.758953 -0.0149314
  outer loop
   vertex -0.069416 0.313973 3e-06
   vertex -0.069445 0.314091 -0.00473
   vertex -0.065958 0.311007 3e-06
  endloop
 endfacet
 facet normal 0.146656 -0.780523 0.607681
  outer loop
   vertex -0.062891 0.316836 0.020237
   vertex -0.069039 0.311753 0.015192
   vertex -0.066189 0.310993 0.013528
  endloop
 endfacet
 facet normal -0.768765 -0.244578 0.590916
  outer loop
   vertex -0.062891 0.316836 0.020237
   vertex -0.066189 0.310993 0.013528
   vertex -0.061871 0.311929 0.019533
  endloop
 endfacet
 facet normal -0.443442 -0.806442 -0.391165
  outer loop
   vertex -0.066189 0.310993 0.013528
   vertex -0.069039 0.311753 0.015192
   vertex -0.070307 0.315459 0.008989
  endloop
 endfacet
 facet normal -0.760755 -0.646807 0.0537851
  outer loop
   vertex -0.066189 0.310993 0.013528
   vertex -0.070307 0.315459 0.008989
   vertex -0.069445 0.314091 0.00473
  endloop
 endfacet
 facet normal 0.00322999 -0.141355 0.989954
  outer loop
   vertex -0.061871 0.311929 0.019533
   vertex -0.052367 0.316075 0.020094
   vertex -0.062891 0.316836 0.020237
  endloop
 endfacet
 facet normal 0.472112 -0.262555 -0.841531
  outer loop
   vertex -0.044566 0.314809 -0.016543
   vertex -0.045003 0.310911 -0.015572
   vertex -0.051521 0.311553 -0.019429
  endloop
 endfacet
 facet normal 0.405749 -0.0582264 -0.912128
  outer loop
   vertex -0.052367 0.316075 -0.020094
   vertex -0.044566 0.314809 -0.016543
   vertex -0.051521 0.311553 -0.019429
  endloop
 endfacet
 facet normal 0.00468848 -0.144634 -0.989474
  outer loop
   vertex -0.052367 0.316075 -0.020094
   vertex -0.051521 0.311553 -0.019429
   vertex -0.061871 0.311929 -0.019533
  endloop
 endfacet
 facet normal -0.680929 -0.732326 0.00587036
  outer loop
   vertex -0.065841 0.310741 -0.004596
   vertex -0.069445 0.314091 -0.00473
   vertex -0.066189 0.310993 -0.013528
  endloop
 endfacet
 facet normal 0.146656 -0.780523 -0.607681
  outer loop
   vertex -0.066189 0.310993 -0.013528
   vertex -0.069039 0.311753 -0.015192
   vertex -0.062891 0.316836 -0.020237
  endloop
 endfacet
 facet normal -0.768765 -0.244578 -0.590916
  outer loop
   vertex -0.061871 0.311929 -0.019533
   vertex -0.066189 0.310993 -0.013528
   vertex -0.062891 0.316836 -0.020237
  endloop
 endfacet
 facet normal -0.443442 -0.806442 0.391165
  outer loop
   vertex -0.070307 0.315459 -0.008989
   vertex -0.069039 0.311753 -0.015192
   vertex -0.066189 0.310993 -0.013528
  endloop
 endfacet
 facet normal -0.760755 -0.646807 -0.0537851
  outer loop
   vertex -0.069445 0.314091 -0.00473
   vertex -0.070307 0.315459 -0.008989
   vertex -0.066189 0.310993 -0.013528
  endloop
 endfacet
 facet normal 0.00322999 -0.141355 -0.989954
  outer loop
   vertex -0.062891 0.316836 -0.020237
   vertex -0.052367 0.316075 -0.020094
   vertex -0.061871 0.311929 -0.019533
  endloop
 endfacet
 facet normal 0.988455 -0.073585 0.132447
  outer loop
   vertex -0.03918 0.324045 2.8e-05
   vertex -0.041099 0.315885 0.009816
   vertex -0.039826 0.315362 2.5e-05
  endloop
 endfacet
 facet normal 0.98855 -0.0735008 -0.131782
  outer loop
   vertex -0.039826 0.315362 2.5e-05
   vertex -0.041099 0.315885 -0.009816
   vertex -0.03918 0.324045 2.8e-05
  endloop
 endfacet
 facet normal 0.987842 -0.060565 0.143181
  outer loop
   vertex -0.03918 0.324045 2.8e-05
   vertex -0.0406 0.323213 0.009473
   vertex -0.041099 0.315885 0.009816
  endloop
 endfacet
 facet normal 0.770302 -0.0226246 0.637278
  outer loop
   vertex -0.046275 0.317535 0.016131
   vertex -0.041099 0.315885 0.009816
   vertex -0.0406 0.323213 0.009473
  endloop
 endfacet
 facet normal 0.721737 0.521293 0.455356
  outer loop
   vertex -0.044566 0.314809 0.016543
   vertex -0.041099 0.315885 0.009816
   vertex -0.046275 0.317535 0.016131
  endloop
 endfacet
 facet normal 0.432986 0.39398 0.810742
  outer loop
   vertex -0.052367 0.316075 0.020094
   vertex -0.044566 0.314809 0.016543
   vertex -0.046275 0.317535 0.016131
  endloop
 endfacet
 facet normal 0.987959 -0.0606119 -0.142351
  outer loop
   vertex -0.041099 0.315885 -0.009816
   vertex -0.0406 0.323213 -0.009473
   vertex -0.03918 0.324045 2.8e-05
  endloop
 endfacet
 facet normal 0.770302 -0.0226246 -0.637278
  outer loop
   vertex -0.0406 0.323213 -0.009473
   vertex -0.041099 0.315885 -0.009816
   vertex -0.046275 0.317535 -0.016131
  endloop
 endfacet
 facet normal 0.721737 0.521293 -0.455356
  outer loop
   vertex -0.046275 0.317535 -0.016131
   vertex -0.041099 0.315885 -0.009816
   vertex -0.044566 0.314809 -0.016543
  endloop
 endfacet
 facet normal 0.432986 0.39398 -0.810742
  outer loop
   vertex -0.046275 0.317535 -0.016131
   vertex -0.044566 0.314809 -0.016543
   vertex -0.052367 0.316075 -0.020094
  endloop
 endfacet
 facet normal 0.438651 0.380076 0.814327
  outer loop
   vertex -0.052367 0.316075 0.020094
   vertex -0.046275 0.317535 0.016131
   vertex -0.052292 0.319875 0.01828
  endloop
 endfacet
 facet normal 0.0433275 0.429698 0.901932
  outer loop
   vertex -0.062891 0.316836 0.020237
   vertex -0.052367 0.316075 0.020094
   vertex -0.052292 0.319875 0.01828
  endloop
 endfacet
 facet normal -0.996523 0.0829211 -0.00818288
  outer loop
   vertex -0.068917 0.320568 0.006064
   vertex -0.069416 0.313973 3e-06
   vertex -0.069445 0.314091 0.00473
  endloop
 endfacet
 facet normal -0.963447 0.12711 -0.235826
  outer loop
   vertex -0.068917 0.320568 0.006064
   vertex -0.069445 0.314091 0.00473
   vertex -0.070307 0.315459 0.008989
  endloop
 endfacet
 facet normal -0.98581 0.147777 -0.0796344
  outer loop
   vertex -0.069416 0.313973 3e-06
   vertex -0.068917 0.320568 0.006064
   vertex -0.068431 0.320545 5e-06
  endloop
 endfacet
 facet normal -0.985827 0.147731 0.0795044
  outer loop
   vertex -0.068431 0.320545 5e-06
   vertex -0.068917 0.320568 -0.006064
   vertex -0.069416 0.313973 3e-06
  endloop
 endfacet
 facet normal -0.996523 0.082919 0.00817245
  outer loop
   vertex -0.069445 0.314091 -0.00473
   vertex -0.069416 0.313973 3e-06
   vertex -0.068917 0.320568 -0.006064
  endloop
 endfacet
 facet normal -0.963447 0.12711 0.235826
  outer loop
   vertex -0.070307 0.315459 -0.008989
   vertex -0.069445 0.314091 -0.00473
   vertex -0.068917 0.320568 -0.006064
  endloop
 endfacet
 facet normal 0.0879569 0.304083 0.948576
  outer loop
   vertex -0.062891 0.316836 0.020237
   vertex -0.052292 0.319875 0.01828
   vertex -0.06263 0.320142 0.019153
  endloop
 endfacet
 facet normal -0.732742 0.263564 0.627394
  outer loop
   vertex -0.06263 0.320142 0.019153
   vertex -0.069039 0.311753 0.015192
   vertex -0.062891 0.316836 0.020237
  endloop
 endfacet
 facet normal -0.127963 -0.34183 0.931009
  outer loop
   vertex -0.06263 0.320142 0.019153
   vertex -0.067833 0.319249 0.01811
   vertex -0.069039 0.311753 0.015192
  endloop
 endfacet
 facet normal -0.984831 -0.0753133 0.15632
  outer loop
   vertex -0.070307 0.315459 0.008989
   vertex -0.069039 0.311753 0.015192
   vertex -0.070705 0.321257 0.009275
  endloop
 endfacet
 facet normal -0.948568 0.0299303 0.315154
  outer loop
   vertex -0.069039 0.311753 0.015192
   vertex -0.067833 0.319249 0.01811
   vertex -0.070705 0.321257 0.009275
  endloop
 endfacet
 facet normal -0.876407 -0.0364734 -0.480188
  outer loop
   vertex -0.068917 0.320568 0.006064
   vertex -0.070307 0.315459 0.008989
   vertex -0.070705 0.321257 0.009275
  endloop
 endfacet
 facet normal 0.438651 0.380076 -0.814327
  outer loop
   vertex -0.052292 0.319875 -0.01828
   vertex -0.046275 0.317535 -0.016131
   vertex -0.052367 0.316075 -0.020094
  endloop
 endfacet
 facet normal 0.0433275 0.429698 -0.901932
  outer loop
   vertex -0.052292 0.319875 -0.01828
   vertex -0.052367 0.316075 -0.020094
   vertex -0.062891 0.316836 -0.020237
  endloop
 endfacet
 facet normal -0.127963 -0.34183 -0.931009
  outer loop
   vertex -0.069039 0.311753 -0.015192
   vertex -0.067833 0.319249 -0.01811
   vertex -0.06263 0.320142 -0.019153
  endloop
 endfacet
 facet normal -0.732742 0.263564 -0.627394
  outer loop
   vertex -0.062891 0.316836 -0.020237
   vertex -0.069039 0.311753 -0.015192
   vertex -0.06263 0.320142 -0.019153
  endloop
 endfacet
 facet normal -0.984831 -0.0753133 -0.15632
  outer loop
   vertex -0.070705 0.321257 -0.009275
   vertex -0.069039 0.311753 -0.015192
   vertex -0.070307 0.315459 -0.008989
  endloop
 endfacet
 facet normal -0.948568 0.0299303 -0.315154
  outer loop
   vertex -0.070705 0.321257 -0.009275
   vertex -0.067833 0.319249 -0.01811
   vertex -0.069039 0.311753 -0.015192
  endloop
 endfacet
 facet normal 0.0879569 0.304083 -0.948576
  outer loop
   vertex -0.06263 0.320142 -0.019153
   vertex -0.052292 0.319875 -0.01828
   vertex -0.062891 0.316836 -0.020237
  endloop
 endfacet
 facet normal -0.876407 -0.0364734 0.480188
  outer loop
   vertex -0.070705 0.321257 -0.009275
   vertex -0.070307 0.315459 -0.008989
   vertex -0.068917 0.320568 -0.006064
  endloop
 endfacet
 facet normal 0.971137 -0.201082 0.128292
  outer loop
   vertex -0.038478 0.327436 2.9e-05
   vertex -0.0406 0.323213 0.009473
   vertex -0.03918 0.324045 2.8e-05
  endloop
 endfacet
 facet normal 0.971245 -0.201029 -0.127557
  outer loop
   vertex -0.03918 0.324045 2.8e-05
   vertex -0.0406 0.323213 -0.009473
   vertex -0.038478 0.327436 2.9e-05
  endloop
 endfacet
 facet normal 0.929563 -0.365874 0.0452619
  outer loop
   vertex -0.038478 0.327436 2.9e-05
   vertex -0.039099 0.327151 0.010479
   vertex -0.0406 0.323213 0.009473
  endloop
 endfacet
 facet normal 0.686271 -0.414298 0.597821
  outer loop
   vertex -0.046288 0.324293 0.016751
   vertex -0.0406 0.323213 0.009473
   vertex -0.039099 0.327151 0.010479
  endloop
 endfacet
 facet normal 0.782705 -0.0553688 0.619926
  outer loop
   vertex -0.046275 0.317535 0.016131
   vertex -0.0406 0.323213 0.009473
   vertex -0.046288 0.324293 0.016751
  endloop
 endfacet
 facet normal 0.305112 -0.0864215 0.948387
  outer loop
   vertex -0.052292 0.319875 0.01828
   vertex -0.046275 0.317535 0.016131
   vertex -0.046288 0.324293 0.016751
  endloop
 endfacet
 facet normal 0.929595 -0.365823 -0.0450153
  outer loop
   vertex -0.0406 0.323213 -0.009473
   vertex -0.039099 0.327151 -0.010479
   vertex -0.038478 0.327436 2.9e-05
  endloop
 endfacet
 facet normal 0.686271 -0.414298 -0.597821
  outer loop
   vertex -0.039099 0.327151 -0.010479
   vertex -0.0406 0.323213 -0.009473
   vertex -0.046288 0.324293 -0.016751
  endloop
 endfacet
 facet normal 0.782705 -0.0553688 -0.619926
  outer loop
   vertex -0.046288 0.324293 -0.016751
   vertex -0.0406 0.323213 -0.009473
   vertex -0.046275 0.317535 -0.016131
  endloop
 endfacet
 facet normal 0.305112 -0.0864215 -0.948387
  outer loop
   vertex -0.046288 0.324293 -0.016751
   vertex -0.046275 0.317535 -0.016131
   vertex -0.052292 0.319875 -0.01828
  endloop
 endfacet
 facet normal 0.307183 -0.0895694 0.947426
  outer loop
   vertex -0.052292 0.319875 0.01828
   vertex -0.046288 0.324293 0.016751
   vertex -0.051078 0.324927 0.018364
  endloop
 endfacet
 facet normal 0.0831531 -0.0365401 0.995867
  outer loop
   vertex -0.06263 0.320142 0.019153
   vertex -0.052292 0.319875 0.01828
   vertex -0.051078 0.324927 0.018364
  endloop
 endfacet
 facet normal -0.964181 0.253426 -0.0783007
  outer loop
   vertex -0.068431 0.320545 5e-06
   vertex -0.068917 0.320568 0.006064
   vertex -0.067025 0.327829 0.006267
  endloop
 endfacet
 facet normal -0.832775 0.231061 -0.503088
  outer loop
   vertex -0.068917 0.320568 0.006064
   vertex -0.068934 0.328419 0.009698
   vertex -0.067025 0.327829 0.006267
  endloop
 endfacet
 facet normal -0.827011 0.234673 -0.510864
  outer loop
   vertex -0.068917 0.320568 0.006064
   vertex -0.070705 0.321257 0.009275
   vertex -0.068934 0.328419 0.009698
  endloop
 endfacet
 facet normal -0.954615 0.277428 -0.108368
  outer loop
   vertex -0.068431 0.320545 5e-06
   vertex -0.067025 0.327829 0.006267
   vertex -0.06631 0.327844 7e-06
  endloop
 endfacet
 facet normal -0.964191 0.253425 0.0781725
  outer loop
   vertex -0.067025 0.327829 -0.006267
   vertex -0.068917 0.320568 -0.006064
   vertex -0.068431 0.320545 5e-06
  endloop
 endfacet
 facet normal -0.954656 0.277381 0.108131
  outer loop
   vertex -0.06631 0.327844 7e-06
   vertex -0.067025 0.327829 -0.006267
   vertex -0.068431 0.320545 5e-06
  endloop
 endfacet
 facet normal -0.832671 0.231039 0.503269
  outer loop
   vertex -0.067025 0.327829 -0.006267
   vertex -0.068935 0.328419 -0.009698
   vertex -0.068917 0.320568 -0.006064
  endloop
 endfacet
 facet normal -0.827044 0.234566 0.510859
  outer loop
   vertex -0.068935 0.328419 -0.009698
   vertex -0.070705 0.321257 -0.009275
   vertex -0.068917 0.320568 -0.006064
  endloop
 endfacet
 facet normal 0.0870018 -0.04595 0.995148
  outer loop
   vertex -0.06263 0.320142 0.019153
   vertex -0.051078 0.324927 0.018364
   vertex -0.060935 0.32634 0.019291
  endloop
 endfacet
 facet normal -0.201955 0.033436 0.978824
  outer loop
   vertex -0.060935 0.32634 0.019291
   vertex -0.067833 0.319249 0.01811
   vertex -0.06263 0.320142 0.019153
  endloop
 endfacet
 facet normal 0.0242047 -0.187105 0.982042
  outer loop
   vertex -0.060935 0.32634 0.019291
   vertex -0.065536 0.327713 0.019666
   vertex -0.067833 0.319249 0.01811
  endloop
 endfacet
 facet normal -0.219749 -0.755862 0.616751
  outer loop
   vertex -0.073803 0.31952 0.016315
   vertex -0.067833 0.319249 0.01811
   vertex -0.070906 0.321687 0.020003
  endloop
 endfacet
 facet normal -0.0191514 -0.628125 0.777877
  outer loop
   vertex -0.069319 0.326487 0.023918
   vertex -0.070906 0.321687 0.020003
   vertex -0.067833 0.319249 0.01811
  endloop
 endfacet
 facet normal 0.75283 -0.310956 0.580132
  outer loop
   vertex -0.069319 0.326487 0.023918
   vertex -0.067833 0.319249 0.01811
   vertex -0.065536 0.327713 0.019666
  endloop
 endfacet
 facet normal 0.0247434 -0.973065 -0.229199
  outer loop
   vertex -0.067833 0.319249 0.01811
   vertex -0.073803 0.31952 0.016315
   vertex -0.070705 0.321257 0.009275
  endloop
 endfacet
 facet normal 0.557402 -0.08908 -0.82545
  outer loop
   vertex -0.068934 0.328419 0.009698
   vertex -0.070705 0.321257 0.009275
   vertex -0.078782 0.323674 0.00356
  endloop
 endfacet
 facet normal -0.0909594 -0.956814 -0.276105
  outer loop
   vertex -0.078782 0.323674 0.00356
   vertex -0.070705 0.321257 0.009275
   vertex -0.073803 0.31952 0.016315
  endloop
 endfacet
 facet normal 0.307183 -0.0895694 -0.947426
  outer loop
   vertex -0.051078 0.324927 -0.018364
   vertex -0.046288 0.324293 -0.016751
   vertex -0.052292 0.319875 -0.01828
  endloop
 endfacet
 facet normal 0.0831531 -0.0365401 -0.995867
  outer loop
   vertex -0.051078 0.324927 -0.018364
   vertex -0.052292 0.319875 -0.01828
   vertex -0.06263 0.320142 -0.019153
  endloop
 endfacet
 facet normal 0.0242047 -0.187105 -0.982042
  outer loop
   vertex -0.067833 0.319249 -0.01811
   vertex -0.065536 0.327713 -0.019666
   vertex -0.060935 0.32634 -0.019291
  endloop
 endfacet
 facet normal -0.201955 0.033436 -0.978824
  outer loop
   vertex -0.06263 0.320142 -0.019153
   vertex -0.067833 0.319249 -0.01811
   vertex -0.060935 0.32634 -0.019291
  endloop
 endfacet
 facet normal -0.219749 -0.755862 -0.616751
  outer loop
   vertex -0.070906 0.321687 -0.020003
   vertex -0.067833 0.319249 -0.01811
   vertex -0.073803 0.31952 -0.016315
  endloop
 endfacet
 facet normal -0.0191514 -0.628125 -0.777877
  outer loop
   vertex -0.067833 0.319249 -0.01811
   vertex -0.070906 0.321687 -0.020003
   vertex -0.069319 0.326487 -0.023918
  endloop
 endfacet
 facet normal 0.75283 -0.310956 -0.580132
  outer loop
   vertex -0.065536 0.327713 -0.019666
   vertex -0.067833 0.319249 -0.01811
   vertex -0.069319 0.326487 -0.023918
  endloop
 endfacet
 facet normal 0.0247434 -0.973065 0.229199
  outer loop
   vertex -0.070705 0.321257 -0.009275
   vertex -0.073803 0.31952 -0.016315
   vertex -0.067833 0.319249 -0.01811
  endloop
 endfacet
 facet normal 0.0870018 -0.04595 -0.995148
  outer loop
   vertex -0.060935 0.32634 -0.019291
   vertex -0.051078 0.324927 -0.018364
   vertex -0.06263 0.320142 -0.019153
  endloop
 endfacet
 facet normal 0.557421 -0.0890072 0.825445
  outer loop
   vertex -0.078782 0.323674 -0.00356
   vertex -0.070705 0.321257 -0.009275
   vertex -0.068935 0.328419 -0.009698
  endloop
 endfacet
 facet normal -0.0909594 -0.956814 0.276105
  outer loop
   vertex -0.073803 0.31952 -0.016315
   vertex -0.070705 0.321257 -0.009275
   vertex -0.078782 0.323674 -0.00356
  endloop
 endfacet
 facet normal 0.998118 -0.0172844 0.0588428
  outer loop
   vertex -0.038411 0.331305 2.9e-05
   vertex -0.039099 0.327151 0.010479
   vertex -0.038478 0.327436 2.9e-05
  endloop
 endfacet
 facet normal 0.998137 -0.0172847 -0.0585191
  outer loop
   vertex -0.038478 0.327436 2.9e-05
   vertex -0.039099 0.327151 -0.010479
   vertex -0.038411 0.331305 2.9e-05
  endloop
 endfacet
 facet normal 0.996501 0.0306149 0.0777768
  outer loop
   vertex -0.038411 0.331305 2.9e-05
   vertex -0.039238 0.331185 0.010672
   vertex -0.039099 0.327151 0.010479
  endloop
 endfacet
 facet normal 0.817563 0.000620467 0.575838
  outer loop
   vertex -0.044207 0.327365 0.017731
   vertex -0.039099 0.327151 0.010479
   vertex -0.039238 0.331185 0.010672
  endloop
 endfacet
 facet normal 0.65039 -0.592292 0.475586
  outer loop
   vertex -0.046288 0.324293 0.016751
   vertex -0.039099 0.327151 0.010479
   vertex -0.044207 0.327365 0.017731
  endloop
 endfacet
 facet normal 0.234794 -0.43617 0.868693
  outer loop
   vertex -0.051078 0.324927 0.018364
   vertex -0.046288 0.324293 0.016751
   vertex -0.044207 0.327365 0.017731
  endloop
 endfacet
 facet normal 0.996533 0.030636 -0.077358
  outer loop
   vertex -0.039099 0.327151 -0.010479
   vertex -0.039238 0.331185 -0.010672
   vertex -0.038411 0.331305 2.9e-05
  endloop
 endfacet
 facet normal 0.817563 0.000620467 -0.575838
  outer loop
   vertex -0.039238 0.331185 -0.010672
   vertex -0.039099 0.327151 -0.010479
   vertex -0.044207 0.327365 -0.017731
  endloop
 endfacet
 facet normal 0.65039 -0.592292 -0.475586
  outer loop
   vertex -0.044207 0.327365 -0.017731
   vertex -0.039099 0.327151 -0.010479
   vertex -0.046288 0.324293 -0.016751
  endloop
 endfacet
 facet normal 0.234794 -0.43617 -0.868693
  outer loop
   vertex -0.044207 0.327365 -0.017731
   vertex -0.046288 0.324293 -0.016751
   vertex -0.051078 0.324927 -0.018364
  endloop
 endfacet
 facet normal 0.288853 -0.626001 0.724352
  outer loop
   vertex -0.051078 0.324927 0.018364
   vertex -0.044207 0.327365 0.017731
   vertex -0.050224 0.327567 0.020305
  endloop
 endfacet
 facet normal -0.00875239 -0.590492 0.806996
  outer loop
   vertex -0.060935 0.32634 0.019291
   vertex -0.051078 0.324927 0.018364
   vertex -0.050224 0.327567 0.020305
  endloop
 endfacet
 facet normal -0.993532 0.00432724 -0.113467
  outer loop
   vertex -0.06631 0.327844 7e-06
   vertex -0.067025 0.327829 0.006267
   vertex -0.067194 0.33418 0.007989
  endloop
 endfacet
 facet normal -0.82504 0.257007 -0.503246
  outer loop
   vertex -0.067025 0.327829 0.006267
   vertex -0.068934 0.328419 0.009698
   vertex -0.068016 0.332766 0.010413
  endloop
 endfacet
 facet normal -0.954791 0.0538624 -0.292358
  outer loop
   vertex -0.067025 0.327829 0.006267
   vertex -0.068016 0.332766 0.010413
   vertex -0.067194 0.33418 0.007989
  endloop
 endfacet
 facet normal 0.51779 0.0312738 -0.854936
  outer loop
   vertex -0.078782 0.323674 0.00356
   vertex -0.068016 0.332766 0.010413
   vertex -0.068934 0.328419 0.009698
  endloop
 endfacet
 facet normal -0.970325 0.125217 -0.206858
  outer loop
   vertex -0.06631 0.327844 7e-06
   vertex -0.067194 0.33418 0.007989
   vertex -0.065619 0.333202 9e-06
  endloop
 endfacet
 facet normal -0.993561 0.00425876 0.113218
  outer loop
   vertex -0.067194 0.33418 -0.007989
   vertex -0.067025 0.327829 -0.006267
   vertex -0.06631 0.327844 7e-06
  endloop
 endfacet
 facet normal -0.970441 0.125077 0.206398
  outer loop
   vertex -0.065619 0.333202 9e-06
   vertex -0.067194 0.33418 -0.007989
   vertex -0.06631 0.327844 7e-06
  endloop
 endfacet
 facet normal -0.824873 0.257191 0.503425
  outer loop
   vertex -0.068016 0.332766 -0.010413
   vertex -0.068935 0.328419 -0.009698
   vertex -0.067025 0.327829 -0.006267
  endloop
 endfacet
 facet normal -0.954791 0.0538624 0.292358
  outer loop
   vertex -0.067194 0.33418 -0.007989
   vertex -0.068016 0.332766 -0.010413
   vertex -0.067025 0.327829 -0.006267
  endloop
 endfacet
 facet normal 0.517882 0.0311272 0.854885
  outer loop
   vertex -0.068935 0.328419 -0.009698
   vertex -0.068016 0.332766 -0.010413
   vertex -0.078782 0.323674 -0.00356
  endloop
 endfacet
 facet normal -0.0277564 -0.48159 0.875957
  outer loop
   vertex -0.060935 0.32634 0.019291
   vertex -0.050224 0.327567 0.020305
   vertex -0.058575 0.329829 0.021284
  endloop
 endfacet
 facet normal -0.0654982 -0.461166 0.884893
  outer loop
   vertex -0.058575 0.329829 0.021284
   vertex -0.065536 0.327713 0.019666
   vertex -0.060935 0.32634 0.019291
  endloop
 endfacet
 facet normal -0.341863 0.532586 0.774262
  outer loop
   vertex -0.058575 0.329829 0.021284
   vertex -0.063717 0.329843 0.019004
   vertex -0.065536 0.327713 0.019666
  endloop
 endfacet
 facet normal 0.473796 0.639136 0.605823
  outer loop
   vertex -0.072393 0.333381 0.019049
   vertex -0.069319 0.326487 0.023918
   vertex -0.065536 0.327713 0.019666
  endloop
 endfacet
 facet normal 0.0949865 0.220583 0.970732
  outer loop
   vertex -0.072393 0.333381 0.019049
   vertex -0.065536 0.327713 0.019666
   vertex -0.063717 0.329843 0.019004
  endloop
 endfacet
 facet normal -0.466995 -0.788396 0.400435
  outer loop
   vertex -0.081735 0.327146 0.022079
   vertex -0.080163 0.323335 0.016409
   vertex -0.073803 0.31952 0.016315
  endloop
 endfacet
 facet normal -0.761279 -0.415676 -0.497661
  outer loop
   vertex -0.081735 0.327146 0.022079
   vertex -0.073803 0.31952 0.016315
   vertex -0.077628 0.317783 0.023617
  endloop
 endfacet
 facet normal -0.615035 -0.366207 0.698301
  outer loop
   vertex -0.073803 0.31952 0.016315
   vertex -0.070906 0.321687 0.020003
   vertex -0.069319 0.326487 0.023918
  endloop
 endfacet
 facet normal 0.704041 -0.679256 0.207216
  outer loop
   vertex -0.073803 0.31952 0.016315
   vertex -0.069319 0.326487 0.023918
   vertex -0.077628 0.317783 0.023617
  endloop
 endfacet
 facet normal -0.462859 -0.781924 0.41756
  outer loop
   vertex -0.073803 0.31952 0.016315
   vertex -0.080163 0.323335 0.016409
   vertex -0.075863 0.317397 0.010056
  endloop
 endfacet
 facet normal 0.937267 0.086318 -0.337757
  outer loop
   vertex -0.073803 0.31952 0.016315
   vertex -0.075863 0.317397 0.010056
   vertex -0.078782 0.323674 0.00356
  endloop
 endfacet
 facet normal -0.126133 -0.287868 0.949327
  outer loop
   vertex -0.069319 0.326487 0.023918
   vertex -0.076596 0.325705 0.022714
   vertex -0.078554 0.319753 0.020649
  endloop
 endfacet
 facet normal -0.607929 0.560906 0.561967
  outer loop
   vertex -0.069319 0.326487 0.023918
   vertex -0.078554 0.319753 0.020649
   vertex -0.077628 0.317783 0.023617
  endloop
 endfacet
 facet normal -0.193457 0.50698 0.839968
  outer loop
   vertex -0.072393 0.333381 0.019049
   vertex -0.076596 0.325705 0.022714
   vertex -0.069319 0.326487 0.023918
  endloop
 endfacet
 facet normal 0.948208 -0.281307 0.14754
  outer loop
   vertex -0.079622 0.318977 3e-06
   vertex -0.078782 0.323674 0.00356
   vertex -0.083405 0.308785 0.004883
  endloop
 endfacet
 facet normal 0.429953 0.49494 -0.7551
  outer loop
   vertex -0.078782 0.323674 0.00356
   vertex -0.079622 0.318977 3e-06
   vertex -0.087086 0.325464 5e-06
  endloop
 endfacet
 facet normal 0.418025 0.619304 -0.664618
  outer loop
   vertex -0.078782 0.323674 0.00356
   vertex -0.087086 0.325464 5e-06
   vertex -0.080701 0.329057 0.007369
  endloop
 endfacet
 facet normal 0.741458 -0.284231 -0.607826
  outer loop
   vertex -0.075863 0.317397 0.010056
   vertex -0.083405 0.308785 0.004883
   vertex -0.078782 0.323674 0.00356
  endloop
 endfacet
 facet normal 0.0243192 0.583208 -0.811959
  outer loop
   vertex -0.078782 0.323674 0.00356
   vertex -0.080701 0.329057 0.007369
   vertex -0.068016 0.332766 0.010413
  endloop
 endfacet
 facet normal 0.288853 -0.626001 -0.724352
  outer loop
   vertex -0.050224 0.327567 -0.020305
   vertex -0.044207 0.327365 -0.017731
   vertex -0.051078 0.324927 -0.018364
  endloop
 endfacet
 facet normal -0.00875239 -0.590492 -0.806996
  outer loop
   vertex -0.050224 0.327567 -0.020305
   vertex -0.051078 0.324927 -0.018364
   vertex -0.060935 0.32634 -0.019291
  endloop
 endfacet
 facet normal -0.341863 0.532586 -0.774262
  outer loop
   vertex -0.065536 0.327713 -0.019666
   vertex -0.063717 0.329843 -0.019004
   vertex -0.058575 0.329829 -0.021284
  endloop
 endfacet
 facet normal -0.0654982 -0.461166 -0.884893
  outer loop
   vertex -0.060935 0.32634 -0.019291
   vertex -0.065536 0.327713 -0.019666
   vertex -0.058575 0.329829 -0.021284
  endloop
 endfacet
 facet normal 0.473796 0.639136 -0.605823
  outer loop
   vertex -0.065536 0.327713 -0.019666
   vertex -0.069319 0.326487 -0.023918
   vertex -0.072393 0.333381 -0.019049
  endloop
 endfacet
 facet normal 0.0949865 0.220583 -0.970732
  outer loop
   vertex -0.063717 0.329843 -0.019004
   vertex -0.065536 0.327713 -0.019666
   vertex -0.072393 0.333381 -0.019049
  endloop
 endfacet
 facet normal -0.0277564 -0.48159 -0.875957
  outer loop
   vertex -0.058575 0.329829 -0.021284
   vertex -0.050224 0.327567 -0.020305
   vertex -0.060935 0.32634 -0.019291
  endloop
 endfacet
 facet normal -0.615035 -0.366207 -0.698301
  outer loop
   vertex -0.069319 0.326487 -0.023918
   vertex -0.070906 0.321687 -0.020003
   vertex -0.073803 0.31952 -0.016315
  endloop
 endfacet
 facet normal -0.466995 -0.788396 -0.400435
  outer loop
   vertex -0.073803 0.31952 -0.016315
   vertex -0.080163 0.323335 -0.016409
   vertex -0.081735 0.327146 -0.022079
  endloop
 endfacet
 facet normal -0.761279 -0.415676 0.497661
  outer loop
   vertex -0.077628 0.317783 -0.023617
   vertex -0.073803 0.31952 -0.016315
   vertex -0.081735 0.327146 -0.022079
  endloop
 endfacet
 facet normal 0.704041 -0.679256 -0.207216
  outer loop
   vertex -0.077628 0.317783 -0.023617
   vertex -0.069319 0.326487 -0.023918
   vertex -0.073803 0.31952 -0.016315
  endloop
 endfacet
 facet normal -0.462859 -0.781924 -0.41756
  outer loop
   vertex -0.075863 0.317397 -0.010056
   vertex -0.080163 0.323335 -0.016409
   vertex -0.073803 0.31952 -0.016315
  endloop
 endfacet
 facet normal 0.937267 0.086318 0.337757
  outer loop
   vertex -0.078782 0.323674 -0.00356
   vertex -0.075863 0.317397 -0.010056
   vertex -0.073803 0.31952 -0.016315
  endloop
 endfacet
 facet normal -0.126133 -0.287868 -0.949327
  outer loop
   vertex -0.078554 0.319753 -0.020649
   vertex -0.076596 0.325705 -0.022714
   vertex -0.069319 0.326487 -0.023918
  endloop
 endfacet
 facet normal -0.607929 0.560906 -0.561967
  outer loop
   vertex -0.077628 0.317783 -0.023617
   vertex -0.078554 0.319753 -0.020649
   vertex -0.069319 0.326487 -0.023918
  endloop
 endfacet
 facet normal -0.193457 0.50698 -0.839968
  outer loop
   vertex -0.069319 0.326487 -0.023918
   vertex -0.076596 0.325705 -0.022714
   vertex -0.072393 0.333381 -0.019049
  endloop
 endfacet
 facet normal 0.948234 -0.281334 -0.147322
  outer loop
   vertex -0.083405 0.308785 -0.004883
   vertex -0.078782 0.323674 -0.00356
   vertex -0.079622 0.318977 3e-06
  endloop
 endfacet
 facet normal 0.430665 0.495293 0.754462
  outer loop
   vertex -0.087086 0.325464 5e-06
   vertex -0.079622 0.318977 3e-06
   vertex -0.078782 0.323674 -0.00356
  endloop
 endfacet
 facet normal 0.41866 0.61927 0.66425
  outer loop
   vertex -0.080701 0.329057 -0.007369
   vertex -0.087086 0.325464 5e-06
   vertex -0.078782 0.323674 -0.00356
  endloop
 endfacet
 facet normal 0.741458 -0.284231 0.607826
  outer loop
   vertex -0.078782 0.323674 -0.00356
   vertex -0.083405 0.308785 -0.004883
   vertex -0.075863 0.317397 -0.010056
  endloop
 endfacet
 facet normal 0.0243192 0.583208 0.811959
  outer loop
   vertex -0.068016 0.332766 -0.010413
   vertex -0.080701 0.329057 -0.007369
   vertex -0.078782 0.323674 -0.00356
  endloop
 endfacet
 facet normal 0.122326 0.992274 0.0206916
  outer loop
   vertex -0.039238 0.331185 0.010672
   vertex -0.038411 0.331305 2.9e-05
   vertex -0.053309 0.333142 9e-06
  endloop
 endfacet
 facet normal 0.122381 0.99227 -0.0205836
  outer loop
   vertex -0.053309 0.333142 9e-06
   vertex -0.038411 0.331305 2.9e-05
   vertex -0.039238 0.331185 -0.010672
  endloop
 endfacet
 facet normal 0.828002 -0.0440947 0.558989
  outer loop
   vertex -0.044207 0.327365 0.017731
   vertex -0.039238 0.331185 0.010672
   vertex -0.044149 0.33156 0.017976
  endloop
 endfacet
 facet normal 0.117051 0.992738 0.0277368
  outer loop
   vertex -0.044149 0.33156 0.017976
   vertex -0.039238 0.331185 0.010672
   vertex -0.053309 0.333142 9e-06
  endloop
 endfacet
 facet normal 0.386585 -0.126163 0.913584
  outer loop
   vertex -0.050936 0.332489 0.021286
   vertex -0.050224 0.327567 0.020305
   vertex -0.044207 0.327365 0.017731
  endloop
 endfacet
 facet normal 0.431108 -0.0585469 0.900399
  outer loop
   vertex -0.050936 0.332489 0.021286
   vertex -0.044207 0.327365 0.017731
   vertex -0.044149 0.33156 0.017976
  endloop
 endfacet
 facet normal 0.828002 -0.0440947 -0.558989
  outer loop
   vertex -0.044149 0.33156 -0.017976
   vertex -0.039238 0.331185 -0.010672
   vertex -0.044207 0.327365 -0.017731
  endloop
 endfacet
 facet normal 0.117028 0.992742 -0.0277211
  outer loop
   vertex -0.053309 0.333142 9e-06
   vertex -0.039238 0.331185 -0.010672
   vertex -0.044149 0.33156 -0.017976
  endloop
 endfacet
 facet normal 0.386585 -0.126163 -0.913584
  outer loop
   vertex -0.044207 0.327365 -0.017731
   vertex -0.050224 0.327567 -0.020305
   vertex -0.050936 0.332489 -0.021286
  endloop
 endfacet
 facet normal 0.431108 -0.0585469 -0.900399
  outer loop
   vertex -0.044149 0.33156 -0.017976
   vertex -0.044207 0.327365 -0.017731
   vertex -0.050936 0.332489 -0.021286
  endloop
 endfacet
 facet normal 0.116928 0.00185058 0.993139
  outer loop
   vertex -0.059748 0.333105 0.021416
   vertex -0.058575 0.329829 0.021284
   vertex -0.050224 0.327567 0.020305
  endloop
 endfacet
 facet normal 0.000812705 -0.195351 0.980733
  outer loop
   vertex -0.059748 0.333105 0.021416
   vertex -0.050224 0.327567 0.020305
   vertex -0.050936 0.332489 0.021286
  endloop
 endfacet
 facet normal 0.388411 0.863472 0.321796
  outer loop
   vertex -0.079198 0.336864 0.015276
   vertex -0.069433 0.333146 0.013466
   vertex -0.067194 0.33418 0.007989
  endloop
 endfacet
 facet normal -0.0256807 0.923602 -0.382492
  outer loop
   vertex -0.067194 0.33418 0.007989
   vertex -0.079079 0.33452 0.009608
   vertex -0.079198 0.336864 0.015276
  endloop
 endfacet
 facet normal -0.112013 0.40514 -0.907367
  outer loop
   vertex -0.067194 0.33418 0.007989
   vertex -0.080701 0.329057 0.007369
   vertex -0.079079 0.33452 0.009608
  endloop
 endfacet
 facet normal 0.342813 -0.857384 -0.38389
  outer loop
   vertex -0.080701 0.329057 0.007369
   vertex -0.067194 0.33418 0.007989
   vertex -0.068016 0.332766 0.010413
  endloop
 endfacet
 facet normal 0.00483775 0.992677 -0.120703
  outer loop
   vertex -0.065619 0.333202 9e-06
   vertex -0.067194 0.33418 0.007989
   vertex -0.053309 0.333142 9e-06
  endloop
 endfacet
 facet normal 0.104253 0.993179 0.0522118
  outer loop
   vertex -0.067194 0.33418 0.007989
   vertex -0.065367 0.333549 0.016344
   vertex -0.053309 0.333142 9e-06
  endloop
 endfacet
 facet normal -0.17651 0.977854 0.112449
  outer loop
   vertex -0.069433 0.333146 0.013466
   vertex -0.065367 0.333549 0.016344
   vertex -0.067194 0.33418 0.007989
  endloop
 endfacet
 facet normal 0.00483791 0.992709 0.120436
  outer loop
   vertex -0.053309 0.333142 9e-06
   vertex -0.067194 0.33418 -0.007989
   vertex -0.065619 0.333202 9e-06
  endloop
 endfacet
 facet normal 0.388411 0.863472 -0.321796
  outer loop
   vertex -0.067194 0.33418 -0.007989
   vertex -0.069433 0.333146 -0.013466
   vertex -0.079198 0.336864 -0.015276
  endloop
 endfacet
 facet normal -0.0256807 0.923602 0.382492
  outer loop
   vertex -0.079198 0.336864 -0.015276
   vertex -0.079079 0.33452 -0.009608
   vertex -0.067194 0.33418 -0.007989
  endloop
 endfacet
 facet normal -0.112013 0.40514 0.907367
  outer loop
   vertex -0.079079 0.33452 -0.009608
   vertex -0.080701 0.329057 -0.007369
   vertex -0.067194 0.33418 -0.007989
  endloop
 endfacet
 facet normal 0.342813 -0.857384 0.38389
  outer loop
   vertex -0.068016 0.332766 -0.010413
   vertex -0.067194 0.33418 -0.007989
   vertex -0.080701 0.329057 -0.007369
  endloop
 endfacet
 facet normal 0.104313 0.993174 -0.0521984
  outer loop
   vertex -0.053309 0.333142 9e-06
   vertex -0.065367 0.333549 -0.016344
   vertex -0.067194 0.33418 -0.007989
  endloop
 endfacet
 facet normal -0.17651 0.977854 -0.112449
  outer loop
   vertex -0.067194 0.33418 -0.007989
   vertex -0.065367 0.333549 -0.016344
   vertex -0.069433 0.333146 -0.013466
  endloop
 endfacet
 facet normal -0.399195 -0.179167 0.89919
  outer loop
   vertex -0.059748 0.333105 0.021416
   vertex -0.063717 0.329843 0.019004
   vertex -0.058575 0.329829 0.021284
  endloop
 endfacet
 facet normal 0.263594 0.637184 0.724234
  outer loop
   vertex -0.065367 0.333549 0.016344
   vertex -0.072393 0.333381 0.019049
   vertex -0.063717 0.329843 0.019004
  endloop
 endfacet
 facet normal -0.640152 0.239034 0.730115
  outer loop
   vertex -0.059748 0.333105 0.021416
   vertex -0.065367 0.333549 0.016344
   vertex -0.063717 0.329843 0.019004
  endloop
 endfacet
 facet normal -0.0502213 0.996382 -0.0685646
  outer loop
   vertex -0.065367 0.333549 0.016344
   vertex -0.069433 0.333146 0.013466
   vertex -0.072393 0.333381 0.019049
  endloop
 endfacet
 facet normal -0.0186427 0.439088 0.898251
  outer loop
   vertex -0.072393 0.333381 0.019049
   vertex -0.078611 0.330611 0.020274
   vertex -0.076596 0.325705 0.022714
  endloop
 endfacet
 facet normal -0.207639 0.74595 0.632807
  outer loop
   vertex -0.078611 0.330611 0.020274
   vertex -0.072393 0.333381 0.019049
   vertex -0.077532 0.333212 0.017562
  endloop
 endfacet
 facet normal -0.0179273 0.99851 -0.0515325
  outer loop
   vertex -0.077532 0.333212 0.017562
   vertex -0.072393 0.333381 0.019049
   vertex -0.069433 0.333146 0.013466
  endloop
 endfacet
 facet normal -0.42299 -0.829366 0.365007
  outer loop
   vertex -0.091946 0.337253 0.033211
   vertex -0.086795 0.328872 0.020137
   vertex -0.081735 0.327146 0.022079
  endloop
 endfacet
 facet normal -0.432724 -0.799189 0.41719
  outer loop
   vertex -0.086795 0.328872 0.020137
   vertex -0.080163 0.323335 0.016409
   vertex -0.081735 0.327146 0.022079
  endloop
 endfacet
 facet normal 0.248181 0.262054 0.932595
  outer loop
   vertex -0.081735 0.327146 0.022079
   vertex -0.077628 0.317783 0.023617
   vertex -0.078611 0.330611 0.020274
  endloop
 endfacet
 facet normal 0.19123 0.312324 0.930529
  outer loop
   vertex -0.081383 0.332195 0.020312
   vertex -0.081735 0.327146 0.022079
   vertex -0.078611 0.330611 0.020274
  endloop
 endfacet
 facet normal 0.79303 0.151233 0.590111
  outer loop
   vertex -0.091946 0.337253 0.033211
   vertex -0.081735 0.327146 0.022079
   vertex -0.081383 0.332195 0.020312
  endloop
 endfacet
 facet normal -0.55178 0.385344 0.739627
  outer loop
   vertex -0.091594 0.315295 0.01207
   vertex -0.087274 0.316287 0.014776
   vertex -0.080163 0.323335 0.016409
  endloop
 endfacet
 facet normal 0.54696 0.095128 0.831736
  outer loop
   vertex -0.086795 0.328872 0.020137
   vertex -0.092949 0.328889 0.024182
   vertex -0.080163 0.323335 0.016409
  endloop
 endfacet
 facet normal 0.365407 -0.54373 0.755536
  outer loop
   vertex -0.080163 0.323335 0.016409
   vertex -0.087274 0.316287 0.014776
   vertex -0.075863 0.317397 0.010056
  endloop
 endfacet
 facet normal -0.510628 0.288971 0.809787
  outer loop
   vertex -0.080163 0.323335 0.016409
   vertex -0.085228 0.326446 0.012105
   vertex -0.091594 0.315295 0.01207
  endloop
 endfacet
 facet normal -0.451172 -0.885722 -0.109271
  outer loop
   vertex -0.080163 0.323335 0.016409
   vertex -0.092949 0.328889 0.024182
   vertex -0.085228 0.326446 0.012105
  endloop
 endfacet
 facet normal 0.953581 -0.00539234 -0.30109
  outer loop
   vertex -0.077628 0.317783 0.023617
   vertex -0.078554 0.319753 0.020649
   vertex -0.078611 0.330611 0.020274
  endloop
 endfacet
 facet normal 0.79968 -0.519729 -0.300654
  outer loop
   vertex -0.083405 0.308785 0.004883
   vertex -0.075863 0.317397 0.010056
   vertex -0.076461 0.315667 0.011456
  endloop
 endfacet
 facet normal 0.0974954 0.605491 0.789857
  outer loop
   vertex -0.091598 0.311818 0.016275
   vertex -0.076461 0.315667 0.011456
   vertex -0.075863 0.317397 0.010056
  endloop
 endfacet
 facet normal 0.386857 -0.0657875 0.91979
  outer loop
   vertex -0.091598 0.311818 0.016275
   vertex -0.075863 0.317397 0.010056
   vertex -0.087274 0.316287 0.014776
  endloop
 endfacet
 facet normal 0.515544 0.541871 0.663769
  outer loop
   vertex -0.078611 0.330611 0.020274
   vertex -0.080323 0.3263 0.025123
   vertex -0.076596 0.325705 0.022714
  endloop
 endfacet
 facet normal 0.444183 -0.420581 0.791083
  outer loop
   vertex -0.080323 0.3263 0.025123
   vertex -0.078554 0.319753 0.020649
   vertex -0.076596 0.325705 0.022714
  endloop
 endfacet
 facet normal -0.346621 -0.591273 0.728183
  outer loop
   vertex -0.080323 0.3263 0.025123
   vertex -0.081978 0.324546 0.022911
   vertex -0.078554 0.319753 0.020649
  endloop
 endfacet
 facet normal -0.574956 -0.0247794 -0.817809
  outer loop
   vertex -0.081978 0.324546 0.022911
   vertex -0.082703 0.330708 0.023234
   vertex -0.078554 0.319753 0.020649
  endloop
 endfacet
 facet normal -0.586298 -0.0310355 -0.809501
  outer loop
   vertex -0.078554 0.319753 0.020649
   vertex -0.082703 0.330708 0.023234
   vertex -0.078611 0.330611 0.020274
  endloop
 endfacet
 facet normal 0.467257 -0.516878 -0.717292
  outer loop
   vertex -0.079622 0.318977 3e-06
   vertex -0.083405 0.308785 0.004883
   vertex -0.085799 0.313393 3e-06
  endloop
 endfacet
 facet normal 0.467552 -0.517204 0.716864
  outer loop
   vertex -0.085799 0.313393 3e-06
   vertex -0.083405 0.308785 -0.004883
   vertex -0.079622 0.318977 3e-06
  endloop
 endfacet
 facet normal -0.686333 -0.666011 -0.292193
  outer loop
   vertex -0.085799 0.313393 3e-06
   vertex -0.083405 0.308785 0.004883
   vertex -0.083179 0.307887 0.006399
  endloop
 endfacet
 facet normal 0.807446 -0.446909 -0.385101
  outer loop
   vertex -0.083405 0.308785 0.004883
   vertex -0.076461 0.315667 0.011456
   vertex -0.083179 0.307887 0.006399
  endloop
 endfacet
 facet normal -0.649811 0.706758 0.27971
  outer loop
   vertex -0.097928 0.315496 4e-06
   vertex -0.088267 0.322507 0.004733
   vertex -0.087086 0.325464 5e-06
  endloop
 endfacet
 facet normal -0.146512 0.854727 0.497972
  outer loop
   vertex -0.087086 0.325464 5e-06
   vertex -0.088267 0.322507 0.004733
   vertex -0.084541 0.321286 0.007925
  endloop
 endfacet
 facet normal -0.960969 -0.0884514 0.262136
  outer loop
   vertex -0.087086 0.325464 5e-06
   vertex -0.084541 0.321286 0.007925
   vertex -0.084334 0.324988 0.009933
  endloop
 endfacet
 facet normal -0.656449 0.722602 0.21661
  outer loop
   vertex -0.084334 0.324988 0.009933
   vertex -0.080701 0.329057 0.007369
   vertex -0.087086 0.325464 5e-06
  endloop
 endfacet
 facet normal -0.649886 0.706896 -0.279187
  outer loop
   vertex -0.087086 0.325464 5e-06
   vertex -0.088267 0.322507 -0.004733
   vertex -0.097928 0.315496 4e-06
  endloop
 endfacet
 facet normal -0.145849 0.855188 -0.497374
  outer loop
   vertex -0.084541 0.321286 -0.007925
   vertex -0.088267 0.322507 -0.004733
   vertex -0.087086 0.325464 5e-06
  endloop
 endfacet
 facet normal -0.961046 -0.088319 -0.261899
  outer loop
   vertex -0.084334 0.324988 -0.009933
   vertex -0.084541 0.321286 -0.007925
   vertex -0.087086 0.325464 5e-06
  endloop
 endfacet
 facet normal -0.656548 0.72257 -0.216418
  outer loop
   vertex -0.087086 0.325464 5e-06
   vertex -0.080701 0.329057 -0.007369
   vertex -0.084334 0.324988 -0.009933
  endloop
 endfacet
 facet normal -0.79792 0.512898 -0.316637
  outer loop
   vertex -0.084334 0.324988 0.009933
   vertex -0.081735 0.32959 0.010838
   vertex -0.080701 0.329057 0.007369
  endloop
 endfacet
 facet normal -0.865632 0.387137 -0.317498
  outer loop
   vertex -0.080701 0.329057 0.007369
   vertex -0.081735 0.32959 0.010838
   vertex -0.079079 0.33452 0.009608
  endloop
 endfacet
 facet normal 0.116928 0.00185058 -0.993139
  outer loop
   vertex -0.050224 0.327567 -0.020305
   vertex -0.058575 0.329829 -0.021284
   vertex -0.059748 0.333105 -0.021416
  endloop
 endfacet
 facet normal 0.000812705 -0.195351 -0.980733
  outer loop
   vertex -0.050936 0.332489 -0.021286
   vertex -0.050224 0.327567 -0.020305
   vertex -0.059748 0.333105 -0.021416
  endloop
 endfacet
 facet normal -0.399195 -0.179167 -0.89919
  outer loop
   vertex -0.058575 0.329829 -0.021284
   vertex -0.063717 0.329843 -0.019004
   vertex -0.059748 0.333105 -0.021416
  endloop
 endfacet
 facet normal 0.263594 0.637184 -0.724234
  outer loop
   vertex -0.063717 0.329843 -0.019004
   vertex -0.072393 0.333381 -0.019049
   vertex -0.065367 0.333549 -0.016344
  endloop
 endfacet
 facet normal -0.640152 0.239034 -0.730115
  outer loop
   vertex -0.063717 0.329843 -0.019004
   vertex -0.065367 0.333549 -0.016344
   vertex -0.059748 0.333105 -0.021416
  endloop
 endfacet
 facet normal -0.0502213 0.996382 0.0685646
  outer loop
   vertex -0.072393 0.333381 -0.019049
   vertex -0.069433 0.333146 -0.013466
   vertex -0.065367 0.333549 -0.016344
  endloop
 endfacet
 facet normal -0.0186427 0.439088 -0.898251
  outer loop
   vertex -0.076596 0.325705 -0.022714
   vertex -0.078611 0.330611 -0.020274
   vertex -0.072393 0.333381 -0.019049
  endloop
 endfacet
 facet normal -0.207639 0.74595 -0.632807
  outer loop
   vertex -0.077532 0.333212 -0.017562
   vertex -0.072393 0.333381 -0.019049
   vertex -0.078611 0.330611 -0.020274
  endloop
 endfacet
 facet normal -0.0179273 0.99851 0.0515325
  outer loop
   vertex -0.069433 0.333146 -0.013466
   vertex -0.072393 0.333381 -0.019049
   vertex -0.077532 0.333212 -0.017562
  endloop
 endfacet
 facet normal -0.55178 0.385344 -0.739627
  outer loop
   vertex -0.080163 0.323335 -0.016409
   vertex -0.087274 0.316287 -0.014776
   vertex -0.091594 0.315295 -0.01207
  endloop
 endfacet
 facet normal -0.432724 -0.799189 -0.41719
  outer loop
   vertex -0.081735 0.327146 -0.022079
   vertex -0.080163 0.323335 -0.016409
   vertex -0.086795 0.328872 -0.020137
  endloop
 endfacet
 facet normal 0.54696 0.095128 -0.831736
  outer loop
   vertex -0.080163 0.323335 -0.016409
   vertex -0.092949 0.328889 -0.024182
   vertex -0.086795 0.328872 -0.020137
  endloop
 endfacet
 facet normal 0.365407 -0.54373 -0.755536
  outer loop
   vertex -0.075863 0.317397 -0.010056
   vertex -0.087274 0.316287 -0.014776
   vertex -0.080163 0.323335 -0.016409
  endloop
 endfacet
 facet normal -0.510628 0.288971 -0.809787
  outer loop
   vertex -0.091594 0.315295 -0.01207
   vertex -0.085228 0.326446 -0.012105
   vertex -0.080163 0.323335 -0.016409
  endloop
 endfacet
 facet normal -0.451172 -0.885722 0.109271
  outer loop
   vertex -0.085228 0.326446 -0.012105
   vertex -0.092949 0.328889 -0.024182
   vertex -0.080163 0.323335 -0.016409
  endloop
 endfacet
 facet normal -0.42299 -0.829366 -0.365007
  outer loop
   vertex -0.081735 0.327146 -0.022079
   vertex -0.086795 0.328872 -0.020137
   vertex -0.091946 0.337253 -0.033211
  endloop
 endfacet
 facet normal 0.248181 0.262054 -0.932595
  outer loop
   vertex -0.078611 0.330611 -0.020274
   vertex -0.077628 0.317783 -0.023617
   vertex -0.081735 0.327146 -0.022079
  endloop
 endfacet
 facet normal 0.19123 0.312324 -0.930529
  outer loop
   vertex -0.078611 0.330611 -0.020274
   vertex -0.081735 0.327146 -0.022079
   vertex -0.081383 0.332195 -0.020312
  endloop
 endfacet
 facet normal 0.79303 0.151233 -0.590111
  outer loop
   vertex -0.081383 0.332195 -0.020312
   vertex -0.081735 0.327146 -0.022079
   vertex -0.091946 0.337253 -0.033211
  endloop
 endfacet
 facet normal 0.953581 -0.00539234 0.30109
  outer loop
   vertex -0.078611 0.330611 -0.020274
   vertex -0.078554 0.319753 -0.020649
   vertex -0.077628 0.317783 -0.023617
  endloop
 endfacet
 facet normal 0.79968 -0.519729 0.300654
  outer loop
   vertex -0.076461 0.315667 -0.011456
   vertex -0.075863 0.317397 -0.010056
   vertex -0.083405 0.308785 -0.004883
  endloop
 endfacet
 facet normal 0.0974954 0.605491 -0.789857
  outer loop
   vertex -0.075863 0.317397 -0.010056
   vertex -0.076461 0.315667 -0.011456
   vertex -0.091598 0.311818 -0.016275
  endloop
 endfacet
 facet normal 0.386857 -0.0657875 -0.91979
  outer loop
   vertex -0.087274 0.316287 -0.014776
   vertex -0.075863 0.317397 -0.010056
   vertex -0.091598 0.311818 -0.016275
  endloop
 endfacet
 facet normal -0.346621 -0.591273 -0.728183
  outer loop
   vertex -0.078554 0.319753 -0.020649
   vertex -0.081978 0.324546 -0.022911
   vertex -0.080323 0.3263 -0.025123
  endloop
 endfacet
 facet normal 0.444183 -0.420581 -0.791083
  outer loop
   vertex -0.076596 0.325705 -0.022714
   vertex -0.078554 0.319753 -0.020649
   vertex -0.080323 0.3263 -0.025123
  endloop
 endfacet
 facet normal -0.574956 -0.0247794 0.817809
  outer loop
   vertex -0.078554 0.319753 -0.020649
   vertex -0.082703 0.330708 -0.023234
   vertex -0.081978 0.324546 -0.022911
  endloop
 endfacet
 facet normal -0.586298 -0.0310355 0.809501
  outer loop
   vertex -0.078611 0.330611 -0.020274
   vertex -0.082703 0.330708 -0.023234
   vertex -0.078554 0.319753 -0.020649
  endloop
 endfacet
 facet normal 0.515544 0.541871 -0.663769
  outer loop
   vertex -0.076596 0.325705 -0.022714
   vertex -0.080323 0.3263 -0.025123
   vertex -0.078611 0.330611 -0.020274
  endloop
 endfacet
 facet normal -0.685744 -0.666462 0.292548
  outer loop
   vertex -0.083179 0.307887 -0.006399
   vertex -0.083405 0.308785 -0.004883
   vertex -0.085799 0.313393 3e-06
  endloop
 endfacet
 facet normal 0.807446 -0.446909 0.385101
  outer loop
   vertex -0.083179 0.307887 -0.006399
   vertex -0.076461 0.315667 -0.011456
   vertex -0.083405 0.308785 -0.004883
  endloop
 endfacet
 facet normal -0.79792 0.512898 0.316637
  outer loop
   vertex -0.080701 0.329057 -0.007369
   vertex -0.081735 0.32959 -0.010838
   vertex -0.084334 0.324988 -0.009933
  endloop
 endfacet
 facet normal -0.865632 0.387137 0.317498
  outer loop
   vertex -0.079079 0.33452 -0.009608
   vertex -0.081735 0.32959 -0.010838
   vertex -0.080701 0.329057 -0.007369
  endloop
 endfacet
 facet normal 0.142532 0.989684 0.0144773
  outer loop
   vertex -0.050936 0.332489 0.021286
   vertex -0.044149 0.33156 0.017976
   vertex -0.053309 0.333142 9e-06
  endloop
 endfacet
 facet normal 0.0700492 0.997283 0.0227945
  outer loop
   vertex -0.059748 0.333105 0.021416
   vertex -0.050936 0.332489 0.021286
   vertex -0.053309 0.333142 9e-06
  endloop
 endfacet
 facet normal 0.0607918 0.99795 0.0200111
  outer loop
   vertex -0.065367 0.333549 0.016344
   vertex -0.059748 0.333105 0.021416
   vertex -0.053309 0.333142 9e-06
  endloop
 endfacet
 facet normal 0.142526 0.989685 -0.0144657
  outer loop
   vertex -0.053309 0.333142 9e-06
   vertex -0.044149 0.33156 -0.017976
   vertex -0.050936 0.332489 -0.021286
  endloop
 endfacet
 facet normal 0.070049 0.997284 -0.0227752
  outer loop
   vertex -0.053309 0.333142 9e-06
   vertex -0.050936 0.332489 -0.021286
   vertex -0.059748 0.333105 -0.021416
  endloop
 endfacet
 facet normal 0.0608037 0.997949 -0.0199978
  outer loop
   vertex -0.053309 0.333142 9e-06
   vertex -0.059748 0.333105 -0.021416
   vertex -0.065367 0.333549 -0.016344
  endloop
 endfacet
 facet normal 0.36236 0.607671 0.706704
  outer loop
   vertex -0.069433 0.333146 0.013466
   vertex -0.079198 0.336864 0.015276
   vertex -0.077532 0.333212 0.017562
  endloop
 endfacet
 facet normal 0.663932 0.590263 0.459113
  outer loop
   vertex -0.091946 0.337253 0.033211
   vertex -0.077532 0.333212 0.017562
   vertex -0.079198 0.336864 0.015276
  endloop
 endfacet
 facet normal -0.217371 0.960213 -0.175332
  outer loop
   vertex -0.097493 0.335016 0.027837
   vertex -0.091946 0.337253 0.033211
   vertex -0.079198 0.336864 0.015276
  endloop
 endfacet
 facet normal -0.443716 0.714312 -0.541179
  outer loop
   vertex -0.097493 0.335016 0.027837
   vertex -0.079198 0.336864 0.015276
   vertex -0.085479 0.33146 0.013293
  endloop
 endfacet
 facet normal -0.236334 0.564817 -0.79065
  outer loop
   vertex -0.079198 0.336864 0.015276
   vertex -0.081735 0.32959 0.010838
   vertex -0.085479 0.33146 0.013293
  endloop
 endfacet
 facet normal -0.882949 0.426999 -0.195122
  outer loop
   vertex -0.081735 0.32959 0.010838
   vertex -0.079198 0.336864 0.015276
   vertex -0.079079 0.33452 0.009608
  endloop
 endfacet
 facet normal 0.36236 0.607671 -0.706704
  outer loop
   vertex -0.077532 0.333212 -0.017562
   vertex -0.079198 0.336864 -0.015276
   vertex -0.069433 0.333146 -0.013466
  endloop
 endfacet
 facet normal 0.663932 0.590263 -0.459113
  outer loop
   vertex -0.079198 0.336864 -0.015276
   vertex -0.077532 0.333212 -0.017562
   vertex -0.091946 0.337253 -0.033211
  endloop
 endfacet
 facet normal -0.217371 0.960213 0.175332
  outer loop
   vertex -0.079198 0.336864 -0.015276
   vertex -0.091946 0.337253 -0.033211
   vertex -0.097493 0.335016 -0.027837
  endloop
 endfacet
 facet normal -0.443716 0.714312 0.541179
  outer loop
   vertex -0.085479 0.33146 -0.013293
   vertex -0.079198 0.336864 -0.015276
   vertex -0.097493 0.335016 -0.027837
  endloop
 endfacet
 facet normal -0.236334 0.564817 0.79065
  outer loop
   vertex -0.085479 0.33146 -0.013293
   vertex -0.081735 0.32959 -0.010838
   vertex -0.079198 0.336864 -0.015276
  endloop
 endfacet
 facet normal -0.882949 0.426999 0.195122
  outer loop
   vertex -0.079079 0.33452 -0.009608
   vertex -0.079198 0.336864 -0.015276
   vertex -0.081735 0.32959 -0.010838
  endloop
 endfacet
 facet normal 0.4964 0.554315 0.668073
  outer loop
   vertex -0.078611 0.330611 0.020274
   vertex -0.082703 0.330708 0.023234
   vertex -0.080323 0.3263 0.025123
  endloop
 endfacet
 facet normal 0.35326 0.600996 0.716946
  outer loop
   vertex -0.078611 0.330611 0.020274
   vertex -0.077532 0.333212 0.017562
   vertex -0.081383 0.332195 0.020312
  endloop
 endfacet
 facet normal 0.594162 -0.453429 0.664359
  outer loop
   vertex -0.091946 0.337253 0.033211
   vertex -0.081383 0.332195 0.020312
   vertex -0.077532 0.333212 0.017562
  endloop
 endfacet
 facet normal 0.791413 -0.323088 0.518921
  outer loop
   vertex -0.091946 0.337253 0.033211
   vertex -0.095786 0.333608 0.036798
   vertex -0.086795 0.328872 0.020137
  endloop
 endfacet
 facet normal -0.547815 0.804159 0.230709
  outer loop
   vertex -0.095786 0.333608 0.036798
   vertex -0.091946 0.337253 0.033211
   vertex -0.097493 0.335016 0.027837
  endloop
 endfacet
 facet normal -0.0811749 -0.969383 0.231748
  outer loop
   vertex -0.086795 0.328872 0.020137
   vertex -0.095786 0.333608 0.036798
   vertex -0.097617 0.3318 0.028594
  endloop
 endfacet
 facet normal 0.511429 -0.361474 0.779601
  outer loop
   vertex -0.092949 0.328889 0.024182
   vertex -0.086795 0.328872 0.020137
   vertex -0.097617 0.3318 0.028594
  endloop
 endfacet
 facet normal -0.499113 0.668041 0.551912
  outer loop
   vertex -0.091598 0.311818 0.016275
   vertex -0.087274 0.316287 0.014776
   vertex -0.091594 0.315295 0.01207
  endloop
 endfacet
 facet normal -0.659355 -0.0399928 0.750767
  outer loop
   vertex -0.091594 0.315295 0.01207
   vertex -0.094047 0.313086 0.009798
   vertex -0.094415 0.30926 0.009271
  endloop
 endfacet
 facet normal -0.877214 0.209752 0.431856
  outer loop
   vertex -0.091594 0.315295 0.01207
   vertex -0.094415 0.30926 0.009271
   vertex -0.091814 0.306195 0.016043
  endloop
 endfacet
 facet normal -0.998867 0.037142 0.0297631
  outer loop
   vertex -0.091594 0.315295 0.01207
   vertex -0.091814 0.306195 0.016043
   vertex -0.091598 0.311818 0.016275
  endloop
 endfacet
 facet normal -0.763519 0.598581 0.24236
  outer loop
   vertex -0.094047 0.313086 0.009798
   vertex -0.091594 0.315295 0.01207
   vertex -0.091368 0.317049 0.00845
  endloop
 endfacet
 facet normal -0.854082 0.487015 0.182649
  outer loop
   vertex -0.085228 0.326446 0.012105
   vertex -0.091368 0.317049 0.00845
   vertex -0.091594 0.315295 0.01207
  endloop
 endfacet
 facet normal -0.723066 -0.131736 -0.678102
  outer loop
   vertex -0.092949 0.328889 0.024182
   vertex -0.097617 0.3318 0.028594
   vertex -0.097493 0.335016 0.027837
  endloop
 endfacet
 facet normal -0.77741 -0.226508 -0.586795
  outer loop
   vertex -0.092949 0.328889 0.024182
   vertex -0.097493 0.335016 0.027837
   vertex -0.085479 0.33146 0.013293
  endloop
 endfacet
 facet normal -0.66506 0.524764 -0.531335
  outer loop
   vertex -0.081735 0.32959 0.010838
   vertex -0.085228 0.326446 0.012105
   vertex -0.092949 0.328889 0.024182
  endloop
 endfacet
 facet normal -0.633789 -0.532933 -0.560618
  outer loop
   vertex -0.081735 0.32959 0.010838
   vertex -0.092949 0.328889 0.024182
   vertex -0.085479 0.33146 0.013293
  endloop
 endfacet
 facet normal -0.647764 0.481872 -0.590086
  outer loop
   vertex -0.084334 0.324988 0.009933
   vertex -0.085228 0.326446 0.012105
   vertex -0.081735 0.32959 0.010838
  endloop
 endfacet
 facet normal -0.39552 0.545761 -0.738721
  outer loop
   vertex -0.091368 0.317049 0.00845
   vertex -0.085228 0.326446 0.012105
   vertex -0.084541 0.321286 0.007925
  endloop
 endfacet
 facet normal -0.768867 0.337547 -0.543052
  outer loop
   vertex -0.084541 0.321286 0.007925
   vertex -0.085228 0.326446 0.012105
   vertex -0.084334 0.324988 0.009933
  endloop
 endfacet
 facet normal 0.335341 -0.155447 0.929184
  outer loop
   vertex -0.091598 0.311818 0.016275
   vertex -0.084407 0.306063 0.012717
   vertex -0.076461 0.315667 0.011456
  endloop
 endfacet
 facet normal 0.767699 -0.639827 -0.0355019
  outer loop
   vertex -0.076461 0.315667 0.011456
   vertex -0.084407 0.306063 0.012717
   vertex -0.083179 0.307887 0.006399
  endloop
 endfacet
 facet normal 0.40826 -0.0532824 0.911309
  outer loop
   vertex -0.091598 0.311818 0.016275
   vertex -0.091814 0.306195 0.016043
   vertex -0.084407 0.306063 0.012717
  endloop
 endfacet
 facet normal -0.745846 -0.122079 0.654836
  outer loop
   vertex -0.080323 0.3263 0.025123
   vertex -0.082703 0.330708 0.023234
   vertex -0.081978 0.324546 0.022911
  endloop
 endfacet
 facet normal -0.691724 -0.662646 -0.287088
  outer loop
   vertex -0.085799 0.313393 3e-06
   vertex -0.083179 0.307887 0.006399
   vertex -0.085377 0.310749 0.005089
  endloop
 endfacet
 facet normal 0.790399 -0.514237 -0.332912
  outer loop
   vertex -0.085799 0.313393 3e-06
   vertex -0.085377 0.310749 0.005089
   vertex -0.088548 0.309169 1e-06
  endloop
 endfacet
 facet normal -0.691905 -0.662616 0.286719
  outer loop
   vertex -0.085377 0.310749 -0.005089
   vertex -0.083179 0.307887 -0.006399
   vertex -0.085799 0.313393 3e-06
  endloop
 endfacet
 facet normal 0.790331 -0.514508 0.332655
  outer loop
   vertex -0.088548 0.309169 1e-06
   vertex -0.085377 0.310749 -0.005089
   vertex -0.085799 0.313393 3e-06
  endloop
 endfacet
 facet normal -0.67345 -0.664993 -0.322878
  outer loop
   vertex -0.083179 0.307887 0.006399
   vertex -0.084407 0.306063 0.012717
   vertex -0.085377 0.310749 0.005089
  endloop
 endfacet
 facet normal -0.501836 0.837463 -0.216369
  outer loop
   vertex -0.096312 0.317496 0.003997
   vertex -0.088267 0.322507 0.004733
   vertex -0.097928 0.315496 4e-06
  endloop
 endfacet
 facet normal -0.680879 0.496287 0.538612
  outer loop
   vertex -0.097928 0.315496 4e-06
   vertex -0.105178 0.30557 -1.5e-05
   vertex -0.096193 0.31366 0.003889
  endloop
 endfacet
 facet normal -0.919194 -0.0395465 0.391814
  outer loop
   vertex -0.097928 0.315496 4e-06
   vertex -0.096193 0.31366 0.003889
   vertex -0.096312 0.317496 0.003997
  endloop
 endfacet
 facet normal -0.501916 0.837527 0.215936
  outer loop
   vertex -0.097928 0.315496 4e-06
   vertex -0.088267 0.322507 -0.004733
   vertex -0.096312 0.317496 -0.003997
  endloop
 endfacet
 facet normal -0.680231 0.497874 -0.537966
  outer loop
   vertex -0.096193 0.31366 -0.003889
   vertex -0.105178 0.30557 -1.5e-05
   vertex -0.097928 0.315496 4e-06
  endloop
 endfacet
 facet normal -0.919481 -0.0395365 -0.391141
  outer loop
   vertex -0.096312 0.317496 -0.003997
   vertex -0.096193 0.31366 -0.003889
   vertex -0.097928 0.315496 4e-06
  endloop
 endfacet
 facet normal -0.419286 0.569281 0.70719
  outer loop
   vertex -0.096312 0.317496 0.003997
   vertex -0.084541 0.321286 0.007925
   vertex -0.088267 0.322507 0.004733
  endloop
 endfacet
 facet normal -0.415405 0.735633 0.535054
  outer loop
   vertex -0.096312 0.317496 0.003997
   vertex -0.091368 0.317049 0.00845
   vertex -0.084541 0.321286 0.007925
  endloop
 endfacet
 facet normal -0.419286 0.569281 -0.70719
  outer loop
   vertex -0.088267 0.322507 -0.004733
   vertex -0.084541 0.321286 -0.007925
   vertex -0.096312 0.317496 -0.003997
  endloop
 endfacet
 facet normal -0.415405 0.735633 -0.535054
  outer loop
   vertex -0.084541 0.321286 -0.007925
   vertex -0.091368 0.317049 -0.00845
   vertex -0.096312 0.317496 -0.003997
  endloop
 endfacet
 facet normal -0.39552 0.545761 0.738721
  outer loop
   vertex -0.084541 0.321286 -0.007925
   vertex -0.085228 0.326446 -0.012105
   vertex -0.091368 0.317049 -0.00845
  endloop
 endfacet
 facet normal -0.768867 0.337547 0.543052
  outer loop
   vertex -0.084334 0.324988 -0.009933
   vertex -0.085228 0.326446 -0.012105
   vertex -0.084541 0.321286 -0.007925
  endloop
 endfacet
 facet normal -0.647764 0.481872 0.590086
  outer loop
   vertex -0.081735 0.32959 -0.010838
   vertex -0.085228 0.326446 -0.012105
   vertex -0.084334 0.324988 -0.009933
  endloop
 endfacet
 facet normal 0.4964 0.554315 -0.668073
  outer loop
   vertex -0.080323 0.3263 -0.025123
   vertex -0.082703 0.330708 -0.023234
   vertex -0.078611 0.330611 -0.020274
  endloop
 endfacet
 facet normal 0.35326 0.600996 -0.716946
  outer loop
   vertex -0.081383 0.332195 -0.020312
   vertex -0.077532 0.333212 -0.017562
   vertex -0.078611 0.330611 -0.020274
  endloop
 endfacet
 facet normal 0.594162 -0.453429 -0.664359
  outer loop
   vertex -0.077532 0.333212 -0.017562
   vertex -0.081383 0.332195 -0.020312
   vertex -0.091946 0.337253 -0.033211
  endloop
 endfacet
 facet normal -0.499113 0.668041 -0.551912
  outer loop
   vertex -0.091594 0.315295 -0.01207
   vertex -0.087274 0.316287 -0.014776
   vertex -0.091598 0.311818 -0.016275
  endloop
 endfacet
 facet normal -0.659355 -0.0399928 -0.750767
  outer loop
   vertex -0.094415 0.30926 -0.009271
   vertex -0.094047 0.313086 -0.009798
   vertex -0.091594 0.315295 -0.01207
  endloop
 endfacet
 facet normal -0.877245 0.209809 -0.431764
  outer loop
   vertex -0.091815 0.306195 -0.016043
   vertex -0.094415 0.30926 -0.009271
   vertex -0.091594 0.315295 -0.01207
  endloop
 endfacet
 facet normal -0.998856 0.0373144 -0.0299057
  outer loop
   vertex -0.091598 0.311818 -0.016275
   vertex -0.091815 0.306195 -0.016043
   vertex -0.091594 0.315295 -0.01207
  endloop
 endfacet
 facet normal -0.763519 0.598581 -0.24236
  outer loop
   vertex -0.091368 0.317049 -0.00845
   vertex -0.091594 0.315295 -0.01207
   vertex -0.094047 0.313086 -0.009798
  endloop
 endfacet
 facet normal -0.854082 0.487015 -0.182649
  outer loop
   vertex -0.091594 0.315295 -0.01207
   vertex -0.091368 0.317049 -0.00845
   vertex -0.085228 0.326446 -0.012105
  endloop
 endfacet
 facet normal 0.791413 -0.323088 -0.518921
  outer loop
   vertex -0.086795 0.328872 -0.020137
   vertex -0.095786 0.333608 -0.036798
   vertex -0.091946 0.337253 -0.033211
  endloop
 endfacet
 facet normal -0.0811749 -0.969383 -0.231748
  outer loop
   vertex -0.097617 0.3318 -0.028594
   vertex -0.095786 0.333608 -0.036798
   vertex -0.086795 0.328872 -0.020137
  endloop
 endfacet
 facet normal 0.511429 -0.361474 -0.779601
  outer loop
   vertex -0.097617 0.3318 -0.028594
   vertex -0.086795 0.328872 -0.020137
   vertex -0.092949 0.328889 -0.024182
  endloop
 endfacet
 facet normal -0.723066 -0.131736 0.678102
  outer loop
   vertex -0.097493 0.335016 -0.027837
   vertex -0.097617 0.3318 -0.028594
   vertex -0.092949 0.328889 -0.024182
  endloop
 endfacet
 facet normal -0.77741 -0.226508 0.586795
  outer loop
   vertex -0.085479 0.33146 -0.013293
   vertex -0.097493 0.335016 -0.027837
   vertex -0.092949 0.328889 -0.024182
  endloop
 endfacet
 facet normal -0.66506 0.524764 0.531335
  outer loop
   vertex -0.092949 0.328889 -0.024182
   vertex -0.085228 0.326446 -0.012105
   vertex -0.081735 0.32959 -0.010838
  endloop
 endfacet
 facet normal -0.633789 -0.532933 0.560618
  outer loop
   vertex -0.085479 0.33146 -0.013293
   vertex -0.092949 0.328889 -0.024182
   vertex -0.081735 0.32959 -0.010838
  endloop
 endfacet
 facet normal -0.547815 0.804159 -0.230709
  outer loop
   vertex -0.097493 0.335016 -0.027837
   vertex -0.091946 0.337253 -0.033211
   vertex -0.095786 0.333608 -0.036798
  endloop
 endfacet
 facet normal 0.335341 -0.155447 -0.929184
  outer loop
   vertex -0.076461 0.315667 -0.011456
   vertex -0.084407 0.306063 -0.012717
   vertex -0.091598 0.311818 -0.016275
  endloop
 endfacet
 facet normal 0.767699 -0.639827 0.0355019
  outer loop
   vertex -0.083179 0.307887 -0.006399
   vertex -0.084407 0.306063 -0.012717
   vertex -0.076461 0.315667 -0.011456
  endloop
 endfacet
 facet normal 0.408211 -0.0533543 -0.911327
  outer loop
   vertex -0.084407 0.306063 -0.012717
   vertex -0.091815 0.306195 -0.016043
   vertex -0.091598 0.311818 -0.016275
  endloop
 endfacet
 facet normal -0.745846 -0.122079 -0.654836
  outer loop
   vertex -0.081978 0.324546 -0.022911
   vertex -0.082703 0.330708 -0.023234
   vertex -0.080323 0.3263 -0.025123
  endloop
 endfacet
 facet normal -0.67345 -0.664993 0.322878
  outer loop
   vertex -0.085377 0.310749 -0.005089
   vertex -0.084407 0.306063 -0.012717
   vertex -0.083179 0.307887 -0.006399
  endloop
 endfacet
 facet normal -0.976293 0.0845462 0.199261
  outer loop
   vertex -0.095786 0.333608 0.036798
   vertex -0.097493 0.335016 0.027837
   vertex -0.097617 0.3318 0.028594
  endloop
 endfacet
 facet normal -0.976293 0.0845462 -0.199261
  outer loop
   vertex -0.097617 0.3318 -0.028594
   vertex -0.097493 0.335016 -0.027837
   vertex -0.095786 0.333608 -0.036798
  endloop
 endfacet
 facet normal -0.729251 0.602987 0.323419
  outer loop
   vertex -0.096193 0.31366 0.003889
   vertex -0.094047 0.313086 0.009798
   vertex -0.091368 0.317049 0.00845
  endloop
 endfacet
 facet normal -0.922592 0.0358304 0.38411
  outer loop
   vertex -0.096556 0.310027 0.004057
   vertex -0.094415 0.30926 0.009271
   vertex -0.094047 0.313086 0.009798
  endloop
 endfacet
 facet normal -0.93087 0.109134 0.348669
  outer loop
   vertex -0.096556 0.310027 0.004057
   vertex -0.094047 0.313086 0.009798
   vertex -0.096193 0.31366 0.003889
  endloop
 endfacet
 facet normal -0.435004 -0.837548 0.330584
  outer loop
   vertex -0.095709 0.30815 0.004756
   vertex -0.090814 0.306609 0.007293
   vertex -0.094415 0.30926 0.009271
  endloop
 endfacet
 facet normal -0.900844 -0.284325 0.328084
  outer loop
   vertex -0.095709 0.30815 0.004756
   vertex -0.094415 0.30926 0.009271
   vertex -0.096556 0.310027 0.004057
  endloop
 endfacet
 facet normal -0.62723 -0.771285 -0.108177
  outer loop
   vertex -0.090814 0.306609 0.007293
   vertex -0.091814 0.306195 0.016043
   vertex -0.094415 0.30926 0.009271
  endloop
 endfacet
 facet normal -0.0410897 -0.997806 -0.051908
  outer loop
   vertex -0.090814 0.306609 0.007293
   vertex -0.084407 0.306063 0.012717
   vertex -0.091814 0.306195 0.016043
  endloop
 endfacet
 facet normal -0.670743 -0.0416566 0.74052
  outer loop
   vertex -0.096193 0.31366 0.003889
   vertex -0.091368 0.317049 0.00845
   vertex -0.096312 0.317496 0.003997
  endloop
 endfacet
 facet normal 0.374314 -0.768136 -0.519477
  outer loop
   vertex -0.085377 0.310749 0.005089
   vertex -0.084407 0.306063 0.012717
   vertex -0.090814 0.306609 0.007293
  endloop
 endfacet
 facet normal 0.18503 -0.640013 -0.745753
  outer loop
   vertex -0.085377 0.310749 0.005089
   vertex -0.090814 0.306609 0.007293
   vertex -0.095709 0.30815 0.004756
  endloop
 endfacet
 facet normal 0.165328 -0.740675 0.651204
  outer loop
   vertex -0.085377 0.310749 0.005089
   vertex -0.095709 0.30815 0.004756
   vertex -0.095765 0.303956 -0
  endloop
 endfacet
 facet normal 0.581837 -0.805489 -0.112486
  outer loop
   vertex -0.088548 0.309169 1e-06
   vertex -0.085377 0.310749 0.005089
   vertex -0.095765 0.303956 -0
  endloop
 endfacet
 facet normal 0.581821 -0.805509 0.112426
  outer loop
   vertex -0.095765 0.303956 -0
   vertex -0.085377 0.310749 -0.005089
   vertex -0.088548 0.309169 1e-06
  endloop
 endfacet
 facet normal 0.374314 -0.768136 0.519477
  outer loop
   vertex -0.090814 0.306609 -0.007293
   vertex -0.084407 0.306063 -0.012717
   vertex -0.085377 0.310749 -0.005089
  endloop
 endfacet
 facet normal 0.18503 -0.640013 0.745753
  outer loop
   vertex -0.095709 0.30815 -0.004756
   vertex -0.090814 0.306609 -0.007293
   vertex -0.085377 0.310749 -0.005089
  endloop
 endfacet
 facet normal 0.165328 -0.740675 -0.651204
  outer loop
   vertex -0.095765 0.303956 -0
   vertex -0.095709 0.30815 -0.004756
   vertex -0.085377 0.310749 -0.005089
  endloop
 endfacet
 facet normal -0.571702 0.657162 0.491218
  outer loop
   vertex -0.105178 0.30557 -1.5e-05
   vertex -0.111991 0.299646 -1.9e-05
   vertex -0.096556 0.310027 0.004057
  endloop
 endfacet
 facet normal -0.461833 0.0869635 0.882693
  outer loop
   vertex -0.105178 0.30557 -1.5e-05
   vertex -0.096556 0.310027 0.004057
   vertex -0.096193 0.31366 0.003889
  endloop
 endfacet
 facet normal -0.570634 0.6566 -0.493208
  outer loop
   vertex -0.096556 0.310027 -0.004057
   vertex -0.111991 0.299646 -1.9e-05
   vertex -0.105178 0.30557 -1.5e-05
  endloop
 endfacet
 facet normal -0.459292 0.0867717 -0.884037
  outer loop
   vertex -0.096193 0.31366 -0.003889
   vertex -0.096556 0.310027 -0.004057
   vertex -0.105178 0.30557 -1.5e-05
  endloop
 endfacet
 facet normal -0.670743 -0.0416566 -0.74052
  outer loop
   vertex -0.096312 0.317496 -0.003997
   vertex -0.091368 0.317049 -0.00845
   vertex -0.096193 0.31366 -0.003889
  endloop
 endfacet
 facet normal -0.729251 0.602987 -0.323419
  outer loop
   vertex -0.091368 0.317049 -0.00845
   vertex -0.094047 0.313086 -0.009798
   vertex -0.096193 0.31366 -0.003889
  endloop
 endfacet
 facet normal -0.93087 0.109134 -0.348669
  outer loop
   vertex -0.096193 0.31366 -0.003889
   vertex -0.094047 0.313086 -0.009798
   vertex -0.096556 0.310027 -0.004057
  endloop
 endfacet
 facet normal -0.922592 0.0358304 -0.38411
  outer loop
   vertex -0.094047 0.313086 -0.009798
   vertex -0.094415 0.30926 -0.009271
   vertex -0.096556 0.310027 -0.004057
  endloop
 endfacet
 facet normal -0.435004 -0.837548 -0.330584
  outer loop
   vertex -0.094415 0.30926 -0.009271
   vertex -0.090814 0.306609 -0.007293
   vertex -0.095709 0.30815 -0.004756
  endloop
 endfacet
 facet normal -0.900844 -0.284325 -0.328084
  outer loop
   vertex -0.096556 0.310027 -0.004057
   vertex -0.094415 0.30926 -0.009271
   vertex -0.095709 0.30815 -0.004756
  endloop
 endfacet
 facet normal -0.62725 -0.771258 0.10825
  outer loop
   vertex -0.094415 0.30926 -0.009271
   vertex -0.091815 0.306195 -0.016043
   vertex -0.090814 0.306609 -0.007293
  endloop
 endfacet
 facet normal -0.041086 -0.997806 0.0519123
  outer loop
   vertex -0.091815 0.306195 -0.016043
   vertex -0.084407 0.306063 -0.012717
   vertex -0.090814 0.306609 -0.007293
  endloop
 endfacet
 facet normal -0.447002 0.339707 0.827519
  outer loop
   vertex -0.111991 0.299646 -1.9e-05
   vertex -0.104439 0.298787 0.004413
   vertex -0.096556 0.310027 0.004057
  endloop
 endfacet
 facet normal -0.409883 0.150092 0.899705
  outer loop
   vertex -0.098655 0.302059 0.00443
   vertex -0.095709 0.30815 0.004756
   vertex -0.096556 0.310027 0.004057
  endloop
 endfacet
 facet normal -0.0344984 0.0557993 0.997846
  outer loop
   vertex -0.098655 0.302059 0.00443
   vertex -0.096556 0.310027 0.004057
   vertex -0.104439 0.298787 0.004413
  endloop
 endfacet
 facet normal 0.773284 -0.480054 0.414222
  outer loop
   vertex -0.105431 0.291354 0.00344
   vertex -0.095765 0.303956 -0
   vertex -0.095709 0.30815 0.004756
  endloop
 endfacet
 facet normal 0.251848 -0.0701496 -0.965221
  outer loop
   vertex -0.105431 0.291354 0.00344
   vertex -0.095709 0.30815 0.004756
   vertex -0.098655 0.302059 0.00443
  endloop
 endfacet
 facet normal 0.716971 -0.630881 -0.29655
  outer loop
   vertex -0.095765 0.303956 -0
   vertex -0.105431 0.291354 0.00344
   vertex -0.1072 0.290962 -3e-06
  endloop
 endfacet
 facet normal 0.716802 -0.63087 0.296982
  outer loop
   vertex -0.1072 0.290962 -3e-06
   vertex -0.105431 0.291354 -0.00344
   vertex -0.095765 0.303956 -0
  endloop
 endfacet
 facet normal 0.773284 -0.480054 -0.414222
  outer loop
   vertex -0.095709 0.30815 -0.004756
   vertex -0.095765 0.303956 -0
   vertex -0.105431 0.291354 -0.00344
  endloop
 endfacet
 facet normal -0.409883 0.150092 -0.899705
  outer loop
   vertex -0.096556 0.310027 -0.004057
   vertex -0.095709 0.30815 -0.004756
   vertex -0.098655 0.302059 -0.00443
  endloop
 endfacet
 facet normal 0.251848 -0.0701496 0.965221
  outer loop
   vertex -0.098655 0.302059 -0.00443
   vertex -0.095709 0.30815 -0.004756
   vertex -0.105431 0.291354 -0.00344
  endloop
 endfacet
 facet normal -0.185185 0.856616 0.481577
  outer loop
   vertex -0.111991 0.299646 -1.9e-05
   vertex -0.113489 0.296803 0.004462
   vertex -0.104439 0.298787 0.004413
  endloop
 endfacet
 facet normal -0.85575 0.515751 0.0411438
  outer loop
   vertex -0.114388 0.295669 -2.1e-05
   vertex -0.113489 0.296803 0.004462
   vertex -0.111991 0.299646 -1.9e-05
  endloop
 endfacet
 facet normal -0.184795 0.854915 -0.484738
  outer loop
   vertex -0.104439 0.298787 -0.004413
   vertex -0.113489 0.296803 -0.004462
   vertex -0.111991 0.299646 -1.9e-05
  endloop
 endfacet
 facet normal -0.444316 0.337893 -0.829706
  outer loop
   vertex -0.096556 0.310027 -0.004057
   vertex -0.104439 0.298787 -0.004413
   vertex -0.111991 0.299646 -1.9e-05
  endloop
 endfacet
 facet normal -0.855718 0.515774 -0.0415208
  outer loop
   vertex -0.111991 0.299646 -1.9e-05
   vertex -0.113489 0.296803 -0.004462
   vertex -0.114388 0.295669 -2.1e-05
  endloop
 endfacet
 facet normal -0.0344984 0.0557993 -0.997846
  outer loop
   vertex -0.104439 0.298787 -0.004413
   vertex -0.096556 0.310027 -0.004057
   vertex -0.098655 0.302059 -0.00443
  endloop
 endfacet
 facet normal 0.0759444 -0.139379 0.987323
  outer loop
   vertex -0.105431 0.291354 0.00344
   vertex -0.098655 0.302059 0.00443
   vertex -0.104439 0.298787 0.004413
  endloop
 endfacet
 facet normal 0.206576 -0.154051 0.966227
  outer loop
   vertex -0.105431 0.291354 0.00344
   vertex -0.104439 0.298787 0.004413
   vertex -0.111924 0.293661 0.005196
  endloop
 endfacet
 facet normal -0.0403511 0.208197 0.977254
  outer loop
   vertex -0.113489 0.296803 0.004462
   vertex -0.111924 0.293661 0.005196
   vertex -0.104439 0.298787 0.004413
  endloop
 endfacet
 facet normal -0.265819 -0.932948 0.242794
  outer loop
   vertex -0.1072 0.290962 -3e-06
   vertex -0.105431 0.291354 0.00344
   vertex -0.111924 0.293661 0.005196
  endloop
 endfacet
 facet normal -0.255364 -0.933298 0.252475
  outer loop
   vertex -0.1072 0.290962 -3e-06
   vertex -0.111924 0.293661 0.005196
   vertex -0.111036 0.292007 -2e-05
  endloop
 endfacet
 facet normal -0.265701 -0.932888 -0.24315
  outer loop
   vertex -0.111924 0.293661 -0.005196
   vertex -0.105431 0.291354 -0.00344
   vertex -0.1072 0.290962 -3e-06
  endloop
 endfacet
 facet normal -0.253111 -0.933278 -0.254807
  outer loop
   vertex -0.111036 0.292007 -2e-05
   vertex -0.111924 0.293661 -0.005196
   vertex -0.1072 0.290962 -3e-06
  endloop
 endfacet
 facet normal 0.0759444 -0.139379 -0.987323
  outer loop
   vertex -0.104439 0.298787 -0.004413
   vertex -0.098655 0.302059 -0.00443
   vertex -0.105431 0.291354 -0.00344
  endloop
 endfacet
 facet normal 0.206576 -0.154051 -0.966227
  outer loop
   vertex -0.111924 0.293661 -0.005196
   vertex -0.104439 0.298787 -0.004413
   vertex -0.105431 0.291354 -0.00344
  endloop
 endfacet
 facet normal -0.894106 -0.447738 -0.0102388
  outer loop
   vertex -0.111036 0.292007 -2e-05
   vertex -0.111924 0.293661 0.005196
   vertex -0.113489 0.296803 0.004462
  endloop
 endfacet
 facet normal -0.702848 -0.643267 0.303664
  outer loop
   vertex -0.111036 0.292007 -2e-05
   vertex -0.113489 0.296803 0.004462
   vertex -0.114388 0.295669 -2.1e-05
  endloop
 endfacet
 facet normal -0.702149 -0.642794 -0.306274
  outer loop
   vertex -0.114388 0.295669 -2.1e-05
   vertex -0.113489 0.296803 -0.004462
   vertex -0.111036 0.292007 -2e-05
  endloop
 endfacet
 facet normal -0.0403511 0.208197 -0.977254
  outer loop
   vertex -0.104439 0.298787 -0.004413
   vertex -0.111924 0.293661 -0.005196
   vertex -0.113489 0.296803 -0.004462
  endloop
 endfacet
 facet normal -0.894099 -0.447752 0.0103123
  outer loop
   vertex -0.113489 0.296803 -0.004462
   vertex -0.111924 0.293661 -0.005196
   vertex -0.111036 0.292007 -2e-05
  endloop
 endfacet
endsolid
